<svg width="40" height="40" viewBox="0 0 40 40" fill="none" xmlns="http://www.w3.org/2000/svg">
<g clip-path="url(#clip0_4198_3637)">
<path d="M13.4446 2.8717C7.58882 2.8717 2.82715 7.63337 2.82715 13.4896C2.82715 19.3455 7.58882 24.1071 13.4446 24.1071C19.3009 24.1071 24.0626 19.3455 24.0626 13.4896C24.0626 7.63337 19.3009 2.8717 13.4446 2.8717ZM13.4446 22.9788C8.21507 22.9788 3.95548 18.7192 3.95548 13.4896C3.95548 8.25962 8.21507 4.00004 13.4446 4.00004C18.6747 4.00004 22.9342 8.25962 22.9342 13.4896C22.9342 18.7192 18.6747 22.9788 13.4446 22.9788Z" fill="#69DDFF"/>
<path d="M21.292 12.1296C21.134 11.2046 20.8124 10.3246 20.344 9.51207C18.9224 7.05207 16.282 5.52332 13.444 5.52332C13.134 5.52332 12.8799 5.77707 12.8799 6.08748C12.8799 6.3979 13.134 6.65165 13.444 6.65165C15.8815 6.65165 18.1495 7.96623 19.3678 10.0762C19.7686 10.77 20.0449 11.5262 20.1803 12.3158C20.2482 12.6996 20.2761 13.0887 20.2761 13.4837C20.2761 13.7941 20.5303 14.0479 20.8403 14.0479C21.1507 14.0479 21.4049 13.7941 21.4049 13.4837C21.4049 13.0325 21.3653 12.5754 21.292 12.1296Z" fill="#69DDFF"/>
<path d="M29.9291 25.6475L27.8754 23.5938C27.3958 23.1142 26.6341 23.0408 26.0533 23.3454L24.2083 21.5008C25.8783 19.2608 26.8654 16.4908 26.8654 13.4896C26.8654 6.0875 20.8458 0.0675049 13.4437 0.0675049C6.04202 0.0675049 0.0166016 6.0875 0.0166016 13.4896C0.0166016 20.8913 6.03619 26.9113 13.4383 26.9113C16.4395 26.9113 19.2154 25.9183 21.4549 24.2483L23.2941 26.0875C22.967 26.6742 23.0462 27.4246 23.5424 27.9208L35.097 39.4754C35.3845 39.7629 35.7737 39.9267 36.1799 39.9267C36.592 39.9267 36.9754 39.7688 37.2633 39.4754L39.4183 37.32C40.0166 36.7221 40.0166 35.7463 39.4183 35.1479L29.9291 25.6475ZM26.7979 29.5742L29.5283 26.8433L36.5016 33.8167L33.7712 36.5471L26.7979 29.5742ZM1.14493 13.4896C1.14493 6.70792 6.66244 1.19625 13.4383 1.19625C20.2141 1.19625 25.7316 6.71376 25.7316 13.4896C25.7316 20.265 20.2141 25.7829 13.4383 25.7829C6.66244 25.7829 1.14493 20.2708 1.14493 13.4896ZM23.6383 22.5275L25.2012 24.0904L24.6258 24.6658L24.0445 25.2467L22.482 23.6842L23.6383 22.5275ZM24.3437 26.55L26.4987 24.395C26.5779 24.3158 26.6795 24.2763 26.7866 24.2763C26.8937 24.2763 26.9954 24.3217 27.0741 24.395L28.7274 26.0479L25.9966 28.7788L24.3437 27.1254C24.1858 26.9675 24.1858 26.7079 24.3437 26.55ZM38.6287 36.5246L36.4733 38.68C36.3212 38.8321 36.0504 38.8321 35.8979 38.68L34.5666 37.3483L37.297 34.6179L38.6287 35.9492C38.792 36.1071 38.792 36.3613 38.6287 36.5246Z" fill="#69DDFF"/>
</g>
<defs>
<clipPath id="clip0_4198_3637">
<rect width="40" height="40" fill="white"/>
</clipPath>
</defs>
</svg>
