<svg width="40" height="40" viewBox="0 0 40 40" fill="none" xmlns="http://www.w3.org/2000/svg">
<g clip-path="url(#clip0_4198_3591)">
<mask id="mask0_4198_3591" style="mask-type:luminance" maskUnits="userSpaceOnUse" x="1" y="16" width="35" height="21">
<path d="M1.0752 16.64H35.7335V36.8H1.0752V16.64Z" fill="white"/>
</mask>
<g mask="url(#mask0_4198_3591)">
<path fill-rule="evenodd" clip-rule="evenodd" d="M29.0674 36.7392H3.8241C2.2991 36.7392 1.0791 35.5192 1.0791 34.0175V19.4254C1.0791 17.9004 2.2991 16.6804 3.8241 16.6804H32.9854C34.5104 16.6804 35.7299 17.9004 35.7299 19.4254V30.3579C35.7299 30.9679 34.7916 30.9679 34.7916 30.3579V19.4254C34.7916 18.4163 33.9941 17.6188 32.9854 17.6188H3.8241C2.81535 17.6188 2.01743 18.4163 2.01743 19.4254V34.0175C2.01743 35.0029 2.81535 35.8004 3.8241 35.8004H29.0674C29.6774 35.8004 29.6774 36.7392 29.0674 36.7392Z" fill="#69DDFF"/>
</g>
<path fill-rule="evenodd" clip-rule="evenodd" d="M28.8563 34.7212H3.87085C3.44876 34.7212 3.09668 34.3929 3.09668 33.9708V19.472C3.09668 19.05 3.44876 18.6979 3.87085 18.6979H32.9383C33.3608 18.6979 33.7125 19.05 33.7125 19.472V30.0529C33.7125 30.6629 32.7742 30.6629 32.7742 30.0529V19.6362H4.03501V33.7829H28.8563C29.4663 33.7829 29.4663 34.7212 28.8563 34.7212Z" fill="#69DDFF"/>
<path fill-rule="evenodd" clip-rule="evenodd" d="M9.54826 30.0059C7.74201 30.0059 6.26367 28.528 6.26367 26.7213C6.26367 24.9151 7.74201 23.4371 9.54826 23.4371C11.3783 23.4371 12.8562 24.9151 12.8562 26.7213C12.8562 28.528 11.3783 30.0059 9.54826 30.0059ZM9.54826 24.3755C8.25784 24.3755 7.20242 25.4313 7.20242 26.7213C7.20242 28.0117 8.25784 29.0676 9.54826 29.0676C10.862 29.0676 11.9178 28.0117 11.9178 26.7213C11.9178 25.4313 10.862 24.3755 9.54826 24.3755Z" fill="#69DDFF"/>
<path fill-rule="evenodd" clip-rule="evenodd" d="M14.8979 30.0058C14.6395 30.0058 14.4287 29.7946 14.4287 29.5366V23.8825C14.4287 23.2729 15.367 23.2729 15.367 23.8825V29.5366C15.367 29.7946 15.1558 30.0058 14.8979 30.0058Z" fill="#69DDFF"/>
<path fill-rule="evenodd" clip-rule="evenodd" d="M16.6104 27.4017H14.8979C14.6395 27.4017 14.4287 27.1904 14.4287 26.9325V23.8825C14.4287 23.6246 14.6395 23.4133 14.8979 23.4133H16.6104C19.2379 23.4133 19.2379 27.4017 16.6104 27.4017ZM15.367 26.4633C16.2116 26.4633 17.6662 26.6979 17.6662 25.4075C17.6662 24.1408 16.2116 24.3521 15.367 24.3521V26.4633Z" fill="#69DDFF"/>
<path fill-rule="evenodd" clip-rule="evenodd" d="M23.5306 30.0058H21.3018C20.7622 30.0058 20.3164 29.56 20.3164 29.0204V24.3987C20.3164 23.8592 20.7622 23.4133 21.3018 23.4133H23.5306C24.1406 23.4133 24.1406 24.3521 23.5306 24.3521C23.296 24.3521 21.2547 24.305 21.2547 24.3987V29.0204C21.2547 29.1379 23.296 29.0675 23.5306 29.0675C24.1406 29.0675 24.1406 30.0058 23.5306 30.0058Z" fill="#69DDFF"/>
<path fill-rule="evenodd" clip-rule="evenodd" d="M23.5305 27.1904H20.7855C20.1522 27.1904 20.1522 26.2521 20.7855 26.2521H23.5305C24.1405 26.2521 24.1405 27.1904 23.5305 27.1904Z" fill="#69DDFF"/>
<path fill-rule="evenodd" clip-rule="evenodd" d="M26.017 30.0058C25.7591 30.0058 25.5479 29.7946 25.5479 29.5366V23.8825C25.5479 23.2729 26.4862 23.2729 26.4862 23.8825V29.5366C26.4862 29.7946 26.2754 30.0058 26.017 30.0058Z" fill="#69DDFF"/>
<path fill-rule="evenodd" clip-rule="evenodd" d="M30.0766 30.0058C29.8187 30.0058 29.6074 29.7946 29.6074 29.5366V23.8825C29.6074 23.2729 30.5458 23.2729 30.5458 23.8825V29.5366C30.5458 29.7946 30.3345 30.0058 30.0766 30.0058Z" fill="#69DDFF"/>
<path fill-rule="evenodd" clip-rule="evenodd" d="M30.0765 30.0058C29.9356 30.0058 29.7948 29.9354 29.701 29.8183L25.6423 24.1642C25.2906 23.6479 26.0415 23.1083 26.3931 23.6013L30.4519 29.2787C30.6865 29.5838 30.4519 30.0058 30.0765 30.0058Z" fill="#69DDFF"/>
<path fill-rule="evenodd" clip-rule="evenodd" d="M31.7657 17.6188C31.6482 17.6188 31.5078 17.5717 31.4374 17.4779L20.4345 6.47501C19.9886 6.05293 20.6453 5.37251 21.0911 5.81834L32.094 16.8213C32.3757 17.1025 32.1645 17.6188 31.7657 17.6188ZM5.04446 17.6188C4.6453 17.6188 4.43446 17.1025 4.71571 16.8213L15.7186 5.81834C16.1645 5.37251 16.8215 6.05293 16.3757 6.47501L5.39613 17.4779C5.30238 17.5717 5.18488 17.6188 5.04446 17.6188Z" fill="#69DDFF"/>
<path fill-rule="evenodd" clip-rule="evenodd" d="M18.4166 7.60125C16.3054 7.60125 14.6162 5.88875 14.6162 3.80042C14.6162 1.68917 16.3054 0 18.4166 0C20.505 0 22.1941 1.68917 22.1941 3.80042C22.1941 5.88875 20.505 7.60125 18.4166 7.60125ZM18.4166 0.938333C16.8216 0.938333 15.5545 2.20542 15.5545 3.80042C15.5545 5.3725 16.8216 6.66292 18.4166 6.66292C19.9887 6.66292 21.2791 5.3725 21.2791 3.80042C21.2791 2.20542 19.9887 0.938333 18.4166 0.938333Z" fill="#69DDFF"/>
<path fill-rule="evenodd" clip-rule="evenodd" d="M33.5715 40.0001C30.6861 40.0001 28.3398 37.6538 28.3398 34.7917C28.3398 31.9063 30.6861 29.5601 33.5715 29.5601C36.434 29.5601 38.7798 31.9063 38.7798 34.7917C38.7798 37.6538 36.434 40.0001 33.5715 40.0001ZM33.5715 30.4984C31.2023 30.4984 29.2786 32.4221 29.2786 34.7917C29.2786 37.138 31.2023 39.0617 33.5715 39.0617C35.9178 39.0617 37.8415 37.138 37.8415 34.7917C37.8415 32.4221 35.9178 30.4984 33.5715 30.4984Z" fill="#69DDFF"/>
<path fill-rule="evenodd" clip-rule="evenodd" d="M33.5721 31.7654C32.9154 31.7654 33.1029 30.8504 33.1029 30.0292C33.1029 29.4192 34.0416 29.4192 34.0416 30.0292C34.0416 30.8504 34.2058 31.7654 33.5721 31.7654Z" fill="#69DDFF"/>
<path fill-rule="evenodd" clip-rule="evenodd" d="M38.3105 35.2608C37.4892 35.2608 36.5742 35.4254 36.5742 34.7917C36.5742 34.135 37.4892 34.3225 38.3105 34.3225C38.9205 34.3225 38.9205 35.2608 38.3105 35.2608Z" fill="#69DDFF"/>
<path fill-rule="evenodd" clip-rule="evenodd" d="M33.5721 40C32.9154 40 33.1029 39.085 33.1029 38.2638C33.1029 37.6538 34.0416 37.6538 34.0416 38.2638C34.0416 39.085 34.2058 40 33.5721 40Z" fill="#69DDFF"/>
<path fill-rule="evenodd" clip-rule="evenodd" d="M30.0761 35.2608C29.2548 35.2608 28.3398 35.4254 28.3398 34.7917C28.3398 34.135 29.2548 34.3225 30.0761 34.3225C30.7094 34.3225 30.7094 35.2608 30.0761 35.2608Z" fill="#69DDFF"/>
<path fill-rule="evenodd" clip-rule="evenodd" d="M35.5662 35.2608C32.6103 35.2608 33.0562 35.6833 33.0562 32.7271C33.0562 32.1175 33.9945 32.1175 33.9945 32.7271V34.3225H35.5662C36.1762 34.3225 36.1762 35.2608 35.5662 35.2608Z" fill="#69DDFF"/>
</g>
<defs>
<clipPath id="clip0_4198_3591">
<rect width="40" height="40" fill="white"/>
</clipPath>
</defs>
</svg>
