<svg width="40" height="40" viewBox="0 0 40 40" fill="none" xmlns="http://www.w3.org/2000/svg">
<g clip-path="url(#clip0_4198_3841)">
<path fill-rule="evenodd" clip-rule="evenodd" d="M7.1554 28.9737C4.36374 28.9737 4.33999 24.4458 7.17874 24.4458C8.3754 24.4458 9.2904 25.525 8.63332 25.9471C8.02332 26.3225 8.0704 25.3841 7.17874 25.3841C5.60707 25.3841 5.55999 28.035 7.1554 28.035C8.04707 28.035 8.02332 27.1204 8.63332 27.5191C9.26665 27.9412 8.32832 28.9737 7.1554 28.9737Z" fill="#69DDFF"/>
<path fill-rule="evenodd" clip-rule="evenodd" d="M12.622 28.9738H10.3461C10.0882 28.9738 9.87695 28.7625 9.87695 28.5046V24.915C9.87695 24.305 10.8157 24.305 10.8157 24.915V28.035H12.622C13.232 28.035 13.232 28.9738 12.622 28.9738Z" fill="#69DDFF"/>
<path fill-rule="evenodd" clip-rule="evenodd" d="M16.3751 28.9737C15.1318 28.9737 14.123 27.965 14.123 26.7212C14.123 25.4546 15.1318 24.4458 16.3751 24.4458C17.6418 24.4458 18.6505 25.4546 18.6505 26.7212C18.6505 27.965 17.6418 28.9737 16.3751 28.9737ZM16.3751 25.3841C14.6389 25.3841 14.6389 28.035 16.3751 28.035C18.1347 28.035 18.1347 25.3841 16.3751 25.3841Z" fill="#69DDFF"/>
<path fill-rule="evenodd" clip-rule="evenodd" d="M21.0439 28.9737C19.6831 28.9737 19.2606 27.1437 20.1522 27.1437C20.856 27.1437 20.3868 28.035 21.0439 28.035C21.6068 28.035 21.6068 27.1904 21.0439 27.1904C19.2372 27.1904 19.2372 24.4458 21.0439 24.4458C22.4043 24.4458 22.8501 26.2758 21.9351 26.2758C21.2547 26.2758 21.7239 25.3841 21.0439 25.3841C20.4806 25.3841 20.4806 26.2521 21.0439 26.2521C22.8501 26.2521 22.8501 28.9737 21.0439 28.9737Z" fill="#69DDFF"/>
<path fill-rule="evenodd" clip-rule="evenodd" d="M26.6037 28.9737H23.9291C23.6475 28.9737 23.46 28.7625 23.46 28.5046V24.915C23.46 24.6571 23.6475 24.4458 23.9291 24.4458H26.51C27.12 24.4458 27.12 25.3841 26.51 25.3841H24.3983V26.2521H26.3691C27.0025 26.2521 27.0025 27.1904 26.3691 27.1904H24.3983V28.035H26.6037C27.2137 28.035 27.2137 28.9737 26.6037 28.9737Z" fill="#69DDFF"/>
<path fill-rule="evenodd" clip-rule="evenodd" d="M29.9355 28.9737C29.0442 28.9737 28.1055 29.1612 28.1055 28.5046V25.1262C28.1055 24.4692 29.0442 24.6571 29.9355 24.6571C30.9209 24.6571 31.7421 25.4779 31.7421 26.4867V27.1437C31.7421 28.1525 30.9209 28.9737 29.9355 28.9737ZM29.0442 28.035C30.5926 28.035 30.8034 28.0587 30.8034 26.4867C30.8034 25.4312 29.6538 25.5954 29.0442 25.5954V28.035Z" fill="#69DDFF"/>
<mask id="mask0_4198_3841" style="mask-type:luminance" maskUnits="userSpaceOnUse" x="1" y="16" width="35" height="21">
<path d="M1.0752 16.64H35.7335V36.8H1.0752V16.64Z" fill="white"/>
</mask>
<g mask="url(#mask0_4198_3841)">
<path fill-rule="evenodd" clip-rule="evenodd" d="M29.0674 36.7392H3.8241C2.2991 36.7392 1.0791 35.5192 1.0791 34.0175V19.4254C1.0791 17.9004 2.2991 16.6804 3.8241 16.6804H32.9854C34.5104 16.6804 35.7299 17.9004 35.7299 19.4254V30.3579C35.7299 30.9679 34.7916 30.9679 34.7916 30.3579V19.4254C34.7916 18.4163 33.9941 17.6188 32.9854 17.6188H3.8241C2.81535 17.6188 2.01743 18.4163 2.01743 19.4254V34.0175C2.01743 35.0029 2.81535 35.8004 3.8241 35.8004H29.0674C29.6774 35.8004 29.6774 36.7392 29.0674 36.7392Z" fill="#69DDFF"/>
</g>
<path fill-rule="evenodd" clip-rule="evenodd" d="M28.8563 34.7212H3.87085C3.44876 34.7212 3.09668 34.3929 3.09668 33.9708V19.472C3.09668 19.05 3.44876 18.6979 3.87085 18.6979H32.9383C33.3608 18.6979 33.7125 19.05 33.7125 19.472V30.0529C33.7125 30.6629 32.7742 30.6629 32.7742 30.0529V19.6362H4.03501V33.7829H28.8563C29.4663 33.7829 29.4663 34.7212 28.8563 34.7212Z" fill="#69DDFF"/>
<path fill-rule="evenodd" clip-rule="evenodd" d="M31.7657 17.6188C31.6482 17.6188 31.5078 17.5717 31.4374 17.4779L20.4345 6.47501C19.9886 6.05293 20.6453 5.37251 21.0911 5.81834L32.094 16.8213C32.3757 17.1025 32.1645 17.6188 31.7657 17.6188ZM5.04446 17.6188C4.6453 17.6188 4.43446 17.1025 4.71571 16.8213L15.7186 5.81834C16.1645 5.37251 16.8215 6.05293 16.3757 6.47501L5.39613 17.4779C5.30238 17.5717 5.18488 17.6188 5.04446 17.6188Z" fill="#69DDFF"/>
<path fill-rule="evenodd" clip-rule="evenodd" d="M18.4166 7.60125C16.3054 7.60125 14.6162 5.88875 14.6162 3.80042C14.6162 1.68917 16.3054 0 18.4166 0C20.505 0 22.1941 1.68917 22.1941 3.80042C22.1941 5.88875 20.505 7.60125 18.4166 7.60125ZM18.4166 0.938333C16.8216 0.938333 15.5545 2.20542 15.5545 3.80042C15.5545 5.3725 16.8216 6.66292 18.4166 6.66292C19.9887 6.66292 21.2791 5.3725 21.2791 3.80042C21.2791 2.20542 19.9887 0.938333 18.4166 0.938333Z" fill="#69DDFF"/>
<path fill-rule="evenodd" clip-rule="evenodd" d="M33.5715 40.0001C30.6861 40.0001 28.3398 37.6538 28.3398 34.7917C28.3398 31.9063 30.6861 29.5601 33.5715 29.5601C36.434 29.5601 38.7798 31.9063 38.7798 34.7917C38.7798 37.6538 36.434 40.0001 33.5715 40.0001ZM33.5715 30.4984C31.2023 30.4984 29.2786 32.4221 29.2786 34.7917C29.2786 37.138 31.2023 39.0617 33.5715 39.0617C35.9178 39.0617 37.8415 37.138 37.8415 34.7917C37.8415 32.4221 35.9178 30.4984 33.5715 30.4984Z" fill="#69DDFF"/>
<path fill-rule="evenodd" clip-rule="evenodd" d="M33.5721 31.7654C32.9154 31.7654 33.1029 30.8504 33.1029 30.0292C33.1029 29.4192 34.0416 29.4192 34.0416 30.0292C34.0416 30.8504 34.2058 31.7654 33.5721 31.7654Z" fill="#69DDFF"/>
<path fill-rule="evenodd" clip-rule="evenodd" d="M38.3105 35.2608C37.4892 35.2608 36.5742 35.4254 36.5742 34.7917C36.5742 34.135 37.4892 34.3225 38.3105 34.3225C38.9205 34.3225 38.9205 35.2608 38.3105 35.2608Z" fill="#69DDFF"/>
<path fill-rule="evenodd" clip-rule="evenodd" d="M33.5721 40C32.9154 40 33.1029 39.085 33.1029 38.2638C33.1029 37.6538 34.0416 37.6538 34.0416 38.2638C34.0416 39.085 34.2058 40 33.5721 40Z" fill="#69DDFF"/>
<path fill-rule="evenodd" clip-rule="evenodd" d="M30.0761 35.2608C29.2548 35.2608 28.3398 35.4254 28.3398 34.7917C28.3398 34.135 29.2548 34.3225 30.0761 34.3225C30.7094 34.3225 30.7094 35.2608 30.0761 35.2608Z" fill="#69DDFF"/>
<path fill-rule="evenodd" clip-rule="evenodd" d="M35.5662 35.2608C32.6103 35.2608 33.0562 35.6833 33.0562 32.7271C33.0562 32.1175 33.9945 32.1175 33.9945 32.7271V34.3225H35.5662C36.1762 34.3225 36.1762 35.2608 35.5662 35.2608Z" fill="#69DDFF"/>
</g>
<defs>
<clipPath id="clip0_4198_3841">
<rect width="40" height="40" fill="white"/>
</clipPath>
</defs>
</svg>
