<svg width="40" height="40" viewBox="0 0 40 40" fill="none" xmlns="http://www.w3.org/2000/svg">
<g clip-path="url(#clip0_4198_3697)">
<path d="M39.8417 11.5575L28.4425 0.158333C28.3413 0.0570833 28.2038 0 28.0604 0H11.9396C11.7963 0 11.6588 0.0570833 11.5575 0.158333L0.158333 11.5575C0.0570833 11.6588 0 11.7963 0 11.9396V28.0604C0 28.2038 0.0570833 28.3413 0.158333 28.4425L11.5575 39.8417C11.6588 39.9429 11.7963 40 11.9396 40H28.0604C28.2038 40 28.3413 39.9429 28.4425 39.8417L39.8417 28.4425C39.9429 28.3413 40 28.2038 40 28.0604V11.9396C40 11.7963 39.9429 11.6588 39.8417 11.5575ZM31.1858 14.7817L25.2183 8.81417L28.2504 1.49458L38.5054 11.75L31.1858 14.7817ZM24.3567 30.5188H15.6429L9.48167 24.3571V15.6429L15.6429 9.48167H24.3567L30.5188 15.6429V24.3567L24.3567 30.5188ZM24.2196 8.40042H15.7804L12.7488 1.08125H27.2517L24.2196 8.40042ZM14.7817 8.81417L8.81417 14.7817L1.49458 11.75L11.75 1.49458L14.7817 8.81417ZM8.40042 15.7804V24.22L1.08125 27.2517V12.7488L8.40042 15.7804ZM8.81458 25.2188L14.7817 31.1863L11.75 38.5054L1.49458 28.2504L8.81458 25.2188ZM15.7804 31.5996H24.22L27.2513 38.9192H12.7492L15.7804 31.5996ZM25.2188 31.1858L31.1858 25.2183L38.5054 28.25L28.2504 38.5054L25.2188 31.1858ZM31.5996 24.2196V15.7804L38.9192 12.7488V27.2513L31.5996 24.2196Z" fill="#69DDFF"/>
</g>
<defs>
<clipPath id="clip0_4198_3697">
<rect width="40" height="40" fill="white"/>
</clipPath>
</defs>
</svg>
