<svg width="80" height="81" viewBox="0 0 80 81" fill="none" xmlns="http://www.w3.org/2000/svg">
<g clip-path="url(#clip0_4056_871)">
<path fill-rule="evenodd" clip-rule="evenodd" d="M48.9084 25.53L66.0134 28.49C66.5934 28.5908 67.045 28.9533 67.2675 29.4983C67.49 30.0442 67.4225 30.6192 67.0784 31.0975L32.1475 79.6325C31.6867 80.2725 30.8659 80.5 30.1417 80.1883C29.4184 79.8767 29.0192 79.1242 29.1675 78.35L33.9442 53.4425L17.5292 53.1142C16.9592 53.1025 16.4742 52.8317 16.165 52.3517C15.8567 51.8725 15.8117 51.3183 16.0375 50.795L36.9959 2.25915C37.2625 1.64248 37.8325 1.26332 38.5034 1.25665L56.1525 1.07248C56.7234 1.06665 57.2167 1.32332 57.5392 1.79332C57.8625 2.26332 57.9242 2.81582 57.7142 3.34665L48.9084 25.53Z" fill="white"/>
<path fill-rule="evenodd" clip-rule="evenodd" d="M46.42 24.9625L63.5242 27.9233C64.105 28.0242 64.5558 28.3867 64.7792 28.9317C65.0017 29.4775 64.9333 30.0517 64.5892 30.53L29.6583 79.0658C29.1983 79.7058 28.3775 79.9333 27.6533 79.6217C26.9292 79.3092 26.5308 78.5575 26.6792 77.7825L31.4558 52.875L15.04 52.5475C14.47 52.5358 13.985 52.265 13.6767 51.785C13.3683 51.305 13.3225 50.7517 13.5483 50.2275L34.5075 1.6925C34.7733 1.07583 35.3433 0.696668 36.015 0.690001L53.6642 0.505835C54.2342 0.500001 54.7275 0.756668 55.0508 1.22667C55.3733 1.69667 55.4358 2.24917 55.225 2.78L46.42 24.9625Z" fill="white"/>
<path fill-rule="evenodd" clip-rule="evenodd" d="M36.0325 2.35079L15.0734 50.8858L33.4584 51.2541L28.3109 78.0958L63.2409 29.56L44.1209 26.2508L53.6809 2.16663L36.0325 2.35079Z" fill="#A16DD6"/>
<path fill-rule="evenodd" clip-rule="evenodd" d="M36.49 55.0875V46.4067C36.49 45.8592 36.7683 45.3892 37.2483 45.1259C37.7283 44.8625 38.2742 44.8809 38.7358 45.175C39.9225 45.9325 41.1283 46.6725 42.3608 47.355C43.2017 47.82 44.0825 48.2809 44.9741 48.6384C46.1391 49.105 47.4367 49.4659 48.7 49.4659C49.34 49.4659 50.0766 49.37 50.6108 48.9867C50.9108 48.7709 51.0541 48.56 51.0541 48.1884C51.0541 47.9059 50.9841 47.6959 50.7783 47.5C50.3333 47.0767 49.3433 46.6942 48.7725 46.4909L44.7233 45.05C42.1883 44.1817 39.7658 42.8467 38.0258 40.7667C36.3992 38.8209 35.6292 36.5267 35.6292 33.9942C35.6292 30.5359 36.8292 27.5184 39.4558 25.2384C42.215 22.8442 45.6975 21.9875 49.2858 21.9875C51.2275 21.9875 53.1666 22.2759 55.0475 22.7492C57.2925 23.3142 59.5058 24.145 61.63 25.06C62.2608 25.3317 62.6108 25.9834 62.49 26.6592L61.1141 34.3242C61.02 34.8525 60.6766 35.2584 60.1716 35.44C59.6666 35.6217 59.1433 35.5275 58.7341 35.1809C57.4716 34.1125 56.0675 33.255 54.5358 32.6325C53.2383 32.1059 51.83 31.7242 50.4216 31.7242C49.8133 31.7242 49.1592 31.8225 48.6575 32.1925C48.3925 32.3884 48.235 32.5842 48.235 32.9184C48.235 33.0909 48.2516 33.31 48.3808 33.44C48.695 33.7467 49.9633 34.1917 50.3816 34.3309C50.3925 34.335 50.4025 34.3384 50.4141 34.3425L54.2041 35.705C56.6808 36.5959 59.445 37.9067 61.1833 39.9467C62.8258 41.8742 63.445 44.2567 63.445 46.7534C63.445 50.4017 62.2841 53.66 59.5191 56.0992C56.6467 58.6342 52.9541 59.49 49.2025 59.49C47.1608 59.49 45.1475 59.235 43.1708 58.7267C41.1092 58.1959 39.13 57.3817 37.2575 56.3734C36.7725 56.1125 36.49 55.6392 36.49 55.0875Z" fill="white"/>
<path d="M37.9499 55.0875V46.4067C40.7241 48.1758 42.8883 49.3842 44.4308 49.9942C45.9616 50.6158 47.3966 50.9267 48.6999 50.9267C49.8483 50.9267 50.7691 50.675 51.4624 50.1733C52.1674 49.6708 52.5149 49.0133 52.5149 48.1883C52.5149 47.495 52.2749 46.9083 51.7849 46.4425C51.2949 45.9758 50.4458 45.5333 49.2616 45.115L45.1966 43.6683C42.5416 42.7592 40.5208 41.48 39.1458 39.83C37.7708 38.1917 37.0891 36.2425 37.0891 33.9942C37.0891 30.8258 38.2008 28.2667 40.4133 26.3417C42.6374 24.4158 45.5908 23.4475 49.2858 23.4475C50.9841 23.4475 52.7899 23.6867 54.6908 24.165C56.5924 24.6433 58.7208 25.3967 61.0524 26.4008L59.6774 34.0658C58.2783 32.8825 56.7474 31.9492 55.0858 31.28C53.4233 30.5983 51.8691 30.2633 50.4216 30.2633C49.3458 30.2633 48.4724 30.515 47.7916 31.0167C47.1099 31.5192 46.7749 32.1525 46.7749 32.9183C46.7749 33.5758 46.9658 34.09 47.3491 34.4725C47.7316 34.855 48.5924 35.2742 49.9199 35.7158L53.7099 37.0792C56.6758 38.1317 58.8041 39.3992 60.0716 40.8942C61.3516 42.3883 61.9849 44.3375 61.9849 46.7533C61.9849 50.2325 60.8374 52.9833 58.5533 55.0042C56.2574 57.025 53.1483 58.0292 49.2024 58.0292C47.2774 58.0292 45.3999 57.79 43.5341 57.3117C41.6808 56.8333 39.8158 56.0925 37.9499 55.0875Z" fill="black"/>
<path fill-rule="evenodd" clip-rule="evenodd" d="M51.0833 51.4692C50.335 51.7733 49.5166 51.8883 48.7 51.8883C47.1175 51.8883 45.5341 51.4717 44.0733 50.8867C43.0866 50.4908 42.1175 49.9883 41.1875 49.4742C40.42 49.0483 39.6616 48.6025 38.9116 48.1433V49.2617C39.3441 49.5175 39.78 49.7675 40.2191 50.01C41.1491 50.525 42.1175 51.0275 43.105 51.4225C44.565 52.0083 46.1491 52.4242 47.7316 52.4242C48.9058 52.4242 50.085 52.1867 51.0541 51.4908L51.0833 51.4692ZM55.6725 55.7708C56.47 55.3833 57.2241 54.8942 57.9166 54.2833C60.155 52.3083 61.0233 49.6992 61.0233 46.7533C61.0233 44.8458 60.5991 42.9958 59.34 41.5175C57.9108 39.84 55.4141 38.7142 53.385 37.9842L49.6158 36.6283C48.7141 36.3283 47.3508 35.835 46.6683 35.1525C46.0625 34.5467 45.8133 33.7625 45.8133 32.9183C45.8133 31.8042 46.33 30.8992 47.2208 30.2425L47.2358 30.2317C46.8916 30.3708 46.5616 30.5508 46.2516 30.7792C45.3616 31.435 44.8441 32.3408 44.8441 33.4542C44.8441 34.2992 45.0941 35.0833 45.7 35.6892C46.3816 36.3708 47.7458 36.865 48.6466 37.165L52.4158 38.5208C54.4458 39.2508 56.9416 40.3767 58.3708 42.0542C59.6308 43.5325 60.055 45.3825 60.055 47.29C60.055 50.2358 59.1858 52.8442 56.9483 54.8192C56.5425 55.1767 56.1166 55.4925 55.6725 55.7708ZM58.2308 31.8167C58.495 31.9833 58.755 32.1558 59.0108 32.3358L59.97 26.9867C58.1816 26.2408 56.3283 25.5683 54.4566 25.0975C52.77 24.6733 51.0275 24.4092 49.2858 24.4092C46.795 24.4092 44.3308 24.8667 42.245 26.1775C44.1066 25.2758 46.2025 24.9458 48.3175 24.9458C50.0591 24.9458 51.8016 25.21 53.4875 25.6342C55.36 26.105 57.2125 26.7775 59.0016 27.5233L58.2316 31.8167H58.2308Z" fill="#69DDFF"/>
<mask id="mask0_4056_871" style="mask-type:luminance" maskUnits="userSpaceOnUse" x="12" y="19" width="37" height="38">
<path d="M12.5 19.4867H48.64V56.18H12.5V19.4867Z" fill="white"/>
</mask>
<g mask="url(#mask0_4056_871)">
<path fill-rule="evenodd" clip-rule="evenodd" d="M31.4301 29.4609L35.5342 20.4067C35.7767 19.8725 36.2784 19.5492 36.8642 19.5492H46.9809C47.4976 19.5492 47.9409 19.7942 48.2167 20.2317C48.4917 20.6684 48.5209 21.1742 48.2984 21.64L32.2267 55.2175C31.9784 55.7367 31.4851 56.0475 30.9101 56.0475H29.8934C29.3151 56.0475 28.8192 55.7334 28.5726 55.21L12.7284 21.6325C12.5092 21.1675 12.5401 20.6625 12.8159 20.2275C13.0917 19.7934 13.5342 19.5492 14.0492 19.5492H26.1742C26.7692 19.5492 27.2776 19.8834 27.5142 20.4292L31.4301 29.4609Z" fill="white"/>
</g>
<path d="M29.8934 54.5867L14.0492 21.01H26.1742L31.4 33.0633L36.8642 21.01H46.9809L30.9092 54.5867H29.8934Z" fill="black"/>
<path fill-rule="evenodd" clip-rule="evenodd" d="M31.2958 34.02C30.9492 33.9842 30.6592 33.7725 30.5175 33.4458L25.5433 21.9717H15.5667L15.8192 22.5075H24.5742L29.5483 33.9817C29.7033 34.3392 30.0342 34.5575 30.4233 34.5608C30.8033 34.5642 31.1317 34.36 31.2958 34.02ZM30.4042 53.4158L45.4542 21.9717H37.4842L37.2417 22.5075H44.4858L30.0508 52.6667L30.4042 53.4158Z" fill="#69DDFF"/>
</g>
<defs>
<clipPath id="clip0_4056_871">
<rect width="80" height="80" fill="white" transform="translate(0 0.5)"/>
</clipPath>
</defs>
</svg>
