<svg width="20" height="20" viewBox="0 0 20 20" fill="none" xmlns="http://www.w3.org/2000/svg">
<g clip-path="url(#clip0_4965_2254)">
<path d="M9.7675 10.0204C9.75625 10.0304 9.74792 10.0452 9.74646 10.0579C9.75813 10.0456 9.76375 10.0331 9.7675 10.0204Z" fill="#D8E1FF"/>
<path d="M9.6675 10.9002L9.65958 10.9925L9.70063 10.8733L9.6675 10.9002Z" fill="#D8E1FF"/>
<path d="M9.27667 13.22C9.25 13.2235 9.23104 13.2383 9.25396 13.2792C9.27062 13.2708 9.27583 13.2483 9.27667 13.22Z" fill="#D8E1FF"/>
<path d="M9.58604 11.9477C9.58708 11.935 9.58812 11.9227 9.58937 11.91C9.58583 11.9219 9.58583 11.9352 9.58604 11.9477Z" fill="#D8E1FF"/>
<path d="M9.34542 12.7602V12.7606L9.35604 12.7525C9.35146 12.755 9.34917 12.7577 9.34542 12.7602Z" fill="#D8E1FF"/>
<path d="M9.81354 9.3627L9.81437 9.36228L9.8125 9.31207C9.81 9.32499 9.81 9.34124 9.81354 9.3627Z" fill="#D8E1FF"/>
<path d="M9.54812 12.5523C9.535 12.5475 9.52229 12.5431 9.51396 12.5467C9.54583 12.5079 9.54458 12.4531 9.53958 12.4C9.49896 12.4754 9.46187 12.5485 9.445 12.6229C9.49333 12.6071 9.53771 12.5894 9.54812 12.5523Z" fill="#D8E1FF"/>
<path d="M9.41167 12.5125L9.42854 12.5156C9.42396 12.5094 9.42021 12.5017 9.41604 12.4931C9.41354 12.4994 9.41167 12.5056 9.41167 12.5123V12.5125Z" fill="#D8E1FF"/>
<path d="M9.42854 12.5158C9.43833 12.5285 9.45083 12.5344 9.47146 12.5238L9.42854 12.5158Z" fill="#D8E1FF"/>
<path d="M9.46854 12.3602L9.44021 12.4362C9.38021 12.4252 9.35021 12.4196 9.37 12.3733C9.3425 12.3806 9.36646 12.4289 9.37167 12.455L9.38271 12.4383C9.39771 12.4517 9.40667 12.4739 9.41604 12.4933C9.44333 12.4258 9.60833 12.3977 9.46854 12.3602Z" fill="#D8E1FF"/>
<path d="M9.44521 12.2433C9.43667 12.2729 9.42208 12.3454 9.50687 12.3361L9.44521 12.2433Z" fill="#D8E1FF"/>
<path d="M9.69979 11.9952L9.70604 11.9902C9.70583 11.9823 9.70604 11.974 9.70833 11.9654L9.69979 11.9952Z" fill="#D8E1FF"/>
<path d="M9.71542 14.5819L9.69688 14.5985L9.70709 14.5819L9.22375 14.2933C9.29813 14.1806 9.29521 14.0279 9.28834 13.8696C9.28521 13.7115 9.2775 13.5477 9.33625 13.4138C9.3975 13.3442 9.39813 13.3246 9.43 13.2606C9.41604 13.2583 9.39792 13.2571 9.3825 13.2594C9.38438 13.1846 9.35938 13.0619 9.39854 12.9898C9.38063 12.9673 9.31396 12.9473 9.33063 12.989C9.27042 12.871 9.45021 12.8008 9.39667 12.7331C9.35396 12.7854 9.3325 12.6738 9.29875 12.7375C9.29209 12.6656 9.37313 12.6465 9.445 12.6229C9.43167 12.6808 9.43042 12.7394 9.45021 12.8004C9.38625 12.846 9.43375 12.889 9.49563 12.9192C9.50209 12.9096 9.50563 12.9077 9.50729 12.9244L9.51938 12.9298C9.54354 12.8969 9.58709 12.8173 9.54667 12.774L9.53542 12.7644C9.52146 12.7548 9.50146 12.7479 9.47375 12.7454L9.49646 12.7273C9.47709 12.7077 9.45854 12.6867 9.44063 12.664C9.47 12.6498 9.47438 12.7054 9.50896 12.7173L9.56625 12.6719C9.56354 12.6608 9.58063 12.6554 9.60417 12.6521C9.625 12.6169 9.63792 12.5781 9.64604 12.5371C9.64063 12.5333 9.63438 12.5281 9.62709 12.5198C9.62125 12.4617 9.64188 12.4079 9.66313 12.3546C9.66709 12.2848 9.67313 12.215 9.69521 12.151C9.69021 12.1352 9.68229 12.119 9.67188 12.1023C9.64459 12.2098 9.59 12.3069 9.53979 12.4C9.53229 12.3177 9.51813 12.2413 9.60979 12.2392L9.60854 12.2348L9.56229 12.2031C9.55563 12.2004 9.55 12.1971 9.54688 12.1927L9.54604 12.1923H9.54625C9.54042 12.1829 9.54417 12.1688 9.56938 12.141C9.57542 12.1481 9.57646 12.1606 9.57688 12.1729C9.61438 12.1535 9.64146 12.1502 9.65979 12.0921C9.63417 12.041 9.59854 12.0892 9.57396 12.0694C9.64084 12.054 9.61125 11.9202 9.70584 11.8683C9.75479 11.8706 9.72521 11.8923 9.69084 11.9217C9.68792 11.9419 9.68125 11.9575 9.66459 11.9627C9.66146 11.9579 9.66104 11.9548 9.65959 11.951C9.63604 11.9769 9.62375 12.005 9.65834 12.03C9.66604 12.0315 9.67125 12.0306 9.67542 12.0292C9.68292 12.0169 9.69396 12.0046 9.70625 11.9923L9.70604 11.9904L9.72709 11.9729C9.74104 11.9613 9.75584 11.949 9.77125 11.9363L9.79646 11.9152V11.9102C9.76104 11.8706 9.75188 11.899 9.71438 11.9229C9.76229 11.8767 9.7825 11.8117 9.79896 11.74C9.775 11.7313 9.74688 11.7296 9.75688 11.7513C9.71979 11.6906 9.7925 11.6504 9.82729 11.6146C9.83104 11.6002 9.83604 11.5858 9.84042 11.5717C9.83917 11.5694 9.83792 11.5671 9.83563 11.565C9.79021 11.6019 9.77417 11.5188 9.73729 11.5644C9.73459 11.5171 9.79854 11.5031 9.86417 11.4902C9.86084 11.485 9.85709 11.4796 9.85209 11.474L9.86813 11.4896L9.87479 11.4881C9.88188 11.4744 9.89042 11.4613 9.89917 11.4477C9.90084 11.4175 9.90646 11.3869 9.91542 11.3558C9.91417 11.3525 9.91459 11.3492 9.91438 11.3456C9.89229 11.3354 9.85396 11.3608 9.82625 11.3231C9.93271 11.2788 9.87771 11.1696 9.89063 11.1096C9.90084 11.0925 9.81729 11.0473 9.77688 11.0594L9.80271 11.2194C9.75604 11.2052 9.67167 11.2158 9.66979 11.2715C9.77042 11.265 9.71563 11.3235 9.67563 11.385C9.6775 11.4265 9.6775 11.4704 9.70521 11.5079C9.70667 11.5081 9.70771 11.5085 9.70917 11.509L9.70563 11.5083L9.70875 11.5135C9.68896 11.5363 9.64063 11.5246 9.62625 11.5602C9.66917 11.559 9.66729 11.5896 9.70313 11.606C9.69042 11.6517 9.66417 11.6538 9.63188 11.6481L9.63584 11.6958L9.64438 11.6933C9.62584 11.7102 9.67125 11.8721 9.60709 11.9658C9.58688 11.9306 9.665 11.7575 9.54021 11.8475C9.51896 11.7927 9.55604 11.7215 9.58563 11.6388C9.57125 11.6367 9.55667 11.6354 9.54209 11.6377C9.58167 11.6175 9.59938 11.5888 9.60854 11.5563C9.61354 11.5317 9.61688 11.5065 9.61604 11.4804L9.54813 11.4996C9.49688 11.3352 9.65834 11.151 9.67021 10.979L9.74375 11.041C9.78771 10.986 9.87167 10.919 9.81167 10.8531C9.80104 10.926 9.76104 10.8823 9.72771 10.8642C9.72188 10.8421 9.72188 10.8181 9.72417 10.7931L9.65042 10.7423C9.67854 10.7023 9.6125 10.6817 9.67104 10.6454C9.66417 10.6869 9.69709 10.7175 9.7325 10.739C9.73917 10.7115 9.74625 10.6827 9.75334 10.6533C9.66875 10.6098 9.6775 10.5021 9.69229 10.4302C9.72417 10.4088 9.75917 10.4338 9.78646 10.4492C9.75438 10.4529 9.74146 10.504 9.725 10.5215C9.73834 10.534 9.75563 10.545 9.77188 10.5563C9.77459 10.5331 9.77646 10.51 9.775 10.4865C9.775 10.4865 9.79167 10.4954 9.80521 10.4913L9.79854 10.4552C9.79479 10.4533 9.79084 10.4513 9.78646 10.4492C9.79 10.4488 9.79354 10.4483 9.7975 10.4492L9.77813 10.3444C9.77979 10.3402 9.78209 10.3365 9.78396 10.3325C9.75209 10.3448 9.71625 10.369 9.66271 10.3081C9.81459 10.3275 9.65417 10.1638 9.74084 10.1625L9.76896 10.2408C9.84479 10.1696 9.73459 10.1056 9.82354 10.03C9.80479 10.0023 9.78313 10.0063 9.76729 10.02C9.78334 9.96501 9.74396 9.91084 9.82771 9.88126C9.82979 9.95126 9.85334 10.0313 9.86209 10.0988C9.86459 10.0879 9.86375 10.0738 9.85459 10.0525C9.87271 10.074 9.88938 10.0829 9.90563 10.0852C9.91021 10.0798 9.91584 10.0744 9.92375 10.0681L9.91729 10.0858C9.95625 10.0842 9.99479 10.0513 10.0458 10.0633C10.0373 10.0058 9.99917 10.0017 9.96 10.0077L9.96709 10.0673L9.93646 10.0121C9.91021 10.0179 9.88604 10.0246 9.87375 10.0181C9.88584 9.99688 9.89792 9.98001 9.90979 9.96438L9.885 9.92001L9.93229 9.84084C9.93834 9.82001 9.94542 9.79938 9.95334 9.77917C9.95125 9.77438 9.94834 9.77063 9.94459 9.76876L9.93188 9.78771C9.92417 9.80563 9.91354 9.82021 9.90125 9.83271L9.895 9.84188L9.89834 9.83563C9.89479 9.83896 9.89209 9.84313 9.88813 9.84584L9.78834 9.80771C9.77938 9.73792 9.90063 9.62334 9.76604 9.61146C9.82688 9.6198 9.87438 9.54521 9.93938 9.56667L9.9825 9.47917C9.96667 9.56501 9.96563 9.66167 9.94813 9.73709C9.98584 9.64542 10.0006 9.55001 9.98771 9.44084L9.96146 9.44938L9.97417 9.37334C9.94146 9.41334 9.82771 9.42896 9.82771 9.51751C9.82125 9.46688 9.81688 9.41501 9.81396 9.36188C9.93375 9.29292 9.86542 9.43167 9.97334 9.32209C9.98334 9.33792 9.98459 9.35021 9.98104 9.36105L10.0625 9.40209C10.0463 9.35042 10.1346 9.30709 10.0658 9.27251L10.0567 9.28959L10.0365 9.22501L10.1171 9.29855C10.1681 9.22501 9.99188 9.09501 10.0225 8.9698C10.129 8.95834 10.0683 9.1273 10.1423 9.20021C10.146 9.08542 10.1575 8.96751 10.1694 8.84855C10.1615 8.82751 10.1471 8.80834 10.1219 8.79146L10.0615 8.8698C10.0571 8.77771 10.2056 8.73251 10.1577 8.6923L10.1848 8.70959L10.186 8.69855C10.1675 8.6623 10.1565 8.6198 10.171 8.56605C10.084 8.56542 10.065 8.64355 10.0983 8.70459L10.0033 8.67792C9.97813 8.83021 9.97396 9.00438 10.0142 9.1348L9.95063 9.06959C9.80542 9.16126 10.065 9.16063 9.90396 9.24376C9.93 9.3223 9.96021 9.19563 9.995 9.25667C9.96104 9.30605 9.82834 9.22376 9.81209 9.31146C9.80521 9.14271 9.82396 8.96501 9.84167 8.78521C9.85188 8.69563 9.86229 8.60521 9.8725 8.51584C9.88459 8.42646 9.89646 8.33792 9.90813 8.25126C9.89125 8.2423 9.88167 8.2598 9.87209 8.27688C9.81875 8.20917 9.91271 7.94501 10.0052 7.69251C10.0956 7.4398 10.1665 7.19626 10.0444 7.16292C10.0852 7.15146 10.114 7.21167 10.1258 7.1398C10.1092 7.13084 10.0894 7.11021 10.049 7.12105C10.1379 7.04959 10.1558 6.95542 10.1602 6.88313L10.1625 6.84042C10.1631 6.83334 10.1633 6.83292 10.1646 6.83105L10.1652 6.83042L10.1654 6.83001L10.179 6.82771C10.2019 6.82334 10.2213 6.82063 10.2385 6.81876C10.275 6.81396 10.3113 6.8073 10.3475 6.79876L10.4015 6.7848L10.4452 6.77521C10.4738 6.76813 10.5019 6.75876 10.5292 6.74709C10.5565 6.73584 10.5717 6.73334 10.5923 6.72167C10.6021 6.71667 10.6113 6.71084 10.6204 6.70438C10.629 6.69834 10.6327 6.69834 10.6388 6.69376C10.6442 6.69021 10.6492 6.68605 10.654 6.68084C10.6588 6.67563 10.6633 6.66876 10.6638 6.6698C10.6665 6.66834 10.6704 6.66105 10.6702 6.65917C10.6683 6.66542 10.6698 6.66292 10.6692 6.67292C10.6685 6.68605 10.6717 6.6898 10.6754 6.70688C10.6746 6.70417 10.6798 6.72917 10.6975 6.76084C10.7142 6.80063 10.7419 6.83313 10.745 6.84146C10.7554 6.85792 10.7671 6.87501 10.78 6.89188C10.7931 6.90917 10.8069 6.92376 10.8248 6.94792C10.8419 6.97001 10.8604 6.99209 10.8804 7.01376L10.9113 7.04605L10.9471 7.08605C10.949 7.08792 10.9367 7.08667 10.93 7.09834C10.9133 7.11688 10.8948 7.15001 10.8517 7.15209L10.9038 7.17063C10.8627 7.20792 10.814 7.26042 10.7627 7.3198C10.7729 7.33563 10.7938 7.31292 10.8113 7.30313C10.7969 7.35438 10.7452 7.32959 10.7077 7.30771L10.7248 7.4473C10.6648 7.46688 10.6144 7.49667 10.5702 7.53292C10.5733 7.53501 10.5758 7.53709 10.5804 7.53855L10.5073 7.59292C10.4844 7.61792 10.4631 7.64459 10.4427 7.67271L10.465 7.69021C10.4702 7.69001 10.4748 7.68834 10.4788 7.68542L10.4765 7.64542C10.4823 7.6473 10.4867 7.64876 10.4915 7.65063C10.5338 7.64334 10.5452 7.67521 10.5475 7.7048C10.5167 7.7398 10.4833 7.77188 10.4485 7.80209L10.449 7.80355L10.4477 7.80292C10.4235 7.82376 10.3983 7.84376 10.3721 7.8623C10.3685 7.90188 10.39 7.89584 10.3615 7.98938L10.2817 7.98355C10.2631 7.97771 10.4194 7.93313 10.3431 7.88209L10.3423 7.88251C10.3221 7.89542 10.3019 7.90813 10.2806 7.91938C10.2454 7.97105 10.2075 8.02084 10.1633 8.06563L10.2152 8.07563C10.1523 8.07084 10.2335 8.19626 10.1688 8.25355L10.1756 8.16334C10.0985 8.14917 10.0625 8.19146 10.0296 8.24146C10.0371 8.28646 10.0304 8.32334 10.0052 8.36376C10.0506 8.33001 10.0902 8.30021 10.131 8.34376C10.1033 8.38917 10.0444 8.40813 9.98667 8.42292L9.90813 8.49917L9.95021 8.50105L9.89042 8.52959L9.89563 8.51271H9.89459L9.82917 8.57563C9.82479 8.58438 9.81875 8.59251 9.80854 8.5973L9.9025 8.62501L9.85125 8.69251L9.83771 8.67021C9.71959 8.75501 9.65813 8.85646 9.62917 8.98542L9.64292 8.90688C9.62396 8.90146 9.595 8.92959 9.58479 8.96334C9.54542 8.92459 9.61542 8.8623 9.57084 8.84021L9.56688 8.83001L9.53542 8.86042C9.53209 8.88584 9.50771 8.88396 9.48604 8.87626L9.45896 8.88355L9.46104 8.90667L9.42729 8.8923L9.40396 8.89855L9.41959 8.88896C9.32459 8.84501 9.24146 8.78584 9.175 8.70646L9.15896 8.71084L9.15938 8.71459L9.15417 8.7123L9.12417 8.72063L9.14438 8.70792C8.91875 8.61167 8.75792 8.44209 8.69542 8.12417C8.74 8.11417 8.68875 8.25292 8.78688 8.22355C9.0075 8.08396 8.99667 7.64251 9.21771 7.43376C9.3025 7.39396 9.31125 7.37563 9.36917 7.3298C9.35771 7.32146 9.34229 7.3123 9.3275 7.30751C9.3325 7.29813 9.3375 7.28771 9.3425 7.27646C9.325 7.27542 9.30834 7.27605 9.30084 7.28334C9.29396 7.26792 9.2875 7.25084 9.27542 7.23626L9.265 7.24084C9.26209 7.22334 9.24438 7.18459 9.26834 7.19292C9.24875 7.21063 9.27417 7.22771 9.325 7.26188L9.35354 7.23105C9.35625 7.23313 9.35813 7.23459 9.36042 7.23646L9.36625 7.22334C9.31875 7.19334 9.3325 7.1648 9.34042 7.15292L9.37271 7.20876C9.39813 7.15146 9.42938 7.09271 9.47625 7.06521C9.4725 7.03626 9.42521 6.98563 9.41667 7.03188C9.41917 7.00396 9.42959 6.98313 9.44438 6.96667C9.42584 6.90355 9.53209 6.88417 9.53979 6.79813L9.48021 6.77667C9.44979 6.65917 9.60229 6.63167 9.63292 6.54417L9.68896 6.61376C9.73271 6.60459 9.81084 6.60917 9.76771 6.54292C9.75 6.57896 9.72125 6.5348 9.69438 6.50896C9.68521 6.43751 9.77729 6.39167 9.81146 6.29084C9.81146 6.29084 9.82292 6.30563 9.83542 6.3098C9.84271 6.27146 9.85209 6.23126 9.86646 6.18751C9.89063 6.16917 9.91709 6.16313 9.94667 6.16251C9.97563 6.16209 10.0044 6.16938 10.0421 6.17167C10.0481 6.15751 10.0623 6.1398 10.0717 6.12126C10.0825 6.10167 10.085 6.08396 10.0556 6.07667C10.0371 6.08646 10.0225 6.09396 10.019 6.10417C10.0167 6.04209 10.0429 6.02959 10.0646 6.02542C10.0877 6.02126 10.1192 6.01355 10.1804 5.93959C10.1408 6.01209 10.1731 6.02501 10.2063 6.03521C10.2221 6.04084 10.2463 6.04209 10.2681 6.04709C10.2892 6.05271 10.306 6.06271 10.3125 6.08167C10.336 6.06355 10.3508 6.0498 10.366 6.03584C10.385 6.02063 10.3971 6.00834 10.4033 5.99792C10.4156 5.97688 10.4042 5.9623 10.3817 5.95188C10.3606 5.94105 10.324 5.93709 10.3033 5.93001C10.2835 5.9223 10.2685 5.91501 10.2719 5.90313L10.3006 5.89334L10.3379 5.88188C10.3625 5.87501 10.386 5.86938 10.4085 5.86501C10.4335 5.86021 10.4477 5.85834 10.4783 5.85417C10.5081 5.85042 10.5371 5.84855 10.5648 5.84792C10.5927 5.8473 10.6194 5.84813 10.6448 5.85001L10.6821 5.85355L10.7281 5.86021C10.7883 5.87063 10.845 5.8873 10.8967 5.90792C10.9594 5.92438 11.0156 5.95126 11.0706 5.98396C11.0344 5.96646 11.0069 5.95626 10.9744 5.94521C11.0735 5.99813 11.1821 6.09292 11.2248 6.15834C11.2521 6.19417 11.2848 6.2423 11.3056 6.28188C11.3208 6.31313 11.3367 6.34792 11.3527 6.38709C11.3488 6.36438 11.3438 6.34042 11.3371 6.31521C11.3285 6.28792 11.3279 6.27063 11.3021 6.22542C11.2804 6.18626 11.2535 6.14646 11.2219 6.10896C11.1979 6.0773 11.1348 6.02209 11.0706 5.98396C11.116 6.00584 11.1652 6.03584 11.2038 6.06459C11.1938 6.04938 11.18 6.0323 11.1775 6.0223C11.189 6.0323 11.1998 6.0423 11.2108 6.05188L11.2333 6.07542C11.2483 6.09209 11.2629 6.10813 11.2769 6.12376C11.3215 6.16251 11.3642 6.20959 11.3865 6.23021C11.3702 6.19938 11.3415 6.15626 11.3148 6.12188C11.3317 6.13959 11.35 6.15938 11.3681 6.18126C11.3331 6.12167 11.2904 6.06396 11.2429 6.01251C11.3004 6.07355 11.3527 6.14105 11.3929 6.21209C11.4308 6.26021 11.4673 6.31459 11.4929 6.36688C11.5106 6.40271 11.5192 6.43146 11.5138 6.44855C11.5088 6.42771 11.5033 6.41001 11.4977 6.39521C11.4946 6.38792 11.4919 6.38126 11.4892 6.3748C11.486 6.36792 11.4808 6.35792 11.4767 6.35084C11.4596 6.32063 11.4438 6.30438 11.429 6.29605C11.436 6.31521 11.4431 6.33417 11.4502 6.35292L11.4596 6.38146L11.4646 6.40126C11.4704 6.4273 11.476 6.45292 11.4817 6.47792L11.4894 6.51542L11.4935 6.54334L11.5029 6.59938C11.514 6.66751 11.5263 6.72209 11.5458 6.77396L11.5698 6.76146C11.5717 6.79188 11.5717 6.81521 11.5721 6.84126L11.4798 6.81813C11.5052 6.85855 11.4248 6.89834 11.4977 6.91667L11.5042 6.90313L11.5335 6.94876L11.4431 6.90251C11.4054 6.95813 11.5913 7.03688 11.5715 7.12084C11.4481 7.13251 11.5342 6.97271 11.374 6.95646C11.3483 6.9848 11.3208 7.02917 11.3623 7.0473C11.4054 7.04605 11.4069 7.02626 11.4081 7.00667C11.4442 7.04042 11.4371 7.08001 11.4296 7.11584C11.43 7.17271 11.4196 7.24542 11.504 7.18042C11.5085 7.18938 11.5108 7.19876 11.5125 7.20834L11.5404 7.18417C11.544 7.20292 11.5308 7.21771 11.5133 7.23042C11.5125 7.27438 11.4935 7.31855 11.4794 7.36584L11.5104 7.38001C11.4913 7.40271 11.4785 7.4123 11.4681 7.41771C11.4646 7.44063 11.4633 7.46417 11.4675 7.48876L11.5325 7.47376C11.6013 7.60626 11.4621 7.75292 11.4629 7.89021L11.3848 7.84001C11.3458 7.88355 11.2679 7.93605 11.3331 7.98959C11.3373 7.93126 11.3808 7.96688 11.4154 7.98167C11.4502 8.06521 11.381 8.17313 11.399 8.28355C11.399 8.28355 11.3815 8.27605 11.3685 8.27917L11.4042 8.39688C11.3829 8.44792 11.3313 8.46001 11.2708 8.48584C11.2796 8.50667 11.2713 8.5548 11.3231 8.5423C11.3294 8.53251 11.3354 8.52271 11.3315 8.51521C11.4156 8.58271 11.299 8.55146 11.3452 8.62876C11.2756 8.56501 11.2327 8.63271 11.1546 8.61688C11.1769 8.70334 11.2933 8.64105 11.3281 8.65584C11.2683 8.75042 11.199 8.75542 11.1702 8.85438C11.2179 8.86584 11.2125 8.78688 11.2688 8.7848C11.2517 8.81209 11.2523 8.84626 11.2696 8.85355L11.3165 8.79626C11.2442 8.89417 11.2152 8.99292 11.2385 9.11396L11.2644 9.10751L11.2523 9.17938L11.1652 9.14292C11.1831 9.18438 11.0969 9.21688 11.1665 9.24605L11.175 9.23251L11.1973 9.2848L11.1144 9.22417C11.0673 9.28146 11.2425 9.38896 11.214 9.48792C11.1048 9.49438 11.1702 9.35376 11.0854 9.29667C11.0888 9.39417 11.086 9.49396 11.0783 9.59521C11.0871 9.60646 11.0994 9.61688 11.1171 9.62667L11.1765 9.56626C11.1819 9.63959 11.034 9.67105 11.0823 9.70438L11.0694 9.69751C11.0627 9.7648 11.0552 9.83209 11.0467 9.89938C11.1175 9.89938 11.0475 9.79376 11.0642 9.80063L11.1256 9.84334C11.0796 9.91855 11.0685 9.90209 11.0427 9.92896L11.0325 10.0071L11.0563 10.0102C11.0431 10.0152 11.0348 10.0219 11.0296 10.0296L11.0238 10.0725C11.03 10.1094 11.0515 10.1454 11.0146 10.141C11.0081 10.1917 11.0017 10.2421 10.9952 10.2915C11.0121 10.3004 11.0219 10.2829 11.0315 10.2656C11.0873 10.3338 10.9856 10.5977 10.8952 10.851C10.8604 10.9492 10.8275 11.0454 10.8073 11.129C10.8373 11.1496 10.905 11.1394 10.8548 11.1883C10.8323 11.1727 10.8467 11.1192 10.805 11.1479L10.8033 11.1463C10.7781 11.2579 10.7783 11.3435 10.8327 11.3735C10.8321 11.351 10.8358 11.3292 10.8483 11.311C10.8754 11.3358 10.826 11.4571 10.9346 11.3946C10.981 11.456 10.8871 11.546 10.9146 11.6517L10.9785 11.6388C11.0538 11.7548 10.9231 11.8829 10.9302 12.0029L10.85 11.9588C10.8133 11.9967 10.7385 12.0425 10.8058 12.0892C10.8073 12.0383 10.8521 12.0696 10.8873 12.0825C10.9263 12.1556 10.8625 12.2498 10.8856 12.3465C10.8856 12.3465 10.8679 12.3398 10.8552 12.3425L10.896 12.4456C10.8773 12.49 10.826 12.5006 10.7673 12.5229C10.7771 12.5413 10.7708 12.5831 10.8221 12.5725C10.8277 12.564 10.8333 12.5554 10.8292 12.5488C10.916 12.6079 10.7983 12.5804 10.8481 12.6481C10.7758 12.5921 10.7363 12.651 10.6577 12.6369C10.684 12.7127 10.7971 12.6588 10.8323 12.6717C10.7771 12.7542 10.7083 12.7581 10.6838 12.8446C10.7319 12.8548 10.7231 12.7856 10.779 12.7842C10.7633 12.8077 10.7652 12.8377 10.7829 12.8442L10.8271 12.7944C10.7592 12.8796 10.7346 12.9658 10.7629 13.0715L10.7883 13.0663L10.7794 13.129L10.691 13.0965C10.7108 13.1329 10.6263 13.1608 10.6969 13.1869L10.7048 13.175L10.7292 13.2206L10.6442 13.1673C10.5998 13.2171 10.7785 13.3119 10.7542 13.3979C10.6296 13.404 10.7267 13.2417 10.5696 13.2133C10.5413 13.2398 10.5098 13.2869 10.55 13.309C10.5931 13.31 10.596 13.289 10.599 13.2681C10.6735 13.354 10.5296 13.4554 10.6629 13.519L10.7196 13.4663C10.7279 13.5304 10.5819 13.5573 10.6315 13.5865L10.4952 13.5235C10.5648 13.6002 10.5404 13.6865 10.5927 13.7571C10.6835 13.7681 10.5992 13.6642 10.6169 13.6706L10.6798 13.7081C10.6175 13.8025 10.621 13.7308 10.5558 13.8463L10.6167 13.8538C10.5196 13.8842 10.6877 14.0113 10.5288 13.9533L10.5696 13.9246L10.5144 13.9208C10.519 13.9283 10.5225 13.9371 10.5252 13.9463L10.5115 13.9815L10.5321 14.0646C10.4967 14.0519 10.4885 14.0777 10.4665 14.0892L10.4515 14.1219L10.4775 14.1471C10.4631 14.1488 10.4506 14.1479 10.4396 14.1454C10.4265 14.1717 10.4125 14.1977 10.3981 14.2231C10.4029 14.2344 10.4056 14.2477 10.4073 14.2623C10.3958 14.2621 10.3856 14.2615 10.3767 14.2606C10.3125 14.3675 10.2358 14.4669 10.1429 14.5565C10.1406 14.5633 10.135 14.5683 10.1271 14.5715L10.0894 14.6046L10.096 14.6154L10.0758 14.6165L10.0523 14.6369L10.065 14.6169C9.95729 14.6213 9.85375 14.6056 9.75584 14.5633L9.76584 14.5798C9.74875 14.581 9.73188 14.5817 9.71479 14.5821L9.71542 14.5819ZM11.4192 6.30042L11.4158 6.29084C11.4131 6.29001 11.4102 6.28959 11.4073 6.28938C11.4113 6.29292 11.416 6.29959 11.4192 6.30042ZM9.15604 8.68292L9.15792 8.70001L9.16521 8.69521L9.15604 8.68292ZM9.45959 8.86417C9.45875 8.86376 9.45792 8.86313 9.45729 8.86271L9.4575 8.86542L9.45959 8.86396V8.86417ZM11.1665 7.01938L11.1673 7.03188L11.1731 7.02126L11.1665 7.01938ZM10.8298 6.32167C10.8283 6.35563 10.8552 6.39251 10.8802 6.42938C10.9306 6.45646 10.9496 6.46771 10.9519 6.4548C10.9527 6.44209 10.9419 6.41209 10.9077 6.37084C10.8846 6.35355 10.8585 6.33688 10.8298 6.32167ZM10.8079 6.93251C10.8152 6.93917 10.8394 6.9648 10.789 6.90396C10.7729 6.88376 10.7575 6.86209 10.7435 6.83938C10.7296 6.81626 10.7192 6.80459 10.7096 6.78584C10.7179 6.80251 10.7323 6.82105 10.7608 6.86584C10.7715 6.88146 10.7827 6.89626 10.7946 6.91063C10.8002 6.91771 10.8069 6.92417 10.8127 6.93271L10.8175 6.94001C10.814 6.93751 10.811 6.93501 10.8077 6.9323L10.8079 6.93251ZM10.5908 7.15126L10.5927 7.15292C10.5998 7.14646 10.6031 7.13876 10.6006 7.12896L10.5908 7.15126ZM10.2369 7.41584C10.2398 7.40855 10.2425 7.40167 10.2452 7.39501L10.2396 7.40021L10.2369 7.41584ZM9.94563 7.86626C9.92896 7.87271 9.91229 7.87896 9.895 7.88459L9.88854 7.90063L9.86375 7.96563C9.89167 7.93188 9.91917 7.89834 9.94563 7.86626ZM10.001 7.96251C10.0083 7.95521 10.0158 7.94771 10.0235 7.94001C10.0242 7.93688 10.0242 7.93376 10.0242 7.93063C10.0204 7.93792 10.0125 7.94876 10.0013 7.96251H10.001ZM9.84563 8.18396C9.855 8.16896 9.86354 8.1548 9.86979 8.14271L9.85563 8.12001L9.81813 8.15896C9.82459 8.17105 9.83396 8.17959 9.84563 8.18396ZM9.87896 8.12459C9.87479 8.1223 9.87104 8.11855 9.86854 8.11313L9.87334 8.13646C9.87542 8.13209 9.87709 8.12834 9.87896 8.12438V8.12459ZM9.53917 6.91251C9.58729 6.89459 9.63104 6.88042 9.63 6.84146C9.57396 6.85876 9.59604 6.7973 9.57354 6.78792C9.56042 6.80146 9.56459 6.82209 9.61709 6.85896L9.54104 6.8073L9.53917 6.9123V6.91251ZM9.615 7.07105C9.62854 7.06584 9.64667 7.05688 9.66459 7.04584C9.68563 7.01563 9.70229 6.97792 9.73125 6.94834C9.7275 6.93084 9.71521 6.91188 9.68854 6.89188C9.73042 6.8873 9.77271 6.88459 9.81542 6.8823C9.8075 6.84896 9.75854 6.85417 9.73229 6.81021C9.77563 6.82209 9.79063 6.80959 9.79667 6.79042C9.78021 6.78771 9.76354 6.78417 9.74625 6.77959C9.76334 6.76646 9.78271 6.75521 9.80209 6.74376C9.80271 6.73542 9.80396 6.72771 9.8075 6.72271C9.81792 6.71834 9.75146 6.65334 9.71563 6.64042L9.72104 6.74063C9.6825 6.71021 9.60938 6.67605 9.60313 6.70646C9.65604 6.73376 9.65688 6.74688 9.64063 6.75646C9.67396 6.75959 9.71063 6.77001 9.74625 6.77959C9.69604 6.81792 9.65584 6.86438 9.63271 6.92563C9.54771 6.93146 9.56417 6.99376 9.60063 7.05021C9.61209 7.04501 9.61604 7.04521 9.60771 7.06042L9.615 7.07105ZM9.45792 7.8473C9.49104 7.79105 9.52834 7.73938 9.57271 7.69626C9.55813 7.66459 9.54521 7.63417 9.54063 7.60688L9.61396 7.64084C9.59625 7.64834 9.59334 7.65959 9.59646 7.67396L9.59896 7.67167C9.63584 7.65667 9.65834 7.64501 9.67709 7.63292C9.62188 7.60688 9.6375 7.64709 9.62438 7.57146C9.64646 7.57521 9.67438 7.59959 9.69917 7.61751C9.71396 7.60584 9.72959 7.59355 9.75125 7.57646C9.73979 7.56813 9.72459 7.55896 9.70959 7.55396C9.71563 7.54271 9.72146 7.52938 9.72771 7.51563C9.70959 7.49146 9.69459 7.46709 9.70396 7.44501L9.65021 7.45855C9.65771 7.43667 9.66084 7.38896 9.71896 7.40126C9.70625 7.41292 9.70854 7.45376 9.73604 7.49626C9.75167 7.46001 9.76854 7.42001 9.78938 7.38521C9.78729 7.38459 9.78563 7.38417 9.78334 7.38355L9.79479 7.37646C9.80313 7.36355 9.81188 7.35105 9.82167 7.34063C9.73125 7.25688 9.78667 7.42334 9.69834 7.34521C9.58875 7.22542 9.86459 7.3548 9.72334 7.21709C9.63584 7.34063 9.56521 7.49355 9.5125 7.65917C9.49229 7.72084 9.47459 7.78396 9.45792 7.8473ZM9.55292 8.79376L9.53021 8.73417C9.51771 8.76438 9.49167 8.78334 9.43563 8.77834C9.44688 8.82167 9.5025 8.79146 9.52604 8.81709C9.53521 8.8098 9.54396 8.80146 9.55292 8.79355V8.79376ZM10.7794 6.9648C10.7908 6.97042 10.8175 6.96876 10.8331 6.97042C10.8252 6.9648 10.8121 6.95334 10.7888 6.92521L10.7848 6.92417C10.7808 6.93042 10.7721 6.93771 10.7579 6.93855C10.7735 6.96626 10.8083 6.99188 10.7692 7.02251L10.6813 6.98292C10.7169 6.96813 10.7338 6.95271 10.7446 6.93876C10.74 6.93855 10.7358 6.93855 10.7302 6.9373C10.681 6.96626 10.6471 7.02709 10.6165 7.09459C10.6217 7.10438 10.6263 7.11771 10.6321 7.12709C10.6685 7.08876 10.7283 7.05813 10.7446 7.03834L10.7856 7.09855C10.8658 7.11584 10.8035 7.03438 10.8796 7.05459C10.8773 7.03146 10.8544 7.01667 10.8308 7.00313C10.8071 6.99042 10.7819 6.98126 10.7794 6.96459V6.9648ZM11.0646 6.8873C11.0571 6.89563 11.0521 6.90459 11.0465 6.91376C11.0498 6.92001 11.0529 6.92667 11.0544 6.93334L11.0244 6.96105L11.0242 6.96167C11.0719 6.97105 11.0669 6.92813 11.0646 6.8873ZM11.1417 7.04792C11.1388 7.01313 11.1404 6.97709 11.1565 6.94563C11.1669 6.95709 11.166 6.99001 11.1669 7.01771L11.1748 7.01876C11.18 7.00792 11.1852 6.99646 11.1898 6.98376C11.1908 6.93521 11.1969 6.88521 11.1923 6.83084L11.2188 6.83917C11.215 6.81792 11.2108 6.79521 11.2054 6.77084L11.1975 6.77626C11.2006 6.76917 11.1998 6.75396 11.1944 6.72667C11.1767 6.71626 11.1579 6.70771 11.1406 6.70126C11.1638 6.68834 11.145 6.68542 11.1823 6.69063C11.1835 6.68896 11.1842 6.68792 11.1852 6.68626C11.1815 6.67188 11.1773 6.65626 11.1729 6.64001C11.1675 6.62146 11.164 6.60751 11.1556 6.58313C11.1306 6.56209 11.104 6.54855 11.0723 6.52271C11.0548 6.50751 11.0371 6.49188 11.0194 6.47501C11.0079 6.46355 10.9971 6.45271 10.9865 6.44209C10.9717 6.42792 10.9575 6.41438 10.9431 6.40042C10.9588 6.42167 10.9729 6.44417 10.9854 6.4673C10.9946 6.48688 10.9988 6.50209 11.0052 6.52001C11.019 6.55855 11.0206 6.58188 11.0258 6.61021C11.0365 6.6273 11.0417 6.64126 11.0465 6.66021C11.054 6.62563 11.0573 6.58146 11.0488 6.52542C11.064 6.55646 11.0727 6.57959 11.0844 6.61438C11.0913 6.6398 11.0977 6.67063 11.096 6.69438C11.1296 6.71605 11.1952 6.68855 11.1544 6.77584C11.1315 6.75959 11.1313 6.66667 11.0981 6.72521C11.0954 6.72313 11.094 6.72084 11.0921 6.71876C11.0877 6.73438 11.0808 6.75001 11.0677 6.76042C11.069 6.73667 11.0588 6.70251 11.0323 6.66251C11.0383 6.73355 11.0375 6.79271 11.0338 6.85063C11.044 6.85271 11.0546 6.8548 11.0656 6.85584C11.0685 6.83438 11.0802 6.82042 11.1165 6.83001C11.1935 6.86855 11.1573 6.90855 11.1235 6.94313C11.0894 6.97834 11.0575 7.00896 11.1419 7.04792H11.1417ZM11.426 7.41521C11.4358 7.41626 11.4425 7.41584 11.4485 7.41521L11.425 7.31605L11.4167 7.31813C11.4221 7.31376 11.4188 7.29605 11.4144 7.27105L11.319 7.2348C11.3913 7.29917 11.371 7.36063 11.4258 7.41521H11.426ZM11.4635 7.47855L11.4508 7.42563C11.4381 7.43084 11.4248 7.43876 11.4015 7.46959L11.4635 7.47855ZM11.4263 7.48521C11.42 7.48021 11.411 7.47605 11.3996 7.4723C11.3975 7.47521 11.3952 7.47792 11.3929 7.48126L11.4263 7.48501V7.48521ZM11.4325 7.54251C11.4413 7.52521 11.4446 7.50876 11.4358 7.49521C11.416 7.50688 11.424 7.52605 11.4325 7.54251ZM11.2652 7.66105L11.3165 7.69813C11.3646 7.70834 11.4413 7.69959 11.4371 7.65646C11.3431 7.66063 11.3821 7.61855 11.4142 7.5723C11.4035 7.57042 11.3896 7.56709 11.3704 7.56146L11.41 7.54063L11.3365 7.53563L11.3783 7.64521C11.3246 7.62959 11.3365 7.68188 11.2652 7.66105ZM11.3504 7.82542L11.3138 7.70542C11.2719 7.7048 11.245 7.68855 11.2221 7.66876C11.2183 7.68834 11.2225 7.7098 11.2273 7.73042C11.24 7.74126 11.2479 7.74813 11.2479 7.74813L11.23 7.74292C11.2494 7.75105 11.2577 7.76959 11.2619 7.79126C11.2521 7.79084 11.2427 7.79021 11.2346 7.7898C11.2367 7.79334 11.2423 7.7973 11.2494 7.80146C11.2529 7.79917 11.2573 7.79646 11.2625 7.79396L11.2646 7.80917C11.2913 7.82084 11.3283 7.83063 11.3506 7.82542H11.3504ZM10.9038 8.96459C10.9063 8.96251 10.9081 8.96105 10.9104 8.95938V8.94855C10.9071 8.95376 10.904 8.95896 10.9019 8.96376C10.9027 8.96417 10.9029 8.96417 10.9038 8.96459ZM10.8898 9.10751L10.8933 9.10626L10.8894 9.09626C10.8896 9.10001 10.8896 9.10334 10.8898 9.10751ZM10.949 9.12334C10.9688 9.08855 10.9523 9.05084 10.9227 9.01771L10.9052 9.06105C10.9075 9.0423 10.909 9.02313 10.9096 9.00376L10.8971 8.99251L10.8873 8.98584C10.886 9.00417 10.8869 9.02376 10.8873 9.04292C10.9042 9.06751 10.9283 9.0948 10.949 9.12334ZM10.8465 9.32355C10.8517 9.27417 10.861 9.22376 10.8698 9.17376L10.8496 9.16355C10.8456 9.21042 10.8223 9.25751 10.8335 9.29834L10.8342 9.30063C10.8365 9.30855 10.8408 9.31626 10.8465 9.32355ZM10.846 9.42751V9.42521L10.8069 9.40584C10.8221 9.43167 10.8369 9.45855 10.8469 9.48584C10.8498 9.4848 10.8523 9.48376 10.8558 9.48292C10.8831 9.46959 10.8981 9.49396 10.9115 9.50438C10.9071 9.47584 10.9006 9.44896 10.8929 9.42313C10.88 9.41938 10.8656 9.4198 10.8508 9.42605C10.8523 9.42751 10.8542 9.42896 10.8565 9.43042L10.8488 9.42667L10.846 9.42771V9.42751ZM10.8163 9.61459C10.8273 9.61605 10.8356 9.61542 10.8421 9.61376C10.8346 9.60042 10.8275 9.58709 10.8219 9.57376C10.7721 9.55105 10.7904 9.45105 10.7592 9.38209L10.7506 9.37792C10.7521 9.39376 10.7538 9.40917 10.7552 9.4248C10.7804 9.49001 10.7767 9.5573 10.8163 9.61459ZM10.8085 9.75271C10.8365 9.73667 10.8629 9.68542 10.8769 9.69646C10.8794 9.68021 10.8644 9.65355 10.8479 9.62438C10.8308 9.63459 10.8158 9.64105 10.7792 9.71126L10.79 9.71271L10.8167 9.67813C10.8173 9.69146 10.8146 9.70376 10.8098 9.71521L10.84 9.71896C10.819 9.72646 10.8106 9.73876 10.8085 9.75271ZM10.3713 9.84188C10.3763 9.84105 10.381 9.84146 10.3854 9.84251C10.3885 9.83605 10.3917 9.83001 10.3946 9.82251L10.39 9.81938L10.3946 9.8223C10.3979 9.81355 10.4015 9.80542 10.4042 9.79542C10.3946 9.79271 10.3871 9.79542 10.3808 9.80042C10.38 9.80688 10.3827 9.81313 10.3902 9.81938L10.3725 9.80813C10.3694 9.81188 10.3665 9.81584 10.3635 9.82063C10.3669 9.8273 10.369 9.8348 10.3713 9.84188ZM10.3777 9.8598L10.3779 9.85917C10.3771 9.84771 10.3752 9.84188 10.3715 9.84251C10.3733 9.84834 10.3763 9.85355 10.3777 9.8598ZM10.7325 9.97292C10.8096 9.93792 10.7856 9.88896 10.7663 9.83271C10.7617 9.83084 10.7575 9.82959 10.7519 9.82751L10.7621 9.81959C10.7594 9.81105 10.7573 9.8023 10.7556 9.79355L10.7448 9.79292C10.7373 9.7998 10.7302 9.80646 10.7244 9.81271L10.7552 9.94771C10.7488 9.94542 10.7433 9.94438 10.7385 9.94417C10.7375 9.95334 10.7354 9.96292 10.7327 9.97292H10.7325ZM9.86625 10.2581C9.88292 10.2496 9.90063 10.2404 9.91959 10.2306C9.91334 10.209 9.92021 10.164 9.89188 10.1592C9.88104 10.1913 9.87167 10.2238 9.86625 10.2581ZM10.841 11.4256C10.8377 11.4115 10.8352 11.3969 10.8342 11.3821C10.8027 11.3773 10.7804 11.3425 10.7702 11.405C10.786 11.4138 10.8046 11.4338 10.841 11.4258V11.4256ZM10.8154 11.9456L10.77 11.8333C10.8181 11.8438 10.8996 11.8371 10.8933 11.7981C10.7125 11.8048 11.0192 11.6608 10.8192 11.631L10.9104 11.6425L10.8635 11.5004L10.8508 11.5029C10.8667 11.505 10.8525 11.4719 10.8421 11.4298C10.7519 11.5167 10.7321 11.6308 10.7131 11.7496C10.7194 11.7521 10.7254 11.7554 10.7315 11.7604C10.7225 11.7631 10.7163 11.7669 10.7098 11.7702C10.7046 11.804 10.6985 11.8377 10.6908 11.8715C10.6952 11.8854 10.6985 11.8985 10.6971 11.9094C10.689 11.921 10.7771 11.9538 10.8154 11.9456ZM9.61313 12.2377L9.61271 12.239H9.61459L9.61313 12.2377ZM10.2777 12.7292C10.2854 12.7285 10.2923 12.7252 10.2979 12.7188C10.29 12.7217 10.2829 12.725 10.2777 12.7292ZM10.1831 12.9554C10.2056 12.8885 10.2383 12.8602 10.2523 12.8006L10.1904 12.7873H10.1852C10.1777 12.8413 10.1763 12.8994 10.1831 12.9554ZM9.67146 12.9073C9.67959 12.894 9.68917 12.8815 9.69834 12.8694L9.66584 12.8533C9.66229 12.8725 9.66354 12.8923 9.67146 12.9073ZM10.4631 13.0938C10.496 13.0633 10.4835 13.029 10.4554 12.9977C10.4488 13.0252 10.4433 13.0531 10.439 13.0817L10.4633 13.0938H10.4631ZM10.1338 13.171L10.1931 13.1717C10.1821 13.1308 10.1671 13.0944 10.151 13.0596C10.0369 13.114 10.2623 13.1229 10.1338 13.171ZM10.1294 13.184C10.129 13.1794 10.1277 13.1763 10.1265 13.174C10.1254 13.1744 10.1248 13.1746 10.1238 13.175C10.1256 13.1785 10.1275 13.1815 10.1294 13.184ZM10.1242 13.2535C10.1281 13.2285 10.13 13.2081 10.13 13.194C10.1179 13.1927 10.106 13.1917 10.0946 13.1915C10.1021 13.21 10.1088 13.2281 10.1106 13.245C10.1163 13.2477 10.1202 13.2508 10.1242 13.2538V13.2535ZM10.3804 13.4946C10.369 13.54 10.3535 13.5846 10.3329 13.6279C10.3704 13.6488 10.4073 13.5658 10.426 13.579C10.4288 13.5608 10.4021 13.5281 10.3804 13.4946ZM10.0948 13.4044C10.0748 13.4042 10.0548 13.4031 10.035 13.4019L10.0302 13.4233C10.0525 13.4204 10.0733 13.4119 10.0948 13.4048V13.4044ZM10.1013 13.3752C10.0938 13.3748 10.0871 13.3742 10.0829 13.3733L10.0967 13.3971L10.1013 13.3752ZM10.0538 13.3275L10.051 13.3129L10.0494 13.3135L10.0475 13.3267C10.0496 13.3273 10.0517 13.3271 10.0538 13.3275ZM10.0729 13.3271C10.086 13.3248 10.0998 13.3202 10.1127 13.3185C10.114 13.3125 10.1148 13.3069 10.116 13.301C10.099 13.3079 10.0835 13.3163 10.0729 13.3271ZM10.4017 13.3904C10.4438 13.3781 10.4575 13.4483 10.4829 13.3942C10.4771 13.3621 10.4456 13.3356 10.4092 13.3381L10.4017 13.3904ZM9.69354 13.4175C9.71959 13.3838 9.72979 13.3621 9.74354 13.3319C9.72375 13.3227 9.70438 13.3121 9.68563 13.3008C9.68813 13.3392 9.69084 13.3781 9.69354 13.4173V13.4175ZM10.0329 13.5579C10.025 13.5133 10.1173 13.4479 10.0292 13.4281L10.0238 13.4529C10.0256 13.476 10.0273 13.4988 10.0292 13.5221L10.0329 13.5579ZM10.0398 13.6252C10.0419 13.624 10.0433 13.6225 10.0458 13.6213L10.0581 13.5673L10.0329 13.56L10.0396 13.6252H10.0398ZM10.2823 13.7171C10.3071 13.7413 10.3256 13.7629 10.3381 13.7854C10.355 13.7533 10.3248 13.7138 10.3113 13.6704C10.3023 13.686 10.2931 13.7019 10.2823 13.7173V13.7171ZM10.1192 13.7175L10.1377 13.7417C10.1385 13.7117 10.1352 13.6942 10.1256 13.6969L10.1192 13.7175ZM10.1181 13.7963C10.1258 13.789 10.131 13.7831 10.1352 13.7779C10.136 13.7673 10.1367 13.7571 10.1375 13.7481L10.114 13.734L10.11 13.7465C10.1148 13.7642 10.1183 13.7813 10.1181 13.7963ZM10.3935 13.8877L10.3944 13.89H10.3958L10.3935 13.8877ZM10.3577 13.8558C10.3579 13.8652 10.3577 13.875 10.3567 13.8854L10.3817 13.8883L10.3885 13.8819C10.381 13.8729 10.3706 13.8642 10.3577 13.8558ZM10.1215 13.8663L10.1246 13.8652C10.1256 13.8585 10.1265 13.8521 10.1275 13.8458C10.1252 13.8525 10.1233 13.8594 10.1217 13.8663H10.1215ZM10.3517 13.9167L10.3579 13.9108L10.3531 13.9077C10.3525 13.9108 10.3521 13.9135 10.3517 13.9167ZM10.3565 13.9379C10.3602 13.9338 10.3629 13.9292 10.365 13.9244C10.3606 13.926 10.3577 13.93 10.3565 13.9379ZM10.0792 13.9458C10.0856 13.9421 10.0904 13.936 10.0942 13.9294C10.0877 13.9246 10.0817 13.9215 10.0756 13.9198L10.0792 13.9458ZM10.1256 14.5125C10.1563 14.4496 10.1783 14.3788 10.1777 14.2844C10.0744 14.269 10.17 14.2185 10.0654 14.1902C10.0556 14.2317 10.0602 14.21 10.0708 14.1577C10.0617 14.1627 10.0544 14.1679 10.0477 14.1733L10.0256 14.211C10.0448 14.2173 10.0604 14.2223 10.0658 14.2242L10.0196 14.2213L10.0169 14.2258C10.0071 14.3221 10.1685 14.4513 10.0165 14.5102C10.0494 14.5483 10.0908 14.4798 10.1256 14.5123V14.5125ZM10.0821 14.5906L10.0898 14.5777C10.0833 14.5777 10.0775 14.5775 10.0738 14.5769L10.0821 14.5906Z" fill="#D8E1FF"/>
<path d="M9.25187 7.22376C9.22646 7.21521 9.20187 7.22063 9.20312 7.2698C9.22146 7.26917 9.2375 7.25021 9.25187 7.22376Z" fill="#D8E1FF"/>
<path d="M9.5675 6.83792V6.83813L9.58167 6.83667C9.57604 6.83667 9.5725 6.8375 9.5675 6.83792Z" fill="#D8E1FF"/>
<path d="M9.78334 11.5833L9.79396 11.5777C9.78938 11.5796 9.78688 11.5812 9.78313 11.5831V11.5833H9.78334Z" fill="#D8E1FF"/>
<path d="M11.0596 6.92813L11.0542 6.93292C11.0558 6.9398 11.0571 6.94667 11.0562 6.95396L11.0594 6.92813H11.0596Z" fill="#D8E1FF"/>
<path d="M11.2617 7.79105L11.2623 7.79375C11.264 7.79292 11.2652 7.7923 11.2669 7.79125C11.265 7.79125 11.2635 7.79125 11.2617 7.79105Z" fill="#D8E1FF"/>
<path d="M9.61208 7.50061C9.61958 7.49311 9.62667 7.48269 9.63333 7.4704C9.60792 7.46144 9.58438 7.46624 9.58625 7.51332C9.58771 7.51332 9.58917 7.51249 9.59063 7.51228C9.59188 7.52665 9.59292 7.54311 9.575 7.54582C9.59438 7.53749 9.66313 7.54644 9.61208 7.50061Z" fill="#D8E1FF"/>
<path d="M9.31042 7.30271C9.30667 7.29688 9.30354 7.29042 9.30063 7.28375C9.29813 7.28625 9.29625 7.28896 9.29583 7.29292L9.31042 7.30271Z" fill="#D8E1FF"/>
<path d="M9.34667 7.32708L9.31042 7.3027C9.31813 7.31479 9.32875 7.32395 9.34667 7.32708Z" fill="#D8E1FF"/>
<path d="M10.4129 14.2625C10.411 14.2625 10.4096 14.2623 10.4077 14.2623L10.4081 14.2658C10.4098 14.2646 10.411 14.2638 10.4129 14.2625Z" fill="#D8E1FF"/>
<path d="M10.4115 14.3644C10.4094 14.334 10.411 14.2973 10.4081 14.2656C10.3617 14.2958 10.3875 14.3204 10.4115 14.3644Z" fill="#D8E1FF"/>
<path d="M10.9444 10.9271L10.9273 10.9248C10.9329 10.929 10.9385 10.9346 10.9438 10.9406C10.9452 10.9363 10.946 10.9317 10.9444 10.9271Z" fill="#D8E1FF"/>
<path d="M10.9273 10.9248C10.9152 10.9156 10.9019 10.9115 10.8838 10.9192L10.9273 10.9248Z" fill="#D8E1FF"/>
<path d="M10.9156 11.0342L10.9298 10.9806C10.9908 10.9883 11.021 10.9925 11.0098 11.025C11.0354 11.0198 11.0035 10.9858 10.994 10.9675L10.986 10.9794C10.969 10.97 10.9562 10.9542 10.9437 10.9406C10.9287 10.9879 10.7719 11.0077 10.9156 11.0342Z" fill="#D8E1FF"/>
<path d="M10.959 11.1162C10.9621 11.0954 10.9635 11.0446 10.8821 11.051L10.959 11.1162Z" fill="#D8E1FF"/>
<path d="M13.7906 18.9667C13.8502 18.945 13.9315 18.9077 13.9958 18.8727C13.9233 18.9013 13.8558 18.9335 13.7906 18.9667Z" fill="#D8E1FF"/>
<path d="M17.4165 15.6054C17.5106 15.4583 17.5952 15.3054 17.6848 15.1556C17.5577 15.35 17.4394 15.5492 17.2965 15.7323L17.4167 15.6054H17.4165Z" fill="#D8E1FF"/>
<path d="M16.2352 3.31022C16.2273 3.26792 16.1756 3.18522 16.0067 3.04959C16.0375 3.09855 16.1235 3.19522 16.2352 3.31022Z" fill="#D8E1FF"/>
<path d="M18.9148 9.97208C18.9183 10.044 18.9219 10.1125 18.9256 10.185C18.9246 10.1162 18.9198 10.0412 18.9148 9.97208Z" fill="#D8E1FF"/>
<path d="M17.7754 5.43645C17.7754 5.43645 17.775 5.43624 17.7742 5.43478L17.7915 5.48499C17.7865 5.46791 17.7808 5.45312 17.7754 5.43645Z" fill="#D8E1FF"/>
<path d="M10.186 19.97C10.185 19.9698 10.185 19.9698 10.1829 19.9696C10.1358 19.9731 10.0883 19.9764 10.0408 19.9798C9.99333 19.9833 9.94583 19.9802 9.89833 19.9806C9.93562 19.9819 9.9775 19.9839 10.025 19.9831C10.0727 19.9794 10.126 19.975 10.186 19.97Z" fill="#D8E1FF"/>
<path d="M18.1831 6.67249C18.2021 6.6852 18.22 6.69645 18.2167 6.66958C18.2783 6.89895 18.3917 7.18229 18.4854 7.46104C18.4585 7.35249 18.4317 7.24458 18.4052 7.13791C18.3729 7.03229 18.341 6.9277 18.3094 6.82374C18.2785 6.71895 18.2415 6.61729 18.2025 6.51666C18.1635 6.41624 18.1273 6.31499 18.0833 6.21729C18.0944 6.34229 18.105 6.47458 18.1831 6.67249Z" fill="#D8E1FF"/>
<path d="M18.3544 6.75521L18.3367 6.75354C18.3523 6.78146 18.3708 6.81875 18.3908 6.85979C18.38 6.82521 18.3683 6.79042 18.3544 6.75521Z" fill="#D8E1FF"/>
<path d="M18.3367 6.75354C18.3042 6.69521 18.284 6.67583 18.2927 6.75042L18.3367 6.75354Z" fill="#D8E1FF"/>
<path d="M18.604 7.61251C18.5694 7.46814 18.5273 7.32564 18.4887 7.18189C18.55 7.18834 18.581 7.19209 18.6515 7.45876C18.6556 7.39543 18.556 7.15501 18.4987 7.0223C18.5073 7.05501 18.5177 7.08709 18.5246 7.12043C18.4896 7.06251 18.436 6.95272 18.3908 6.8598C18.421 6.95459 18.441 7.04376 18.4548 7.12564C18.4648 7.20814 18.4737 7.28272 18.4817 7.34834C18.4981 7.47918 18.5258 7.57001 18.604 7.61251Z" fill="#D8E1FF"/>
<path d="M18.7954 8.22791C18.7583 8.05978 18.6602 7.65353 18.6119 7.77541L18.7954 8.22791Z" fill="#D8E1FF"/>
<path d="M18.7958 9.78229L18.7921 9.81437C18.7952 9.85791 18.7981 9.90333 18.7992 9.95208L18.7958 9.78229Z" fill="#D8E1FF"/>
<mask id="mask0_4965_2254" style="mask-type:luminance" maskUnits="userSpaceOnUse" x="1" y="0" width="18" height="20">
<path d="M1.025 0H18.985V20H1.025V0Z" fill="white"/>
</mask>
<g mask="url(#mask0_4965_2254)">
<path d="M9.92021 0.0500073C9.89021 0.036049 9.85875 0.0214657 9.82896 0.00750732L9.91791 0.0414657C10.3671 0.00813234 10.826 0.00146566 11.2915 0.0225073C11.4404 0.0977156 11.599 0.177507 11.7648 0.261257C11.9308 0.343341 12.1046 0.429174 12.284 0.517716C12.6419 0.697716 13.021 0.892716 13.3967 1.11105C14.1481 1.54667 14.8887 2.07501 15.4398 2.62959C15.7167 2.95376 15.795 3.0273 16.0381 3.31272C16.05 3.30605 16.0596 3.29188 16.0548 3.26647C16.2015 3.41459 16.3912 3.60876 16.5717 3.81417C16.7523 4.01917 16.9206 4.23751 17.036 4.41772C17.1173 4.50063 17.211 4.52313 17.0648 4.35001C17.1687 4.46813 17.2577 4.58876 17.334 4.70772C17.4071 4.82897 17.4694 4.9473 17.5265 5.05813C17.6325 5.28522 17.72 5.47938 17.8237 5.62126C17.7021 5.32126 18.021 5.85313 17.8629 5.50438C18.0687 5.85313 18.0642 6.03355 18.0835 6.2173C17.9487 5.91313 17.7954 5.6198 17.6069 5.34751C17.5073 5.06334 17.346 4.91209 17.2269 4.83667C17.254 4.88772 17.2583 4.90022 17.2054 4.82417C17.1981 4.82001 17.19 4.81522 17.1831 4.81126C17.2285 4.90001 17.3096 5.04522 17.3937 5.19105C17.4742 5.33917 17.5652 5.48313 17.6344 5.56897C17.645 5.58063 17.6554 5.5923 17.6665 5.60459C17.6994 5.63709 17.7283 5.65084 17.75 5.63626L17.7873 5.74688C17.8187 5.78584 17.8512 5.82647 17.8852 5.86876C17.9165 5.91292 17.949 5.95897 17.9831 6.00751C18.0015 6.10688 17.8612 5.8298 17.8075 5.80751C17.84 5.89897 17.8648 5.99397 17.8923 6.08709C17.921 6.13876 17.925 6.1823 17.9196 6.22063C17.9927 6.41438 18.071 6.62188 18.1531 6.83917C18.164 6.85313 18.1785 6.87501 18.2002 6.91105C18.2612 7.05772 18.3154 7.20522 18.3565 7.35584C18.3777 7.43084 18.3987 7.50542 18.4196 7.58001C18.4404 7.65438 18.4529 7.73084 18.4696 7.80584L18.5433 8.08667C18.5671 8.18042 18.594 8.27313 18.6083 8.36792C18.6423 8.55667 18.6737 8.74334 18.6996 8.9248C18.7156 9.00813 18.7344 9.09126 18.7554 9.17438C18.7487 9.09813 18.7421 9.02251 18.7354 8.94751C18.7283 8.87251 18.715 8.79897 18.7056 8.72542C18.6858 8.57834 18.6667 8.43313 18.6475 8.29022C18.6242 8.14813 18.5948 8.00897 18.5698 7.87022C18.5431 7.73209 18.5215 7.59376 18.4854 7.46063C18.5258 7.56709 18.5571 7.67417 18.5852 7.77459C18.6137 7.87501 18.6392 7.96897 18.6585 8.05188C18.6775 8.1348 18.6921 8.20626 18.6946 8.26292C18.6954 8.3198 18.6883 8.36105 18.6708 8.38167C18.6727 8.38917 18.6746 8.39751 18.6765 8.40438L18.7485 8.54147C18.7571 8.55209 18.765 8.56563 18.7725 8.58709L18.7735 8.58959V8.59084C18.7885 8.63605 18.8015 8.7173 18.8117 8.88772C18.7992 8.85355 18.7844 8.78605 18.7702 8.71834C18.766 8.78522 18.7594 8.82834 18.76 8.89584C18.7583 8.96376 18.759 9.05688 18.7731 9.22313C18.8323 9.48563 18.8269 9.19605 18.8625 9.28792C18.8394 9.35438 18.8648 9.56626 18.8633 9.80772C18.8654 9.92813 18.8671 10.0554 18.864 10.1742C18.8577 10.2927 18.8398 10.4031 18.819 10.489C18.7725 10.5052 18.8023 10.3677 18.8308 10.1842C18.8262 10.0715 18.8267 9.98084 18.8394 9.94063C18.844 9.96438 18.8456 9.9823 18.8481 10.0021C18.8598 9.84397 18.86 9.67834 18.82 9.56376C18.8125 9.56167 18.8083 9.56917 18.8052 9.58001C18.8031 9.65334 18.7981 9.72834 18.7917 9.80438C18.7919 9.80772 18.7921 9.81084 18.7925 9.81417L18.7802 9.92397C18.7717 9.99834 18.7631 10.0748 18.7542 10.1535C18.75 10.1973 18.7427 10.2406 18.7344 10.2842C18.7344 10.2935 18.7344 10.3023 18.7344 10.3119C18.7669 10.5077 18.7771 10.3465 18.8096 10.1919C18.7656 10.476 18.7573 10.845 18.7056 11.2467C18.7256 11.2821 18.7523 11.2769 18.7504 11.1623C18.7717 11.4785 18.6602 11.7344 18.6012 11.9442C18.5881 12.024 18.5721 12.1031 18.5504 12.1817C18.5494 12.1933 18.5483 12.205 18.5481 12.2165C18.6344 11.9979 18.5617 12.4421 18.6487 12.1788C18.601 12.4342 18.5198 12.536 18.4392 12.6285C18.4369 12.6563 18.435 12.684 18.4319 12.711C18.434 12.6856 18.4346 12.6598 18.4344 12.634L18.4262 12.6433C18.4029 12.7196 18.3727 12.7921 18.3456 12.8652C18.3225 12.9452 18.2994 13.026 18.2758 13.1081C18.2519 13.19 18.2265 13.2723 18.1925 13.3531C18.1883 13.37 18.1819 13.3877 18.1765 13.405C18.1819 13.4531 18.2679 13.3092 18.2317 13.4985C18.1344 13.6279 18.0604 13.8321 17.97 14.035C17.929 14.1379 17.8877 14.2421 17.8487 14.3398C17.8102 14.4379 17.7637 14.525 17.7256 14.6002C17.674 14.685 17.6556 14.9 17.7285 14.8363L17.9081 14.4388L18.0627 14.0317C18.0733 14.0633 18.1073 14.0613 18.1535 14.015C18.1767 13.9919 18.2029 13.9577 18.2308 13.911C18.2571 13.864 18.2821 13.8033 18.3077 13.7298C18.2483 13.7594 18.2594 13.6933 18.304 13.5783C18.3483 13.4633 18.4308 13.2998 18.4917 13.1263C18.5204 13.0152 18.5506 12.9004 18.5765 12.7894C18.6048 12.679 18.6133 12.5685 18.6212 12.4725C18.62 12.471 18.6198 12.4685 18.6185 12.4673L18.6215 12.4694C18.6223 12.4608 18.6229 12.4513 18.6237 12.4427C18.669 12.3104 18.7062 12.3546 18.7598 12.1529C18.7362 12.1656 18.7354 12.1302 18.7333 12.0815C18.731 12.0325 18.731 11.9713 18.7192 11.9344C18.7652 11.6769 18.7931 11.6519 18.8215 11.6683C18.8306 11.5806 18.845 11.4933 18.8471 11.4048L18.8379 11.4229C18.8492 11.3713 18.8619 11.1256 18.8771 10.8246C18.8762 10.5225 18.8871 10.1648 18.8894 9.88334C18.9406 10.0652 18.8533 11.0821 18.9731 10.5035C18.9808 10.6506 18.9858 10.831 18.9579 11.0329C18.9319 11.2348 18.9127 11.4608 18.861 11.6971C18.8737 11.7029 18.8877 11.7023 18.9042 11.6821C18.8481 11.8135 18.8135 11.9831 18.7737 12.1669C18.7421 12.3044 18.711 12.4438 18.6833 12.5865L18.7744 12.4535C18.7571 12.5644 18.7412 12.68 18.7123 12.7954C18.6825 12.9104 18.6492 13.0277 18.6133 13.1469C18.595 13.2063 18.5767 13.2658 18.5579 13.3263C18.5385 13.3863 18.5131 13.4448 18.4904 13.5044C18.4425 13.6229 18.3942 13.7425 18.3456 13.8629C18.2975 13.9833 18.2342 14.0981 18.179 14.2156C18.1198 14.3317 18.0694 14.451 18.0046 14.5627C17.8762 14.7865 17.7652 15.014 17.6365 15.2208C17.665 15.1208 17.6998 15.025 17.7208 14.9227C17.5294 15.1992 17.254 15.5213 17.1131 15.8229C17.3469 15.4848 17.2581 15.6879 17.2398 15.7729C17.1762 15.8756 17.1079 15.9915 17.021 16.1021L16.9306 16.3365C16.8473 16.4252 16.806 16.4942 16.7619 16.561C16.7152 16.6256 16.6635 16.6867 16.5646 16.7602C16.6444 16.6713 16.7058 16.5946 16.7469 16.5246C16.7869 16.4535 16.8123 16.3935 16.8287 16.3444C16.7785 16.4054 16.7285 16.4694 16.6742 16.531C16.6179 16.5913 16.5608 16.6523 16.5031 16.7142C16.4702 16.81 16.3504 16.9842 16.2054 17.1446C16.0562 17.3115 15.8733 17.4894 15.7187 17.6246C15.5962 17.6981 15.6615 17.5929 15.6942 17.5277C15.7446 17.5219 15.9615 17.3258 16.0448 17.2594C16.0787 17.2063 16.1021 17.1586 16.1271 17.1104C16.0358 17.2023 15.945 17.2944 15.8546 17.3854C15.8546 17.3854 15.8715 17.3467 15.841 17.359L15.7056 17.5015C15.7029 17.509 15.6992 17.5175 15.6942 17.5277C15.6885 17.5283 15.684 17.5281 15.6829 17.524L15.4804 17.7248L15.2704 17.9194C15.2502 17.9344 15.2329 17.9471 15.2144 17.9608C15.2996 17.9265 15.4412 17.8479 15.2379 18.0894C15.1994 18.0298 15.0437 18.156 14.8842 18.2946C14.7206 18.4281 14.5483 18.5704 14.5015 18.5552L14.8296 18.2867C14.7287 18.3377 14.6427 18.3913 14.5629 18.4467C14.5229 18.4744 14.4846 18.5027 14.4469 18.531L14.3308 18.6117C14.2533 18.6654 14.1744 18.7196 14.0871 18.7719C14.0008 18.8258 13.899 18.8671 13.7856 18.9094C13.6677 18.9958 13.7073 18.9969 13.791 18.9663C13.7196 19.0025 13.6517 19.0402 13.5862 19.0771C13.5194 19.1108 13.4542 19.1427 13.3919 19.1721C13.266 19.2296 13.1498 19.2775 13.0346 19.2856C13.2125 19.2021 13.3967 19.1054 13.576 19.0073C13.75 18.899 13.9258 18.7994 14.0796 18.695C14.0265 18.7281 13.9596 18.7688 13.8644 18.831C13.9515 18.7625 13.9779 18.7296 13.9727 18.715C13.9423 18.7273 13.9102 18.7398 13.8715 18.7531C13.9027 18.7377 13.9331 18.7227 13.9637 18.7075C13.9171 18.6925 13.721 18.7625 13.729 18.7033C13.4635 18.8627 13.479 18.8946 13.5454 18.899L13.8262 18.7325L13.5896 18.8992C13.6429 18.8971 13.6983 18.8917 13.6792 18.9154C13.6212 18.9415 13.5694 18.9654 13.52 18.9852C13.4696 19.0031 13.4231 19.0198 13.3783 19.0356L13.1779 19.1588C13.0321 19.2183 12.8779 19.2581 12.7277 19.3048C12.6135 19.3435 12.5027 19.3871 12.3869 19.4131C12.3633 19.4227 12.3456 19.4313 12.3387 19.4371L12.4508 19.4133C12.5527 19.3875 12.6365 19.3588 12.7123 19.3421L12.7662 19.3265L12.7306 19.3375C12.7508 19.3329 12.7754 19.3258 12.7935 19.3225L12.6829 19.4673C12.6379 19.4865 12.5875 19.5067 12.5333 19.525C12.4779 19.54 12.4194 19.5558 12.3598 19.5719C12.2406 19.6023 12.1173 19.6338 12.0065 19.6619C11.7835 19.7115 11.6104 19.7506 11.6317 19.8117C11.63 19.7829 11.516 19.7842 11.4121 19.7823C11.3085 19.7833 11.2121 19.7644 11.2469 19.7304L10.7302 19.77C10.8517 19.7542 10.9762 19.7379 11.1017 19.7215L11.2898 19.6954C11.3527 19.6873 11.4137 19.6698 11.4752 19.6575C11.5977 19.6304 11.7187 19.6038 11.8354 19.5781C11.9533 19.5567 12.0612 19.5163 12.1662 19.4894C11.9083 19.5638 11.64 19.6013 11.3694 19.6627C11.2329 19.6885 11.0925 19.7033 10.9504 19.7269C10.8794 19.7381 10.8075 19.7496 10.7348 19.761C10.6623 19.7746 10.5877 19.7756 10.5127 19.784L10.5787 19.8038L10.1446 19.8219C10.2671 19.829 10.369 19.8563 10.5042 19.8771C10.5715 19.886 10.6475 19.8992 10.7373 19.8973C10.8271 19.8942 10.9317 19.8848 11.0562 19.8656C10.986 19.8777 10.9154 19.89 10.8444 19.9025C10.7729 19.9142 10.7012 19.9292 10.6281 19.9329C10.4819 19.9448 10.3335 19.9567 10.1831 19.969C9.94791 19.9288 10.04 19.9106 10.1023 19.8958C10.1335 19.8883 10.1579 19.8817 10.1317 19.8736C10.1054 19.8648 10.0283 19.86 9.85875 19.829C9.94083 19.8198 10.009 19.8238 10.0712 19.8204L10.2485 19.7325C10.1794 19.741 10.1092 19.7435 10.0402 19.7435C9.97125 19.7421 9.90416 19.7313 9.84104 19.7258C9.71458 19.7131 9.60458 19.7067 9.52771 19.7373L9.62875 19.7477C9.51291 19.7506 9.39625 19.7585 9.28 19.7573C9.40187 19.74 9.52333 19.7133 9.64312 19.6915C9.53458 19.6765 9.41458 19.6798 9.28458 19.68C9.15521 19.6752 9.015 19.6761 8.865 19.6765C8.78979 19.6763 8.7125 19.6761 8.63312 19.6756C8.55437 19.6706 8.47396 19.661 8.39166 19.6515C8.30916 19.6415 8.22521 19.6298 8.13979 19.6152C8.05479 19.5992 7.96646 19.5879 7.88146 19.5581C7.85646 19.5252 7.89583 19.5213 7.97458 19.531C8.05458 19.5363 8.17416 19.5546 8.30875 19.5763C8.37583 19.5871 8.44666 19.5988 8.51791 19.6102C8.55354 19.6158 8.58937 19.6215 8.62479 19.6271C8.66062 19.6296 8.69625 19.6321 8.73104 19.6346C8.87083 19.6431 8.99896 19.6469 9.08958 19.6388C8.93208 19.621 8.77291 19.6058 8.61354 19.584C8.45562 19.5525 8.29687 19.5208 8.13708 19.489C7.97604 19.4619 7.82083 19.4094 7.6625 19.3658L7.42521 19.2973C7.34541 19.2765 7.27 19.2425 7.19187 19.2154C7.08521 19.1856 6.98896 19.166 6.90791 19.1625L7.33229 19.3713C7.09146 19.2883 6.90146 19.1883 6.75166 19.1013C6.60458 19.0071 6.49354 18.9338 6.39604 18.9158L6.47875 18.9242L6.42312 18.8988C6.24187 18.8463 6.03791 18.7446 5.77229 18.5961C5.77375 18.6423 5.87166 18.72 6.00646 18.8006C6.07416 18.8406 6.15 18.8829 6.22916 18.9192C6.30979 18.9525 6.39187 18.9829 6.46791 19.0073L6.34896 19.0521C6.54541 19.1431 6.74687 19.2404 6.96041 19.3125C7.06604 19.3508 7.17187 19.3892 7.27729 19.4275C7.38333 19.4633 7.49271 19.489 7.59875 19.519C7.70541 19.5469 7.81083 19.5746 7.91437 19.6019C8.01875 19.6256 8.12333 19.64 8.22396 19.6577C8.42604 19.6896 8.61562 19.726 8.79291 19.7283L8.62646 19.7406C8.57104 19.7431 8.51604 19.741 8.46041 19.7413C8.6025 19.8058 8.70562 19.8223 8.78437 19.83C8.86333 19.8369 8.91896 19.8298 8.97312 19.8229C9.02729 19.816 9.07979 19.8094 9.15312 19.8175C9.18979 19.8215 9.23166 19.829 9.28166 19.8421C9.33166 19.8552 9.39041 19.866 9.46062 19.8871C9.88812 19.8704 9.15812 19.829 9.48125 19.8027C9.77916 19.8394 9.38979 19.9567 9.89875 19.9802C8.93937 20.0002 7.91104 19.8163 6.94396 19.4517C6.4575 19.276 5.99416 19.041 5.54875 18.7894C5.10812 18.5292 4.69396 18.2375 4.30708 17.93C4.26562 17.9183 4.34271 17.9881 4.42062 18.0558C4.38208 18.0346 4.32833 18.0019 4.265 17.9552C4.20229 17.9079 4.12812 17.8485 4.04437 17.7792C3.95958 17.7113 3.86896 17.6288 3.77166 17.5369C3.72291 17.491 3.67229 17.4431 3.61979 17.3933C3.56916 17.3417 3.51687 17.2879 3.46291 17.2327C3.24833 17.0096 3.02229 16.754 2.79916 16.4542C2.69479 16.3044 2.58833 16.154 2.48666 15.9977C2.43812 15.9181 2.38937 15.8381 2.34083 15.7579C2.29146 15.6785 2.24396 15.5979 2.20146 15.5146C1.83979 14.86 1.58396 14.175 1.42604 13.6454C1.35 13.3798 1.28562 13.1552 1.23854 12.9898C1.18771 12.8252 1.14958 12.721 1.11708 12.6985C1.13687 12.601 1.22604 12.9169 1.15604 12.5031C1.13291 12.4652 1.09333 12.3575 1.07375 12.4546C1.06291 11.9292 1.02562 11.3148 1.04646 10.6738C1.04833 10.5135 1.06208 10.3525 1.07125 10.1906C1.08708 10.0296 1.09979 9.8673 1.12416 9.70751C1.16687 9.3873 1.23146 9.07292 1.31896 8.7773C1.27458 8.78751 1.31687 8.50855 1.29354 8.49105C1.38646 8.30292 1.46187 8.02313 1.54312 7.74584C1.62354 7.46876 1.71187 7.19438 1.80937 7.02147L1.72271 7.11647C1.79896 6.91959 1.88166 6.7148 1.97812 6.52522C2.07125 6.33251 2.16146 6.13897 2.27146 5.95522C2.2775 5.91022 2.19125 6.06126 2.13604 6.14709C2.25791 5.88667 2.32708 5.8698 2.36979 5.87501C2.43437 5.68397 2.51937 5.50251 2.60021 5.31667C2.68729 5.2048 2.78458 5.09542 2.88021 4.98167C2.97562 4.86751 3.06958 4.74876 3.17479 4.63522C3.17187 4.63334 3.17062 4.63001 3.16229 4.63355L3.32416 4.45397L3.40521 4.36459L3.49083 4.27959C3.62062 4.14417 3.745 3.99917 3.88562 3.86667L3.87583 3.83917C3.86062 3.84897 3.84375 3.86209 3.82396 3.88001C3.78771 3.92792 3.74916 3.97355 3.71562 4.02397C3.70521 4.02751 3.69854 4.02897 3.69021 4.03105C3.55812 4.13501 3.615 4.03376 3.69083 3.92397C3.88041 3.74376 4.06291 3.56542 4.25979 3.41042L4.26271 3.40647L4.26354 3.4073C4.33083 3.3523 4.39729 3.29709 4.46458 3.24438C4.53375 3.19438 4.6025 3.14459 4.67062 3.09542C4.81208 2.95938 4.72437 3.00126 5.1325 2.66855C5.20312 2.64147 5.27562 2.61813 5.34854 2.59563C5.38083 2.58522 4.76646 2.91792 4.81896 2.99001L4.82312 2.9873C4.92396 2.91834 5.02854 2.85605 5.12916 2.79334C5.40833 2.58792 5.70125 2.40251 5.99854 2.23584L5.88083 2.25501C5.96604 2.23251 6.06208 2.14917 6.19354 2.05147C6.25854 2.00167 6.33166 1.94626 6.41437 1.89042C6.49812 1.83667 6.59271 1.78417 6.69812 1.73542C6.57437 1.81563 6.44875 1.89126 6.32896 1.97709C6.41854 1.96334 6.53146 1.92438 6.65896 1.87084C6.7225 1.84355 6.78937 1.8123 6.85896 1.77834C6.92875 1.74584 7.00187 1.71167 7.07646 1.67688C7.22937 1.5698 7.39937 1.48209 7.63958 1.37709C7.50208 1.42709 7.3725 1.47397 7.28354 1.49876C7.19479 1.52355 7.14729 1.52897 7.17083 1.48751C7.43937 1.36376 7.70021 1.29292 7.93916 1.24022C8.12416 1.17522 8.31125 1.11605 8.49812 1.05876C8.4575 1.06063 8.41646 1.06188 8.37604 1.06522C8.47687 1.04042 8.57854 1.01917 8.67937 0.996049L8.59229 1.03001H8.59541C8.75041 0.983132 8.90666 0.941257 9.06312 0.900216C9.11458 0.883132 9.16687 0.867507 9.21937 0.858966C9.16229 0.844382 9.10562 0.831466 9.04854 0.818966C9.1975 0.774799 9.34812 0.736674 9.49791 0.696257L9.44312 0.734174C10.1742 0.588549 10.8035 0.456882 11.4862 0.328132C11.3515 0.354591 11.2181 0.382716 11.086 0.413341C11.1192 0.425007 11.3344 0.401466 11.5215 0.370216C11.4615 0.424591 10.9683 0.474382 11.0056 0.516882L10.9717 0.530632L11.2046 0.503549C11.3285 0.475007 11.3944 0.486674 11.4246 0.503757C11.4633 0.505007 11.5012 0.506049 11.5396 0.507091C11.5729 0.498966 11.6058 0.490841 11.6396 0.482507C11.6531 0.492507 11.6644 0.502507 11.6752 0.512716C11.7092 0.514591 11.7446 0.516466 11.7783 0.518341L11.6833 0.519591C11.7715 0.607924 11.7473 0.703966 11.5925 0.813549C11.6144 0.814382 11.6367 0.815424 11.6583 0.816257L11.6733 0.812507L11.6787 0.817299C11.7192 0.820007 11.761 0.822507 11.8008 0.825216L11.6885 0.826257C11.8044 0.927924 11.7883 1.03688 11.6087 1.1648C11.429 1.29438 11.0792 1.44397 10.53 1.66792C10.4473 1.67126 10.5806 1.62563 10.6869 1.58542C10.7927 1.54542 10.8712 1.50667 10.6735 1.51397C10.0767 1.58251 9.34021 1.80459 8.60937 2.11334C8.42541 2.18792 8.24416 2.27313 8.06166 2.35501C7.88208 2.44334 7.70021 2.52688 7.52521 2.61917C7.34729 2.70605 7.17687 2.80209 7.00583 2.88959C6.92166 2.93542 6.83833 2.98105 6.75604 3.02626C6.67312 3.07042 6.59041 3.11313 6.51166 3.15897C6.33187 3.24397 6.21854 3.29792 6.11812 3.35959C6.01729 3.42084 5.91812 3.47438 5.77271 3.57022C5.77812 3.5823 5.79104 3.59334 5.81562 3.59251C5.77479 3.62438 5.73 3.65938 5.68291 3.69626C5.72604 3.68188 5.77166 3.66376 5.81375 3.63522C5.78583 3.6723 5.75208 3.71459 5.74062 3.74417L5.78125 3.72105C5.73729 3.76772 5.66916 3.86001 5.63083 3.86001C5.73458 3.79084 5.71833 3.76772 5.68583 3.72105C5.63021 3.76001 5.57354 3.79772 5.51896 3.83792C5.51771 3.8348 5.51708 3.83251 5.51604 3.82959C5.49875 3.8448 5.48146 3.86001 5.46396 3.87542C5.50104 3.91209 5.38479 4.01251 5.33166 4.05584L5.40604 3.92605C5.29125 4.02563 5.17104 4.12647 5.06312 4.22855C4.95291 4.32813 4.84396 4.41772 4.75396 4.49688C4.69 4.58605 4.68104 4.68376 4.81666 4.52355C4.74125 4.61667 4.66416 4.6973 4.58687 4.77022C4.53583 4.86209 4.43771 4.96292 4.32375 5.07834C4.21291 5.19605 4.09562 5.33584 3.99646 5.48959C4.02604 5.48084 4.0575 5.47355 4.08791 5.46563C4.04291 5.55188 3.99562 5.64563 3.93354 5.73459C3.87354 5.82501 3.80104 5.91251 3.73833 6.00855C3.67208 6.10272 3.605 6.19792 3.53916 6.29147C3.47916 6.38855 3.425 6.4873 3.37896 6.58376L3.36791 6.43667C3.31916 6.4973 3.25687 6.56438 3.20604 6.63605C3.15479 6.7073 3.12416 6.78792 3.12437 6.86584C3.19687 6.69459 3.19854 6.7998 3.21625 6.84313C3.18666 6.96438 3.1175 7.10355 3.05396 7.25063C2.99187 7.39917 2.9275 7.56563 2.88875 7.73251C2.88875 7.73251 2.87771 7.71188 2.86208 7.72272C2.83979 7.84126 2.82 7.96042 2.80208 8.07959C2.74229 8.24022 2.68354 8.2873 2.60541 8.37917C2.59979 8.44313 2.56271 8.59626 2.62146 8.54667C2.63375 8.51459 2.64583 8.48251 2.64646 8.46001C2.68896 8.6548 2.58979 8.5798 2.59354 8.81355C2.55979 8.62792 2.48021 8.85042 2.41187 8.81834C2.38979 9.08959 2.53541 8.86292 2.56166 8.90209C2.51625 9.04272 2.47396 9.12647 2.44062 9.20647C2.43771 9.23147 2.43333 9.25563 2.42812 9.27938C2.42771 9.26355 2.42729 9.25209 2.42687 9.23813C2.38958 9.32522 2.355 9.41438 2.32708 9.57459C2.36021 9.4923 2.4025 9.39417 2.42812 9.27917C2.42812 9.29938 2.42833 9.32022 2.42854 9.34126C2.43416 9.33355 2.44021 9.3273 2.44666 9.3248C2.43979 9.34709 2.43396 9.37042 2.42916 9.39313C2.42979 9.42626 2.43312 9.4573 2.43771 9.47855L2.45437 9.4098C2.45354 9.42251 2.45354 9.43647 2.45312 9.45126C2.46375 9.41688 2.47666 9.38251 2.48875 9.34813C2.47479 9.38938 2.46375 9.43063 2.45291 9.47209C2.45187 9.5698 2.45041 9.69167 2.42791 9.7248C2.44666 9.61834 2.44729 9.57063 2.43312 9.54459C2.36458 9.80876 2.33375 10.0794 2.34646 10.3796L2.37083 10.3504L2.35771 10.5821L2.27708 10.4994C2.29104 10.6246 2.21833 10.7625 2.28354 10.8271L2.29041 10.7806C2.29937 10.8327 2.30541 10.8848 2.31646 10.9365C2.28646 10.8844 2.26146 10.8315 2.23375 10.7783C2.19375 10.9831 2.37479 11.2469 2.38333 11.5656C2.32854 11.6077 2.30875 11.4702 2.28625 11.3179C2.26146 11.1658 2.24521 10.9981 2.16916 10.9813C2.14729 11.0913 2.12708 11.2813 2.17229 11.3429C2.21229 11.3256 2.20541 11.2481 2.20541 11.1694C2.24416 11.2944 2.24771 11.4496 2.25416 11.599C2.27687 11.831 2.31396 12.1394 2.34937 11.8292C2.35646 11.8627 2.36458 11.9002 2.37271 11.9388C2.37562 11.9015 2.37812 11.8646 2.38333 11.8269C2.39437 11.9004 2.39541 11.9673 2.38771 12.0283C2.40125 12.1169 2.41041 12.2158 2.42729 12.321C2.44312 12.4263 2.45416 12.5404 2.47896 12.6573L2.51937 12.7013C2.53125 12.8208 2.53062 12.8752 2.53104 12.9083C2.56021 13.0165 2.59083 13.1263 2.62833 13.2352L2.65583 13.1165C2.68396 13.1856 2.71312 13.2571 2.74291 13.3306C2.77208 13.4042 2.7975 13.4813 2.82562 13.5588C2.88687 13.7123 2.93729 13.8769 3.00458 14.0371C3.06396 14.2008 3.13771 14.3604 3.21021 14.5183C3.24541 14.5977 3.29062 14.6713 3.33083 14.7458C3.37354 14.8192 3.41125 14.8942 3.46021 14.9602C3.40041 14.9196 3.34708 14.8744 3.29062 14.8298C3.3325 14.939 3.38666 15.0608 3.44896 15.1775C3.48083 15.2352 3.51229 15.2933 3.55208 15.3427C3.59208 15.3919 3.63521 15.4358 3.68187 15.471C3.50958 15.2438 3.63458 15.3385 3.69291 15.3606C3.75854 15.4306 3.825 15.5154 3.89416 15.6027C3.96333 15.6869 4.04 15.7802 4.12271 15.875C4.20333 15.971 4.29479 16.0667 4.38562 16.1629C4.48187 16.255 4.575 16.3517 4.67937 16.4338C4.67937 16.4338 4.64833 16.4279 4.65666 16.4513L4.8775 16.6215L5.105 16.7823C5.29666 16.9585 5.34208 17.0425 5.43646 17.1842C5.52208 17.2333 5.71937 17.3702 5.67187 17.2817C5.63208 17.2488 5.5925 17.216 5.56187 17.2004C5.70333 17.2463 5.73896 17.2788 5.78 17.3202C5.82062 17.3619 5.86625 17.4131 6.03062 17.4813C5.75916 17.3986 6.04333 17.61 5.97521 17.6546C6.34604 17.8467 6.08 17.5658 6.14354 17.5654C6.19291 17.6031 6.23687 17.6369 6.27687 17.6675C6.3175 17.6967 6.35396 17.7231 6.38791 17.7475C6.45458 17.7988 6.51062 17.8419 6.56687 17.8848C6.6775 17.9758 6.79937 18.0463 7.02416 18.159C7.07041 18.13 6.71458 17.9833 6.70125 17.9208C6.82396 17.9904 6.97771 18.0556 7.00833 18.0513L6.74875 17.8929C6.96979 18.0221 7.19 18.1517 7.43416 18.2413C7.6725 18.3477 7.93416 18.4077 8.21229 18.4738L8.17604 18.439C8.28833 18.4738 8.40458 18.491 8.51875 18.5183L8.37312 18.574C8.46979 18.5833 8.56375 18.6169 8.64875 18.6429C8.73354 18.6696 8.80958 18.6873 8.86708 18.6579L8.79833 18.6433L9.04083 18.6463L8.78021 18.6979C8.92916 18.7348 9.11812 18.7233 9.32646 18.7127C9.37854 18.7119 9.43229 18.705 9.48708 18.6973C9.54208 18.6904 9.59812 18.6844 9.655 18.6796C9.76916 18.6702 9.88729 18.6673 10.0096 18.6756C10.0548 18.7277 9.89896 18.7348 9.70125 18.7394C9.60271 18.7417 9.49375 18.7431 9.39416 18.749C9.29541 18.746 9.20583 18.7477 9.14521 18.7615C9.38208 18.7935 9.62416 18.7856 9.86791 18.7927C9.99021 18.8 10.1121 18.789 10.235 18.781C10.3577 18.7733 10.481 18.7658 10.6048 18.7581C10.6531 18.7421 10.6962 18.7238 10.7315 18.7015C10.6769 18.7002 10.6229 18.7019 10.5685 18.6979L10.4054 18.6817C10.5802 18.6727 10.7256 18.6765 10.8469 18.6867C10.9679 18.696 11.0631 18.7046 11.1262 18.6721L11.1021 18.6881C11.2646 18.6592 11.4252 18.6177 11.5875 18.5842C11.6692 18.5696 11.7477 18.5417 11.8273 18.5183L12.066 18.4467C12.01 18.3938 11.5783 18.6092 11.5944 18.5775C11.6467 18.5473 11.6969 18.511 11.7465 18.4738C12.1258 18.3929 12.0629 18.4304 12.2054 18.4019C12.326 18.356 12.4467 18.3102 12.5669 18.2644L12.5612 18.2429C12.594 18.2431 12.6319 18.2365 12.6704 18.2217C12.7352 18.1919 12.7992 18.1623 12.8637 18.1327C12.9415 18.0906 13.0162 18.0494 13.0712 18.0179C13.1254 17.9852 13.1627 17.9681 13.1698 17.9838C13.2802 17.9229 13.3927 17.8673 13.5002 17.8033C13.6071 17.7377 13.7133 17.6725 13.8185 17.6075C13.8392 17.5756 13.7577 17.6173 13.6775 17.6583C13.706 17.6321 13.7496 17.5992 13.8056 17.5602C13.86 17.5179 13.9269 17.4692 14.0044 17.415C14.0435 17.3881 14.085 17.3594 14.1287 17.3294C14.1715 17.2977 14.2165 17.2644 14.2635 17.2294C14.3577 17.1604 14.4612 17.0869 14.5662 17.0017C14.7817 16.8383 15.0106 16.6413 15.2469 16.4265C15.3631 16.32 15.4898 16.2008 15.599 16.0863C15.6556 16.0283 15.7127 15.9702 15.7698 15.9119L15.8556 15.8246L15.9352 15.7319C16.0175 15.6358 16.0994 15.5402 16.1802 15.4456C16.259 15.3496 16.329 15.2481 16.4017 15.1521C16.5517 14.9623 16.6658 14.7604 16.7823 14.5806C16.7998 14.4906 16.7065 14.5406 16.8652 14.3183C16.8602 14.3525 16.8248 14.43 16.8042 14.4825C16.7823 14.5344 16.7744 14.5613 16.8302 14.4971L16.8283 14.5048C17.1085 14.0052 17.2567 13.5998 17.2529 13.4723C17.2162 13.5767 17.1679 13.6765 17.1217 13.7623C17.126 13.7346 17.1469 13.6788 17.1719 13.6152C17.1975 13.5517 17.2269 13.4804 17.2427 13.42C17.2781 13.3002 17.2852 13.235 17.18 13.3913C17.1915 13.3219 17.215 13.2427 17.246 13.1552C17.2756 13.0673 17.32 12.9733 17.351 12.8675C17.4192 12.6579 17.5048 12.4215 17.534 12.1696L17.4569 12.2525C17.4635 12.1192 17.49 11.9802 17.514 11.8348C17.534 11.6885 17.5619 11.5373 17.5927 11.3844C17.6377 11.0769 17.6908 10.7592 17.679 10.4675L17.7542 10.6431C17.7708 10.5406 17.7967 10.4223 17.8104 10.3048C17.8187 10.246 17.8196 10.1877 17.8129 10.1319C17.8073 10.0763 17.796 10.0229 17.7771 9.97501C17.7933 10.2271 17.7425 10.0979 17.7065 10.0546C17.6737 9.88709 17.6769 9.67917 17.6471 9.45751C17.6352 9.34647 17.6231 9.23147 17.6108 9.11584C17.5933 9.00063 17.566 8.88626 17.5383 8.77438C17.5383 8.77438 17.559 8.79334 17.5669 8.77167L17.4998 8.53897C17.4756 8.46188 17.445 8.38647 17.4181 8.31042C17.3723 8.08751 17.4033 7.99751 17.4102 7.84688C17.374 7.76876 17.3117 7.56813 17.2921 7.65876C17.3017 7.70334 17.311 7.74751 17.3246 7.77438C17.1675 7.56897 17.3012 7.60126 17.1442 7.33209C17.2944 7.52917 17.2148 7.22688 17.2931 7.22626C17.135 6.89751 17.1608 7.24272 17.1127 7.21188C17.0529 7.00209 17.0252 6.87959 16.9987 6.75584C16.9646 6.63522 16.9327 6.51209 16.8373 6.31209C16.7892 6.30876 16.949 6.60709 16.9181 6.66272C16.8748 6.54522 16.8085 6.41397 16.7823 6.4023C16.8119 6.48772 16.8383 6.57438 16.8665 6.65959C16.7219 6.22667 16.5177 5.8298 16.2035 5.43001C16.2052 5.44522 16.2054 5.46084 16.2067 5.47605C16.1487 5.38897 16.0877 5.30397 16.0283 5.21751L16.1621 5.26084C16.049 5.13272 15.9954 4.94167 15.8867 4.91042L15.92 4.96417C15.8692 4.91334 15.8204 4.86126 15.7683 4.81188C15.8362 4.85105 15.9012 4.89313 15.9683 4.93417C15.8317 4.69084 15.4583 4.51313 15.1675 4.18522C15.1744 4.11209 15.3181 4.2398 15.466 4.39022C15.619 4.53647 15.7748 4.70542 15.8512 4.68022C15.8133 4.61563 15.7585 4.53022 15.7023 4.45522C15.644 4.38188 15.5835 4.32001 15.5392 4.29917C15.5215 4.3398 15.5921 4.41938 15.6617 4.50084C15.5831 4.43917 15.5048 4.36209 15.4287 4.27751C15.3523 4.19313 15.2731 4.10605 15.1971 4.0223C15.0423 3.85667 14.8917 3.71084 14.7567 3.67542C14.8181 3.75313 14.8779 3.83209 14.9354 3.91251C14.7025 3.70209 14.6308 3.46251 14.5073 3.41917C14.5965 3.44001 14.6881 3.45938 14.7767 3.48334C14.4706 3.29876 14.1327 3.00126 13.8377 2.84855C13.7825 2.90938 14.2115 3.13542 14.1823 3.13667C14.1302 3.11897 14.0762 3.10397 14.0231 3.08813C13.8396 2.91126 13.816 2.88105 13.7846 2.84042C13.7519 2.80042 13.7115 2.74959 13.4723 2.55105L13.4358 2.5948C13.315 2.40209 12.7608 2.24459 13.0156 2.22855L13.1383 2.34959L13.1567 2.30042C13.1244 2.28542 13.0862 2.26563 13.0467 2.24397C12.9958 2.20709 12.9454 2.17188 12.894 2.13667C12.7733 2.07126 12.6504 2.00959 12.5281 1.94772C12.5852 1.94126 12.469 1.86917 12.4169 1.81751C12.3675 1.78605 12.3181 1.75438 12.2692 1.72313L12.156 1.69126C12.1477 1.67188 12.151 1.66063 12.1619 1.65438C12.0412 1.57959 11.9215 1.50584 11.8023 1.43438C11.7512 1.41563 11.6896 1.38897 11.6212 1.35959C11.621 1.34792 11.6229 1.33834 11.6262 1.33042C11.1179 1.03272 10.6337 0.767924 10.1662 0.535424C10.1317 0.522507 10.106 0.509382 10.0881 0.496466C10.0287 0.466882 9.97146 0.438341 9.91354 0.409382C9.89562 0.406466 9.87812 0.403757 9.86021 0.400841C9.85583 0.393132 9.85333 0.385841 9.84979 0.378549C9.81333 0.361257 9.77541 0.343132 9.73958 0.326257L9.84416 0.366466C9.79271 0.248757 9.83896 0.160424 10.0287 0.119174C10.0017 0.114799 9.97521 0.110424 9.94791 0.106049C9.93646 0.0864657 9.92812 0.0677156 9.92146 0.0495907L9.92021 0.0500073ZM2.42187 9.54334L2.42458 9.5348C2.42291 9.53292 2.42083 9.53126 2.41896 9.52959C2.42 9.53417 2.42021 9.54126 2.42187 9.54334ZM11.5417 0.846882L11.6106 0.828966L11.569 0.830424C11.5604 0.835424 11.5506 0.841466 11.5417 0.846882ZM11.446 0.528966C11.446 0.529591 11.4469 0.530632 11.4467 0.531466L11.4587 0.528132L11.446 0.528966ZM1.98479 11.2817C1.98625 11.3004 1.98771 11.3185 1.98916 11.3363C1.98979 11.3208 1.99062 11.3048 1.99146 11.2877L1.98479 11.2817ZM2.05458 9.18584C2.02396 9.19209 1.99896 9.22417 1.98021 9.2698C1.98437 9.42542 2.00458 9.36313 2.04062 9.26209C2.04437 9.23772 2.04896 9.21251 2.05458 9.18584ZM1.59458 8.28126C1.545 8.36272 1.51416 8.51751 1.48312 8.63938C1.51583 8.61772 1.54062 8.57397 1.56083 8.51417C1.56104 8.46501 1.56041 8.41563 1.56187 8.36647C1.57271 8.33855 1.58375 8.30959 1.59458 8.28126ZM2.35271 6.26959L2.35166 6.26647C2.32812 6.31209 2.31021 6.35459 2.30125 6.39084C2.31833 6.35022 2.33541 6.31022 2.35271 6.26959ZM3.72833 4.46417C3.70125 4.49688 3.67625 4.52667 3.6525 4.55542L3.68062 4.52647C3.69646 4.50605 3.7125 4.48501 3.72833 4.46417ZM5.92125 2.60126C5.9925 2.56917 6.06375 2.53709 6.13333 2.50563C6.15916 2.48855 6.18437 2.47188 6.21 2.45459C6.31291 2.39105 6.41625 2.3273 6.51958 2.26334C6.41646 2.31917 6.31396 2.37438 6.21291 2.42897C6.11396 2.4873 6.01646 2.54501 5.92104 2.60126H5.92125ZM6.10166 2.38209C6.05396 2.40917 6.00521 2.43688 5.95521 2.46563C5.9425 2.47501 5.93083 2.48397 5.91875 2.49292C5.95666 2.46876 6.01916 2.43084 6.10166 2.38209ZM7.40416 1.71501C7.31646 1.75251 7.23708 1.79397 7.17062 1.82563L7.12562 1.87188C7.2125 1.83459 7.3 1.79522 7.38833 1.75897C7.41666 1.73438 7.42187 1.71959 7.40416 1.71501ZM7.07396 1.87397C7.0775 1.87709 7.07396 1.88397 7.06125 1.89522L7.13791 1.84167C7.11396 1.85376 7.09416 1.86376 7.07396 1.87397ZM4.23396 5.09647C4.08854 5.23813 3.95104 5.35563 3.87916 5.4948C4.03479 5.33355 3.86937 5.59397 3.90083 5.58792C3.95521 5.51647 3.98416 5.4498 3.94229 5.40959L4.00896 5.46272L4.23396 5.09647ZM4.42166 4.67563C4.37666 4.71459 4.31229 4.7723 4.24229 4.83834C4.11541 4.97084 4.00041 5.13626 3.86729 5.28876C3.8375 5.34376 3.82729 5.39063 3.84812 5.41605C3.74687 5.50772 3.64708 5.59459 3.54687 5.68126C3.49958 5.78876 3.61896 5.67959 3.59375 5.79126C3.52354 5.83022 3.47021 5.90647 3.425 5.98938C3.45458 5.96792 3.48375 5.94917 3.51229 5.93292C3.45416 6.01459 3.39396 6.09417 3.33354 6.17417C3.31791 6.20709 3.30541 6.2398 3.29062 6.26626C3.26333 6.30522 3.29979 6.41688 3.35146 6.39292C3.37458 6.33188 3.39458 6.26876 3.42041 6.20876L3.49937 6.02876C3.52916 6.06688 3.62375 6.0548 3.68708 5.93167C3.62333 5.93147 3.64229 5.88355 3.69396 5.81876C3.62791 5.86917 3.57125 5.90001 3.51229 5.93292C3.55583 5.87376 3.59437 5.81084 3.64083 5.75272C3.68646 5.69397 3.73125 5.63438 3.77562 5.57376C3.81937 5.51272 3.86354 5.45105 3.90791 5.38876C3.95521 5.32855 4.00187 5.26667 4.04812 5.20334C4.25146 5.03897 4.36354 4.86397 4.40708 4.72501C4.36771 4.75959 4.35812 4.76584 4.41416 4.70084C4.41666 4.69251 4.41937 4.68334 4.42166 4.67563ZM7.27062 2.29813C7.1175 2.3698 6.97208 2.45167 6.82521 2.52355C6.68041 2.59897 6.54041 2.67667 6.40104 2.74709C6.33375 2.82063 6.26708 2.89188 6.18812 2.96105L6.09562 2.93126C6.17104 2.89626 6.2175 2.86334 6.25771 2.8273L6.24333 2.83522C6.08708 2.90667 5.98208 2.95667 5.89166 3.01022C5.96 3.03147 6.04854 2.93251 5.83646 3.1348C5.78771 3.1448 5.78875 3.10292 5.77875 3.07542C5.69896 3.12313 5.61271 3.17147 5.49979 3.2473C5.50521 3.25959 5.51812 3.27084 5.54271 3.27001C5.49083 3.31063 5.4325 3.35626 5.37187 3.40376C5.34625 3.45667 5.30875 3.51022 5.21854 3.59126C5.27937 3.55501 5.34208 3.52126 5.40625 3.48938C5.31479 3.55876 5.16896 3.71459 5.04812 3.74438C5.11687 3.69417 5.23146 3.56876 5.28771 3.47022C5.21062 3.53438 5.13229 3.60522 5.05146 3.67438C4.97021 3.74313 4.88916 3.81313 4.81396 3.88501L4.82458 3.88292L4.77458 3.92084C4.71562 3.97438 4.6575 4.02626 4.60187 4.07355C4.60479 4.22313 4.92812 3.75834 4.93916 3.89438C4.91333 4.01605 4.8125 4.06209 4.71416 4.11167C4.61437 4.15897 4.525 4.21813 4.52333 4.34605C5.065 3.80501 5.72708 3.27397 6.44458 2.79772C6.58104 2.71313 6.71521 2.62355 6.85333 2.54063C6.99271 2.46063 7.12854 2.37292 7.27104 2.29792L7.27062 2.29813ZM10.8492 0.582507C10.7846 0.610424 10.7198 0.637091 10.6558 0.666257C10.8258 0.628341 10.989 0.611674 11.1344 0.635632C11.294 0.579382 10.9925 0.598549 11.0352 0.560424C10.9748 0.566257 10.9119 0.573966 10.8492 0.582507ZM1.71791 7.81563C1.69833 7.83876 1.64083 7.97792 1.58666 8.14167C1.60375 8.11105 1.62187 8.10605 1.645 8.15063L1.65521 8.12584C1.67771 8.0373 1.70187 7.94709 1.73625 7.86417C1.73083 7.7873 1.68875 7.76897 1.80854 7.43188L1.93937 7.31563C1.85229 7.51626 1.80229 7.66605 1.76458 7.7998C1.77354 7.78084 1.78229 7.76147 1.79208 7.74355C1.92312 7.37647 2.04562 6.97772 2.21937 6.58459C2.22354 6.55334 2.23396 6.50542 2.23562 6.47876C2.17187 6.61188 2.08937 6.75834 2.02604 6.90084C1.96187 7.04147 1.9075 7.16938 1.87812 7.25355C1.87583 7.19542 1.87396 7.13709 1.87312 7.07834C1.72354 7.28709 1.75479 7.48188 1.6025 7.76459C1.54312 8.08063 1.74541 7.63584 1.71791 7.81522V7.81563ZM1.8825 10.7171C1.87479 10.7529 1.86937 10.7935 1.86354 10.8335C1.86583 10.8615 1.86791 10.8898 1.87021 10.92L1.84541 11.0508V11.0542C1.89083 11.0881 1.87812 10.8931 1.8825 10.7171ZM1.97 11.4142C1.95479 11.26 1.95333 11.099 1.96562 10.9633C1.97729 11.0119 1.97687 11.15 1.98416 11.2735L1.99187 11.2756C1.99291 11.2273 1.99729 11.1744 2.00021 11.1208C1.99437 10.9152 2.00229 10.7025 2.00833 10.4992L2.03083 10.5352L2.035 10.2856L2.02646 10.3025C2.03041 10.2802 2.03479 10.2198 2.04021 10.134C2.02833 10.0946 2.015 10.0594 2.00229 10.03C2.02771 10.0004 2.01229 9.98251 2.04291 10.0181C2.04437 10.014 2.04583 10.0106 2.04708 10.0065C2.05083 9.92355 2.06125 9.82917 2.06979 9.72751C2.04791 9.62167 2.01562 9.50272 2.03416 9.31084C2.00312 9.42772 1.97416 9.55397 1.95041 9.69355C1.94958 9.73792 1.94646 9.78876 1.94021 9.84834C1.96562 9.74417 1.98875 9.64042 2.01812 9.53772C2.00229 9.65084 1.99146 9.82855 1.96604 9.98272C1.98687 10.0817 2.05416 9.99855 1.98687 10.2877C1.96979 10.2119 2.00812 9.91147 1.95521 10.0871C1.95354 10.0792 1.95333 10.0708 1.9525 10.0625C1.94208 10.1144 1.92979 10.1619 1.91396 10.1994C1.92604 10.1167 1.92625 9.97792 1.92708 9.84459C1.89416 10.0671 1.87354 10.3079 1.85729 10.5579C1.86625 10.5677 1.87583 10.5779 1.88583 10.5835C1.89312 10.4931 1.90771 10.4388 1.93854 10.4838C2.00041 10.6465 1.96541 10.801 1.93458 10.9571C1.90583 11.1121 1.87958 11.2685 1.96958 11.4142H1.97ZM2.49375 12.9273C2.5025 12.9252 2.50708 12.9183 2.51041 12.9106C2.48666 12.8367 2.46583 12.7615 2.44312 12.6867C2.42041 12.6121 2.39791 12.5371 2.38062 12.4606L2.37583 12.4758C2.37604 12.451 2.35666 12.3688 2.33041 12.2596C2.29271 12.2263 2.25812 12.1919 2.22271 12.1573C2.27416 12.2769 2.31937 12.415 2.35521 12.5523C2.39875 12.6879 2.43854 12.8219 2.49375 12.9271V12.9273ZM2.60896 13.1919L2.52687 12.9569C2.52458 12.9906 2.52541 13.0365 2.55083 13.1988L2.60916 13.1919H2.60896ZM2.59104 13.2506C2.57812 13.2333 2.56666 13.22 2.55271 13.2119C2.55541 13.2273 2.55687 13.2423 2.56104 13.2594L2.59104 13.2506ZM2.68729 13.5067C2.66604 13.4215 2.64208 13.3446 2.61396 13.289C2.61875 13.3573 2.655 13.4383 2.68729 13.5067ZM2.80187 14.176L2.91083 14.2948C2.96083 14.2963 2.99041 14.1906 2.89958 14.0077C2.87458 14.0571 2.84646 14.0275 2.81479 13.9567C2.78479 13.8854 2.75791 13.7706 2.72583 13.6546C2.71521 13.6552 2.69958 13.6517 2.67646 13.6425C2.67166 13.6008 2.66979 13.5583 2.66833 13.5158L2.60854 13.5517C2.64125 13.6306 2.68396 13.7054 2.72104 13.7823C2.76 13.8581 2.79541 13.9354 2.83937 14.0085C2.77333 13.9858 2.88916 14.2048 2.80208 14.176H2.80187ZM3.23375 14.8017C3.12208 14.6504 3.02625 14.4892 2.92604 14.3288C2.89979 14.3629 2.84604 14.3165 2.79166 14.2483C2.82854 14.3402 2.88437 14.4279 2.93416 14.5129C2.96604 14.5477 2.9875 14.571 2.9875 14.571L2.965 14.5646C2.99625 14.5819 3.04 14.656 3.10021 14.7419C3.09396 14.7496 3.08791 14.756 3.08166 14.7606C3.09187 14.7731 3.10521 14.785 3.11958 14.7958C3.115 14.7823 3.11104 14.7677 3.10729 14.7523C3.12021 14.7721 3.13354 14.7927 3.14708 14.8135C3.19104 14.8381 3.23521 14.8438 3.23354 14.8015L3.23375 14.8017ZM7.58604 18.6298C7.57687 18.6242 7.56854 18.6192 7.55958 18.614L7.50875 18.5958C7.53416 18.6083 7.55916 18.6202 7.58291 18.6304C7.58437 18.63 7.58458 18.63 7.58604 18.6298ZM8.28896 18.8206L8.28187 18.8158C8.26541 18.8142 8.24958 18.8125 8.23354 18.8108C8.25271 18.8142 8.27 18.8173 8.28896 18.8206ZM8.34791 18.7756C8.16771 18.73 7.99333 18.691 7.84041 18.6796L8.05604 18.7546C7.96416 18.7285 7.87062 18.7019 7.77625 18.6752C7.75812 18.6744 7.74104 18.6738 7.72396 18.6731L7.69416 18.6744C7.785 18.699 7.87958 18.7244 7.97333 18.7494C8.03062 18.7558 8.09041 18.7625 8.15271 18.7696C8.21562 18.7715 8.28062 18.7733 8.34791 18.7754V18.7756ZM9.38666 19.0096C9.26146 18.9971 9.13458 18.9788 9.00687 18.9627C8.87979 18.9442 8.75041 18.9348 8.62521 18.9021L8.58208 18.9131C8.64062 18.9242 8.69937 18.9398 8.75875 18.9498C8.81854 18.9583 8.87791 18.9669 8.93625 18.9752C9.05291 18.9915 9.16541 19.0058 9.26562 19.0106L9.27687 19.011C9.31583 19.0121 9.35208 19.014 9.38666 19.0096ZM9.91208 19.0181H9.9L9.82354 19.0531C9.88458 19.0473 9.94708 19.0417 10.0108 19.0356C10.0744 19.0246 10.1392 19.014 10.2052 19.0046C10.1981 19.0025 10.1906 19.0006 10.1842 18.9979C10.1015 18.9783 10.2156 18.956 10.259 18.9404C10.1202 18.9548 9.98896 18.9735 9.86375 18.974C9.85187 18.9856 9.86229 18.9992 9.90104 19.0135C9.90771 19.0123 9.91396 19.0106 9.92021 19.0088L9.90541 19.0154C9.90791 19.0167 9.90916 19.0169 9.91187 19.0181H9.91208ZM10.869 18.9638C10.8685 18.9536 10.86 18.9469 10.8469 18.9431C10.7858 18.959 10.7231 18.9752 10.6615 18.9913C10.6215 19.0258 10.4708 19.0375 10.29 19.0575C10.1994 19.0665 10.101 19.076 10.0046 19.0856C9.90791 19.0871 9.81271 19.0902 9.72896 19.0961L9.71208 19.1038C9.7925 19.1035 9.87021 19.1035 9.94854 19.1033C10.0281 19.1025 10.1087 19.0848 10.1898 19.0777C10.2704 19.0686 10.3512 19.0596 10.4306 19.0506C10.5094 19.04 10.5875 19.0365 10.6608 19.0181C10.7342 19.0013 10.804 18.9833 10.8687 18.964L10.869 18.9638ZM11.5552 18.8321C11.4558 18.8292 11.1869 18.8692 11.2315 18.8452C11.1512 18.865 11.0292 18.8911 10.896 18.9296C10.9271 18.9327 10.9531 18.9363 11.0181 18.9358C11.0833 18.9354 11.1883 18.9356 11.3735 18.904L11.3725 18.894L11.1842 18.914C11.2487 18.8979 11.3106 18.8852 11.3702 18.8754L11.3667 18.8473C11.4181 18.855 11.485 18.8469 11.5552 18.8319V18.8321ZM12.3471 19.0173C12.3381 19.0152 12.336 19.0113 12.3377 19.0065C12.3019 19.0152 12.2692 19.0229 12.2294 19.0327L12.2169 19.0413L12.2279 19.0331C12.1817 19.045 12.1377 19.0565 12.0846 19.0702C12.0787 19.0815 12.0987 19.0823 12.1287 19.079C12.1623 19.0686 12.1921 19.0565 12.2169 19.0413L12.1748 19.0721C12.1965 19.0677 12.2194 19.0631 12.2454 19.0577C12.2771 19.0452 12.3131 19.0308 12.3471 19.0173ZM12.4296 18.979L12.426 18.98C12.3712 19.004 12.3435 19.0152 12.3494 19.0165C12.3769 19.0058 12.4002 18.9917 12.4296 18.979ZM12.6679 18.5252C12.4365 18.5408 12.234 18.6565 11.9748 18.7515C11.9706 18.7575 11.9675 18.7625 11.9617 18.77L11.9156 18.7748C11.8765 18.7898 11.836 18.805 11.795 18.8206L11.8 18.8296C11.8398 18.8238 11.8771 18.8181 11.9119 18.8131L12.2256 18.696C12.3285 18.6535 12.429 18.604 12.5304 18.5585C12.5244 18.5673 12.5246 18.5729 12.5285 18.576C12.5727 18.56 12.6194 18.5431 12.6679 18.5254V18.5252ZM14.8029 18.1931C14.7475 18.2169 14.6892 18.2363 14.6246 18.2619C14.5337 18.3348 14.3248 18.4773 14.3285 18.5017C14.4883 18.4083 14.6421 18.3038 14.8027 18.1931H14.8029ZM17.3252 13.2279C17.3067 13.2933 17.286 13.3621 17.264 13.4321C17.2894 13.4481 17.2573 13.6098 17.3669 13.3113C17.3644 13.2729 17.3762 13.1823 17.3252 13.2279ZM17.7854 10.6904C17.7954 10.7794 17.7952 10.8679 17.7965 10.9569L17.8006 11.2246C17.7792 11.2094 17.7483 11.2196 17.7221 11.2567C17.6965 11.294 17.6756 11.3581 17.6644 11.4515C17.7565 11.3975 17.7029 11.5796 17.6498 11.7808C17.626 11.8821 17.591 11.9858 17.576 12.07C17.5617 12.1542 17.5665 12.2188 17.61 12.2385L17.5285 12.2121C17.5062 12.4375 17.4546 12.6569 17.4125 12.8804L17.4287 12.8644C17.4221 12.8617 17.4117 12.899 17.3979 12.9621C17.3825 13.0246 17.3575 13.111 17.3306 13.209C17.454 12.9977 17.536 12.7442 17.6277 12.4773C17.6975 12.205 17.7727 11.9167 17.8121 11.616C17.8075 11.6069 17.8037 11.5925 17.8008 11.5704C17.8117 11.5527 17.8202 11.5325 17.8287 11.5123C17.8617 11.3433 17.8677 11.1702 17.889 10.9985C17.8894 10.9304 17.8902 10.8667 17.8952 10.8123C17.9044 10.7488 17.8206 10.6313 17.7856 10.6902L17.7854 10.6904ZM18.6698 8.39251L18.6685 8.38542C18.6685 8.38542 18.6679 8.3873 18.6673 8.38792L18.6698 8.39251ZM17.3408 6.46647C17.3381 6.4773 17.3421 6.49897 17.3531 6.53272C17.3515 6.51272 17.3477 6.49105 17.3408 6.46647ZM16.8054 5.35772C16.986 5.67167 17.0437 5.82959 17.1858 6.11438L17.2537 6.11751C17.2546 6.11584 17.2554 6.11397 17.2567 6.11251C17.1256 5.85751 16.9721 5.59417 16.8056 5.35772H16.8054ZM17.185 5.06813C17.221 5.1373 17.2573 5.2023 17.2867 5.26792C17.3062 5.28022 17.3271 5.2948 17.3483 5.31042C17.2962 5.21584 17.2342 5.12876 17.185 5.06813ZM16.269 5.04938C16.3075 5.12792 16.354 5.19917 16.404 5.26355C16.454 5.32792 16.5033 5.38834 16.5546 5.44001C16.5167 5.37876 16.4798 5.31667 16.4398 5.25584C16.3985 5.19584 16.3571 5.13542 16.3154 5.07459L16.2687 5.04938H16.269ZM16.149 4.40563L16.1258 4.46376C16.1981 4.53792 16.2604 4.6123 16.3244 4.68042C16.3873 4.74938 16.4494 4.81376 16.5052 4.88022C16.4454 4.70772 16.3783 4.67313 16.3206 4.63688C16.2604 4.60209 16.2092 4.56626 16.1487 4.40584L16.149 4.40563ZM16.1069 4.35022C16.1225 4.36772 16.1337 4.37938 16.1421 4.38709C16.141 4.38459 16.1404 4.38272 16.1394 4.38001C16.1262 4.36813 16.1156 4.35834 16.1069 4.35022ZM15.8669 4.07126C15.9558 4.17167 16.025 4.25397 16.0731 4.31147C16.0812 4.30376 16.0885 4.29542 16.0935 4.2848C16.0279 4.21834 15.9633 4.15292 15.9017 4.09042C15.891 4.08647 15.8781 4.07813 15.8669 4.07126ZM14.91 3.46105C14.826 3.37647 14.7394 3.2948 14.6535 3.21313C14.569 3.13022 14.4817 3.05084 14.3962 2.97022C14.3069 2.94251 14.6321 3.24834 14.5752 3.22751C14.6446 3.29022 14.7794 3.36834 14.91 3.46126V3.46105ZM15.32 3.47688C15.326 3.45647 15.3344 3.43876 15.344 3.42251C15.3165 3.3948 15.2904 3.36626 15.2625 3.33938C15.2696 3.37334 15.2962 3.42667 15.3183 3.47501L15.32 3.47667V3.47688ZM15.4296 3.58959C15.4331 3.58334 15.4375 3.57897 15.4412 3.57709C15.4106 3.55355 15.379 3.52917 15.3475 3.50501C15.3752 3.53376 15.4029 3.56209 15.4296 3.58959ZM15.6194 3.71584L15.674 3.76772L15.6721 3.76397L15.6242 3.71251C15.621 3.71188 15.6212 3.71501 15.6194 3.71584ZM15.6156 3.73751C15.6206 3.76001 15.6337 3.79167 15.6358 3.81105C15.6579 3.83522 15.6785 3.85751 15.6994 3.88042C15.679 3.83688 15.6527 3.78959 15.6154 3.73751H15.6156ZM15.2946 3.84792C15.3279 3.93417 15.0673 3.70105 15.2585 3.91897C15.3744 4.02938 15.4777 4.09272 15.48 4.04647L15.2946 3.84792ZM15.3571 3.0023C15.4881 3.15042 15.5696 3.24272 15.6829 3.37105C15.7244 3.38438 15.7696 3.40334 15.8173 3.42772C15.6683 3.28334 15.5167 3.13917 15.3571 3.0023ZM14.7275 2.8773C14.8185 2.94792 14.9254 3.06417 15.02 3.1598C15.1131 3.25751 15.1958 3.33313 15.244 3.32126L15.1481 3.22813C15.0579 3.14772 14.9669 3.07042 14.8723 2.99438C14.8242 2.95542 14.7767 2.91522 14.7275 2.8773ZM14.4487 2.66355C14.4542 2.67022 14.4602 2.67626 14.465 2.68313C14.5385 2.74667 14.6119 2.81022 14.6848 2.87313L14.719 2.87063C14.6287 2.80167 14.54 2.73105 14.4487 2.66376V2.66355ZM14.0362 2.63626C13.9323 2.59105 13.8406 2.54313 13.744 2.49188C13.8773 2.60417 14.0462 2.68959 14.2262 2.81209C14.1625 2.75334 14.099 2.69438 14.0362 2.63626ZM14.0519 2.46022L13.9475 2.40626C14.0746 2.49876 14.1494 2.54876 14.1385 2.53022C14.11 2.50709 14.081 2.48376 14.0519 2.46022ZM13.7144 2.22355C13.7454 2.25376 13.77 2.27626 13.7921 2.29626C13.8379 2.32855 13.8815 2.35938 13.92 2.38647L13.9827 2.4048C13.9652 2.39063 13.9473 2.37605 13.9298 2.36188C13.8525 2.31438 13.7787 2.26792 13.7144 2.22376V2.22355ZM13.3037 2.26084L13.2935 2.25522L13.2927 2.25605L13.3037 2.26084ZM13.4419 2.31084C13.4019 2.28459 13.3602 2.25688 13.3156 2.22751L13.301 2.24584L13.3285 2.27147C13.3675 2.28855 13.4056 2.30188 13.4419 2.31105V2.31084ZM13.4085 2.02688C13.4098 2.02876 13.4127 2.03167 13.4135 2.03334C13.4427 2.05334 13.4702 2.0723 13.4983 2.09167C13.4687 2.07042 13.439 2.04876 13.4085 2.02709V2.02688ZM13.1783 2.13605L13.2044 2.15938L13.2173 2.16188C13.204 2.15313 13.1921 2.14522 13.1783 2.13605ZM13.086 2.08417C13.1042 2.09959 13.124 2.1148 13.1446 2.1298C13.1377 2.12084 13.1202 2.10667 13.086 2.08417ZM13.0544 1.76438C13.0712 1.78126 13.0975 1.80209 13.1279 1.82417C13.1494 1.83022 13.164 1.83209 13.1719 1.83022C13.1329 1.80834 13.0933 1.78626 13.0544 1.76438ZM10.3773 0.586049C10.695 0.720424 11.0402 0.870424 11.4904 1.06772C11.551 0.988132 11.801 1.19834 11.9242 1.15022C11.726 1.04813 11.8306 1.09897 12.0769 1.22938C12.0533 1.20813 12.0277 1.18834 12.0017 1.16897C11.9406 1.13251 11.8808 1.09647 11.8206 1.06063C11.7912 1.06626 11.7708 1.07376 11.7623 1.07522L11.771 1.03188L11.7487 1.01917C11.5179 0.909591 11.2508 0.832716 11.0035 0.756257C10.7556 0.679174 10.5267 0.602091 10.3621 0.474382C10.1808 0.447716 10.5304 0.601882 10.3773 0.586049ZM9.97833 0.420632L10.0448 0.447507C10.0431 0.440841 10.0429 0.435216 10.0448 0.431882C10.0229 0.428341 10.0004 0.424382 9.97833 0.420632Z" fill="#D8E1FF"/>
</g>
<path d="M5.76104 3.75915C5.80396 3.75999 5.87916 3.71519 6.02771 3.58478C6.00229 3.59394 5.96354 3.61353 5.91771 3.64374C5.87271 3.67478 5.81937 3.71436 5.76104 3.75915Z" fill="#D8E1FF"/>
<path d="M4.01188 5.40084C4.01188 5.40084 4.01209 5.40063 4.01292 5.39938L3.97667 5.42834C3.98917 5.41959 3.99979 5.41022 4.01188 5.40084Z" fill="#D8E1FF"/>
<path d="M18.6219 12.0948L18.6048 12.1298C18.6115 12.1183 18.6158 12.1077 18.6215 12.0962V12.0948H18.6219Z" fill="#D8E1FF"/>
<path d="M1.87458 10.8981L1.87021 10.9202C1.87229 10.9502 1.87438 10.9815 1.87438 11.0152L1.87458 10.8981Z" fill="#D8E1FF"/>
<path d="M3.1 14.7419C3.1025 14.7456 3.10479 14.7488 3.10729 14.7525C3.10583 14.7477 3.10479 14.7433 3.10354 14.7383C3.10208 14.7398 3.10146 14.7406 3.1 14.7419Z" fill="#D8E1FF"/>
<path d="M5.64166 3.32397C5.5975 3.35438 5.54583 3.39272 5.48937 3.43605C5.53208 3.43626 5.6075 3.39418 5.75354 3.26168C5.74916 3.26313 5.74271 3.26668 5.73791 3.26876C5.78187 3.22918 5.83208 3.18418 5.89021 3.16022C5.81083 3.20188 5.64479 3.24001 5.64166 3.32418V3.32397Z" fill="#D8E1FF"/>
<path d="M5.84292 3.59146C5.83563 3.60417 5.82459 3.61959 5.81229 3.63584C5.82604 3.62667 5.83938 3.61667 5.85188 3.605L5.84292 3.59146Z" fill="#D8E1FF"/>
<path d="M5.82063 3.5575L5.84292 3.59146C5.85833 3.565 5.85854 3.54875 5.82063 3.5575Z" fill="#D8E1FF"/>
<path d="M11.6192 1.3652C11.6192 1.36333 11.6198 1.36208 11.6198 1.3602C11.6142 1.3577 11.609 1.35562 11.6033 1.35312C11.6087 1.35729 11.6135 1.36104 11.6192 1.3652Z" fill="#D8E1FF"/>
<path d="M11.1394 1.15439C11.2852 1.21314 11.4573 1.28897 11.6033 1.35314C11.4579 1.2396 11.3454 1.2171 11.1394 1.15439Z" fill="#D8E1FF"/>
<path d="M16.1083 15.4236L16.1202 15.4346C16.1269 15.4169 16.1373 15.3946 16.1492 15.3706C16.1348 15.3875 16.121 15.4046 16.1083 15.4236Z" fill="#D8E1FF"/>
<path d="M16.1202 15.4346C16.1065 15.4717 16.1083 15.4898 16.15 15.4623L16.1202 15.4346Z" fill="#D8E1FF"/>
<path d="M16.4312 14.9867L16.2717 15.2065C16.2281 15.1694 16.2065 15.1508 16.3056 15.0183C16.2642 15.0379 16.2077 15.1787 16.1685 15.255L16.2083 15.2075C16.2015 15.2475 16.1723 15.3135 16.1492 15.3706C16.291 15.1777 16.5144 15.1042 16.4312 14.9867Z" fill="#D8E1FF"/>
<path d="M16.5875 14.6354C16.5342 14.7244 16.4096 14.9423 16.511 14.9169L16.5875 14.6354Z" fill="#D8E1FF"/>
</g>
<defs>
<clipPath id="clip0_4965_2254">
<rect width="20" height="20" fill="white"/>
</clipPath>
</defs>
</svg>
