<svg width="24" height="24" viewBox="0 0 24 24" fill="none" xmlns="http://www.w3.org/2000/svg">
<g clip-path="url(#clip0_4965_2482)">
<path d="M11.721 12.0245C11.7075 12.0365 11.6975 12.0543 11.6957 12.0695C11.7097 12.0548 11.7165 12.0398 11.721 12.0245Z" fill="#69DDFF"/>
<path d="M11.601 13.0803L11.5915 13.191L11.6407 13.048L11.601 13.0803Z" fill="#69DDFF"/>
<path d="M11.132 15.864C11.1 15.8683 11.0772 15.886 11.1047 15.935C11.1247 15.925 11.131 15.898 11.132 15.864Z" fill="#69DDFF"/>
<path d="M11.5033 14.3372C11.5045 14.322 11.5058 14.3072 11.5073 14.292C11.503 14.3062 11.503 14.3222 11.5033 14.3372Z" fill="#69DDFF"/>
<path d="M11.2145 15.3123V15.3128L11.2273 15.303C11.2218 15.306 11.219 15.3093 11.2145 15.3123Z" fill="#69DDFF"/>
<path d="M11.7763 11.2352L11.7773 11.2347L11.775 11.1745C11.772 11.19 11.772 11.2095 11.7763 11.2352Z" fill="#69DDFF"/>
<path d="M11.4577 15.0628C11.442 15.057 11.4267 15.0518 11.4167 15.056C11.455 15.0095 11.4535 14.9438 11.4475 14.88C11.3987 14.9705 11.3542 15.0583 11.334 15.1475C11.392 15.1285 11.4452 15.1073 11.4577 15.0628Z" fill="#69DDFF"/>
<path d="M11.294 15.015L11.3143 15.0188C11.3088 15.0113 11.3043 15.002 11.2993 14.9918C11.2963 14.9993 11.294 15.0068 11.294 15.0148V15.015Z" fill="#69DDFF"/>
<path d="M11.3142 15.019C11.326 15.0343 11.341 15.0413 11.3657 15.0285L11.3142 15.019Z" fill="#69DDFF"/>
<path d="M11.3622 14.8322L11.3282 14.9235C11.2562 14.9102 11.2202 14.9035 11.244 14.848C11.211 14.8567 11.2397 14.9147 11.246 14.946L11.2592 14.926C11.2772 14.942 11.288 14.9687 11.2992 14.992C11.332 14.911 11.53 14.8772 11.3622 14.8322Z" fill="#69DDFF"/>
<path d="M11.3342 14.692C11.324 14.7275 11.3065 14.8145 11.4082 14.8032L11.3342 14.692Z" fill="#69DDFF"/>
<path d="M11.6397 14.3942L11.6472 14.3882C11.647 14.3787 11.6472 14.3687 11.65 14.3585L11.6397 14.3942Z" fill="#69DDFF"/>
<path d="M11.6585 17.4982L11.6363 17.5182L11.6485 17.4982L11.0685 17.152C11.1578 17.0167 11.1543 16.8335 11.146 16.6435C11.1423 16.4537 11.133 16.2572 11.2035 16.0965C11.277 16.013 11.2778 15.9895 11.316 15.9127C11.2993 15.91 11.2775 15.9085 11.259 15.9112C11.2613 15.8215 11.2313 15.6742 11.2783 15.5877C11.2568 15.5607 11.1768 15.5367 11.1968 15.5867C11.1245 15.4452 11.3403 15.361 11.276 15.2797C11.2248 15.3425 11.199 15.2085 11.1585 15.285C11.1505 15.1987 11.2478 15.1757 11.334 15.1475C11.318 15.217 11.3165 15.2872 11.3403 15.3605C11.2635 15.4152 11.3205 15.4667 11.3948 15.503C11.4025 15.4915 11.4068 15.4892 11.4088 15.5092L11.4233 15.5157C11.4523 15.4762 11.5045 15.3807 11.456 15.3287L11.4425 15.3172C11.4258 15.3057 11.4018 15.2975 11.3685 15.2945L11.3958 15.2727C11.3725 15.2492 11.3503 15.224 11.3288 15.1967C11.364 15.1797 11.3693 15.2465 11.4108 15.2607L11.4795 15.2062C11.4763 15.193 11.4968 15.1865 11.525 15.1825C11.55 15.1402 11.5655 15.0937 11.5753 15.0445C11.5688 15.04 11.5613 15.0337 11.5525 15.0237C11.5455 14.954 11.5703 14.8895 11.5958 14.8255C11.6005 14.7417 11.6078 14.658 11.6343 14.5812C11.6283 14.5622 11.6188 14.5427 11.6063 14.5227C11.5735 14.6517 11.508 14.7682 11.4478 14.88C11.4388 14.7812 11.4218 14.6895 11.5318 14.687L11.5303 14.6817L11.4748 14.6437C11.4668 14.6405 11.46 14.6365 11.4563 14.6312L11.4553 14.6307H11.4555C11.4485 14.6195 11.453 14.6025 11.4833 14.5692C11.4905 14.5777 11.4918 14.5927 11.4923 14.6075C11.5373 14.5842 11.5698 14.5802 11.5918 14.5105C11.561 14.4492 11.5183 14.507 11.4888 14.4832C11.569 14.4647 11.5335 14.3042 11.647 14.242C11.7058 14.2447 11.6703 14.2707 11.629 14.306C11.6255 14.3302 11.6175 14.349 11.5975 14.3552C11.5938 14.3495 11.5933 14.3457 11.5915 14.3412C11.5633 14.3722 11.5485 14.406 11.59 14.436C11.5993 14.4377 11.6055 14.4367 11.6105 14.435C11.6195 14.4202 11.6328 14.4055 11.6475 14.3907L11.6473 14.3885L11.6725 14.3675C11.6893 14.3535 11.707 14.3387 11.7255 14.3235L11.7558 14.2982V14.2922C11.7133 14.2447 11.7023 14.2787 11.6573 14.3075C11.7148 14.252 11.739 14.174 11.7588 14.088C11.73 14.0775 11.6963 14.0755 11.7083 14.1015C11.6638 14.0287 11.751 13.9805 11.7928 13.9375C11.7973 13.9202 11.8033 13.903 11.8085 13.886C11.807 13.8832 11.8055 13.8805 11.8028 13.878C11.7483 13.9222 11.729 13.8225 11.6848 13.8772C11.6815 13.8205 11.7583 13.8037 11.837 13.7882C11.833 13.782 11.8285 13.7755 11.8225 13.7687L11.8418 13.7875L11.8498 13.7857C11.8583 13.7692 11.8685 13.7535 11.879 13.7372C11.881 13.701 11.8878 13.6642 11.8985 13.627C11.897 13.623 11.8975 13.619 11.8973 13.6147C11.8708 13.6025 11.8248 13.633 11.7915 13.5877C11.9193 13.5345 11.8533 13.4035 11.8688 13.3315C11.881 13.311 11.7808 13.2567 11.7323 13.2712L11.7633 13.4632C11.7073 13.4462 11.606 13.459 11.6038 13.5257C11.7245 13.518 11.6588 13.5882 11.6108 13.662C11.613 13.7117 11.613 13.7645 11.6463 13.8095C11.648 13.8097 11.6493 13.8102 11.651 13.8107L11.6468 13.81L11.6505 13.8162C11.6268 13.8435 11.5688 13.8295 11.5515 13.8722C11.603 13.8707 11.6008 13.9075 11.6438 13.9272C11.6285 13.982 11.597 13.9845 11.5583 13.9777L11.563 14.035L11.5733 14.032C11.551 14.0522 11.6055 14.2465 11.5285 14.359C11.5043 14.3167 11.598 14.109 11.4483 14.217C11.4228 14.1512 11.4673 14.0657 11.5028 13.9665C11.4855 13.964 11.468 13.9625 11.4505 13.9652C11.498 13.941 11.5193 13.9065 11.5303 13.8675C11.5363 13.838 11.5403 13.8077 11.5393 13.7765L11.4578 13.7995C11.3963 13.6022 11.59 13.3812 11.6043 13.1747L11.6925 13.2492C11.7453 13.1832 11.846 13.1027 11.774 13.0237C11.7613 13.1112 11.7133 13.0587 11.6733 13.037C11.6663 13.0105 11.6663 12.9817 11.669 12.9517L11.5805 12.8907C11.6143 12.8427 11.535 12.818 11.6053 12.7745C11.597 12.8242 11.6365 12.861 11.679 12.8867C11.687 12.8537 11.6955 12.8192 11.704 12.784C11.6025 12.7317 11.613 12.6025 11.6308 12.5162C11.669 12.4905 11.711 12.5205 11.7438 12.539C11.7053 12.5435 11.6898 12.6047 11.67 12.6257C11.686 12.6407 11.7068 12.654 11.7263 12.6675C11.7295 12.6397 11.7318 12.612 11.73 12.5837C11.73 12.5837 11.75 12.5945 11.7663 12.5895L11.7583 12.5462C11.7538 12.544 11.749 12.5415 11.7438 12.539C11.748 12.5385 11.7523 12.538 11.757 12.539L11.7338 12.4132C11.7358 12.4082 11.7385 12.4037 11.7408 12.399C11.7025 12.4137 11.6595 12.4427 11.5953 12.3697C11.7775 12.393 11.585 12.1965 11.689 12.195L11.7228 12.289C11.8138 12.2035 11.6815 12.1267 11.7883 12.036C11.7658 12.0027 11.7398 12.0075 11.7208 12.024C11.74 11.958 11.6928 11.893 11.7933 11.8575C11.7958 11.9415 11.824 12.0375 11.8345 12.1185C11.8375 12.1055 11.8365 12.0885 11.8255 12.063C11.8473 12.0887 11.8673 12.0995 11.8868 12.1022C11.8923 12.0957 11.899 12.0892 11.9085 12.0817L11.9008 12.103C11.9475 12.101 11.9938 12.0615 12.055 12.076C12.0448 12.007 11.999 12.002 11.952 12.0092L11.9605 12.0807L11.9238 12.0145C11.8923 12.0215 11.8633 12.0295 11.8485 12.0217C11.863 11.9962 11.8775 11.976 11.8918 11.9572L11.862 11.904L11.9188 11.809C11.926 11.784 11.9345 11.7592 11.944 11.735C11.9415 11.7292 11.938 11.7247 11.9335 11.7225L11.9183 11.7452C11.909 11.7667 11.8963 11.7842 11.8815 11.7992L11.874 11.8102L11.878 11.8027C11.8738 11.8067 11.8705 11.8117 11.8658 11.815L11.746 11.7692C11.7353 11.6855 11.8808 11.548 11.7193 11.5337C11.7923 11.5437 11.8493 11.4542 11.9273 11.48L11.979 11.375C11.96 11.478 11.9588 11.594 11.9378 11.6845C11.983 11.5745 12.0008 11.46 11.9853 11.329L11.9538 11.3392L11.969 11.248C11.9298 11.296 11.7933 11.3147 11.7933 11.421C11.7855 11.3602 11.7803 11.298 11.7768 11.2342C11.9205 11.1515 11.8385 11.318 11.968 11.1865C11.98 11.2055 11.9815 11.2202 11.9773 11.2332L12.075 11.2825C12.0555 11.2205 12.1615 11.1685 12.079 11.127L12.068 11.1475L12.0438 11.07L12.1405 11.1582C12.2018 11.07 11.9903 10.914 12.027 10.7637C12.1548 10.75 12.082 10.9527 12.1708 11.0402C12.1753 10.9025 12.189 10.761 12.2033 10.6182C12.1938 10.593 12.1765 10.57 12.1463 10.5497L12.0738 10.6437C12.0685 10.5332 12.2468 10.479 12.1893 10.4307L12.2218 10.4515L12.2233 10.4382C12.201 10.3947 12.1878 10.3437 12.2053 10.2792C12.1008 10.2785 12.078 10.3722 12.118 10.4455L12.004 10.4135C11.9738 10.5962 11.9688 10.8052 12.017 10.9617L11.9408 10.8835C11.7665 10.9935 12.078 10.9927 11.8848 11.0925C11.916 11.1867 11.9523 11.0347 11.994 11.108C11.9533 11.1672 11.794 11.0685 11.7745 11.1737C11.7663 10.9712 11.7888 10.758 11.81 10.5422C11.8223 10.4347 11.8348 10.3262 11.847 10.219C11.8615 10.1117 11.8758 10.0055 11.8898 9.90149C11.8695 9.89074 11.858 9.91174 11.8465 9.93224C11.7825 9.85099 11.8953 9.53399 12.0063 9.23099C12.1148 8.92774 12.1998 8.63549 12.0533 8.59549C12.1023 8.58174 12.1368 8.65399 12.151 8.56774C12.131 8.55699 12.1073 8.53224 12.0588 8.54524C12.1655 8.45949 12.187 8.34649 12.1923 8.25974L12.195 8.20849C12.1958 8.19999 12.196 8.19949 12.1975 8.19724L12.1983 8.19649L12.1985 8.19599L12.2148 8.19324C12.2423 8.18799 12.2655 8.18474 12.2863 8.18249C12.33 8.17674 12.3735 8.16874 12.417 8.15849L12.4818 8.14174L12.5343 8.13024C12.5685 8.12174 12.6023 8.11049 12.635 8.09649C12.6678 8.08299 12.686 8.07999 12.7108 8.06599C12.7225 8.05999 12.7335 8.05299 12.7445 8.04524C12.7548 8.03799 12.7593 8.03799 12.7665 8.03249C12.773 8.02824 12.779 8.02324 12.7848 8.01699C12.7905 8.01074 12.796 8.00249 12.7965 8.00374C12.7998 8.00199 12.8045 7.99324 12.8043 7.99099C12.802 7.99849 12.8038 7.99549 12.803 8.00749C12.8023 8.02324 12.806 8.02774 12.8105 8.04824C12.8095 8.04499 12.8158 8.07499 12.837 8.11299C12.857 8.16074 12.8903 8.19974 12.894 8.20974C12.9065 8.22949 12.9205 8.24999 12.936 8.27024C12.9518 8.29099 12.9683 8.30849 12.9898 8.33749C13.0103 8.36399 13.0325 8.39049 13.0565 8.41649L13.0935 8.45524L13.1365 8.50324C13.1388 8.50549 13.124 8.50399 13.116 8.51799C13.096 8.54024 13.0738 8.57999 13.022 8.58249L13.0845 8.60474C13.0353 8.64949 12.9768 8.71249 12.9153 8.78374C12.9275 8.80274 12.9525 8.77549 12.9735 8.76374C12.9563 8.82524 12.8943 8.79549 12.8493 8.76924L12.8698 8.93674C12.7978 8.96024 12.7373 8.99599 12.6843 9.03949C12.688 9.04199 12.691 9.04449 12.6965 9.04624L12.6088 9.11149C12.5813 9.14149 12.5558 9.17349 12.5313 9.20724L12.558 9.22824C12.5643 9.22799 12.5698 9.22599 12.5745 9.22249L12.5718 9.17449C12.5788 9.17674 12.584 9.17849 12.5898 9.18074C12.6405 9.17199 12.6543 9.21024 12.657 9.24574C12.62 9.28774 12.58 9.32624 12.5383 9.36249L12.5388 9.36424L12.5373 9.36349C12.5083 9.38849 12.478 9.41249 12.4465 9.43474C12.4423 9.48224 12.468 9.47499 12.4338 9.58724L12.338 9.58024C12.3158 9.57324 12.5033 9.51974 12.4118 9.45849L12.4108 9.45899C12.3865 9.47449 12.3623 9.48974 12.3368 9.50324C12.2945 9.56524 12.249 9.62499 12.196 9.67874L12.2583 9.69074C12.1828 9.68499 12.2803 9.83549 12.2025 9.90424L12.2108 9.79599C12.1183 9.77899 12.075 9.82974 12.0355 9.88974C12.0445 9.94374 12.0365 9.98799 12.0063 10.0365C12.0608 9.99599 12.1083 9.96024 12.1573 10.0125C12.124 10.067 12.0533 10.0897 11.984 10.1075L11.8898 10.199L11.9403 10.2012L11.8685 10.2355L11.8748 10.2152H11.8735L11.795 10.2907C11.7898 10.3012 11.7825 10.311 11.7703 10.3167L11.883 10.35L11.8215 10.431L11.8053 10.4042C11.6635 10.506 11.5898 10.6277 11.555 10.7825L11.5715 10.6882C11.5488 10.6817 11.514 10.7155 11.5018 10.756C11.4545 10.7095 11.5385 10.6347 11.485 10.6082L11.4803 10.596L11.4425 10.6325C11.4385 10.663 11.4093 10.6607 11.3833 10.6515L11.3508 10.6602L11.3533 10.688L11.3128 10.6707L11.2848 10.6782L11.3035 10.6667C11.1895 10.614 11.0898 10.543 11.01 10.4477L10.9908 10.453L10.9913 10.4575L10.985 10.4547L10.949 10.4647L10.9733 10.4495C10.7025 10.334 10.5095 10.1305 10.4345 9.74899C10.488 9.73699 10.4265 9.90349 10.5443 9.86824C10.809 9.70074 10.796 9.17099 11.0613 8.92049C11.163 8.87274 11.1735 8.85074 11.243 8.79574C11.2293 8.78574 11.2108 8.77474 11.193 8.76899C11.199 8.75774 11.205 8.74524 11.211 8.73174C11.19 8.73049 11.17 8.73124 11.161 8.73999C11.1528 8.72149 11.145 8.70099 11.1305 8.68349L11.118 8.68899C11.1145 8.66799 11.0933 8.62149 11.122 8.63149C11.0985 8.65274 11.129 8.67324 11.19 8.71424L11.2243 8.67724C11.2275 8.67974 11.2298 8.68149 11.2325 8.68374L11.2395 8.66799C11.1825 8.63199 11.199 8.59774 11.2085 8.58349L11.2473 8.65049C11.2778 8.58174 11.3153 8.51124 11.3715 8.47824C11.367 8.44349 11.3103 8.38274 11.3 8.43824C11.303 8.40474 11.3155 8.37974 11.3333 8.35999C11.311 8.28424 11.4385 8.26099 11.4478 8.15774L11.3763 8.13199C11.3398 7.99099 11.5228 7.95799 11.5595 7.85299L11.6268 7.93649C11.6793 7.92549 11.773 7.93099 11.7213 7.85149C11.7 7.89474 11.6655 7.84174 11.6333 7.81074C11.6223 7.72499 11.7328 7.66999 11.7738 7.54899C11.7738 7.54899 11.7875 7.56674 11.8025 7.57174C11.8113 7.52574 11.8225 7.47749 11.8398 7.42499C11.8688 7.40299 11.9005 7.39574 11.936 7.39499C11.9708 7.39449 12.0053 7.40324 12.0505 7.40599C12.0578 7.38899 12.0748 7.36774 12.086 7.34549C12.099 7.32199 12.102 7.30074 12.0668 7.29199C12.0445 7.30374 12.027 7.31274 12.0228 7.32499C12.02 7.25049 12.0515 7.23549 12.0775 7.23049C12.1053 7.22549 12.143 7.21624 12.2165 7.12749C12.169 7.21449 12.2078 7.22999 12.2475 7.24224C12.2665 7.24899 12.2955 7.25049 12.3218 7.25649C12.347 7.26324 12.3673 7.27524 12.375 7.29799C12.4033 7.27624 12.421 7.25974 12.4393 7.24299C12.462 7.22474 12.4765 7.20999 12.484 7.19749C12.4988 7.17224 12.485 7.15474 12.458 7.14224C12.4328 7.12924 12.3888 7.12449 12.364 7.11599C12.3403 7.10674 12.3223 7.09799 12.3263 7.08374L12.3608 7.07199L12.4055 7.05824C12.435 7.04999 12.4633 7.04324 12.4903 7.03799C12.5203 7.03224 12.5373 7.02999 12.574 7.02499C12.6098 7.02049 12.6445 7.01824 12.6778 7.01749C12.7113 7.01674 12.7433 7.01774 12.7738 7.01999L12.8185 7.02424L12.8738 7.03224C12.946 7.04474 13.014 7.06474 13.076 7.08949C13.1513 7.10924 13.2188 7.14149 13.2848 7.18074C13.2413 7.15974 13.2083 7.14749 13.1693 7.13424C13.2883 7.19774 13.4185 7.31149 13.4698 7.38999C13.5025 7.43299 13.5418 7.49074 13.5668 7.53824C13.585 7.57574 13.604 7.61749 13.6233 7.66449C13.6185 7.63724 13.6125 7.60849 13.6045 7.57824C13.5943 7.54549 13.5935 7.52474 13.5625 7.47049C13.5365 7.42349 13.5043 7.37574 13.4663 7.33074C13.4375 7.29274 13.3618 7.22649 13.2848 7.18074C13.3393 7.20699 13.3983 7.24299 13.4445 7.27749C13.4325 7.25924 13.416 7.23874 13.413 7.22674C13.4268 7.23874 13.4398 7.25074 13.453 7.26224L13.48 7.29049C13.498 7.31049 13.5155 7.32974 13.5323 7.34849C13.5858 7.39499 13.637 7.45149 13.6638 7.47624C13.6443 7.43924 13.6098 7.38749 13.5778 7.34624C13.598 7.36749 13.62 7.39124 13.6418 7.41749C13.5998 7.34599 13.5485 7.27674 13.4915 7.21499C13.5605 7.28824 13.6233 7.36924 13.6715 7.45449C13.717 7.51224 13.7608 7.57749 13.7915 7.64024C13.8128 7.68324 13.823 7.71774 13.8165 7.73824C13.8105 7.71324 13.804 7.69199 13.7973 7.67424C13.7935 7.66549 13.7903 7.65749 13.787 7.64974C13.7833 7.64149 13.777 7.62949 13.772 7.62099C13.7515 7.58474 13.7325 7.56524 13.7148 7.55524C13.7233 7.57824 13.7318 7.60099 13.7403 7.62349L13.7515 7.65774L13.7575 7.68149C13.7645 7.71274 13.7713 7.74349 13.778 7.77349L13.7873 7.81849L13.7923 7.85199L13.8035 7.91924C13.8168 8.00099 13.8315 8.06649 13.855 8.12874L13.8838 8.11374C13.886 8.15024 13.886 8.17824 13.8865 8.20949L13.7758 8.18174C13.8063 8.23024 13.7098 8.27799 13.7973 8.29999L13.805 8.28374L13.8403 8.33849L13.7318 8.28299C13.6865 8.34974 13.9095 8.44424 13.8858 8.54499C13.7378 8.55899 13.841 8.36724 13.6488 8.34774C13.618 8.38174 13.585 8.43499 13.6348 8.45674C13.6865 8.45524 13.6883 8.43149 13.6898 8.40799C13.733 8.44849 13.7245 8.49599 13.7155 8.53899C13.716 8.60724 13.7035 8.69449 13.8048 8.61649C13.8103 8.62724 13.813 8.63849 13.815 8.64999L13.8485 8.62099C13.8528 8.64349 13.837 8.66124 13.816 8.67649C13.815 8.72924 13.7923 8.78224 13.7753 8.83899L13.8125 8.85599C13.7895 8.88324 13.7743 8.89474 13.7618 8.90124C13.7575 8.92874 13.756 8.95699 13.761 8.98649L13.839 8.96849C13.9215 9.12749 13.7545 9.30349 13.7555 9.46824L13.6618 9.40799C13.615 9.46024 13.5215 9.52324 13.5998 9.58749C13.6048 9.51749 13.657 9.56024 13.6985 9.57799C13.7403 9.67824 13.6573 9.80774 13.6788 9.94024C13.6788 9.94024 13.6578 9.93124 13.6423 9.93499L13.685 10.0762C13.6595 10.1375 13.5975 10.152 13.525 10.183C13.5355 10.208 13.5255 10.2657 13.5878 10.2507C13.5953 10.239 13.6025 10.2272 13.5978 10.2182C13.6988 10.2992 13.5588 10.2617 13.6143 10.3545C13.5308 10.278 13.4793 10.3592 13.3855 10.3402C13.4123 10.444 13.552 10.3692 13.5938 10.387C13.522 10.5005 13.4388 10.5065 13.4043 10.6252C13.4615 10.639 13.455 10.5442 13.5225 10.5417C13.502 10.5745 13.5028 10.6155 13.5235 10.6242L13.5798 10.5555C13.493 10.673 13.4583 10.7915 13.4863 10.9367L13.5173 10.929L13.5028 11.0152L13.3983 10.9715C13.4198 11.0212 13.3163 11.0602 13.3998 11.0952L13.41 11.079L13.4368 11.1417L13.3373 11.069C13.2808 11.1377 13.491 11.2667 13.4568 11.3855C13.3258 11.3932 13.4043 11.2245 13.3025 11.156C13.3065 11.273 13.3033 11.3927 13.294 11.5142C13.3045 11.5277 13.3193 11.5402 13.3405 11.552L13.4118 11.4795C13.4183 11.5675 13.2408 11.6052 13.2988 11.6452L13.2833 11.637C13.2753 11.7177 13.2663 11.7985 13.256 11.8792C13.341 11.8792 13.257 11.7525 13.277 11.7607L13.3508 11.812C13.2955 11.9022 13.2823 11.8825 13.2513 11.9147L13.239 12.0085L13.2675 12.0122C13.2518 12.0182 13.2418 12.0262 13.2355 12.0355L13.2285 12.087C13.236 12.1312 13.2618 12.1745 13.2175 12.1692C13.2098 12.23 13.202 12.2905 13.1943 12.3497C13.2145 12.3605 13.2263 12.3395 13.2378 12.3187C13.3048 12.4005 13.1828 12.7172 13.0743 13.0212C13.0325 13.139 12.993 13.2545 12.9688 13.3547C13.0048 13.3795 13.086 13.3672 13.0258 13.426C12.9988 13.4072 13.016 13.343 12.966 13.3775L12.964 13.3755C12.9338 13.5095 12.934 13.6122 12.9993 13.6482C12.9985 13.6212 13.003 13.595 13.018 13.5732C13.0505 13.603 12.9913 13.7485 13.1215 13.6735C13.1773 13.7472 13.0645 13.8552 13.0975 13.982L13.1743 13.9665C13.2645 14.1057 13.1078 14.2595 13.1163 14.4035L13.02 14.3505C12.976 14.396 12.8863 14.451 12.967 14.507C12.9688 14.446 13.0225 14.4835 13.0648 14.499C13.1115 14.5867 13.035 14.6997 13.0628 14.8157C13.0628 14.8157 13.0415 14.8077 13.0263 14.811L13.0753 14.9347C13.0528 14.988 12.9913 15.0007 12.9208 15.0275C12.9325 15.0495 12.925 15.0997 12.9865 15.087C12.9933 15.0767 13 15.0665 12.995 15.0585C13.0993 15.1295 12.958 15.0965 13.0178 15.1777C12.931 15.1105 12.8835 15.1812 12.7893 15.1642C12.8208 15.2552 12.9565 15.1905 12.9988 15.206C12.9325 15.305 12.85 15.3097 12.8205 15.4135C12.8783 15.4257 12.8678 15.3427 12.9348 15.341C12.916 15.3692 12.9183 15.4052 12.9395 15.413L12.9925 15.3532C12.911 15.4555 12.8815 15.559 12.9155 15.6857L12.946 15.6795L12.9353 15.7547L12.8293 15.7157C12.853 15.7595 12.7515 15.793 12.8363 15.8242L12.8458 15.81L12.875 15.8647L12.773 15.8007C12.7198 15.8605 12.9343 15.9742 12.905 16.0775C12.7555 16.0847 12.872 15.89 12.6835 15.856C12.6495 15.8877 12.6118 15.9442 12.66 15.9707C12.7118 15.972 12.7153 15.9467 12.7188 15.9217C12.8083 16.0247 12.6355 16.1465 12.7955 16.2227L12.8635 16.1595C12.8735 16.2365 12.6983 16.2687 12.7578 16.3037L12.5943 16.2282C12.6778 16.3202 12.6485 16.4237 12.7113 16.5085C12.8203 16.5217 12.719 16.397 12.7403 16.4047L12.8158 16.4497C12.741 16.563 12.7453 16.477 12.667 16.6155L12.74 16.6245C12.6235 16.661 12.8253 16.8135 12.6345 16.744L12.6835 16.7095L12.6173 16.705C12.6228 16.714 12.627 16.7245 12.6303 16.7355L12.6138 16.7777L12.6385 16.8775C12.596 16.8622 12.5863 16.8932 12.5598 16.907L12.5418 16.9462L12.573 16.9765C12.5558 16.9785 12.5408 16.9775 12.5275 16.9745C12.5118 17.006 12.495 17.0372 12.4778 17.0677C12.4835 17.0812 12.4868 17.0972 12.4888 17.1147C12.475 17.1145 12.4628 17.1137 12.452 17.1127C12.375 17.241 12.283 17.3602 12.1715 17.4677C12.1688 17.476 12.162 17.482 12.1525 17.4857L12.1073 17.5255L12.1153 17.5385L12.091 17.5397L12.0628 17.5642L12.078 17.5402C11.9488 17.5455 11.8245 17.5267 11.707 17.476L11.719 17.4957C11.6985 17.4972 11.6783 17.498 11.6578 17.4985L11.6585 17.4982ZM13.703 7.56049L13.699 7.54899C13.6958 7.54799 13.6923 7.54749 13.6888 7.54724C13.6935 7.55149 13.6993 7.55949 13.703 7.56049ZM10.9873 10.4195L10.9895 10.44L10.9983 10.4342L10.9873 10.4195ZM11.3515 10.637C11.3505 10.6365 11.3495 10.6357 11.3488 10.6352L11.349 10.6385L11.3515 10.6367V10.637ZM13.3998 8.42324L13.4008 8.43824L13.4078 8.42549L13.3998 8.42324ZM12.9958 7.58599C12.994 7.62674 13.0263 7.67099 13.0563 7.71524C13.1168 7.74774 13.1395 7.76124 13.1423 7.74574C13.1433 7.73049 13.1303 7.69449 13.0893 7.64499C13.0615 7.62424 13.0303 7.60424 12.9958 7.58599ZM12.9695 8.31899C12.9783 8.32699 13.0073 8.35774 12.9468 8.28474C12.9275 8.26049 12.909 8.23449 12.8923 8.20724C12.8755 8.17949 12.863 8.16549 12.8515 8.14299C12.8615 8.16299 12.8788 8.18524 12.913 8.23899C12.9258 8.25774 12.9393 8.27549 12.9535 8.29274C12.9603 8.30124 12.9683 8.30899 12.9753 8.31924L12.981 8.32799C12.9768 8.32499 12.9733 8.32199 12.9693 8.31874L12.9695 8.31899ZM12.709 8.58149L12.7113 8.58349C12.7198 8.57574 12.7238 8.56649 12.7208 8.55474L12.709 8.58149ZM12.2843 8.89899C12.2878 8.89024 12.291 8.88199 12.2943 8.87399L12.2875 8.88024L12.2843 8.89899ZM11.9348 9.43949C11.9148 9.44724 11.8948 9.45474 11.874 9.46149L11.8663 9.48074L11.8365 9.55874C11.87 9.51824 11.903 9.47799 11.9348 9.43949ZM12.0013 9.55499C12.01 9.54624 12.019 9.53724 12.0283 9.52799C12.029 9.52424 12.029 9.52049 12.029 9.51674C12.0245 9.52549 12.015 9.53849 12.0015 9.55499H12.0013ZM11.8148 9.82074C11.826 9.80274 11.8363 9.78574 11.8438 9.77124L11.8268 9.74399L11.7818 9.79074C11.7895 9.80524 11.8008 9.81549 11.8148 9.82074ZM11.8548 9.74949C11.8498 9.74674 11.8453 9.74224 11.8423 9.73574L11.848 9.76374C11.8505 9.75849 11.8525 9.75399 11.8548 9.74924V9.74949ZM11.447 8.29499C11.5048 8.27349 11.5573 8.25649 11.556 8.20974C11.4888 8.23049 11.5153 8.15674 11.4883 8.14549C11.4725 8.16174 11.4775 8.18649 11.5405 8.23074L11.4493 8.16874L11.447 8.29474V8.29499ZM11.538 8.48524C11.5543 8.47899 11.576 8.46824 11.5975 8.45499C11.6228 8.41874 11.6428 8.37349 11.6775 8.33799C11.673 8.31699 11.6583 8.29424 11.6263 8.27024C11.6765 8.26474 11.7273 8.26149 11.7785 8.25874C11.769 8.21874 11.7103 8.22499 11.6788 8.17224C11.7308 8.18649 11.7488 8.17149 11.756 8.14849C11.7363 8.14524 11.7163 8.14099 11.6955 8.13549C11.716 8.11974 11.7393 8.10624 11.7625 8.09249C11.7633 8.08249 11.7648 8.07324 11.769 8.06724C11.7815 8.06199 11.7018 7.98399 11.6588 7.96849L11.6653 8.08874C11.619 8.05224 11.5313 8.01124 11.5238 8.04774C11.5873 8.08049 11.5883 8.09624 11.5688 8.10774C11.6088 8.11149 11.6528 8.12399 11.6955 8.13549C11.6353 8.18149 11.587 8.23724 11.5593 8.31074C11.4573 8.31774 11.477 8.39249 11.5208 8.46024C11.5345 8.45399 11.5393 8.45424 11.5293 8.47249L11.538 8.48524ZM11.3495 9.41674C11.3893 9.34924 11.434 9.28724 11.4873 9.23549C11.4698 9.19749 11.4543 9.16099 11.4488 9.12824L11.5368 9.16899C11.5155 9.17799 11.512 9.19149 11.5158 9.20874L11.5188 9.20599C11.563 9.18799 11.59 9.17399 11.6125 9.15949C11.5463 9.12824 11.565 9.17649 11.5493 9.08574C11.5758 9.09024 11.6093 9.11949 11.639 9.14099C11.6568 9.12699 11.6755 9.11224 11.7015 9.09174C11.6878 9.08174 11.6695 9.07074 11.6515 9.06474C11.6588 9.05124 11.6658 9.03524 11.6733 9.01874C11.6515 8.98974 11.6335 8.96049 11.6448 8.93399L11.5803 8.95024C11.5893 8.92399 11.593 8.86674 11.6628 8.88149C11.6475 8.89549 11.6503 8.94449 11.6833 8.99549C11.702 8.95199 11.7223 8.90399 11.7473 8.86224C11.7448 8.86149 11.7428 8.86099 11.74 8.86024L11.7538 8.85174C11.7638 8.83624 11.7743 8.82124 11.786 8.80874C11.6775 8.70824 11.744 8.90799 11.638 8.81424C11.5065 8.67049 11.8375 8.82574 11.668 8.66049C11.563 8.80874 11.4783 8.99224 11.415 9.19099C11.3908 9.26499 11.3695 9.34074 11.3495 9.41674ZM11.4635 10.5525L11.4363 10.481C11.4213 10.5172 11.39 10.54 11.3228 10.534C11.3363 10.586 11.403 10.5497 11.4313 10.5805C11.4423 10.5717 11.4528 10.5617 11.4635 10.5522V10.5525ZM12.9353 8.35774C12.949 8.36449 12.981 8.36249 12.9998 8.36449C12.9903 8.35774 12.9745 8.34399 12.9465 8.31024L12.9418 8.30899C12.937 8.31649 12.9265 8.32524 12.9095 8.32624C12.9283 8.35949 12.97 8.39024 12.923 8.42699L12.8175 8.37949C12.8603 8.36174 12.8805 8.34324 12.8935 8.32649C12.888 8.32624 12.883 8.32624 12.8763 8.32474C12.8173 8.35949 12.7765 8.43249 12.7398 8.51349C12.746 8.52524 12.7515 8.54124 12.7585 8.55249C12.8023 8.50649 12.874 8.46974 12.8935 8.44599L12.9428 8.51824C13.039 8.53899 12.9643 8.44124 13.0555 8.46549C13.0528 8.43774 13.0253 8.41999 12.997 8.40374C12.9685 8.38849 12.9383 8.37749 12.9353 8.35749V8.35774ZM13.2775 8.26474C13.2685 8.27474 13.2625 8.28549 13.2558 8.29649C13.2598 8.30399 13.2635 8.31199 13.2653 8.31999L13.2293 8.35324L13.229 8.35399C13.2863 8.36524 13.2803 8.31374 13.2775 8.26474ZM13.37 8.45749C13.3665 8.41574 13.3685 8.37249 13.3878 8.33474C13.4003 8.34849 13.3993 8.38799 13.4003 8.42124L13.4098 8.42249C13.416 8.40949 13.4223 8.39574 13.4278 8.38049C13.429 8.32224 13.4363 8.26224 13.4308 8.19699L13.4625 8.20699C13.458 8.18149 13.453 8.15424 13.4465 8.12499L13.437 8.13149C13.4408 8.12299 13.4398 8.10474 13.4333 8.07199C13.412 8.05949 13.3895 8.04924 13.3688 8.04149C13.3965 8.02599 13.374 8.02249 13.4188 8.02874C13.4203 8.02674 13.421 8.02549 13.4223 8.02349C13.4178 8.00624 13.4128 7.98749 13.4075 7.96799C13.401 7.94574 13.3968 7.92899 13.3868 7.89974C13.3568 7.87449 13.3248 7.85824 13.2868 7.82724C13.2658 7.80899 13.2445 7.79024 13.2233 7.76999C13.2095 7.75624 13.1965 7.74324 13.1838 7.73049C13.166 7.71349 13.149 7.69724 13.1318 7.68049C13.1505 7.70599 13.1675 7.73299 13.1825 7.76074C13.1935 7.78424 13.1985 7.80249 13.2063 7.82399C13.2228 7.87024 13.2248 7.89824 13.231 7.93224C13.2438 7.95274 13.25 7.96949 13.2558 7.99224C13.2648 7.95074 13.2688 7.89774 13.2585 7.83049C13.2768 7.86774 13.2873 7.89549 13.3013 7.93724C13.3095 7.96774 13.3173 8.00474 13.3153 8.03324C13.3555 8.05924 13.4343 8.02624 13.3853 8.13099C13.3578 8.11149 13.3575 7.99999 13.3178 8.07024C13.3145 8.06774 13.3128 8.06499 13.3105 8.06249C13.3053 8.08124 13.297 8.09999 13.2813 8.11249C13.2828 8.08399 13.2705 8.04299 13.2388 7.99499C13.246 8.08024 13.245 8.15124 13.2405 8.22074C13.2528 8.22324 13.2655 8.22574 13.2788 8.22699C13.2823 8.20124 13.2963 8.18449 13.3398 8.19599C13.4323 8.24224 13.3888 8.29024 13.3483 8.33174C13.3073 8.37399 13.269 8.41074 13.3703 8.45749H13.37ZM13.7113 8.89824C13.723 8.89949 13.731 8.89899 13.7383 8.89824L13.71 8.77924L13.7 8.78174C13.7065 8.77649 13.7025 8.75524 13.6973 8.72524L13.5828 8.68174C13.6695 8.75899 13.6453 8.83274 13.711 8.89824H13.7113ZM13.7563 8.97424L13.741 8.91074C13.7258 8.91699 13.7098 8.92649 13.6818 8.96349L13.7563 8.97424ZM13.7115 8.98224C13.704 8.97624 13.6933 8.97124 13.6795 8.96674C13.677 8.97024 13.6743 8.97349 13.6715 8.97749L13.7115 8.98199V8.98224ZM13.719 9.05099C13.7295 9.03024 13.7335 9.01049 13.723 8.99424C13.6993 9.00824 13.7088 9.03124 13.719 9.05099ZM13.5183 9.19324L13.5798 9.23774C13.6375 9.24999 13.7295 9.23949 13.7245 9.18774C13.6118 9.19274 13.6585 9.14224 13.697 9.08674C13.6843 9.08449 13.6675 9.08049 13.6445 9.07374L13.692 9.04874L13.6038 9.04274L13.654 9.17424C13.5895 9.15549 13.6038 9.21824 13.5183 9.19324ZM13.6205 9.39049L13.5765 9.24649C13.5263 9.24574 13.494 9.22624 13.4665 9.20249C13.462 9.22599 13.467 9.25174 13.4728 9.27649C13.488 9.28949 13.4975 9.29774 13.4975 9.29774L13.476 9.29149C13.4993 9.30124 13.5093 9.32349 13.5143 9.34949C13.5025 9.34899 13.4913 9.34824 13.4815 9.34774C13.484 9.35199 13.4908 9.35674 13.4993 9.36174C13.5035 9.35899 13.5088 9.35574 13.515 9.35274L13.5175 9.37099C13.5495 9.38499 13.594 9.39674 13.6208 9.39049H13.6205ZM13.0845 10.7575C13.0875 10.755 13.0898 10.7532 13.0925 10.7512V10.7382C13.0885 10.7445 13.0848 10.7507 13.0823 10.7565C13.0833 10.757 13.0835 10.757 13.0845 10.7575ZM13.0678 10.929L13.072 10.9275L13.0673 10.9155C13.0675 10.92 13.0675 10.924 13.0678 10.929ZM13.1388 10.948C13.1625 10.9062 13.1428 10.861 13.1073 10.8212L13.0863 10.8732C13.089 10.8507 13.0908 10.8277 13.0915 10.8045L13.0765 10.791L13.0648 10.783C13.0633 10.805 13.0643 10.8285 13.0648 10.8515C13.085 10.881 13.114 10.9137 13.1388 10.948ZM13.0158 11.1882C13.022 11.129 13.0333 11.0685 13.0438 11.0085L13.0195 10.9962C13.0148 11.0525 12.9868 11.109 13.0003 11.158L13.001 11.1607C13.0038 11.1702 13.009 11.1795 13.0158 11.1882ZM13.0153 11.313V11.3102L12.9683 11.287C12.9865 11.318 13.0043 11.3502 13.0163 11.383C13.0198 11.3817 13.0228 11.3805 13.027 11.3795C13.0598 11.3635 13.0778 11.3927 13.0938 11.4052C13.0885 11.371 13.0808 11.3387 13.0715 11.3077C13.056 11.3032 13.0388 11.3037 13.021 11.3112C13.0228 11.313 13.025 11.3147 13.0278 11.3165L13.0185 11.312L13.0153 11.3132V11.313ZM12.9795 11.5375C12.9928 11.5392 13.0028 11.5385 13.0105 11.5365C13.0015 11.5205 12.993 11.5045 12.9863 11.4885C12.9265 11.4612 12.9485 11.3412 12.911 11.2585L12.9008 11.2535C12.9025 11.2725 12.9045 11.291 12.9063 11.3097C12.9365 11.388 12.932 11.4687 12.9795 11.5375ZM12.9703 11.7032C13.0038 11.684 13.0355 11.6225 13.0523 11.6357C13.0553 11.6162 13.0373 11.5842 13.0175 11.5492C12.997 11.5615 12.979 11.5692 12.935 11.6535L12.948 11.6552L12.98 11.6137C12.9808 11.6297 12.9775 11.6445 12.9718 11.6582L13.008 11.6627C12.9828 11.6717 12.9728 11.6865 12.9703 11.7032ZM12.4455 11.8102C12.4515 11.8092 12.4573 11.8097 12.4625 11.811C12.4663 11.8032 12.47 11.796 12.4735 11.787L12.468 11.7832L12.4735 11.7867C12.4775 11.7762 12.4818 11.7665 12.485 11.7545C12.4735 11.7512 12.4645 11.7545 12.457 11.7605C12.456 11.7682 12.4593 11.7757 12.4683 11.7832L12.447 11.7697C12.4433 11.7742 12.4398 11.779 12.4363 11.7847C12.4403 11.7927 12.4428 11.8017 12.4455 11.8102ZM12.4533 11.8317L12.4535 11.831C12.4525 11.8172 12.4503 11.8102 12.4458 11.811C12.448 11.818 12.4515 11.8242 12.4533 11.8317ZM12.879 11.9675C12.9715 11.9255 12.9428 11.8667 12.9195 11.7992C12.914 11.797 12.909 11.7955 12.9023 11.793L12.9145 11.7835C12.9113 11.7732 12.9088 11.7627 12.9068 11.7522L12.8938 11.7515C12.8848 11.7597 12.8763 11.7677 12.8693 11.7752L12.9063 11.9372C12.8985 11.9345 12.892 11.9332 12.8863 11.933C12.885 11.944 12.8825 11.9555 12.8793 11.9675H12.879ZM11.8395 12.3097C11.8595 12.2995 11.8808 12.2885 11.9035 12.2767C11.896 12.2507 11.9043 12.1967 11.8703 12.191C11.8573 12.2295 11.846 12.2685 11.8395 12.3097ZM13.0093 13.7107C13.0053 13.6937 13.0023 13.6762 13.001 13.6585C12.9633 13.6527 12.9365 13.611 12.9243 13.686C12.9433 13.6965 12.9655 13.7205 13.0093 13.711V13.7107ZM12.9785 14.3347L12.924 14.2C12.9818 14.2125 13.0795 14.2045 13.072 14.1577C12.855 14.1657 13.223 13.993 12.983 13.9572L13.0925 13.971L13.0363 13.8005L13.021 13.8035C13.04 13.806 13.023 13.7662 13.0105 13.7157C12.9023 13.82 12.8785 13.957 12.8558 14.0995C12.8633 14.1025 12.8705 14.1065 12.8778 14.1125C12.867 14.1157 12.8595 14.1202 12.8518 14.1242C12.8455 14.1647 12.8383 14.2052 12.829 14.2457C12.8343 14.2625 12.8383 14.2782 12.8365 14.2912C12.8268 14.3052 12.9325 14.3445 12.9785 14.3347ZM11.5358 14.6852L11.5353 14.6867H11.5375L11.5358 14.6852ZM12.3333 15.275C12.3425 15.2742 12.3508 15.2702 12.3575 15.2625C12.348 15.266 12.3395 15.27 12.3333 15.275ZM12.2198 15.5465C12.2468 15.4662 12.286 15.4322 12.3028 15.3607L12.2285 15.3447H12.2223C12.2133 15.4095 12.2115 15.4792 12.2198 15.5465ZM11.6058 15.4887C11.6155 15.4727 11.627 15.4577 11.638 15.4432L11.599 15.424C11.5948 15.447 11.5963 15.4707 11.6058 15.4887ZM12.5558 15.7125C12.5953 15.676 12.5803 15.6347 12.5465 15.5972C12.5385 15.6302 12.532 15.6637 12.5268 15.698L12.556 15.7125H12.5558ZM12.1605 15.8052L12.2318 15.806C12.2185 15.757 12.2005 15.7132 12.1813 15.6715C12.0443 15.7367 12.3148 15.7475 12.1605 15.8052ZM12.1553 15.8207C12.1548 15.8152 12.1533 15.8115 12.1518 15.8087C12.1505 15.8092 12.1498 15.8095 12.1485 15.81C12.1508 15.8142 12.153 15.8177 12.1553 15.8207ZM12.149 15.9042C12.1538 15.8742 12.156 15.8497 12.156 15.8327C12.1415 15.8312 12.1273 15.83 12.1135 15.8297C12.1225 15.852 12.1305 15.8737 12.1328 15.894C12.1395 15.8972 12.1443 15.901 12.149 15.9045V15.9042ZM12.4565 16.1935C12.4428 16.248 12.4243 16.3015 12.3995 16.3535C12.4445 16.3785 12.4888 16.279 12.5113 16.2947C12.5145 16.273 12.4825 16.2337 12.4565 16.1935ZM12.1138 16.0852C12.0898 16.085 12.0658 16.0837 12.042 16.0822L12.0363 16.108C12.063 16.1045 12.088 16.0942 12.1138 16.0857V16.0852ZM12.1215 16.0502C12.1125 16.0497 12.1045 16.049 12.0995 16.048L12.116 16.0765L12.1215 16.0502ZM12.0645 15.993L12.0613 15.9755L12.0593 15.9762L12.057 15.992C12.0595 15.9927 12.062 15.9925 12.0645 15.993ZM12.0875 15.9925C12.1033 15.9897 12.1198 15.9842 12.1353 15.9822C12.1368 15.975 12.1378 15.9682 12.1393 15.9612C12.1188 15.9695 12.1003 15.9795 12.0875 15.9925ZM12.482 16.0685C12.5325 16.0537 12.549 16.138 12.5795 16.073C12.5725 16.0345 12.5348 16.0027 12.491 16.0057L12.482 16.0685ZM11.6323 16.101C11.6635 16.0605 11.6758 16.0345 11.6923 15.9982C11.6685 15.9872 11.6453 15.9745 11.6228 15.961C11.6258 16.007 11.629 16.0537 11.6323 16.1007V16.101ZM12.0395 16.2695C12.03 16.216 12.1408 16.1375 12.035 16.1137L12.0285 16.1435C12.0308 16.1712 12.0328 16.1985 12.035 16.2265L12.0395 16.2695ZM12.0478 16.3502C12.0503 16.3487 12.052 16.347 12.055 16.3455L12.0698 16.2807L12.0395 16.272L12.0475 16.3502H12.0478ZM12.3388 16.4605C12.3685 16.4895 12.3908 16.5155 12.4058 16.5425C12.426 16.504 12.3898 16.4565 12.3735 16.4045C12.3628 16.4232 12.3518 16.4422 12.3388 16.4607V16.4605ZM12.143 16.461L12.1653 16.49C12.1663 16.454 12.1623 16.433 12.1508 16.4362L12.143 16.461ZM12.1418 16.5555C12.151 16.5467 12.1573 16.5397 12.1623 16.5335C12.1633 16.5207 12.164 16.5085 12.165 16.4977L12.1368 16.4807L12.132 16.4957C12.1378 16.517 12.142 16.5375 12.1418 16.5555ZM12.4723 16.6652L12.4733 16.668H12.475L12.4723 16.6652ZM12.4293 16.627C12.4295 16.6382 12.4293 16.65 12.428 16.6625L12.458 16.666L12.4663 16.6582C12.4573 16.6475 12.4448 16.637 12.4293 16.627ZM12.1458 16.6395L12.1495 16.6382C12.1508 16.6302 12.1518 16.6225 12.153 16.615C12.1503 16.623 12.148 16.6312 12.146 16.6395H12.1458ZM12.422 16.7L12.4295 16.693L12.4238 16.6892C12.423 16.693 12.4225 16.6962 12.422 16.7ZM12.4278 16.7255C12.4323 16.7205 12.4355 16.715 12.438 16.7092C12.4328 16.7112 12.4293 16.716 12.4278 16.7255ZM12.095 16.735C12.1028 16.7305 12.1085 16.7232 12.113 16.7152C12.1053 16.7095 12.098 16.7057 12.0908 16.7037L12.095 16.735ZM12.1508 17.415C12.1875 17.3395 12.214 17.2545 12.2133 17.1412C12.0893 17.1227 12.204 17.0622 12.0785 17.0282C12.0668 17.078 12.0723 17.052 12.085 16.9892C12.074 16.9952 12.0653 17.0015 12.0573 17.008L12.0308 17.0532C12.0538 17.0607 12.0725 17.0667 12.079 17.069L12.0235 17.0655L12.0203 17.071C12.0085 17.1865 12.2023 17.3415 12.0198 17.4122C12.0593 17.458 12.109 17.3757 12.1508 17.4147V17.415ZM12.0985 17.5087L12.1078 17.4932C12.1 17.4932 12.093 17.493 12.0885 17.4922L12.0985 17.5087Z" fill="#69DDFF"/>
<path d="M11.1023 8.66851C11.0718 8.65826 11.0423 8.66476 11.0438 8.72376C11.0658 8.72301 11.085 8.70026 11.1023 8.66851Z" fill="#69DDFF"/>
<path d="M11.481 8.20551V8.20576L11.498 8.20401C11.4912 8.20401 11.487 8.20501 11.481 8.20551Z" fill="#69DDFF"/>
<path d="M11.74 13.9L11.7527 13.8932C11.7472 13.8955 11.7442 13.8975 11.7397 13.8997V13.9H11.74Z" fill="#69DDFF"/>
<path d="M13.2715 8.31375L13.265 8.3195C13.267 8.32775 13.2685 8.336 13.2675 8.34475L13.2713 8.31375H13.2715Z" fill="#69DDFF"/>
<path d="M13.514 9.34924L13.5148 9.35249C13.5168 9.35149 13.5183 9.35074 13.5203 9.34949C13.518 9.34949 13.5163 9.34949 13.514 9.34924Z" fill="#69DDFF"/>
<path d="M11.5345 9.00074C11.5435 8.99174 11.552 8.97924 11.56 8.96449C11.5295 8.95374 11.5012 8.95949 11.5035 9.01599C11.5052 9.01599 11.507 9.01499 11.5087 9.01474C11.5102 9.03199 11.5115 9.05174 11.49 9.05499C11.5132 9.04499 11.5957 9.05574 11.5345 9.00074Z" fill="#69DDFF"/>
<path d="M11.1725 8.76326C11.168 8.75626 11.1642 8.74851 11.1607 8.74051C11.1577 8.74351 11.1555 8.74676 11.155 8.75151L11.1725 8.76326Z" fill="#69DDFF"/>
<path d="M11.216 8.79249L11.1725 8.76324C11.1817 8.77774 11.1945 8.78874 11.216 8.79249Z" fill="#69DDFF"/>
<path d="M12.4955 17.115C12.4933 17.115 12.4915 17.1147 12.4893 17.1147L12.4898 17.119C12.4918 17.1175 12.4933 17.1165 12.4955 17.115Z" fill="#69DDFF"/>
<path d="M12.4938 17.2372C12.4913 17.2007 12.4933 17.1567 12.4898 17.1187C12.434 17.155 12.465 17.1845 12.4938 17.2372Z" fill="#69DDFF"/>
<path d="M13.1333 13.1125L13.1128 13.1097C13.1195 13.1147 13.1263 13.1215 13.1325 13.1287C13.1343 13.1235 13.1353 13.118 13.1333 13.1125Z" fill="#69DDFF"/>
<path d="M13.1127 13.1098C13.0982 13.0988 13.0822 13.0938 13.0605 13.103L13.1127 13.1098Z" fill="#69DDFF"/>
<path d="M13.0988 13.241L13.1158 13.1768C13.189 13.186 13.2253 13.191 13.2118 13.23C13.2425 13.2238 13.2043 13.183 13.1928 13.161L13.1833 13.1753C13.1628 13.164 13.1475 13.145 13.1325 13.1288C13.1145 13.1855 12.9263 13.2093 13.0988 13.241Z" fill="#69DDFF"/>
<path d="M13.1508 13.3395C13.1545 13.3145 13.1563 13.2535 13.0585 13.2612L13.1508 13.3395Z" fill="#69DDFF"/>
<path d="M16.5487 22.76C16.6202 22.734 16.7177 22.6892 16.795 22.6472C16.708 22.6815 16.627 22.7202 16.5487 22.76Z" fill="#69DDFF"/>
<path d="M20.8997 18.7265C21.0127 18.55 21.1142 18.3665 21.2217 18.1867C21.0692 18.42 20.9272 18.659 20.7557 18.8787L20.9 18.7265H20.8997Z" fill="#69DDFF"/>
<path d="M19.4823 3.97223C19.4728 3.92148 19.4108 3.82223 19.208 3.65948C19.245 3.71823 19.3483 3.83423 19.4823 3.97223Z" fill="#69DDFF"/>
<path d="M22.6978 11.9665C22.702 12.0527 22.7063 12.135 22.7108 12.222C22.7095 12.1395 22.7038 12.0495 22.6978 11.9665Z" fill="#69DDFF"/>
<path d="M21.3305 6.52376C21.3305 6.52376 21.33 6.52351 21.329 6.52176L21.3498 6.58201C21.3438 6.56151 21.337 6.54376 21.3305 6.52376Z" fill="#69DDFF"/>
<path d="M12.2232 23.964C12.222 23.9638 12.222 23.9638 12.2195 23.9635C12.163 23.9678 12.106 23.9718 12.049 23.9758C11.992 23.98 11.935 23.9763 11.878 23.9768C11.9227 23.9783 11.973 23.9808 12.03 23.9798C12.0872 23.9753 12.1512 23.97 12.2232 23.964Z" fill="#69DDFF"/>
<path d="M21.8198 8.007C21.8425 8.02225 21.864 8.03575 21.86 8.0035C21.934 8.27875 22.07 8.61875 22.1825 8.95325C22.1503 8.823 22.118 8.6935 22.0863 8.5655C22.0475 8.43875 22.0093 8.31325 21.9713 8.1885C21.9343 8.06275 21.8898 7.94075 21.843 7.82C21.7963 7.6995 21.7528 7.578 21.7 7.46075C21.7133 7.61075 21.726 7.7695 21.8198 8.007Z" fill="#69DDFF"/>
<path d="M22.0252 8.10625L22.004 8.10425C22.0227 8.13775 22.045 8.1825 22.069 8.23175C22.056 8.19025 22.042 8.1485 22.0252 8.10625Z" fill="#69DDFF"/>
<path d="M22.004 8.10426C21.965 8.03426 21.9407 8.01101 21.9512 8.10051L22.004 8.10426Z" fill="#69DDFF"/>
<path d="M22.3248 9.135C22.2833 8.96175 22.2328 8.79075 22.1865 8.61825C22.26 8.626 22.2973 8.6305 22.3818 8.9505C22.3868 8.8745 22.2673 8.586 22.1985 8.42675C22.2088 8.466 22.2213 8.5045 22.2295 8.5445C22.1875 8.475 22.1233 8.34325 22.069 8.23175C22.1053 8.3455 22.1293 8.4525 22.1458 8.55075C22.1578 8.64975 22.1685 8.73925 22.178 8.818C22.1978 8.975 22.231 9.084 22.3248 9.135Z" fill="#69DDFF"/>
<path d="M22.5545 9.8735C22.51 9.67175 22.3923 9.18425 22.3343 9.3305L22.5545 9.8735Z" fill="#69DDFF"/>
<path d="M22.555 11.7387L22.5505 11.7772C22.5543 11.8295 22.5578 11.884 22.559 11.9425L22.555 11.7387Z" fill="#69DDFF"/>
<mask id="mask0_4965_2482" style="mask-type:luminance" maskUnits="userSpaceOnUse" x="1" y="0" width="22" height="24">
<path d="M1.23001 0H22.782V24H1.23001V0Z" fill="white"/>
</mask>
<g mask="url(#mask0_4965_2482)">
<path d="M11.9043 0.0600027C11.8683 0.0432527 11.8305 0.0257527 11.7948 0.00900269L11.9015 0.0497527C12.4405 0.0097527 12.9913 0.00175269 13.5498 0.0270027C13.7285 0.117253 13.9188 0.213003 14.1178 0.313503C14.317 0.412003 14.5255 0.515003 14.7408 0.621253C15.1703 0.837253 15.6253 1.07125 16.076 1.33325C16.9778 1.856 17.8665 2.49 18.5278 3.1555C18.86 3.5445 18.954 3.63275 19.2458 3.97525C19.26 3.96725 19.2715 3.95025 19.2658 3.91975C19.4418 4.0975 19.6695 4.3305 19.886 4.577C20.1028 4.823 20.3048 5.085 20.4433 5.30125C20.5408 5.40075 20.6533 5.42775 20.4778 5.22C20.6025 5.36175 20.7093 5.5065 20.8008 5.64925C20.8885 5.79475 20.9633 5.93675 21.0318 6.06975C21.159 6.34225 21.264 6.57525 21.3885 6.7455C21.2425 6.3855 21.6253 7.02375 21.4355 6.60525C21.6825 7.02375 21.677 7.24025 21.7003 7.46075C21.5385 7.09575 21.3545 6.74375 21.1283 6.417C21.0088 6.076 20.8153 5.8945 20.6723 5.804C20.7048 5.86525 20.71 5.88025 20.6465 5.789C20.6378 5.784 20.628 5.77825 20.6198 5.7735C20.6743 5.88 20.7715 6.05425 20.8725 6.22925C20.969 6.407 21.0783 6.57975 21.1613 6.68275C21.174 6.69675 21.1865 6.71075 21.1998 6.7255C21.2393 6.7645 21.274 6.781 21.3 6.7635L21.3448 6.89625C21.3825 6.943 21.4215 6.99175 21.4623 7.0425C21.4998 7.0955 21.5388 7.15075 21.5798 7.209C21.6018 7.32825 21.4335 6.99575 21.369 6.969C21.408 7.07875 21.4378 7.19275 21.4708 7.3045C21.5053 7.3665 21.51 7.41875 21.5035 7.46475C21.5913 7.69725 21.6853 7.94625 21.7838 8.207C21.7968 8.22375 21.8143 8.25 21.8403 8.29325C21.9135 8.46925 21.9785 8.64625 22.0278 8.827C22.0533 8.917 22.0785 9.0065 22.1035 9.096C22.1285 9.18525 22.1435 9.277 22.1635 9.367L22.252 9.704C22.2805 9.8165 22.3128 9.92775 22.33 10.0415C22.3708 10.268 22.4085 10.492 22.4395 10.7098C22.4588 10.8098 22.4813 10.9095 22.5065 11.0093C22.4985 10.9178 22.4905 10.827 22.4825 10.737C22.474 10.647 22.458 10.5588 22.4468 10.4705C22.423 10.294 22.4 10.1198 22.377 9.94825C22.349 9.77775 22.3138 9.61075 22.2838 9.44425C22.2518 9.2785 22.2258 9.1125 22.1825 8.95275C22.231 9.0805 22.2685 9.209 22.3023 9.3295C22.3365 9.45 22.367 9.56275 22.3903 9.66225C22.413 9.76175 22.4305 9.8475 22.4335 9.9155C22.4345 9.98375 22.426 10.0333 22.405 10.058C22.4073 10.067 22.4095 10.077 22.4118 10.0853L22.4983 10.2498C22.5085 10.2625 22.518 10.2788 22.527 10.3045L22.5283 10.3075V10.309C22.5463 10.3633 22.5618 10.4608 22.574 10.6653C22.559 10.6243 22.5413 10.5433 22.5243 10.462C22.5193 10.5423 22.5113 10.594 22.512 10.675C22.51 10.7565 22.5108 10.8683 22.5278 11.0678C22.5988 11.3828 22.5923 11.0353 22.635 11.1455C22.6073 11.2253 22.6378 11.4795 22.636 11.7693C22.6385 11.9138 22.6405 12.0665 22.6368 12.209C22.6293 12.3513 22.6078 12.4838 22.5828 12.5868C22.527 12.6063 22.5628 12.4413 22.597 12.221C22.5915 12.0858 22.592 11.977 22.6073 11.9288C22.6128 11.9573 22.6148 11.9788 22.6178 12.0025C22.6318 11.8128 22.632 11.614 22.584 11.4765C22.575 11.474 22.57 11.483 22.5663 11.496C22.5638 11.584 22.5578 11.674 22.55 11.7653C22.5503 11.7693 22.5505 11.773 22.551 11.777L22.5363 11.9088C22.526 11.998 22.5158 12.0898 22.505 12.1843C22.5 12.2368 22.4913 12.2888 22.4813 12.341C22.4813 12.3523 22.4813 12.3628 22.4813 12.3743C22.5203 12.6093 22.5325 12.4158 22.5715 12.2303C22.5188 12.5713 22.5088 13.014 22.4468 13.496C22.4708 13.5385 22.5028 13.5323 22.5005 13.3948C22.526 13.7743 22.3923 14.0813 22.3215 14.333C22.3058 14.4288 22.2865 14.5238 22.2605 14.618C22.2593 14.632 22.258 14.646 22.2578 14.6598C22.3613 14.3975 22.274 14.9305 22.3785 14.6145C22.3213 14.921 22.2238 15.0433 22.127 15.1543C22.1243 15.1875 22.122 15.2208 22.1183 15.2533C22.1208 15.2228 22.1215 15.1918 22.1213 15.1608L22.1115 15.172C22.0835 15.2635 22.0473 15.3505 22.0148 15.4383C21.987 15.5343 21.9593 15.6313 21.931 15.7298C21.9023 15.828 21.8718 15.9268 21.831 16.0238C21.826 16.044 21.8183 16.0653 21.8118 16.086C21.8183 16.1438 21.9215 15.971 21.878 16.1983C21.7613 16.3535 21.6725 16.5985 21.564 16.842C21.5148 16.9655 21.4653 17.0905 21.4185 17.2078C21.3723 17.3255 21.3165 17.43 21.2708 17.5203C21.2088 17.622 21.1868 17.88 21.2743 17.8035L21.4898 17.3265L21.6753 16.838C21.688 16.876 21.7288 16.8735 21.7843 16.818C21.812 16.7903 21.8435 16.7493 21.877 16.6933C21.9085 16.6368 21.9385 16.564 21.9693 16.4758C21.898 16.5113 21.9113 16.432 21.9648 16.294C22.018 16.156 22.117 15.9598 22.19 15.7515C22.2245 15.6183 22.2608 15.4805 22.2918 15.3473C22.3258 15.2148 22.336 15.0823 22.3455 14.967C22.344 14.9653 22.3438 14.9623 22.3423 14.9608L22.3458 14.9633C22.3468 14.953 22.3475 14.9415 22.3485 14.9313C22.4028 14.7725 22.4475 14.8255 22.5118 14.5835C22.4835 14.5988 22.4825 14.5563 22.48 14.4978C22.4773 14.439 22.4773 14.3655 22.463 14.3213C22.5183 14.0123 22.5518 13.9823 22.5858 14.002C22.5968 13.8968 22.614 13.792 22.6165 13.6858L22.6055 13.7075C22.619 13.6455 22.6343 13.3508 22.6525 12.9895C22.6515 12.627 22.6645 12.1978 22.6673 11.86C22.7288 12.0783 22.624 13.2985 22.7678 12.6043C22.777 12.7808 22.783 12.9973 22.7495 13.2395C22.7183 13.4818 22.6953 13.753 22.6333 14.0365C22.6485 14.0435 22.6653 14.0428 22.685 14.0185C22.6178 14.1763 22.5763 14.3798 22.5285 14.6003C22.4905 14.7653 22.4533 14.9325 22.42 15.1038L22.5293 14.9443C22.5085 15.0773 22.4895 15.216 22.4548 15.3545C22.419 15.4925 22.379 15.6333 22.336 15.7763C22.314 15.8475 22.292 15.919 22.2695 15.9915C22.2463 16.0635 22.2158 16.1338 22.1885 16.2053C22.131 16.3475 22.073 16.491 22.0148 16.6355C21.957 16.78 21.881 16.9178 21.8148 17.0588C21.7438 17.198 21.6833 17.3413 21.6055 17.4753C21.4515 17.7438 21.3183 18.0168 21.1638 18.265C21.198 18.145 21.2398 18.03 21.265 17.9073C21.0353 18.239 20.7048 18.6255 20.5358 18.9875C20.8163 18.5818 20.7098 18.8255 20.6878 18.9275C20.6115 19.0508 20.5295 19.1898 20.4253 19.3225L20.3168 19.6038C20.2168 19.7103 20.1673 19.793 20.1143 19.8733C20.0583 19.9508 19.9963 20.024 19.8775 20.1123C19.9733 20.0055 20.047 19.9135 20.0963 19.8295C20.1443 19.7443 20.1748 19.6723 20.1945 19.6133C20.1343 19.6865 20.0743 19.7633 20.009 19.8373C19.9415 19.9095 19.873 19.9828 19.8038 20.057C19.7643 20.172 19.6205 20.381 19.4465 20.5735C19.2675 20.7738 19.048 20.9873 18.8625 21.1495C18.7155 21.2378 18.7938 21.1115 18.833 21.0333C18.8935 21.0263 19.1538 20.791 19.2538 20.7113C19.2945 20.6475 19.3225 20.5903 19.3525 20.5325C19.243 20.6428 19.134 20.7533 19.0255 20.8625C19.0255 20.8625 19.0458 20.816 19.0093 20.8308L18.8468 21.0018C18.8435 21.0108 18.839 21.021 18.833 21.0333C18.8263 21.034 18.8208 21.0338 18.8195 21.0288L18.5765 21.2698L18.3245 21.5033C18.3003 21.5213 18.2795 21.5365 18.2573 21.553C18.3595 21.5118 18.5295 21.4175 18.2855 21.7073C18.2393 21.6358 18.0525 21.7873 17.861 21.9535C17.6648 22.1138 17.458 22.2845 17.4018 22.2663L17.7955 21.944C17.6745 22.0053 17.5713 22.0695 17.4755 22.136C17.4275 22.1693 17.3815 22.2033 17.3363 22.2373L17.197 22.334C17.104 22.3985 17.0093 22.4635 16.9045 22.5263C16.801 22.591 16.6788 22.6405 16.5428 22.6913C16.4013 22.795 16.4488 22.7963 16.5493 22.7595C16.4635 22.803 16.382 22.8483 16.3035 22.8925C16.2233 22.933 16.145 22.9713 16.0703 23.0065C15.9193 23.0755 15.7798 23.133 15.6415 23.1428C15.855 23.0425 16.076 22.9265 16.2913 22.8088C16.5 22.6788 16.711 22.5593 16.8955 22.434C16.8318 22.4738 16.7515 22.5225 16.6373 22.5973C16.7418 22.515 16.7735 22.4755 16.7673 22.458C16.7308 22.4728 16.6923 22.4878 16.6458 22.5038C16.6833 22.4853 16.7198 22.4673 16.7565 22.449C16.7005 22.431 16.4653 22.515 16.4748 22.444C16.1563 22.6353 16.1748 22.6735 16.2545 22.6788L16.5915 22.479L16.3075 22.679C16.3715 22.6765 16.438 22.67 16.415 22.6985C16.3455 22.7298 16.2833 22.7585 16.224 22.7823C16.1635 22.8038 16.1078 22.8238 16.054 22.8428L15.8135 22.9905C15.6385 23.062 15.4535 23.1098 15.2733 23.1658C15.1363 23.2123 15.0033 23.2645 14.8643 23.2958C14.836 23.3073 14.8148 23.3175 14.8065 23.3245L14.941 23.296C15.0633 23.265 15.1638 23.2305 15.2548 23.2105L15.3195 23.1918L15.2768 23.205C15.301 23.1995 15.3305 23.191 15.3523 23.187L15.2195 23.3608C15.1655 23.3838 15.105 23.408 15.04 23.43C14.9735 23.448 14.9033 23.467 14.8318 23.4863C14.6888 23.5228 14.5408 23.5605 14.4078 23.5943C14.1403 23.6538 13.9325 23.7008 13.958 23.774C13.956 23.7395 13.8193 23.741 13.6945 23.7388C13.5703 23.74 13.4545 23.7173 13.4963 23.6765L12.8763 23.724C13.022 23.705 13.1715 23.6855 13.322 23.6658L13.5478 23.6345C13.6233 23.6248 13.6965 23.6038 13.7703 23.589C13.9173 23.5565 14.0625 23.5245 14.2025 23.4938C14.344 23.468 14.4735 23.4195 14.5995 23.3873C14.29 23.4765 13.968 23.5215 13.6433 23.5953C13.4795 23.6263 13.311 23.644 13.1405 23.6723C13.0553 23.6858 12.969 23.6995 12.8818 23.7133C12.7948 23.7295 12.7053 23.7308 12.6153 23.7408L12.6945 23.7645L12.1735 23.7863C12.3205 23.7948 12.4428 23.8275 12.605 23.8525C12.6858 23.8633 12.777 23.879 12.8848 23.8768C12.9925 23.873 13.118 23.8618 13.2675 23.8388C13.1833 23.8533 13.0985 23.868 13.0133 23.883C12.9275 23.897 12.8415 23.915 12.7538 23.9195C12.5783 23.9338 12.4003 23.948 12.2198 23.9628C11.9375 23.9145 12.048 23.8928 12.1228 23.875C12.1603 23.866 12.1895 23.858 12.158 23.8483C12.1265 23.8378 12.034 23.832 11.8305 23.7948C11.929 23.7838 12.0108 23.7885 12.0855 23.7845L12.2983 23.679C12.2153 23.6893 12.131 23.6923 12.0483 23.6923C11.9655 23.6905 11.885 23.6775 11.8093 23.671C11.6575 23.6558 11.5255 23.648 11.4333 23.6848L11.5545 23.6973C11.4155 23.7008 11.2755 23.7103 11.136 23.7088C11.2823 23.688 11.428 23.656 11.5718 23.6298C11.4415 23.6118 11.2975 23.6158 11.1415 23.616C10.9863 23.6103 10.818 23.6113 10.638 23.6118C10.5478 23.6115 10.455 23.6113 10.3598 23.6108C10.2653 23.6048 10.1688 23.5933 10.07 23.5818C9.971 23.5698 9.87025 23.5558 9.76775 23.5383C9.66575 23.519 9.55975 23.5055 9.45775 23.4698C9.42775 23.4303 9.475 23.4255 9.5695 23.4373C9.6655 23.4435 9.809 23.4655 9.9705 23.4915C10.051 23.5045 10.136 23.5185 10.2215 23.5323C10.2643 23.539 10.3073 23.5458 10.3498 23.5525C10.3928 23.5555 10.4355 23.5585 10.4773 23.5615C10.645 23.5718 10.7988 23.5763 10.9075 23.5665C10.7185 23.5453 10.5275 23.527 10.3363 23.5008C10.1468 23.463 9.95625 23.425 9.7645 23.3868C9.57125 23.3543 9.385 23.2913 9.195 23.239L8.91025 23.1568C8.8145 23.1318 8.724 23.091 8.63025 23.0585C8.50225 23.0228 8.38675 22.9993 8.2895 22.995L8.79875 23.2455C8.50975 23.146 8.28175 23.026 8.102 22.9215C7.9255 22.8085 7.79225 22.7205 7.67525 22.699L7.7745 22.709L7.70775 22.6785C7.49025 22.6155 7.2455 22.4935 6.92675 22.3153C6.9285 22.3708 7.046 22.464 7.20775 22.5608C7.289 22.6088 7.38 22.6595 7.475 22.703C7.57175 22.743 7.67025 22.7795 7.7615 22.8088L7.61875 22.8625C7.8545 22.9718 8.09625 23.0885 8.3525 23.175C8.47925 23.221 8.60625 23.267 8.73275 23.313C8.86 23.356 8.99125 23.3868 9.1185 23.4228C9.2465 23.4563 9.373 23.4895 9.49725 23.5223C9.6225 23.5508 9.748 23.568 9.86875 23.5893C10.1113 23.6275 10.3388 23.6713 10.5515 23.674L10.3518 23.6888C10.2853 23.6918 10.2193 23.6893 10.1525 23.6895C10.323 23.767 10.4468 23.7868 10.5413 23.796C10.636 23.8043 10.7028 23.7958 10.7678 23.7875C10.8328 23.7793 10.8958 23.7713 10.9838 23.781C11.0278 23.7858 11.078 23.7948 11.138 23.8105C11.198 23.8263 11.2685 23.8393 11.3528 23.8645C11.8658 23.8445 10.9898 23.7948 11.3775 23.7633C11.735 23.8073 11.2678 23.948 11.8785 23.9763C10.7273 24.0003 9.49325 23.7795 8.33275 23.342C7.749 23.1313 7.193 22.8493 6.6585 22.5473C6.12975 22.235 5.63275 21.885 5.1685 21.516C5.11875 21.502 5.21125 21.5858 5.30475 21.667C5.2585 21.6415 5.194 21.6023 5.118 21.5463C5.04275 21.4895 4.95375 21.4183 4.85325 21.335C4.7515 21.2535 4.64275 21.1545 4.526 21.0443C4.4675 20.9893 4.40675 20.9318 4.34375 20.872C4.283 20.81 4.22025 20.7455 4.1555 20.6793C3.898 20.4115 3.62675 20.1048 3.359 19.745C3.23375 19.5653 3.106 19.3848 2.984 19.1973C2.92575 19.1018 2.86725 19.0058 2.809 18.9095C2.74975 18.8143 2.69275 18.7175 2.64175 18.6175C2.20775 17.832 1.90075 17.01 1.71125 16.3745C1.62 16.0558 1.54275 15.7863 1.48625 15.5878C1.42525 15.3903 1.3795 15.2653 1.3405 15.2383C1.36425 15.1213 1.47125 15.5003 1.38725 15.0038C1.3595 14.9583 1.312 14.829 1.2885 14.9455C1.2755 14.315 1.23075 13.5778 1.25575 12.8085C1.258 12.6163 1.2745 12.423 1.2855 12.2288C1.3045 12.0355 1.31975 11.8408 1.349 11.649C1.40025 11.2648 1.47775 10.8875 1.58275 10.5328C1.5295 10.545 1.58025 10.2103 1.55225 10.1893C1.66375 9.9635 1.75425 9.62775 1.85175 9.295C1.94825 8.9625 2.05425 8.63325 2.17125 8.42575L2.06725 8.53975C2.15875 8.3035 2.258 8.05775 2.37375 7.83025C2.4855 7.599 2.59375 7.36675 2.72575 7.14625C2.733 7.09225 2.6295 7.2735 2.56325 7.3765C2.7095 7.064 2.7925 7.04375 2.84375 7.05C2.92125 6.82075 3.02325 6.603 3.12025 6.38C3.22475 6.24575 3.3415 6.1145 3.45625 5.978C3.57075 5.841 3.6835 5.6985 3.80975 5.56225C3.80625 5.56 3.80475 5.556 3.79475 5.56025L3.989 5.34475L4.08625 5.2375L4.189 5.1355C4.34475 4.973 4.494 4.799 4.66275 4.64L4.651 4.607C4.63275 4.61875 4.6125 4.6345 4.58875 4.656C4.54525 4.7135 4.499 4.76825 4.45875 4.82875C4.44625 4.833 4.43825 4.83475 4.42825 4.83725C4.26975 4.962 4.338 4.8405 4.429 4.70875C4.6565 4.4925 4.8755 4.2785 5.11175 4.0925L5.11525 4.08775L5.11625 4.08875C5.197 4.02275 5.27675 3.9565 5.3575 3.89325C5.4405 3.83325 5.523 3.7735 5.60475 3.7145C5.7745 3.55125 5.66925 3.6015 6.159 3.20225C6.24375 3.16975 6.33075 3.14175 6.41825 3.11475C6.457 3.10225 5.71975 3.5015 5.78275 3.588L5.78775 3.58475C5.90875 3.502 6.03425 3.42725 6.155 3.352C6.49 3.1055 6.8415 2.883 7.19825 2.683L7.057 2.706C7.15925 2.679 7.2745 2.579 7.43225 2.46175C7.51025 2.402 7.598 2.3355 7.69725 2.2685C7.79775 2.204 7.91125 2.141 8.03775 2.0825C7.88925 2.17875 7.7385 2.2695 7.59475 2.3725C7.70225 2.356 7.83775 2.30925 7.99075 2.245C8.067 2.21225 8.14725 2.17475 8.23075 2.134C8.3145 2.095 8.40225 2.054 8.49175 2.01225C8.67525 1.88375 8.87925 1.7785 9.1675 1.6525C9.0025 1.7125 8.847 1.76875 8.74025 1.7985C8.63375 1.82825 8.57675 1.83475 8.605 1.785C8.92725 1.6365 9.24025 1.5515 9.527 1.48825C9.749 1.41025 9.9735 1.33925 10.1978 1.2705C10.149 1.27275 10.0998 1.27425 10.0513 1.27825C10.1723 1.2485 10.2943 1.223 10.4153 1.19525L10.3108 1.236H10.3145C10.5005 1.17975 10.688 1.1295 10.8758 1.08025C10.9375 1.05975 11.0003 1.041 11.0633 1.03075C10.9948 1.01325 10.9268 0.997753 10.8583 0.982753C11.037 0.929753 11.2178 0.884003 11.3975 0.835503L11.3318 0.881003C12.209 0.706253 12.9643 0.548253 13.7835 0.393753C13.6218 0.425503 13.4618 0.459253 13.3033 0.496003C13.343 0.510003 13.6013 0.481753 13.8258 0.444253C13.7538 0.509503 13.162 0.569253 13.2068 0.620253L13.166 0.636753L13.4455 0.604253C13.5943 0.570003 13.6733 0.584003 13.7095 0.604503C13.756 0.606003 13.8015 0.607253 13.8475 0.608503C13.8875 0.598753 13.927 0.589003 13.9675 0.579003C13.9838 0.591003 13.9973 0.603003 14.0103 0.615253C14.051 0.617503 14.0935 0.619753 14.134 0.622003L14.02 0.623503C14.1258 0.729503 14.0968 0.844753 13.911 0.976253C13.9373 0.977253 13.964 0.978503 13.99 0.979503L14.008 0.975003L14.0145 0.980753C14.063 0.984003 14.1133 0.987003 14.161 0.990253L14.0263 0.991503C14.1653 1.1135 14.146 1.24425 13.9305 1.39775C13.7148 1.55325 13.295 1.73275 12.636 2.0015C12.5368 2.0055 12.6968 1.95075 12.8243 1.9025C12.9513 1.8545 13.0455 1.808 12.8083 1.81675C12.092 1.899 11.2083 2.1655 10.3313 2.536C10.1105 2.6255 9.893 2.72775 9.674 2.826C9.4585 2.932 9.24025 3.03225 9.03025 3.143C8.81675 3.24725 8.61225 3.3625 8.407 3.4675C8.306 3.5225 8.206 3.57725 8.10725 3.6315C8.00775 3.6845 7.9085 3.73575 7.814 3.79075C7.59825 3.89275 7.46225 3.9575 7.34175 4.0315C7.22075 4.105 7.10175 4.16925 6.92725 4.28425C6.93375 4.29875 6.94925 4.312 6.97875 4.311C6.92975 4.34925 6.876 4.39125 6.8195 4.4355C6.87125 4.41825 6.926 4.3965 6.9765 4.36225C6.943 4.40675 6.9025 4.4575 6.88875 4.493L6.9375 4.46525C6.88475 4.52125 6.803 4.632 6.757 4.632C6.8815 4.549 6.862 4.52125 6.823 4.46525C6.75625 4.512 6.68825 4.55725 6.62275 4.6055C6.62125 4.60175 6.6205 4.599 6.61925 4.5955C6.5985 4.61375 6.57775 4.632 6.55675 4.6505C6.60125 4.6945 6.46175 4.815 6.398 4.867L6.48725 4.71125C6.3495 4.83075 6.20525 4.95175 6.07575 5.07425C5.9435 5.19375 5.81275 5.30125 5.70475 5.39625C5.628 5.50325 5.61725 5.6205 5.78 5.42825C5.6895 5.54 5.597 5.63675 5.50425 5.72425C5.443 5.8345 5.32525 5.9555 5.1885 6.094C5.0555 6.23525 4.91475 6.403 4.79575 6.5875C4.83125 6.577 4.869 6.56825 4.9055 6.55875C4.8515 6.66225 4.79475 6.77475 4.72025 6.8815C4.64825 6.99 4.56125 7.095 4.486 7.21025C4.4065 7.32325 4.326 7.4375 4.247 7.54975C4.175 7.66625 4.11 7.78475 4.05475 7.9005L4.0415 7.724C3.983 7.79675 3.90825 7.87725 3.84725 7.96325C3.78575 8.04875 3.749 8.1455 3.74925 8.239C3.83625 8.0335 3.83825 8.15975 3.8595 8.21175C3.824 8.35725 3.741 8.52425 3.66475 8.70075C3.59025 8.879 3.513 9.07875 3.4665 9.279C3.4665 9.279 3.45325 9.25425 3.4345 9.26725C3.40775 9.4095 3.384 9.5525 3.3625 9.6955C3.29075 9.88825 3.22025 9.94475 3.1265 10.055C3.11975 10.1318 3.07525 10.3155 3.14575 10.256C3.1605 10.2175 3.175 10.179 3.17575 10.152C3.22675 10.3858 3.10775 10.2958 3.11225 10.5763C3.07175 10.3535 2.97625 10.6205 2.89425 10.582C2.86775 10.9075 3.0425 10.6355 3.074 10.6825C3.0195 10.8513 2.96875 10.9518 2.92875 11.0478C2.92525 11.0778 2.92 11.1068 2.91375 11.1353C2.91325 11.1163 2.91275 11.1025 2.91225 11.0858C2.8675 11.1903 2.826 11.2973 2.7925 11.4895C2.83225 11.3908 2.883 11.273 2.91375 11.135C2.91375 11.1593 2.914 11.1843 2.91425 11.2095C2.921 11.2003 2.92825 11.1928 2.936 11.1898C2.92775 11.2165 2.92075 11.2445 2.915 11.2718C2.91575 11.3115 2.91975 11.3488 2.92525 11.3743L2.94525 11.2918C2.94425 11.307 2.94425 11.3238 2.94375 11.3415C2.9565 11.3003 2.972 11.259 2.9865 11.2178C2.96975 11.2673 2.9565 11.3168 2.9435 11.3665C2.94225 11.4838 2.9405 11.63 2.9135 11.6698C2.936 11.542 2.93675 11.4848 2.91975 11.4535C2.8375 11.7705 2.8005 12.0953 2.81575 12.4555L2.845 12.4205L2.82925 12.6985L2.7325 12.5993C2.74925 12.7495 2.662 12.915 2.74025 12.9925L2.7485 12.9368C2.75925 12.9993 2.7665 13.0618 2.77975 13.1238C2.74375 13.0613 2.71375 12.9978 2.6805 12.934C2.6325 13.1798 2.84975 13.4963 2.86 13.8788C2.79425 13.9293 2.7705 13.7643 2.7435 13.5815C2.71375 13.399 2.69425 13.1978 2.603 13.1775C2.57675 13.3095 2.5525 13.5375 2.60675 13.6115C2.65475 13.5908 2.6465 13.4978 2.6465 13.4033C2.693 13.5533 2.69725 13.7395 2.705 13.9188C2.73225 14.1973 2.77675 14.5673 2.81925 14.195C2.82775 14.2353 2.8375 14.2803 2.84725 14.3265C2.85075 14.2818 2.85375 14.2375 2.86 14.1923C2.87325 14.2805 2.8745 14.3608 2.86525 14.434C2.8815 14.5403 2.8925 14.659 2.91275 14.7853C2.93175 14.9115 2.945 15.0485 2.97475 15.1888L3.02325 15.2415C3.0375 15.385 3.03675 15.4503 3.03725 15.49C3.07225 15.6198 3.109 15.7515 3.154 15.8823L3.187 15.7398C3.22075 15.8228 3.25575 15.9085 3.2915 15.9968C3.3265 16.085 3.357 16.1775 3.39075 16.2705C3.46425 16.4548 3.52475 16.6523 3.6055 16.8445C3.67675 17.041 3.76525 17.2325 3.85225 17.422C3.8945 17.5173 3.94875 17.6055 3.997 17.695C4.04825 17.783 4.0935 17.873 4.15225 17.9523C4.0805 17.9035 4.0165 17.8493 3.94875 17.7958C3.999 17.9268 4.064 18.073 4.13875 18.213C4.177 18.2823 4.21475 18.352 4.2625 18.4113C4.3105 18.4703 4.36225 18.523 4.41825 18.5653C4.2115 18.2925 4.3615 18.4063 4.4315 18.4328C4.51025 18.5168 4.59 18.6185 4.673 18.7233C4.756 18.8243 4.848 18.9363 4.94725 19.05C5.044 19.1653 5.15375 19.28 5.26275 19.3955C5.37825 19.506 5.49 19.622 5.61525 19.7205C5.61525 19.7205 5.578 19.7135 5.588 19.7415L5.853 19.9458L6.126 20.1388C6.356 20.3503 6.4105 20.451 6.52375 20.621C6.6265 20.68 6.86325 20.8443 6.80625 20.738C6.7585 20.6985 6.711 20.6593 6.67425 20.6405C6.844 20.6955 6.88675 20.7345 6.936 20.7843C6.98475 20.8343 7.0395 20.8958 7.23675 20.9775C6.911 20.8783 7.252 21.132 7.17025 21.1855C7.61525 21.416 7.296 21.079 7.37225 21.0785C7.4315 21.1238 7.48425 21.1643 7.53225 21.201C7.581 21.236 7.62475 21.2678 7.6655 21.297C7.7455 21.3585 7.81275 21.4103 7.88025 21.4618C8.013 21.571 8.15925 21.6555 8.429 21.7908C8.4845 21.756 8.0575 21.58 8.0415 21.505C8.18875 21.5885 8.37325 21.6668 8.41 21.6615L8.0985 21.4715C8.36375 21.6265 8.628 21.782 8.921 21.8895C9.207 22.0173 9.521 22.0893 9.85475 22.1685L9.81125 22.1268C9.946 22.1685 10.0855 22.1893 10.2225 22.222L10.0478 22.2888C10.1638 22.3 10.2765 22.3403 10.3785 22.3715C10.4803 22.4035 10.5715 22.4248 10.6405 22.3895L10.558 22.372L10.849 22.3755L10.5363 22.4375C10.715 22.4818 10.9418 22.468 11.1918 22.4553C11.2543 22.4543 11.3188 22.446 11.3845 22.4368C11.4505 22.4285 11.5178 22.4213 11.586 22.4155C11.723 22.4043 11.8648 22.4008 12.0115 22.4108C12.0658 22.4733 11.8788 22.4818 11.6415 22.4873C11.5233 22.49 11.3925 22.4918 11.273 22.4988C11.1545 22.4953 11.047 22.4973 10.9743 22.5138C11.2585 22.5523 11.549 22.5428 11.8415 22.5513C11.9883 22.56 12.1345 22.5468 12.282 22.5373C12.4293 22.528 12.5773 22.519 12.7258 22.5098C12.7838 22.4905 12.8355 22.4685 12.8778 22.4418C12.8123 22.4403 12.7475 22.4423 12.6823 22.4375L12.4865 22.418C12.6963 22.4073 12.8708 22.4118 13.0163 22.424C13.1615 22.4353 13.2758 22.4455 13.3515 22.4065L13.3225 22.4258C13.5175 22.391 13.7103 22.3413 13.905 22.301C14.003 22.2835 14.0973 22.25 14.1928 22.222L14.4793 22.136C14.412 22.0725 13.894 22.331 13.9133 22.293C13.976 22.2568 14.0363 22.2133 14.0958 22.1685C14.551 22.0715 14.4755 22.1165 14.6465 22.0823C14.7913 22.0273 14.936 21.9723 15.0803 21.9173L15.0735 21.8915C15.1128 21.8918 15.1583 21.8838 15.2045 21.866C15.2823 21.8303 15.359 21.7948 15.4365 21.7593C15.5298 21.7088 15.6195 21.6593 15.6855 21.6215C15.7505 21.5823 15.7953 21.5618 15.8038 21.5805C15.9363 21.5075 16.0713 21.4408 16.2003 21.364C16.3285 21.2853 16.456 21.207 16.5823 21.129C16.607 21.0908 16.5093 21.1408 16.413 21.19C16.4473 21.1585 16.4995 21.119 16.5668 21.0723C16.632 21.0215 16.7123 20.963 16.8053 20.898C16.8523 20.8658 16.902 20.8313 16.9545 20.7953C17.0058 20.7573 17.0598 20.7173 17.1163 20.6753C17.2293 20.5925 17.3535 20.5043 17.4795 20.402C17.738 20.206 18.0128 19.9695 18.2963 19.7118C18.4358 19.584 18.5878 19.441 18.7188 19.3035C18.7868 19.234 18.8553 19.1643 18.9238 19.0943L19.0268 18.9895L19.1223 18.8783C19.221 18.763 19.3193 18.6483 19.4163 18.5348C19.5108 18.4195 19.5948 18.2978 19.682 18.1825C19.862 17.9548 19.999 17.7125 20.1388 17.4968C20.1598 17.3888 20.0478 17.4488 20.2383 17.182C20.2323 17.223 20.1898 17.316 20.165 17.379C20.1388 17.4413 20.1293 17.4735 20.1963 17.3965L20.194 17.4058C20.5303 16.8063 20.708 16.3198 20.7035 16.1668C20.6595 16.292 20.6015 16.4118 20.546 16.5148C20.5513 16.4815 20.5763 16.4145 20.6063 16.3383C20.637 16.262 20.6723 16.1765 20.6913 16.104C20.7338 15.9603 20.7423 15.882 20.616 16.0695C20.6298 15.9863 20.658 15.8913 20.6953 15.7863C20.7308 15.6808 20.784 15.568 20.8213 15.441C20.903 15.1895 21.0058 14.9058 21.0408 14.6035L20.9483 14.703C20.9563 14.543 20.988 14.3763 21.0168 14.2018C21.0408 14.0263 21.0743 13.8448 21.1113 13.6613C21.1653 13.2923 21.229 12.911 21.2148 12.561L21.305 12.7718C21.325 12.6488 21.356 12.5068 21.3725 12.3658C21.3825 12.2953 21.3835 12.2253 21.3755 12.1583C21.3688 12.0915 21.3553 12.0275 21.3325 11.97C21.352 12.2725 21.291 12.1175 21.2478 12.0655C21.2085 11.8645 21.2123 11.615 21.1765 11.349C21.1623 11.2158 21.1478 11.0778 21.133 10.939C21.112 10.8008 21.0793 10.6635 21.046 10.5293C21.046 10.5293 21.0708 10.552 21.0803 10.526L20.9998 10.2468C20.9708 10.1543 20.934 10.0638 20.9018 9.9725C20.8468 9.705 20.884 9.597 20.8923 9.41625C20.8488 9.3225 20.774 9.08175 20.7505 9.1905C20.762 9.244 20.7733 9.297 20.7895 9.32925C20.601 9.08275 20.7615 9.1215 20.573 8.7985C20.7533 9.035 20.6578 8.67225 20.7518 8.6715C20.562 8.277 20.593 8.69125 20.5353 8.65425C20.4635 8.4025 20.4303 8.2555 20.3985 8.107C20.3575 7.96225 20.3193 7.8145 20.2048 7.5745C20.147 7.5705 20.3388 7.9285 20.3018 7.99525C20.2498 7.85425 20.1703 7.69675 20.1388 7.68275C20.1743 7.78525 20.206 7.88925 20.2398 7.9915C20.0663 7.472 19.8213 6.99575 19.4443 6.516C19.4463 6.53425 19.4465 6.553 19.448 6.57125C19.3785 6.46675 19.3053 6.36475 19.234 6.261L19.3945 6.313C19.2588 6.15925 19.1945 5.93 19.064 5.8925L19.104 5.957C19.043 5.896 18.9845 5.8335 18.922 5.77425C19.0035 5.82125 19.0815 5.87175 19.162 5.921C18.998 5.629 18.55 5.41575 18.201 5.02225C18.2093 4.9345 18.3818 5.08775 18.5593 5.26825C18.7428 5.44375 18.9298 5.6465 19.0215 5.61625C18.976 5.53875 18.9103 5.43625 18.8428 5.34625C18.7728 5.25825 18.7003 5.184 18.647 5.159C18.6258 5.20775 18.7105 5.30325 18.794 5.401C18.6998 5.327 18.6058 5.2345 18.5145 5.133C18.4228 5.03175 18.3278 4.92725 18.2365 4.82675C18.0508 4.628 17.87 4.453 17.708 4.4105C17.7818 4.50375 17.8535 4.5985 17.9225 4.695C17.643 4.4425 17.557 4.155 17.4088 4.103C17.5158 4.128 17.6258 4.15125 17.732 4.18C17.3648 3.9585 16.9593 3.6015 16.6053 3.41825C16.539 3.49125 17.0538 3.7625 17.0188 3.764C16.9563 3.74275 16.8915 3.72475 16.8278 3.70575C16.6075 3.4935 16.5793 3.45725 16.5415 3.4085C16.5023 3.3605 16.4538 3.2995 16.1668 3.06125L16.123 3.11375C15.978 2.8825 15.313 2.6935 15.6188 2.67425L15.766 2.8195L15.788 2.7605C15.7493 2.7425 15.7035 2.71875 15.656 2.69275C15.595 2.6485 15.5345 2.60625 15.4728 2.564C15.328 2.4855 15.1805 2.4115 15.0338 2.33725C15.1023 2.3295 14.9628 2.243 14.9003 2.181C14.841 2.14325 14.7818 2.10525 14.723 2.06775L14.5873 2.0295C14.5773 2.00625 14.5813 1.99275 14.5943 1.98525C14.4495 1.8955 14.3058 1.807 14.1628 1.72125C14.1015 1.69875 14.0275 1.66675 13.9455 1.6315C13.9453 1.6175 13.9475 1.606 13.9515 1.5965C13.3415 1.23925 12.7605 0.921503 12.1995 0.642503C12.158 0.627003 12.1273 0.611253 12.1058 0.595753C12.0345 0.560253 11.9658 0.526003 11.8963 0.491253C11.8748 0.487753 11.8538 0.484503 11.8323 0.481003C11.827 0.471753 11.824 0.463003 11.8198 0.454253C11.776 0.433503 11.7305 0.411753 11.6875 0.391503L11.813 0.439753C11.7513 0.298503 11.8068 0.192503 12.0345 0.143003C12.002 0.137753 11.9703 0.132503 11.9375 0.127253C11.9238 0.103753 11.9138 0.0812527 11.9058 0.0595027L11.9043 0.0600027ZM2.90625 11.452L2.9095 11.4418C2.9075 11.4395 2.905 11.4375 2.90275 11.4355C2.904 11.441 2.90425 11.4495 2.90625 11.452ZM13.85 1.01625L13.9328 0.994753L13.8828 0.996503C13.8725 1.0025 13.8608 1.00975 13.85 1.01625ZM13.7353 0.634753C13.7353 0.635503 13.7363 0.636753 13.736 0.637753L13.7505 0.633753L13.7353 0.634753ZM2.38175 13.538C2.3835 13.5605 2.38525 13.5823 2.387 13.6035C2.38775 13.585 2.38875 13.5658 2.38975 13.5453L2.38175 13.538ZM2.4655 11.023C2.42875 11.0305 2.39875 11.069 2.37625 11.1238C2.38125 11.3105 2.4055 11.2358 2.44875 11.1145C2.45325 11.0853 2.45875 11.055 2.4655 11.023ZM1.9135 9.9375C1.854 10.0353 1.817 10.221 1.77975 10.3673C1.819 10.3413 1.84875 10.2888 1.873 10.217C1.87325 10.158 1.8725 10.0988 1.87425 10.0398C1.88725 10.0063 1.9005 9.9715 1.9135 9.9375ZM2.82325 7.5235L2.822 7.51975C2.79375 7.5745 2.77225 7.6255 2.7615 7.669C2.782 7.62025 2.8025 7.57225 2.82325 7.5235ZM4.474 5.357C4.4415 5.39625 4.4115 5.432 4.383 5.4665L4.41675 5.43175C4.43575 5.40725 4.455 5.382 4.474 5.357ZM7.1055 3.1215C7.191 3.083 7.2765 3.0445 7.36 3.00675C7.391 2.98625 7.42125 2.96625 7.452 2.9455C7.5755 2.86925 7.6995 2.79275 7.8235 2.716C7.69975 2.783 7.57675 2.84925 7.4555 2.91475C7.33675 2.98475 7.21975 3.054 7.10525 3.1215H7.1055ZM7.322 2.8585C7.26475 2.891 7.20625 2.92425 7.14625 2.95875C7.131 2.97 7.117 2.98075 7.1025 2.9915C7.148 2.9625 7.223 2.917 7.322 2.8585ZM8.885 2.058C8.77975 2.103 8.6845 2.15275 8.60475 2.19075L8.55075 2.24625C8.655 2.2015 8.76 2.15425 8.866 2.11075C8.9 2.08125 8.90625 2.0635 8.885 2.058ZM8.48875 2.24875C8.493 2.2525 8.48875 2.26075 8.4735 2.27425L8.5655 2.21C8.53675 2.2245 8.513 2.2365 8.48875 2.24875ZM5.08075 6.11575C4.90625 6.28575 4.74125 6.42675 4.655 6.59375C4.84175 6.40025 4.64325 6.71275 4.681 6.7055C4.74625 6.61975 4.781 6.53975 4.73075 6.4915L4.81075 6.55525L5.08075 6.11575ZM5.306 5.61075C5.252 5.6575 5.17475 5.72675 5.09075 5.806C4.9385 5.965 4.8005 6.1635 4.64075 6.3465C4.605 6.4125 4.59275 6.46875 4.61775 6.49925C4.49625 6.60925 4.3765 6.7135 4.25625 6.8175C4.1995 6.9465 4.34275 6.8155 4.3125 6.9495C4.22825 6.99625 4.16425 7.08775 4.11 7.18725C4.1455 7.1615 4.1805 7.139 4.21475 7.1195C4.145 7.2175 4.07275 7.313 4.00025 7.409C3.9815 7.4485 3.9665 7.48775 3.94875 7.5195C3.916 7.56625 3.95975 7.70025 4.02175 7.6715C4.0495 7.59825 4.0735 7.5225 4.1045 7.4505L4.19925 7.2345C4.235 7.28025 4.3485 7.26575 4.4245 7.118C4.348 7.11775 4.37075 7.06025 4.43275 6.9825C4.3535 7.043 4.2855 7.08 4.21475 7.1195C4.267 7.0485 4.31325 6.973 4.369 6.90325C4.42375 6.83275 4.4775 6.76125 4.53075 6.6885C4.58325 6.61525 4.63625 6.54125 4.6895 6.4665C4.74625 6.39425 4.80225 6.32 4.85775 6.244C5.10175 6.04675 5.23625 5.83675 5.2885 5.67C5.24125 5.7115 5.22975 5.719 5.297 5.641C5.3 5.631 5.30325 5.62 5.306 5.61075ZM8.72475 2.75775C8.541 2.84375 8.3665 2.942 8.19025 3.02825C8.0165 3.11875 7.8485 3.212 7.68125 3.2965C7.6005 3.38475 7.5205 3.47025 7.42575 3.55325L7.31475 3.5175C7.40525 3.4755 7.461 3.436 7.50925 3.39275L7.492 3.40225C7.3045 3.488 7.1785 3.548 7.07 3.61225C7.152 3.63775 7.25825 3.519 7.00375 3.76175C6.94525 3.77375 6.9465 3.7235 6.9345 3.6905C6.83875 3.74775 6.73525 3.80575 6.59975 3.89675C6.60625 3.9115 6.62175 3.925 6.65125 3.924C6.589 3.97275 6.519 4.0275 6.44625 4.0845C6.4155 4.148 6.3705 4.21225 6.26225 4.3095C6.33525 4.266 6.4105 4.2255 6.4875 4.18725C6.37775 4.2705 6.20275 4.4575 6.05775 4.49325C6.14025 4.433 6.27775 4.2825 6.34525 4.16425C6.25275 4.24125 6.15875 4.32625 6.06175 4.40925C5.96425 4.49175 5.867 4.57575 5.77675 4.662L5.7895 4.6595L5.7295 4.705C5.65875 4.76925 5.589 4.8315 5.52225 4.88825C5.52575 5.06775 5.91375 4.51 5.927 4.67325C5.896 4.81925 5.775 4.8745 5.657 4.934C5.53725 4.99075 5.43 5.06175 5.428 5.21525C6.078 4.566 6.8725 3.92875 7.7335 3.35725C7.89725 3.25575 8.05825 3.14825 8.224 3.04875C8.39125 2.95275 8.55425 2.8475 8.72525 2.7575L8.72475 2.75775ZM13.019 0.699003C12.9415 0.732503 12.8638 0.764503 12.787 0.799503C12.991 0.754003 13.1868 0.734003 13.3613 0.762753C13.5528 0.695253 13.191 0.718253 13.2423 0.672503C13.1698 0.679503 13.0943 0.688753 13.019 0.699003ZM2.0615 9.37875C2.038 9.4065 1.969 9.5735 1.904 9.77C1.9245 9.73325 1.94625 9.72725 1.974 9.78075L1.98625 9.751C2.01325 9.64475 2.04225 9.5365 2.0835 9.437C2.077 9.34475 2.0265 9.32275 2.17025 8.91825L2.32725 8.77875C2.22275 9.0195 2.16275 9.19925 2.1175 9.35975C2.12825 9.337 2.13875 9.31375 2.1505 9.29225C2.30775 8.85175 2.45475 8.37325 2.66325 7.9015C2.66825 7.864 2.68075 7.8065 2.68275 7.7745C2.60625 7.93425 2.50725 8.11 2.43125 8.281C2.35425 8.44975 2.289 8.60325 2.25375 8.70425C2.251 8.6345 2.24875 8.5645 2.24775 8.494C2.06825 8.7445 2.10575 8.97825 1.923 9.3175C1.85175 9.69675 2.0945 9.163 2.0615 9.37825V9.37875ZM2.259 12.8605C2.24975 12.9035 2.24325 12.9523 2.23625 13.0003C2.239 13.0338 2.2415 13.0678 2.24425 13.104L2.2145 13.261V13.265C2.269 13.3058 2.25375 13.0718 2.259 12.8605ZM2.364 13.697C2.34575 13.512 2.344 13.3188 2.35875 13.156C2.37275 13.2143 2.37225 13.38 2.381 13.5283L2.39025 13.5308C2.3915 13.4728 2.39675 13.4093 2.40025 13.345C2.39325 13.0983 2.40275 12.843 2.41 12.599L2.437 12.6423L2.442 12.3428L2.43175 12.363C2.4365 12.3363 2.44175 12.2638 2.44825 12.1608C2.434 12.1135 2.418 12.0713 2.40275 12.036C2.43325 12.0005 2.41475 11.979 2.4515 12.0218C2.45325 12.0168 2.455 12.0128 2.4565 12.0078C2.461 11.9083 2.4735 11.795 2.48375 11.673C2.4575 11.546 2.41875 11.4033 2.441 11.173C2.40375 11.3133 2.369 11.4648 2.3405 11.6323C2.3395 11.6855 2.33575 11.7465 2.32825 11.818C2.35875 11.693 2.3865 11.5685 2.42175 11.4453C2.40275 11.581 2.38975 11.7943 2.35925 11.9793C2.38425 12.098 2.465 11.9983 2.38425 12.3453C2.36375 12.2543 2.40975 11.8938 2.34625 12.1045C2.34425 12.095 2.344 12.085 2.343 12.075C2.3305 12.1373 2.31575 12.1943 2.29675 12.2393C2.31125 12.14 2.3115 11.9735 2.3125 11.8135C2.273 12.0805 2.24825 12.3695 2.22875 12.6695C2.2395 12.6813 2.251 12.6935 2.263 12.7003C2.27175 12.5918 2.28925 12.5265 2.32625 12.5805C2.4005 12.7758 2.3585 12.9613 2.3215 13.1485C2.287 13.3345 2.2555 13.5223 2.3635 13.697H2.364ZM2.9925 15.5128C3.003 15.5103 3.0085 15.502 3.0125 15.4928C2.984 15.404 2.959 15.3138 2.93175 15.224C2.9045 15.1345 2.8775 15.0445 2.85675 14.9528L2.851 14.971C2.85125 14.9413 2.828 14.8425 2.7965 14.7115C2.75125 14.6715 2.70975 14.6303 2.66725 14.5888C2.729 14.7323 2.78325 14.898 2.82625 15.0628C2.8785 15.2255 2.92625 15.3863 2.9925 15.5125V15.5128ZM3.13075 15.8303L3.03225 15.5483C3.0295 15.5888 3.0305 15.6438 3.061 15.8385L3.131 15.8303H3.13075ZM3.10925 15.9008C3.09375 15.88 3.08 15.864 3.06325 15.8543C3.0665 15.8728 3.06825 15.8908 3.07325 15.9113L3.10925 15.9008ZM3.22475 16.208C3.19925 16.1058 3.1705 16.0135 3.13675 15.9468C3.1425 16.0288 3.186 16.126 3.22475 16.208ZM3.36225 17.0113L3.493 17.1538C3.553 17.1555 3.5885 17.0288 3.4795 16.8093C3.4495 16.8685 3.41575 16.833 3.37775 16.748C3.34175 16.6625 3.3095 16.5248 3.271 16.3855C3.25825 16.3863 3.2395 16.382 3.21175 16.371C3.206 16.321 3.20375 16.27 3.202 16.219L3.13025 16.262C3.1695 16.3568 3.22075 16.4465 3.26525 16.5388C3.312 16.6298 3.3545 16.7225 3.40725 16.8103C3.328 16.783 3.467 17.0458 3.3625 17.0113H3.36225ZM3.8805 17.762C3.7465 17.5805 3.6315 17.387 3.51125 17.1945C3.47975 17.2355 3.41525 17.1798 3.35 17.098C3.39425 17.2083 3.46125 17.3135 3.521 17.4155C3.55925 17.4573 3.585 17.4853 3.585 17.4853L3.558 17.4775C3.5955 17.4983 3.648 17.5873 3.72025 17.6903C3.71275 17.6995 3.7055 17.7073 3.698 17.7128C3.71025 17.7278 3.72625 17.742 3.7435 17.755C3.738 17.7388 3.73325 17.7213 3.72875 17.7028C3.74425 17.7265 3.76025 17.7513 3.7765 17.7763C3.82925 17.8058 3.88225 17.8125 3.88025 17.7618L3.8805 17.762ZM9.10325 22.3558C9.09225 22.349 9.08225 22.343 9.0715 22.3368L9.0105 22.315C9.041 22.33 9.071 22.3443 9.0995 22.3565C9.10125 22.356 9.1015 22.356 9.10325 22.3558ZM9.94675 22.5848L9.93825 22.579C9.9185 22.577 9.8995 22.575 9.88025 22.573C9.90325 22.577 9.924 22.5808 9.94675 22.5848ZM10.0175 22.5308C9.80125 22.476 9.592 22.4293 9.4085 22.4155L9.66725 22.5055C9.557 22.4743 9.44475 22.4423 9.3315 22.4103C9.30975 22.4093 9.28925 22.4085 9.26875 22.4078L9.233 22.4093C9.342 22.4388 9.4555 22.4693 9.568 22.4993C9.63675 22.507 9.7085 22.515 9.78325 22.5235C9.85875 22.5258 9.93675 22.528 10.0175 22.5305V22.5308ZM11.264 22.8115C11.1138 22.7965 10.9615 22.7745 10.8083 22.7553C10.6558 22.733 10.5005 22.7218 10.3503 22.6825L10.2985 22.6958C10.3688 22.709 10.4393 22.7278 10.5105 22.7398C10.5823 22.75 10.6535 22.7603 10.7235 22.7703C10.8635 22.7898 10.9985 22.807 11.1188 22.8128L11.1323 22.8133C11.179 22.8145 11.2225 22.8168 11.264 22.8115ZM11.8945 22.8218H11.88L11.7883 22.8638C11.8615 22.8568 11.9365 22.85 12.013 22.8428C12.0893 22.8295 12.167 22.8168 12.2463 22.8055C12.2378 22.803 12.2288 22.8008 12.221 22.7975C12.1218 22.774 12.2588 22.7473 12.3108 22.7285C12.1443 22.7458 11.9868 22.7683 11.8365 22.7688C11.8223 22.7828 11.8348 22.799 11.8813 22.8163C11.8893 22.8148 11.8968 22.8128 11.9043 22.8105L11.8865 22.8185C11.8895 22.82 11.891 22.8203 11.8943 22.8218H11.8945ZM13.0428 22.7565C13.0423 22.7443 13.032 22.7363 13.0163 22.7318C12.943 22.7508 12.8678 22.7703 12.7938 22.7895C12.7458 22.831 12.565 22.845 12.348 22.869C12.2393 22.8798 12.1213 22.8913 12.0055 22.9028C11.8895 22.9045 11.7753 22.9083 11.6748 22.9153L11.6545 22.9245C11.751 22.9243 11.8443 22.9243 11.9383 22.924C12.0338 22.923 12.1305 22.9018 12.2278 22.8933C12.3245 22.8823 12.4215 22.8715 12.5168 22.8608C12.6113 22.848 12.705 22.8438 12.793 22.8218C12.881 22.8015 12.9648 22.78 13.0425 22.7568L13.0428 22.7565ZM13.8663 22.5985C13.747 22.595 13.4243 22.643 13.4778 22.6143C13.3815 22.638 13.235 22.6693 13.0753 22.7155C13.1125 22.7193 13.1438 22.7235 13.2218 22.723C13.3 22.7225 13.426 22.7228 13.6483 22.6848L13.647 22.6728L13.421 22.6968C13.4985 22.6775 13.5728 22.6623 13.6443 22.6505L13.64 22.6168C13.7018 22.626 13.782 22.6163 13.8663 22.5983V22.5985ZM14.8165 22.8208C14.8058 22.8183 14.8033 22.8135 14.8053 22.8078C14.7623 22.8183 14.723 22.8275 14.6753 22.8393L14.6603 22.8495L14.6735 22.8398C14.618 22.854 14.5653 22.8678 14.5015 22.8843C14.4945 22.8978 14.5185 22.8988 14.5545 22.8948C14.5948 22.8823 14.6305 22.8678 14.6603 22.8495L14.6098 22.8865C14.6358 22.8813 14.6633 22.8758 14.6945 22.8693C14.7325 22.8543 14.7758 22.837 14.8165 22.8208ZM14.9155 22.7748L14.9113 22.776C14.8455 22.8048 14.8123 22.8183 14.8193 22.8198C14.8523 22.807 14.8803 22.79 14.9155 22.7748ZM15.2015 22.2303C14.9238 22.249 14.6808 22.3878 14.3698 22.5018C14.3648 22.509 14.361 22.515 14.354 22.524L14.2988 22.5298C14.2518 22.5478 14.2033 22.566 14.154 22.5848L14.16 22.5955C14.2078 22.5885 14.2525 22.5818 14.2943 22.5758L14.6708 22.4353C14.7943 22.3843 14.9148 22.3248 15.0365 22.2703C15.0293 22.2808 15.0295 22.2875 15.0343 22.2913C15.0873 22.272 15.1433 22.2518 15.2015 22.2305V22.2303ZM17.7635 21.8318C17.697 21.8603 17.627 21.8835 17.5495 21.9143C17.4405 22.0018 17.1898 22.1728 17.1943 22.202C17.386 22.09 17.5705 21.9645 17.7633 21.8318H17.7635ZM20.7903 15.8735C20.768 15.952 20.7433 16.0345 20.7168 16.1185C20.7473 16.1378 20.7088 16.3318 20.8403 15.9735C20.8373 15.9275 20.8515 15.8188 20.7903 15.8735ZM21.3425 12.8285C21.3545 12.9353 21.3543 13.0415 21.3558 13.1483L21.3608 13.4695C21.335 13.4513 21.298 13.4635 21.2665 13.508C21.2358 13.5528 21.2108 13.6298 21.1973 13.7418C21.3078 13.677 21.2435 13.8955 21.1798 14.137C21.1513 14.2585 21.1093 14.383 21.0913 14.484C21.074 14.585 21.0798 14.6625 21.132 14.6863L21.0343 14.6545C21.0075 14.925 20.9455 15.1883 20.895 15.4565L20.9145 15.4373C20.9065 15.434 20.894 15.4788 20.8775 15.5545C20.859 15.6295 20.829 15.7333 20.7968 15.8508C20.9448 15.5973 21.0433 15.293 21.1533 14.9728C21.237 14.646 21.3273 14.3 21.3745 13.9393C21.369 13.9283 21.3645 13.911 21.361 13.8845C21.374 13.8633 21.3843 13.839 21.3945 13.8148C21.434 13.612 21.4413 13.4043 21.4668 13.1983C21.4673 13.1165 21.4683 13.04 21.4743 12.9748C21.4853 12.8985 21.3848 12.7575 21.3428 12.8283L21.3425 12.8285ZM22.4038 10.071L22.4023 10.0625C22.4023 10.0625 22.4015 10.0648 22.4008 10.0655L22.4038 10.071ZM20.809 7.75975C20.8058 7.77275 20.8105 7.79875 20.8238 7.83925C20.8218 7.81525 20.8173 7.78925 20.809 7.75975ZM20.1665 6.42925C20.3833 6.806 20.4525 6.9955 20.623 7.33725L20.7045 7.341C20.7055 7.339 20.7065 7.33675 20.708 7.335C20.5508 7.029 20.3665 6.713 20.1668 6.42925H20.1665ZM20.622 6.08175C20.6653 6.16475 20.7088 6.24275 20.744 6.3215C20.7675 6.33625 20.7925 6.35375 20.818 6.3725C20.7555 6.259 20.681 6.1545 20.622 6.08175ZM19.5228 6.05925C19.569 6.1535 19.6248 6.239 19.6848 6.31625C19.7448 6.3935 19.804 6.466 19.8655 6.528C19.82 6.4545 19.7758 6.38 19.7278 6.307C19.6783 6.235 19.6285 6.1625 19.5785 6.0895L19.5225 6.05925H19.5228ZM19.3788 5.28675L19.351 5.3565C19.4378 5.4455 19.5125 5.53475 19.5893 5.6165C19.6648 5.69925 19.7393 5.7765 19.8063 5.85625C19.7345 5.64925 19.654 5.60775 19.5848 5.56425C19.5125 5.5225 19.451 5.4795 19.3785 5.287L19.3788 5.28675ZM19.3283 5.22025C19.347 5.24125 19.3605 5.25525 19.3705 5.2645C19.3693 5.2615 19.3685 5.25925 19.3673 5.256C19.3515 5.24175 19.3388 5.23 19.3283 5.22025ZM19.0403 4.8855C19.147 5.006 19.23 5.10475 19.2878 5.17375C19.2975 5.1645 19.3063 5.1545 19.3123 5.14175C19.2335 5.062 19.156 4.9835 19.082 4.9085C19.0693 4.90375 19.0538 4.89375 19.0403 4.8855ZM17.892 4.15325C17.7913 4.05175 17.6873 3.95375 17.5843 3.85575C17.4828 3.75625 17.378 3.661 17.2755 3.56425C17.1683 3.531 17.5585 3.898 17.4903 3.873C17.5735 3.94825 17.7353 4.042 17.892 4.1535V4.15325ZM18.384 4.17225C18.3913 4.14775 18.4013 4.1265 18.4128 4.107C18.3798 4.07375 18.3485 4.0395 18.315 4.00725C18.3235 4.048 18.3555 4.112 18.382 4.17L18.384 4.172V4.17225ZM18.5155 4.3075C18.5198 4.3 18.525 4.29475 18.5295 4.2925C18.4928 4.26425 18.4548 4.235 18.417 4.206C18.4503 4.2405 18.4835 4.2745 18.5155 4.3075ZM18.7433 4.459L18.8088 4.52125L18.8065 4.51675L18.749 4.455C18.7453 4.45425 18.7455 4.458 18.7433 4.459ZM18.7388 4.485C18.7448 4.512 18.7605 4.55 18.763 4.57325C18.7895 4.60225 18.8143 4.629 18.8393 4.6565C18.8148 4.60425 18.7833 4.5475 18.7385 4.485H18.7388ZM18.3535 4.6175C18.3935 4.721 18.0808 4.44125 18.3103 4.70275C18.4493 4.83525 18.5733 4.91125 18.576 4.85575L18.3535 4.6175ZM18.4285 3.60275C18.5858 3.7805 18.6835 3.89125 18.8195 4.04525C18.8693 4.06125 18.9235 4.084 18.9808 4.11325C18.802 3.94 18.62 3.767 18.4285 3.60275ZM17.673 3.45275C17.7823 3.5375 17.9105 3.677 18.024 3.79175C18.1358 3.909 18.235 3.99975 18.2928 3.9855L18.1778 3.87375C18.0695 3.77725 17.9603 3.6845 17.8468 3.59325C17.789 3.5465 17.732 3.49825 17.673 3.45275ZM17.3385 3.19625C17.345 3.20425 17.3523 3.2115 17.358 3.21975C17.4463 3.296 17.5343 3.37225 17.6218 3.44775L17.6628 3.44475C17.5545 3.362 17.448 3.27725 17.3385 3.1965V3.19625ZM16.8435 3.1635C16.7188 3.10925 16.6088 3.05175 16.4928 2.99025C16.6528 3.125 16.8555 3.2275 17.0715 3.3745C16.995 3.304 16.9188 3.23325 16.8435 3.1635ZM16.8623 2.95225L16.737 2.8875C16.8895 2.9985 16.9793 3.0585 16.9663 3.03625C16.932 3.0085 16.8973 2.9805 16.8623 2.95225ZM16.4573 2.66825C16.4945 2.7045 16.524 2.7315 16.5505 2.7555C16.6055 2.79425 16.6578 2.83125 16.704 2.86375L16.7793 2.88575C16.7583 2.86875 16.7368 2.85125 16.7158 2.83425C16.623 2.77725 16.5345 2.7215 16.4573 2.6685V2.66825ZM15.9645 2.713L15.9523 2.70625L15.9513 2.70725L15.9645 2.713ZM16.1303 2.773C16.0823 2.7415 16.0323 2.70825 15.9788 2.673L15.9613 2.695L15.9943 2.72575C16.041 2.74625 16.0868 2.76225 16.1303 2.77325V2.773ZM16.0903 2.43225C16.0918 2.4345 16.0953 2.438 16.0963 2.44C16.1313 2.464 16.1643 2.48675 16.198 2.51C16.1625 2.4845 16.1268 2.4585 16.0903 2.4325V2.43225ZM15.814 2.56325L15.8453 2.59125L15.8608 2.59425C15.8448 2.58375 15.8305 2.57425 15.814 2.56325ZM15.7033 2.501C15.725 2.5195 15.7488 2.53775 15.7735 2.55575C15.7653 2.545 15.7443 2.528 15.7033 2.501ZM15.6653 2.11725C15.6855 2.1375 15.717 2.1625 15.7535 2.189C15.7793 2.19625 15.7968 2.1985 15.8063 2.19625C15.7595 2.17 15.712 2.1435 15.6653 2.11725ZM12.4528 0.703253C12.834 0.864503 13.2483 1.0445 13.7885 1.28125C13.8613 1.18575 14.1613 1.438 14.309 1.38025C14.0713 1.25775 14.1968 1.31875 14.4923 1.47525C14.464 1.44975 14.4333 1.426 14.402 1.40275C14.3288 1.359 14.257 1.31575 14.1848 1.27275C14.1495 1.2795 14.125 1.2885 14.1148 1.29025L14.1253 1.23825L14.0985 1.223C13.8215 1.0915 13.501 0.999253 13.2043 0.907503C12.9068 0.815003 12.632 0.722503 12.4345 0.569253C12.217 0.537253 12.6365 0.722253 12.4528 0.703253ZM11.974 0.504753L12.0538 0.537003C12.0518 0.529003 12.0515 0.522253 12.0538 0.518253C12.0275 0.514003 12.0005 0.509253 11.974 0.504753Z" fill="#69DDFF"/>
</g>
<path d="M6.91324 4.51101C6.96474 4.51201 7.05499 4.45826 7.23324 4.30176C7.20274 4.31276 7.15624 4.33626 7.10124 4.37251C7.04724 4.40976 6.98324 4.45726 6.91324 4.51101Z" fill="#69DDFF"/>
<path d="M4.81425 6.481C4.81425 6.481 4.8145 6.48075 4.8155 6.47925L4.772 6.514C4.787 6.5035 4.79975 6.49225 4.81425 6.481Z" fill="#69DDFF"/>
<path d="M22.3462 14.5138L22.3257 14.5558C22.3337 14.542 22.339 14.5293 22.3457 14.5155V14.5138H22.3462Z" fill="#69DDFF"/>
<path d="M2.24951 13.0778L2.24426 13.1043C2.24676 13.1403 2.24926 13.1778 2.24926 13.2183L2.24951 13.0778Z" fill="#69DDFF"/>
<path d="M3.72 17.6903C3.723 17.6948 3.72575 17.6985 3.72875 17.703C3.727 17.6973 3.72575 17.692 3.72425 17.686C3.7225 17.6878 3.72175 17.6888 3.72 17.6903Z" fill="#69DDFF"/>
<path d="M6.77 3.98874C6.717 4.02524 6.655 4.07124 6.58725 4.12324C6.6385 4.12349 6.729 4.07299 6.90425 3.91399C6.899 3.91574 6.89125 3.91999 6.8855 3.92249C6.93825 3.87499 6.9985 3.82099 7.06825 3.79224C6.973 3.84224 6.77375 3.88799 6.77 3.98899V3.98874Z" fill="#69DDFF"/>
<path d="M7.01151 4.30975C7.00276 4.325 6.98951 4.3435 6.97476 4.363C6.99126 4.352 7.00726 4.34 7.02226 4.326L7.01151 4.30975Z" fill="#69DDFF"/>
<path d="M6.98474 4.269L7.01149 4.30975C7.02999 4.278 7.03024 4.2585 6.98474 4.269Z" fill="#69DDFF"/>
<path d="M13.943 1.63825C13.943 1.636 13.9438 1.6345 13.9438 1.63225C13.937 1.62925 13.9308 1.62675 13.924 1.62375C13.9305 1.62875 13.9363 1.63325 13.943 1.63825Z" fill="#69DDFF"/>
<path d="M13.3672 1.38525C13.5422 1.45575 13.7487 1.54675 13.924 1.62375C13.7495 1.4875 13.6145 1.4605 13.3672 1.38525Z" fill="#69DDFF"/>
<path d="M19.33 18.5083L19.3442 18.5215C19.3522 18.5003 19.3647 18.4735 19.379 18.4448C19.3617 18.465 19.3452 18.4855 19.33 18.5083Z" fill="#69DDFF"/>
<path d="M19.3442 18.5215C19.3277 18.566 19.33 18.5877 19.38 18.5547L19.3442 18.5215Z" fill="#69DDFF"/>
<path d="M19.7175 17.984L19.526 18.2478C19.4737 18.2033 19.4477 18.181 19.5667 18.022C19.517 18.0455 19.4492 18.2145 19.4022 18.306L19.45 18.249C19.4417 18.297 19.4067 18.3763 19.379 18.4448C19.5492 18.2133 19.8172 18.125 19.7175 17.984Z" fill="#69DDFF"/>
<path d="M19.905 17.5625C19.841 17.6693 19.6915 17.9308 19.8133 17.9003L19.905 17.5625Z" fill="#69DDFF"/>
</g>
<defs>
<clipPath id="clip0_4965_2482">
<rect width="24" height="24" fill="white"/>
</clipPath>
</defs>
</svg>
