<svg width="60" height="60" viewBox="0 0 60 60" fill="none" xmlns="http://www.w3.org/2000/svg">
<mask id="mask0_4936_9473" style="mask-type:luminance" maskUnits="userSpaceOnUse" x="4" y="1" width="52" height="58">
<path d="M4.57495 1.6H55.4549V58.3519H4.57495V1.6Z" fill="white"/>
</mask>
<g mask="url(#mask0_4936_9473)">
<path d="M53.4667 28.8825H34.5124V20.3406H53.4667V28.8825ZM49.9805 56.4419H34.5124V30.8387H49.9805V56.4419ZM27.4399 56.4419V30.8387H32.5561V56.4419H27.4399ZM10.0155 30.8387H25.4836V56.4419H10.0155V30.8387ZM6.52925 20.3406H25.4836V28.8825H6.52925V20.3406ZM12.5599 9.01437C12.3561 7.73937 13.8274 6.25375 14.9017 5.16937C15.908 4.15375 16.7917 3.66312 17.683 3.62562C18.7949 3.57937 20.0711 4.26312 21.4799 5.65875C23.0086 7.17312 25.3255 10.0175 27.0542 12.9569C27.8867 14.3725 28.4699 15.6344 28.7405 16.6062C28.8536 17.0131 28.9036 17.34 28.9117 17.5919L15.1867 11.5537C14.0761 10.9806 12.7292 10.08 12.5599 9.01437ZM31.153 16.6062C31.423 15.6344 32.0067 14.3725 32.8392 12.9569C34.5674 10.0175 36.8849 7.17312 38.4136 5.65875C39.8224 4.26312 41.1005 3.58 42.2105 3.62562C43.1024 3.66312 43.9861 4.15375 44.9911 5.16937C46.0655 6.25375 47.5374 7.73937 47.3342 9.01437C47.1636 10.08 45.8174 10.9806 44.7067 11.5537L30.9817 17.5919C30.9905 17.34 31.0399 17.0131 31.153 16.6062ZM32.5561 28.8825H27.4399V20.3406H32.5561V28.8825ZM54.4449 18.385H34.0374L45.5217 13.3319C45.5392 13.3244 45.5567 13.3162 45.5742 13.3075C47.813 12.1594 49.0211 10.8562 49.2655 9.3225C49.6255 7.0675 47.7505 5.17437 46.3811 3.7925C45.0255 2.42375 43.688 1.73 42.2924 1.67125C40.5936 1.60062 38.8742 2.44937 37.0367 4.26875C35.0911 6.19625 32.7267 9.28875 31.153 11.9644C30.6699 12.7862 30.2674 13.5537 29.9467 14.2637C29.6261 13.5537 29.2236 12.7862 28.7405 11.9644C27.1667 9.28875 24.8017 6.19625 22.8567 4.26875C21.0199 2.45 19.3005 1.6 17.6011 1.67125C16.2055 1.73 14.868 2.42375 13.5124 3.7925C12.143 5.17437 10.268 7.0675 10.628 9.3225C10.8724 10.8562 12.0799 12.1594 14.3199 13.3075C14.3367 13.3162 14.3542 13.3244 14.3717 13.3319L25.8561 18.385H5.55112C5.01112 18.385 4.573 18.8225 4.573 19.3631V29.8606C4.573 30.4012 5.01112 30.8387 5.55112 30.8387H8.05925V57.42C8.05925 57.96 8.49737 58.3981 9.03737 58.3981H50.9586C51.4986 58.3981 51.9367 57.96 51.9367 57.42V30.8387H54.4449C54.9855 30.8387 55.423 30.4012 55.423 29.8606V19.3631C55.423 18.8225 54.9855 18.385 54.4449 18.385Z" fill="#861FEF"/>
</g>
</svg>
