<svg width="61" height="72" viewBox="0 0 61 72" fill="none" xmlns="http://www.w3.org/2000/svg">
<g clip-path="url(#clip0_4959_1309)">
<mask id="mask0_4959_1309" style="mask-type:luminance" maskUnits="userSpaceOnUse" x="0" y="29" width="29" height="29">
<path d="M0.659912 29.84H28.6599V57.96H0.659912V29.84Z" fill="white"/>
</mask>
<g mask="url(#mask0_4959_1309)">
<path d="M14.6724 57.9019C14.4437 57.9019 14.2155 57.8962 13.9868 57.885C13.7587 57.8737 13.5312 57.8569 13.3037 57.8344C13.0762 57.8125 12.8493 57.7844 12.623 57.7506C12.3968 57.7169 12.1718 57.6781 11.948 57.6337C11.7237 57.5887 11.5005 57.5387 11.2793 57.4831C11.0574 57.4275 10.8368 57.3669 10.618 57.3006C10.3999 57.2344 10.1824 57.1625 9.96741 57.0856C9.75241 57.0087 9.53929 56.9262 9.32804 56.8387C9.11679 56.7512 8.90804 56.6587 8.70116 56.5612C8.49491 56.4631 8.29054 56.3606 8.08929 56.2531C7.88741 56.145 7.68866 56.0325 7.49241 55.915C7.29679 55.7975 7.10366 55.675 6.91366 55.5481C6.72366 55.4212 6.53679 55.29 6.35304 55.1537C6.16929 55.0175 5.98929 54.8769 5.81241 54.7319C5.63616 54.5869 5.46304 54.4375 5.29366 54.2844C5.12429 54.1306 4.95866 53.9731 4.79741 53.8112C4.63554 53.65 4.47804 53.4844 4.32429 53.315C4.17116 53.1456 4.02179 52.9725 3.87679 52.7962C3.73179 52.6194 3.59116 52.4394 3.45491 52.2556C3.31866 52.0719 3.18741 51.885 3.06054 51.695C2.93366 51.505 2.81116 51.3119 2.69366 51.1162C2.57616 50.92 2.46366 50.7212 2.35554 50.5194C2.24804 50.3181 2.14554 50.1137 2.04741 49.9075C1.94991 49.7006 1.85741 49.4919 1.76991 49.2806C1.68241 49.0694 1.59991 48.8562 1.52304 48.6412C1.44616 48.4262 1.37429 48.2087 1.30804 47.9906C1.24179 47.7719 1.18116 47.5512 1.12554 47.3294C1.06991 47.1081 1.01991 46.885 0.974912 46.6606C0.930537 46.4369 0.891787 46.2119 0.858037 45.9856C0.824287 45.7594 0.796162 45.5325 0.774287 45.305C0.751787 45.0775 0.734912 44.85 0.723662 44.6219C0.712412 44.3931 0.706787 44.165 0.706787 43.9362C0.706787 43.7075 0.712412 43.4794 0.723662 43.2512C0.734912 43.0225 0.751787 42.795 0.774287 42.5675C0.796162 42.34 0.824287 42.1131 0.858037 41.8869C0.891787 41.6612 0.930537 41.4362 0.974912 41.2119C1.01991 40.9875 1.06991 40.765 1.12554 40.5431C1.18116 40.3212 1.24179 40.1012 1.30804 39.8825C1.37429 39.6637 1.44616 39.4469 1.52304 39.2312C1.59991 39.0162 1.68241 38.8031 1.76991 38.5919C1.85741 38.3806 1.94991 38.1719 2.04741 37.9656C2.14554 37.7587 2.24804 37.5544 2.35554 37.3531C2.46366 37.1512 2.57616 36.9525 2.69366 36.7569C2.81116 36.5606 2.93366 36.3675 3.06054 36.1775C3.18741 35.9875 3.31866 35.8006 3.45491 35.6169C3.59116 35.4337 3.73179 35.2531 3.87679 35.0769C4.02179 34.9 4.17116 34.7269 4.32429 34.5575C4.47804 34.3881 4.63554 34.2231 4.79741 34.0612C4.95866 33.8994 5.12429 33.7419 5.29366 33.5887C5.46304 33.435 5.63616 33.2856 5.81241 33.1406C5.98929 32.9956 6.16929 32.855 6.35304 32.7194C6.53679 32.5831 6.72366 32.4512 6.91366 32.3244C7.10366 32.1975 7.29679 32.075 7.49241 31.9575C7.68866 31.84 7.88741 31.7275 8.08929 31.62C8.29054 31.5119 8.49491 31.4094 8.70116 31.3119C8.90804 31.2137 9.11679 31.1212 9.32804 31.0337C9.53929 30.9462 9.75241 30.8644 9.96741 30.7875C10.1824 30.71 10.3999 30.6387 10.6187 30.5719C10.8368 30.5056 11.0574 30.445 11.2793 30.3894C11.5005 30.3337 11.7237 30.2837 11.948 30.2394C12.1718 30.1944 12.3968 30.1556 12.623 30.1219C12.8493 30.0887 13.0762 30.0606 13.3037 30.0381C13.5312 30.0156 13.7587 29.9987 13.9868 29.9875C14.2155 29.9762 14.4437 29.9706 14.6724 29.9706C14.9012 29.9706 15.1293 29.9762 15.3574 29.9875C15.5862 29.9987 15.8137 30.0156 16.0412 30.0381C16.2687 30.0606 16.4955 30.0887 16.7218 30.1219C16.9474 30.1556 17.1724 30.1944 17.3968 30.2394C17.6212 30.2837 17.8437 30.3337 18.0655 30.3894C18.2874 30.445 18.5074 30.5056 18.7262 30.5719C18.9449 30.6387 19.1618 30.71 19.3774 30.7875C19.5924 30.8644 19.8055 30.9462 20.0168 31.0337C20.228 31.1212 20.4368 31.2137 20.6437 31.3119C20.8499 31.4094 21.0543 31.5119 21.2555 31.62C21.4574 31.7275 21.6562 31.84 21.8518 31.9575C22.048 32.075 22.2412 32.1975 22.4312 32.3244C22.6212 32.4512 22.808 32.5831 22.9918 32.7194C23.1749 32.855 23.3555 32.9956 23.5318 33.1406C23.7087 33.2856 23.8818 33.435 24.0512 33.5887C24.2205 33.7419 24.3855 33.8994 24.5474 34.0612C24.7093 34.2231 24.8668 34.3881 25.0199 34.5575C25.1737 34.7269 25.323 34.9 25.468 35.0769C25.613 35.2531 25.7537 35.4337 25.8893 35.6169C26.0255 35.8006 26.1574 35.9875 26.2843 36.1775C26.4112 36.3675 26.5337 36.5606 26.6512 36.7569C26.7687 36.9525 26.8812 37.1512 26.9887 37.3531C27.0968 37.5544 27.1993 37.7587 27.2968 37.9656C27.3949 38.1719 27.4874 38.3806 27.5749 38.5919C27.6624 38.8031 27.7443 39.0162 27.8212 39.2312C27.8987 39.4469 27.9699 39.6637 28.0368 39.8825C28.103 40.1012 28.1637 40.3212 28.2193 40.5431C28.2749 40.765 28.3249 40.9875 28.3693 41.2119C28.4143 41.4362 28.453 41.6612 28.4868 41.8869C28.5199 42.1131 28.548 42.34 28.5705 42.5675C28.593 42.795 28.6099 43.0225 28.6212 43.2512C28.6324 43.4794 28.638 43.7075 28.638 43.9362C28.6374 44.165 28.6318 44.3931 28.6205 44.6212C28.6087 44.8494 28.5918 45.0775 28.5693 45.305C28.5468 45.5319 28.5187 45.7587 28.4849 45.985C28.4512 46.2106 28.4118 46.4356 28.3668 46.66C28.3224 46.8837 28.2718 47.1069 28.2162 47.3281C28.1605 47.55 28.0993 47.77 28.033 47.9887C27.9668 48.2075 27.8949 48.4237 27.8174 48.6394C27.7405 48.8544 27.658 49.0675 27.5705 49.2781C27.483 49.4894 27.3905 49.6981 27.2924 49.9044C27.1949 50.1112 27.0924 50.315 26.9843 50.5169C26.8768 50.7181 26.7637 50.9169 26.6462 51.1125C26.5287 51.3087 26.4068 51.5019 26.2793 51.6912C26.1524 51.8812 26.0212 52.0681 25.8849 52.2519C25.7487 52.435 25.608 52.615 25.463 52.7919C25.318 52.9687 25.1687 53.1412 25.0155 53.3106C24.8618 53.48 24.7043 53.6456 24.543 53.8069C24.3812 53.9687 24.2162 54.1262 24.0468 54.2794C23.8774 54.4331 23.7043 54.5819 23.528 54.7269C23.3512 54.8719 23.1712 55.0125 22.9874 55.1487C22.8043 55.285 22.6174 55.4162 22.4274 55.5437C22.2374 55.6706 22.0449 55.7925 21.8487 55.9106C21.653 56.0281 21.4543 56.1406 21.2524 56.2481C21.0512 56.3562 20.8474 56.4587 20.6405 56.5569C20.4343 56.6544 20.2255 56.7469 20.0143 56.835C19.803 56.9225 19.5899 57.0044 19.3749 57.0819C19.1599 57.1587 18.943 57.2306 18.7249 57.2969C18.5062 57.3637 18.2862 57.4244 18.0643 57.4806C17.8424 57.5362 17.6199 57.5862 17.3955 57.6312C17.1718 57.6756 16.9468 57.715 16.7205 57.7487C16.4949 57.7825 16.268 57.8106 16.0405 57.8331C15.813 57.8556 15.5855 57.8731 15.3574 57.8844C15.1293 57.8956 14.9005 57.9019 14.6724 57.9019ZM14.6724 31.8331C14.4743 31.8331 14.2762 31.8375 14.0787 31.8475C13.8805 31.8575 13.683 31.8719 13.4862 31.8912C13.2887 31.9106 13.0924 31.935 12.8962 31.9637C12.7005 31.9931 12.5055 32.0269 12.3112 32.0656C12.1168 32.1044 11.9237 32.1475 11.7312 32.1956C11.5393 32.2437 11.3487 32.2962 11.1587 32.3544C10.9693 32.4119 10.7812 32.4737 10.5949 32.5406C10.408 32.6069 10.2237 32.6781 10.0405 32.7544C9.85741 32.83 9.67679 32.91 9.49741 32.995C9.31866 33.0794 9.14179 33.1687 8.96679 33.2619C8.79241 33.3556 8.61991 33.4531 8.44991 33.555C8.27991 33.6569 8.11241 33.7625 7.94804 33.8725C7.78304 33.9825 7.62116 34.0969 7.46241 34.215C7.30304 34.3325 7.14679 34.4544 6.99429 34.58C6.84116 34.7056 6.69116 34.835 6.54429 34.9681C6.39741 35.1012 6.25366 35.2381 6.11366 35.3781C5.97366 35.5181 5.83741 35.6612 5.70429 35.8081C5.57116 35.955 5.44179 36.105 5.31616 36.2581C5.19054 36.4112 5.06866 36.5675 4.95054 36.7262C4.83304 36.8856 4.71866 37.0475 4.60866 37.2119C4.49866 37.3769 4.39241 37.5437 4.29116 37.7137C4.18929 37.8837 4.09116 38.0562 3.99804 38.2306C3.90491 38.4056 3.81554 38.5825 3.73116 38.7612C3.64616 38.9406 3.56616 39.1212 3.48991 39.3044C3.41429 39.4875 3.34304 39.6725 3.27616 39.8587C3.20991 40.045 3.14741 40.2331 3.08991 40.4231C3.03241 40.6125 2.97991 40.8031 2.93179 40.9956C2.88366 41.1875 2.83991 41.3806 2.80116 41.575C2.76304 41.7694 2.72866 41.9644 2.69991 42.1606C2.67054 42.3562 2.64679 42.5531 2.62741 42.75C2.60804 42.9469 2.59304 43.1444 2.58366 43.3425C2.57366 43.54 2.56866 43.7381 2.56866 43.9362C2.56866 44.1344 2.57366 44.3325 2.58366 44.53C2.59304 44.7281 2.60804 44.9256 2.62741 45.1225C2.64679 45.32 2.67054 45.5162 2.69991 45.7125C2.72866 45.9081 2.76304 46.1031 2.80116 46.2975C2.83991 46.4919 2.88366 46.685 2.93179 46.8775C2.97991 47.0694 3.03241 47.26 3.08991 47.45C3.14741 47.6394 3.20991 47.8275 3.27616 48.0137C3.34304 48.2006 3.41429 48.385 3.48991 48.5681C3.56616 48.7512 3.64616 48.9319 3.73116 49.1112C3.81554 49.29 3.90491 49.4669 3.99804 49.6419C4.09116 49.8162 4.18929 49.9887 4.29116 50.1587C4.39241 50.3287 4.49866 50.4962 4.60866 50.6606C4.71866 50.8256 4.83304 50.9875 4.95054 51.1462C5.06866 51.3056 5.19054 51.4612 5.31616 51.6144C5.44179 51.7675 5.57116 51.9175 5.70429 52.0644C5.83741 52.2112 5.97366 52.355 6.11366 52.495C6.25366 52.635 6.39741 52.7712 6.54429 52.9044C6.69116 53.0375 6.84116 53.1669 6.99429 53.2925C7.14679 53.4181 7.30304 53.54 7.46241 53.6581C7.62116 53.7756 7.78304 53.89 7.94804 54C8.11241 54.11 8.27991 54.2162 8.44991 54.3175C8.61991 54.4194 8.79241 54.5175 8.96679 54.6106C9.14179 54.7037 9.31866 54.7931 9.49741 54.8775C9.67679 54.9625 9.85741 55.0425 10.0405 55.1187C10.2237 55.1944 10.408 55.2656 10.5949 55.3325C10.7812 55.3987 10.9693 55.4612 11.1587 55.5187C11.3487 55.5762 11.5393 55.6287 11.7312 55.6769C11.9237 55.725 12.1168 55.7687 12.3112 55.8075C12.5055 55.8456 12.7005 55.88 12.8962 55.9087C13.0924 55.9381 13.2887 55.9619 13.4862 55.9812C13.683 56.0006 13.8805 56.0156 14.0787 56.025C14.2762 56.035 14.4743 56.04 14.6724 56.04C14.8705 56.04 15.0687 56.035 15.2662 56.025C15.4643 56.0156 15.6618 56.0006 15.8587 55.9812C16.0555 55.9619 16.2524 55.9381 16.448 55.9087C16.6443 55.88 16.8393 55.8456 17.0337 55.8075C17.228 55.7687 17.4212 55.725 17.613 55.6769C17.8055 55.6287 17.9962 55.5762 18.1855 55.5187C18.3755 55.4612 18.563 55.3987 18.7499 55.3325C18.9362 55.2656 19.1212 55.1944 19.3043 55.1187C19.4874 55.0425 19.668 54.9625 19.8474 54.8775C20.0262 54.7931 20.203 54.7037 20.378 54.6106C20.5524 54.5175 20.7249 54.4194 20.8949 54.3175C21.0649 54.2162 21.2318 54.11 21.3968 54C21.5612 53.89 21.723 53.7756 21.8824 53.6581C22.0412 53.54 22.1974 53.4181 22.3505 53.2925C22.5037 53.1669 22.6537 53.0375 22.8005 52.9044C22.9474 52.7712 23.0905 52.635 23.2305 52.495C23.3705 52.355 23.5074 52.2112 23.6405 52.0644C23.7737 51.9175 23.903 51.7675 24.0287 51.6144C24.1543 51.4619 24.2762 51.3056 24.3937 51.1462C24.5118 50.9875 24.6262 50.8256 24.7362 50.6606C24.8462 50.4962 24.9518 50.3287 25.0537 50.1587C25.1555 49.9887 25.253 49.8162 25.3468 49.6419C25.4399 49.4669 25.5293 49.29 25.6137 49.1112C25.6987 48.9319 25.7787 48.7512 25.8543 48.5681C25.9305 48.385 26.0018 48.2006 26.068 48.0137C26.1349 47.8275 26.1974 47.6394 26.2549 47.45C26.3124 47.26 26.3649 47.0694 26.413 46.8775C26.4612 46.685 26.5043 46.4919 26.543 46.2975C26.5818 46.1031 26.6155 45.9081 26.6449 45.7125C26.6737 45.5162 26.698 45.32 26.7174 45.1225C26.7368 44.9256 26.7512 44.7281 26.7612 44.53C26.7712 44.3325 26.7755 44.1344 26.7755 43.9362C26.7755 43.7381 26.7705 43.5406 26.7605 43.3425C26.7505 43.145 26.7355 42.9475 26.7162 42.7506C26.6968 42.5531 26.6724 42.3569 26.643 42.1612C26.6137 41.965 26.5799 41.77 26.5412 41.5762C26.5018 41.3819 26.4587 41.1887 26.4105 40.9969C26.3618 40.8044 26.3093 40.6137 26.2512 40.4244C26.1937 40.235 26.1318 40.0469 26.0649 39.8606C25.998 39.6744 25.9268 39.4894 25.8505 39.3069C25.7749 39.1237 25.6943 38.9431 25.6099 38.7637C25.5249 38.585 25.4362 38.4081 25.3424 38.2337C25.2493 38.0587 25.1512 37.8869 25.0493 37.7169C24.9474 37.5469 24.8418 37.38 24.7318 37.2156C24.6218 37.0506 24.5074 36.8887 24.3893 36.73C24.2718 36.5706 24.1499 36.415 24.0243 36.2619C23.8987 36.1087 23.7693 35.9587 23.6362 35.8119C23.503 35.6656 23.3668 35.5219 23.2268 35.3819C23.0868 35.2419 22.943 35.1056 22.7968 34.9725C22.6499 34.8394 22.4999 34.71 22.3468 34.5844C22.1937 34.4587 22.038 34.3369 21.8787 34.2194C21.7199 34.1012 21.558 33.9869 21.393 33.8769C21.2287 33.7669 21.0618 33.6612 20.8918 33.5594C20.7218 33.4575 20.5499 33.3594 20.3749 33.2662C20.2005 33.1725 20.0237 33.0837 19.8449 32.9987C19.6655 32.9144 19.4849 32.8337 19.3018 32.7581C19.1193 32.6819 18.9343 32.6106 18.748 32.5437C18.5618 32.4769 18.3737 32.415 18.1843 32.3575C17.9949 32.2994 17.8043 32.2469 17.6118 32.1981C17.4199 32.15 17.2268 32.1069 17.0324 32.0675C16.8387 32.0287 16.6437 31.995 16.4474 31.9656C16.2518 31.9362 16.0555 31.9119 15.858 31.8925C15.6612 31.8731 15.4637 31.8581 15.2662 31.8481C15.068 31.8381 14.8705 31.8331 14.6724 31.8331Z" fill="#D8E1FF"/>
</g>
<path d="M14.6724 53.2469C14.3674 53.2469 14.0631 53.2319 13.7599 53.2019C13.4562 53.1719 13.1549 53.1275 12.8562 53.0675C12.5568 53.0081 12.2612 52.9344 11.9699 52.8456C11.6781 52.7575 11.3912 52.6544 11.1093 52.5381C10.8274 52.4213 10.5524 52.2913 10.2837 52.1475C10.0143 52.0038 9.75307 51.8469 9.49994 51.6775C9.24619 51.5081 9.00182 51.3269 8.76619 51.1331C8.52994 50.94 8.30432 50.7356 8.08869 50.52C7.87307 50.3044 7.66869 50.0788 7.47557 49.8425C7.28182 49.6069 7.10057 49.3625 6.93119 49.1088C6.76182 48.8556 6.60494 48.5944 6.46119 48.325C6.31744 48.0563 6.18744 47.7813 6.07057 47.4994C5.95432 47.2175 5.85119 46.9306 5.76307 46.6388C5.67432 46.3475 5.60057 46.0519 5.54119 45.7525C5.48119 45.4538 5.43682 45.1525 5.40682 44.8488C5.37682 44.5456 5.36182 44.2413 5.36182 43.9363C5.36182 43.6313 5.37682 43.3275 5.40682 43.0238C5.43682 42.72 5.48119 42.4188 5.54119 42.12C5.60057 41.8206 5.67432 41.5256 5.76307 41.2338C5.85119 40.9419 5.95432 40.655 6.07057 40.3731C6.18744 40.0919 6.31744 39.8163 6.46119 39.5475C6.60494 39.2788 6.76182 39.0175 6.93119 38.7638C7.10057 38.51 7.28182 38.2656 7.47557 38.03C7.66869 37.7944 7.87307 37.5688 8.08869 37.3531C8.30432 37.1375 8.52994 36.9325 8.76619 36.7394C9.00182 36.5456 9.24619 36.3644 9.49994 36.195C9.75307 36.0256 10.0143 35.8694 10.2837 35.7256C10.5524 35.5819 10.8274 35.4513 11.1093 35.335C11.3912 35.2181 11.6781 35.1156 11.9699 35.0269C12.2612 34.9381 12.5568 34.8644 12.8562 34.805C13.1549 34.7456 13.4562 34.7006 13.7599 34.6706C14.0631 34.6413 14.3674 34.6263 14.6724 34.6263C14.9774 34.6263 15.2812 34.6413 15.5849 34.6706C15.8887 34.7006 16.1899 34.7456 16.4887 34.805C16.7881 34.8644 17.0831 34.9381 17.3749 35.0269C17.6668 35.1156 17.9537 35.2181 18.2356 35.335C18.5168 35.4513 18.7924 35.5819 19.0612 35.7256C19.3299 35.8694 19.5912 36.0256 19.8449 36.195C20.0987 36.3644 20.3431 36.5456 20.5787 36.7394C20.8143 36.9325 21.0399 37.1375 21.2556 37.3531C21.4712 37.5688 21.6762 37.7944 21.8693 38.03C22.0631 38.2656 22.2443 38.51 22.4137 38.7638C22.5831 39.0175 22.7393 39.2788 22.8831 39.5475C23.0268 39.8163 23.1574 40.0919 23.2737 40.3731C23.3906 40.655 23.4931 40.9419 23.5818 41.2338C23.6706 41.5256 23.7443 41.8206 23.8037 42.12C23.8631 42.4188 23.9081 42.72 23.9381 43.0238C23.9674 43.3275 23.9824 43.6313 23.9824 43.9363C23.9824 44.2413 23.9668 44.545 23.9368 44.8488C23.9068 45.1519 23.8618 45.4531 23.8018 45.7519C23.7424 46.0506 23.6681 46.3463 23.5793 46.6375C23.4906 46.9294 23.3881 47.2163 23.2712 47.4975C23.1543 47.7794 23.0237 48.0544 22.8799 48.3231C22.7362 48.5919 22.5799 48.8531 22.4106 49.1063C22.2406 49.36 22.0593 49.6044 21.8662 49.84C21.6724 50.0756 21.4681 50.3013 21.2524 50.5163C21.0368 50.7319 20.8112 50.9363 20.5756 51.13C20.3399 51.3231 20.0956 51.505 19.8424 51.6744C19.5887 51.8438 19.3281 52 19.0593 52.1444C18.7906 52.2881 18.5149 52.4181 18.2337 52.535C17.9518 52.6519 17.6656 52.7544 17.3737 52.8431C17.0824 52.9319 16.7868 53.0063 16.4881 53.0663C16.1893 53.1256 15.8881 53.1706 15.5843 53.2006C15.2812 53.2313 14.9774 53.2463 14.6724 53.2469ZM14.6724 36.4881C14.4287 36.4881 14.1849 36.5 13.9424 36.5238C13.6993 36.5481 13.4587 36.5838 13.2193 36.6313C12.9799 36.6788 12.7437 36.7381 12.5099 36.8088C12.2768 36.8794 12.0474 36.9619 11.8218 37.055C11.5968 37.1481 11.3762 37.2525 11.1612 37.3675C10.9462 37.4825 10.7374 37.6075 10.5343 37.7431C10.3312 37.8788 10.1356 38.0238 9.94744 38.1788C9.75869 38.3338 9.57807 38.4969 9.40557 38.6694C9.23307 38.8419 9.06932 39.0225 8.91494 39.2113C8.75994 39.4 8.61494 39.5956 8.47932 39.7981C8.34369 40.0013 8.21869 40.21 8.10369 40.425C7.98869 40.6406 7.88432 40.8606 7.79119 41.0863C7.69744 41.3113 7.61557 41.5406 7.54494 41.7744C7.47369 42.0075 7.41494 42.2438 7.36744 42.4831C7.31932 42.7225 7.28369 42.9638 7.25994 43.2063C7.23619 43.4488 7.22432 43.6925 7.22432 43.9363C7.22432 44.18 7.23619 44.4238 7.25994 44.6663C7.28369 44.9094 7.31932 45.15 7.36744 45.3894C7.41494 45.6288 7.47369 45.865 7.54494 46.0988C7.61557 46.3319 7.69744 46.5613 7.79119 46.7869C7.88432 47.0119 7.98869 47.2325 8.10369 47.4475C8.21869 47.6625 8.34369 47.8713 8.47932 48.0744C8.61494 48.2775 8.75994 48.4731 8.91494 48.6613C9.06932 48.85 9.23307 49.0306 9.40557 49.2031C9.57807 49.3756 9.75869 49.5394 9.94744 49.6938C10.1356 49.8488 10.3312 49.9938 10.5343 50.1294C10.7374 50.265 10.9462 50.39 11.1612 50.505C11.3762 50.62 11.5968 50.7244 11.8218 50.8175C12.0474 50.9113 12.2768 50.9931 12.5099 51.0638C12.7437 51.135 12.9799 51.1938 13.2193 51.2413C13.4587 51.2894 13.6993 51.325 13.9424 51.3488C14.1849 51.3725 14.4287 51.3844 14.6724 51.3844C14.9162 51.3844 15.1599 51.3725 15.4024 51.3488C15.6449 51.325 15.8862 51.2894 16.1256 51.2413C16.3649 51.1938 16.6012 51.135 16.8343 51.0638C17.0681 50.9931 17.2974 50.9113 17.5224 50.8175C17.7481 50.7244 17.9681 50.62 18.1837 50.505C18.3987 50.39 18.6074 50.265 18.8106 50.1294C19.0131 49.9938 19.2087 49.8488 19.3974 49.6938C19.5862 49.5394 19.7668 49.3756 19.9393 49.2031C20.1118 49.0306 20.2749 48.85 20.4299 48.6613C20.5849 48.4731 20.7299 48.2775 20.8656 48.0744C21.0012 47.8713 21.1262 47.6625 21.2412 47.4475C21.3562 47.2325 21.4606 47.0119 21.5537 46.7869C21.6468 46.5613 21.7293 46.3319 21.7999 46.0988C21.8706 45.865 21.9299 45.6288 21.9774 45.3894C22.0249 45.15 22.0606 44.9094 22.0849 44.6663C22.1087 44.4238 22.1206 44.18 22.1206 43.9363C22.1206 43.6925 22.1081 43.4494 22.0837 43.2063C22.0599 42.9638 22.0237 42.7231 21.9762 42.4838C21.9281 42.245 21.8687 42.0088 21.7981 41.775C21.7268 41.5419 21.6449 41.3125 21.5512 41.0875C21.4581 40.8619 21.3537 40.6419 21.2387 40.4269C21.1237 40.2119 20.9981 40.0031 20.8624 39.8C20.7274 39.5975 20.5818 39.4019 20.4274 39.2138C20.2724 39.025 20.1093 38.8444 19.9368 38.6719C19.7643 38.4994 19.5837 38.3363 19.3949 38.1813C19.2068 38.0269 19.0112 37.8813 18.8087 37.7463C18.6056 37.6106 18.3968 37.485 18.1818 37.37C17.9668 37.255 17.7468 37.1506 17.5212 37.0575C17.2962 36.9638 17.0668 36.8819 16.8337 36.8106C16.5999 36.74 16.3637 36.6806 16.1249 36.6325C15.8856 36.585 15.6449 36.5488 15.4024 36.525C15.1593 36.5006 14.9162 36.4881 14.6724 36.4881Z" fill="#D8E1FF"/>
<path d="M27.7069 26.2431C27.6456 26.2431 27.585 26.2369 27.525 26.225C27.465 26.2131 27.4069 26.1956 27.3506 26.1725C27.2938 26.1487 27.2406 26.12 27.1894 26.0862C27.1388 26.0525 27.0919 26.0137 27.0481 25.9706C27.005 25.9275 26.9663 25.88 26.9325 25.8294C26.8988 25.7787 26.87 25.725 26.8469 25.6681C26.8231 25.6119 26.8056 25.5537 26.7938 25.4937C26.7819 25.4337 26.7756 25.3731 26.7756 25.3119C26.7756 25.1044 26.7669 24.8969 26.75 24.6894C26.7325 24.4825 26.7063 24.2762 26.6719 24.0712C26.6369 23.8662 26.5938 23.6631 26.5419 23.4619C26.4906 23.2606 26.4306 23.0619 26.3625 22.8656C26.2938 22.6694 26.2175 22.4762 26.1331 22.2862C26.0488 22.0962 25.9563 21.91 25.8563 21.7281C25.7563 21.5456 25.6488 21.3681 25.5338 21.195C25.4188 21.0219 25.2969 20.8537 25.1681 20.6906C25.0394 20.5275 24.9038 20.3706 24.7613 20.2187C24.6194 20.0669 24.4713 19.9219 24.3169 19.7825C24.1625 19.6431 24.0025 19.5106 23.8369 19.385C23.6719 19.2587 23.5013 19.14 23.3263 19.0287C23.1506 18.9169 22.9706 18.8131 22.7869 18.7162C22.6025 18.62 22.415 18.5312 22.2238 18.45C22.0319 18.3694 21.8375 18.2969 21.64 18.2319C21.4425 18.1675 21.2425 18.1112 21.04 18.0637C20.8381 18.0156 20.6338 17.9762 20.4281 17.9456C20.2231 17.915 20.0163 17.8931 19.8088 17.8794C19.6013 17.8656 19.3938 17.8612 19.1863 17.865C18.9781 17.8687 18.7713 17.8812 18.5644 17.9025C18.3575 17.9237 18.1519 17.9537 17.9475 17.9925C17.7431 18.0306 17.5413 18.0775 17.3406 18.1331C17.1406 18.1887 16.9425 18.2525 16.7475 18.3244C16.5525 18.3962 16.3613 18.4762 16.1725 18.5637C15.9844 18.6519 15.8 18.7475 15.62 18.8512C15.4394 18.9544 15.2638 19.065 15.0931 19.1831C14.9219 19.3012 14.7563 19.4262 14.5956 19.5587C14.435 19.6906 14.28 19.8287 14.1313 19.9737C13.9825 20.1187 13.8394 20.27 13.7031 20.4269C13.5669 20.5837 13.4375 20.7456 13.3144 20.9137C13.1919 21.0812 13.0763 21.2537 12.9681 21.4312C12.8594 21.6087 12.7588 21.79 12.6656 21.9762C12.6381 22.0306 12.6056 22.0819 12.5681 22.13C12.5306 22.1787 12.4888 22.2225 12.4425 22.2625C12.3963 22.3025 12.3469 22.3375 12.2938 22.3675C12.2406 22.3981 12.185 22.4225 12.1269 22.4419C12.0688 22.4612 12.01 22.4744 11.9494 22.4819C11.8888 22.4894 11.8275 22.4912 11.7669 22.4869C11.7056 22.4825 11.6456 22.4719 11.5869 22.4556C11.5281 22.4394 11.4713 22.4175 11.4169 22.3906C11.3619 22.3631 11.3106 22.3306 11.2625 22.2931C11.2144 22.2556 11.17 22.2137 11.13 22.1675C11.09 22.1212 11.055 22.0712 11.025 22.0181C10.9944 21.9656 10.97 21.91 10.9506 21.8519C10.9313 21.7937 10.9181 21.7344 10.9106 21.6737C10.9031 21.6131 10.9013 21.5525 10.9056 21.4912C10.91 21.4306 10.9206 21.3706 10.9363 21.3119C10.9525 21.2525 10.9744 21.1962 11.0019 21.1412C11.1181 20.9094 11.2444 20.6819 11.3794 20.4606C11.515 20.2387 11.6594 20.0231 11.8131 19.8131C11.9663 19.6037 12.1281 19.4006 12.2988 19.205C12.4694 19.0087 12.6475 18.82 12.8338 18.6387C13.02 18.4575 13.2131 18.285 13.4138 18.12C13.615 17.955 13.8219 17.7987 14.0356 17.6506C14.2494 17.5031 14.4694 17.365 14.6944 17.2356C14.92 17.1062 15.15 16.9869 15.3856 16.8769C15.6213 16.7669 15.8606 16.6669 16.1044 16.5769C16.3481 16.4869 16.595 16.4075 16.8456 16.3381C17.0956 16.2687 17.3488 16.2106 17.6044 16.1625C17.8594 16.1144 18.1163 16.0769 18.375 16.0506C18.6331 16.0237 18.8925 16.0081 19.1519 16.0031C19.4119 15.9981 19.6713 16.0044 19.9306 16.0212C20.19 16.0381 20.4481 16.0656 20.705 16.1044C20.9619 16.1425 21.2169 16.1919 21.4694 16.2519C21.7225 16.3112 21.9719 16.3819 22.2188 16.4625C22.4663 16.5431 22.7094 16.6337 22.9488 16.735C23.1881 16.8362 23.4225 16.9469 23.6525 17.0675C23.8825 17.1881 24.1075 17.3181 24.3263 17.4581C24.5456 17.5975 24.7588 17.7456 24.965 17.9031C25.1719 18.0606 25.3719 18.2262 25.565 18.4C25.7575 18.5744 25.9431 18.7562 26.1206 18.9456C26.2981 19.135 26.4675 19.3319 26.6288 19.5356C26.79 19.7394 26.9425 19.9494 27.0863 20.1656C27.2294 20.3825 27.3638 20.6044 27.4888 20.8325C27.6138 21.06 27.7294 21.2925 27.835 21.53C27.9406 21.7675 28.0356 22.0087 28.1213 22.2544C28.2063 22.4994 28.2813 22.7481 28.3463 22.9994C28.4106 23.2512 28.4644 23.505 28.5075 23.7612C28.5513 24.0175 28.5838 24.275 28.605 24.5337C28.6269 24.7931 28.6381 25.0519 28.6381 25.3119C28.6381 25.3731 28.6319 25.4337 28.62 25.4937C28.6081 25.5537 28.5906 25.6119 28.5675 25.6681C28.5438 25.725 28.515 25.7787 28.4813 25.8294C28.4475 25.88 28.4088 25.9275 28.3656 25.9706C28.3219 26.0137 28.275 26.0525 28.2244 26.0862C28.1731 26.12 28.12 26.1487 28.0631 26.1725C28.0069 26.1956 27.9488 26.2131 27.8888 26.225C27.8288 26.2369 27.7681 26.2431 27.7069 26.2431Z" fill="#D8E1FF"/>
<path d="M27.7069 44.8675C27.6456 44.8675 27.585 44.8613 27.525 44.8494C27.465 44.8375 27.4069 44.82 27.3506 44.7969C27.2938 44.7731 27.2406 44.7444 27.1894 44.7106C27.1388 44.6769 27.0919 44.6381 27.0481 44.595C27.005 44.5519 26.9663 44.5044 26.9325 44.4538C26.8988 44.4031 26.87 44.3494 26.8469 44.2925C26.8231 44.2363 26.8056 44.1781 26.7938 44.1181C26.7819 44.0581 26.7756 43.9975 26.7756 43.9363V17.8638C26.7756 17.8025 26.7819 17.7419 26.7938 17.6819C26.8056 17.6219 26.8231 17.5638 26.8469 17.5075C26.87 17.4506 26.8988 17.3975 26.9325 17.3463C26.9669 17.2956 27.0056 17.2488 27.0488 17.2056C27.0919 17.1619 27.1388 17.1238 27.1894 17.0894C27.2406 17.0556 27.2944 17.0269 27.3506 17.0038C27.4069 16.98 27.465 16.9625 27.525 16.9506C27.585 16.9388 27.6456 16.9325 27.7069 16.9325C27.7681 16.9325 27.8288 16.9388 27.8888 16.9506C27.9488 16.9625 28.0069 16.98 28.0631 17.0038C28.1194 17.0269 28.1731 17.0556 28.2244 17.0894C28.275 17.1238 28.3219 17.1619 28.365 17.2056C28.4088 17.2488 28.4469 17.2956 28.4813 17.3463C28.515 17.3975 28.5438 17.4506 28.5669 17.5075C28.5906 17.5638 28.6081 17.6219 28.62 17.6819C28.6319 17.7419 28.6381 17.8025 28.6381 17.8638V43.9363C28.6381 43.9975 28.6319 44.0581 28.62 44.1181C28.6081 44.1781 28.5906 44.2363 28.5675 44.2925C28.5438 44.3494 28.515 44.4031 28.4813 44.4538C28.4475 44.5044 28.4088 44.5519 28.3656 44.595C28.3219 44.6381 28.275 44.6769 28.2244 44.7106C28.1731 44.7444 28.12 44.7731 28.0631 44.7969C28.0069 44.82 27.9488 44.8375 27.8888 44.8494C27.8288 44.8613 27.7681 44.8675 27.7069 44.8675Z" fill="#D8E1FF"/>
<path d="M2.89248 39.2775C2.85248 39.2775 2.81311 39.275 2.77311 39.2694C2.73373 39.2644 2.69436 39.2569 2.65561 39.2469C2.61686 39.2362 2.57936 39.2237 2.54186 39.2087C2.50498 39.1937 2.46936 39.1762 2.43436 39.1562C2.39936 39.1369 2.36623 39.115 2.33436 39.0906C2.30248 39.0669 2.27186 39.0406 2.24311 39.0131C2.21498 38.985 2.18811 38.9556 2.16311 38.9237C2.13873 38.8925 2.11561 38.86 2.09498 38.8256C2.07436 38.7912 2.05623 38.7556 2.04061 38.7187C2.02436 38.6825 2.01061 38.645 1.99936 38.6062C1.98811 38.5681 1.97998 38.5294 1.97373 38.4894C1.96748 38.45 1.96373 38.4106 1.96311 38.3706C1.96186 38.3306 1.96311 38.2906 1.96748 38.2506C1.97123 38.2112 1.97811 38.1719 1.98748 38.1325C1.99686 38.0937 2.00811 38.0556 2.02248 38.0181C2.03623 37.9806 2.05311 37.9444 2.07186 37.9094L11.0119 21.1212C11.0406 21.0675 11.0744 21.0162 11.1131 20.9687C11.1512 20.9212 11.1944 20.8781 11.2419 20.8394C11.2887 20.8 11.3394 20.7662 11.3931 20.7375C11.4469 20.7081 11.5031 20.685 11.5619 20.6669C11.6206 20.6487 11.68 20.6369 11.7412 20.6306C11.8019 20.6244 11.8631 20.6244 11.9237 20.63C11.985 20.6362 12.0444 20.6475 12.1031 20.6656C12.1619 20.6831 12.2181 20.7062 12.2719 20.735C12.3262 20.7637 12.3769 20.7975 12.4244 20.8362C12.4719 20.875 12.515 20.9181 12.5537 20.965C12.5925 21.0125 12.6262 21.0631 12.6556 21.1169C12.6844 21.1712 12.7075 21.2275 12.7256 21.2856C12.7431 21.3444 12.7556 21.4044 12.7612 21.465C12.7675 21.5262 12.7675 21.5869 12.7612 21.6481C12.7556 21.7087 12.7437 21.7687 12.7256 21.8275C12.7081 21.8856 12.6844 21.9419 12.6556 21.9962L3.71561 38.7837C3.67561 38.8581 3.62686 38.9262 3.56873 38.9875C3.51061 39.0487 3.44498 39.1012 3.37248 39.145C3.29998 39.1881 3.22311 39.2212 3.14186 39.2437C3.05998 39.2662 2.97686 39.2775 2.89248 39.2775Z" fill="#D8E1FF"/>
<path d="M27.7068 18.795C27.6456 18.795 27.585 18.7888 27.525 18.7769C27.465 18.765 27.4068 18.7475 27.3506 18.7238C27.2937 18.7006 27.2406 18.6719 27.1893 18.6381C27.1387 18.6038 27.0918 18.5656 27.0481 18.5225C27.005 18.4788 26.9668 18.4319 26.9325 18.3813C26.8987 18.33 26.87 18.2769 26.8468 18.22C26.8231 18.1638 26.8056 18.1056 26.7937 18.0456C26.7818 17.9856 26.7756 17.925 26.7756 17.8638C26.7756 17.7494 26.7706 17.635 26.76 17.5213C26.7493 17.4069 26.7337 17.2938 26.7125 17.1813C26.6918 17.0688 26.6656 16.9575 26.6343 16.8469C26.6031 16.7369 26.5668 16.6288 26.5256 16.5219C26.4843 16.415 26.4381 16.31 26.3868 16.2075C26.3362 16.105 26.2806 16.005 26.2206 15.9075C26.1606 15.8106 26.0956 15.7156 26.0268 15.6244C25.9581 15.5331 25.885 15.445 25.8081 15.36C25.7312 15.2756 25.6506 15.1944 25.5662 15.1169C25.4818 15.04 25.3937 14.9663 25.3025 14.8975C25.2112 14.8281 25.1175 14.7631 25.02 14.7025C24.9231 14.6419 24.8231 14.5863 24.7206 14.535C24.6181 14.4838 24.5137 14.4369 24.4075 14.3956C24.3006 14.3538 24.1925 14.3169 24.0825 14.285C23.9725 14.2538 23.8612 14.2269 23.7487 14.2056C23.6362 14.1844 23.5231 14.1681 23.4087 14.1569C23.295 14.1456 23.1806 14.14 23.0662 14.1394C22.9518 14.1394 22.8375 14.1438 22.7237 14.1538C22.6093 14.1644 22.4962 14.1794 22.3831 14.2C22.2706 14.2206 22.1593 14.2463 22.0487 14.2769C21.9387 14.3075 21.83 14.3431 21.7231 14.3844C21.6162 14.425 21.5112 14.4706 21.4087 14.5213C21.3056 14.5719 21.2056 14.6269 21.1081 14.6863C21.01 14.7463 20.9156 14.81 20.8237 14.8788C20.7318 14.9469 20.6437 15.02 20.5587 15.0963C20.4731 15.1731 20.3918 15.2531 20.3143 15.3375C20.2368 15.4213 20.1631 15.5088 20.0931 15.6C20.0237 15.6906 19.9587 15.785 19.8975 15.8819C19.8368 15.9788 19.78 16.0781 19.7287 16.18C19.6768 16.2825 19.63 16.3869 19.5875 16.4931C19.5456 16.5994 19.5081 16.7075 19.4762 16.8175C19.4437 16.9275 19.4168 17.0388 19.395 17.1506C19.3831 17.2106 19.3662 17.2694 19.3431 17.3256C19.32 17.3825 19.2912 17.4363 19.2581 17.4869C19.2243 17.5381 19.1856 17.5856 19.1431 17.6288C19.1 17.6725 19.0531 17.7113 19.0025 17.7456C18.9518 17.7794 18.8981 17.8088 18.8418 17.8325C18.7856 17.8563 18.7275 17.8738 18.6681 17.8863C18.6081 17.8988 18.5475 17.905 18.4862 17.905C18.425 17.9056 18.365 17.9 18.305 17.8881C18.245 17.8769 18.1862 17.8594 18.13 17.8363C18.0731 17.8131 18.0193 17.785 17.9687 17.7513C17.9175 17.7175 17.87 17.6794 17.8268 17.6363C17.7831 17.5931 17.7443 17.5463 17.71 17.4956C17.6762 17.445 17.6468 17.3919 17.6231 17.3356C17.5993 17.2794 17.5818 17.2213 17.5693 17.1613C17.5568 17.1013 17.5506 17.0406 17.5506 16.98C17.55 16.9188 17.5556 16.8581 17.5675 16.7981C17.6 16.6294 17.6406 16.4625 17.6887 16.2981C17.7368 16.1331 17.7925 15.9706 17.8556 15.8113C17.9187 15.6513 17.9893 15.495 18.0668 15.3413C18.1443 15.1881 18.2287 15.0388 18.32 14.8931C18.4112 14.7481 18.5093 14.6069 18.6137 14.4706C18.7181 14.3338 18.8281 14.2025 18.945 14.0763C19.0612 13.95 19.1831 13.8294 19.3106 13.7144C19.4381 13.5994 19.5712 13.4906 19.7087 13.3881C19.8462 13.285 19.9881 13.1888 20.135 13.0994C20.2812 13.0094 20.4318 12.9269 20.5856 12.8513C20.74 12.775 20.8975 12.7069 21.0575 12.6456C21.2181 12.5838 21.3812 12.53 21.5462 12.4838C21.7118 12.4375 21.8793 12.3994 22.0481 12.3681C22.2168 12.3375 22.3868 12.3144 22.5581 12.2994C22.7293 12.2844 22.9006 12.2769 23.0725 12.2775C23.2443 12.2781 23.4156 12.2869 23.5868 12.3031C23.7575 12.3194 23.9275 12.3438 24.0962 12.3763C24.265 12.4081 24.4318 12.4481 24.5968 12.4956C24.7618 12.5431 24.9243 12.5981 25.0843 12.6606C25.2443 12.7231 25.4012 12.7931 25.555 12.87C25.7081 12.9469 25.8581 13.0306 26.0037 13.1213C26.1493 13.2125 26.2906 13.3094 26.4275 13.4131C26.5643 13.5169 26.6962 13.6269 26.8231 13.7431C26.95 13.8588 27.0706 13.9806 27.1862 14.1075C27.3018 14.235 27.4112 14.3669 27.5143 14.5044C27.6181 14.6413 27.715 14.7831 27.805 14.9294C27.895 15.0756 27.9787 15.2256 28.055 15.3794C28.1312 15.5331 28.2006 15.69 28.2625 15.8506C28.3243 16.0106 28.3787 16.1731 28.4256 16.3388C28.4725 16.5038 28.5118 16.6706 28.5431 16.8394C28.5743 17.0088 28.5981 17.1788 28.6143 17.3494C28.63 17.5206 28.6381 17.6919 28.6381 17.8638C28.6381 17.925 28.6318 17.9856 28.62 18.0456C28.6081 18.1056 28.5906 18.1638 28.5675 18.22C28.5437 18.2769 28.515 18.33 28.4812 18.3813C28.4475 18.4319 28.4087 18.4788 28.3656 18.5225C28.3218 18.5656 28.275 18.6038 28.2243 18.6381C28.1731 18.6719 28.12 18.7006 28.0631 18.7238C28.0068 18.7475 27.9487 18.765 27.8887 18.7769C27.8287 18.7888 27.7681 18.795 27.7068 18.795Z" fill="#D8E1FF"/>
<mask id="mask1_4959_1309" style="mask-type:luminance" maskUnits="userSpaceOnUse" x="32" y="29" width="29" height="29">
<path d="M32.3401 29.84H60.3401V57.96H32.3401V29.84Z" fill="white"/>
</mask>
<g mask="url(#mask1_4959_1309)">
<path d="M46.3277 57.9019C46.0989 57.9019 45.8708 57.8962 45.6427 57.885C45.4139 57.8737 45.1864 57.8569 44.9589 57.8344C44.7314 57.8125 44.5046 57.7844 44.2783 57.7506C44.0527 57.7169 43.8277 57.6781 43.6033 57.6337C43.3789 57.5887 43.1564 57.5387 42.9346 57.4831C42.7127 57.4275 42.4927 57.3669 42.2739 57.3006C42.0552 57.2344 41.8383 57.1625 41.6227 57.0856C41.4077 57.0087 41.1946 56.9262 40.9833 56.8387C40.7721 56.7512 40.5633 56.6587 40.3564 56.5612C40.1502 56.4631 39.9458 56.3606 39.7446 56.2531C39.5427 56.145 39.3439 56.0325 39.1483 55.915C38.9521 55.7975 38.7589 55.675 38.5689 55.5481C38.3789 55.4212 38.1921 55.29 38.0083 55.1537C37.8252 55.0175 37.6446 54.8769 37.4683 54.7319C37.2914 54.5869 37.1183 54.4375 36.9489 54.2844C36.7796 54.1306 36.6146 53.9731 36.4527 53.8112C36.2908 53.65 36.1333 53.4844 35.9802 53.315C35.8264 53.1456 35.6771 52.9725 35.5321 52.7962C35.3871 52.6194 35.2464 52.4394 35.1108 52.2556C34.9746 52.0719 34.8427 51.885 34.7158 51.695C34.5889 51.505 34.4664 51.3119 34.3489 51.1162C34.2314 50.92 34.1189 50.7212 34.0114 50.5194C33.9033 50.3181 33.8008 50.1137 33.7033 49.9075C33.6052 49.7006 33.5127 49.4919 33.4252 49.2806C33.3377 49.0694 33.2558 48.8562 33.1783 48.6412C33.1014 48.4262 33.0302 48.2087 32.9633 47.9906C32.8971 47.7719 32.8364 47.5512 32.7808 47.3294C32.7252 47.1081 32.6752 46.885 32.6308 46.6606C32.5858 46.4369 32.5471 46.2119 32.5133 45.9856C32.4796 45.7594 32.4521 45.5325 32.4296 45.305C32.4071 45.0775 32.3902 44.85 32.3789 44.6219C32.3677 44.3931 32.3621 44.165 32.3621 43.9362C32.3621 43.7075 32.3677 43.4794 32.3789 43.2512C32.3902 43.0225 32.4071 42.795 32.4296 42.5675C32.4521 42.34 32.4796 42.1131 32.5133 41.8869C32.5471 41.6612 32.5858 41.4362 32.6308 41.2119C32.6752 40.9875 32.7252 40.765 32.7808 40.5431C32.8364 40.3212 32.8971 40.1012 32.9633 39.8825C33.0302 39.6637 33.1014 39.4469 33.1783 39.2312C33.2558 39.0162 33.3377 38.8031 33.4252 38.5919C33.5127 38.3806 33.6052 38.1719 33.7033 37.9656C33.8008 37.7587 33.9033 37.5544 34.0114 37.3531C34.1189 37.1512 34.2314 36.9525 34.3489 36.7569C34.4664 36.5606 34.5889 36.3675 34.7158 36.1775C34.8427 35.9875 34.9746 35.8006 35.1108 35.6169C35.2464 35.4337 35.3871 35.2531 35.5321 35.0769C35.6771 34.9 35.8264 34.7269 35.9802 34.5575C36.1333 34.3881 36.2908 34.2231 36.4527 34.0612C36.6146 33.8994 36.7796 33.7419 36.9489 33.5887C37.1183 33.435 37.2914 33.2856 37.4683 33.1406C37.6446 32.9956 37.8252 32.855 38.0083 32.7194C38.1921 32.5831 38.3789 32.4512 38.5689 32.3244C38.7589 32.1975 38.9521 32.075 39.1483 31.9575C39.3439 31.84 39.5427 31.7275 39.7446 31.62C39.9458 31.5119 40.1502 31.4094 40.3564 31.3119C40.5633 31.2137 40.7721 31.1212 40.9833 31.0337C41.1946 30.9462 41.4077 30.8644 41.6227 30.7875C41.8383 30.71 42.0552 30.6387 42.2739 30.5719C42.4927 30.5056 42.7127 30.445 42.9346 30.3894C43.1564 30.3337 43.3789 30.2837 43.6033 30.2394C43.8277 30.1944 44.0527 30.1556 44.2783 30.1219C44.5046 30.0887 44.7314 30.0606 44.9589 30.0381C45.1864 30.0156 45.4139 29.9987 45.6427 29.9875C45.8708 29.9762 46.0989 29.9706 46.3277 29.9706C46.5564 29.9706 46.7846 29.9762 47.0133 29.9875C47.2414 29.9987 47.4689 30.0156 47.6964 30.0381C47.9239 30.0606 48.1508 30.0887 48.3771 30.1219C48.6033 30.1556 48.8283 30.1944 49.0521 30.2394C49.2764 30.2837 49.4996 30.3337 49.7208 30.3894C49.9427 30.445 50.1633 30.5056 50.3814 30.5719C50.6002 30.6387 50.8177 30.71 51.0327 30.7875C51.2477 30.8644 51.4608 30.9462 51.6721 31.0337C51.8833 31.1212 52.0921 31.2137 52.2989 31.3119C52.5052 31.4094 52.7096 31.5119 52.9108 31.62C53.1127 31.7275 53.3114 31.84 53.5077 31.9575C53.7033 32.075 53.8964 32.1975 54.0864 32.3244C54.2764 32.4512 54.4633 32.5831 54.6471 32.7194C54.8308 32.855 55.0108 32.9956 55.1877 33.1406C55.3639 33.2856 55.5371 33.435 55.7064 33.5887C55.8758 33.7419 56.0414 33.8994 56.2027 34.0612C56.3646 34.2231 56.5221 34.3881 56.6758 34.5575C56.8289 34.7269 56.9783 34.9 57.1233 35.0769C57.2683 35.2531 57.4089 35.4337 57.5452 35.6169C57.6814 35.8006 57.8127 35.9875 57.9396 36.1775C58.0664 36.3675 58.1889 36.5606 58.3064 36.7569C58.4239 36.9525 58.5364 37.1512 58.6446 37.3531C58.7521 37.5544 58.8546 37.7587 58.9527 37.9656C59.0502 38.1719 59.1427 38.3806 59.2302 38.5919C59.3177 38.8031 59.4002 39.0162 59.4771 39.2312C59.5539 39.4469 59.6258 39.6637 59.6921 39.8825C59.7583 40.1012 59.8189 40.3212 59.8746 40.5431C59.9302 40.765 59.9802 40.9875 60.0252 41.2119C60.0696 41.4362 60.1083 41.6612 60.1421 41.8869C60.1758 42.1131 60.2039 42.34 60.2258 42.5675C60.2483 42.795 60.2652 43.0225 60.2764 43.2512C60.2877 43.4794 60.2933 43.7075 60.2933 43.9362C60.2933 44.165 60.2871 44.3931 60.2758 44.6212C60.2646 44.8494 60.2471 45.0775 60.2246 45.305C60.2021 45.5319 60.1739 45.7587 60.1402 45.985C60.1064 46.2106 60.0671 46.4356 60.0227 46.66C59.9777 46.8837 59.9277 47.1069 59.8714 47.3281C59.8158 47.55 59.7552 47.77 59.6883 47.9887C59.6221 48.2075 59.5502 48.4237 59.4733 48.6394C59.3958 48.8544 59.3139 49.0675 59.2264 49.2781C59.1383 49.4894 59.0458 49.6981 58.9483 49.9044C58.8502 50.1112 58.7477 50.315 58.6396 50.5169C58.5321 50.7181 58.4196 50.9169 58.3021 51.1125C58.1839 51.3087 58.0621 51.5019 57.9352 51.6912C57.8077 51.8812 57.6764 52.0681 57.5402 52.2519C57.4039 52.435 57.2633 52.615 57.1183 52.7919C56.9733 52.9687 56.8246 53.1412 56.6708 53.3106C56.5177 53.48 56.3602 53.6456 56.1983 53.8069C56.0371 53.9687 55.8714 54.1262 55.7021 54.2794C55.5327 54.4331 55.3602 54.5819 55.1833 54.7269C55.0064 54.8719 54.8264 55.0125 54.6433 55.1487C54.4596 55.285 54.2727 55.4162 54.0827 55.5437C53.8933 55.6706 53.7002 55.7925 53.5039 55.9106C53.3083 56.0281 53.1096 56.1406 52.9083 56.2481C52.7064 56.3562 52.5027 56.4587 52.2958 56.5569C52.0896 56.6544 51.8808 56.7469 51.6696 56.835C51.4589 56.9225 51.2458 57.0044 51.0308 57.0819C50.8152 57.1587 50.5989 57.2306 50.3802 57.2969C50.1614 57.3637 49.9414 57.4244 49.7196 57.4806C49.4983 57.5362 49.2752 57.5862 49.0514 57.6312C48.8271 57.6756 48.6021 57.715 48.3764 57.7487C48.1502 57.7825 47.9233 57.8106 47.6964 57.8331C47.4689 57.8556 47.2408 57.8731 47.0127 57.8844C46.7846 57.8956 46.5564 57.9019 46.3277 57.9019ZM46.3277 31.8331C46.1296 31.8331 45.9314 31.8375 45.7339 31.8475C45.5358 31.8575 45.3383 31.8719 45.1414 31.8912C44.9446 31.9106 44.7477 31.935 44.5521 31.9637C44.3558 31.9931 44.1608 32.0269 43.9664 32.0656C43.7721 32.1044 43.5789 32.1475 43.3871 32.1956C43.1946 32.2437 43.0039 32.2962 42.8146 32.3544C42.6246 32.4119 42.4364 32.4737 42.2502 32.5406C42.0639 32.6069 41.8789 32.6781 41.6958 32.7544C41.5127 32.83 41.3321 32.91 41.1527 32.995C40.9739 33.0794 40.7971 33.1687 40.6221 33.2619C40.4477 33.3556 40.2752 33.4531 40.1052 33.555C39.9352 33.6569 39.7683 33.7625 39.6033 33.8725C39.4389 33.9825 39.2771 34.0969 39.1177 34.215C38.9589 34.3325 38.8027 34.4544 38.6496 34.58C38.4964 34.7056 38.3464 34.835 38.1996 34.9681C38.0527 35.1012 37.9096 35.2381 37.7696 35.3781C37.6296 35.5181 37.4927 35.6612 37.3596 35.8081C37.2264 35.955 37.0971 36.105 36.9714 36.2581C36.8458 36.4112 36.7239 36.5675 36.6064 36.7262C36.4883 36.8856 36.3739 37.0475 36.2639 37.2119C36.1539 37.3769 36.0483 37.5437 35.9464 37.7137C35.8446 37.8837 35.7471 38.0562 35.6533 38.2306C35.5602 38.4056 35.4708 38.5825 35.3864 38.7612C35.3014 38.9406 35.2214 39.1212 35.1458 39.3044C35.0696 39.4875 34.9983 39.6725 34.9321 39.8587C34.8652 40.045 34.8027 40.2331 34.7452 40.4231C34.6877 40.6125 34.6352 40.8031 34.5871 40.9956C34.5389 41.1875 34.4958 41.3806 34.4571 41.575C34.4183 41.7694 34.3846 41.9644 34.3552 42.1606C34.3264 42.3562 34.3021 42.5531 34.2827 42.75C34.2633 42.9469 34.2483 43.1444 34.2389 43.3425C34.2289 43.54 34.2246 43.7381 34.2246 43.9362C34.2246 44.1344 34.2289 44.3325 34.2389 44.53C34.2483 44.7281 34.2633 44.9256 34.2827 45.1225C34.3021 45.32 34.3264 45.5162 34.3552 45.7125C34.3846 45.9081 34.4183 46.1031 34.4571 46.2975C34.4958 46.4919 34.5389 46.685 34.5871 46.8775C34.6352 47.0694 34.6877 47.26 34.7452 47.45C34.8027 47.6394 34.8652 47.8275 34.9321 48.0137C34.9983 48.2006 35.0696 48.385 35.1458 48.5681C35.2214 48.7512 35.3014 48.9319 35.3864 49.1112C35.4708 49.29 35.5602 49.4669 35.6533 49.6419C35.7471 49.8162 35.8446 49.9887 35.9464 50.1587C36.0483 50.3287 36.1539 50.4962 36.2639 50.6606C36.3739 50.8256 36.4883 50.9875 36.6064 51.1462C36.7239 51.3056 36.8458 51.4612 36.9714 51.6144C37.0971 51.7675 37.2264 51.9175 37.3596 52.0644C37.4927 52.2112 37.6296 52.355 37.7696 52.495C37.9096 52.635 38.0527 52.7712 38.1996 52.9044C38.3464 53.0375 38.4964 53.1669 38.6496 53.2925C38.8027 53.4181 38.9589 53.54 39.1177 53.6581C39.2771 53.7756 39.4389 53.89 39.6033 54C39.7683 54.11 39.9352 54.2162 40.1052 54.3175C40.2752 54.4194 40.4477 54.5175 40.6221 54.6106C40.7971 54.7037 40.9739 54.7931 41.1527 54.8775C41.3321 54.9625 41.5127 55.0425 41.6958 55.1187C41.8789 55.1944 42.0639 55.2656 42.2502 55.3325C42.4364 55.3987 42.6246 55.4612 42.8146 55.5187C43.0039 55.5762 43.1946 55.6287 43.3871 55.6769C43.5789 55.725 43.7721 55.7687 43.9664 55.8075C44.1608 55.8456 44.3558 55.88 44.5521 55.9087C44.7477 55.9381 44.9446 55.9619 45.1414 55.9812C45.3383 56.0006 45.5358 56.0156 45.7339 56.025C45.9314 56.035 46.1296 56.04 46.3277 56.04C46.5258 56.04 46.7239 56.035 46.9214 56.025C47.1196 56.0156 47.3171 56.0006 47.5139 55.9812C47.7114 55.9619 47.9077 55.9381 48.1039 55.9087C48.2996 55.88 48.4946 55.8456 48.6889 55.8075C48.8833 55.7687 49.0764 55.725 49.2689 55.6769C49.4608 55.6287 49.6514 55.5762 49.8414 55.5187C50.0308 55.4612 50.2189 55.3987 50.4052 55.3325C50.5921 55.2656 50.7764 55.1944 50.9596 55.1187C51.1427 55.0425 51.3233 54.9625 51.5027 54.8775C51.6814 54.7931 51.8583 54.7037 52.0333 54.6106C52.2077 54.5175 52.3802 54.4194 52.5502 54.3175C52.7202 54.2162 52.8877 54.11 53.0521 54C53.2171 53.89 53.3789 53.7756 53.5377 53.6581C53.6971 53.54 53.8527 53.4181 54.0058 53.2925C54.1589 53.1669 54.3089 53.0375 54.4558 52.9044C54.6027 52.7712 54.7464 52.635 54.8864 52.495C55.0264 52.355 55.1627 52.2112 55.2958 52.0644C55.4289 51.9175 55.5583 51.7675 55.6839 51.6144C55.8096 51.4619 55.9314 51.3056 56.0496 51.1462C56.1671 50.9875 56.2814 50.8256 56.3914 50.6606C56.5014 50.4962 56.6077 50.3287 56.7089 50.1587C56.8108 49.9887 56.9089 49.8162 57.0021 49.6419C57.0952 49.4669 57.1846 49.29 57.2689 49.1112C57.3539 48.9319 57.4339 48.7512 57.5102 48.5681C57.5858 48.385 57.6571 48.2006 57.7239 48.0137C57.7902 47.8275 57.8527 47.6394 57.9102 47.45C57.9677 47.26 58.0202 47.0694 58.0683 46.8775C58.1164 46.685 58.1602 46.4919 58.1989 46.2975C58.2371 46.1031 58.2714 45.9081 58.3002 45.7125C58.3296 45.5162 58.3533 45.32 58.3727 45.1225C58.3921 44.9256 58.4071 44.7281 58.4164 44.53C58.4264 44.3325 58.4314 44.1344 58.4314 43.9362C58.4308 43.7381 58.4258 43.5406 58.4158 43.3425C58.4058 43.145 58.3914 42.9475 58.3714 42.7506C58.3521 42.5531 58.3277 42.3569 58.2983 42.1612C58.2689 41.965 58.2352 41.77 58.1964 41.5762C58.1577 41.3819 58.1139 41.1887 58.0658 40.9969C58.0177 40.8044 57.9646 40.6137 57.9071 40.4244C57.8496 40.235 57.7871 40.0469 57.7202 39.8606C57.6533 39.6744 57.5821 39.4894 57.5064 39.3069C57.4302 39.1237 57.3502 38.9431 57.2652 38.7637C57.1802 38.585 57.0914 38.4081 56.9977 38.2337C56.9046 38.0587 56.8071 37.8869 56.7052 37.7169C56.6033 37.5469 56.4971 37.38 56.3871 37.2156C56.2771 37.0506 56.1633 36.8887 56.0452 36.73C55.9271 36.5706 55.8052 36.415 55.6796 36.2619C55.5539 36.1087 55.4246 35.9587 55.2914 35.8119C55.1589 35.6656 55.0221 35.5219 54.8821 35.3819C54.7421 35.2419 54.5989 35.1056 54.4521 34.9725C54.3052 34.8394 54.1552 34.71 54.0021 34.5844C53.8496 34.4587 53.6933 34.3369 53.5339 34.2194C53.3752 34.1012 53.2133 33.9869 53.0489 33.8769C52.8839 33.7669 52.7171 33.6612 52.5471 33.5594C52.3771 33.4575 52.2052 33.3594 52.0308 33.2662C51.8558 33.1725 51.6789 33.0837 51.5002 32.9987C51.3214 32.9144 51.1402 32.8337 50.9577 32.7581C50.7746 32.6819 50.5896 32.6106 50.4033 32.5437C50.2171 32.4769 50.0289 32.415 49.8396 32.3575C49.6502 32.2994 49.4596 32.2469 49.2677 32.1981C49.0752 32.15 48.8821 32.1069 48.6883 32.0675C48.4939 32.0287 48.2989 31.995 48.1033 31.9656C47.9071 31.9362 47.7108 31.9119 47.5139 31.8925C47.3164 31.8731 47.1189 31.8581 46.9214 31.8481C46.7239 31.8381 46.5258 31.8331 46.3277 31.8331Z" fill="#D8E1FF"/>
</g>
<path d="M46.3276 53.2469C46.0226 53.2469 45.7188 53.2319 45.4151 53.2019C45.1113 53.1719 44.8101 53.1275 44.5113 53.0675C44.212 53.0081 43.917 52.9344 43.6251 52.8456C43.3332 52.7575 43.0463 52.6544 42.7645 52.5381C42.4832 52.4213 42.2076 52.2913 41.9388 52.1475C41.6701 52.0038 41.4088 51.8469 41.1551 51.6775C40.9013 51.5081 40.657 51.3269 40.4213 51.1331C40.1857 50.94 39.9601 50.7356 39.7445 50.52C39.5288 50.3044 39.3238 50.0788 39.1307 49.8425C38.937 49.6069 38.7557 49.3625 38.5863 49.1088C38.417 48.8556 38.2607 48.5944 38.117 48.325C37.9732 48.0563 37.8426 47.7813 37.7263 47.4994C37.6095 47.2175 37.507 46.9306 37.4182 46.6388C37.3295 46.3475 37.2557 46.0519 37.1963 45.7525C37.137 45.4538 37.092 45.1525 37.062 44.8488C37.032 44.5456 37.0176 44.2413 37.0176 43.9363C37.0176 43.6313 37.032 43.3275 37.062 43.0238C37.092 42.72 37.137 42.4188 37.1963 42.12C37.2557 41.8206 37.3295 41.5256 37.4182 41.2338C37.507 40.9419 37.6095 40.655 37.7263 40.3731C37.8426 40.0919 37.9732 39.8163 38.117 39.5475C38.2607 39.2788 38.417 39.0175 38.5863 38.7638C38.7557 38.51 38.937 38.2656 39.1307 38.03C39.3238 37.7944 39.5288 37.5688 39.7445 37.3531C39.9601 37.1375 40.1857 36.9325 40.4213 36.7394C40.657 36.5456 40.9013 36.3644 41.1551 36.195C41.4088 36.0256 41.6701 35.8694 41.9388 35.7256C42.2076 35.5819 42.4832 35.4513 42.7645 35.335C43.0463 35.2181 43.3332 35.1156 43.6251 35.0269C43.917 34.9381 44.212 34.8644 44.5113 34.805C44.8101 34.7456 45.1113 34.7006 45.4151 34.6706C45.7188 34.6413 46.0226 34.6263 46.3276 34.6263C46.6326 34.6263 46.937 34.6413 47.2401 34.6706C47.5438 34.7006 47.8451 34.7456 48.1438 34.805C48.4432 34.8644 48.7382 34.9381 49.0301 35.0269C49.322 35.1156 49.6088 35.2181 49.8907 35.335C50.1726 35.4513 50.4476 35.5819 50.7163 35.7256C50.9857 35.8694 51.247 36.0256 51.5001 36.195C51.7538 36.3644 51.9982 36.5456 52.2338 36.7394C52.4701 36.9325 52.6957 37.1375 52.9113 37.3531C53.127 37.5688 53.3313 37.7944 53.5245 38.03C53.7182 38.2656 53.8995 38.51 54.0688 38.7638C54.2382 39.0175 54.3951 39.2788 54.5388 39.5475C54.6826 39.8163 54.8126 40.0919 54.9295 40.3731C55.0457 40.655 55.1488 40.9419 55.237 41.2338C55.3257 41.5256 55.3995 41.8206 55.4588 42.12C55.5188 42.4188 55.5632 42.72 55.5932 43.0238C55.6232 43.3275 55.6382 43.6313 55.6382 43.9363C55.6376 44.2413 55.6226 44.545 55.592 44.8488C55.562 45.1519 55.517 45.4531 55.4576 45.7519C55.3976 46.0506 55.3232 46.3463 55.2345 46.6375C55.1457 46.9294 55.0432 47.2163 54.9263 47.4975C54.8095 47.7794 54.6795 48.0544 54.5357 48.3231C54.3913 48.5919 54.2351 48.8531 54.0657 49.1063C53.8963 49.36 53.7145 49.6044 53.5213 49.84C53.3276 50.0756 53.1232 50.3013 52.9076 50.5163C52.6926 50.7319 52.467 50.9369 52.2313 51.13C51.9957 51.3231 51.7513 51.505 51.4976 51.6744C51.2445 51.8438 50.9832 52 50.7145 52.1444C50.4457 52.2881 50.1707 52.4181 49.8888 52.535C49.6076 52.6519 49.3207 52.7544 49.0288 52.8431C48.7376 52.9319 48.442 53.0063 48.1432 53.0663C47.8445 53.1256 47.5432 53.1706 47.2401 53.2006C46.9363 53.2313 46.6326 53.2463 46.3276 53.2469ZM46.3276 36.4881C46.0838 36.4881 45.8401 36.5 45.5976 36.5238C45.3551 36.5481 45.1138 36.5838 44.8745 36.6313C44.6351 36.6788 44.3988 36.7381 44.1657 36.8088C43.932 36.8794 43.7026 36.9619 43.4776 37.055C43.252 37.1481 43.032 37.2525 42.8163 37.3675C42.6013 37.4825 42.3926 37.6075 42.1895 37.7431C41.987 37.8788 41.7913 38.0238 41.6026 38.1788C41.4138 38.3338 41.2332 38.4969 41.0607 38.6694C40.8882 38.8419 40.7251 39.0225 40.5701 39.2113C40.4151 39.4 40.2701 39.5956 40.1345 39.7981C39.9988 40.0013 39.8738 40.21 39.7588 40.425C39.6438 40.6406 39.5395 40.8606 39.4463 41.0863C39.3532 41.3113 39.2707 41.5406 39.2001 41.7744C39.1295 42.0075 39.0701 42.2438 39.0226 42.4831C38.9751 42.7225 38.9395 42.9638 38.9151 43.2063C38.8913 43.4488 38.8795 43.6925 38.8795 43.9363C38.8795 44.18 38.8913 44.4238 38.9151 44.6663C38.9395 44.9094 38.9751 45.15 39.0226 45.3894C39.0701 45.6288 39.1295 45.865 39.2001 46.0988C39.2707 46.3319 39.3532 46.5613 39.4463 46.7869C39.5395 47.0119 39.6438 47.2325 39.7588 47.4475C39.8738 47.6625 39.9988 47.8713 40.1345 48.0744C40.2701 48.2775 40.4151 48.4731 40.5701 48.6613C40.7251 48.85 40.8882 49.0306 41.0607 49.2031C41.2332 49.3756 41.4138 49.5394 41.6026 49.6938C41.7913 49.8488 41.987 49.9938 42.1895 50.1294C42.3926 50.265 42.6013 50.39 42.8163 50.505C43.032 50.62 43.252 50.7244 43.4776 50.8175C43.7026 50.9113 43.932 50.9931 44.1657 51.0638C44.3988 51.135 44.6351 51.1938 44.8745 51.2413C45.1138 51.2894 45.3551 51.325 45.5976 51.3488C45.8401 51.3725 46.0838 51.3844 46.3276 51.3844C46.5713 51.3844 46.8151 51.3725 47.0576 51.3488C47.3007 51.325 47.5413 51.2894 47.7807 51.2413C48.0201 51.1938 48.2563 51.135 48.4901 51.0638C48.7232 50.9931 48.9526 50.9113 49.1782 50.8175C49.4032 50.7244 49.6238 50.62 49.8388 50.505C50.0538 50.39 50.2626 50.265 50.4657 50.1294C50.6688 49.9938 50.8645 49.8488 51.0526 49.6938C51.2413 49.5394 51.422 49.3756 51.5945 49.2031C51.767 49.0306 51.9307 48.85 52.0851 48.6613C52.2401 48.4731 52.3851 48.2775 52.5207 48.0744C52.6563 47.8713 52.7813 47.6625 52.8963 47.4475C53.0113 47.2325 53.1157 47.0119 53.2088 46.7869C53.3026 46.5613 53.3845 46.3319 53.4551 46.0988C53.5263 45.865 53.5851 45.6288 53.6326 45.3894C53.6807 45.15 53.7163 44.9094 53.7401 44.6663C53.7638 44.4238 53.7757 44.18 53.7757 43.9363C53.7757 43.6925 53.7632 43.4494 53.7395 43.2063C53.7151 42.9638 53.6795 42.7231 53.6313 42.4838C53.5838 42.245 53.5245 42.0088 53.4532 41.775C53.3826 41.5419 53.3001 41.3125 53.207 41.0875C53.1132 40.8619 53.0088 40.6419 52.8938 40.4269C52.7788 40.2119 52.6538 40.0031 52.5182 39.8C52.3826 39.5975 52.2376 39.4019 52.0826 39.2138C51.9282 39.025 51.7645 38.8444 51.592 38.6719C51.4195 38.4994 51.2388 38.3363 51.0507 38.1813C50.862 38.0269 50.6663 37.8813 50.4638 37.7463C50.2607 37.6106 50.052 37.485 49.837 37.37C49.622 37.255 49.402 37.1506 49.177 37.0575C48.9513 36.9638 48.722 36.8819 48.4888 36.8106C48.2557 36.74 48.0195 36.6806 47.7801 36.6325C47.5413 36.585 47.3001 36.5488 47.0576 36.525C46.8151 36.5006 46.5713 36.4881 46.3276 36.4881Z" fill="#D8E1FF"/>
<path d="M33.2931 26.2431C33.2318 26.2431 33.1712 26.2369 33.1112 26.225C33.0512 26.2131 32.9931 26.1956 32.9368 26.1725C32.8799 26.1487 32.8262 26.12 32.7756 26.0862C32.7249 26.0525 32.6781 26.0137 32.6343 25.9706C32.5912 25.9275 32.5524 25.88 32.5187 25.8294C32.4849 25.7787 32.4562 25.725 32.4324 25.6681C32.4093 25.6119 32.3918 25.5537 32.3799 25.4937C32.3681 25.4337 32.3618 25.3731 32.3618 25.3119C32.3618 25.0519 32.3731 24.7931 32.3949 24.5337C32.4162 24.275 32.4487 24.0175 32.4924 23.7612C32.5356 23.505 32.5893 23.2512 32.6537 22.9994C32.7187 22.7481 32.7937 22.4994 32.8787 22.2544C32.9643 22.0087 33.0593 21.7675 33.1649 21.53C33.2706 21.2925 33.3862 21.06 33.5112 20.8325C33.6362 20.6044 33.7706 20.3825 33.9137 20.1656C34.0574 19.9494 34.2099 19.7394 34.3712 19.5356C34.5324 19.3319 34.7018 19.135 34.8793 18.9456C35.0568 18.7562 35.2424 18.5744 35.4349 18.4C35.6281 18.2262 35.8281 18.0606 36.0349 17.9031C36.2412 17.7456 36.4543 17.5975 36.6737 17.4581C36.8924 17.3181 37.1174 17.1881 37.3474 17.0675C37.5774 16.9469 37.8118 16.8362 38.0512 16.735C38.2906 16.6337 38.5337 16.5431 38.7806 16.4625C39.0281 16.3819 39.2774 16.3112 39.5306 16.2512C39.7831 16.1919 40.0381 16.1425 40.2949 16.1044C40.5518 16.0656 40.8099 16.0381 41.0693 16.0212C41.3287 16.0044 41.5881 15.9981 41.8481 16.0031C42.1074 16.0081 42.3668 16.0237 42.6249 16.0506C42.8837 16.0769 43.1406 16.1144 43.3956 16.1625C43.6512 16.2106 43.9043 16.2687 44.1543 16.3381C44.4049 16.4075 44.6518 16.4869 44.8956 16.5769C45.1393 16.6669 45.3787 16.7669 45.6143 16.8769C45.8499 16.9869 46.0799 17.1062 46.3056 17.2356C46.5306 17.365 46.7506 17.5031 46.9643 17.6506C47.1781 17.7987 47.3849 17.955 47.5862 18.12C47.7868 18.2844 47.9799 18.4575 48.1662 18.6387C48.3524 18.82 48.5306 19.0087 48.7012 19.205C48.8718 19.4006 49.0337 19.6037 49.1868 19.8131C49.3406 20.0231 49.4849 20.2387 49.6206 20.4606C49.7556 20.6819 49.8818 20.9094 49.9981 21.1412C50.0256 21.1962 50.0474 21.2531 50.0637 21.3119C50.0799 21.3706 50.0899 21.4306 50.0943 21.4919C50.0993 21.5525 50.0974 21.6131 50.0899 21.6737C50.0824 21.735 50.0687 21.7944 50.0499 21.8519C50.0306 21.91 50.0056 21.9656 49.9756 22.0187C49.9456 22.0719 49.9106 22.1219 49.8706 22.1681C49.8306 22.2144 49.7862 22.2562 49.7381 22.2937C49.6899 22.3312 49.6381 22.3637 49.5837 22.3912C49.5287 22.4187 49.4724 22.44 49.4131 22.4562C49.3543 22.4725 49.2943 22.4831 49.2331 22.4875C49.1724 22.4919 49.1118 22.49 49.0512 22.4825C48.9906 22.475 48.9312 22.4619 48.8731 22.4425C48.8149 22.4231 48.7593 22.3981 48.7062 22.3681C48.6531 22.3381 48.6031 22.3031 48.5574 22.2631C48.5112 22.2231 48.4693 22.1787 48.4318 22.1306C48.3937 22.0819 48.3618 22.0306 48.3343 21.9762C48.2412 21.79 48.1406 21.6087 48.0318 21.4312C47.9237 21.2537 47.8081 21.0812 47.6856 20.9137C47.5624 20.7456 47.4331 20.5837 47.2968 20.4269C47.1606 20.27 47.0174 20.1187 46.8687 19.9737C46.7199 19.8287 46.5649 19.6906 46.4043 19.5587C46.2437 19.4262 46.0781 19.3012 45.9068 19.1831C45.7362 19.065 45.5606 18.9544 45.3799 18.8512C45.1999 18.7475 45.0156 18.6519 44.8274 18.5637C44.6387 18.4762 44.4474 18.3962 44.2524 18.3244C44.0574 18.2519 43.8593 18.1887 43.6593 18.1331C43.4587 18.0775 43.2568 18.0306 43.0524 17.9925C42.8481 17.9537 42.6424 17.9237 42.4356 17.9025C42.2287 17.8812 42.0218 17.8687 41.8137 17.865C41.6062 17.8612 41.3987 17.8656 41.1912 17.8794C40.9837 17.8931 40.7768 17.915 40.5718 17.9456C40.3662 17.9762 40.1618 18.0156 39.9599 18.0637C39.7574 18.1112 39.5574 18.1675 39.3599 18.2319C39.1624 18.2969 38.9681 18.3694 38.7762 18.45C38.5849 18.5312 38.3974 18.62 38.2131 18.7162C38.0293 18.8131 37.8493 18.9169 37.6737 19.0287C37.4987 19.14 37.3281 19.2587 37.1631 19.385C36.9974 19.5106 36.8374 19.6431 36.6831 19.7825C36.5287 19.9219 36.3806 20.0669 36.2387 20.2187C36.0962 20.3706 35.9606 20.5275 35.8318 20.6906C35.7031 20.8537 35.5812 21.0219 35.4662 21.195C35.3512 21.3681 35.2437 21.5456 35.1437 21.7281C35.0437 21.91 34.9512 22.0962 34.8668 22.2862C34.7824 22.4762 34.7062 22.6694 34.6374 22.8656C34.5693 23.0619 34.5093 23.2606 34.4581 23.4619C34.4062 23.6631 34.3631 23.8662 34.3281 24.0712C34.2937 24.2762 34.2674 24.4825 34.2499 24.6894C34.2331 24.8969 34.2243 25.1044 34.2243 25.3119C34.2243 25.3731 34.2181 25.4337 34.2062 25.4937C34.1943 25.5537 34.1768 25.6119 34.1531 25.6681C34.1299 25.725 34.1012 25.7787 34.0674 25.8294C34.0337 25.88 33.9949 25.9275 33.9518 25.9706C33.9081 26.0137 33.8612 26.0525 33.8106 26.0862C33.7593 26.12 33.7062 26.1487 33.6493 26.1725C33.5931 26.1956 33.5349 26.2131 33.4749 26.225C33.4149 26.2369 33.3543 26.2431 33.2931 26.2431Z" fill="#D8E1FF"/>
<path d="M33.2931 44.8675C33.2318 44.8675 33.1712 44.8613 33.1112 44.8494C33.0512 44.8375 32.9931 44.82 32.9368 44.7969C32.8799 44.7731 32.8262 44.7444 32.7756 44.7106C32.7249 44.6769 32.6781 44.6381 32.6343 44.595C32.5912 44.5519 32.5524 44.5044 32.5187 44.4538C32.4849 44.4031 32.4562 44.3494 32.4324 44.2925C32.4093 44.2363 32.3918 44.1781 32.3799 44.1181C32.3681 44.0581 32.3618 43.9975 32.3618 43.9363V17.8638C32.3618 17.8025 32.3681 17.7419 32.3799 17.6819C32.3918 17.6219 32.4093 17.5638 32.4331 17.5075C32.4562 17.4506 32.4849 17.3975 32.5187 17.3463C32.5531 17.2956 32.5912 17.2488 32.6349 17.2056C32.6781 17.1619 32.7249 17.1238 32.7756 17.0894C32.8268 17.0556 32.8806 17.0269 32.9368 17.0038C32.9931 16.98 33.0512 16.9625 33.1112 16.9506C33.1712 16.9388 33.2318 16.9325 33.2931 16.9325C33.3543 16.9325 33.4149 16.9388 33.4749 16.9506C33.5349 16.9625 33.5931 16.98 33.6493 17.0038C33.7056 17.0269 33.7593 17.0556 33.8106 17.0894C33.8612 17.1238 33.9081 17.1619 33.9512 17.2056C33.9943 17.2488 34.0331 17.2956 34.0674 17.3463C34.1012 17.3975 34.1299 17.4506 34.1531 17.5075C34.1768 17.5638 34.1943 17.6219 34.2062 17.6819C34.2181 17.7419 34.2243 17.8025 34.2243 17.8638V43.9363C34.2243 43.9975 34.2181 44.0581 34.2062 44.1181C34.1943 44.1781 34.1768 44.2363 34.1531 44.2925C34.1299 44.3494 34.1012 44.4031 34.0674 44.4538C34.0331 44.5044 33.9949 44.5519 33.9518 44.595C33.9081 44.6381 33.8612 44.6769 33.8106 44.7106C33.7593 44.7444 33.7062 44.7731 33.6493 44.7969C33.5931 44.82 33.5349 44.8375 33.4749 44.8494C33.4149 44.8613 33.3543 44.8675 33.2931 44.8675Z" fill="#D8E1FF"/>
<path d="M58.1076 39.2775C58.0232 39.2775 57.9401 39.2662 57.8582 39.2437C57.7769 39.2212 57.7001 39.1881 57.6276 39.145C57.5551 39.1012 57.4894 39.0487 57.4313 38.9875C57.3732 38.9262 57.3244 38.8581 57.2844 38.7837L48.3444 21.9962C48.3157 21.9419 48.2919 21.8856 48.2744 21.8275C48.2563 21.7687 48.2444 21.7087 48.2388 21.6481C48.2326 21.5869 48.2326 21.5262 48.2388 21.465C48.2451 21.4044 48.2569 21.3444 48.2744 21.2862C48.2926 21.2275 48.3157 21.1712 48.3444 21.1175C48.3738 21.0631 48.4076 21.0125 48.4463 20.9656C48.4851 20.9181 48.5282 20.875 48.5757 20.8362C48.6232 20.7975 48.6738 20.7637 48.7282 20.735C48.7819 20.7062 48.8382 20.6831 48.8969 20.6656C48.9557 20.6481 49.0151 20.6362 49.0763 20.63C49.1369 20.6244 49.1982 20.6244 49.2588 20.6306C49.3201 20.6369 49.3794 20.6487 49.4382 20.6669C49.4969 20.685 49.5532 20.7081 49.6069 20.7375C49.6607 20.7662 49.7113 20.8006 49.7582 20.8394C49.8057 20.8781 49.8488 20.9219 49.8869 20.9694C49.9257 21.0162 49.9594 21.0675 49.9882 21.1212L58.9282 37.9094C58.9469 37.9444 58.9638 37.9806 58.9776 38.0181C58.9919 38.0556 59.0032 38.0937 59.0126 38.1325C59.0219 38.1719 59.0282 38.2112 59.0326 38.2506C59.0369 38.2906 59.0382 38.3306 59.0369 38.3706C59.0363 38.4106 59.0326 38.45 59.0263 38.4894C59.0201 38.5294 59.0119 38.5681 59.0007 38.6062C58.9894 38.645 58.9757 38.6825 58.9594 38.7187C58.9438 38.7556 58.9257 38.7912 58.9051 38.8256C58.8844 38.86 58.8613 38.8925 58.8369 38.9237C58.8119 38.9556 58.7851 38.985 58.7569 39.0131C58.7282 39.0406 58.6976 39.0669 58.6657 39.0906C58.6338 39.115 58.6007 39.1369 58.5657 39.1562C58.5307 39.1762 58.4951 39.1937 58.4576 39.2087C58.4207 39.2237 58.3832 39.2362 58.3444 39.2469C58.3057 39.2569 58.2663 39.2644 58.2269 39.2694C58.1869 39.275 58.1476 39.2775 58.1076 39.2775Z" fill="#D8E1FF"/>
<path d="M33.2931 18.795C33.2318 18.795 33.1712 18.7888 33.1112 18.7769C33.0512 18.765 32.9931 18.7475 32.9368 18.7238C32.8799 18.7006 32.8268 18.6719 32.7756 18.6381C32.7249 18.6038 32.6781 18.5656 32.6343 18.5225C32.5912 18.4788 32.5524 18.4319 32.5187 18.3813C32.4849 18.33 32.4562 18.2769 32.4324 18.22C32.4093 18.1638 32.3918 18.1056 32.3799 18.0456C32.3681 17.9856 32.3618 17.925 32.3618 17.8638C32.3618 17.6919 32.3699 17.5206 32.3856 17.3494C32.4018 17.1788 32.4249 17.0088 32.4568 16.8394C32.4881 16.6706 32.5274 16.5038 32.5743 16.3388C32.6212 16.1731 32.6756 16.0106 32.7374 15.8506C32.7993 15.69 32.8687 15.5331 32.9449 15.3794C33.0212 15.2256 33.1049 15.0756 33.1949 14.9294C33.2849 14.7831 33.3818 14.6413 33.4856 14.5044C33.5887 14.3669 33.6981 14.235 33.8137 14.1075C33.9293 13.9806 34.0499 13.8588 34.1768 13.7431C34.3037 13.6269 34.4356 13.5169 34.5724 13.4131C34.7087 13.3094 34.8506 13.2125 34.9962 13.1213C35.1418 13.0306 35.2918 12.9469 35.4449 12.87C35.5987 12.7931 35.7556 12.7231 35.9156 12.6606C36.0756 12.5981 36.2381 12.5431 36.4031 12.4956C36.5681 12.4481 36.7349 12.4081 36.9037 12.3763C37.0724 12.3438 37.2424 12.3194 37.4131 12.3031C37.5843 12.2869 37.7556 12.2781 37.9274 12.2775C38.0993 12.2769 38.2706 12.2844 38.4418 12.2994C38.6131 12.3144 38.7831 12.3375 38.9518 12.3681C39.1206 12.3994 39.2881 12.4375 39.4537 12.4838C39.6187 12.53 39.7818 12.5838 39.9424 12.6456C40.1024 12.7069 40.2599 12.775 40.4143 12.8513C40.5681 12.9269 40.7187 13.0094 40.8649 13.0994C41.0118 13.1888 41.1537 13.285 41.2912 13.3881C41.4287 13.4906 41.5618 13.5994 41.6893 13.7144C41.8168 13.8294 41.9387 13.95 42.0549 14.0763C42.1718 14.2025 42.2818 14.3338 42.3862 14.4706C42.4906 14.6069 42.5887 14.7481 42.6799 14.8931C42.7712 15.0388 42.8556 15.1881 42.9331 15.3413C43.0106 15.495 43.0812 15.6513 43.1443 15.8106C43.2074 15.9706 43.2631 16.1331 43.3112 16.2981C43.3593 16.4625 43.3999 16.6294 43.4324 16.7981C43.4443 16.8581 43.4493 16.9188 43.4493 16.9794C43.4487 17.0406 43.4424 17.1013 43.4299 17.1606C43.4174 17.2206 43.3993 17.2788 43.3756 17.335C43.3518 17.3906 43.3231 17.4444 43.2887 17.495C43.2543 17.5456 43.2156 17.5919 43.1724 17.635C43.1287 17.6775 43.0818 17.7163 43.0306 17.7494C42.9799 17.7831 42.9262 17.8113 42.8693 17.8344C42.8131 17.8575 42.7549 17.875 42.6949 17.8863C42.6349 17.8981 42.5743 17.9038 42.5137 17.9031C42.4524 17.9031 42.3918 17.8969 42.3324 17.8844C42.2724 17.8725 42.2143 17.8544 42.1581 17.8306C42.1018 17.8069 42.0487 17.7781 41.9981 17.7438C41.9474 17.71 41.9006 17.6713 41.8574 17.6275C41.8143 17.5844 41.7762 17.5375 41.7424 17.4863C41.7087 17.4356 41.6806 17.3819 41.6574 17.3256C41.6343 17.2688 41.6168 17.2106 41.6049 17.1506C41.5831 17.0388 41.5562 16.9275 41.5237 16.8175C41.4918 16.7075 41.4543 16.5994 41.4124 16.4931C41.3699 16.3869 41.3231 16.2825 41.2712 16.18C41.2199 16.0781 41.1631 15.9788 41.1024 15.8819C41.0412 15.785 40.9762 15.6906 40.9068 15.6C40.8368 15.5088 40.7631 15.4213 40.6856 15.3375C40.6081 15.2531 40.5268 15.1731 40.4412 15.0963C40.3562 15.02 40.2681 14.9469 40.1762 14.8788C40.0843 14.81 39.9899 14.7463 39.8918 14.6863C39.7943 14.6269 39.6943 14.5719 39.5912 14.5213C39.4887 14.4706 39.3837 14.425 39.2768 14.3844C39.1699 14.3431 39.0612 14.3075 38.9512 14.2769C38.8406 14.2463 38.7293 14.2206 38.6168 14.2C38.5037 14.1794 38.3906 14.1644 38.2762 14.1538C38.1624 14.1438 38.0481 14.1394 37.9337 14.1394C37.8193 14.14 37.7049 14.1456 37.5912 14.1569C37.4768 14.1681 37.3637 14.1844 37.2512 14.2056C37.1387 14.2269 37.0274 14.2538 36.9174 14.285C36.8074 14.3169 36.6993 14.3538 36.5924 14.3956C36.4862 14.4369 36.3818 14.4838 36.2793 14.535C36.1768 14.5863 36.0768 14.6419 35.9799 14.7025C35.8824 14.7631 35.7887 14.8281 35.6974 14.8975C35.6062 14.9663 35.5181 15.04 35.4337 15.1169C35.3493 15.1944 35.2687 15.2756 35.1918 15.36C35.1149 15.445 35.0418 15.5331 34.9731 15.6244C34.9043 15.7156 34.8393 15.8106 34.7793 15.9075C34.7193 16.005 34.6637 16.105 34.6131 16.2075C34.5618 16.31 34.5156 16.415 34.4743 16.5219C34.4331 16.6288 34.3968 16.7369 34.3656 16.8469C34.3343 16.9575 34.3081 17.0688 34.2874 17.1813C34.2662 17.2938 34.2506 17.4069 34.2399 17.5213C34.2293 17.635 34.2243 17.7494 34.2243 17.8638C34.2243 17.925 34.2181 17.9856 34.2062 18.0456C34.1943 18.1056 34.1768 18.1638 34.1531 18.22C34.1299 18.2769 34.1012 18.33 34.0674 18.3813C34.0331 18.4319 33.9949 18.4788 33.9518 18.5225C33.9081 18.5656 33.8612 18.6038 33.8106 18.6381C33.7593 18.6719 33.7062 18.7006 33.6493 18.7238C33.5931 18.7475 33.5349 18.765 33.4749 18.7769C33.4149 18.7888 33.3543 18.795 33.2931 18.795Z" fill="#D8E1FF"/>
<path d="M30.5 43.9363C30.3781 43.9363 30.2563 43.9306 30.135 43.9181C30.0138 43.9063 29.8931 43.8888 29.7738 43.865C29.6538 43.8413 29.5356 43.8113 29.4188 43.7763C29.3025 43.7406 29.1875 43.6994 29.075 43.6531C28.9619 43.6063 28.8519 43.5544 28.7444 43.4969C28.6369 43.4394 28.5325 43.3763 28.4313 43.3088C28.3294 43.2413 28.2319 43.1681 28.1375 43.0913C28.0431 43.0138 27.9531 42.9319 27.8669 42.8456C27.7806 42.7594 27.6988 42.6688 27.6213 42.575C27.5438 42.4806 27.4713 42.3825 27.4038 42.2813C27.3356 42.18 27.2731 42.075 27.2156 41.9675C27.1581 41.86 27.1063 41.75 27.0594 41.6375C27.0125 41.5244 26.9719 41.41 26.9363 41.2931C26.9006 41.1763 26.8713 41.0581 26.8475 40.9388C26.8238 40.8194 26.8056 40.6988 26.7938 40.5775C26.7819 40.4556 26.7756 40.3344 26.7756 40.2125C26.7756 40.09 26.7819 39.9688 26.7938 39.8469C26.8056 39.7256 26.8238 39.605 26.8475 39.4856C26.8713 39.3663 26.9006 39.2481 26.9363 39.1313C26.9719 39.0144 27.0125 38.9 27.0594 38.7869C27.1063 38.6744 27.1581 38.5644 27.2156 38.4569C27.2731 38.3494 27.3356 38.2444 27.4038 38.1431C27.4713 38.0419 27.5438 37.9438 27.6213 37.8494C27.6988 37.7556 27.7806 37.665 27.8669 37.5788C27.9531 37.4925 28.0431 37.4106 28.1375 37.3331C28.2319 37.2563 28.3294 37.1838 28.4313 37.1156C28.5325 37.0481 28.6369 36.985 28.7444 36.9275C28.8519 36.87 28.9619 36.8181 29.075 36.7713C29.1875 36.725 29.3025 36.6838 29.4188 36.6481C29.5356 36.6131 29.6538 36.5831 29.7738 36.5594C29.8931 36.5356 30.0138 36.5181 30.135 36.5063C30.2563 36.4938 30.3781 36.4881 30.5 36.4881C30.6219 36.4881 30.7438 36.4938 30.865 36.5063C30.9863 36.5181 31.1069 36.5356 31.2263 36.5594C31.3463 36.5831 31.4644 36.6131 31.5813 36.6481C31.6975 36.6838 31.8125 36.725 31.925 36.7713C32.0381 36.8181 32.1481 36.87 32.2556 36.9275C32.3631 36.985 32.4675 37.0481 32.5688 37.1156C32.6706 37.1838 32.7681 37.2563 32.8625 37.3331C32.9569 37.4106 33.0469 37.4925 33.1331 37.5788C33.2194 37.665 33.3013 37.7556 33.3788 37.8494C33.4563 37.9438 33.5288 38.0419 33.5963 38.1431C33.6644 38.2444 33.7269 38.3494 33.7844 38.4569C33.8419 38.5644 33.8938 38.6744 33.9406 38.7869C33.9875 38.9 34.0281 39.0144 34.0638 39.1313C34.0994 39.2481 34.1288 39.3663 34.1525 39.4856C34.1763 39.605 34.1944 39.7256 34.2063 39.8469C34.2181 39.9688 34.2244 40.09 34.2244 40.2125C34.2238 40.3344 34.2181 40.4556 34.2056 40.5769C34.1938 40.6988 34.1756 40.8188 34.1519 40.9388C34.1281 41.0581 34.0981 41.1763 34.0631 41.2931C34.0275 41.4094 33.9863 41.5244 33.9394 41.6369C33.8931 41.7494 33.8406 41.8594 33.7831 41.9669C33.7256 42.0744 33.6631 42.1788 33.5956 42.2806C33.5275 42.3819 33.455 42.4794 33.3775 42.5738C33.3 42.6681 33.2188 42.7581 33.1325 42.8444C33.0463 42.9306 32.9556 43.0125 32.8619 43.09C32.7675 43.1675 32.6694 43.24 32.5681 43.3075C32.4669 43.3756 32.3625 43.4381 32.255 43.4956C32.1475 43.5531 32.0375 43.605 31.9244 43.6519C31.8119 43.6988 31.6975 43.7394 31.5806 43.775C31.4638 43.8106 31.3456 43.84 31.2263 43.8644C31.1069 43.8881 30.9863 43.9063 30.865 43.9181C30.7438 43.93 30.6219 43.9363 30.5 43.9363ZM30.5 38.35C30.3775 38.35 30.2569 38.3619 30.1369 38.3856C30.0169 38.41 29.9006 38.445 29.7875 38.4919C29.6744 38.5388 29.5669 38.5963 29.4656 38.6638C29.3638 38.7319 29.27 38.8094 29.1831 38.8956C29.0969 38.9819 29.0194 39.0763 28.9519 39.1775C28.8838 39.2794 28.8263 39.3869 28.7794 39.4994C28.7331 39.6125 28.6975 39.7288 28.6738 39.8488C28.65 39.9688 28.6381 40.09 28.6381 40.2125C28.6381 40.3344 28.65 40.4556 28.6738 40.5756C28.6975 40.6956 28.7331 40.8119 28.7794 40.925C28.8263 41.0375 28.8838 41.145 28.9519 41.2469C29.0194 41.3481 29.0969 41.4425 29.1831 41.5288C29.27 41.6156 29.3638 41.6925 29.4656 41.7606C29.5669 41.8281 29.6744 41.8856 29.7875 41.9325C29.9006 41.9794 30.0169 42.0144 30.1369 42.0388C30.2569 42.0625 30.3775 42.0744 30.5 42.0744C30.6225 42.0744 30.7431 42.0625 30.8631 42.0388C30.9831 42.0144 31.0994 41.9794 31.2125 41.9325C31.3256 41.8856 31.4331 41.8281 31.5344 41.7606C31.6363 41.6925 31.73 41.6156 31.8169 41.5288C31.9031 41.4425 31.9806 41.3481 32.0481 41.2469C32.1163 41.145 32.1738 41.0375 32.2206 40.925C32.2669 40.8119 32.3025 40.6956 32.3263 40.5756C32.35 40.4556 32.3619 40.3344 32.3619 40.2125C32.3619 40.09 32.35 39.9688 32.3256 39.8494C32.3019 39.7294 32.2663 39.6131 32.2194 39.5C32.1731 39.3869 32.1156 39.28 32.0475 39.1781C31.9794 39.0769 31.9025 38.9825 31.8163 38.8963C31.7294 38.81 31.6356 38.7325 31.5338 38.665C31.4325 38.5969 31.325 38.5394 31.2125 38.4925C31.0994 38.4456 30.9831 38.41 30.8631 38.3863C30.7431 38.3625 30.6225 38.35 30.5 38.35Z" fill="#D8E1FF"/>
<path d="M33.2931 26.2431C33.2319 26.2431 33.1713 26.2369 33.1113 26.225C33.0513 26.2131 32.9931 26.1956 32.9369 26.1725C32.88 26.1488 32.8263 26.12 32.7756 26.0863C32.725 26.0525 32.6781 26.0138 32.6344 25.9706C32.5913 25.9275 32.5525 25.88 32.5188 25.8294C32.485 25.7788 32.4563 25.725 32.4325 25.6681C32.4094 25.6119 32.3919 25.5538 32.38 25.4938C32.3681 25.4338 32.3619 25.3731 32.3619 25.3119C32.3619 25.19 32.35 25.0688 32.3263 24.9488C32.3025 24.8288 32.2669 24.7125 32.2206 24.5994C32.1738 24.4863 32.1163 24.3794 32.0481 24.2775C31.9806 24.1756 31.9031 24.0819 31.8169 23.995C31.73 23.9088 31.6363 23.8319 31.5344 23.7638C31.4331 23.6956 31.3256 23.6381 31.2125 23.5919C31.0994 23.545 30.9831 23.5094 30.8631 23.4856C30.7431 23.4619 30.6225 23.45 30.5 23.45C30.3775 23.45 30.2569 23.4619 30.1369 23.4856C30.0169 23.5094 29.9006 23.545 29.7875 23.5919C29.6744 23.6381 29.5669 23.6956 29.4656 23.7638C29.3638 23.8319 29.27 23.9088 29.1831 23.995C29.0969 24.0819 29.0194 24.1756 28.9519 24.2775C28.8838 24.3794 28.8263 24.4863 28.7794 24.5994C28.7331 24.7125 28.6975 24.8288 28.6738 24.9488C28.65 25.0688 28.6381 25.19 28.6381 25.3119C28.6381 25.3731 28.6319 25.4338 28.62 25.4938C28.6081 25.5538 28.5906 25.6119 28.5669 25.6681C28.5438 25.725 28.515 25.7781 28.4813 25.8294C28.4469 25.88 28.4088 25.9269 28.365 25.9706C28.3219 26.0138 28.275 26.0519 28.2244 26.0863C28.1731 26.12 28.1194 26.1488 28.0631 26.1719C28.0069 26.1956 27.9488 26.2131 27.8888 26.225C27.8288 26.2369 27.7681 26.2431 27.7069 26.2431C27.6456 26.2431 27.585 26.2369 27.525 26.225C27.465 26.2131 27.4069 26.1956 27.3506 26.1719C27.2944 26.1488 27.2406 26.12 27.1894 26.0863C27.1388 26.0519 27.0919 26.0138 27.0488 25.9706C27.0056 25.9269 26.9669 25.88 26.9325 25.8294C26.8988 25.7781 26.87 25.725 26.8469 25.6681C26.8231 25.6119 26.8056 25.5538 26.7938 25.4938C26.7819 25.4338 26.7756 25.3731 26.7756 25.3119C26.7756 25.19 26.7819 25.0681 26.7938 24.9469C26.8056 24.8256 26.8238 24.705 26.8475 24.5856C26.8713 24.4656 26.9006 24.3475 26.9363 24.2306C26.9719 24.1144 27.0125 23.9994 27.0594 23.8869C27.1063 23.7744 27.1581 23.6638 27.2156 23.5563C27.2731 23.4488 27.3356 23.3444 27.4038 23.2431C27.4713 23.1413 27.5438 23.0438 27.6213 22.9494C27.6988 22.855 27.7806 22.765 27.8669 22.6788C27.9531 22.5925 28.0431 22.5106 28.1375 22.4331C28.2319 22.3556 28.3294 22.2831 28.4313 22.2156C28.5325 22.1475 28.6369 22.085 28.7444 22.0275C28.8519 21.97 28.9619 21.9181 29.075 21.8713C29.1875 21.8244 29.3025 21.7838 29.4188 21.7481C29.5356 21.7125 29.6538 21.6831 29.7738 21.6594C29.8931 21.6356 30.0138 21.6175 30.135 21.6056C30.2563 21.5938 30.3781 21.5881 30.5 21.5881C30.6219 21.5881 30.7438 21.5938 30.865 21.6056C30.9863 21.6175 31.1069 21.6356 31.2263 21.6594C31.3463 21.6831 31.4644 21.7125 31.5813 21.7481C31.6975 21.7838 31.8125 21.8244 31.925 21.8713C32.0381 21.9181 32.1481 21.97 32.2556 22.0275C32.3631 22.085 32.4675 22.1475 32.5688 22.2156C32.6706 22.2831 32.7681 22.3556 32.8625 22.4331C32.9569 22.5106 33.0469 22.5925 33.1331 22.6788C33.2194 22.765 33.3013 22.855 33.3788 22.9494C33.4563 23.0438 33.5288 23.1413 33.5963 23.2431C33.6644 23.3444 33.7269 23.4488 33.7844 23.5563C33.8419 23.6638 33.8938 23.7744 33.9406 23.8869C33.9875 23.9994 34.0281 24.1144 34.0638 24.2306C34.0994 24.3475 34.1288 24.4656 34.1525 24.5856C34.1763 24.705 34.1944 24.8256 34.2063 24.9469C34.2181 25.0681 34.2244 25.19 34.2244 25.3119C34.2244 25.3731 34.2181 25.4338 34.2063 25.4938C34.1944 25.5538 34.1769 25.6119 34.1531 25.6681C34.13 25.725 34.1013 25.7788 34.0675 25.8294C34.0338 25.88 33.995 25.9275 33.9519 25.9706C33.9081 26.0138 33.8613 26.0525 33.8106 26.0863C33.7594 26.12 33.7063 26.1488 33.6494 26.1725C33.5931 26.1956 33.535 26.2131 33.475 26.225C33.415 26.2369 33.3544 26.2431 33.2931 26.2431Z" fill="#D8E1FF"/>
</g>
<defs>
<clipPath id="clip0_4959_1309">
<rect width="60" height="60" fill="white" transform="translate(0.5 6)"/>
</clipPath>
</defs>
</svg>
