<svg width="20" height="20" viewBox="0 0 20 20" fill="none" xmlns="http://www.w3.org/2000/svg">
<g clip-path="url(#clip0_4965_2315)">
<path d="M8.47229 13.0808C8.46 13.0744 8.44563 13.0711 8.43604 13.0727C8.44813 13.0802 8.46 13.0817 8.47229 13.0808Z" fill="#D8E1FF"/>
<path d="M8.05688 12.7188C8.05271 12.6967 8.05146 12.6763 8.05167 12.6575C8.04458 12.6692 8.04479 12.684 8.03875 12.6981C8.03833 12.7135 8.0325 12.729 8.03333 12.7463C8.03958 12.7363 8.04833 12.7273 8.05688 12.7188Z" fill="#D8E1FF"/>
<path d="M9.99125 14.4156C9.99312 14.4446 10.0219 14.481 10.1202 14.5017C10.1042 14.4769 10.0527 14.45 9.99125 14.4156Z" fill="#D8E1FF"/>
<path d="M8.39542 12.4577C8.39083 12.4544 8.38646 12.451 8.38125 12.4485C8.385 12.4531 8.39021 12.4556 8.39542 12.4577Z" fill="#D8E1FF"/>
<path d="M9.14604 13.7C9.14604 13.7 9.14625 13.7 9.14667 13.7004L9.13896 13.679C9.14083 13.6869 9.14375 13.6927 9.14604 13.7Z" fill="#D8E1FF"/>
<path d="M9.28188 12.5929C9.28188 12.5929 9.28229 12.5931 9.28292 12.5929C9.30083 12.575 9.31917 12.5569 9.33729 12.5388C9.32125 12.5508 9.30313 12.5681 9.28188 12.5929Z" fill="#D8E1FF"/>
<path d="M8.96146 13.1931C8.94729 13.1942 8.93354 13.1956 8.93313 13.2079C8.90354 13.1192 8.83896 13.0304 8.77875 12.9533C8.83229 13.094 8.89646 13.2456 8.99375 13.3902C9.00125 13.3267 9.00229 13.2631 8.96167 13.1931H8.96146Z" fill="#D8E1FF"/>
<path d="M8.82417 13.2212L8.83896 13.2148C8.82854 13.2077 8.81667 13.1975 8.80354 13.186C8.80958 13.1981 8.81583 13.21 8.82417 13.2212Z" fill="#D8E1FF"/>
<path d="M8.83896 13.2148C8.86188 13.2302 8.87708 13.2315 8.87667 13.1985L8.83896 13.2148Z" fill="#D8E1FF"/>
<path d="M8.68854 12.9415L8.75229 13.076C8.70021 13.0992 8.67333 13.1092 8.63625 13.0256C8.62542 13.054 8.69459 13.1131 8.72875 13.1527L8.71667 13.1181C8.74208 13.1296 8.77354 13.1594 8.80354 13.1856C8.73938 13.0537 8.82271 12.9046 8.68854 12.9412V12.9415Z" fill="#D8E1FF"/>
<path d="M8.55646 12.8002C8.57812 12.839 8.64187 12.9502 8.68979 12.8819C8.64417 12.8517 8.59979 12.8244 8.55646 12.8002Z" fill="#D8E1FF"/>
<path d="M8.47896 12.385L8.47917 12.3781C8.47438 12.3748 8.46938 12.3717 8.46521 12.3669C8.47021 12.3725 8.47458 12.3788 8.47896 12.385Z" fill="#D8E1FF"/>
<path d="M12.7271 13.525L12.764 13.5119L12.7337 13.5296C12.7287 13.7498 12.7008 13.9796 12.6415 14.2142C12.3798 14.3273 12.0756 14.5246 11.6675 14.6421C11.4627 14.6963 11.235 14.7229 11.0112 14.7046C10.9554 14.6981 10.9002 14.69 10.8456 14.681C10.7887 14.6725 10.7485 14.6583 10.7004 14.646C10.609 14.6192 10.5217 14.5867 10.444 14.5456C10.2852 14.4323 10.2452 14.4113 10.1123 14.3177C10.1048 14.3283 10.0981 14.344 10.0996 14.3606C9.93687 14.2835 9.68083 14.1481 9.56542 14.0092C9.5175 13.9927 9.45271 14.0204 9.53687 14.0675C9.41479 14.0081 9.34208 13.9096 9.28896 13.8196C9.23417 13.7302 9.1975 13.649 9.13021 13.6142C9.18896 13.7358 9.0025 13.5642 9.08437 13.6988C8.96646 13.5813 8.98542 13.4833 8.99375 13.3902C9.06896 13.4994 9.15583 13.6 9.26437 13.6806C9.30562 13.805 9.40333 13.8333 9.48229 13.8244C9.46875 13.805 9.46729 13.7992 9.49646 13.8223L9.51104 13.8202C9.46354 13.7529 9.36 13.599 9.27333 13.5621L9.25229 13.556C9.23042 13.5519 9.20958 13.5563 9.19062 13.574L9.17583 13.5265C9.13583 13.5092 9.09333 13.4892 9.05042 13.4633C9.04667 13.4171 9.13021 13.5085 9.16792 13.5004C9.15542 13.461 9.14458 13.4215 9.13458 13.3817C9.1175 13.3656 9.11979 13.3438 9.12917 13.3208C9.09375 13.2473 9.04958 13.1719 9.00479 13.0988C8.99708 13.0965 8.98687 13.0921 8.97229 13.0835C8.89917 12.9927 8.85479 12.8952 8.81354 12.805C8.74354 12.7015 8.67875 12.6098 8.62854 12.5258C8.60979 12.5115 8.58875 12.5021 8.56646 12.4933C8.65562 12.616 8.7125 12.7796 8.77875 12.9531C8.68521 12.8327 8.60312 12.749 8.66104 12.6856C8.65937 12.6842 8.6575 12.6825 8.65604 12.681L8.59479 12.6744C8.58771 12.6754 8.58125 12.6756 8.575 12.6731H8.57396V12.6727C8.56146 12.6675 8.55062 12.6473 8.54062 12.6031C8.55083 12.6065 8.56333 12.6169 8.57542 12.631C8.58104 12.5854 8.59458 12.5604 8.54937 12.4919C8.48604 12.4667 8.51083 12.5335 8.47771 12.5348C8.49167 12.5056 8.45875 12.4631 8.43354 12.4327C8.42062 12.4104 8.40417 12.3881 8.40062 12.3415C8.41604 12.2985 8.42604 12.33 8.43 12.3667C8.44146 12.3742 8.44708 12.3858 8.44187 12.4C8.43771 12.401 8.43562 12.4004 8.43292 12.4004C8.43458 12.4133 8.43604 12.424 8.44208 12.4298C8.45354 12.4392 8.46854 12.4444 8.48958 12.4413C8.49479 12.4365 8.49708 12.4321 8.49792 12.4277C8.49125 12.4125 8.48208 12.3935 8.48042 12.3788L8.47917 12.3781C8.47958 12.3704 8.47958 12.3625 8.47917 12.3548C8.47771 12.3398 8.47646 12.3219 8.47312 12.3044L8.46604 12.2748C8.46479 12.274 8.46333 12.2738 8.46187 12.2731C8.41646 12.2931 8.44062 12.3083 8.44062 12.3475C8.42937 12.2929 8.37646 12.259 8.31333 12.2485C8.30667 12.2708 8.30625 12.2973 8.32292 12.2873C8.28625 12.3231 8.22937 12.2642 8.18125 12.244C8.16542 12.2465 8.14792 12.2446 8.13187 12.2477C8.13 12.25 8.12812 12.2519 8.12667 12.2548C8.17771 12.2785 8.10687 12.3248 8.16104 12.3388C8.14146 12.3485 8.12333 12.3406 8.10417 12.3265C8.08396 12.3113 8.06396 12.2883 8.04333 12.266C8.04042 12.2713 8.03812 12.2771 8.03625 12.2835L8.04083 12.2633L8.03625 12.259C8.02104 12.2596 8.00542 12.2606 7.98979 12.2629C7.96375 12.2802 7.93708 12.2977 7.90958 12.3158C7.90792 12.319 7.90562 12.3217 7.90375 12.3246C7.91458 12.3444 7.95583 12.3488 7.95667 12.3904C7.90625 12.3758 7.87375 12.404 7.86021 12.4402C7.84521 12.4767 7.84792 12.5171 7.83917 12.5442C7.82708 12.5625 7.90271 12.6144 7.94062 12.6008L7.93687 12.5638C7.93562 12.5538 7.93479 12.5448 7.93417 12.5348C7.93312 12.5152 7.93396 12.4948 7.93708 12.4742C7.97437 12.5002 8.04687 12.5246 8.0575 12.5038C7.97625 12.4567 8.03958 12.4473 8.08562 12.454C8.10042 12.4356 8.11229 12.4238 8.12854 12.3867C8.12812 12.3854 8.12792 12.3844 8.12771 12.3829L8.12875 12.386L8.13104 12.3815C8.155 12.3879 8.16604 12.4356 8.19354 12.4363C8.17896 12.3988 8.2025 12.3931 8.20708 12.3558C8.24979 12.3571 8.255 12.3815 8.25583 12.4119C8.26729 12.4085 8.27958 12.404 8.29021 12.4023C8.29 12.3998 8.28896 12.3973 8.28812 12.3948C8.29229 12.4027 8.31375 12.391 8.34437 12.3917C8.37375 12.3925 8.41083 12.4081 8.41417 12.4454C8.40146 12.449 8.38542 12.4269 8.3675 12.4219C8.34792 12.4179 8.34104 12.4283 8.33854 12.4846C8.32562 12.494 8.31854 12.4896 8.30833 12.4825C8.2975 12.4771 8.29187 12.4613 8.25646 12.4556C8.25708 12.469 8.25875 12.4825 8.26208 12.4956C8.24479 12.4621 8.22042 12.4531 8.19604 12.4527C8.17875 12.4558 8.16208 12.4606 8.14854 12.4698C8.16167 12.4867 8.17396 12.5038 8.185 12.5208C8.18187 12.5267 8.17771 12.5313 8.17479 12.535C8.17396 12.539 8.17292 12.5419 8.17104 12.5435C8.16875 12.5488 8.16396 12.5494 8.16021 12.5521C8.15062 12.5546 8.13604 12.5542 8.11854 12.5577C8.10208 12.5615 8.0825 12.569 8.06854 12.5825C8.06187 12.5871 8.05458 12.5996 8.04917 12.6181C8.04208 12.6454 8.04417 12.6504 8.04187 12.666C8.01937 12.6535 7.99396 12.6438 7.97083 12.621C7.96083 12.6373 7.95062 12.6448 7.93812 12.6594C7.92687 12.6729 7.91896 12.689 7.91125 12.7052C7.90562 12.7219 7.90479 12.7394 7.9075 12.7554C7.91271 12.7717 7.92354 12.7863 7.94104 12.7969C7.92792 12.7246 7.97687 12.7571 8.01167 12.761C8.02125 12.7773 8.03187 12.7965 8.0375 12.8175C8.06562 12.8215 8.09312 12.8235 8.11917 12.8246C8.11458 12.8665 8.17437 12.8452 8.14896 12.9006C8.13271 12.87 8.09375 12.8654 8.05458 12.8648C8.05958 12.8771 8.06396 12.89 8.06812 12.9033C8.07396 12.9158 8.07958 12.9292 8.085 12.9427C8.17167 12.9273 8.22646 12.9908 8.26312 13.0217C8.26042 13.054 8.23 13.074 8.205 13.089C8.21729 13.0633 8.18937 13.0304 8.18812 13.0085C8.17229 13.0113 8.15396 13.0173 8.13562 13.0221C8.15125 13.0367 8.16542 13.0538 8.18375 13.0629C8.18375 13.0629 8.16812 13.071 8.16396 13.0833C8.17437 13.0875 8.18396 13.094 8.19437 13.096C8.1975 13.094 8.20104 13.0917 8.20479 13.089C8.20354 13.0921 8.20187 13.095 8.19937 13.0977C8.21375 13.1027 8.2275 13.1077 8.24104 13.1092C8.25437 13.1127 8.26708 13.1138 8.27854 13.1135C8.28062 13.1158 8.28229 13.1185 8.28396 13.121C8.28437 13.0894 8.29125 13.0588 8.33375 13.0185C8.305 13.0819 8.32521 13.0858 8.34021 13.0752C8.35583 13.0654 8.37 13.0446 8.37167 13.0844C8.35979 13.0946 8.34729 13.1058 8.33458 13.1138C8.34625 13.1483 8.36875 13.139 8.38896 13.1281C8.41083 13.1173 8.43146 13.1071 8.48062 13.1335C8.50125 13.1081 8.48917 13.0906 8.47187 13.0815C8.52708 13.0775 8.56854 13.0173 8.64854 13.0635C8.55917 13.1119 8.48562 13.165 8.42875 13.1865C8.43875 13.186 8.45146 13.1823 8.46896 13.1681C8.45417 13.19 8.44937 13.2073 8.45146 13.2223C8.45771 13.2256 8.465 13.2283 8.47396 13.2335C8.46708 13.2333 8.46021 13.2338 8.45396 13.2331C8.46417 13.2679 8.51417 13.2904 8.51792 13.3385C8.58729 13.3075 8.57667 13.271 8.55354 13.2419C8.53083 13.2529 8.50875 13.2631 8.48729 13.2715C8.50458 13.2567 8.52208 13.2406 8.53917 13.224C8.5225 13.204 8.50708 13.186 8.50937 13.1729C8.53854 13.1752 8.56229 13.1771 8.58437 13.1785L8.62771 13.1333C8.66833 13.1308 8.71396 13.1215 8.75875 13.1133C8.79104 13.1021 8.82354 13.0917 8.85625 13.0821C8.86167 13.0769 8.865 13.0713 8.86542 13.0671C8.85458 13.0696 8.84333 13.071 8.83208 13.0725C8.80292 13.08 8.77708 13.0833 8.75333 13.0833L8.73729 13.0856L8.74771 13.0833C8.74125 13.0831 8.73417 13.0842 8.72812 13.0833L8.72521 12.979C8.76917 12.9523 8.84333 12.9348 8.90042 12.911C8.95833 12.8894 8.99479 12.8563 8.95958 12.8046C8.98687 12.8546 9.11 12.8183 9.12667 12.8815C9.17417 12.865 9.21771 12.8408 9.26437 12.8206C9.23521 12.8402 9.20583 12.8613 9.17667 12.8829C9.14646 12.9027 9.11604 12.9225 9.08583 12.9423C9.02687 12.9833 8.96562 13.0158 8.91 13.0421C8.94625 13.029 8.98208 13.0148 9.01792 12.9992C9.05292 12.9817 9.08667 12.9615 9.12083 12.9406C9.19021 12.9008 9.25208 12.8433 9.31542 12.7842L9.28646 12.7767C9.32104 12.7542 9.35208 12.7263 9.38542 12.7013C9.35 12.7138 9.30792 12.7075 9.26187 12.709C9.21479 12.7088 9.16479 12.716 9.11312 12.7604C9.16792 12.705 9.22687 12.6538 9.28271 12.5935C9.44812 12.59 9.23896 12.7008 9.44458 12.6442C9.43375 12.6673 9.42 12.6819 9.405 12.6917L9.41542 12.786C9.44062 12.7519 9.48229 12.7354 9.51708 12.7173C9.55062 12.6975 9.57667 12.676 9.57021 12.6363L9.54354 12.6523L9.60146 12.5633L9.57937 12.6963C9.64146 12.665 9.67771 12.5863 9.71083 12.4944C9.74729 12.4056 9.77875 12.3033 9.85312 12.2281C9.95417 12.2596 9.73625 12.459 9.71146 12.5877C9.84354 12.4435 9.97 12.2848 10.0896 12.1177C10.1015 12.0838 10.106 12.0504 10.0985 12.0169C10.0579 12.0473 10.0192 12.0781 9.97833 12.1065C10.0548 11.9758 10.2231 11.9602 10.2127 11.8825L10.2227 11.9173L10.2329 11.901C10.2465 11.8408 10.2702 11.7735 10.3221 11.694C10.2446 11.6696 10.1721 11.7813 10.1508 11.8815L10.0883 11.811C9.94833 12.0252 9.78562 12.2554 9.68021 12.4394C9.68583 12.401 9.69271 12.365 9.69646 12.326C9.59229 12.3488 9.59146 12.3883 9.59 12.4296C9.58896 12.47 9.58583 12.5104 9.47833 12.514C9.41229 12.6202 9.57396 12.4883 9.53354 12.5788C9.45333 12.6179 9.44312 12.4504 9.33708 12.5392C9.51646 12.3529 9.70021 12.1413 9.8625 11.904L9.92417 11.8154L9.98125 11.7229C10.0208 11.6625 10.0548 11.5979 10.0902 11.535C10.1617 11.4088 10.2233 11.2779 10.281 11.1483C10.2702 11.1319 10.2519 11.1563 10.2335 11.1802C10.2315 11.1525 10.2423 11.1075 10.2625 11.0496C10.2729 11.0206 10.286 10.9888 10.3015 10.9542C10.315 10.9188 10.3308 10.8808 10.3483 10.8408C10.4171 10.6794 10.5058 10.474 10.5752 10.2638C10.7175 9.84396 10.7785 9.40396 10.6629 9.36646C10.7004 9.33979 10.7287 9.44167 10.7377 9.31292C10.7223 9.29958 10.7033 9.26479 10.666 9.29167C10.7467 9.13646 10.7575 8.94292 10.7546 8.74083C10.7535 8.53833 10.7379 8.32708 10.7748 8.12354C10.7352 8.13313 10.7112 8.04417 10.6827 8.04354C10.7723 7.9025 10.6594 7.66604 10.7027 7.53479L10.6596 7.57833C10.655 7.51 10.6504 7.45146 10.6446 7.39938L10.6425 7.38125C10.6425 7.37875 10.6427 7.37604 10.6425 7.37333L10.6417 7.35604C10.641 7.34438 10.6396 7.33271 10.6377 7.32083C10.6217 7.32396 10.6237 7.34271 10.6185 7.35479C10.5967 7.33604 10.6412 7.3075 10.676 7.28458C10.6406 7.275 10.6052 7.27354 10.5721 7.27958C10.5827 7.23375 10.5696 7.18938 10.5404 7.16C10.539 7.16313 10.5373 7.16583 10.5362 7.17042C10.5227 7.15354 10.5062 7.13833 10.4877 7.12479C10.4644 7.11521 10.4381 7.11021 10.4115 7.11021L10.4096 7.13708C10.4119 7.14083 10.4144 7.14354 10.4177 7.145C10.4252 7.13729 10.4333 7.12938 10.4421 7.1225C10.4427 7.12813 10.4429 7.13229 10.4435 7.13708C10.46 7.16771 10.4406 7.19229 10.4275 7.20917C10.4031 7.2025 10.3775 7.19646 10.349 7.19271L10.3487 7.19375L10.3485 7.19271C10.3281 7.19083 10.3094 7.18792 10.2831 7.18875C10.26 7.22292 10.281 7.21979 10.2135 7.29917C10.1892 7.29063 10.1637 7.28292 10.1373 7.27688C10.1292 7.27229 10.1708 7.26333 10.2052 7.25354C10.24 7.24333 10.2681 7.23125 10.2475 7.19396H10.2465C10.2217 7.19833 10.1956 7.20354 10.1683 7.21042C10.1056 7.25333 10.0408 7.30896 9.97229 7.36854L10.025 7.37792C9.95667 7.37646 9.99687 7.5225 9.91021 7.61125C9.9225 7.57229 9.93396 7.53063 9.9475 7.49188C9.86667 7.48625 9.80979 7.55417 9.75937 7.63354C9.75687 7.69417 9.74125 7.74646 9.70854 7.81271C9.76229 7.7475 9.81271 7.69563 9.84792 7.74104C9.80875 7.80938 9.74521 7.85708 9.6825 7.90313C9.65333 7.95021 9.62396 7.99792 9.59854 8.04792L9.64146 8.02896L9.58104 8.09979L9.58604 8.07333L9.58479 8.07375C9.56312 8.115 9.54354 8.1575 9.52417 8.20021C9.52104 8.21563 9.51646 8.23063 9.50708 8.24396L9.60208 8.22604C9.58917 8.26708 9.57521 8.30792 9.56479 8.34979L9.54729 8.3275C9.45187 8.51979 9.43812 8.71563 9.48646 8.90396C9.47458 8.86688 9.46687 8.82917 9.45646 8.79083C9.43979 8.79896 9.42896 8.86104 9.44104 8.91354C9.38833 8.89729 9.4125 8.75354 9.36771 8.76063L9.36 8.74958C9.35521 8.7725 9.35229 8.79563 9.34937 8.81875C9.35958 8.85646 9.33937 8.87521 9.31875 8.88396L9.30312 8.91854L9.31771 8.94833C9.30646 8.95208 9.29562 8.95583 9.28479 8.95958L9.27104 8.99042L9.27729 8.96229C9.18208 8.99083 9.08771 8.98979 8.99333 8.93438L8.98396 8.95771L8.98646 8.96313L8.98125 8.965C8.97562 8.97979 8.96979 8.99479 8.96417 9.00938L8.97167 8.96875C8.86125 9.01146 8.7525 9.01396 8.64229 8.93646C8.53375 8.85917 8.42042 8.70042 8.34958 8.42C8.38542 8.35104 8.38312 8.67938 8.46167 8.51083C8.53687 8.25458 8.57271 7.92896 8.6725 7.58667C8.77083 7.24438 8.93437 6.8975 9.19792 6.6525C9.36479 6.54063 9.40062 6.50521 9.5575 6.40979C9.55062 6.39854 9.53917 6.38625 9.52187 6.38167C9.54437 6.36417 9.56896 6.345 9.59458 6.32479C9.56625 6.32625 9.53833 6.33167 9.51375 6.34667C9.52604 6.32146 9.54167 6.29292 9.54542 6.27021L9.52 6.28083C9.54292 6.25104 9.57979 6.18625 9.60854 6.19625C9.54167 6.23083 9.55812 6.25563 9.58854 6.30313C9.62125 6.28354 9.65542 6.26479 9.69042 6.24688C9.69146 6.24979 9.69208 6.25188 9.69292 6.25458C9.70375 6.24708 9.715 6.23979 9.72667 6.23271C9.69937 6.18813 9.77354 6.14333 9.82229 6.12208C9.79708 6.15375 9.78146 6.18021 9.76521 6.20938C9.78479 6.19729 9.80271 6.18813 9.82667 6.17542C9.85083 6.1625 9.87417 6.15167 9.89792 6.14146C9.94542 6.12 9.99437 6.10271 10.0425 6.0875C10.1392 6.05917 10.2344 6.04646 10.315 6.04958C10.3848 6.02708 10.4394 5.95958 10.2923 5.98875C10.3748 5.96688 10.4552 5.96313 10.5298 5.96917C10.604 5.95 10.7062 5.96646 10.8158 6.00125C10.9256 6.03646 11.0412 6.08875 11.1633 6.13563C11.1573 6.11063 11.1508 6.08542 11.1435 6.06021C11.2908 6.08792 11.4344 6.195 11.5412 6.33313C11.6517 6.46979 11.7252 6.63292 11.7954 6.77688C11.76 6.75917 11.7235 6.74396 11.6879 6.73C11.7115 6.84417 11.6931 6.99 11.7812 7.06563C11.7429 6.94229 11.8023 6.99042 11.8415 7.00375C11.8529 7.02417 11.8629 7.04688 11.8721 7.07104C11.876 7.08333 11.8802 7.09583 11.8846 7.10854L11.8933 7.13708C11.9035 7.17521 11.9106 7.21563 11.916 7.25479C11.9277 7.33458 11.9337 7.40625 11.959 7.47188C11.959 7.47188 11.9412 7.46771 11.9306 7.47542L11.9994 7.61167C11.9956 7.68188 11.9531 7.71188 11.9071 7.76063C11.9212 7.78417 11.9279 7.84646 11.9704 7.81688C11.9729 7.80292 11.9754 7.78896 11.9698 7.78063C12.0646 7.84271 11.9521 7.83479 12.0144 7.92021C11.9348 7.85792 11.9148 7.95458 11.8408 7.955C11.8844 8.0575 11.9715 7.94958 12.0065 7.95875C11.9942 8.01979 11.9752 8.05771 11.9579 8.09333C11.96 8.10313 11.9606 8.11292 11.9602 8.12292C11.9569 8.11708 11.9542 8.1125 11.9508 8.1075C11.9321 8.14604 11.9167 8.18479 11.9156 8.24979C11.934 8.21417 11.9592 8.17042 11.9602 8.12292C11.9644 8.13063 11.9687 8.13875 11.9731 8.14646C11.9771 8.14271 11.9817 8.13938 11.9875 8.1375C11.9852 8.14708 11.9844 8.15688 11.9842 8.16625C11.9917 8.17896 11.9994 8.19063 12.0077 8.19813L12.0121 8.16917C12.014 8.17417 12.016 8.17958 12.0181 8.18542L12.0331 8.14063C12.0279 8.15854 12.0254 8.17604 12.0215 8.19354C12.0369 8.23188 12.0579 8.27979 12.04 8.29563C12.0415 8.25146 12.0325 8.23271 12.0146 8.22458C11.9952 8.33604 11.9971 8.44542 12.0348 8.56625L12.0571 8.55271L12.0598 8.64854L11.9737 8.61938C11.9979 8.66938 11.9254 8.72813 11.9942 8.75208L11.9994 8.73292L12.0294 8.79604L11.9427 8.73396C11.9117 8.81583 12.0865 8.92292 12.0748 9.05875C11.9625 9.08938 12.0294 8.82771 11.8819 8.81708C11.8594 8.86167 11.8367 8.93667 11.8765 8.96208C11.9162 8.95583 11.9162 8.92417 11.916 8.8925C11.9512 8.94313 11.9485 9.00667 11.9431 9.06771C11.9462 9.16292 11.9415 9.29167 12.0154 9.16688C12.0202 9.18125 12.0229 9.19729 12.025 9.21375L12.0494 9.16813C12.054 9.19938 12.0427 9.22729 12.0273 9.25188C12.0285 9.32729 12.0115 9.41854 11.9985 9.51875L12.0269 9.54229C12.0079 9.59229 11.9956 9.61354 11.9856 9.62646C11.981 9.67396 11.9792 9.72208 11.981 9.77146L12.0431 9.73104C12.0981 9.99604 11.9408 10.3179 11.896 10.5992L11.8381 10.4992C11.7871 10.5906 11.6983 10.6979 11.7375 10.8054C11.7644 10.6871 11.7917 10.7585 11.8185 10.7885C11.8202 10.9615 11.704 11.1796 11.6533 11.4071C11.6533 11.4071 11.6412 11.3906 11.6271 11.3956C11.6148 11.4767 11.5981 11.5569 11.5831 11.6383C11.5275 11.7392 11.4669 11.755 11.3919 11.796C11.3854 11.839 11.3379 11.9306 11.3962 11.916C11.4106 11.8981 11.4244 11.8798 11.426 11.8644C11.4494 12.0125 11.3656 11.9292 11.3431 12.0894C11.3331 11.9508 11.2358 12.0733 11.1779 12.0252C11.1208 12.1929 11.284 12.1031 11.3035 12.1381C11.2312 12.2223 11.1783 12.2615 11.1285 12.3023C11.0767 12.3419 11.0281 12.3827 10.9648 12.469C10.9956 12.5048 11.0719 12.3575 11.125 12.369C11.0819 12.4148 11.0469 12.4783 11.055 12.4973L11.1567 12.4035C10.9927 12.5694 10.8544 12.7338 10.7235 12.9546L10.754 12.954L10.6487 13.0727L10.6223 12.9742C10.5831 13.0525 10.4696 13.0694 10.486 13.1473L10.5121 13.129L10.4573 13.2242L10.4727 13.0879C10.4131 13.1233 10.3842 13.2046 10.3452 13.2954C10.3031 13.3833 10.2571 13.4873 10.1642 13.5527C10.0708 13.5056 10.3404 13.325 10.3487 13.191C10.2829 13.2704 10.2075 13.344 10.1325 13.4198C10.0521 13.4902 9.97479 13.566 9.88521 13.631C9.87312 13.6515 9.86437 13.6731 9.86104 13.6971L10.0083 13.6481C9.88521 13.755 9.72667 13.7088 9.70187 13.7792L9.70479 13.7623C9.6425 13.8021 9.58187 13.8442 9.5175 13.881L9.32167 13.9885C9.36729 14.0388 9.51937 13.8677 9.51667 13.8875L9.47812 13.9788C9.30625 14.035 9.33 14.0067 9.26187 14.0163L9.10417 14.0888L9.11167 14.1096C9.095 14.1048 9.07542 14.1048 9.05646 14.1088C9.02521 14.121 8.99333 14.1335 8.96 14.1454C8.88167 14.185 8.79937 14.2313 8.79146 14.1977C8.66104 14.2321 8.515 14.2554 8.36167 14.2525C8.33958 14.2683 8.39687 14.2779 8.45271 14.2817C8.40708 14.2985 8.31562 14.3085 8.19062 14.2931C8.06604 14.279 7.9075 14.2313 7.76042 14.1477C7.46 13.9821 7.21437 13.6817 7.08833 13.3525C6.98708 13.0983 6.95542 12.8223 6.98271 12.5842C6.96937 12.559 6.94667 12.5571 6.93396 12.5427C6.9275 12.5358 6.92354 12.524 6.92479 12.5077C6.92604 12.4933 6.9325 12.4694 6.94875 12.4335C6.95667 12.4546 6.95396 12.4979 6.95687 12.5273C6.95979 12.56 6.96562 12.5754 6.98667 12.5306L6.98812 12.535C7.00542 12.3952 7.04729 12.2429 7.08458 12.1377C7.12187 12.03 7.15312 11.9535 7.15125 11.9081C7.11542 11.9663 7.08312 12.0254 7.04875 12.0758C7.04958 12.039 7.10396 11.9369 7.14458 11.8696C7.18479 11.8035 7.2 11.7577 7.09021 11.8275C7.1225 11.7371 7.21562 11.6398 7.33687 11.5538C7.36812 11.5333 7.40021 11.5123 7.43292 11.4908C7.46708 11.4717 7.50187 11.4519 7.5375 11.4319C7.60979 11.3938 7.68562 11.3571 7.75479 11.3231C7.72917 11.3123 7.70292 11.3017 7.67583 11.2917C7.82187 11.1883 8.02312 11.1475 8.22646 11.1544C8.25187 11.1544 8.2775 11.1575 8.30396 11.1596C8.3325 11.1621 8.36187 11.1638 8.38917 11.1685C8.44417 11.1775 8.49896 11.1856 8.55208 11.1994C8.65917 11.2227 8.75937 11.259 8.85562 11.2929C8.80771 11.3019 8.76146 11.3123 8.71708 11.3246C8.77708 11.3602 8.83812 11.4108 8.8975 11.4556C8.95604 11.5027 9.01458 11.541 9.08375 11.5533C8.95208 11.4602 9.04187 11.4721 9.08687 11.4627C9.11312 11.4754 9.14 11.491 9.16708 11.5085C9.19417 11.5277 9.22062 11.5485 9.24083 11.565C9.28333 11.6013 9.32625 11.6435 9.36458 11.6875C9.44375 11.7758 9.51417 11.871 9.59 11.9485C9.59 11.9485 9.57 11.95 9.56604 11.9644C9.62208 12.0146 9.67646 12.0652 9.72708 12.1133C9.76958 12.201 9.74646 12.2517 9.73208 12.3258C9.75937 12.3485 9.79937 12.4142 9.8225 12.3646C9.81708 12.3479 9.81167 12.3315 9.80208 12.3246C9.92312 12.355 9.81562 12.3935 9.91792 12.4544C9.81292 12.426 9.84562 12.5319 9.77917 12.5646C9.87375 12.6488 9.89375 12.5015 9.93083 12.4963C9.97479 12.6354 9.93271 12.685 10.0102 12.8038C10.0494 12.7817 9.97187 12.7079 10.006 12.6673C10.0202 12.7052 10.0517 12.7388 10.0696 12.7327C10.0608 12.7044 10.0542 12.6744 10.0467 12.6458C10.0881 12.7885 10.1717 12.9035 10.3073 12.9796L10.3144 12.9546C10.3358 12.9769 10.359 12.9969 10.3817 13.0173L10.3008 13.0594C10.3529 13.0767 10.349 13.17 10.4125 13.1331L10.4017 13.1169C10.4237 13.1225 10.4452 13.1294 10.4673 13.1338C10.4335 13.1442 10.4 13.1517 10.365 13.1602C10.386 13.2008 10.4473 13.2019 10.5115 13.2021C10.5769 13.2006 10.645 13.1965 10.6935 13.2315C10.6779 13.2877 10.6265 13.2715 10.5673 13.2517C10.5083 13.2321 10.4427 13.2073 10.3919 13.2615C10.414 13.3077 10.4673 13.3713 10.511 13.3525C10.5275 13.3156 10.5012 13.2977 10.4748 13.2802C10.5448 13.2802 10.5983 13.3267 10.6542 13.3615C10.7094 13.3965 10.766 13.4185 10.8212 13.3725L10.7679 13.2977C10.8477 13.3185 10.8558 13.4613 10.904 13.4269C10.8692 13.4619 10.8331 13.4942 10.7948 13.5271C10.8556 13.5127 10.914 13.5156 10.97 13.5188C10.9981 13.5188 11.0262 13.5202 11.0519 13.5183C11.0748 13.5135 11.0962 13.5069 11.1158 13.496C11.1215 13.4542 11.0979 13.4508 11.0719 13.4573C11.0444 13.4623 11.0079 13.47 11.0135 13.4633L11.0665 13.4129C11.1144 13.4435 11.1198 13.4579 11.129 13.4727C11.1383 13.4892 11.1494 13.501 11.22 13.5283L11.2206 13.4717C11.2437 13.515 11.2881 13.4892 11.3169 13.4765C11.3467 13.4583 11.3665 13.4513 11.3542 13.5306C11.3385 13.521 11.3231 13.5142 11.309 13.5025L11.3175 13.5533C11.3256 13.5488 11.3358 13.541 11.3462 13.536L11.3937 13.5371C11.426 13.5244 11.4583 13.5017 11.4896 13.4858C11.4875 13.5219 11.5233 13.5175 11.5479 13.5279L11.5973 13.5217C11.6044 13.5098 11.611 13.499 11.6177 13.4858C11.6267 13.496 11.6319 13.5065 11.634 13.5171C11.6748 13.5083 11.7167 13.5048 11.7583 13.494C11.7702 13.4817 11.7865 13.469 11.8048 13.4565C11.811 13.465 11.8162 13.4731 11.8204 13.4804C11.9996 13.4383 12.1827 13.381 12.3652 13.324C12.3756 13.3167 12.386 13.3142 12.3958 13.3146C12.4196 13.3075 12.4429 13.3006 12.4662 13.2935L12.475 13.2758L12.4919 13.2856C12.5067 13.2808 12.5217 13.2758 12.5362 13.2713L12.501 13.2908C12.589 13.3435 12.6512 13.4188 12.6692 13.5298L12.6837 13.5021C12.6987 13.5096 12.7127 13.5175 12.7262 13.5263L12.7271 13.525ZM12.005 8.22417L12.006 8.22042L11.9996 8.21917C12.0015 8.22083 12.0027 8.22333 12.005 8.22417ZM8.96562 8.91583L8.97667 8.94063L8.97937 8.92563L8.96562 8.91583ZM9.29229 8.88979C9.29167 8.88979 9.29042 8.88979 9.28979 8.88979L9.29167 8.89354L9.2925 8.88979H9.29229ZM11.694 8.935C11.6946 8.94229 11.695 8.94938 11.6956 8.95604C11.6971 8.95021 11.6987 8.94396 11.7002 8.9375L11.694 8.935ZM11.5785 8.14354C11.5498 8.15021 11.5317 8.16521 11.5223 8.18375C11.5567 8.23792 11.5646 8.21333 11.58 8.17229C11.579 8.16313 11.5781 8.15354 11.5785 8.14333V8.14354ZM10.9177 7.9275C10.8942 7.96083 10.9027 8.01271 10.9025 8.05458C10.929 8.04271 10.9419 8.02521 10.9467 8.00354L10.91 7.95875C10.9133 7.94854 10.915 7.93792 10.9177 7.92729V7.9275ZM10.8535 7.26792L10.8512 7.26833C10.8519 7.27938 10.856 7.28792 10.8646 7.29313L10.8535 7.26813V7.26792ZM10.5598 6.8225C10.5715 6.82333 10.5825 6.82333 10.5929 6.82479C10.5894 6.82333 10.586 6.82167 10.5823 6.82063L10.5596 6.8225H10.5598ZM9.82562 7.12896L9.75333 7.16229L9.73583 7.18688C9.71354 7.21938 9.69208 7.25292 9.67167 7.28729C9.72187 7.22958 9.77396 7.17604 9.82562 7.12896ZM9.83667 7.25208C9.84896 7.24125 9.86167 7.23021 9.87479 7.21896C9.8775 7.21479 9.87917 7.21063 9.88104 7.20625C9.87229 7.21625 9.85729 7.23208 9.83667 7.25208ZM9.56875 7.61771C9.58312 7.59146 9.59667 7.56708 9.60792 7.54667L9.59896 7.51875C9.58083 7.54292 9.5625 7.5675 9.54437 7.59188C9.54812 7.6075 9.55667 7.61604 9.56875 7.61771ZM9.62437 7.51688C9.62021 7.515 9.61729 7.51083 9.61625 7.50417L9.61354 7.53667C9.6175 7.52938 9.62083 7.52313 9.62437 7.51688ZM10.8471 6.06604C10.9719 6.13104 11.0615 6.20354 11.159 6.23854C11.105 6.18604 11.1215 6.18354 11.1552 6.18896C11.1877 6.19604 11.2342 6.21521 11.2335 6.20146C11.1827 6.16375 11.1315 6.1525 11.0987 6.20292L11.1419 6.12938C11.0454 6.09646 10.946 6.07563 10.8471 6.06604ZM10.5408 6.15479C10.576 6.16417 10.626 6.17938 10.68 6.19646C10.786 6.21583 10.9033 6.24542 11.0065 6.30563C11.0442 6.31188 11.0771 6.30813 11.0973 6.28396C11.1533 6.35229 11.1977 6.42229 11.23 6.49625C11.2954 6.525 11.2508 6.43458 11.3262 6.44833C11.3306 6.50875 11.3648 6.55146 11.4031 6.59417C11.4017 6.56875 11.4 6.54417 11.4 6.51979C11.4365 6.57167 11.4652 6.62833 11.49 6.68583C11.5044 6.70313 11.5181 6.71979 11.5269 6.73667C11.5348 6.76438 11.6327 6.76958 11.6487 6.72583C11.5931 6.65521 11.5317 6.59208 11.4652 6.53729C11.5067 6.51792 11.5404 6.43438 11.4633 6.37C11.4408 6.42625 11.4125 6.40563 11.3781 6.36083C11.3969 6.41938 11.4 6.46875 11.4 6.51979C11.295 6.36542 11.1358 6.2425 10.9448 6.18188C10.8142 6.06333 10.656 6.08458 10.5715 6.135C10.6029 6.14375 10.609 6.14729 10.5562 6.14458L10.5408 6.15479ZM9.23167 7.26313C9.29937 7.14979 9.37896 7.04792 9.46896 6.96208C9.47312 6.91542 9.48 6.86958 9.49771 6.82646L9.56833 6.85979C9.53833 6.87688 9.52458 6.89563 9.51771 6.91813L9.52271 6.91354C9.58396 6.87792 9.62458 6.85438 9.66083 6.83313C9.61042 6.80375 9.59187 6.86396 9.6475 6.74813C9.67458 6.75 9.68896 6.7825 9.70521 6.80563C9.73667 6.78625 9.76958 6.76542 9.81812 6.74083C9.81125 6.72958 9.80021 6.71688 9.78521 6.71042C9.80604 6.69375 9.82958 6.67458 9.855 6.65521C9.85875 6.62125 9.86896 6.58646 9.91333 6.55708C9.88042 6.56125 9.84854 6.56792 9.81562 6.57438C9.85542 6.54229 9.92896 6.47667 10.0017 6.50125C9.96062 6.51542 9.90625 6.56833 9.89125 6.62896C9.92521 6.60438 9.96208 6.58021 10.0029 6.55813C10.0454 6.53479 10.0896 6.51521 10.1342 6.49958C10.1321 6.49813 10.1306 6.49708 10.1285 6.49563L10.1571 6.49188C10.1917 6.48167 10.2258 6.47313 10.2585 6.46938C10.2731 6.40979 10.2204 6.42125 10.1685 6.44125C10.1169 6.45958 10.0665 6.48479 10.0671 6.42646C10.0915 6.34021 10.159 6.35479 10.215 6.37271C10.2733 6.39 10.3206 6.40813 10.3633 6.31458C10.2637 6.32146 10.1621 6.34333 10.0642 6.38063C10.016 6.39875 9.96583 6.42167 9.92104 6.44604C9.87812 6.46938 9.83708 6.49521 9.7975 6.52292C9.63979 6.63438 9.51521 6.775 9.41667 6.9225C9.34271 7.03313 9.28292 7.14646 9.23187 7.26313H9.23167ZM9.3325 8.70917C9.3175 8.6875 9.3025 8.66563 9.28896 8.64313C9.28979 8.69729 9.2775 8.74604 9.23042 8.78938C9.26083 8.84167 9.28917 8.74875 9.32062 8.76521C9.32458 8.74708 9.32854 8.72813 9.3325 8.70917ZM10.8975 7.76729C10.8871 7.77792 10.8756 7.82979 10.8715 7.88792C10.8787 7.87563 10.8946 7.87063 10.9296 7.87917L10.9319 7.87C10.9267 7.83958 10.9246 7.80833 10.93 7.7775C10.9 7.75667 10.859 7.75979 10.8537 7.64042L10.9331 7.57813C10.9254 7.65354 10.9294 7.70667 10.9367 7.75313C10.9392 7.74563 10.941 7.73833 10.9446 7.73104C10.9437 7.59896 10.9194 7.45292 10.8817 7.33667C10.8704 7.32854 10.8587 7.32396 10.8481 7.32083C10.8569 7.38833 10.8475 7.51833 10.8542 7.57625L10.7835 7.53208C10.7258 7.62042 10.8248 7.66625 10.7731 7.77729C10.8162 7.87854 10.8677 7.71104 10.8979 7.76729H10.8975ZM11.5917 8.72188C11.5852 8.73563 11.5812 8.75104 11.5767 8.76604C11.5802 8.77646 11.5833 8.78708 11.5854 8.79833L11.5592 8.84792L11.559 8.84896C11.6037 8.86125 11.5965 8.78771 11.5917 8.72188ZM11.6729 8.98583C11.6677 8.92646 11.6669 8.865 11.6802 8.81271C11.6906 8.83125 11.6912 8.88438 11.694 8.93188L11.7015 8.93292C11.705 8.91417 11.709 8.89375 11.7129 8.87313C11.7125 8.79333 11.7123 8.71167 11.7075 8.63354L11.7323 8.64604L11.7194 8.55042L11.7121 8.55729C11.7152 8.54854 11.7133 8.52542 11.7092 8.4925C11.6933 8.47854 11.6765 8.46646 11.6606 8.45688C11.6827 8.44354 11.6654 8.43813 11.6998 8.44854C11.7008 8.44688 11.7017 8.44542 11.7027 8.44396C11.6985 8.41229 11.6937 8.37604 11.6887 8.3375C11.6529 8.30063 11.5992 8.26188 11.5833 8.19083C11.5744 8.23688 11.5681 8.28563 11.566 8.33875C11.5719 8.35479 11.5752 8.37354 11.5773 8.39583L11.6075 8.27438C11.6133 8.31688 11.6256 8.38333 11.6196 8.44271C11.6506 8.47729 11.71 8.44063 11.6719 8.55479C11.649 8.52729 11.6535 8.4125 11.62 8.4825C11.6177 8.47958 11.6165 8.47646 11.6148 8.47354C11.6102 8.49375 11.6029 8.51229 11.5912 8.52729C11.5931 8.49583 11.5827 8.44438 11.5637 8.39604C11.5629 8.48021 11.5621 8.57042 11.5615 8.66396C11.571 8.66729 11.5808 8.67042 11.5908 8.67208C11.5929 8.63813 11.6035 8.61688 11.6373 8.63208C11.7825 8.74979 11.5125 8.87396 11.6729 8.98646V8.98583ZM11.9467 9.62667C11.9556 9.62729 11.9621 9.62542 11.9677 9.62313C11.9621 9.55709 11.956 9.49125 11.9477 9.42604L11.94 9.43146C11.945 9.42167 11.9419 9.38646 11.9371 9.33979L11.8477 9.28896C11.9165 9.39313 11.8992 9.52625 11.9467 9.62688V9.62667ZM11.9787 9.75L11.9696 9.64396C11.9573 9.65667 11.9446 9.67459 11.9212 9.74104L11.9787 9.75ZM11.9431 9.76875C11.9377 9.75959 11.9298 9.75208 11.9194 9.74646C11.9169 9.75271 11.9148 9.75875 11.9121 9.76584L11.9431 9.76875ZM11.9429 9.88521C11.9527 9.84896 11.9575 9.81479 11.9508 9.78813C11.9312 9.81458 11.9365 9.85229 11.9429 9.88521ZM11.7677 10.1433L11.8096 10.2138C11.8529 10.2304 11.9265 10.2063 11.9306 10.1177C11.8406 10.1354 11.8867 10.0463 11.9225 9.94792C11.9125 9.94542 11.8996 9.94021 11.8825 9.93146L11.9219 9.88396L11.8535 9.88292C11.8635 9.955 11.8708 10.0275 11.8773 10.1006C11.8292 10.0744 11.8312 10.1788 11.7677 10.1435V10.1433ZM11.8104 10.4698L11.8052 10.229C11.766 10.2308 11.7444 10.2 11.7258 10.1627C11.7198 10.2023 11.7179 10.2446 11.7175 10.2854C11.7269 10.3063 11.7327 10.3196 11.7327 10.3196L11.7171 10.3102C11.7335 10.3252 11.7369 10.3619 11.7356 10.4056C11.7265 10.4056 11.7177 10.405 11.71 10.404C11.7115 10.4108 11.7156 10.4185 11.7212 10.4267C11.725 10.4217 11.73 10.4163 11.7354 10.4108C11.735 10.4206 11.7342 10.431 11.7337 10.4413C11.7558 10.4635 11.7877 10.4817 11.8104 10.47V10.4698ZM10.6104 12.5708C10.6148 12.5688 10.6183 12.5669 10.6223 12.5648C10.6265 12.559 10.6304 12.5529 10.634 12.5469C10.6256 12.5546 10.6169 12.5617 10.6096 12.569C10.61 12.57 10.61 12.57 10.6104 12.5708ZM10.4325 12.7998L10.4371 12.7994L10.4458 12.7819C10.4412 12.7879 10.4371 12.7935 10.4325 12.7998ZM10.4629 12.8504C10.5246 12.8029 10.5544 12.7329 10.5662 12.6665L10.5017 12.7315C10.525 12.7013 10.5481 12.67 10.5708 12.6381C10.5715 12.6302 10.5723 12.6225 10.5731 12.6146L10.5721 12.6C10.55 12.63 10.5285 12.6625 10.5071 12.6944C10.4944 12.7423 10.4812 12.7952 10.4631 12.8504H10.4629ZM10.1177 13.114C10.1904 13.0444 10.2623 12.9704 10.3344 12.8971L10.33 12.8719C10.2687 12.9438 10.1867 13.0025 10.1425 13.0704L10.14 13.0742C10.1308 13.0869 10.1237 13.1002 10.1179 13.1138L10.1177 13.114ZM9.97042 13.2642L9.97396 13.2608L9.97167 13.2127C9.94604 13.2567 9.91729 13.3017 9.88396 13.3454C9.88792 13.3456 9.89167 13.3454 9.89542 13.3463C9.93646 13.3431 9.91104 13.3854 9.90521 13.4077C9.945 13.3652 9.98104 13.3238 10.0135 13.2835C10.0092 13.2715 9.99708 13.2644 9.97646 13.2648C9.97542 13.2675 9.97479 13.2706 9.97437 13.274L9.97417 13.2646C9.97271 13.2646 9.97187 13.2646 9.97042 13.2644V13.2642ZM9.66229 13.4973C9.66792 13.5058 9.67479 13.5102 9.68208 13.5119C9.69792 13.4902 9.71417 13.4683 9.73062 13.4479C9.73187 13.3906 9.89562 13.2677 9.9675 13.1531L9.96667 13.1427C9.94625 13.1665 9.92604 13.189 9.90417 13.2104C9.86646 13.2615 9.82187 13.3096 9.77979 13.3577C9.73521 13.4029 9.69333 13.4481 9.66229 13.4973ZM9.43021 13.6592C9.475 13.659 9.57979 13.6142 9.57062 13.6367C9.59937 13.6179 9.63562 13.5783 9.66937 13.5294C9.64146 13.5321 9.62021 13.5321 9.47896 13.5906L9.48396 13.5994L9.55937 13.5756C9.53792 13.5919 9.51562 13.6048 9.49333 13.6154L9.50771 13.6396C9.48083 13.6348 9.45479 13.644 9.43 13.6592H9.43021ZM9.00792 13.4419C9.01229 13.4448 9.01458 13.4485 9.01542 13.4529C9.02771 13.4492 9.03958 13.4471 9.05271 13.4419L9.055 13.4354L9.05312 13.4417C9.06854 13.4354 9.08312 13.4294 9.10062 13.4223C9.09896 13.4127 9.09021 13.4102 9.07875 13.4102C9.06833 13.416 9.06 13.4242 9.05479 13.4354L9.06167 13.4119C9.05417 13.4133 9.04604 13.415 9.03729 13.4175C9.02875 13.4263 9.01771 13.4338 9.00792 13.4419ZM8.98312 13.4619L8.98437 13.4615C9.00229 13.451 9.01042 13.4446 9.00729 13.4423C8.99917 13.449 8.99229 13.4556 8.98312 13.4619ZM8.99542 13.8296C9.10146 13.8523 9.18083 13.7919 9.26479 13.7165C9.26479 13.7115 9.26437 13.7071 9.26437 13.7008L9.28437 13.6996C9.29729 13.6885 9.31104 13.6777 9.325 13.6671L9.31917 13.6588C9.30208 13.6608 9.28646 13.6631 9.27208 13.6656C9.20312 13.7225 9.12833 13.7717 9.05333 13.8223C9.05417 13.8152 9.05271 13.8102 9.05 13.8067C9.03292 13.8146 9.01458 13.8221 8.99542 13.8294V13.8296ZM8.31229 13.201C8.31604 13.2158 8.32 13.2342 8.3275 13.251C8.34396 13.2471 8.38292 13.2485 8.38396 13.2223C8.35625 13.2158 8.33417 13.2079 8.31229 13.2013V13.201ZM7.23792 11.774C7.21375 11.8088 7.18917 11.8456 7.16562 11.8842C7.17604 11.8942 7.17333 11.9229 7.18125 11.9292C7.18937 11.9358 7.20542 11.9185 7.26458 11.8471C7.26521 11.8217 7.28667 11.7679 7.23792 11.774ZM8.67937 11.3471C8.56604 11.3304 8.45292 11.3338 8.34333 11.3454C8.36396 11.3019 8.31 11.2215 8.19542 11.2375C8.23792 11.3185 8.12854 11.2952 8.00333 11.2954C7.87833 11.2938 7.735 11.3252 7.75896 11.4171L7.73333 11.3358C7.60875 11.4033 7.48 11.4944 7.38187 11.5992L7.39917 11.6004C7.39125 11.5881 7.31958 11.661 7.245 11.764C7.37354 11.6785 7.51062 11.5965 7.66375 11.5333C7.81625 11.4708 7.96604 11.431 8.12854 11.4142C8.13229 11.4077 8.13875 11.4004 8.14979 11.3935C8.16104 11.4006 8.17292 11.4052 8.18458 11.41C8.27292 11.4029 8.37687 11.41 8.47375 11.4263C8.51271 11.4275 8.55 11.4294 8.58062 11.4369C8.6125 11.451 8.70437 11.3898 8.67958 11.3469L8.67937 11.3471ZM8.66167 12.6819L8.6625 12.6835L8.66354 12.6821L8.66146 12.6819H8.66167ZM9.63437 12.9481C9.63812 12.9415 9.63833 12.9323 9.63437 12.92C9.63271 12.9292 9.6325 12.9385 9.63437 12.9481ZM9.8675 13.3127C9.78875 13.2121 9.76958 13.1519 9.70458 13.0625L9.65187 13.0906L9.64896 13.0946C9.71083 13.1742 9.78792 13.2492 9.8675 13.3127ZM9.54417 13.6621C9.52729 13.6365 9.5125 13.6104 9.49854 13.5856C9.48521 13.5873 9.47125 13.5881 9.45729 13.5885C9.48562 13.6194 9.51667 13.6471 9.54437 13.6621H9.54417ZM10.1896 13.2394C10.1648 13.1833 10.1165 13.1573 10.0621 13.146C10.0942 13.1804 10.1265 13.2158 10.1625 13.2473L10.1896 13.2394ZM10.1606 13.5931L10.1844 13.5427C10.1173 13.5127 10.0575 13.4858 10.0002 13.4602C10.0142 13.5392 10.0521 13.5321 10.0848 13.526C10.1187 13.5198 10.1477 13.5148 10.1606 13.5933V13.5931ZM10.1787 13.6094C10.1717 13.6054 10.1662 13.6031 10.1623 13.6021C10.1625 13.6033 10.1627 13.6042 10.1629 13.6056C10.1692 13.6075 10.1744 13.6085 10.179 13.6094H10.1787ZM10.2873 13.6798C10.2479 13.654 10.2165 13.6333 10.1944 13.6188C10.1881 13.6281 10.1823 13.6375 10.1777 13.6471C10.2092 13.6598 10.2415 13.6696 10.269 13.684C10.2748 13.6813 10.2815 13.6806 10.2873 13.6798ZM10.7319 13.6183C10.7992 13.6513 10.8658 13.6838 10.9325 13.716C10.9662 13.6888 10.8429 13.626 10.8658 13.6127C10.839 13.6052 10.7873 13.6138 10.7319 13.6183ZM10.5298 13.8267C10.5252 13.845 10.5196 13.8627 10.5133 13.88L10.5506 13.899C10.5494 13.8763 10.5385 13.8513 10.5306 13.8271L10.5298 13.8267ZM10.4815 13.7998C10.479 13.8063 10.4762 13.8119 10.4742 13.815C10.4883 13.8169 10.5029 13.8185 10.5175 13.8204C10.5054 13.8135 10.4933 13.8065 10.4817 13.7998H10.4815ZM10.3885 13.8067L10.3633 13.7967L10.364 13.7985L10.3856 13.8117C10.3873 13.8104 10.3875 13.8083 10.3885 13.8067ZM10.3931 13.789C10.3927 13.775 10.3887 13.7588 10.3898 13.7456C10.38 13.7396 10.371 13.734 10.3619 13.7281C10.3683 13.7492 10.3777 13.77 10.3931 13.789ZM10.5808 13.5381C10.5752 13.4933 10.6792 13.524 10.6085 13.4679C10.5612 13.4542 10.5148 13.461 10.5067 13.4956C10.5312 13.5104 10.5558 13.5252 10.5808 13.5381ZM10.4865 14.21C10.4223 14.1588 10.3796 14.1344 10.3244 14.0942C10.3023 14.1044 10.2777 14.1129 10.2508 14.12C10.3267 14.1544 10.406 14.1835 10.4865 14.21ZM10.7937 13.9715C10.7087 13.9604 10.6081 13.8354 10.559 13.9031L10.6019 13.9248C10.6444 13.936 10.6852 13.949 10.7279 13.9585L10.7937 13.9717V13.9715ZM10.9181 13.9906C10.9158 13.9883 10.9129 13.9865 10.9106 13.9835C10.8777 13.9729 10.8444 13.965 10.8125 13.9521L10.7975 13.9723C10.8371 13.9815 10.8781 13.9848 10.9181 13.9908V13.9906ZM11.0706 13.7813C11.0885 13.771 11.105 13.7625 11.121 13.7554C11.1373 13.746 11.1529 13.7381 11.1685 13.7319C11.1198 13.7215 11.0665 13.7396 10.9992 13.7485C11.0229 13.759 11.0469 13.769 11.0708 13.781L11.0706 13.7813ZM11.0815 13.9348C11.095 13.9304 11.1083 13.9263 11.1215 13.9196C11.0696 13.9175 11.0398 13.9152 11.045 13.9256L11.0812 13.935L11.0815 13.9348ZM11.2194 13.9356C11.2052 13.9285 11.1944 13.924 11.1846 13.9202C11.166 13.92 11.1483 13.9196 11.1329 13.9194L11.1106 13.9417L11.1333 13.945C11.1642 13.9398 11.1933 13.9358 11.2194 13.9356ZM11.3037 13.6683L11.3069 13.6669V13.6658C11.3056 13.6663 11.3048 13.6675 11.3037 13.6683ZM11.2671 13.7071C11.2804 13.705 11.2944 13.7031 11.3094 13.7021L11.3079 13.6788L11.2971 13.674C11.2862 13.6825 11.2762 13.6938 11.2671 13.7071ZM11.34 13.9188C11.3394 13.9181 11.3377 13.9171 11.3373 13.9163C11.3256 13.9169 11.3144 13.9175 11.3031 13.9181L11.34 13.9188ZM11.3556 13.6994L11.3452 13.6958L11.3423 13.7013C11.3469 13.7004 11.3508 13.7 11.3556 13.6994ZM11.3844 13.6875C11.3773 13.6856 11.37 13.6848 11.3627 13.6848C11.3662 13.6879 11.3729 13.6892 11.3844 13.6875ZM11.4912 13.9275C11.4823 13.9233 11.4704 13.9215 11.4575 13.921C11.4515 13.9283 11.4479 13.935 11.4471 13.941L11.4912 13.9275ZM12.3229 13.3869C12.2181 13.444 12.1092 13.5098 11.9748 13.6006C11.996 13.6442 11.9731 13.6613 11.9477 13.6804C11.9217 13.6983 11.8933 13.7169 11.9017 13.7683C11.9723 13.7375 11.9358 13.755 11.8477 13.7927C11.8608 13.796 11.8733 13.7967 11.8856 13.7967C11.9102 13.7904 11.9342 13.7844 11.9583 13.7783C11.9575 13.7585 11.955 13.7427 11.9546 13.7371L11.9783 13.7733L11.9873 13.771C12.0658 13.7269 12.1267 13.6425 12.1852 13.5719C12.2452 13.5019 12.3046 13.4454 12.4006 13.4533C12.4271 13.3877 12.3052 13.4471 12.3229 13.3869ZM12.456 13.3148L12.4337 13.3269C12.4387 13.3306 12.4427 13.3342 12.4448 13.3369L12.456 13.3148Z" fill="#D8E1FF"/>
<path d="M9.52667 6.25251C9.49792 6.24376 9.44208 6.26105 9.37229 6.35188C9.40354 6.34376 9.45729 6.30355 9.52667 6.25251Z" fill="#D8E1FF"/>
<path d="M11.0927 6.14458C11.0927 6.14458 11.0925 6.14458 11.0917 6.14417L11.114 6.1675C11.1073 6.15896 11.1 6.1525 11.0927 6.14458Z" fill="#D8E1FF"/>
<path d="M8.16312 12.2927L8.15396 12.285C8.15729 12.2883 8.15979 12.29 8.16292 12.2929H8.16312V12.2927Z" fill="#D8E1FF"/>
<path d="M11.5898 8.79001L11.5852 8.79855C11.5873 8.8098 11.5885 8.82147 11.5883 8.83418L11.5898 8.79001Z" fill="#D8E1FF"/>
<path d="M11.7354 10.4056V10.4111C11.7371 10.4094 11.7383 10.4077 11.7402 10.4058C11.7385 10.4058 11.7373 10.4058 11.7354 10.4056Z" fill="#D8E1FF"/>
<path d="M9.70709 6.64064C9.72729 6.62835 9.74979 6.61147 9.77542 6.59293C9.74979 6.58126 9.70625 6.59064 9.65521 6.6646C9.6575 6.66418 9.66021 6.66272 9.66271 6.6623C9.6475 6.6848 9.63229 6.71043 9.60375 6.71814C9.64042 6.70001 9.72771 6.70418 9.70709 6.64064Z" fill="#D8E1FF"/>
<path d="M9.50146 6.37646C9.50375 6.3675 9.50813 6.35708 9.51375 6.34604C9.50583 6.35083 9.49813 6.35625 9.49208 6.36333L9.50146 6.37646Z" fill="#D8E1FF"/>
<path d="M9.52542 6.40938L9.50146 6.37646C9.49688 6.39542 9.50104 6.40855 9.52542 6.40938Z" fill="#D8E1FF"/>
<path d="M11.8029 13.4513C11.8042 13.4527 11.8048 13.4538 11.8056 13.4552L11.81 13.4523C11.8077 13.4519 11.8056 13.4517 11.8029 13.4513Z" fill="#D8E1FF"/>
<path d="M11.9346 13.3629C11.8977 13.3944 11.8492 13.4227 11.81 13.4523C11.8762 13.4592 11.895 13.4212 11.9346 13.3629Z" fill="#D8E1FF"/>
<path d="M6.96458 13.1929L6.98021 13.1888C6.97167 13.1808 6.96229 13.1696 6.9525 13.1567C6.95542 13.1692 6.95917 13.1813 6.96458 13.1929Z" fill="#D8E1FF"/>
<path d="M6.98042 13.1887C6.99917 13.2046 7.01375 13.2067 7.01937 13.1775L6.98042 13.1887Z" fill="#D8E1FF"/>
<path d="M6.90646 12.8869C6.90938 12.94 6.92021 12.9902 6.92854 13.0421C6.87292 13.0525 6.84396 13.0575 6.83021 12.9569C6.81313 12.9846 6.86209 13.069 6.88771 13.1125L6.88334 13.076C6.90542 13.0925 6.93 13.1281 6.9525 13.1567C6.935 13.0896 6.95688 13.0215 6.96792 12.9725C6.97709 12.924 6.97479 12.8927 6.90625 12.8869H6.90646Z" fill="#D8E1FF"/>
<path d="M6.84208 12.6629C6.84229 12.6948 6.84479 12.7494 6.85687 12.7889C6.87062 12.8281 6.89375 12.8508 6.92792 12.8252C6.89479 12.7752 6.86979 12.7198 6.84208 12.6629Z" fill="#D8E1FF"/>
<path d="M13.7837 18.9673C13.8433 18.9456 13.9246 18.9085 13.9887 18.8735C13.9162 18.9021 13.849 18.9344 13.7837 18.9673Z" fill="#D8E1FF"/>
<path d="M17.4083 15.6058C17.5025 15.4587 17.5871 15.3058 17.6763 15.156C17.5494 15.3504 17.431 15.5496 17.2883 15.7329L17.4083 15.6058Z" fill="#D8E1FF"/>
<path d="M16.2275 3.30958C16.2196 3.26728 16.1679 3.18458 15.999 3.04895C16.0298 3.09791 16.1158 3.19458 16.2275 3.30958Z" fill="#D8E1FF"/>
<path d="M18.906 9.97208C18.9096 10.044 18.9131 10.1125 18.9169 10.185C18.9158 10.1162 18.911 10.0412 18.906 9.97208Z" fill="#D8E1FF"/>
<path d="M17.7671 5.43605C17.7671 5.43605 17.7667 5.43585 17.7658 5.43439L17.7831 5.4848C17.7781 5.46751 17.7725 5.45272 17.7671 5.43605Z" fill="#D8E1FF"/>
<path d="M10.1806 19.971C10.1794 19.9706 10.1794 19.9706 10.1773 19.9704C10.1302 19.9739 10.0827 19.9773 10.0354 19.9808C9.98771 19.9841 9.94021 19.981 9.89271 19.9814C9.93 19.9827 9.97187 19.9848 10.0196 19.9841C10.0671 19.9802 10.1204 19.9758 10.1806 19.9708V19.971Z" fill="#D8E1FF"/>
<path d="M18.1748 6.67207C18.1935 6.68499 18.2115 6.69603 18.2081 6.66915C18.27 6.89874 18.3831 7.18186 18.4769 7.46082C18.45 7.35207 18.4231 7.24436 18.3967 7.13749C18.3644 7.03207 18.3327 6.92749 18.301 6.82332C18.2702 6.71874 18.2329 6.61707 18.1942 6.51645C18.1552 6.41603 18.119 6.31457 18.075 6.21707C18.086 6.34207 18.0967 6.47415 18.1748 6.67207Z" fill="#D8E1FF"/>
<path d="M18.3458 6.75499L18.3281 6.75333C18.3437 6.78124 18.3623 6.81853 18.3823 6.85958C18.3713 6.82478 18.3598 6.7902 18.3458 6.75499Z" fill="#D8E1FF"/>
<path d="M18.3281 6.75333C18.2956 6.69479 18.2756 6.67542 18.2842 6.75L18.3281 6.75333Z" fill="#D8E1FF"/>
<path d="M18.5954 7.6123C18.5608 7.46792 18.5185 7.32542 18.4802 7.18167C18.5415 7.18792 18.5723 7.19188 18.6429 7.45855C18.6471 7.39521 18.5473 7.1548 18.4902 7.02188C18.4987 7.05459 18.5092 7.08688 18.516 7.12001C18.481 7.0623 18.4277 6.95251 18.3825 6.85959C18.4125 6.95438 18.4325 7.04355 18.4465 7.12521C18.4562 7.20792 18.4652 7.28251 18.4731 7.34813C18.4896 7.47896 18.5173 7.5698 18.5956 7.6123H18.5954Z" fill="#D8E1FF"/>
<path d="M18.7867 8.2277C18.7496 8.05957 18.6515 7.65332 18.6033 7.7752L18.7867 8.2277Z" fill="#D8E1FF"/>
<path d="M18.7871 9.78229L18.7833 9.81437C18.7865 9.85791 18.7894 9.90333 18.7904 9.95208L18.7871 9.78229Z" fill="#D8E1FF"/>
<mask id="mask0_4965_2315" style="mask-type:luminance" maskUnits="userSpaceOnUse" x="1" y="0" width="18" height="20">
<path d="M1.02084 0H18.9808V20H1.02084V0Z" fill="white"/>
</mask>
<g mask="url(#mask0_4965_2315)">
<path d="M9.9148 0.0491528C9.88459 0.0351945 9.85313 0.0206112 9.82355 0.00665283L9.9125 0.0404028C10.3615 0.00727785 10.8202 0.000611167 11.2854 0.0214445C11.4344 0.0968612 11.5927 0.176653 11.7585 0.260403C11.9246 0.342486 12.0983 0.42832 12.2775 0.516861C12.6354 0.696861 13.0146 0.891861 13.39 1.11019C14.141 1.54582 14.8815 2.07436 15.4323 2.62894C15.709 2.95311 15.7873 3.02665 16.0304 3.31207C16.0423 3.30561 16.0519 3.29124 16.0473 3.26603C16.1938 3.41394 16.3835 3.60811 16.564 3.81353C16.7446 4.01874 16.9127 4.23686 17.0281 4.41728C17.1094 4.49999 17.2029 4.52269 17.0569 4.34957C17.1606 4.46769 17.2498 4.58811 17.3258 4.70728C17.399 4.82853 17.4613 4.94686 17.5183 5.05769C17.6244 5.28478 17.7119 5.47894 17.8156 5.62103C17.694 5.32082 18.0127 5.85269 17.8548 5.50415C18.0604 5.85269 18.056 6.03332 18.0752 6.21707C17.9404 5.9129 17.7871 5.61936 17.5988 5.34707C17.4992 5.0629 17.3379 4.91165 17.219 4.83624C17.246 4.88728 17.2504 4.89978 17.1975 4.82374C17.1902 4.81957 17.1823 4.81478 17.1752 4.81082C17.2206 4.89936 17.3017 5.04478 17.386 5.19061C17.4663 5.33874 17.5575 5.4829 17.6267 5.56853C17.6371 5.58019 17.6475 5.59186 17.6585 5.60415C17.6917 5.63665 17.7204 5.6504 17.7421 5.63582L17.7794 5.74644C17.8106 5.78561 17.8431 5.82603 17.8771 5.86832C17.9085 5.91249 17.941 5.95874 17.9752 6.00707C17.9935 6.10644 17.8533 5.82957 17.7996 5.80707C17.8321 5.89853 17.8567 5.99353 17.8842 6.08665C17.9129 6.13832 17.9171 6.18186 17.9117 6.22019C17.9846 6.41394 18.0631 6.62144 18.145 6.83894C18.1558 6.85269 18.1706 6.87478 18.1921 6.91082C18.2531 7.05728 18.3073 7.20499 18.3483 7.35561C18.3696 7.43061 18.3906 7.50519 18.4115 7.57978C18.4323 7.65415 18.4448 7.73061 18.4615 7.80561L18.5352 8.08644C18.559 8.18019 18.5858 8.2729 18.6 8.3679C18.634 8.55645 18.6656 8.74311 18.6913 8.92478C18.7071 9.00811 18.726 9.09124 18.7471 9.17436C18.7404 9.0979 18.7338 9.02249 18.7271 8.94728C18.72 8.87228 18.7067 8.79894 18.6971 8.7254C18.6775 8.57811 18.6583 8.43311 18.6392 8.29019C18.6156 8.1479 18.5865 8.00874 18.5615 7.86999C18.5346 7.73186 18.5131 7.59353 18.4771 7.4604C18.5175 7.56686 18.5488 7.67394 18.5769 7.77436C18.6054 7.87478 18.6308 7.96874 18.6502 8.05165C18.6692 8.13457 18.6835 8.20624 18.6863 8.26269C18.6871 8.31978 18.68 8.36082 18.6623 8.38165C18.6642 8.38915 18.6663 8.39728 18.6679 8.40415L18.7402 8.54144C18.7485 8.55186 18.7567 8.5654 18.764 8.58686L18.7652 8.58936V8.59061C18.78 8.63582 18.7931 8.71728 18.8033 8.88769C18.7908 8.85353 18.776 8.78582 18.7617 8.71811C18.7575 8.78519 18.7508 8.82811 18.7515 8.89561C18.7498 8.96353 18.7504 9.05686 18.7646 9.22311C18.8238 9.4854 18.8183 9.19582 18.854 9.2879C18.8308 9.35436 18.8563 9.56603 18.8548 9.80749C18.8569 9.92811 18.8583 10.0554 18.8554 10.1742C18.849 10.2929 18.8313 10.4031 18.8102 10.4892C18.7638 10.5052 18.7938 10.3679 18.8223 10.1842C18.8177 10.0714 18.8181 9.98082 18.8308 9.94061C18.8352 9.96436 18.8371 9.98228 18.8396 10.0021C18.8513 9.84394 18.8515 9.67832 18.8113 9.56374C18.804 9.56165 18.7998 9.56894 18.7967 9.57999C18.7946 9.65332 18.7896 9.72832 18.7829 9.80436C18.7833 9.80769 18.7835 9.81082 18.784 9.81415L18.7717 9.92394C18.7631 9.99832 18.7546 10.0748 18.7456 10.1535C18.7415 10.1973 18.734 10.2406 18.7258 10.2842C18.7258 10.2935 18.7258 10.3023 18.7258 10.3119C18.7583 10.5079 18.7685 10.3467 18.801 10.1919C18.7571 10.476 18.749 10.8452 18.6971 11.2469C18.7171 11.2821 18.7438 11.2769 18.7419 11.1625C18.7631 11.4787 18.6517 11.7344 18.5927 11.9442C18.5796 12.0242 18.5638 12.1033 18.5419 12.1819C18.5408 12.1935 18.5398 12.2052 18.5396 12.2167C18.6258 11.9981 18.5533 12.4423 18.6404 12.1789C18.5927 12.4344 18.5115 12.5362 18.4308 12.6287C18.4285 12.6564 18.4267 12.6842 18.4235 12.7112C18.4256 12.6858 18.4265 12.6602 18.426 12.6342L18.4177 12.6437C18.3944 12.7198 18.3644 12.7923 18.3371 12.8654C18.3142 12.9454 18.2908 13.0262 18.2673 13.1083C18.2435 13.1902 18.2181 13.2727 18.1842 13.3533C18.18 13.3704 18.1735 13.3879 18.1681 13.4052C18.1735 13.4533 18.2596 13.3094 18.2233 13.4989C18.126 13.6283 18.0521 13.8325 17.9619 14.0352C17.9208 14.1383 17.8794 14.2425 17.8406 14.3402C17.8021 14.4383 17.7556 14.5254 17.7173 14.6006C17.6658 14.6854 17.6475 14.9006 17.7202 14.8367L17.9 14.4392L18.0546 14.0321C18.065 14.0637 18.099 14.0617 18.1452 14.0154C18.1683 13.9923 18.1946 13.9579 18.2225 13.9114C18.2488 13.8644 18.2738 13.8037 18.2994 13.73C18.24 13.7598 18.2508 13.6937 18.2956 13.5787C18.3398 13.4635 18.4223 13.3 18.4831 13.1267C18.5119 13.0154 18.5421 12.9006 18.5679 12.7896C18.5963 12.6792 18.6048 12.5687 18.6127 12.4727C18.6117 12.4712 18.6113 12.4687 18.61 12.4675L18.6131 12.4696C18.6138 12.461 18.6146 12.4514 18.6152 12.4429C18.6602 12.3106 18.6975 12.3548 18.751 12.1531C18.7275 12.1658 18.7267 12.1304 18.7246 12.0817C18.7223 12.0327 18.7225 11.9714 18.7106 11.9346C18.7565 11.6771 18.7844 11.6521 18.8127 11.6685C18.8219 11.5806 18.8363 11.4935 18.8383 11.405L18.8292 11.4231C18.8406 11.3712 18.8531 11.1258 18.8685 10.8248C18.8675 10.5225 18.8783 10.1648 18.8806 9.88332C18.9319 10.0652 18.8446 11.0821 18.9644 10.5035C18.9721 10.6508 18.9771 10.831 18.9492 11.0331C18.9231 11.235 18.904 11.461 18.8525 11.6973C18.8652 11.7031 18.8792 11.7025 18.8954 11.6821C18.8396 11.8135 18.805 11.9833 18.7652 12.1671C18.7333 12.3046 18.7025 12.4439 18.6748 12.5867L18.7658 12.4537C18.7485 12.5646 18.7327 12.6802 18.7038 12.7956C18.674 12.9106 18.6406 13.0281 18.6048 13.1471C18.5865 13.2064 18.5681 13.2662 18.5496 13.3264C18.53 13.3864 18.5048 13.4452 18.4821 13.5048C18.4342 13.6231 18.3858 13.7429 18.3371 13.8633C18.289 13.9837 18.2258 14.0985 18.1706 14.216C18.1115 14.3321 18.0613 14.4514 17.9963 14.5631C17.8681 14.7869 17.7569 15.0144 17.6281 15.2212C17.6567 15.1212 17.6915 15.0254 17.7127 14.9233C17.5213 15.1996 17.2458 15.5217 17.1052 15.8235C17.3388 15.4854 17.25 15.6885 17.2317 15.7733C17.1681 15.876 17.1 15.9919 17.0131 16.1025L16.9227 16.3369C16.8394 16.4256 16.7981 16.4948 16.754 16.5617C16.7073 16.6262 16.6558 16.6873 16.5569 16.7608C16.6367 16.6719 16.6979 16.5952 16.739 16.525C16.779 16.4542 16.8044 16.3942 16.8208 16.345C16.7704 16.406 16.7206 16.4698 16.6663 16.5317C16.61 16.5919 16.5529 16.6529 16.4952 16.7146C16.4623 16.8106 16.3425 16.9848 16.1977 17.1452C16.0485 17.3121 15.8656 17.49 15.711 17.6254C15.5888 17.6989 15.654 17.5935 15.6867 17.5283C15.7371 17.5225 15.9538 17.3264 16.0371 17.26C16.071 17.2069 16.0942 17.1592 16.1192 17.111C16.0283 17.2029 15.9373 17.295 15.8471 17.386C15.8471 17.386 15.8638 17.3473 15.8335 17.3596L15.6981 17.5021C15.6954 17.5096 15.6917 17.5181 15.6865 17.5283C15.681 17.5289 15.6765 17.5287 15.6754 17.5246L15.4729 17.7254L15.2631 17.9202C15.2427 17.9352 15.2254 17.9479 15.2069 17.9614C15.2921 17.9271 15.4338 17.8485 15.2304 18.0902C15.1919 18.0304 15.0365 18.1567 14.8767 18.2954C14.7131 18.4289 14.5413 18.5712 14.4944 18.556L14.8223 18.2875C14.7217 18.3383 14.6354 18.3921 14.5556 18.4475C14.5156 18.4752 14.4775 18.5033 14.4398 18.5319L14.3238 18.6123C14.2463 18.6662 14.1673 18.7204 14.08 18.7727C13.9938 18.8267 13.8919 18.8679 13.7785 18.9102C13.6608 18.9967 13.7004 18.9975 13.7842 18.9671C13.7125 19.0033 13.6446 19.041 13.5794 19.0779C13.5123 19.1117 13.4473 19.1435 13.385 19.1729C13.2592 19.2304 13.1431 19.2783 13.0277 19.2864C13.2058 19.2029 13.3898 19.1062 13.5692 19.0081C13.7429 18.8998 13.9188 18.8002 14.0725 18.6956C14.0194 18.7287 13.9525 18.7696 13.8573 18.8319C13.9444 18.7633 13.9706 18.7304 13.9656 18.7158C13.935 18.7281 13.9029 18.7404 13.8644 18.7537C13.8956 18.7385 13.926 18.7235 13.9567 18.7083C13.91 18.6933 13.7142 18.7631 13.7219 18.7042C13.4567 18.8635 13.4719 18.8954 13.5385 18.8998L13.8192 18.7333L13.5827 18.9C13.6358 18.8979 13.6915 18.8923 13.6721 18.9162C13.6142 18.9423 13.5625 18.9662 13.5131 18.986C13.4627 19.0039 13.4163 19.0206 13.3715 19.0364L13.171 19.1596C13.0254 19.2192 12.8713 19.2589 12.721 19.3056C12.6069 19.3444 12.4963 19.3879 12.3806 19.4139C12.3571 19.4235 12.3394 19.4321 12.3323 19.4379L12.4444 19.4142C12.5463 19.3883 12.6298 19.3596 12.7058 19.3429L12.7596 19.3273L12.724 19.3383C12.7442 19.3337 12.7688 19.3267 12.7869 19.3233L12.6763 19.4683C12.6313 19.4873 12.581 19.5075 12.5269 19.5258C12.4715 19.5408 12.4129 19.5567 12.3533 19.5727C12.2342 19.6031 12.111 19.6346 12.0002 19.6627C11.7773 19.7123 11.6044 19.7517 11.6256 19.8125C11.6238 19.7837 11.51 19.7852 11.406 19.7833C11.3027 19.7842 11.206 19.7652 11.241 19.7314L10.7244 19.7708C10.8458 19.755 10.9704 19.7389 11.0958 19.7225L11.284 19.6962C11.3467 19.6881 11.4077 19.6706 11.4692 19.6583C11.5917 19.6314 11.7125 19.6046 11.8292 19.5789C11.9471 19.5575 12.055 19.5171 12.16 19.4902C11.9023 19.5646 11.634 19.6021 11.3635 19.6635C11.2271 19.6894 11.0867 19.7042 10.9448 19.7277C10.8735 19.7389 10.8019 19.7504 10.7292 19.7619C10.6567 19.7754 10.5821 19.7764 10.5073 19.7848L10.5731 19.8046L10.1394 19.8229C10.2617 19.8298 10.3635 19.8571 10.4988 19.8779C10.566 19.8871 10.6421 19.9002 10.7319 19.8981C10.8217 19.895 10.926 19.8856 11.0506 19.8664C10.9804 19.8785 10.9098 19.8908 10.8388 19.9033C10.7675 19.915 10.6958 19.93 10.6227 19.9337C10.4765 19.9456 10.3281 19.9577 10.1779 19.9698C9.94271 19.9296 10.0346 19.9114 10.0969 19.8967C10.1283 19.8894 10.1527 19.8825 10.1265 19.8744C10.1002 19.8656 10.0231 19.861 9.85355 19.83C9.93563 19.8206 10.004 19.8248 10.066 19.8214L10.2431 19.7333C10.1742 19.7419 10.1038 19.7444 10.035 19.7446C9.96625 19.7429 9.89896 19.7321 9.83584 19.7267C9.70938 19.7139 9.59959 19.7075 9.52271 19.7381L9.62375 19.7485C9.50792 19.7517 9.39125 19.7594 9.275 19.7581C9.39667 19.7408 9.51813 19.7142 9.63792 19.6923C9.52938 19.6773 9.40959 19.6806 9.27959 19.6808C9.15 19.676 9.01 19.6769 8.86 19.6773C8.785 19.6771 8.70771 19.6769 8.62834 19.6764C8.54959 19.6714 8.46917 19.6621 8.38688 19.6523C8.30438 19.6423 8.22042 19.6306 8.135 19.616C8.05 19.6 7.96188 19.5887 7.87688 19.5589C7.85188 19.526 7.89125 19.5221 7.9698 19.5319C8.0498 19.5371 8.16959 19.5554 8.30396 19.5771C8.37105 19.5881 8.44188 19.5996 8.51313 19.611C8.54875 19.6167 8.58459 19.6223 8.62 19.6279C8.65584 19.6304 8.69167 19.6329 8.72646 19.6354C8.86605 19.6439 8.99438 19.6477 9.0848 19.6396C8.9275 19.6219 8.76813 19.6067 8.60896 19.5848C8.45105 19.5533 8.2925 19.5217 8.13271 19.4898C7.97167 19.4627 7.81646 19.4102 7.65813 19.3667L7.42105 19.2981C7.34125 19.2773 7.26584 19.2433 7.18792 19.2162C7.08125 19.1864 6.9848 19.1669 6.90375 19.1633L7.32813 19.3721C7.0875 19.2892 6.8975 19.1892 6.74771 19.1021C6.60063 19.0079 6.4898 18.9346 6.3923 18.9167L6.475 18.925L6.41917 18.8996C6.23792 18.8471 6.03417 18.7452 5.76875 18.5967C5.77021 18.6429 5.86813 18.7208 6.00292 18.8014C6.07042 18.8414 6.14625 18.8837 6.22542 18.92C6.30605 18.9533 6.38813 18.9837 6.46396 19.0079L6.34521 19.0529C6.54167 19.1439 6.74292 19.2412 6.95646 19.3133C7.06209 19.3517 7.16771 19.39 7.27313 19.4283C7.37917 19.4642 7.48834 19.4898 7.59438 19.5198C7.70105 19.5477 7.80646 19.5754 7.91 19.6027C8.01417 19.6264 8.11875 19.6408 8.21938 19.6585C8.42146 19.6904 8.61084 19.7269 8.78813 19.7292L8.62167 19.7414C8.56605 19.7439 8.51125 19.7419 8.45584 19.7421C8.59792 19.8069 8.70084 19.8233 8.77959 19.8308C8.85855 19.8377 8.91417 19.8306 8.96834 19.8237C9.0223 19.8169 9.075 19.8102 9.14813 19.8183C9.1848 19.8223 9.22667 19.83 9.27667 19.8431C9.32667 19.856 9.38542 19.8669 9.45542 19.8879C9.88292 19.8714 9.15313 19.83 9.47625 19.8035C9.77396 19.8404 9.3848 19.9575 9.89375 19.981C8.93459 20.0012 7.90667 19.8171 6.94 19.4525C6.45355 19.2767 5.99042 19.0419 5.54542 18.79C5.1048 18.5298 4.69084 18.2383 4.30396 17.9308C4.26271 17.9192 4.3398 17.9889 4.4175 18.0564C4.37896 18.0352 4.32521 18.0027 4.26188 17.956C4.19938 17.9085 4.12521 17.8492 4.04146 17.78C3.95667 17.7121 3.86605 17.6296 3.76875 17.5377C3.72021 17.4917 3.66959 17.4437 3.61688 17.3939C3.56646 17.3423 3.51417 17.2887 3.46021 17.2335C3.24584 17.0102 3.0198 16.7546 2.79667 16.4548C2.6923 16.305 2.58605 16.1546 2.48417 15.9983C2.43584 15.9185 2.38709 15.8385 2.33855 15.7585C2.28917 15.6792 2.24167 15.5985 2.19917 15.5152C1.83771 14.8604 1.58188 14.1754 1.42396 13.6458C1.34813 13.38 1.28375 13.1554 1.23667 12.99C1.18584 12.8254 1.14792 12.7212 1.11521 12.6987C1.135 12.6012 1.22417 12.9171 1.15417 12.5033C1.13105 12.4654 1.09146 12.3577 1.07188 12.4548C1.06105 11.9292 1.02375 11.315 1.04459 10.6739C1.04646 10.5135 1.06042 10.3525 1.06938 10.1906C1.08521 10.0296 1.09792 9.86728 1.1223 9.70749C1.165 9.38728 1.22959 9.0729 1.31709 8.77728C1.2725 8.78749 1.315 8.50832 1.29146 8.49103C1.38438 8.30269 1.4598 8.0229 1.54084 7.74561C1.62146 7.46853 1.70959 7.19415 1.80709 7.02103L1.72042 7.11624C1.79667 6.91936 1.87938 6.71457 1.97584 6.52478C2.06896 6.33228 2.15917 6.13874 2.26896 5.95478C2.275 5.90978 2.18875 6.06103 2.13355 6.14665C2.25542 5.88624 2.32459 5.86936 2.3673 5.87457C2.43188 5.68353 2.51667 5.50228 2.59771 5.31624C2.68459 5.20436 2.78188 5.09499 2.87771 4.98124C2.97292 4.86707 3.06688 4.74832 3.17188 4.63478C3.16896 4.6329 3.16771 4.62957 3.15959 4.6329L3.32125 4.45332L3.4023 4.36415L3.48771 4.27894C3.61771 4.14353 3.74209 3.99874 3.8825 3.86603L3.87271 3.83853C3.8573 3.84853 3.84063 3.86165 3.82084 3.87936C3.78459 3.92728 3.74605 3.9729 3.7125 4.02353C3.70209 4.02707 3.69542 4.02832 3.68709 4.03061C3.55521 4.13457 3.61188 4.03311 3.68792 3.92353C3.8773 3.74332 4.0598 3.56478 4.25646 3.40978L4.25938 3.40582L4.26021 3.40665C4.3275 3.35165 4.39396 3.29644 4.46105 3.24374C4.53042 3.19374 4.59917 3.14394 4.6673 3.09478C4.80875 2.95874 4.72105 3.00061 5.12875 2.6679C5.19959 2.64082 5.27209 2.61749 5.3448 2.59499C5.37709 2.58457 4.76292 2.91728 4.81542 2.98936L4.81959 2.98665C4.92042 2.91769 5.025 2.8554 5.12563 2.79269C5.40459 2.58728 5.6975 2.40186 5.99459 2.23499L5.87709 2.25436C5.96209 2.23165 6.05813 2.14853 6.18959 2.05061C6.25459 2.00082 6.3275 1.94561 6.41021 1.88957C6.49396 1.83582 6.58855 1.78353 6.69396 1.73478C6.57021 1.81499 6.4448 1.8904 6.3248 1.97624C6.41438 1.96269 6.5273 1.92374 6.6548 1.86999C6.71834 1.8429 6.78521 1.81144 6.85459 1.77769C6.92459 1.74499 6.9975 1.71082 7.07209 1.67624C7.225 1.56894 7.3948 1.48124 7.63521 1.37644C7.4975 1.42624 7.36813 1.47311 7.27917 1.4979C7.19042 1.52269 7.14292 1.52811 7.16646 1.48665C7.435 1.3629 7.69542 1.29207 7.93459 1.23936C8.11959 1.17436 8.30625 1.11519 8.49334 1.0579C8.4525 1.05978 8.41167 1.06103 8.37125 1.06436C8.47209 1.03957 8.57355 1.01832 8.67438 0.995403L8.5875 1.02936H8.59042C8.74542 0.982278 8.90167 0.940403 9.05792 0.899361C9.10938 0.882278 9.16167 0.866653 9.21417 0.858111C9.15709 0.843528 9.10042 0.830611 9.04334 0.818111C9.19209 0.773944 9.34271 0.73582 9.4925 0.695403L9.4375 0.73332C10.1683 0.587695 10.7977 0.456028 11.48 0.327278C11.3452 0.353736 11.2121 0.381861 11.08 0.412486C11.1131 0.424153 11.3281 0.400611 11.5152 0.369361C11.4554 0.423736 10.9625 0.473528 10.9996 0.516028L10.9656 0.529778L11.1985 0.502486C11.3225 0.474153 11.3881 0.48582 11.4183 0.502903C11.4573 0.504153 11.495 0.505195 11.5333 0.506236C11.5667 0.498111 11.5996 0.489986 11.6333 0.481653C11.6469 0.491653 11.6581 0.501653 11.669 0.511861C11.7029 0.513736 11.7383 0.515611 11.7719 0.517486L11.6771 0.518736C11.7652 0.607069 11.741 0.703111 11.5865 0.812694C11.6083 0.813528 11.6304 0.81457 11.6521 0.815403L11.6671 0.811653L11.6725 0.816445C11.7129 0.819153 11.7548 0.821653 11.7946 0.824361L11.6821 0.825403C11.7981 0.927069 11.7819 1.03603 11.6025 1.16394C11.4227 1.29353 11.0729 1.44332 10.524 1.66728C10.4415 1.6704 10.5746 1.62478 10.6808 1.58478C10.7867 1.54478 10.8652 1.50603 10.6675 1.51311C10.0708 1.58165 9.33459 1.80374 8.60417 2.11249C8.42021 2.18707 8.23896 2.27249 8.05646 2.35436C7.87709 2.44269 7.69542 2.52603 7.52042 2.61853C7.3425 2.7054 7.1723 2.80144 7.00125 2.88894C6.91709 2.93478 6.83375 2.9804 6.75146 3.02561C6.66855 3.06978 6.58605 3.11249 6.5073 3.15832C6.3273 3.24332 6.21417 3.29728 6.11375 3.35894C6.01292 3.42019 5.91375 3.47394 5.76834 3.56957C5.77396 3.58165 5.78688 3.5929 5.81146 3.59186C5.77063 3.62394 5.72584 3.65894 5.67875 3.69561C5.72188 3.68124 5.7675 3.66311 5.80938 3.63457C5.78167 3.67165 5.74771 3.71394 5.73625 3.74353L5.77709 3.72061C5.73313 3.76728 5.665 3.85936 5.62667 3.85936C5.73021 3.7904 5.71417 3.76707 5.68167 3.7204C5.62605 3.75936 5.56938 3.79707 5.5148 3.83728C5.51375 3.83436 5.51292 3.83186 5.51188 3.82915C5.49459 3.84415 5.4773 3.85936 5.4598 3.87478C5.49688 3.91165 5.38084 4.01207 5.32771 4.05519L5.40188 3.9254C5.28709 4.02499 5.16709 4.12603 5.05917 4.2279C4.94896 4.32769 4.84 4.41728 4.75021 4.49644C4.68625 4.5854 4.67709 4.68332 4.81271 4.52311C4.7375 4.61624 4.66042 4.69686 4.58313 4.76978C4.53209 4.86165 4.43396 4.96249 4.32 5.0779C4.20938 5.19561 4.09188 5.3354 3.99292 5.48915C4.02271 5.4804 4.05417 5.47311 4.08438 5.46519C4.03917 5.55144 3.99209 5.64519 3.93 5.73415C3.87 5.82457 3.79771 5.91207 3.7348 6.00811C3.66855 6.10228 3.60167 6.19749 3.53584 6.29103C3.47584 6.38832 3.42167 6.48686 3.37542 6.58332L3.36459 6.43644C3.31563 6.49707 3.25355 6.56415 3.2025 6.63561C3.15146 6.70707 3.12063 6.78769 3.12105 6.8654C3.19355 6.69436 3.195 6.79957 3.21271 6.84269C3.18334 6.96394 3.11417 7.10332 3.05063 7.2504C2.98855 7.39894 2.92396 7.56519 2.88542 7.73228C2.88542 7.73228 2.87438 7.71165 2.85875 7.72249C2.83646 7.84103 2.81667 7.96019 2.79875 8.07936C2.73896 8.23999 2.68042 8.28707 2.60209 8.37894C2.59646 8.4429 2.55938 8.59603 2.61813 8.54644C2.63042 8.51436 2.6425 8.48249 2.64313 8.45999C2.68563 8.65478 2.58646 8.57978 2.59021 8.81353C2.55646 8.6277 2.47709 8.85019 2.40855 8.81811C2.38646 9.08957 2.53209 8.86269 2.55834 8.90207C2.51292 9.0427 2.47063 9.12624 2.4373 9.20644C2.43438 9.23124 2.43 9.2554 2.4248 9.27936C2.42438 9.26353 2.42396 9.25207 2.42355 9.23811C2.38625 9.32519 2.35188 9.41436 2.32375 9.57457C2.35688 9.49207 2.39917 9.39415 2.4248 9.27915C2.4248 9.29915 2.425 9.32019 2.42521 9.34124C2.43105 9.33353 2.43688 9.32728 2.44334 9.32478C2.43667 9.34686 2.43063 9.3704 2.42584 9.39311C2.42646 9.42624 2.4298 9.45707 2.43438 9.47853L2.45125 9.40957C2.45021 9.42228 2.45 9.43644 2.4498 9.45124C2.46063 9.41665 2.47334 9.38249 2.48521 9.34811C2.47146 9.38936 2.46021 9.43061 2.44938 9.47207C2.44834 9.56978 2.44688 9.69165 2.42459 9.72478C2.44334 9.61832 2.44375 9.57061 2.42959 9.54457C2.36105 9.80874 2.33021 10.0794 2.34292 10.3796L2.3673 10.3504L2.35396 10.5821L2.27355 10.4994C2.2875 10.6246 2.2148 10.7625 2.28 10.8273L2.28688 10.7806C2.29563 10.8327 2.30167 10.8848 2.31271 10.9364C2.28292 10.8844 2.25771 10.8314 2.23021 10.7785C2.19021 10.9833 2.37125 11.2469 2.37959 11.5656C2.3248 11.6079 2.305 11.4704 2.28271 11.3179C2.25771 11.1658 2.24146 10.9981 2.16563 10.9814C2.14375 11.0912 2.12355 11.2812 2.16875 11.3431C2.20855 11.3256 2.20188 11.2481 2.20188 11.1696C2.24063 11.2944 2.24396 11.4496 2.25063 11.5992C2.27313 11.8312 2.31021 12.1396 2.34584 11.8292C2.35292 11.8629 2.36084 11.9004 2.36917 11.9389C2.37188 11.9017 2.37459 11.8646 2.3798 11.8271C2.39084 11.9004 2.39188 11.9673 2.38396 12.0285C2.3975 12.1171 2.40667 12.216 2.42355 12.3212C2.43938 12.4264 2.45042 12.5406 2.47521 12.6575L2.51584 12.7014C2.5275 12.821 2.52688 12.8754 2.5273 12.9087C2.55646 13.0167 2.58709 13.1267 2.62459 13.2354L2.65209 13.1167C2.68 13.186 2.70917 13.2573 2.73917 13.3308C2.76834 13.4044 2.79355 13.4814 2.82188 13.5592C2.88313 13.7125 2.93334 13.8773 3.00063 14.0375C3.06 14.2012 3.13375 14.3608 3.20625 14.5187C3.24146 14.5981 3.28667 14.6717 3.32688 14.7464C3.36959 14.8196 3.4073 14.8946 3.45625 14.9606C3.39625 14.92 3.34292 14.8748 3.28667 14.8304C3.32834 14.9394 3.38271 15.0614 3.445 15.1779C3.47688 15.2356 3.50813 15.2939 3.54813 15.3431C3.58813 15.3923 3.63105 15.4362 3.67771 15.4714C3.50542 15.2444 3.63042 15.3389 3.68875 15.361C3.75438 15.431 3.82084 15.516 3.89 15.6033C3.95896 15.6873 4.03563 15.7806 4.11834 15.8754C4.19875 15.9717 4.29042 16.0671 4.38125 16.1633C4.4775 16.2554 4.57063 16.3521 4.675 16.4344C4.675 16.4344 4.64375 16.4285 4.65209 16.4519L4.87292 16.6221L5.10042 16.7829C5.29188 16.9592 5.3373 17.0431 5.43167 17.1848C5.5173 17.2339 5.71438 17.3708 5.66709 17.2823C5.6273 17.2496 5.58771 17.2167 5.55709 17.201C5.69855 17.2469 5.73396 17.2794 5.775 17.3208C5.81563 17.3625 5.86125 17.4137 6.02563 17.4821C5.75438 17.3992 6.03834 17.6106 5.97042 17.6552C6.34084 17.8475 6.0748 17.5664 6.13855 17.566C6.18792 17.6037 6.23167 17.6375 6.27167 17.6681C6.3123 17.6975 6.34896 17.7237 6.38271 17.7481C6.44938 17.7994 6.50542 17.8425 6.56167 17.8856C6.6723 17.9767 6.79417 18.0469 7.01875 18.1596C7.065 18.1308 6.70917 17.9839 6.69605 17.9214C6.81875 17.9912 6.9723 18.0564 7.00313 18.0521L6.74355 17.8935C6.96438 18.0229 7.18459 18.1525 7.42855 18.2421C7.66688 18.3485 7.92855 18.4085 8.20646 18.4746L8.17021 18.4398C8.2825 18.4746 8.39875 18.4919 8.51292 18.5192L8.3673 18.5748C8.46396 18.5839 8.55792 18.6177 8.64292 18.6437C8.72771 18.6704 8.80355 18.6881 8.86105 18.6585L8.7923 18.6442L9.0348 18.6471L8.77417 18.6985C8.92313 18.7356 9.11209 18.7239 9.32042 18.7135C9.3723 18.7127 9.42605 18.7058 9.48084 18.6981C9.53584 18.6912 9.59188 18.6852 9.64875 18.6804C9.76271 18.671 9.88084 18.6679 10.0033 18.6764C10.0483 18.7285 9.8925 18.7356 9.695 18.74C9.59625 18.7423 9.4873 18.7439 9.38792 18.7498C9.28917 18.7467 9.19959 18.7485 9.13917 18.7623C9.37584 18.7944 9.61792 18.7864 9.86167 18.7935C9.98375 18.8008 10.1056 18.7898 10.2283 18.7819C10.351 18.7742 10.4744 18.7664 10.5981 18.7589C10.6465 18.7429 10.6896 18.7246 10.7246 18.7023C10.6702 18.7008 10.6163 18.7027 10.5619 18.6987L10.399 18.6825C10.5735 18.6735 10.719 18.6773 10.8402 18.6873C10.961 18.6967 11.0563 18.7054 11.1194 18.6729L11.0952 18.6889C11.2579 18.66 11.4183 18.6185 11.5804 18.585C11.6621 18.5702 11.7406 18.5425 11.8202 18.5192L12.059 18.4475C12.0029 18.3946 11.5713 18.61 11.5873 18.5783C11.6396 18.5481 11.6898 18.5117 11.7394 18.4746C12.1188 18.3937 12.0558 18.431 12.1981 18.4025C12.3188 18.3567 12.4394 18.3108 12.5596 18.2652L12.554 18.2437C12.5867 18.2439 12.6244 18.2373 12.6629 18.2223C12.7277 18.1925 12.7917 18.1631 12.8563 18.1335C12.934 18.0912 13.0088 18.0502 13.0635 18.0185C13.1179 17.986 13.155 17.9687 13.1623 17.9846C13.2725 17.9237 13.385 17.8681 13.4925 17.8039C13.5994 17.7383 13.7054 17.6731 13.8106 17.6083C13.8313 17.5762 13.75 17.6179 13.6698 17.6589C13.6983 17.6329 13.7417 17.6 13.7979 17.5608C13.8521 17.5187 13.919 17.4698 13.9967 17.4156C14.0356 17.3887 14.0771 17.36 14.1208 17.33C14.1635 17.2983 14.2085 17.265 14.2554 17.2302C14.3498 17.161 14.4531 17.0875 14.5581 17.0023C14.7735 16.8389 15.0023 16.6419 15.2385 16.4271C15.3548 16.3206 15.4815 16.2014 15.5904 16.0869C15.6471 16.0289 15.7042 15.9706 15.7613 15.9125L15.8471 15.8252L15.9267 15.7325C16.009 15.6362 16.0906 15.5406 16.1715 15.4462C16.2504 15.35 16.3202 15.2487 16.3929 15.1525C16.5427 14.9627 16.6569 14.7608 16.7733 14.581C16.7908 14.491 16.6975 14.541 16.8563 14.3185C16.8513 14.3529 16.816 14.4304 16.7952 14.4829C16.7733 14.5348 16.7654 14.5617 16.8213 14.4975L16.8194 14.5052C17.0996 14.0054 17.2477 13.6002 17.244 13.4725C17.2073 13.5769 17.1588 13.6769 17.1127 13.7625C17.1171 13.735 17.1379 13.6792 17.1629 13.6154C17.1883 13.5521 17.2177 13.4808 17.2335 13.4202C17.269 13.3004 17.276 13.2354 17.1706 13.3914C17.1823 13.3221 17.2058 13.2429 17.2369 13.1554C17.2663 13.0675 17.3108 12.9737 17.3419 12.8677C17.4098 12.6581 17.4956 12.4217 17.5244 12.1698L17.4475 12.2527C17.4542 12.1194 17.4806 11.9804 17.5046 11.8348C17.5246 11.6885 17.5527 11.5375 17.5833 11.3844C17.6283 11.0769 17.6815 10.7594 17.6696 10.4675L17.7446 10.6433C17.7615 10.5406 17.7871 10.4223 17.8008 10.3048C17.8092 10.2462 17.81 10.1877 17.8033 10.1319C17.7977 10.0762 17.7865 10.0229 17.7675 9.97499C17.7838 10.2271 17.7329 10.0979 17.6971 10.0546C17.6644 9.88707 17.6675 9.67915 17.6377 9.45749C17.6258 9.34624 17.6138 9.23144 17.6015 9.11561C17.584 9.00061 17.5567 8.88603 17.5292 8.77415C17.5292 8.77415 17.5496 8.79311 17.5575 8.77165L17.4904 8.53874C17.4665 8.46186 17.4358 8.38645 17.409 8.3104C17.3631 8.08728 17.394 7.99728 17.401 7.84665C17.3646 7.76853 17.3025 7.5679 17.2829 7.65853C17.2925 7.70311 17.3021 7.74728 17.3152 7.77415C17.1583 7.56874 17.2919 7.60103 17.135 7.33186C17.285 7.52894 17.2056 7.22665 17.2838 7.22603C17.1258 6.89707 17.1517 7.24249 17.1035 7.21165C17.0438 7.00186 17.016 6.87936 16.9896 6.7554C16.9554 6.63499 16.9235 6.51186 16.8283 6.31186C16.7802 6.30853 16.9398 6.60665 16.909 6.66228C16.8656 6.54478 16.7996 6.41374 16.7731 6.40186C16.8029 6.48728 16.8294 6.57394 16.8575 6.65936C16.7129 6.22644 16.5088 5.82936 16.1946 5.42957C16.1963 5.44478 16.1967 5.4604 16.1977 5.47582C16.14 5.38853 16.079 5.30353 16.0196 5.21707L16.1533 5.2604C16.0404 5.13228 15.9867 4.94124 15.8779 4.90999L15.9113 4.96374C15.8604 4.9129 15.8117 4.86082 15.7596 4.81144C15.8277 4.8504 15.8925 4.89269 15.9596 4.93374C15.8229 4.6904 15.4498 4.51269 15.1592 4.18478C15.1658 4.11165 15.3096 4.23915 15.4575 4.38978C15.6104 4.53582 15.766 4.70499 15.8425 4.67978C15.8048 4.61519 15.75 4.52978 15.6935 4.45478C15.6354 4.38144 15.5748 4.31936 15.5306 4.29874C15.5129 4.33915 15.5835 4.41894 15.6529 4.5004C15.5746 4.43874 15.496 4.36165 15.4202 4.27707C15.3438 4.19269 15.2646 4.1054 15.1885 4.02165C15.034 3.85603 14.8833 3.71019 14.7483 3.67499C14.8098 3.75269 14.8696 3.83144 14.9271 3.91207C14.6942 3.70144 14.6225 3.46186 14.4992 3.41853C14.5881 3.43957 14.6798 3.45874 14.7683 3.4829C14.4625 3.29811 14.1246 3.00061 13.8298 2.8479C13.7746 2.90874 14.2033 3.13499 14.1744 3.13603C14.1221 3.11832 14.0681 3.10332 14.0152 3.08749C13.8317 2.91061 13.8081 2.8804 13.7765 2.83957C13.744 2.79978 13.7035 2.74894 13.4644 2.5504L13.4279 2.59394C13.3073 2.40144 12.7533 2.24394 13.0079 2.2279L13.1306 2.34894L13.149 2.29978C13.1167 2.28457 13.0785 2.26478 13.039 2.24332C12.9881 2.20644 12.9377 2.17103 12.8863 2.13603C12.7656 2.07061 12.6429 2.00894 12.5206 1.94686C12.5777 1.9404 12.4615 1.86832 12.4094 1.81665C12.3602 1.78519 12.3106 1.75353 12.2619 1.72228L12.1488 1.69061C12.1404 1.67124 12.1435 1.65999 12.1546 1.65374C12.034 1.57874 11.9142 1.50519 11.795 1.43353C11.744 1.41478 11.6823 1.38832 11.614 1.35894C11.614 1.34707 11.6156 1.33749 11.6192 1.32978C11.111 1.03186 10.6271 0.76707 10.1596 0.53457C10.125 0.521653 10.0996 0.508528 10.0815 0.495611C10.0223 0.466028 9.965 0.437486 9.90688 0.408528C9.88917 0.405611 9.87167 0.402903 9.85375 0.399986C9.84938 0.392278 9.84688 0.384986 9.84334 0.377486C9.80688 0.360403 9.76917 0.342278 9.73334 0.325194L9.83771 0.365611C9.78625 0.247903 9.83271 0.15957 10.0223 0.11832C9.99521 0.113945 9.96875 0.10957 9.94146 0.105194C9.93 0.0856112 9.92167 0.0668612 9.91521 0.0487361L9.9148 0.0491528ZM2.41917 9.54332L2.42188 9.53478C2.42021 9.5329 2.41813 9.53124 2.41605 9.52957C2.4173 9.53415 2.4175 9.54103 2.41917 9.54332ZM11.5356 0.846028L11.6046 0.828111L11.5629 0.82957C11.5544 0.83457 11.5446 0.840611 11.5356 0.846028ZM11.44 0.527903C11.44 0.528736 11.4408 0.529778 11.4406 0.530611L11.4527 0.527278L11.44 0.527903ZM1.98209 11.2817C1.98355 11.3006 1.985 11.3187 1.98646 11.3364C1.98709 11.3208 1.98792 11.3048 1.98875 11.2879L1.9823 11.2817H1.98209ZM2.05188 9.18582C2.02125 9.19207 1.99625 9.22415 1.9775 9.26978C1.98167 9.4254 2.00188 9.3629 2.03792 9.26207C2.04167 9.23769 2.04605 9.21249 2.05167 9.18582H2.05188ZM1.59209 8.28103C1.5425 8.36249 1.51146 8.51749 1.48042 8.63915C1.51334 8.61749 1.53792 8.57374 1.55834 8.51415C1.55855 8.46499 1.55771 8.4154 1.55938 8.36644C1.57 8.33832 1.58125 8.30936 1.59209 8.28103ZM2.3498 6.26936L2.34875 6.26624C2.32542 6.31186 2.3073 6.35415 2.29855 6.3904C2.31563 6.34999 2.33271 6.30978 2.35 6.26915L2.3498 6.26936ZM3.725 4.46374C3.69792 4.49624 3.67292 4.52624 3.64917 4.55499L3.6773 4.52603C3.69313 4.50561 3.70917 4.48457 3.725 4.46374ZM5.91709 2.60061C5.98834 2.56853 6.05959 2.53644 6.12917 2.50499C6.1548 2.4879 6.18021 2.47124 6.20584 2.45394C6.30855 2.39019 6.41209 2.32644 6.51521 2.26269C6.41209 2.31853 6.3098 2.37374 6.20855 2.42832C6.10959 2.48665 6.0123 2.54436 5.91688 2.60061H5.91709ZM6.0973 2.38124C6.0498 2.40853 6.00105 2.43624 5.95105 2.46499C5.93834 2.47436 5.92667 2.48332 5.91459 2.49228C5.9525 2.4679 6.015 2.43019 6.0973 2.38124ZM7.39938 1.71415C7.31188 1.75165 7.2325 1.79311 7.16584 1.82499L7.12105 1.87103C7.20792 1.83374 7.29521 1.79457 7.38355 1.75832C7.41209 1.73374 7.4173 1.71874 7.39938 1.71415ZM7.06938 1.87332C7.07292 1.87644 7.06938 1.88311 7.05667 1.89457L7.13334 1.84103C7.10938 1.85311 7.08959 1.86311 7.06938 1.87332ZM4.23042 5.09603C4.08521 5.23769 3.9475 5.35519 3.87584 5.49436C4.03146 5.33311 3.86605 5.59374 3.8973 5.58749C3.95188 5.51603 3.98063 5.44936 3.93875 5.40915L4.00542 5.46228L4.23042 5.09603ZM4.41813 4.67499C4.37313 4.71415 4.30875 4.77165 4.23875 4.8379C4.11188 4.9704 3.99688 5.13561 3.86375 5.28832C3.83396 5.34332 3.82375 5.39019 3.8448 5.41561C3.74355 5.50728 3.64375 5.59415 3.54375 5.68082C3.49625 5.78853 3.61563 5.67915 3.59042 5.79082C3.52021 5.82978 3.46688 5.90603 3.42167 5.98894C3.45146 5.96769 3.48042 5.94874 3.50896 5.93269C3.45084 6.01436 3.39063 6.09394 3.33021 6.17374C3.3148 6.20665 3.3023 6.23936 3.2875 6.26603C3.26 6.30478 3.29667 6.41644 3.34813 6.39249C3.37125 6.33144 3.39146 6.26853 3.41709 6.20853L3.49605 6.02853C3.52584 6.06665 3.62042 6.05436 3.68375 5.93144C3.62021 5.93103 3.63896 5.88332 3.69063 5.81832C3.62459 5.86874 3.56792 5.89957 3.50896 5.93269C3.55271 5.87332 3.59125 5.81061 3.6375 5.75228C3.68292 5.69374 3.72792 5.63394 3.7723 5.57332C3.81605 5.51228 3.86 5.45061 3.90438 5.38832C3.95146 5.32811 3.99813 5.26624 4.04438 5.2029C4.24792 5.03853 4.3598 4.86353 4.40334 4.72457C4.36417 4.75915 4.35438 4.7654 4.41042 4.7004C4.41292 4.69186 4.41563 4.6829 4.41792 4.67499H4.41813ZM7.26605 2.29749C7.11292 2.36894 6.96771 2.45103 6.82084 2.52269C6.67605 2.59832 6.53605 2.67603 6.39667 2.74644C6.32959 2.81999 6.26271 2.89124 6.18396 2.9604L6.09125 2.93061C6.16688 2.89561 6.21313 2.86269 6.25334 2.82665L6.23896 2.83457C6.08292 2.90603 5.97792 2.95603 5.8875 3.00957C5.95584 3.03082 6.04438 2.93186 5.8323 3.13415C5.78355 3.14415 5.78459 3.10228 5.77459 3.07478C5.6948 3.12249 5.60875 3.17082 5.49584 3.24665C5.50125 3.25894 5.51417 3.27019 5.53875 3.26936C5.48688 3.30999 5.42855 3.35561 5.36792 3.40311C5.3423 3.45603 5.3048 3.50978 5.21459 3.59061C5.27542 3.55436 5.33813 3.52061 5.4023 3.48874C5.31084 3.55811 5.165 3.71394 5.04438 3.74374C5.11313 3.69353 5.22771 3.56811 5.28375 3.46978C5.20667 3.53394 5.12834 3.60457 5.04771 3.67374C4.96646 3.74249 4.88542 3.81269 4.81021 3.88436L4.82084 3.88228L4.77084 3.92019C4.71188 3.97394 4.65375 4.02582 4.59813 4.0729C4.60105 4.22269 4.92438 3.75769 4.93542 3.89374C4.90959 4.0154 4.80875 4.06144 4.71042 4.11103C4.61063 4.15853 4.52146 4.21769 4.5198 4.34561C5.06125 3.80457 5.72292 3.27332 6.44021 2.79707C6.57667 2.71249 6.71084 2.6229 6.84875 2.53999C6.98813 2.45999 7.12396 2.37228 7.26646 2.29728L7.26605 2.29749ZM10.8433 0.581653C10.7788 0.60957 10.714 0.636236 10.65 0.665403C10.82 0.627486 10.9829 0.61082 11.1285 0.634778C11.2879 0.578528 10.9867 0.597695 11.0294 0.55957C10.9688 0.565403 10.906 0.573111 10.8433 0.581653ZM1.71542 7.8154C1.69584 7.83853 1.63834 7.97769 1.58396 8.14145C1.60125 8.11103 1.61938 8.10582 1.6425 8.15061L1.6525 8.12561C1.675 8.03707 1.69917 7.94686 1.73355 7.86394C1.72834 7.78707 1.68625 7.76874 1.80605 7.43165L1.93667 7.3154C1.84959 7.51603 1.79959 7.66582 1.76188 7.79957C1.77084 7.78061 1.77959 7.76124 1.78959 7.74332C1.92063 7.37624 2.04292 6.97749 2.21646 6.58436C2.22084 6.5529 2.23105 6.50499 2.23271 6.47853C2.16896 6.61165 2.08646 6.7579 2.02334 6.90061C1.95917 7.04124 1.9048 7.16915 1.87563 7.25332C1.87334 7.19519 1.87146 7.13686 1.87063 7.07811C1.72105 7.28686 1.7523 7.48165 1.6 7.76436C1.54063 8.0804 1.74292 7.63561 1.71542 7.81499V7.8154ZM1.88 10.7171C1.8723 10.7531 1.86688 10.7937 1.86105 10.8337C1.86313 10.8614 1.86542 10.8898 1.86771 10.9202L1.84292 11.051V11.0544C1.88834 11.0883 1.87563 10.8933 1.88 10.7171ZM1.9673 11.4144C1.95209 11.2602 1.95084 11.0992 1.96292 10.9635C1.97459 11.0119 1.97417 11.15 1.98146 11.2735L1.98917 11.2756C1.99 11.2275 1.99459 11.1746 1.9975 11.121C1.99167 10.9152 1.99938 10.7025 2.00563 10.4992L2.02813 10.5352L2.0323 10.2856L2.02375 10.3025C2.02771 10.2802 2.03209 10.2198 2.0375 10.1339C2.02563 10.0946 2.0123 10.0594 1.99938 10.03C2.0248 10.0004 2.00959 9.98249 2.04021 10.0181C2.04167 10.0139 2.04313 10.0106 2.04438 10.0064C2.04792 9.92353 2.05834 9.82915 2.06709 9.72749C2.04542 9.62165 2.01292 9.5027 2.03146 9.31082C2.00063 9.42769 1.97146 9.55374 1.94792 9.69353C1.94709 9.7379 1.94396 9.78874 1.93771 9.84832C1.96292 9.74415 1.98625 9.6404 2.01542 9.53769C1.99959 9.65082 1.98896 9.82853 1.96334 9.98269C1.98438 10.0817 2.05167 9.99853 1.98459 10.2877C1.9673 10.2119 2.00563 9.91144 1.95271 10.0871C1.95105 10.0792 1.95084 10.0708 1.95 10.0625C1.9398 10.1144 1.9273 10.1619 1.91146 10.1996C1.92355 10.1167 1.92375 9.9779 1.92459 9.84457C1.89188 10.0671 1.87125 10.3079 1.855 10.5579C1.86375 10.5677 1.87334 10.5779 1.88334 10.5835C1.89063 10.4933 1.90542 10.4387 1.93605 10.4839C1.99792 10.6464 1.96292 10.8012 1.93209 10.9571C1.90334 11.1121 1.87709 11.2687 1.9673 11.4144ZM2.49084 12.9275C2.4998 12.9254 2.50417 12.9185 2.50771 12.9108C2.48375 12.8369 2.46313 12.7617 2.44042 12.6871C2.41771 12.6123 2.39521 12.5373 2.37771 12.4608L2.37292 12.476C2.37313 12.4512 2.35375 12.3689 2.3275 12.2598C2.2898 12.2264 2.25542 12.1921 2.22 12.1575C2.27125 12.2771 2.31646 12.4152 2.3523 12.5527C2.39605 12.6881 2.43563 12.8221 2.49084 12.9275ZM2.60625 13.1921L2.52396 12.9571C2.52188 12.9908 2.5225 13.0367 2.54792 13.1992L2.60625 13.1921ZM2.58834 13.251C2.57542 13.2335 2.56396 13.2202 2.55 13.2123C2.55271 13.2275 2.55417 13.2425 2.55834 13.2596L2.58834 13.251ZM2.68459 13.5069C2.66334 13.4219 2.63938 13.3448 2.61105 13.2894C2.61584 13.3577 2.65209 13.4387 2.68459 13.5069ZM2.79896 14.1764L2.90792 14.2952C2.95792 14.2967 2.9875 14.191 2.89667 14.0081C2.87167 14.0573 2.84355 14.0277 2.81188 13.9571C2.78188 13.8856 2.75521 13.771 2.72292 13.655C2.7123 13.6556 2.69667 13.6521 2.67375 13.6429C2.66896 13.6012 2.66709 13.5585 2.66563 13.516L2.60563 13.5521C2.63855 13.631 2.68125 13.7058 2.71813 13.7825C2.75709 13.8585 2.7925 13.9356 2.83667 14.0087C2.77042 13.986 2.88646 14.2052 2.79917 14.1764H2.79896ZM3.23063 14.8021C3.11896 14.6508 3.02334 14.4896 2.92313 14.3292C2.89667 14.3633 2.84292 14.3169 2.78875 14.2487C2.82542 14.3406 2.88125 14.4283 2.93105 14.5133C2.96292 14.5481 2.98438 14.5714 2.98438 14.5714L2.96209 14.565C2.99313 14.5823 3.03688 14.6564 3.09709 14.7423C3.09084 14.75 3.0848 14.7564 3.07855 14.761C3.08875 14.7735 3.10209 14.7854 3.11646 14.7962C3.11188 14.7827 3.10792 14.7681 3.10417 14.7527C3.11688 14.7725 3.13042 14.7931 3.14396 14.8139C3.18813 14.8385 3.23209 14.8442 3.23042 14.8019L3.23063 14.8021ZM7.58146 18.6306C7.57209 18.625 7.56396 18.62 7.555 18.6146L7.50417 18.5967C7.52959 18.6092 7.55438 18.621 7.57834 18.6312C7.5798 18.6308 7.58 18.6308 7.58146 18.6306ZM8.28417 18.8214L8.27709 18.8167C8.26063 18.815 8.2448 18.8133 8.22875 18.8117C8.24771 18.815 8.26521 18.8181 8.28417 18.8214ZM8.34292 18.7762C8.16292 18.7306 7.98855 18.6919 7.83584 18.6804L8.05105 18.7554C7.95938 18.7292 7.86563 18.7027 7.77146 18.6758C7.75334 18.6752 7.73625 18.6746 7.71917 18.6739L7.68938 18.6752C7.78021 18.6998 7.8748 18.725 7.96834 18.7502C8.02584 18.7567 8.08563 18.7633 8.14771 18.7704C8.21042 18.7723 8.27563 18.7742 8.34292 18.7762ZM9.38146 19.0104C9.25605 18.9979 9.12938 18.9796 9.00188 18.9635C8.8748 18.945 8.74542 18.9356 8.62021 18.9027L8.5773 18.9139C8.63584 18.925 8.69459 18.9404 8.75396 18.9506C8.81355 18.9592 8.87313 18.9677 8.93125 18.9758C9.04792 18.9923 9.16021 19.0064 9.26063 19.0114L9.27188 19.0119C9.31063 19.0129 9.34688 19.0148 9.38167 19.0102L9.38146 19.0104ZM9.90646 19.0187H9.89459L9.81834 19.0539C9.87938 19.0481 9.94167 19.0423 10.0054 19.0364C10.069 19.0254 10.1338 19.0148 10.1996 19.0054C10.1927 19.0031 10.185 19.0012 10.1788 18.9987C10.096 18.9792 10.2102 18.9569 10.2533 18.9412C10.1148 18.9556 9.98355 18.9744 9.85834 18.9748C9.84646 18.9864 9.85688 19 9.89563 19.0144C9.9023 19.0131 9.90875 19.0114 9.9148 19.0096L9.90021 19.0162C9.90271 19.0173 9.90375 19.0177 9.90646 19.0189V19.0187ZM10.8631 18.9646C10.8625 18.9542 10.8542 18.9477 10.841 18.9437C10.78 18.9598 10.7175 18.976 10.6558 18.9921C10.6156 19.0267 10.4652 19.0383 10.2844 19.0583C10.1938 19.0673 10.0954 19.0769 9.99917 19.0864C9.9025 19.0879 9.8075 19.0908 9.72355 19.0969L9.70688 19.1046C9.78709 19.1044 9.8648 19.1044 9.94313 19.1042C10.0227 19.1031 10.1033 19.0856 10.1842 19.0785C10.2648 19.0694 10.3456 19.0604 10.4248 19.0514C10.5038 19.0408 10.5819 19.0373 10.655 19.0189C10.7283 19.0021 10.7981 18.9842 10.8629 18.9648L10.8631 18.9646ZM11.5492 18.8329C11.4498 18.83 11.1808 18.87 11.2256 18.846C11.1454 18.8658 11.0233 18.8919 10.8902 18.9304C10.9213 18.9335 10.9471 18.9371 11.0123 18.9367C11.0775 18.9362 11.1825 18.9364 11.3677 18.9048L11.3665 18.8948L11.1783 18.9148C11.2429 18.8987 11.3048 18.886 11.3642 18.8762L11.3608 18.8481C11.4123 18.8558 11.479 18.8475 11.5492 18.8327V18.8329ZM12.3408 19.0181C12.3317 19.016 12.3298 19.0121 12.3313 19.0073C12.2954 19.0158 12.2627 19.0237 12.2231 19.0333L12.2106 19.0421L12.2215 19.0337C12.1752 19.0458 12.1315 19.0573 12.0783 19.071C12.0725 19.0823 12.0925 19.0831 12.1225 19.0798C12.156 19.0694 12.1856 19.0573 12.2106 19.0421L12.1685 19.0729C12.1902 19.0685 12.2129 19.0639 12.2392 19.0585C12.2708 19.046 12.3067 19.0314 12.3406 19.0181H12.3408ZM12.4231 18.9796L12.4198 18.9808C12.365 19.0046 12.3371 19.016 12.3429 19.0173C12.3704 19.0064 12.3938 18.9925 12.4231 18.9796ZM12.6615 18.526C12.43 18.5417 12.2275 18.6573 11.9685 18.7523C11.9644 18.7583 11.9613 18.7633 11.9554 18.7706L11.9094 18.7756C11.8702 18.7904 11.8298 18.8056 11.789 18.8214L11.794 18.8304C11.8338 18.8244 11.871 18.8189 11.9058 18.8139L12.2194 18.6969C12.3223 18.6542 12.4227 18.6048 12.5242 18.5594C12.5181 18.5681 12.5183 18.5735 12.5223 18.5769C12.5665 18.5608 12.6131 18.5437 12.6617 18.526H12.6615ZM14.7956 18.1939C14.7402 18.2177 14.6821 18.2371 14.6175 18.2625C14.5267 18.3356 14.3177 18.4781 14.3215 18.5025C14.4813 18.4089 14.635 18.3044 14.7956 18.1939ZM17.3171 13.2283C17.2983 13.2935 17.2779 13.3623 17.2558 13.4325C17.2813 13.4485 17.2492 13.6102 17.3588 13.3114C17.3563 13.2731 17.3681 13.1827 17.3171 13.2283ZM17.7771 10.6904C17.7871 10.7794 17.7869 10.8681 17.7881 10.9569L17.7923 11.2248C17.7708 11.2096 17.74 11.2196 17.7138 11.2567C17.6879 11.2939 17.6673 11.3581 17.656 11.4517C17.7481 11.3977 17.6946 11.5796 17.6415 11.781C17.6179 11.8823 17.5829 11.986 17.5679 12.0702C17.5535 12.1544 17.5583 12.2189 17.6019 12.2387L17.5204 12.2123C17.4981 12.4377 17.4465 12.6571 17.4044 12.8806L17.4208 12.8648C17.414 12.8619 17.4038 12.8992 17.3898 12.9623C17.3746 13.0248 17.3496 13.1112 17.3225 13.2092C17.4458 12.9979 17.5281 12.7446 17.6194 12.4775C17.6894 12.2052 17.7644 11.9169 17.8038 11.616C17.7992 11.6071 17.7954 11.5925 17.7925 11.5706C17.8033 11.5529 17.8119 11.5325 17.8204 11.5123C17.8533 11.3435 17.8596 11.1702 17.8804 10.9985C17.8808 10.9304 17.8819 10.8669 17.8869 10.8123C17.896 10.7487 17.8123 10.6312 17.7773 10.6902L17.7771 10.6904ZM18.661 8.39249L18.66 8.3854C18.66 8.3854 18.6592 8.38728 18.6585 8.38769L18.661 8.39249ZM17.3327 6.46624C17.33 6.47686 17.334 6.49874 17.345 6.53249C17.3431 6.51249 17.3396 6.49061 17.3327 6.46624ZM16.7975 5.35728C16.9781 5.67124 17.0356 5.82915 17.1777 6.11394L17.2456 6.11707C17.2465 6.1154 17.2473 6.11374 17.2485 6.11207C17.1177 5.85728 16.9642 5.59374 16.7975 5.35728ZM17.1769 5.06769C17.2129 5.13686 17.2492 5.20165 17.2785 5.26749C17.2981 5.27978 17.319 5.29436 17.3402 5.30999C17.2881 5.2154 17.226 5.12811 17.1769 5.06769ZM16.2613 5.04894C16.2996 5.12749 16.346 5.19874 16.3963 5.26311C16.446 5.32749 16.4954 5.3879 16.5469 5.43957C16.5088 5.37832 16.4719 5.31624 16.4319 5.2554C16.3906 5.1954 16.3492 5.13499 16.3075 5.07415L16.261 5.04894H16.2613ZM16.1413 4.40519L16.1181 4.46332C16.1904 4.53728 16.2527 4.61186 16.3165 4.67999C16.3794 4.74894 16.4415 4.81332 16.4975 4.87978C16.4377 4.70728 16.3706 4.67249 16.3129 4.63644C16.2527 4.60165 16.2015 4.56561 16.141 4.40519H16.1413ZM16.0992 4.34978C16.1148 4.36707 16.126 4.37894 16.1342 4.38665C16.1333 4.38415 16.1325 4.38228 16.1317 4.37957C16.1185 4.36749 16.1079 4.3579 16.0992 4.34978ZM15.8592 4.07082C15.9483 4.17103 16.0173 4.25353 16.0654 4.31103C16.0735 4.30332 16.0808 4.29478 16.0858 4.28415C16.0204 4.21769 15.9556 4.15249 15.8942 4.08999C15.8833 4.08603 15.8706 4.07769 15.8592 4.07082ZM14.9027 3.4604C14.8188 3.37582 14.7321 3.29436 14.6463 3.21249C14.5619 3.12957 14.4746 3.05019 14.389 2.96957C14.2998 2.94186 14.625 3.24769 14.5679 3.22686C14.6373 3.28957 14.7721 3.36769 14.9027 3.46061V3.4604ZM15.3127 3.47624C15.3188 3.45603 15.3269 3.43811 15.3367 3.42186C15.3092 3.39436 15.2831 3.36561 15.2552 3.33874C15.2623 3.37269 15.289 3.42603 15.3108 3.47436L15.3127 3.47603V3.47624ZM15.4221 3.58915C15.4256 3.58269 15.43 3.57832 15.4338 3.57644C15.4031 3.5529 15.3715 3.52874 15.34 3.50436C15.3677 3.53311 15.3952 3.56144 15.4221 3.58915ZM15.6119 3.7154L15.6665 3.76728L15.6646 3.76332L15.6167 3.71186C15.6135 3.71124 15.6138 3.71436 15.6119 3.7154ZM15.6081 3.73707C15.6131 3.75936 15.626 3.79103 15.6283 3.81061C15.6502 3.83457 15.6708 3.85686 15.6919 3.87999C15.6715 3.83624 15.6452 3.78894 15.6079 3.73707H15.6081ZM15.2873 3.84728C15.3204 3.93374 15.06 3.7004 15.2513 3.91853C15.3669 4.02894 15.4702 4.09207 15.4725 4.04603L15.2873 3.84749V3.84728ZM15.3496 3.00165C15.4806 3.14978 15.5621 3.24207 15.6754 3.3704C15.7167 3.38394 15.7619 3.40269 15.8096 3.42707C15.6608 3.28269 15.5092 3.13874 15.3496 3.00165ZM14.7202 2.87665C14.8113 2.94728 14.9181 3.06353 15.0125 3.15915C15.1056 3.25686 15.1883 3.33249 15.2367 3.32061L15.1406 3.22749C15.0506 3.14707 14.9596 3.06978 14.865 2.99374C14.8169 2.95478 14.7694 2.91457 14.7202 2.87665ZM14.4417 2.6629C14.4469 2.66936 14.4531 2.67561 14.4579 2.68249C14.5315 2.74603 14.6046 2.80936 14.6775 2.87249L14.7117 2.86999C14.6217 2.80103 14.5329 2.7304 14.4417 2.66311V2.6629ZM14.0294 2.63561C13.9254 2.5904 13.8338 2.54249 13.7371 2.49124C13.8704 2.60353 14.0394 2.68894 14.2192 2.81144C14.1556 2.75269 14.0921 2.69374 14.0294 2.6354V2.63561ZM14.045 2.45957L13.9406 2.40561C14.0677 2.49811 14.1425 2.54811 14.1317 2.52957C14.1031 2.50624 14.0742 2.48311 14.045 2.45957ZM13.7077 2.2229C13.7385 2.2529 13.7633 2.27561 13.7852 2.2954C13.8313 2.3279 13.8748 2.35853 13.9131 2.38582L13.976 2.40415C13.9585 2.38978 13.9406 2.3754 13.9231 2.36124C13.8458 2.31374 13.7721 2.26728 13.7079 2.22311L13.7077 2.2229ZM13.2973 2.25999L13.2869 2.25436L13.286 2.2554L13.2973 2.25999ZM13.4354 2.31019C13.3954 2.28394 13.3535 2.25624 13.309 2.22665L13.2944 2.24499L13.3221 2.27082C13.361 2.2879 13.3992 2.30103 13.4354 2.3104V2.31019ZM13.4019 2.02624C13.4031 2.0279 13.406 2.03103 13.4069 2.03269C13.436 2.05249 13.4635 2.07144 13.4919 2.09082C13.4623 2.06957 13.4323 2.04811 13.4019 2.02624ZM13.1719 2.1354L13.1979 2.15853L13.2108 2.16124C13.1975 2.15249 13.1856 2.14457 13.1719 2.1354ZM13.0796 2.08332C13.0977 2.09894 13.1175 2.11415 13.1381 2.12915C13.131 2.12019 13.1135 2.10582 13.0796 2.08332ZM13.0479 1.76374C13.065 1.78061 13.091 1.80124 13.1215 1.82353C13.1429 1.82936 13.1575 1.83144 13.1654 1.82957C13.1263 1.80749 13.0869 1.78561 13.0479 1.76374ZM10.3719 0.585195C10.6894 0.71957 11.0344 0.86957 11.4844 1.06686C11.545 0.987278 11.795 1.19769 11.9181 1.14936C11.72 1.04728 11.8248 1.09811 12.0708 1.22853C12.0471 1.20728 12.0215 1.18749 11.9956 1.16811C11.9346 1.13165 11.8746 1.09582 11.8146 1.05999C11.7852 1.0654 11.7648 1.0729 11.7563 1.07436L11.765 1.03124L11.7427 1.01832C11.5121 0.908736 11.245 0.831861 10.9977 0.755403C10.75 0.67832 10.521 0.601236 10.3567 0.473528C10.1754 0.446861 10.5248 0.601028 10.3719 0.585195ZM9.97292 0.419778L10.0394 0.446653C10.0377 0.439986 10.0377 0.434361 10.0394 0.431028C10.0175 0.427486 9.995 0.423528 9.97292 0.419778Z" fill="#D8E1FF"/>
</g>
<path d="M5.75708 3.75854C5.8 3.75938 5.87521 3.71458 6.02354 3.58417C5.99812 3.59333 5.95958 3.61313 5.91375 3.64333C5.86875 3.67417 5.81541 3.71396 5.75708 3.75854Z" fill="#D8E1FF"/>
<path d="M4.00854 5.40041C4.00854 5.40041 4.00875 5.40021 4.00959 5.39896L3.97334 5.42791C3.98604 5.41916 3.99646 5.40979 4.00854 5.40041Z" fill="#D8E1FF"/>
<path d="M18.6131 12.095L18.596 12.13C18.6027 12.1185 18.6071 12.1079 18.6129 12.0965V12.095H18.6131Z" fill="#D8E1FF"/>
<path d="M1.87208 10.8981L1.86771 10.9202C1.86979 10.9504 1.87166 10.9815 1.87166 11.0152L1.87208 10.8981Z" fill="#D8E1FF"/>
<path d="M3.09708 14.7423C3.09938 14.746 3.10167 14.7492 3.10438 14.7529C3.10313 14.7481 3.10188 14.7437 3.10063 14.7387C3.09917 14.7402 3.09833 14.741 3.09708 14.7423Z" fill="#D8E1FF"/>
<path d="M5.6377 3.32353C5.59354 3.35374 5.54208 3.39208 5.48541 3.43541C5.52812 3.43583 5.60375 3.39353 5.74958 3.26103C5.7452 3.26249 5.73895 3.26603 5.73395 3.26812C5.77791 3.22853 5.82833 3.18353 5.88625 3.15958C5.80687 3.20145 5.64104 3.23937 5.6377 3.32353Z" fill="#D8E1FF"/>
<path d="M5.83896 3.59103C5.83167 3.60374 5.82063 3.61895 5.80833 3.6352C5.82208 3.62603 5.83542 3.61603 5.84792 3.60457L5.83917 3.59082L5.83896 3.59103Z" fill="#D8E1FF"/>
<path d="M5.81667 3.55707L5.83896 3.59103C5.85417 3.56437 5.85458 3.54812 5.81667 3.55707Z" fill="#D8E1FF"/>
<path d="M11.6131 1.36459C11.6131 1.36251 11.6137 1.36126 11.6137 1.35938C11.6081 1.35709 11.6029 1.3548 11.5973 1.35251C11.6027 1.35668 11.6075 1.36022 11.6131 1.36459Z" fill="#D8E1FF"/>
<path d="M11.1335 1.15353C11.2792 1.21228 11.4512 1.28833 11.5973 1.35228C11.4521 1.23874 11.3394 1.21624 11.1335 1.15353Z" fill="#D8E1FF"/>
<path d="M16.1008 15.4239L16.1125 15.435C16.1192 15.4175 16.1298 15.3952 16.1417 15.371C16.1271 15.3879 16.1133 15.4052 16.1008 15.4239Z" fill="#D8E1FF"/>
<path d="M16.1125 15.435C16.0988 15.4721 16.1006 15.4902 16.1425 15.4627L16.1125 15.435Z" fill="#D8E1FF"/>
<path d="M16.4235 14.9871L16.2637 15.2069C16.2204 15.1698 16.1987 15.1513 16.2979 15.0188C16.2565 15.0383 16.2 15.1792 16.161 15.2554L16.2006 15.2081C16.1937 15.2479 16.1648 15.314 16.1417 15.371C16.2835 15.1783 16.5067 15.1046 16.4235 14.9871Z" fill="#D8E1FF"/>
<path d="M16.5796 14.6358C16.5263 14.7248 16.4017 14.9427 16.5031 14.9173L16.5796 14.6358Z" fill="#D8E1FF"/>
</g>
<defs>
<clipPath id="clip0_4965_2315">
<rect width="20" height="20" fill="white"/>
</clipPath>
</defs>
</svg>
