<svg width="56" height="56" viewBox="0 0 56 56" fill="none" xmlns="http://www.w3.org/2000/svg">
<path d="M25.5319 17.9299C23.9534 16.2517 22.0144 14.9316 19.8677 14.1254C16.4103 12.7948 12.4261 12.9448 9.07432 14.4626L7.6084 10.6598C11.1183 9.47334 14.9747 9.3835 18.4963 10.4714C21.9321 11.5191 25.0156 13.6897 27.2014 16.5264L25.5319 17.9299Z" fill="#861fef"/>
<path d="M27.8449 18.0489L25.8167 18.8499C25.7578 18.6941 25.6954 18.5401 25.6335 18.3855L25.7735 18.1347C25.6545 18.0472 25.5367 17.9585 25.4183 17.8728C23.9623 14.4889 21.8004 11.4293 18.8867 9.22543C17.65 8.32768 15.5039 6.97785 13.9062 7.24093L13.5883 6.12677C13.387 5.42035 13.3281 4.68477 13.4092 3.96027C14.1879 3.98068 14.9574 4.18777 15.6626 4.43393C19.9769 5.95235 23.2069 9.56202 25.518 13.3665C26.4152 14.8552 27.1764 16.4454 27.8449 18.0489Z" fill="#861fef"/>
<path d="M25.6333 18.3855L24.7064 20.0381C21.0617 18.5319 14.9134 15.3977 11.6975 11.6801C11.3516 11.2496 11.0418 10.8121 10.7706 10.3676C10.7566 10.3443 10.7426 10.3227 10.7286 10.2993C10.336 9.64601 10.0309 8.98043 9.83783 8.30551C9.71008 7.85984 9.61499 7.46376 9.54966 7.10734C9.53099 6.99476 9.51233 6.88743 9.49833 6.78301V6.78126C9.47499 6.60976 9.45924 6.44934 9.45166 6.29826C9.45516 6.23584 9.46099 6.17693 9.46858 6.11859C9.49366 5.92376 9.53916 5.75284 9.60449 5.60001C9.96383 4.74718 10.9187 4.48993 12.1566 4.10959C12.5696 3.98359 12.9913 3.94743 13.409 3.96026C13.3915 4.11309 13.381 4.26418 13.3763 4.41643C13.3717 4.59434 13.3746 4.77051 13.3857 4.94843C13.4014 5.18526 13.4306 5.42034 13.4761 5.65426C13.5052 5.81351 13.5432 5.97101 13.5881 6.12676L13.906 7.24093C13.9976 7.46726 14.0787 7.68834 14.242 7.98759C14.3587 8.18884 14.4852 8.38543 14.6188 8.57559C14.8294 8.87776 15.0569 9.16768 15.3013 9.45293C15.334 9.49376 15.3696 9.53401 15.404 9.57484C15.6735 9.88634 15.9617 10.192 16.2574 10.4971C17.9473 12.2057 19.8268 13.7002 21.7693 15.1748C22.9622 16.0866 24.1925 16.9657 25.4181 17.8728C25.4927 18.0425 25.5627 18.214 25.6333 18.3855Z" fill="#861fef"/>
<path d="M26.8071 16.6197L28.6446 17.7438C28.731 17.605 28.819 17.4685 28.9083 17.332L28.8161 17.0671C28.9474 17.0047 29.0792 16.9406 29.2105 16.8793C31.2422 13.8996 33.9051 11.3551 37.1496 9.76089C38.5199 9.12039 40.8596 8.20806 42.374 8.74181L42.885 7.73206C43.2087 7.09214 43.3989 6.39914 43.4496 5.69156C42.6855 5.57373 41.8962 5.63614 41.1624 5.74756C36.673 6.43823 32.8668 9.32106 29.9239 12.5521C28.7794 13.8174 27.7486 15.204 26.8071 16.6197Z" fill="#861fef"/>
<path d="M45.9615 10.5875C45.748 10.9118 45.5 11.2315 45.223 11.5436C41.8344 15.3603 34.0177 18.1405 29.5167 19.0762L28.9077 17.3326C29.008 17.1798 29.106 17.0287 29.2099 16.8793C30.5714 16.2283 31.9317 15.6048 33.2629 14.9427C35.4253 13.8752 37.5305 12.7773 39.49 11.4403C40.0068 11.0804 40.502 10.7188 40.9582 10.3268C41.2983 10.0374 41.618 9.72884 41.9102 9.39634C42.1249 9.13909 42.2433 8.94134 42.3745 8.74184L42.8844 7.73267C43.2081 7.09159 43.3983 6.39917 43.449 5.69159C43.8597 5.75284 45.7089 6.53742 46.0746 6.75559C47.4793 7.59617 46.9951 9.01192 45.9615 10.5875Z" fill="#861fef"/>
<path d="M26.2739 16.7032C27.8618 15.2909 30.0131 12.6957 30.8333 10.8062C32.1621 7.80965 32.2 4.37965 30.9861 1.53649L35.2211 0.00231934C36.0313 3.15407 35.805 6.59224 34.5199 9.70899C33.2938 12.7178 31.0689 15.4082 28.3179 17.2783L27.2883 16.9884L26.2739 16.7032Z" fill="#861fef"/>
<mask id="mask0_3638_255" style="mask-type:luminance" maskUnits="userSpaceOnUse" x="6" y="26" width="43" height="30">
<path d="M6.59058 26.5014H48.6431V55.9988H6.59058V26.5014Z" fill="white"/>
</mask>
<g mask="url(#mask0_3638_255)">
<path d="M48.5964 26.5119L48.5772 28.5162L48.5702 29.3621L48.5165 35.0181L48.4763 39.3027L48.3829 49.0542L48.3421 53.3388L48.282 55.9988H6.97267L6.90967 53.0997L6.87059 48.8938L6.77959 39.3277L6.73934 35.1231L6.68567 29.3621L6.67751 28.5162L6.65942 26.5119H48.5964Z" fill="#861fef"/>
</g>
<mask id="mask1_3638_255" style="mask-type:luminance" maskUnits="userSpaceOnUse" x="6" y="29" width="43" height="27">
<path d="M6.66113 29.3358H48.5719V55.9988H6.66113V29.3358Z" fill="white"/>
</mask>
<g mask="url(#mask1_3638_255)">
<path d="M48.5706 29.3627L48.5677 29.5954L48.5648 30.0043L48.5537 31.1687L48.5461 31.7765L48.5164 35.0193L48.4919 37.6798L48.4767 39.3027L48.4085 46.4788L48.4038 46.9023V46.9035L48.3834 48.8495L48.3822 49.0543L48.3775 49.5921L48.3606 51.4681L48.356 51.9149V51.9243L48.3414 53.34L48.2813 55.9988H6.97196L6.91013 53.0997L6.89905 51.8992L6.8693 48.8944L6.8028 41.7667L6.77946 39.3278L6.76605 37.7959L6.7643 37.7078L6.7398 35.1231L6.69138 29.9717L6.68555 29.3627H48.5706Z" fill="#861fef"/>
</g>
<mask id="mask2_3638_255" style="mask-type:luminance" maskUnits="userSpaceOnUse" x="4" y="16" width="47" height="13">
<path d="M4.89136 16.2277H50.3634V28.5226H4.89136V16.2277Z" fill="white"/>
</mask>
<g mask="url(#mask2_3638_255)">
<path d="M50.3645 16.2709V28.5168H4.89136V16.2709H50.3645Z" fill="#861fef"/>
</g>
<path d="M32.0762 28.5162V29.3627H23.1775V28.5162H32.0762Z" fill="#861fef"/>
<mask id="mask3_3638_255" style="mask-type:luminance" maskUnits="userSpaceOnUse" x="23" y="29" width="10" height="27">
<path d="M23.1565 29.3358H32.0768V55.9988H23.1565V29.3358Z" fill="white"/>
</mask>
<g mask="url(#mask3_3638_255)">
<path d="M32.0763 29.3627L32.015 55.9988H23.2394L23.1787 29.3627H32.0763Z" fill="#861fef"/>
</g>
<path d="M32.4574 28.5169H22.7974V16.2698H32.4574V28.5169Z" fill="#861fef"/>
<mask id="mask4_3638_255" style="mask-type:luminance" maskUnits="userSpaceOnUse" x="6" y="51" width="5" height="5">
<path d="M6.87354 51.8665H10.8379V55.9988H6.87354V51.8665Z" fill="white"/>
</mask>
<g mask="url(#mask4_3638_255)">
<path d="M10.8128 55.7725C10.8128 55.8483 10.811 55.9248 10.8063 55.9988H6.97209L6.91025 53.0997L6.89917 51.8992C6.91317 51.898 6.92717 51.898 6.94117 51.898C9.07909 51.898 10.8128 53.6328 10.8128 55.7725Z" fill="#861fef"/>
</g>
<path d="M21.4456 45.1301C21.4456 47.2698 19.7125 49.0046 17.574 49.0046C15.4361 49.0046 13.7024 47.2698 13.7024 45.1301C13.7024 42.9899 15.4361 41.2551 17.574 41.2551C19.7125 41.2551 21.4456 42.9899 21.4456 45.1301Z" fill="#861fef"/>
<path d="M10.8127 33.8374C10.8127 35.9771 9.07899 37.7125 6.94107 37.7125C6.88216 37.7125 6.82324 37.7107 6.76432 37.7078L6.73982 35.1231L6.69141 29.9716C6.77366 29.9658 6.85766 29.9629 6.94107 29.9629C9.07899 29.9629 10.8127 31.6977 10.8127 33.8374Z" fill="#861fef"/>
<path d="M21.4456 23.1951C21.4456 25.3347 19.7125 27.0696 17.574 27.0696C15.4361 27.0696 13.7024 25.3347 13.7024 23.1951C13.7024 21.0554 15.4361 19.3206 17.574 19.3206C19.7125 19.3206 21.4456 21.0554 21.4456 23.1951Z" fill="#861fef"/>
<path d="M42.252 45.1301C42.252 47.2698 40.5183 49.0046 38.3804 49.0046C36.2425 49.0046 34.5088 47.2698 34.5088 45.1301C34.5088 42.9899 36.2425 41.2551 38.3804 41.2551C40.5183 41.2551 42.252 42.9899 42.252 45.1301Z" fill="#861fef"/>
<path d="M42.252 23.1951C42.252 25.3347 40.5183 27.0696 38.3804 27.0696C36.2425 27.0696 34.5088 25.3347 34.5088 23.1951C34.5088 21.0554 36.2425 19.3206 38.3804 19.3206C40.5183 19.3206 42.252 21.0554 42.252 23.1951Z" fill="#861fef"/>
<mask id="mask5_3638_255" style="mask-type:luminance" maskUnits="userSpaceOnUse" x="44" y="51" width="5" height="5">
<path d="M44.1116 51.8665H48.3594V55.9988H44.1116V51.8665Z" fill="white"/>
</mask>
<g mask="url(#mask5_3638_255)">
<path d="M48.356 51.9149V51.9243L48.3414 53.34L48.2814 55.9988H44.1339C44.1292 55.9248 44.1274 55.8483 44.1274 55.7725C44.1274 53.6328 45.8611 51.898 47.999 51.898C48.1204 51.898 48.2394 51.9038 48.356 51.9149Z" fill="#861fef"/>
</g>
<path d="M48.5649 30.0043L48.5538 31.1686L48.5462 31.7765L48.5164 35.0192L48.4919 37.6798C48.3309 37.7014 48.1664 37.7125 47.999 37.7125C45.8611 37.7125 44.1274 35.9771 44.1274 33.8374C44.1274 31.6977 45.8611 29.9629 47.999 29.9629C48.1915 29.9629 48.3805 29.9763 48.5649 30.0043Z" fill="#861fef"/>
</svg>
