<svg width="60" height="60" viewBox="0 0 60 60" fill="none" xmlns="http://www.w3.org/2000/svg">
<g clip-path="url(#clip0_5282_1170)">
<path fill-rule="evenodd" clip-rule="evenodd" d="M19.0949 19.0951L0 38.1901L4.06524 42.255C6.30108 44.4907 8.151 46.3199 8.17614 46.3199C8.20128 46.3199 8.36328 46.2051 8.5362 46.0649C9.25566 45.4814 10.254 45.1853 11.234 45.2648C12.803 45.3922 14.156 46.4895 14.604 47.9981C14.9387 49.125 14.6913 50.4503 13.9679 51.406C13.8066 51.6191 13.6826 51.8172 13.6924 51.8462C13.7021 51.8752 15.5324 53.7218 17.7595 55.9498L21.8089 60.0008L40.9045 40.9054C51.4071 30.4028 60.0001 21.7851 60.0001 21.7549C60.0001 21.7246 59.9875 21.7125 59.9721 21.7279C59.9567 21.7433 58.1277 19.9388 55.9077 17.7179C53.6877 15.497 51.8482 13.6799 51.82 13.6799C51.7916 13.6799 51.6493 13.7848 51.5036 13.9131C51.3578 14.0414 51.0432 14.2416 50.8044 14.3581C49.2692 15.1066 47.4449 14.7807 46.2842 13.5505C45.8827 13.1249 45.6818 12.7985 45.4603 12.212C45.2928 11.7686 45.2779 11.6672 45.2741 10.9499C45.271 10.3426 45.2947 10.0968 45.3809 9.83988C45.561 9.30318 45.7787 8.88624 46.0579 8.54352C46.2021 8.36646 46.3201 8.20086 46.3201 8.17554C46.3201 8.15028 44.4908 6.30042 42.255 4.06476L38.1899 0L19.0949 19.0951ZM35.1187 14.821C31.565 15.6238 28.2947 18.4778 27.1549 21.771C26.7893 22.8271 26.6819 23.4695 26.6819 24.5999C26.6819 25.6762 26.785 26.3408 27.0968 27.2761C27.8416 29.5106 29.7493 31.691 31.8901 32.7547C33.6845 33.6463 35.5727 33.8594 37.5337 33.3916C40.4803 32.6889 43.1995 30.2806 44.8491 26.9126C45.2508 26.0925 45.7144 24.9452 45.8141 24.5245C45.9222 24.0685 45.9046 24.046 43.6897 21.8177C42.5459 20.6671 41.5048 19.6478 41.3761 19.5527C40.9362 19.2278 40.9213 19.2363 39.5539 20.5949C38.8813 21.2631 38.2912 21.8855 38.2424 21.9779C38.1917 22.0742 38.1709 22.2022 38.1937 22.2779C38.2155 22.3505 38.8615 23.0444 39.6292 23.8199C40.397 24.5954 41.0441 25.2916 41.0673 25.3669C41.1621 25.6748 40.498 26.7839 39.7223 27.613C39.1176 28.2593 38.6312 28.6315 38.0044 28.9275C37.3552 29.2342 36.8788 29.3379 36.1147 29.339C34.6985 29.341 33.5188 28.7945 32.3909 27.614C30.6208 25.7612 30.4191 23.2506 31.8849 21.3164C32.7691 20.1498 34.37 19.0895 36.0442 18.5618C36.746 18.3406 37.0201 18.1471 37.0201 17.8729C37.0201 17.6632 36.4718 15.2158 36.3817 15.0232C36.2207 14.6792 35.9431 14.6348 35.1187 14.821ZM22.3385 27.6318C20.8679 27.9008 19.5429 28.4716 18.3412 29.3539C17.7155 29.8133 16.6311 30.9121 16.1857 31.5377C14.1979 34.3306 14.5142 37.3402 17.005 39.335C17.8794 40.0353 18.6955 40.3335 19.7401 40.3344C20.9452 40.3355 22.2421 39.8486 24.3001 38.6225C25.5265 37.8919 26.1592 37.6082 26.6395 37.5739C27.1027 37.5407 27.301 37.6184 27.5882 37.9456C27.9199 38.3232 27.9188 38.8736 27.5852 39.5392C27.3534 40.0017 26.447 40.9502 25.8901 41.3131C25.0275 41.8751 24.0302 42.2668 23.0074 42.4453C22.3977 42.5516 22.1785 42.6784 22.1521 42.94C22.1308 43.1513 22.7071 45.7219 22.8283 45.9564C22.9708 46.232 23.0888 46.2905 23.4844 46.282C24.2968 46.2644 25.6686 45.873 26.7344 45.3545C29.1155 44.1964 31.1719 41.9045 31.8403 39.6641C32.0636 38.9157 32.1017 37.7924 31.9284 37.0673C31.6462 35.8862 30.9943 34.8986 29.9473 34.0659C29.1067 33.3973 28.3268 33.1199 27.288 33.1199C25.9949 33.1199 24.6525 33.6057 22.6604 34.7947C20.7895 35.9114 20.1028 36.0963 19.5423 35.6343C19.2317 35.3783 19.1302 35.1539 19.1322 34.7281C19.1346 34.2228 19.3756 33.7341 19.8927 33.186C20.779 32.2465 21.9958 31.6626 23.6659 31.3753C24.1543 31.2913 24.3601 31.1312 24.3601 30.8353C24.3601 30.5773 23.7732 28.0393 23.6653 27.8305C23.6177 27.7386 23.527 27.6356 23.4634 27.6017C23.3134 27.5213 22.8787 27.533 22.3385 27.6318Z" fill="currentColor"/>
</g>
<defs>
<clipPath id="clip0_5282_1170">
<rect width="60" height="60" fill="transparent"/>
</clipPath>
</defs>
</svg>
