<svg xmlns="http://www.w3.org/2000/svg" xmlns:xlink="http://www.w3.org/1999/xlink" width="500" zoomAndPan="magnify" viewBox="0 0 375 374.999991" height="500" preserveAspectRatio="xMidYMid meet" version="1.0"><path fill="#ffffff" d="M 372.117188 62.09375 C 373.90625 63.878906 375.019531 66.34375 375.019531 69.078125 C 375.019531 71.8125 373.914062 74.28125 372.117188 76.066406 L 312.90625 135.277344 C 311.121094 137.0625 308.644531 138.167969 305.921875 138.167969 C 300.464844 138.167969 296.042969 133.746094 296.042969 128.289062 C 296.042969 125.566406 297.148438 123.089844 298.933594 121.300781 L 341.308594 78.949219 L 88.816406 78.949219 C 72.464844 78.949219 59.210938 92.199219 59.210938 108.550781 L 59.210938 148.027344 C 59.210938 153.472656 54.789062 157.894531 49.34375 157.894531 C 43.894531 157.894531 39.472656 153.472656 39.472656 148.027344 L 39.472656 108.550781 C 39.472656 81.304688 61.570312 59.210938 88.816406 59.210938 L 341.308594 59.210938 L 298.933594 16.855469 C 297.148438 15.070312 296.042969 12.59375 296.042969 9.867188 C 296.042969 4.410156 300.464844 -0.0117188 305.921875 -0.0117188 C 308.644531 -0.0117188 311.121094 1.09375 312.90625 2.882812 Z M 325.65625 217.105469 C 320.210938 217.105469 315.789062 221.527344 315.789062 226.972656 L 315.789062 266.449219 C 315.789062 282.800781 302.535156 296.050781 286.183594 296.050781 L 33.691406 296.050781 L 76.066406 253.699219 C 77.851562 251.910156 78.957031 249.433594 78.957031 246.710938 C 78.957031 241.253906 74.535156 236.832031 69.078125 236.832031 C 66.355469 236.832031 63.878906 237.9375 62.09375 239.722656 L 2.882812 298.933594 C 1.09375 300.71875 -0.0195312 303.1875 -0.0195312 305.921875 C -0.0195312 308.65625 1.085938 311.121094 2.882812 312.90625 L 62.09375 372.117188 C 63.878906 373.90625 66.355469 375.011719 69.078125 375.011719 C 74.535156 375.011719 78.957031 370.589844 78.957031 365.132812 C 78.957031 362.40625 77.851562 359.929688 76.066406 358.144531 L 33.691406 315.789062 L 286.183594 315.789062 C 313.429688 315.789062 335.527344 293.695312 335.527344 266.449219 L 335.527344 226.972656 C 335.527344 221.527344 331.105469 217.105469 325.65625 217.105469 Z M 325.65625 217.105469 " fill-opacity="1" fill-rule="nonzero"/></svg>