<svg width="80" height="80" viewBox="0 0 80 80" fill="none" xmlns="http://www.w3.org/2000/svg">
<g clip-path="url(#clip0_3839_1254)">
<mask id="mask0_3839_1254" style="mask-type:luminance" maskUnits="userSpaceOnUse" x="0" y="7" width="80" height="15">
<path d="M0 7H80V21.76H0V7Z" fill="white"/>
</mask>
<g mask="url(#mask0_3839_1254)">
<path d="M78.8483 21.5683C78.2425 21.5683 77.7517 21.0775 77.7517 20.4717V9.19333H2.24833V20.4717C2.24833 21.0775 1.7575 21.5683 1.15167 21.5683C0.546667 21.5683 0.0550003 21.0775 0.0550003 20.4717V8.09667C0.0550003 7.49083 0.546667 7 1.15167 7H78.8483C79.4542 7 79.945 7.49083 79.945 8.09667V20.4717C79.945 21.0775 79.4542 21.5683 78.8483 21.5683Z" fill="#69DDFF"/>
</g>
<mask id="mask1_3839_1254" style="mask-type:luminance" maskUnits="userSpaceOnUse" x="0" y="19" width="80" height="55">
<path d="M0 19.2H80V73.08H0V19.2Z" fill="white"/>
</mask>
<g mask="url(#mask1_3839_1254)">
<path d="M2.24833 70.8067H77.7517V21.5683H2.24833V70.8067ZM78.8483 73H1.15167C0.546667 73 0.0550003 72.5092 0.0550003 71.9033V20.4717C0.0550003 19.8658 0.546667 19.375 1.15167 19.375H78.8483C79.4542 19.375 79.945 19.8658 79.945 20.4717V71.9033C79.945 72.5092 79.4542 73 78.8483 73Z" fill="#69DDFF"/>
</g>
<path d="M10.9158 16.1117C9.90667 16.1117 9.08833 15.2933 9.08833 14.2842C9.08833 13.275 9.90667 12.4567 10.9158 12.4567C11.925 12.4567 12.7433 13.275 12.7433 14.2842C12.7433 15.2933 11.925 16.1117 10.9158 16.1117Z" fill="#69DDFF"/>
<path d="M18.1217 16.1117C17.1125 16.1117 16.2942 15.2933 16.2942 14.2842C16.2942 13.275 17.1125 12.4567 18.1217 12.4567C19.1308 12.4567 19.9492 13.275 19.9492 14.2842C19.9492 15.2933 19.1308 16.1117 18.1217 16.1117Z" fill="#69DDFF"/>
<path d="M25.3275 16.1117C24.3175 16.1117 23.5 15.2933 23.5 14.2842C23.5 13.275 24.3175 12.4567 25.3275 12.4567C26.3367 12.4567 27.155 13.275 27.155 14.2842C27.155 15.2933 26.3367 16.1117 25.3275 16.1117Z" fill="#69DDFF"/>
<path d="M30.8292 58.4942C30.5483 58.4942 30.2675 58.3875 30.0542 58.1733L18.8433 46.9633C18.6375 46.7575 18.5225 46.4783 18.5225 46.1875C18.5225 45.8967 18.6375 45.6175 18.8433 45.4117L30.0542 34.2017C30.4817 33.7733 31.1758 33.7733 31.6042 34.2017C32.0325 34.63 32.0325 35.3242 31.6042 35.7525L21.17 46.1875L31.6042 56.6225C32.0325 57.0508 32.0325 57.745 31.6042 58.1733C31.39 58.3875 31.11 58.4942 30.8292 58.4942Z" fill="#69DDFF"/>
<path d="M49.1708 58.4942C48.8908 58.4942 48.61 58.3875 48.3958 58.1733C47.9675 57.745 47.9675 57.0508 48.3958 56.6225L58.83 46.1875L48.3958 35.7525C47.9675 35.3242 47.9675 34.63 48.3958 34.2017C48.8242 33.7733 49.5183 33.7733 49.9467 34.2017L61.1567 45.4117C61.585 45.84 61.585 46.535 61.1567 46.9633L49.9467 58.1733C49.7325 58.3875 49.4517 58.4942 49.1708 58.4942Z" fill="#69DDFF"/>
<path d="M35.9183 62.52C35.8242 62.52 35.7292 62.5075 35.6342 62.4825C35.0492 62.3258 34.7017 61.7242 34.8583 61.1392L43.0233 30.6683C43.18 30.0833 43.7808 29.7358 44.3667 29.8925C44.9508 30.0492 45.2983 30.6508 45.1417 31.2358L36.9767 61.7067C36.8458 62.1967 36.4025 62.52 35.9183 62.52Z" fill="#69DDFF"/>
</g>
<defs>
<clipPath id="clip0_3839_1254">
<rect width="80" height="80" fill="white"/>
</clipPath>
</defs>
</svg>
