<svg width="80" height="80" viewBox="0 0 80 80" fill="none" xmlns="http://www.w3.org/2000/svg">
<g clip-path="url(#clip0_1_145)">
<path d="M50.7933 66.09H2.0125C0.9 66.09 0 66.99 0 68.1025V74.2458C0 75.3525 0.9 76.2525 2.0125 76.2525H50.7933C51.9 76.2525 52.8058 75.3525 52.8058 74.2458V68.1025C52.8058 66.99 51.9 66.09 50.7933 66.09Z" fill="#69DDFF"/>
<mask id="mask0_1_145" style="mask-type:luminance" maskUnits="userSpaceOnUse" x="4" y="3" width="76" height="74">
<path d="M4.69333 3.44H80V76.59H4.69333V3.44Z" fill="white"/>
</mask>
<g mask="url(#mask0_1_145)">
<path d="M41.5683 30.765C41.5683 31.94 40.6183 32.89 39.45 32.89H13.3567C12.1817 32.89 11.2308 31.94 11.2308 30.765V13.1458C11.2308 11.9775 12.1817 11.0275 13.3567 11.0275H39.45C40.6183 11.0275 41.5683 11.9775 41.5683 13.1458V30.765ZM75.325 45.7208C73.5875 41.5833 71.8125 37.3333 70.9875 32.9083C72.3183 32.815 73.3683 31.7208 73.3683 30.365V19.7525C73.3683 19.6958 73.3558 19.64 73.35 19.5775C73.35 19.3525 73.3125 19.115 73.2183 18.89L73.1808 18.8083C73.1683 18.7775 73.1625 18.7525 73.15 18.7275L67.3375 4.54584C66.9683 3.64 65.9375 3.20834 65.025 3.5775C64.1183 3.9525 63.6875 4.99 64.0558 5.89584L68.6875 17.1958H65.35C63.9433 17.1958 62.7933 18.3458 62.7933 19.7525V30.365C62.7933 31.7775 63.9433 32.9208 65.35 32.9208H67.4C68.2308 37.9333 70.1625 42.5775 72.0558 47.0958C74.3183 52.49 76.45 57.5833 76.45 62.7583C76.45 67.7333 73.7058 73.0458 66 73.0458C63.425 73.0458 61.6308 72.4708 60.5058 71.29C58.3 68.9708 58.5433 64.2333 58.8 59.2208C59.1125 53.14 59.4375 46.8458 55.5 42.9275C53.7058 41.14 51.2433 40.09 48.0375 39.7275V8.74C48.0375 6.79584 46.4625 5.22084 44.5183 5.22084H8.2875C6.34416 5.22084 4.7625 6.79584 4.7625 8.74V64.9083H48.0375V43.29C50.2125 43.59 51.85 44.3025 52.9933 45.44C55.8125 48.2458 55.5308 53.7333 55.2558 59.04C54.975 64.5775 54.6808 70.3083 57.9375 73.7333C59.7625 75.6583 62.4 76.59 66 76.59C74.375 76.59 80 71.0333 80 62.7583C80 56.8708 77.625 51.2025 75.325 45.7208Z" fill="#69DDFF"/>
</g>
</g>
<defs>
<clipPath id="clip0_1_145">
<rect width="80" height="80" fill="white"/>
</clipPath>
</defs>
</svg>
