<svg width="80" height="80" viewBox="0 0 80 80" fill="none" xmlns="http://www.w3.org/2000/svg">
<path d="M30 63.3333C13.3333 68.3333 13.3333 55 6.66666 53.3333M53.3333 73.3333V60.4333C53.4584 58.8439 53.2436 57.246 52.7034 55.746C52.1631 54.2459 51.3098 52.8781 50.2 51.7333C60.6667 50.5667 71.6667 46.6 71.6667 28.4C71.6658 23.7461 69.8756 19.2707 66.6667 15.9C68.1862 11.8283 68.0787 7.32783 66.3667 3.33333C66.3667 3.33333 62.4333 2.16666 53.3333 8.26666C45.6934 6.19607 37.64 6.19607 30 8.26666C20.9 2.16666 16.9667 3.33333 16.9667 3.33333C15.2546 7.32783 15.1471 11.8283 16.6667 15.9C13.4338 19.2957 11.6417 23.8115 11.6667 28.5C11.6667 46.5667 22.6667 50.5333 33.1333 51.8333C32.0367 52.9666 31.1909 54.318 30.651 55.7997C30.1112 57.2814 29.8894 58.8602 30 60.4333V73.3333" stroke="#69DDFF" stroke-width="4" stroke-linecap="round" stroke-linejoin="round"/>
</svg>
