<svg width="100" height="100" viewBox="0 0 100 100" fill="none" xmlns="http://www.w3.org/2000/svg">
<path d="M36.7302 42.649C33.6604 40.401 33.4302 36.6865 33.4041 35.9615C33.2833 32.6865 35.0958 30.449 38.126 26.7083C42.2104 21.6646 46.3447 19.1354 49.1083 17.4802C54.3447 14.3448 56.5572 14.4052 57.6979 14.5656C58.2479 14.6438 60.5072 15.0156 62.4479 16.7823C65.5489 19.6063 65.702 24.0635 65.775 26.1188C66.7562 53.8042 66.6687 56.4802 66.4541 60.701C65.7354 74.799 65.501 80.3115 61.1093 83.4552C59.1968 84.825 57.1322 85.2865 55.6239 85.4563C54.4968 85.2448 52.9343 84.7917 51.4427 83.6979C45.3406 79.224 46.1989 68.2583 47.002 59.3792C48.0604 47.6698 49.5625 37.6885 49.5625 37.6885C49.5625 37.6885 46.4927 43.5479 41.7989 44.1458C39.2229 44.474 37.1208 42.9344 36.7302 42.65V42.649Z" fill="white"/>
<mask id="mask0_5066_719" style="mask-type:luminance" maskUnits="userSpaceOnUse" x="26" y="8" width="48" height="84">
<path d="M26.8906 8H73.0906V91.9833H26.8906V8Z" fill="white"/>
</mask>
<g mask="url(#mask0_5066_719)">
<path d="M40.0096 37.0396C39.9502 36.9958 39.8908 36.9511 39.8325 36.9052C40.27 37.2438 40.7085 37.5833 41.1471 37.9219C40.6544 37.5323 40.2137 37.0917 39.8262 36.5979C40.1648 37.0354 40.5033 37.474 40.8419 37.9125C40.4085 37.3469 40.0564 36.7323 39.7741 36.0792C39.9929 36.5958 40.2106 37.1136 40.4294 37.6313C40.0929 36.8302 39.8679 35.9896 39.7481 35.1302L39.9794 36.8563C39.8825 36.1281 39.8679 35.3958 39.9585 34.6646C39.8804 35.2406 39.8033 35.8156 39.7262 36.3917C39.8231 35.6781 40.0221 34.9906 40.3012 34.3281C40.0825 34.8458 39.8648 35.3625 39.646 35.8802C40.2377 34.5146 41.12 33.3 42.0241 32.1281C41.6856 32.5656 41.3471 33.0042 41.0085 33.4427C42.2377 31.8573 43.4971 30.2875 44.8919 28.8438C46.1044 27.5865 47.4085 26.4229 48.7877 25.3531C48.3491 25.6917 47.9116 26.0302 47.4731 26.3688C48.7419 25.3896 50.0721 24.4979 51.4387 23.6615C52.9929 22.7094 54.5721 21.7927 56.2523 21.0813C55.7346 21.299 55.2169 21.5177 54.7002 21.7354C55.6856 21.3229 56.7106 20.9708 57.7731 20.8271C57.1971 20.9042 56.621 20.9813 56.046 21.0583C56.5783 20.9896 57.1116 20.9833 57.6439 21.0531C57.0679 20.976 56.4929 20.899 55.9169 20.8219C56.7106 20.9292 57.4846 21.1542 58.2221 21.4604C57.7044 21.2427 57.1877 21.024 56.67 20.8063C57.3898 21.1146 58.0648 21.5052 58.6856 21.9833C58.2471 21.6448 57.8085 21.3063 57.371 20.9677C57.9273 21.4094 58.4241 21.9104 58.8596 22.4708C58.521 22.0323 58.1825 21.5948 57.8439 21.1563C58.3335 21.8021 58.7304 22.5042 59.0491 23.2479C58.8314 22.7302 58.6127 22.2135 58.395 21.6958C58.8689 22.8323 59.1544 24.0302 59.3189 25.2479C59.2419 24.6729 59.1648 24.0969 59.0866 23.5219C59.1991 24.3833 59.2471 25.249 59.2783 26.1167C59.3356 27.7438 59.3929 29.3708 59.4491 30.9969C59.5429 33.7386 59.6356 36.4792 59.7231 39.2208C59.8408 42.9042 59.9533 46.5875 60.0304 50.2719C60.0721 52.3031 60.1075 54.3354 60.0929 56.3677C60.0835 57.5469 60.0523 58.725 59.996 59.9021C59.7971 64.124 59.6335 68.3625 59.1866 72.5667C59.1346 73.0573 59.0762 73.5469 59.0116 74.0354C59.0887 73.4594 59.1658 72.8833 59.2439 72.3083C58.9919 74.1844 58.6481 76.0823 57.9106 77.8365C58.1294 77.3188 58.3471 76.8021 58.5658 76.2844C58.2419 77.0448 57.8398 77.7677 57.3356 78.4229C57.6741 77.9844 58.0127 77.5469 58.3512 77.1083C57.9012 77.6854 57.3804 78.1969 56.8033 78.6458C57.2419 78.3073 57.6804 77.9688 58.1179 77.6302C57.4221 78.1656 56.6616 78.6021 55.8554 78.95C56.3731 78.7313 56.8908 78.5136 57.4075 78.2948C56.395 78.7198 55.3346 78.9948 54.2471 79.1469C54.8231 79.0688 55.3991 78.9917 55.9741 78.9146C55.8575 78.9302 55.7398 78.9448 55.6231 78.9583C56.1991 79.0354 56.7752 79.1125 57.3502 79.1896C56.5887 79.0448 55.8481 78.8302 55.1314 78.5354C55.6491 78.7542 56.1669 78.9719 56.6835 79.1906C55.9106 78.8625 55.1835 78.4458 54.5179 77.9333C54.9554 78.2719 55.3939 78.6104 55.8325 78.949C55.1908 78.4458 54.6221 77.8656 54.1241 77.2208C54.4627 77.6594 54.8012 78.0979 55.1398 78.5354C54.5335 77.7365 54.0471 76.8604 53.6533 75.9386C53.8721 76.4552 54.0898 76.9729 54.3085 77.4906C53.6346 75.8813 53.2481 74.1719 53.0127 72.4469C53.0908 73.0229 53.1679 73.599 53.245 74.174C52.7148 70.1875 52.9377 66.1302 53.2585 62.1365C53.6398 57.4011 54.1387 52.674 54.7023 47.9573C54.9544 45.8479 55.221 43.7396 55.5033 41.6344C55.4262 42.2104 55.3491 42.7854 55.271 43.3615C55.4481 42.0438 55.6283 40.7271 55.8262 39.4125C56.0971 38.549 56.1356 37.6865 55.9429 36.8219C55.9033 35.9573 55.646 35.1531 55.171 34.4063C54.8325 33.9688 54.4939 33.5302 54.1554 33.0917C53.5669 32.4583 52.87 32.0104 52.0648 31.749C51.5585 31.4542 51.0116 31.3063 50.4252 31.3052C49.5616 31.1115 48.6981 31.15 47.8346 31.4208C46.2648 31.9292 44.7419 32.9031 43.9523 34.4063C43.5481 35.175 43.0408 35.899 42.5117 36.5844C42.8502 36.1469 43.1887 35.7083 43.5273 35.2698C42.7783 36.2333 41.9366 37.1261 40.971 37.8761C41.4096 37.5375 41.8481 37.1979 42.2866 36.8594C41.6679 37.3323 41.0064 37.7396 40.2908 38.0479C40.8085 37.8292 41.3252 37.6104 41.8429 37.3927C41.2731 37.6302 40.6835 37.7969 40.071 37.8792C40.6471 37.8021 41.2231 37.725 41.7981 37.6479C41.2971 37.7063 40.7991 37.7031 40.2981 37.6427L42.0241 37.874C41.3846 37.7865 40.7679 37.6094 40.171 37.3615C40.6887 37.5792 41.2054 37.7979 41.7231 38.0156C41.1158 37.7552 40.5419 37.4271 40.0085 37.0375C39.2627 36.5625 38.4575 36.3063 37.5929 36.2667C36.7294 36.0729 35.8658 36.1115 35.0023 36.3823C34.1564 36.5833 33.42 36.9708 32.7929 37.5458C32.0867 38.0042 31.5283 38.6115 31.12 39.3677C30.3231 40.8761 29.9242 42.7021 30.4648 44.374C30.6835 44.8917 30.9012 45.4083 31.12 45.926C31.6971 46.9021 32.4742 47.6792 33.4502 48.2563C33.7773 48.4958 34.1189 48.7136 34.4773 48.9052C35.195 49.2896 35.9658 49.5813 36.7169 49.8896C37.0804 50.0396 37.4502 50.1698 37.8325 50.2635C38.745 50.4896 39.6981 50.6 40.6304 50.6688C41.596 50.7406 42.5814 50.5427 43.5252 50.4073C44.72 50.2375 45.7866 49.7375 46.8877 49.249C47.4825 48.9854 48.0429 48.6636 48.57 48.2833C49.4898 47.6188 50.4169 46.9208 51.2346 46.125C52.3919 44.9979 53.3898 43.6792 54.3054 42.3563C54.6148 41.9083 54.9169 41.4469 55.171 40.9636C51.2127 39.2948 47.2544 37.6261 43.296 35.9573C42.9721 38.1136 42.6887 40.2771 42.4023 42.4385C41.8825 46.3698 41.4148 50.3073 41.0033 54.251C40.5752 58.3583 40.1439 62.4813 39.9887 66.6094C39.92 68.45 39.9158 70.2948 40.045 72.1333C40.146 73.5719 40.3398 75.0083 40.5606 76.4323C40.6887 77.2615 40.8564 78.0854 41.0773 78.8948C41.4325 80.1948 41.9637 81.4229 42.5033 82.6563C42.8075 83.3521 43.1689 84.0229 43.5991 84.65C44.3044 85.6771 45.0835 86.7292 46.0023 87.5875C46.6627 88.2052 47.4044 88.7427 48.1283 89.2792C48.5856 89.6177 49.0752 89.9146 49.5866 90.1646C50.8856 90.8 52.2596 91.3833 53.6846 91.6761C54.0419 91.749 54.3856 91.7833 54.7596 91.8334C55.2981 91.9052 55.4721 91.9698 55.8835 91.9177C56.6439 91.8208 57.4075 91.7323 58.1627 91.6021C58.6012 91.5271 59.0366 91.4313 59.4637 91.3104C60.2137 91.1011 60.9189 90.7969 61.6366 90.4938C62.396 90.174 63.1408 89.8604 63.8408 89.425C64.596 88.9552 65.2939 88.3771 65.9898 87.8302C66.1679 87.6906 66.3429 87.5469 66.5116 87.3948C66.8429 87.0979 67.1502 86.775 67.4304 86.4281C68.0377 85.6761 68.6752 84.9052 69.17 84.0656C69.5471 83.4271 69.8231 82.7469 70.1116 82.0636C70.4189 81.3323 70.7221 80.6136 70.9491 79.8531C71.295 78.6917 71.521 77.4958 71.696 76.2979C71.9971 74.2448 72.2387 72.1896 72.4002 70.1208C72.6585 66.8073 72.8127 63.4844 72.9752 60.1646C73.0137 59.375 73.045 58.5844 73.0637 57.7938C73.0877 56.7083 73.0908 55.6219 73.0846 54.5365C73.0741 52.8458 73.0429 51.1552 73.0054 49.4646C72.946 46.8333 72.87 44.2021 72.7887 41.5708C72.67 37.7052 72.5398 33.8386 72.4054 29.9729C72.3419 28.1427 72.3346 26.3011 72.1814 24.475C72.0731 23.175 71.9106 21.8667 71.6439 20.5875C71.4158 19.4958 71.0294 18.4906 70.595 17.4635C70.3179 16.8052 70.0512 16.149 69.6898 15.5313C69.2044 14.701 68.5794 13.9458 67.9835 13.199C67.6814 12.8208 67.3533 12.4656 66.9929 12.1427C66.4106 11.6198 65.771 11.1552 65.146 10.6875C64.9241 10.5208 64.6971 10.3635 64.4606 10.2188C64.0669 9.97501 63.6523 9.76772 63.2273 9.58438C62.3773 9.21667 61.5231 8.81772 60.6283 8.55834C59.6523 8.27501 58.6179 8.17397 57.6158 8.05417C57.3148 8.01772 57.0148 7.99897 56.7116 8.0073C56.52 8.01355 56.3304 8.02917 56.1419 8.05001C55.3533 8.13855 54.5512 8.22813 53.77 8.38647C53.1679 8.50834 52.5783 8.69063 52.0033 8.90313C50.7221 9.37605 49.4564 9.92084 48.2356 10.5333C44.6825 12.3167 41.3294 14.6417 38.3054 17.2094C36.5991 18.6573 35.0346 20.2667 33.6189 22.001C32.5617 23.2958 31.5262 24.6083 30.5169 25.9417C29.9523 26.6886 29.4085 27.4531 28.9492 28.2688C28.4804 29.1 28.1367 29.9906 27.771 30.8708C27.6221 31.2302 27.4887 31.5958 27.3877 31.9719C27.1419 32.8875 27.0471 33.8625 26.9481 34.7958C26.9064 35.1896 26.8919 35.5844 26.9075 35.9802C26.945 36.9156 27.1033 37.8583 27.2471 38.7771C27.345 39.4011 27.5002 40.0167 27.7158 40.6115C28.0221 41.4615 28.3721 42.3031 28.7752 43.1125C28.9554 43.4729 29.1606 43.8219 29.3908 44.1531C29.9242 44.9156 30.4887 45.6792 31.1314 46.3552C31.8189 47.0792 32.6564 47.6646 33.4512 48.2563C34.1971 48.7313 35.0023 48.9875 35.8669 49.0271C36.7304 49.2208 37.5939 49.1813 38.4575 48.9104C39.3033 48.7094 40.0398 48.3219 40.6669 47.7479C41.3741 47.2896 41.9314 46.6823 42.3398 45.925C43.1367 44.4177 43.5356 42.5906 42.995 40.9198C42.7773 40.4021 42.5585 39.8844 42.3398 39.3677C41.7627 38.3917 40.9856 37.6146 40.0096 37.0365V37.0396Z" fill="white"/>
</g>
<path d="M36.7302 42.6542C33.6604 40.4063 33.4302 36.6917 33.4041 35.9667C33.2833 32.6917 35.0958 30.4542 38.126 26.7136C42.2104 21.6698 46.3447 19.1406 49.1083 17.4854C54.3447 14.35 56.5572 14.4104 57.6979 14.5708C58.2479 14.649 60.5072 15.0208 62.4479 16.7875C65.5489 19.6115 65.702 24.0688 65.775 26.124C66.7562 53.8094 66.6687 56.4854 66.4541 60.7063C65.7354 74.8042 65.501 80.3167 61.1093 83.4604C59.1968 84.8292 57.1322 85.2917 55.6239 85.4615C54.4968 85.25 52.9343 84.7969 51.4427 83.7031C45.3406 79.2292 46.1989 68.2636 47.002 59.3844C48.0604 47.675 49.5625 37.6938 49.5625 37.6938C49.5625 37.6938 46.4927 43.5531 41.7989 44.1511C39.2229 44.4792 37.1208 42.9396 36.7302 42.6552V42.6542Z" fill="#69DDFF"/>
<path d="M37.3139 41.6573C37.1473 41.5333 37.3556 41.699 37.1994 41.5667C37.1181 41.4969 37.0348 41.4271 36.9546 41.3563C36.7744 41.1927 36.6014 41.0208 36.4379 40.8406C36.3691 40.7656 36.3025 40.6896 36.2379 40.6125C36.1889 40.5542 36.0525 40.3771 36.1702 40.5354C36.0358 40.3552 35.9077 40.1708 35.7879 39.9813C35.5775 39.6469 35.3994 39.2969 35.2327 38.9396C35.1369 38.7354 35.2952 39.1042 35.2139 38.899C35.1837 38.8208 35.1525 38.7427 35.1233 38.6636C35.0577 38.4875 34.9983 38.3094 34.9431 38.1302C34.8514 37.8302 34.7744 37.524 34.7108 37.2167C34.6848 37.0917 34.6619 36.9656 34.641 36.8406C34.6296 36.7729 34.6212 36.7052 34.6098 36.6386C34.6014 36.5938 34.6452 36.9386 34.6191 36.7042C34.5702 36.2708 34.5431 35.8365 34.5577 35.399C34.5639 35.2146 34.5816 35.0333 34.5962 34.85C34.6004 34.7906 34.6285 34.624 34.5879 34.8875C34.5941 34.8438 34.6004 34.799 34.6087 34.7552C34.6264 34.6521 34.6441 34.55 34.665 34.4479C34.7421 34.0688 34.8504 33.6979 34.9837 33.3344C35.015 33.25 35.0473 33.1667 35.0806 33.0823C35.1629 32.874 35.0119 33.2261 35.1077 33.0219C35.2004 32.824 35.2931 32.6281 35.3952 32.4344C35.5952 32.0563 35.816 31.6886 36.0494 31.3302C36.3035 30.9386 36.5733 30.5573 36.8504 30.1813C36.9869 29.9948 37.1264 29.8104 37.2671 29.6271C37.2639 29.6313 37.3827 29.4771 37.3233 29.5552C37.2629 29.6323 37.3837 29.4761 37.3806 29.4813C37.4827 29.3511 37.5848 29.2208 37.6869 29.0917C38.415 28.1729 39.1462 27.2521 39.9202 26.3708C41.2973 24.8011 42.8066 23.349 44.4337 22.0386C44.5973 21.9063 44.7629 21.775 44.9296 21.6458C44.7806 21.7625 44.9723 21.6136 45.0233 21.574C45.1306 21.4927 45.2389 21.4115 45.3462 21.3313C45.6837 21.0802 46.0254 20.8354 46.3702 20.5958C46.9931 20.1635 47.6275 19.749 48.2712 19.3479C49.7566 18.4208 51.2671 17.5208 52.8577 16.7844C53.0337 16.7031 53.2098 16.625 53.3879 16.5469C53.5962 16.4552 53.241 16.6052 53.4473 16.5219C53.5546 16.4792 53.6608 16.4354 53.7691 16.3927C54.0837 16.2708 54.4025 16.1573 54.7243 16.0563C55.2181 15.901 55.7191 15.7844 56.2306 15.699C56.4764 15.6583 55.9671 15.725 56.1441 15.7104C56.191 15.7063 56.2368 15.7 56.2837 15.6958C56.3796 15.6865 56.4743 15.6792 56.5691 15.674C56.7368 15.6656 56.9035 15.6635 57.0712 15.6688C57.2118 15.674 57.3504 15.6854 57.49 15.699C57.5233 15.7031 57.5566 15.7083 57.59 15.7104C57.741 15.7229 57.2462 15.6573 57.391 15.6833C57.4681 15.6979 57.5462 15.7063 57.6233 15.7198C58.2368 15.825 58.84 15.9979 59.4191 16.225C59.4639 16.2427 59.5087 16.2604 59.5535 16.2781C59.3431 16.1958 59.5087 16.2594 59.5504 16.2792C59.6441 16.3229 59.7379 16.3646 59.8306 16.4104C60.0431 16.5136 60.2514 16.626 60.4546 16.7458C60.6723 16.874 60.8848 17.0115 61.09 17.1583C61.2921 17.3021 61.3514 17.3511 61.5837 17.5604C61.9316 17.8719 62.2504 18.2136 62.5421 18.5771C62.6243 18.6802 62.5327 18.5646 62.5202 18.549C62.5618 18.6042 62.6025 18.6594 62.6421 18.7156C62.7014 18.799 62.7598 18.8844 62.816 18.9698C62.9379 19.1531 63.0514 19.3406 63.1598 19.5323C63.2681 19.7229 63.366 19.9125 63.4608 20.1083C63.5035 20.1979 63.5441 20.2875 63.5848 20.3771C63.5921 20.3938 63.6577 20.5448 63.6046 20.4198C63.5504 20.2938 63.6306 20.4854 63.6389 20.5083C63.7931 20.8948 63.9243 21.2886 64.0368 21.6885C64.1452 22.0719 64.2358 22.4594 64.3118 22.85C64.3483 23.0365 64.3806 23.225 64.4108 23.4136C64.4233 23.4979 64.4358 23.5833 64.4483 23.6667C64.4785 23.8719 64.4244 23.4583 64.4556 23.7333C64.5285 24.3636 64.5743 24.9948 64.6014 25.6292C64.7723 29.6719 64.8868 33.7188 65.0191 37.7636C65.116 40.7511 65.2087 43.7386 65.2879 46.7261C65.341 48.7104 65.3879 50.6938 65.416 52.6792C65.4337 53.9542 65.4452 55.2313 65.4337 56.5073C65.4264 57.3667 65.4077 58.2261 65.3743 59.0854C65.3066 60.8198 65.2066 62.5531 65.115 64.2865C65.015 66.1708 64.9098 68.0542 64.766 69.9365C64.7056 70.7302 64.6368 71.524 64.5556 72.3156C64.5181 72.6792 64.4785 73.0417 64.4348 73.4042C64.4139 73.5771 64.391 73.75 64.3691 73.9229C64.3535 74.0573 64.3848 73.8094 64.3848 73.8125C64.3848 73.85 64.3743 73.8906 64.3691 73.9281C64.3566 74.0177 64.3441 74.1073 64.3316 74.1969C64.1618 75.3708 63.9452 76.5417 63.616 77.6823C63.4764 78.1667 63.3118 78.6417 63.1264 79.1094C63.0577 79.2833 63.1025 79.1292 63.1577 79.0375C63.1264 79.0896 63.1066 79.1552 63.0816 79.2115C63.0337 79.3177 62.9858 79.4219 62.9348 79.5261C62.8358 79.7292 62.7296 79.9292 62.6181 80.124C62.5056 80.3198 62.3921 80.5011 62.2691 80.6823C62.2087 80.7719 62.1462 80.8604 62.0827 80.9469C62.0535 80.9875 62.0223 81.0261 61.9941 81.0667C61.9733 81.0948 62.1796 80.8344 62.0368 81.0083C61.765 81.3386 61.4754 81.6531 61.1598 81.9438C60.9983 82.0906 60.8306 82.2271 60.6618 82.3667C60.5202 82.4833 60.8848 82.2021 60.7348 82.3104C60.6931 82.3406 60.6525 82.3719 60.6108 82.4021C60.4066 82.5511 60.1973 82.6927 59.9827 82.826C59.7671 82.9594 59.5473 83.0854 59.3233 83.2031C59.1952 83.2698 59.0671 83.3333 58.9379 83.3948C58.8827 83.4208 58.8275 83.4458 58.7733 83.4708C58.7285 83.4917 58.6056 83.5448 58.7202 83.4969C58.2691 83.6875 57.8004 83.8417 57.3285 83.9688C56.9035 84.0844 56.4712 84.1761 56.0368 84.2479C55.9441 84.2625 55.8514 84.275 55.7598 84.2896C56.0556 84.2417 55.715 84.3083 55.7108 84.2948C55.715 84.3094 56.0014 84.3573 55.7639 84.3136C55.7212 84.3052 55.6775 84.2958 55.6348 84.2865C55.5285 84.2646 55.4244 84.2406 55.3191 84.2146C54.8816 84.1094 54.4514 83.9781 54.0306 83.8177C53.9869 83.8011 53.7306 83.699 53.8827 83.7625C53.7743 83.7167 53.666 83.6677 53.5598 83.6167C53.2994 83.4927 53.0441 83.3583 52.7952 83.2104C52.5702 83.0781 52.3493 82.9354 52.1369 82.7833C52.0889 82.749 52.041 82.7146 51.9931 82.6792C51.9618 82.6563 51.8171 82.5417 51.941 82.6417C52.0566 82.7344 51.8327 82.5511 51.7941 82.5188C51.515 82.2854 51.2493 82.0354 51.0004 81.7708C50.8848 81.6479 50.7733 81.524 50.665 81.3958C50.6014 81.3219 50.54 81.2458 50.4785 81.1698C50.3118 80.9636 50.541 81.2625 50.4285 81.1042C50.215 80.8052 50.0087 80.5042 49.8202 80.1875C49.6327 79.8708 49.4546 79.5365 49.2941 79.2C49.2191 79.0417 49.1494 78.8813 49.0775 78.7219C49.1608 78.9063 49.0993 78.7708 49.0587 78.6708C49.015 78.5615 48.9723 78.45 48.9306 78.3386C48.6525 77.5938 48.4316 76.8281 48.2546 76.0531C48.1629 75.65 48.0827 75.2438 48.0119 74.8365C47.9796 74.6448 47.9483 74.4531 47.9202 74.2604C47.9056 74.1636 47.8921 74.0677 47.8785 73.9698C47.9139 74.2219 47.866 73.8688 47.8556 73.7875C47.7504 72.9188 47.6837 72.0448 47.6431 71.1708C47.4775 67.5406 47.7566 63.9042 48.0775 60.2906C48.4619 55.95 48.9202 51.6167 49.4431 47.2906C49.6473 45.6052 49.8608 43.9208 50.0848 42.2386C50.1077 42.0646 50.1285 41.8906 50.1535 41.7177C50.1264 41.899 50.1337 41.8656 50.1535 41.7177C50.165 41.6313 50.1775 41.5448 50.1889 41.4583C50.2285 41.1604 50.2691 40.8636 50.3108 40.5656C50.3764 40.0948 50.4421 39.624 50.5087 39.1521C50.5639 38.7677 50.6191 38.3833 50.6764 37.999C50.7639 37.4219 50.5806 36.8771 50.0087 36.6365C49.5025 36.4229 48.8348 36.5979 48.566 37.1094C48.3775 37.4688 48.1587 37.8136 47.9358 38.1531C47.6962 38.5177 47.4525 38.899 47.1691 39.2323C47.1827 39.2156 47.3421 39.0125 47.2202 39.1646C47.1754 39.2208 47.1316 39.2771 47.0858 39.3333C47.0087 39.4302 46.9296 39.525 46.8504 39.6198C46.666 39.8375 46.4775 40.0511 46.2816 40.2583C45.8858 40.6802 45.465 41.0802 45.0181 41.4469C44.9629 41.4917 44.9056 41.5344 44.8525 41.5802C44.7181 41.6948 45.0764 41.4177 44.8493 41.5813C44.7327 41.6646 44.6181 41.75 44.5004 41.8302C44.2389 42.0094 43.9702 42.175 43.6921 42.3261C43.565 42.3948 43.4369 42.4604 43.3066 42.5219C43.2275 42.5594 43.1483 42.5948 43.0702 42.6302C43.1025 42.6156 43.3014 42.5396 43.1056 42.6146C42.8046 42.7281 42.5035 42.8302 42.191 42.9063C42.0483 42.9417 41.9035 42.9719 41.7587 42.9958C41.7191 43.0031 41.4296 43.0292 41.6816 43.0083C41.6014 43.0146 41.5233 43.0229 41.4431 43.0281C41.2494 43.0406 41.0546 43.0427 40.8608 43.0354C40.7473 43.0313 40.6358 43.0219 40.5223 43.0136C40.1681 42.9886 40.7358 43.0583 40.3921 42.999C39.9848 42.9281 39.5858 42.8261 39.1952 42.6886C39.1202 42.6625 39.0462 42.6333 38.9712 42.6052C38.6889 42.4979 39.0681 42.6583 38.8671 42.5615C38.7139 42.4896 38.5629 42.4188 38.4129 42.3406C38.0306 42.1406 37.665 41.9104 37.3171 41.6552C36.8275 41.2969 36.0077 41.5563 35.7369 42.0688C35.4191 42.6698 35.6296 43.2667 36.1514 43.649C37.0744 44.324 38.1462 44.8438 39.2566 45.1177C40.94 45.5344 42.6212 45.3302 44.1962 44.6417C46.491 43.6386 48.2962 41.6927 49.6973 39.6667C50.0077 39.2188 50.3087 38.7563 50.5629 38.274C49.8598 37.9771 49.1556 37.6802 48.4514 37.3844C48.1983 39.0688 47.9723 40.7563 47.7483 42.4448C47.2285 46.3761 46.7608 50.3136 46.3493 54.2573C45.9212 58.3646 45.49 62.4875 45.3348 66.6156C45.1994 70.2323 45.2733 73.9677 46.2337 77.4802C47.1504 80.8375 49.0723 83.9854 52.2879 85.5573C53.1837 85.9969 54.1306 86.3292 55.1098 86.5302C56.041 86.7219 57.1421 86.4208 58.0493 86.1667C59.7775 85.6813 61.4035 84.8271 62.74 83.625C64.2681 82.249 65.2212 80.3896 65.8035 78.4406C66.6035 75.7583 66.8462 72.9052 67.0639 70.1271C67.3223 66.8136 67.4764 63.4906 67.6389 60.1708C67.6775 59.3813 67.7087 58.5906 67.7264 57.8C67.7514 56.7146 67.7546 55.6281 67.7483 54.5427C67.7379 52.8521 67.7066 51.1615 67.6681 49.4708C67.6098 46.8396 67.5337 44.2083 67.4525 41.5771C67.3337 37.7115 67.2035 33.8448 67.0691 29.9792C66.9473 26.4896 67.1035 22.8094 65.7191 19.5281C64.9035 17.5948 63.566 15.9427 61.7702 14.8375C60.5077 14.0604 59.0858 13.5854 57.6202 13.4021C55.3098 13.1125 52.9473 14.1438 50.9368 15.1531C47.7941 16.7292 44.7671 18.7188 42.0879 20.9938C40.3816 22.4417 38.816 24.0511 37.4014 25.7844C36.0494 27.4406 34.6191 29.1031 33.566 30.9719C32.7004 32.5073 32.1827 34.2125 32.2535 35.9865C32.2962 37.0719 32.5004 38.175 32.8702 39.1979C33.5212 41 34.6108 42.5042 36.1514 43.649C36.6379 44.0115 37.4619 43.7448 37.7316 43.2354C38.0504 42.6302 37.8369 42.0406 37.3171 41.6552L37.3139 41.6573Z" fill="black"/>
</svg>
