<svg width="80" height="80" viewBox="0 0 80 80" fill="none" xmlns="http://www.w3.org/2000/svg">
<g clip-path="url(#clip0_1_111)">
<mask id="mask0_1_111" style="mask-type:luminance" maskUnits="userSpaceOnUse" x="9" y="8" width="62" height="64">
<path d="M9.38666 8.14999H70.4V71.83H9.38666V8.14999Z" fill="white"/>
</mask>
<g mask="url(#mask0_1_111)">
<path fill-rule="evenodd" clip-rule="evenodd" d="M56.895 71.845H23.0583C15.6067 71.845 9.56082 65.8 9.56082 58.395V36.4617C9.56082 29.01 15.6067 22.9642 23.0583 22.9642H38.5233L38.5708 17.8092C36.555 17.2 35.0558 15.325 35.0558 13.0758C35.0558 10.3575 37.305 8.155 40.0233 8.155C42.7417 8.155 44.9908 10.3575 44.9908 13.0758C44.9908 15.325 43.445 17.2467 41.3825 17.8558L41.3358 22.9642H56.895C64.3 22.9642 70.3458 29.01 70.3458 36.4617V58.4417C70.3458 65.8467 64.3 71.845 56.895 71.845ZM27.2758 50.5683C23.2925 50.5683 20.1525 47.4283 20.1525 43.4917C20.1525 39.5075 23.2925 36.3675 27.2758 36.3675C31.2592 36.3675 34.3525 39.5075 34.3525 43.4917C34.3525 47.4283 31.2592 50.5683 27.2758 50.5683ZM27.2758 39.18C24.8392 39.18 22.9642 41.0542 22.9642 43.4917C22.9642 45.8817 24.8392 47.7567 27.2758 47.7567C29.6658 47.7567 31.5875 45.8817 31.5875 43.4917C31.5875 41.0542 29.6658 39.18 27.2758 39.18ZM52.7242 50.2867C48.7408 50.2867 45.5533 47.1 45.5533 43.1633C45.5533 39.2267 48.7408 36.04 52.7242 36.04C56.6142 36.04 59.8008 39.2267 59.8008 43.1633C59.8008 47.1 56.6142 50.2867 52.7242 50.2867ZM52.7242 38.8517C50.2867 38.8517 48.3658 40.82 48.3658 43.1633C48.3658 45.5533 50.2867 47.5217 52.7242 47.5217C55.1142 47.5217 56.9892 45.5533 56.9892 43.1633C56.9892 40.7267 55.0675 38.8517 52.7242 38.8517ZM39.4608 58.8167C36.79 58.8167 34.4467 57.5517 33.1342 56.4267C32.525 55.9108 32.4783 54.9733 32.9933 54.4583C33.5092 53.8958 34.3525 53.8017 34.9617 54.3642C35.3833 54.7392 39.4608 57.9733 43.3508 54.4108C43.9133 53.8958 44.7567 53.8958 45.3658 54.4583C45.8817 55.0675 45.8817 55.9108 45.3192 56.4733C43.3508 58.1608 41.3358 58.8167 39.4608 58.8167Z" fill="#69DDFF"/>
</g>
<path fill-rule="evenodd" clip-rule="evenodd" d="M6.74833 56.8017H6.18667C2.81167 56.8017 0 54.0367 0 50.615V41.0542C0 37.6333 2.81167 34.8217 6.18667 34.8217H6.8425C6.79583 35.3367 6.74833 35.8992 6.74833 36.4617V56.8017Z" fill="#69DDFF"/>
<path fill-rule="evenodd" clip-rule="evenodd" d="M73.72 56.8017H73.1575V36.4617C73.1575 35.8525 73.1108 35.29 73.0642 34.7742H73.72C77.1883 34.7742 80 37.5392 80 41.0075V50.615C80 54.0833 77.1883 56.8017 73.72 56.8017Z" fill="#69DDFF"/>
</g>
<defs>
<clipPath id="clip0_1_111">
<rect width="80" height="80" fill="white"/>
</clipPath>
</defs>
</svg>
