<svg width="80" height="80" viewBox="0 0 80 80" fill="none" xmlns="http://www.w3.org/2000/svg">
<g clip-path="url(#clip0_1_127)">
<path d="M72.6457 32.3198L72.6399 32.315L52.4939 17.8031C50.5167 16.3776 47.9362 16.0014 45.6787 16.9061C42.5679 18.1493 42.4786 20.6987 42.5756 21.7305C42.6289 22.2522 42.7114 23.1036 42.7473 23.6253L43.2215 30.4803H37.0424C37.0424 30.4803 37.1665 27.9212 37.1665 22.387C37.1665 22.2716 37.1665 22.1591 37.1665 22.0476C37.0695 18.7884 36.1919 16.205 31.0835 16.205H31.0573C29.6549 16.2039 28.2902 16.6586 27.1687 17.5006L7.8189 32.0105L7.80822 32.0202C5.3468 33.6363 3.33841 35.8537 1.97305 38.4626C0.607693 41.0715 -0.0694812 43.9856 0.00559739 46.9292C0.080676 49.8728 0.905525 52.7486 2.4021 55.2845C3.89868 57.8204 6.01751 59.9325 8.55811 61.4211C11.0987 62.9096 13.9771 63.7254 16.9209 63.7912C19.8648 63.8569 22.7767 63.1706 25.3813 61.797C27.9858 60.4234 30.1969 58.408 31.8052 55.9415C33.4136 53.475 34.366 50.6389 34.5725 47.7015C35.3483 48.5355 37.0375 49.7981 40.1639 49.7981C42.8403 49.7981 44.516 48.873 45.4566 48.0807C45.7254 50.9732 46.7179 53.7516 48.3426 56.1597C49.9674 58.5679 52.172 60.5284 54.7536 61.8605C57.3351 63.1927 60.2104 63.8537 63.1145 63.7826C66.0186 63.7115 68.8581 62.9107 71.3713 61.4538C73.8846 59.9969 75.9907 57.9309 77.4957 55.4461C79.0006 52.9614 79.856 50.1378 79.983 47.2356C80.1099 44.3334 79.5043 41.4459 78.2221 38.8393C76.9398 36.2326 75.0221 33.9906 72.6457 32.3198ZM17.3134 58.641C14.9088 58.6406 12.5583 57.9272 10.5591 56.591C8.55996 55.2548 7.00189 53.3558 6.08195 51.1341C5.16201 48.9124 4.92151 46.4678 5.39087 44.1094C5.86022 41.7511 7.01834 39.5848 8.71879 37.8847C10.4192 36.1845 12.5857 35.0267 14.9441 34.5577C17.3025 34.0888 19.7471 34.3296 21.9686 35.2499C24.1902 36.1702 26.0889 37.7286 27.4248 39.728C28.7607 41.7274 29.4737 44.078 29.4737 46.4826C29.4739 48.0795 29.1594 49.6607 28.5483 51.136C27.9372 52.6113 27.0415 53.9518 25.9122 55.0808C24.783 56.2099 23.4424 57.1054 21.967 57.7163C20.4916 58.3271 18.9103 58.6413 17.3134 58.641ZM44.9505 42.6861C44.914 42.9054 44.8338 43.1151 44.7148 43.3029C44.4739 43.6851 44.1403 44.0003 43.7451 44.2193C43.3639 44.436 42.9548 44.5991 42.5291 44.7041C41.8735 44.8797 41.0502 44.9834 40.0078 44.9854C38.8296 44.9854 37.9374 44.8457 37.247 44.6266C36.5566 44.4074 36.0688 44.1 35.741 43.7722C35.551 43.5905 35.3952 43.376 35.2814 43.139C35.1976 42.9724 35.1444 42.7921 35.1243 42.6066C35.1079 42.4064 35.17 42.2076 35.2973 42.0521C35.4246 41.8966 35.6072 41.7966 35.8068 41.7731C36.0063 41.7496 36.2072 41.8045 36.3671 41.9261C36.5271 42.0478 36.6336 42.2267 36.6642 42.4253V42.4301L36.6904 42.4893C36.7901 42.6477 36.9282 42.7785 37.0918 42.8694C37.3415 43.0155 37.6105 43.1259 37.8909 43.1972C38.3816 43.331 39.0672 43.4309 40.0059 43.4309C41.0822 43.4309 41.8318 43.3019 42.34 43.14C42.8481 42.978 43.1157 42.7919 43.2496 42.6551C43.311 42.5992 43.3631 42.5337 43.4038 42.4612L43.4144 42.4369V42.4282C43.4551 42.2319 43.5702 42.0589 43.7356 41.9456C43.901 41.8323 44.1039 41.7874 44.3017 41.8204C44.4994 41.8534 44.6768 41.9616 44.7965 42.1225C44.9162 42.2834 44.9689 42.4843 44.9437 42.6832L44.9505 42.6861ZM62.6963 58.641C60.2917 58.6408 57.9411 57.9275 55.9418 56.5914C53.9425 55.2553 52.3843 53.3564 51.4642 51.1347C50.5441 48.9131 50.3035 46.4685 50.7727 44.11C51.2419 41.7516 52.4 39.5853 54.1004 37.885C55.8008 36.1847 57.9672 35.0269 60.3257 34.5578C62.6842 34.0887 65.1287 34.3296 67.3503 35.2498C69.5719 36.1701 71.4707 37.7285 72.8067 39.7279C74.1426 41.7273 74.8557 44.078 74.8557 46.4826C74.8557 48.0793 74.5412 49.6604 73.9301 51.1356C73.319 52.6108 72.4233 53.9512 71.2942 55.0802C70.1651 56.2092 68.8247 57.1048 67.3494 57.7157C65.8742 58.3267 64.2931 58.6411 62.6963 58.641Z" fill="#69DDFF"/>
<path d="M18.6584 43.586C18.6582 44.5053 18.3854 45.4038 17.8744 46.168C17.3635 46.9321 16.6374 47.5276 15.788 47.879C14.9386 48.2304 14.004 48.322 13.1025 48.1422C12.2011 47.9624 11.3732 47.5193 10.7236 46.8689C10.074 46.2185 9.6319 45.39 9.45322 44.4883C9.27455 43.5866 9.36732 42.6522 9.7198 41.8032C10.0723 40.9542 10.6686 40.2289 11.4334 39.7189C12.1982 39.2089 13.0971 38.9372 14.0163 38.9382C15.248 38.9397 16.4287 39.4301 17.2991 40.3016C18.1695 41.173 18.6584 42.3544 18.6584 43.586Z" fill="#69DDFF"/>
<path d="M23.1492 50.0463C23.1494 50.4647 23.0255 50.8737 22.7931 51.2217C22.5608 51.5696 22.2305 51.8409 21.844 52.0011C21.4575 52.1613 21.0322 52.2032 20.6218 52.1216C20.2115 52.0401 19.8346 51.8386 19.5387 51.5428C19.2429 51.2469 19.0414 50.87 18.9598 50.4596C18.8783 50.0493 18.9202 49.624 19.0804 49.2375C19.2406 48.851 19.5119 48.5207 19.8598 48.2883C20.2078 48.056 20.6168 47.9321 21.0352 47.9323C21.5958 47.9326 22.1333 48.1554 22.5297 48.5518C22.9261 48.9482 23.1489 49.4857 23.1492 50.0463Z" fill="#69DDFF"/>
<path d="M68.6388 49.7981C68.6388 50.2164 68.5147 50.6253 68.2823 50.9731C68.0499 51.3209 67.7196 51.592 67.3332 51.752C66.9467 51.9121 66.5215 51.954 66.1112 51.8724C65.7009 51.7908 65.3241 51.5894 65.0283 51.2936C64.7325 50.9978 64.5311 50.6209 64.4495 50.2107C64.3679 49.8004 64.4098 49.3752 64.5698 48.9887C64.7299 48.6022 65.001 48.2719 65.3488 48.0395C65.6966 47.8071 66.1055 47.6831 66.5238 47.6831C67.0846 47.6834 67.6224 47.9063 68.019 48.3028C68.4156 48.6994 68.6385 49.2372 68.6388 49.7981Z" fill="#69DDFF"/>
<path d="M63.8212 43.78C63.8214 44.686 63.5529 45.5718 63.0497 46.3252C62.5465 47.0787 61.8312 47.666 60.9942 48.0129C60.1572 48.3598 59.2361 48.4507 58.3475 48.2741C57.4588 48.0975 56.6425 47.6614 56.0017 47.0209C55.3609 46.3804 54.9244 45.5642 54.7475 44.6756C54.5705 43.787 54.6611 42.8659 55.0076 42.0288C55.3541 41.1917 55.9411 40.4761 56.6944 39.9726C57.4476 39.4691 58.3332 39.2002 59.2392 39.2C59.8408 39.1999 60.4365 39.3182 60.9924 39.5483C61.5482 39.7784 62.0533 40.1158 62.4788 40.5411C62.9042 40.9663 63.2418 41.4713 63.4721 42.027C63.7024 42.5828 63.821 43.1784 63.8212 43.78Z" fill="#69DDFF"/>
</g>
<defs>
<clipPath id="clip0_1_127">
<rect width="80" height="47.59" fill="white" transform="translate(0 16.205)"/>
</clipPath>
</defs>
</svg>
