<svg width="101" height="100" viewBox="0 0 101 100" fill="none" xmlns="http://www.w3.org/2000/svg">
<g clip-path="url(#clip0_5057_514)">
<mask id="mask0_5057_514" style="mask-type:luminance" maskUnits="userSpaceOnUse" x="34" y="28" width="26" height="44">
<path d="M34.1133 28.9917H59.3237V72H34.1133V28.9917Z" fill="white"/>
</mask>
<g mask="url(#mask0_5057_514)">
<mask id="mask1_5057_514" style="mask-type:luminance" maskUnits="userSpaceOnUse" x="34" y="28" width="26" height="44">
<path d="M38.7133 28.9917H54.7237C57.2633 28.9917 59.3237 31.051 59.3237 33.5917V67.3771C59.3237 69.9177 57.2633 71.9771 54.7237 71.9771H38.7133C36.1727 71.9771 34.1133 69.9177 34.1133 67.3771V33.5917C34.1133 31.051 36.1727 28.9917 38.7133 28.9917Z" fill="white"/>
</mask>
<g mask="url(#mask1_5057_514)">
<path d="M34.1133 28.9917H59.3237V72.026H34.1133V28.9917Z" fill="white"/>
</g>
</g>
<path d="M10.3436 42.6625C7.27274 40.4146 7.04253 36.6969 7.01545 35.9719C6.89462 32.6958 8.70816 30.4573 11.7394 26.7146C15.8259 21.6687 19.9613 19.1385 22.7269 17.4833C27.9644 14.3458 30.1779 14.4073 31.3196 14.5677C31.8696 14.6448 34.13 15.0177 36.0717 16.7854C39.1738 19.6094 39.3269 24.0687 39.3998 26.125C40.3821 53.8219 40.2936 56.499 40.079 60.7229C39.3592 74.826 39.1259 80.3417 34.7321 83.4865C32.8186 84.8562 30.754 85.3187 29.2446 85.4885C28.1175 85.2771 26.554 84.8229 25.0623 83.7292C18.9571 79.2542 19.8165 68.2823 20.6186 59.4C21.6779 47.6854 23.18 37.7 23.18 37.7C23.18 37.7 20.1092 43.5615 15.4134 44.1604C12.8373 44.4885 10.7342 42.949 10.3436 42.6635V42.6625Z" fill="white"/>
<mask id="mask2_5057_514" style="mask-type:luminance" maskUnits="userSpaceOnUse" x="0" y="8" width="47" height="84">
<path d="M0.5 8H46.7188V92H0.5V8Z" fill="white"/>
</mask>
<g mask="url(#mask2_5057_514)">
<path d="M13.6242 37.0511C13.5648 37.0073 13.5054 36.9625 13.446 36.9167C13.8846 37.2552 14.3231 37.5938 14.7617 37.9333C14.2689 37.5438 13.8283 37.1021 13.4408 36.6083C13.7794 37.0469 14.1179 37.4854 14.4564 37.924C14.0231 37.3583 13.671 36.7438 13.3887 36.0896C13.6064 36.6073 13.8252 37.125 14.0439 37.6427C13.7075 36.8406 13.4814 36 13.3617 35.1396L13.5939 36.8677C13.4971 36.1386 13.4814 35.4063 13.5721 34.675C13.495 35.2511 13.4179 35.8271 13.3408 36.4021C13.4377 35.6886 13.6356 35.0011 13.9158 34.3386C13.6971 34.8563 13.4794 35.3729 13.2606 35.8906C13.8523 34.525 14.7346 33.3104 15.6398 32.1365C15.3012 32.575 14.9627 33.0136 14.6242 33.4521C15.8533 31.8667 17.1137 30.2948 18.5075 28.8511C19.721 27.5938 21.0252 26.4292 22.4054 25.3583C21.9669 25.6979 21.5294 26.0365 21.0908 26.375C22.3596 25.3958 23.6908 24.5042 25.0575 23.6667C26.6117 22.7146 28.1919 21.7979 29.8731 21.0854C29.3554 21.3042 28.8377 21.5219 28.32 21.7406C29.3064 21.3271 30.3314 20.975 31.395 20.8313C30.8189 20.9083 30.2429 20.9854 29.6669 21.0625C30.1992 20.9938 30.7335 20.9875 31.2658 21.0583C30.6898 20.9802 30.1137 20.9031 29.5377 20.8261C30.3314 20.9333 31.1054 21.1583 31.8439 21.4656C31.3262 21.2469 30.8085 21.0281 30.2908 20.8104C31.0117 21.1188 31.6867 21.5104 32.3075 21.9886C31.8689 21.649 31.4304 21.3104 30.9919 20.9719C31.5492 21.4136 32.046 21.9146 32.4814 22.4761C32.1429 22.0375 31.8044 21.599 31.4658 21.1604C31.9554 21.8063 32.3523 22.5094 32.671 23.2531C32.4533 22.7354 32.2346 22.2177 32.0158 21.7C32.4919 22.8365 32.7773 24.0354 32.9419 25.2542C32.8637 24.6781 32.7867 24.1021 32.7096 23.5271C32.8221 24.3886 32.8689 25.2552 32.9002 26.1229C32.9585 27.7511 33.0148 29.3792 33.071 31.0063C33.1658 33.749 33.2575 36.4906 33.345 39.2333C33.4627 42.9177 33.5752 46.6021 33.6523 50.2885C33.695 52.3208 33.7304 54.3542 33.7148 56.3875C33.7064 57.5667 33.6742 58.7458 33.6189 59.924C33.4189 64.1469 33.2564 68.3875 32.8085 72.5938C32.7564 73.0844 32.6981 73.574 32.6335 74.0625C32.7106 73.4865 32.7887 72.9104 32.8658 72.3354C32.6137 74.2115 32.27 76.1104 31.5325 77.8656C31.7512 77.3479 31.9689 76.8302 32.1877 76.3125C31.8637 77.0729 31.4617 77.7969 30.9564 78.4521C31.295 78.0135 31.6335 77.575 31.9731 77.1365C31.5231 77.7136 31.0023 78.2261 30.4252 78.675C30.8627 78.3365 31.3012 77.9979 31.7398 77.6594C31.0439 78.1938 30.2825 78.6313 29.4762 78.9792C29.9939 78.7615 30.5117 78.5427 31.0294 78.324C30.0158 78.75 28.9554 79.025 27.8669 79.176C28.4429 79.099 29.0189 79.0208 29.595 78.9438C29.4783 78.9594 29.3606 78.974 29.2439 78.9875C29.82 79.0646 30.396 79.1417 30.971 79.2198C30.2106 79.075 29.4689 78.8594 28.7523 78.5646C29.27 78.7833 29.7877 79.0021 30.3054 79.2198C29.5314 78.8917 28.8044 78.475 28.1377 77.9625C28.5762 78.301 29.0148 78.6396 29.4533 78.9781C28.8117 78.475 28.2429 77.8948 27.7439 77.25C28.0825 77.6886 28.4221 78.1261 28.7606 78.5646C28.1533 77.7656 27.6669 76.8885 27.2731 75.9667C27.4919 76.4844 27.7106 77.0011 27.9283 77.5188C27.2544 75.9094 26.8679 74.199 26.6325 72.474C26.7106 73.05 26.7877 73.626 26.8648 74.201C26.3346 70.2135 26.5575 66.1542 26.8783 62.1583C27.2596 57.4208 27.7585 52.6917 28.3221 47.9729C28.5742 45.8635 28.8419 43.7542 29.1242 41.6479C29.0471 42.224 28.97 42.8 28.8919 43.375C29.0689 42.0573 29.2492 40.7396 29.4471 39.425C29.7179 38.5615 29.7564 37.6979 29.5637 36.8333C29.5242 35.9688 29.2669 35.1625 28.7919 34.4167C28.4533 33.9781 28.1148 33.5396 27.7752 33.1011C27.1867 32.4677 26.4898 32.0198 25.6846 31.7573C25.1773 31.4636 24.6304 31.3156 24.0439 31.3136C23.1804 31.1198 22.3169 31.1594 21.4523 31.4302C19.8814 31.9386 18.3585 32.9125 17.5679 34.4167C17.1637 35.1854 16.6564 35.9094 16.1273 36.5958C16.4658 36.1573 16.8044 35.7188 17.1429 35.2802C16.3939 36.2448 15.5512 37.1365 14.5867 37.8875C15.0252 37.5479 15.4637 37.2094 15.9023 36.8708C15.2835 37.3438 14.621 37.7511 13.9054 38.0594C14.4231 37.8406 14.9408 37.6219 15.4585 37.4042C14.8887 37.6417 14.2981 37.8083 13.6856 37.8906C14.2617 37.8136 14.8377 37.7365 15.4137 37.6594C14.9117 37.7177 14.4137 37.7146 13.9127 37.6542L15.6398 37.8865C14.9992 37.7979 14.3825 37.6208 13.7856 37.3729C14.3033 37.5906 14.821 37.8094 15.3387 38.0271C14.7304 37.7667 14.1564 37.4386 13.6231 37.049C12.8762 36.574 12.071 36.3167 11.2064 36.2771C10.3429 36.0833 9.47936 36.1229 8.61478 36.3938C7.76894 36.5948 7.03248 36.9823 6.40436 37.5573C5.69707 38.0156 5.13873 38.6229 4.7304 39.3802C3.93353 40.8886 3.53457 42.7156 4.07519 44.3885C4.29394 44.9063 4.51269 45.4229 4.7304 45.9406C5.30853 46.9177 6.08561 47.6948 7.06165 48.2729C7.38978 48.5125 7.73144 48.7302 8.08873 48.9208C8.80748 49.3063 9.57832 49.5979 10.3304 49.9063C10.6939 50.0563 11.0637 50.1865 11.446 50.2813C12.3585 50.5063 13.3127 50.6167 14.245 50.6865C15.2106 50.7583 16.1971 50.5594 17.1408 50.425C18.3356 50.2542 19.4033 49.7542 20.5054 49.2656C21.0992 49.0021 21.6606 48.6792 22.1877 48.299C23.1085 47.6344 24.0356 46.9365 24.8533 46.1396C26.0117 45.0135 27.0096 43.6938 27.9252 42.3698C28.2356 41.9219 28.5377 41.4594 28.7908 40.9761C24.8314 39.3073 20.8721 37.6375 16.9127 35.9688C16.5877 38.1261 16.3044 40.2896 16.0179 42.4521C15.4981 46.3844 15.0304 50.324 14.6189 54.2698C14.1898 58.3781 13.7585 62.5042 13.6033 66.6333C13.5346 68.475 13.5304 70.3208 13.6596 72.1594C13.7606 73.599 13.9544 75.0354 14.1752 76.4615C14.3033 77.2906 14.471 78.1146 14.6929 78.924C15.0481 80.225 15.5794 81.4542 16.1189 82.6875C16.4231 83.3833 16.7846 84.0542 17.2148 84.6813C17.92 85.7094 18.7002 86.7615 19.6189 87.6208C20.2804 88.2385 21.0221 88.7771 21.746 89.3136C22.2033 89.6521 22.6939 89.9479 23.2044 90.199C24.5044 90.8344 25.8794 91.4177 27.3044 91.7104C27.6617 91.7844 28.0064 91.8177 28.3794 91.8688C28.9189 91.9406 29.0929 92.0052 29.5044 91.9521C30.2648 91.8563 31.0283 91.7667 31.7846 91.6375C32.2231 91.5625 32.6585 91.4656 33.0867 91.3458C33.8367 91.1354 34.5419 90.8313 35.2596 90.5281C36.0189 90.2083 36.7648 89.8948 37.4648 89.4583C38.221 88.9885 38.9179 88.4104 39.6148 87.8635C39.7929 87.7229 39.9679 87.5802 40.1377 87.4281C40.4679 87.1302 40.7762 86.8073 41.0554 86.4615C41.6637 85.7083 42.3012 84.9375 42.7971 84.0969C43.1742 83.4583 43.4492 82.7781 43.7377 82.0948C44.046 81.3635 44.3492 80.6438 44.5752 79.8833C44.9221 78.7208 45.1481 77.525 45.3231 76.326C45.6242 74.2719 45.8658 72.2156 46.0273 70.1469C46.2867 66.8313 46.4408 63.5073 46.6033 60.1854C46.6408 59.3958 46.6731 58.6052 46.6908 57.8146C46.7158 56.7281 46.7189 55.6406 46.7127 54.5552C46.7023 52.8635 46.671 51.1719 46.6325 49.4813C46.5742 46.849 46.4971 44.2167 46.4169 41.5844C46.2981 37.7167 46.1669 33.849 46.0335 29.9813C45.97 28.15 45.9617 26.3073 45.8096 24.4802C45.7002 23.1792 45.5377 21.8708 45.271 20.5917C45.0429 19.499 44.6554 18.4938 44.2221 17.4667C43.9439 16.8073 43.6773 16.1511 43.3169 15.5323C42.8304 14.7021 42.2054 13.9479 41.6096 13.2C41.3075 12.8208 40.9794 12.4656 40.6179 12.1427C40.0356 11.6198 39.396 11.1552 38.77 10.6865C38.5481 10.5208 38.321 10.3636 38.0856 10.2177C37.6908 9.97501 37.2762 9.76772 36.8512 9.58334C36.0002 9.21564 35.146 8.81668 34.2512 8.5573C33.2742 8.27397 32.2398 8.17293 31.2377 8.05314C30.9367 8.01668 30.6356 7.99793 30.3325 8.00626C30.1419 8.01147 29.9523 8.02709 29.7627 8.04897C28.9731 8.13647 28.1721 8.22709 27.3898 8.38543C26.7877 8.5073 26.1981 8.6896 25.6221 8.90209C24.3408 9.37501 23.0752 9.9198 21.8533 10.5333C18.2992 12.3177 14.945 14.6427 11.92 17.2125C10.2127 18.6615 8.64707 20.2708 7.23144 22.0052C6.17311 23.3011 5.13665 24.6146 4.12728 25.949C3.56269 26.6948 3.01894 27.4604 2.55853 28.2761C2.08978 29.1073 1.74707 29.999 1.38144 30.8792C1.23144 31.2396 1.09811 31.6042 0.997067 31.9813C0.751234 32.8969 0.656442 33.8719 0.557484 34.8063C0.515817 35.2 0.501234 35.5948 0.516859 35.9906C0.554359 36.9271 0.712692 37.8698 0.856442 38.7896C0.954359 39.4136 1.10957 40.0292 1.32519 40.625C1.63248 41.474 1.98248 42.3167 2.38561 43.126C2.56478 43.4875 2.76998 43.8365 3.00123 44.1667C3.53457 44.9302 4.09915 45.6938 4.74186 46.3708C5.42936 47.0948 6.2679 47.6802 7.06373 48.2719C7.80957 48.7469 8.61478 49.0042 9.47936 49.0438C10.3429 49.2375 11.2075 49.1979 12.071 48.9271C12.9179 48.7261 13.6544 48.3386 14.2814 47.7635C14.9887 47.3052 15.5471 46.6979 15.9554 45.9406C16.7523 44.4323 17.1523 42.6052 16.6106 40.9323C16.3919 40.4146 16.1742 39.8969 15.9554 39.3792C15.3783 38.4031 14.6012 37.6261 13.6242 37.0479V37.0511Z" fill="white"/>
</g>
<path d="M10.3436 42.6677C7.27274 40.4198 7.04253 36.7021 7.01545 35.9771C6.89462 32.701 8.70816 30.4625 11.7394 26.7198C15.8259 21.674 19.9613 19.1438 22.7269 17.4885C27.9644 14.351 30.1779 14.4125 31.3196 14.5729C31.8696 14.65 34.13 15.0229 36.0717 16.7906C39.1738 19.6146 39.3269 24.074 39.3998 26.1302C40.3821 53.8271 40.2936 56.5042 40.079 60.7271C39.3592 74.8313 39.1259 80.3469 34.7321 83.4917C32.8186 84.8615 30.754 85.324 29.2446 85.4927C28.1175 85.2823 26.554 84.8281 25.0623 83.7344C18.9571 79.2594 19.8165 68.2875 20.6186 59.4052C21.6779 47.6906 23.18 37.7052 23.18 37.7052C23.18 37.7052 20.1092 43.5667 15.4134 44.1656C12.8373 44.4938 10.7342 42.9542 10.3436 42.6688V42.6677Z" fill="#A06CD5"/>
<path d="M10.9273 41.6708C10.7607 41.5469 10.969 41.7125 10.8128 41.5802C10.7305 41.5104 10.6482 41.4406 10.568 41.3688C10.3867 41.2052 10.2148 41.0333 10.0503 40.8542C9.98255 40.7792 9.91485 40.7021 9.85026 40.625C9.80235 40.5667 9.66485 40.3896 9.7836 40.5479C9.64922 40.3688 9.52005 40.1833 9.40026 39.9938C9.18985 39.6583 9.01172 39.3094 8.84505 38.951C8.74922 38.7479 8.90755 39.1167 8.8263 38.9104C8.7961 38.8333 8.76485 38.7552 8.73568 38.676C8.67005 38.5 8.61068 38.3219 8.55547 38.1417C8.4638 37.8417 8.38568 37.5354 8.32318 37.2271C8.29714 37.1021 8.27422 36.9771 8.25339 36.851C8.24193 36.7833 8.2336 36.7167 8.22214 36.649C8.2138 36.6042 8.25755 36.95 8.23047 36.7156C8.18255 36.2813 8.15547 35.8469 8.17005 35.4094C8.1763 35.225 8.19401 35.0427 8.20755 34.8594C8.21276 34.801 8.24089 34.6344 8.20026 34.8979C8.20651 34.8542 8.21276 34.8094 8.22005 34.7656C8.2388 34.6625 8.25651 34.5604 8.2763 34.4583C8.35443 34.0792 8.46276 33.7073 8.5961 33.3448C8.62735 33.2594 8.65964 33.176 8.69297 33.0917C8.77526 32.8833 8.62422 33.2354 8.72005 33.0313C8.81276 32.8333 8.90651 32.6375 9.00755 32.4438C9.20755 32.0656 9.42839 31.6979 9.66172 31.3385C9.91693 30.9469 10.1857 30.5656 10.4628 30.1896C10.6003 30.0031 10.7398 29.8188 10.8805 29.6354C10.8773 29.6385 10.9961 29.4844 10.9357 29.5625C10.8763 29.6406 10.9971 29.4844 10.994 29.4885C11.0961 29.3583 11.1982 29.2281 11.3003 29.099C12.0284 28.1802 12.7607 27.2594 13.5346 26.3781C14.9117 24.8073 16.4221 23.3542 18.0492 22.0427C18.2138 21.9104 18.3794 21.7792 18.5461 21.65C18.3971 21.7667 18.5878 21.6188 18.6398 21.5792C18.7471 21.4979 18.8555 21.4156 18.9628 21.3354C19.3003 21.0844 19.6419 20.8396 19.9867 20.6C20.6107 20.1667 21.2451 19.7531 21.8888 19.351C23.3742 18.424 24.8857 17.5229 26.4773 16.7865C26.6534 16.7052 26.8294 16.6271 27.0076 16.55C27.2159 16.4573 26.8607 16.6073 27.0669 16.524C27.1742 16.4813 27.2815 16.4375 27.3888 16.3948C27.7034 16.2729 28.0221 16.1594 28.344 16.0583C28.8388 15.9031 29.3398 15.7865 29.8513 15.701C30.0971 15.6604 29.5878 15.7271 29.7648 15.7125C29.8117 15.7083 29.8576 15.7021 29.9044 15.6979C30.0003 15.6885 30.0951 15.6813 30.1898 15.676C30.3576 15.6677 30.5253 15.6656 30.6919 15.6708C30.8326 15.675 30.9721 15.6875 31.1117 15.701C31.1451 15.7042 31.1784 15.7104 31.2117 15.7125C31.3628 15.725 30.868 15.6594 31.0128 15.6854C31.0898 15.7 31.168 15.7083 31.2451 15.7219C31.8586 15.8271 32.4617 16 33.0419 16.2271C33.0867 16.2448 33.1305 16.2625 33.1753 16.2802C32.9659 16.1979 33.1305 16.2615 33.1721 16.2813C33.2659 16.325 33.3596 16.3677 33.4523 16.4125C33.6648 16.5167 33.8732 16.6281 34.0773 16.7479C34.2951 16.8771 34.5076 17.0146 34.7128 17.1615C34.9148 17.3052 34.9742 17.3542 35.2076 17.5635C35.5555 17.875 35.8732 18.2167 36.1659 18.5802C36.2482 18.6833 36.1555 18.5677 36.144 18.5521C36.1846 18.6073 36.2253 18.6625 36.2659 18.7188C36.3253 18.8021 36.3836 18.8875 36.4398 18.9729C36.5617 19.1563 36.6753 19.3438 36.7836 19.5354C36.8919 19.7271 36.9898 19.9167 37.0846 20.1125C37.1273 20.2021 37.168 20.2917 37.2086 20.3813C37.2159 20.3979 37.2815 20.549 37.2284 20.424C37.1742 20.2979 37.2544 20.4896 37.2628 20.5125C37.4169 20.899 37.5482 21.2927 37.6617 21.6927C37.7701 22.076 37.8607 22.4646 37.9357 22.8552C37.9721 23.0417 38.0044 23.2302 38.0346 23.4188C38.0471 23.5031 38.0596 23.5885 38.0721 23.6729C38.1023 23.8771 38.0482 23.4635 38.0794 23.7385C38.1523 24.3688 38.1992 25.001 38.2263 25.6354C38.3971 29.6802 38.5117 33.7281 38.643 37.775C38.7409 40.7635 38.8336 43.7521 38.9128 46.7417C38.9648 48.726 39.0117 50.7115 39.0398 52.6969C39.0586 53.9729 39.0701 55.25 39.0586 56.526C39.0513 57.3865 39.0326 58.2469 38.9992 59.1063C38.9315 60.8417 38.8315 62.575 38.7398 64.3094C38.6388 66.1948 38.5346 68.0792 38.3898 69.9615C38.3294 70.7563 38.2617 71.55 38.1805 72.3427C38.143 72.7063 38.1023 73.0688 38.0586 73.4313C38.0388 73.6042 38.0148 73.7771 37.994 73.951C37.9773 74.0844 38.0096 73.8365 38.0096 73.8396C38.0086 73.8771 37.9982 73.9177 37.993 73.9563C37.9805 74.0448 37.968 74.1344 37.9555 74.224C37.7857 75.3979 37.5701 76.5708 37.2398 77.7115C37.1003 78.1958 36.9357 78.6708 36.7503 79.1396C36.6815 79.3125 36.7263 79.1583 36.7815 79.0667C36.7503 79.1188 36.7305 79.1854 36.7055 79.2406C36.6576 79.3469 36.6086 79.4521 36.5576 79.5563C36.4586 79.7594 36.3534 79.9594 36.2409 80.1542C36.1284 80.35 36.0159 80.5313 35.893 80.7125C35.8315 80.8021 35.7701 80.8906 35.7055 80.9771C35.6763 81.0177 35.6451 81.0563 35.6169 81.0969C35.5961 81.125 35.8034 80.8646 35.6607 81.0386C35.3878 81.3698 35.0992 81.6844 34.7826 81.974C34.6211 82.1219 34.4523 82.2583 34.2846 82.3969C34.143 82.5146 34.5076 82.2323 34.3576 82.3406C34.3148 82.3708 34.2753 82.4031 34.2336 82.4323C34.0294 82.5813 33.819 82.724 33.6044 82.8573C33.3898 82.9906 33.169 83.1167 32.9451 83.2344C32.818 83.301 32.6888 83.3656 32.5596 83.426C32.5044 83.4521 32.4492 83.4771 32.3951 83.5031C32.3503 83.5229 32.2284 83.5771 32.3419 83.5281C31.8909 83.7198 31.4221 83.8729 30.9503 84.0011C30.5242 84.1156 30.0919 84.2083 29.6576 84.2792C29.5648 84.2938 29.4721 84.3073 29.3794 84.3219C29.6763 84.2729 29.3357 84.3396 29.3315 84.3271C29.3357 84.3406 29.6221 84.3885 29.3846 84.3448C29.3419 84.3375 29.2982 84.3271 29.2555 84.3188C29.1492 84.2958 29.0451 84.2719 28.9398 84.2469C28.5023 84.1406 28.0711 84.0094 27.6503 83.849C27.6076 83.8323 27.3503 83.7302 27.5034 83.7948C27.394 83.749 27.2867 83.699 27.1794 83.6479C26.919 83.524 26.6628 83.3896 26.4148 83.2417C26.1888 83.1094 25.969 82.9667 25.7555 82.8146C25.7076 82.7802 25.6607 82.7458 25.6128 82.7104C25.5815 82.6875 25.4357 82.5729 25.5607 82.6719C25.6753 82.7646 25.4513 82.5823 25.4128 82.55C25.1336 82.3167 24.869 82.0656 24.619 81.801C24.5034 81.6792 24.3919 81.5542 24.2836 81.4271C24.2201 81.3521 24.1586 81.276 24.0971 81.2C23.9294 80.9938 24.1596 81.2927 24.0471 81.1344C23.8326 80.8354 23.6263 80.5333 23.4388 80.2177C23.2503 79.901 23.0732 79.5667 22.9128 79.2292C22.8378 79.0708 22.768 78.9104 22.6961 78.7511C22.7784 78.9354 22.7169 78.801 22.6773 78.7C22.6326 78.5906 22.5898 78.4792 22.5482 78.3677C22.2701 77.6229 22.0492 76.8563 21.8721 76.0813C21.7805 75.6771 21.7003 75.2719 21.6294 74.8646C21.5971 74.6729 21.5659 74.4813 21.5378 74.2885C21.5232 74.1917 21.5096 74.0948 21.4961 73.9969C21.5315 74.249 21.4836 73.8958 21.4732 73.8146C21.368 72.9448 21.3013 72.0708 21.2607 71.1969C21.0951 67.5656 21.3742 63.9271 21.6951 60.3125C22.0794 55.9698 22.5388 51.6344 23.0617 47.3063C23.2659 45.6198 23.4784 43.9354 23.7034 42.2521C23.7263 42.0781 23.7461 41.9042 23.7721 41.7302C23.7451 41.9115 23.7523 41.8781 23.7721 41.7302C23.7836 41.6438 23.7961 41.5573 23.8076 41.4708C23.8471 41.174 23.8878 40.876 23.9294 40.5781C23.9951 40.1073 24.0607 39.6354 24.1273 39.1646C24.1826 38.7792 24.2378 38.3948 24.2951 38.0104C24.3826 37.4333 24.1992 36.8885 23.6263 36.6469C23.1211 36.4333 22.4534 36.6083 22.1836 37.1198C21.9951 37.4792 21.7763 37.825 21.5534 38.1646C21.3138 38.5292 21.069 38.9104 20.7857 39.2448C20.8003 39.2281 20.9596 39.025 20.8378 39.1771C20.793 39.2333 20.7482 39.2896 20.7034 39.3458C20.6253 39.4417 20.5471 39.5375 20.468 39.6313C20.2836 39.85 20.094 40.0635 19.8992 40.2708C19.5023 40.6927 19.0815 41.0927 18.6336 41.4604C18.5794 41.5052 18.5221 41.5469 18.468 41.5927C18.3346 41.7083 18.693 41.4313 18.4659 41.5938C18.3492 41.6781 18.2346 41.7625 18.1169 41.8438C17.8555 42.0219 17.5857 42.1885 17.3076 42.3396C17.1815 42.4083 17.0523 42.474 16.9221 42.5354C16.844 42.5729 16.7648 42.6083 16.6857 42.6438C16.719 42.6292 16.918 42.5542 16.7211 42.6281C16.4201 42.7417 16.118 42.8438 15.8065 42.9208C15.6638 42.9552 15.519 42.9854 15.3742 43.0094C15.3336 43.0167 15.0451 43.0427 15.2961 43.0219C15.2169 43.0281 15.1378 43.0365 15.0586 43.0417C14.8648 43.0542 14.6701 43.0573 14.4763 43.049C14.3628 43.0458 14.2503 43.0354 14.1367 43.0281C13.7826 43.0021 14.3503 43.0719 14.0065 43.0125C13.5992 42.9417 13.2003 42.8406 12.8096 42.7021C12.7346 42.676 12.6596 42.6469 12.5846 42.6188C12.3023 42.5115 12.6826 42.6719 12.4805 42.575C12.3284 42.5031 12.1763 42.4323 12.0263 42.3542C11.644 42.1531 11.2784 41.9229 10.9305 41.6677C10.4409 41.3104 9.6211 41.5698 9.34922 42.0823C9.03255 42.6833 9.24193 43.2813 9.7638 43.6635C10.6878 44.3385 11.7607 44.8583 12.8711 45.1333C14.5544 45.549 16.2367 45.3448 17.8128 44.6563C20.1076 43.6531 21.9138 41.7063 23.3159 39.6792C23.6253 39.2302 23.9273 38.7688 24.1815 38.2854C23.4773 37.9885 22.7742 37.6917 22.069 37.3958C21.8159 39.0802 21.5898 40.7698 21.3659 42.4583C20.8461 46.3906 20.3784 50.3302 19.9669 54.276C19.5378 58.3844 19.1065 62.5104 18.9513 66.6406C18.8159 70.2583 18.8898 73.9948 19.8503 77.5094C20.768 80.8677 22.6909 84.0167 25.9065 85.5896C26.8034 86.0292 27.7513 86.3625 28.7305 86.5636C29.6617 86.7542 30.7628 86.4542 31.6711 86.199C33.3992 85.7135 35.0263 84.8594 36.3628 83.6563C37.8919 82.2802 38.8451 80.4188 39.4273 78.4698C40.2294 75.7865 40.4711 72.9323 40.6888 70.1531C40.9482 66.8375 41.1023 63.5135 41.2638 60.1917C41.3023 59.4021 41.3336 58.6115 41.3523 57.8208C41.3773 56.7344 41.3794 55.6469 41.3732 54.5615C41.3628 52.8698 41.3315 51.1781 41.294 49.4875C41.2346 46.8552 41.1586 44.2229 41.0773 41.5906C40.9596 37.7229 40.8284 33.8552 40.694 29.9875C40.5732 26.4958 40.7284 22.8146 39.344 19.5313C38.5273 17.5979 37.1898 15.9448 35.393 14.8385C34.1305 14.0615 32.7086 13.5865 31.2419 13.4031C28.9305 13.1135 26.5659 14.1448 24.5555 15.1542C21.4117 16.7313 18.3826 18.7219 15.7034 20.9979C13.9961 22.4469 12.4305 24.0563 11.0148 25.7906C9.66276 27.4469 8.23151 29.1104 7.17735 30.9802C6.31172 32.5167 5.79401 34.2229 5.86485 35.9969C5.90755 37.0833 6.11172 38.1865 6.48151 39.2104C7.1336 41.0135 8.22318 42.5177 9.7638 43.6635C10.2503 44.025 11.0753 43.7594 11.3451 43.249C11.6638 42.6438 11.4503 42.0542 10.9305 41.6677L10.9273 41.6708Z" fill="black"/>
<path d="M51.6152 21.4958C58.8027 14.6448 68.2454 14.3813 70.3579 14.3708C70.4641 14.3698 70.5558 14.3698 70.685 14.3708C73.1277 14.3875 83.8308 14.8396 87.9933 23.2271C90.91 29.1021 89.2579 35.9906 86.0172 40.4146C83.5662 43.7604 80.4454 45.3969 78.7766 46.1229C80.1558 46.2344 85.786 46.8469 90.0516 51.5635C95.0704 57.1115 94.2891 64.0167 94.0256 65.751C93.1704 71.3594 89.81 74.8427 87.611 77.1229C83.4631 81.425 78.8683 83.2979 76.5454 84.0708C69.8381 86.3042 59.9464 86.7365 53.9693 81.4125C51.8162 79.4958 51.1641 77.7156 50.9787 77.1542C49.7631 73.4604 50.9016 68.2615 54.0985 66.1396C58.836 62.9948 64.5891 68.9354 71.1079 65.3063C71.811 64.9146 74.2527 63.5552 74.4547 61.4146C74.6797 59.0198 72.0235 56.5167 69.411 55.5323C64.3027 53.6073 60.9214 58.0781 57.4454 56.2708C54.0922 54.5281 52.4214 47.8667 54.7964 44.1771C58.2079 38.876 68.4954 42 70.2422 37.3417C70.8735 35.6573 70.2547 33.3073 68.8777 32.3625C65.6225 30.1281 60.3433 37.2594 54.2381 35.5594C50.8277 34.6094 47.8777 31.1031 47.8995 27.7719C47.9172 25.2271 49.6068 23.4104 51.6152 21.4958Z" fill="white"/>
<mask id="mask3_5057_514" style="mask-type:luminance" maskUnits="userSpaceOnUse" x="41" y="7" width="60" height="86">
<path d="M41.4316 7.98334H100.5V92.0167H41.4316V7.98334Z" fill="white"/>
</mask>
<g mask="url(#mask3_5057_514)">
<path d="M56.1374 26.0042C56.726 25.4458 57.3416 24.9167 57.9833 24.4188C57.551 24.751 57.1197 25.0833 56.6885 25.4156C58.403 24.0979 60.2843 23.0188 62.2749 22.174C61.7655 22.3885 61.2562 22.6031 60.7468 22.8167C63.1666 21.801 65.7208 21.1323 68.3208 20.7823C67.7541 20.8583 67.1874 20.9344 66.6208 21.0104C68.4853 20.7635 70.3697 20.6792 72.2478 20.8052C72.8708 20.8479 73.4937 20.9115 74.1135 20.9938C73.5468 20.9177 72.9791 20.8417 72.4135 20.7656C74.5145 21.051 76.5874 21.5677 78.5447 22.3906C78.0353 22.1771 77.526 21.9625 77.0166 21.7479C78.3614 22.3198 79.6385 23.0375 80.7989 23.926C80.3666 23.5938 79.9353 23.2615 79.5041 22.9292C80.4582 23.6698 81.3176 24.5177 82.0583 25.4708C81.7249 25.0406 81.3916 24.6104 81.0583 24.1802C81.7718 25.1125 82.3572 26.126 82.8197 27.2021C82.6051 26.6948 82.3905 26.1875 82.176 25.6792C82.6853 26.8917 83.026 28.1615 83.2041 29.4635C83.128 28.899 83.052 28.3333 82.976 27.7688C83.1635 29.224 83.1468 30.6917 82.951 32.1448C83.027 31.5792 83.103 31.0146 83.1791 30.45C82.9541 32.0479 82.5187 33.6052 81.8957 35.0938C82.1103 34.5865 82.3249 34.0781 82.5395 33.5708C81.9291 35.0052 81.1499 36.3594 80.1958 37.5938C80.5291 37.1635 80.8624 36.7333 81.1958 36.3031C80.3155 37.424 79.302 38.4271 78.177 39.3031C78.6082 38.9708 79.0395 38.6385 79.4707 38.3062C78.2635 39.2344 76.9458 40.0083 75.5489 40.6188C75.1176 40.951 74.6864 41.2833 74.2551 41.6156C73.6312 42.1927 73.1905 42.8771 72.9322 43.6667C72.6437 44.1635 72.4978 44.7 72.4958 45.276C72.3051 46.1229 72.3437 46.9708 72.6103 47.8187C72.826 48.326 73.0405 48.8344 73.2551 49.3417C73.5885 49.7719 73.9218 50.2021 74.2551 50.6323C74.8343 51.2542 75.5207 51.6927 76.3135 51.95C77.0749 52.35 77.8968 52.5333 78.777 52.5C79.0624 52.5229 79.3478 52.5542 79.6322 52.5917C79.0655 52.5156 78.4989 52.4396 77.9322 52.3635C79.5135 52.5771 81.0635 53.001 82.5343 53.6156C82.0249 53.4021 81.5155 53.1875 81.0062 52.9729C82.3312 53.5344 83.578 54.2521 84.7197 55.124C84.2885 54.7917 83.8572 54.4594 83.4249 54.1271C84.4989 54.9604 85.4614 55.9188 86.2989 56.9885C85.9655 56.5583 85.6322 56.1281 85.2989 55.6979C86.127 56.7729 86.8124 57.9437 87.3468 59.1906C87.1322 58.6833 86.9176 58.176 86.702 57.6677C87.2916 59.0677 87.6822 60.5375 87.8916 62.0396C87.8145 61.475 87.7385 60.9094 87.6624 60.3458C87.8916 62.0396 87.8999 63.7656 87.6728 65.4615C87.7489 64.8958 87.8249 64.3312 87.901 63.7667C87.701 65.2396 87.3083 66.6781 86.7353 68.05C86.951 67.5427 87.1655 67.0354 87.3801 66.5271C86.7218 68.0781 85.8437 69.5146 84.8135 70.8469C85.1468 70.4167 85.4801 69.9865 85.8135 69.5562C84.1697 71.6656 82.2395 73.6344 80.1228 75.2677C80.5541 74.9354 80.9853 74.6031 81.4176 74.2708C79.5374 75.7083 77.4812 76.901 75.2999 77.8219C75.8093 77.6083 76.3187 77.3937 76.828 77.1792C74.3864 78.2031 71.8062 78.8667 69.1833 79.2208C69.7499 79.1448 70.3166 79.0698 70.8833 78.9938C68.3958 79.3208 65.8697 79.3687 63.3812 79.0417C63.9478 79.1177 64.5145 79.1937 65.0801 79.2698C63.3051 79.0281 61.5583 78.5938 59.903 77.9031C60.4124 78.1177 60.9218 78.3312 61.4312 78.5458C60.1937 78.0208 59.0239 77.3583 57.9572 76.5406C58.3885 76.8729 58.8208 77.2052 59.252 77.5375C58.3791 76.8594 57.5833 76.0885 56.9041 75.2135C57.2374 75.6437 57.5708 76.074 57.9041 76.5042C57.4301 75.8812 57.0187 75.2135 56.7093 74.4927C56.9239 75.001 57.1395 75.5083 57.3541 76.0167C57.0541 75.3042 56.8728 74.551 56.7655 73.7875C56.8416 74.3521 56.9176 74.9167 56.9947 75.4812C56.8635 74.4792 56.8718 73.4677 57.002 72.4656C56.926 73.0312 56.8499 73.5958 56.7739 74.1604C56.9083 73.1854 57.1572 72.2333 57.5343 71.324C57.3197 71.8312 57.1051 72.3396 56.8895 72.8469C57.1895 72.1427 57.5635 71.476 58.028 70.8656C57.6947 71.2958 57.3614 71.726 57.028 72.1562C57.3916 71.6906 57.801 71.2698 58.2666 70.9042C57.8353 71.2365 57.4041 71.5687 56.9718 71.901C57.3645 71.6031 57.7843 71.3521 58.2364 71.1552C57.727 71.3698 57.2176 71.5833 56.7093 71.7979C57.1874 71.5979 57.6843 71.4667 58.1978 71.3948C57.6312 71.4708 57.0645 71.5469 56.4989 71.6219C57.2937 71.5208 58.0916 71.5625 58.8843 71.6687C58.3176 71.5927 57.751 71.5167 57.1843 71.4406C58.3655 71.6062 59.5239 71.901 60.6885 72.1542C62.4083 72.5292 64.1739 72.8333 65.9343 72.8948C67.1291 72.9375 68.303 72.7542 69.4833 72.5781C70.1489 72.4792 70.7999 72.324 71.4312 72.0906C72.8635 71.5625 74.3333 70.9458 75.5739 70.0312C76.3864 69.4323 77.3197 68.7917 78.001 68.0083C78.5155 67.4177 79.026 66.7906 79.4447 66.126C79.877 65.4406 80.1655 64.6458 80.4405 63.8969C80.7197 63.1375 80.7957 62.1323 80.8499 61.4146C80.9114 60.5927 80.727 59.6562 80.5905 58.9C80.5395 58.6198 80.4624 58.3521 80.3614 58.0854C80.0697 57.3208 79.7395 56.4469 79.2874 55.726C78.6582 54.7229 77.8937 53.7427 77.0166 52.9354C76.1041 52.0948 75.0916 51.3094 74.0145 50.6854C71.8812 49.449 69.576 48.7938 67.1176 48.675C65.9197 48.6167 64.677 48.8271 63.5135 49.0417C62.8749 49.1594 62.2499 49.3385 61.6333 49.5385C60.5208 49.9 59.4208 50.3531 58.2541 50.5167C58.8208 50.4406 59.3874 50.3646 59.9541 50.2885C59.5458 50.3417 59.1385 50.3521 58.7291 50.3031C59.2958 50.3792 59.8635 50.4552 60.4291 50.5312C60.0833 50.4823 59.752 50.3927 59.4301 50.2594C59.9395 50.4729 60.4478 50.6875 60.9572 50.9021C60.6176 50.7542 60.3041 50.5667 60.0093 50.3438C60.4405 50.676 60.8718 51.0083 61.303 51.3406C60.901 51.0281 60.5489 50.6656 60.2333 50.2667C60.5666 50.6969 60.8999 51.1271 61.2333 51.5573C60.7572 50.9406 60.378 50.2604 60.0739 49.5448C60.2885 50.0531 60.5041 50.5604 60.7187 51.0687C60.3426 50.1625 60.0895 49.2146 59.952 48.2438C60.028 48.8094 60.1041 49.374 60.1801 49.9385C60.053 48.9948 60.0395 48.0427 60.1655 47.0979L59.9364 48.7927C60.0343 48.1156 60.202 47.4542 60.4645 46.8208C60.2489 47.3292 60.0343 47.8365 59.8197 48.3438C60.0301 47.8531 60.2937 47.3927 60.6208 46.9688C60.2874 47.399 59.9541 47.8292 59.6208 48.2594C59.9228 47.8781 60.2666 47.5385 60.6499 47.2385C60.2187 47.5708 59.7864 47.9031 59.3551 48.2354C59.878 47.8354 60.451 47.5177 61.0551 47.2583C60.5458 47.4719 60.0364 47.6865 59.527 47.901C61.3937 47.1167 63.4333 46.8719 65.4208 46.5833C66.3718 46.4458 67.3249 46.3052 68.2593 46.075C68.6676 45.975 69.0728 45.8573 69.4655 45.7062C70.3072 45.3854 71.2239 45.0583 72.0041 44.5729C73.4593 43.6698 74.927 42.3521 75.6718 40.7792C75.9937 40.099 76.3447 39.3802 76.5301 38.6417C76.7405 37.8021 76.8499 36.924 76.8812 36.0594C76.8905 35.7677 76.8687 35.4802 76.8332 35.1917C76.7353 34.3885 76.6697 33.4552 76.4103 32.65C75.8593 30.9448 75.1655 29.7552 74.002 28.4125C73.3645 27.676 72.5468 27.0208 71.6572 26.6135C70.1791 25.9375 69.1947 25.6073 67.5218 25.5521C66.5937 25.5208 65.6437 25.6865 64.7437 25.9083C63.7739 26.1469 62.8135 26.6198 61.9187 27.0042C61.4062 27.225 60.9083 27.475 60.4135 27.7302C59.3145 28.2948 58.2291 28.8833 57.0905 29.3656C57.5989 29.151 58.1083 28.9375 58.6176 28.7229C57.6301 29.1354 56.6093 29.4635 55.5458 29.6073C56.1124 29.5323 56.6791 29.4563 57.2447 29.3802C56.5739 29.4646 55.8999 29.4719 55.228 29.3875C55.7947 29.4635 56.3614 29.5396 56.928 29.6156C56.2572 29.5219 55.6114 29.3396 54.9864 29.0781C55.4958 29.2927 56.0051 29.5063 56.5145 29.7208C55.8187 29.4198 55.1728 29.0313 54.5708 28.5719L55.8655 29.5688C55.2083 29.0552 54.6208 28.4667 54.1093 27.8094C54.4426 28.2396 54.776 28.6698 55.1093 29.1C54.6572 28.5052 54.2749 27.8667 53.9791 27.1813C54.1937 27.6885 54.4083 28.1969 54.6239 28.7042C54.3853 28.1323 54.2124 27.5417 54.1218 26.9292C54.1978 27.4938 54.2739 28.0583 54.351 28.6229C54.2801 28.0917 54.278 27.5625 54.3468 27.0302C54.2708 27.5958 54.1947 28.1604 54.1187 28.725C54.1947 28.2177 54.3353 27.7313 54.5343 27.2583C54.3197 27.7656 54.1041 28.274 53.8895 28.7812C54.1697 28.1469 54.5416 27.5656 54.9655 27.0177C54.6322 27.4479 54.2989 27.8781 53.9655 28.3083C54.6197 27.4771 55.3728 26.7333 56.1364 26.0042C56.7603 25.4271 57.201 24.7427 57.4593 23.9531C57.8593 23.1927 58.0426 22.374 58.0103 21.4958C58.0426 20.6188 57.8593 19.8 57.4593 19.0396C57.201 18.249 56.7603 17.5656 56.1364 16.9885C54.9176 15.8729 53.3176 15.0448 51.6145 15.1208C51.0478 15.1969 50.4812 15.2729 49.9155 15.349C48.8322 15.6521 47.8916 16.1979 47.0937 16.9885C45.8416 18.1833 44.7593 19.4354 43.7301 20.8365C43.4041 21.2812 43.1176 21.7521 42.8885 22.2531C42.4603 23.1885 41.9749 24.1969 41.803 25.2323C41.6332 26.2531 41.4301 27.3396 41.5343 28.3865C41.6364 29.4104 41.7395 30.5 42.0655 31.4927C42.3041 32.2188 42.6322 32.9188 42.9353 33.6167C43.0489 33.8771 43.1718 34.1333 43.3093 34.3823C43.8114 35.2906 44.4885 36.0979 45.1301 36.9062C46.127 38.1625 47.453 39.2 48.7937 40.0583C49.6905 40.6323 50.6978 41.0167 51.6812 41.4125C52.1635 41.6063 52.6583 41.7594 53.1697 41.8531C54.1478 42.0333 55.1583 42.1958 56.1583 42.2C57.1624 42.2042 58.176 42.025 59.1593 41.8719C60.0749 41.7292 60.9614 41.4479 61.8176 41.1C63.2478 40.5198 64.6353 39.9 66.002 39.1896C66.827 38.7604 67.6478 38.3198 68.5051 37.9583C67.9958 38.1729 67.4864 38.3865 66.978 38.601C67.5166 38.3781 68.0708 38.1875 68.651 38.1052C68.0843 38.1812 67.5176 38.2573 66.951 38.3333C67.2333 38.2979 67.5145 38.2906 67.7978 38.325L66.0989 38.0969C66.3166 38.1281 66.526 38.1833 66.7312 38.2667C66.2218 38.0521 65.7124 37.8375 65.203 37.624C65.4145 37.7146 65.6051 37.8302 65.7874 37.9688C65.3562 37.6365 64.9249 37.3042 64.4937 36.9719C64.6989 37.1385 64.8801 37.326 65.0437 37.5323C64.7103 37.1021 64.377 36.6729 64.0437 36.2427C64.2676 36.5406 64.4468 36.8604 64.5916 37.2042C64.377 36.6958 64.1614 36.1885 63.9468 35.6802C64.103 36.0698 64.2103 36.4708 64.2739 36.8865C64.1978 36.3208 64.1208 35.7563 64.0447 35.1917C64.1041 35.6385 64.1093 36.0844 64.051 36.5323C64.127 35.9677 64.203 35.4021 64.2791 34.8375C64.2301 35.1542 64.152 35.4615 64.0312 35.7583C64.2468 35.251 64.4614 34.7437 64.676 34.2354C64.5635 34.5 64.4218 34.7458 64.2478 34.975C64.5812 34.5448 64.9145 34.1146 65.2478 33.6844C65.0614 33.9208 64.8478 34.1292 64.6114 34.3135C65.0426 33.9813 65.4739 33.649 65.9051 33.3167C65.5572 33.5813 65.1739 33.7885 64.7728 33.9594C65.2822 33.7458 65.7905 33.5312 66.2999 33.3167C64.203 34.1906 61.828 34.2667 59.6124 34.6562C58.4489 34.8604 57.2916 35.1271 56.1978 35.576C55.2062 35.9823 54.1499 36.3646 53.252 36.9719C52.3833 37.5583 51.4645 38.2115 50.7666 39.0156C50.0562 39.8313 49.2989 40.749 48.8447 41.7562C48.3603 42.8271 47.8666 43.8969 47.6603 45.0594C47.453 46.2208 47.2583 47.5062 47.2916 48.7302C47.326 49.9688 47.5051 51.2208 47.7583 52.4312C47.8989 53.0969 48.0989 53.7469 48.3541 54.3781C48.7864 55.4469 49.2135 56.5698 49.8614 57.5375C50.4728 58.45 51.1437 59.3885 51.976 60.1229C52.5655 60.6427 53.1905 61.1333 53.8499 61.5625C54.5291 62.0042 55.3864 62.3073 56.102 62.5833C56.4041 62.701 56.7093 62.7781 57.0301 62.825C57.8364 62.9458 58.7458 63.1333 59.5926 63.076C60.7822 62.9958 61.9874 62.8177 63.1312 62.4667C64.5333 62.0365 65.8905 61.4719 67.353 61.2656C66.7853 61.3417 66.2187 61.4177 65.653 61.4937C66.3322 61.4042 67.0135 61.3937 67.6947 61.476C67.128 61.4 66.5603 61.324 65.9947 61.2479C66.6905 61.3427 67.3614 61.5312 68.0093 61.799C67.4999 61.5854 66.9905 61.3708 66.4812 61.1562C67.2655 61.4917 67.9968 61.926 68.6728 62.4458C68.2416 62.1135 67.8103 61.7812 67.3791 61.449C67.9249 61.8781 68.4239 62.3573 68.8562 62.901C68.5228 62.4708 68.1895 62.0406 67.8562 61.6104C68.1676 62.0146 68.4333 62.4417 68.6364 62.9083C68.4218 62.401 68.2072 61.8927 67.9916 61.3854C68.1239 61.7073 68.2197 62.0365 68.2718 62.3802C68.1958 61.8146 68.1197 61.25 68.0437 60.6854C68.077 60.9594 68.0801 61.2313 68.051 61.5062C68.127 60.9406 68.203 60.376 68.2791 59.8115C68.2374 60.1094 68.1583 60.3927 68.0437 60.6708C68.2583 60.1635 68.4728 59.6552 68.6885 59.1479C68.5458 59.4708 68.3635 59.7667 68.151 60.0479C68.4843 59.6177 68.8176 59.1875 69.1499 58.7573C68.802 59.199 68.3926 59.5812 67.9489 59.924C68.3801 59.5917 68.8114 59.2594 69.2426 58.9271C68.5135 59.4802 67.702 59.9427 66.8583 60.2979C67.3676 60.0844 67.877 59.8698 68.3864 59.6552C67.6447 59.9583 66.876 60.1677 66.0833 60.2823C66.6499 60.2062 67.2166 60.1302 67.7833 60.0542C66.6926 60.2 65.5978 60.1625 64.5093 60.0187C65.076 60.0948 65.6426 60.1708 66.2093 60.2469C64.426 60.0021 62.6989 59.4771 60.9228 59.1948C59.6249 58.9885 58.2312 58.7323 56.8999 58.8292C56.1697 58.8823 55.4395 58.9979 54.7187 59.1094C54.5051 59.1417 54.2937 59.1823 54.0853 59.2365C53.901 59.2844 53.7187 59.3417 53.5405 59.4083C52.8551 59.6635 52.1697 59.9448 51.5135 60.2667C50.676 60.6781 49.9437 61.3156 49.2228 61.8865C48.877 62.1604 48.5562 62.4604 48.2666 62.7927C47.3593 63.8354 46.4833 64.9656 45.9197 66.2375C45.326 67.5802 44.7541 68.8948 44.5062 70.3438C44.2593 71.7812 44.0364 73.2719 44.1312 74.7385C44.2957 77.2844 44.853 79.6667 46.1499 81.8854C46.6468 82.7344 47.2895 83.501 47.8937 84.2708C48.2499 84.724 48.6343 85.1521 49.0499 85.5531C49.6155 86.099 50.2322 86.5719 50.8551 87.051C51.4489 87.5083 52.0353 87.9646 52.6708 88.3625C53.9322 89.1542 55.3083 89.7125 56.6853 90.2729C57.5718 90.6333 58.4874 90.9208 59.4176 91.1448C60.8968 91.5 62.4218 91.6917 63.9301 91.8583C64.9155 91.9677 65.9083 92.0167 66.8989 92.0156C69.3645 92.0115 71.8489 91.7 74.2666 91.2448C75.8864 90.9396 77.4853 90.5125 79.0332 89.9448C81.0708 89.1969 83.0916 88.3208 84.9697 87.2271C85.877 86.699 86.7541 86.1187 87.5947 85.4906C88.9624 84.4677 90.3114 83.424 91.5364 82.2323C92.9166 80.8896 94.178 79.4479 95.3572 77.9271C96.0687 77.0083 96.7635 76.0896 97.3541 75.0885C98.1249 73.7781 98.7239 72.3615 99.2666 70.9479C100.03 68.9604 100.351 66.8365 100.547 64.725C100.67 63.3948 100.655 62.05 100.501 60.7229C100.337 59.3167 100.165 57.8958 99.801 56.5229C99.4239 55.0917 98.8364 53.7188 98.2239 52.375C97.776 51.3927 97.228 50.4562 96.5885 49.5865C95.602 48.2458 94.577 46.9281 93.327 45.8198C92.5489 45.1302 91.7093 44.5 90.8718 43.8865C90.4635 43.5875 90.0416 43.3073 89.6072 43.0469C88.3541 42.2969 86.9968 41.7406 85.6437 41.201C84.3301 40.676 82.953 40.3042 81.5541 40.099C80.6322 39.9635 79.7072 39.824 78.777 39.749C79.853 43.7094 80.9291 47.6688 82.0051 51.6292C82.9176 51.2313 83.7989 50.7635 84.6364 50.226C86.2072 49.2188 87.726 48.0458 89.0301 46.7073C91.7968 43.8656 93.7978 40.3312 94.926 36.5406C95.1364 35.8344 95.3051 35.1167 95.428 34.3906C95.6405 33.1375 95.826 31.8594 95.8843 30.5865C95.9187 29.8354 95.901 29.0823 95.8301 28.3333C95.7093 27.0563 95.5478 25.7531 95.2426 24.501C95.0583 23.7448 94.8083 23.0094 94.5093 22.2906C94.0457 21.174 93.5978 20.0552 92.9718 19.0188C92.3958 18.0615 91.6843 17.1885 90.9926 16.3146C90.6228 15.8479 90.2218 15.4063 89.7947 14.9917C89.202 14.4167 88.5551 13.9188 87.901 13.4146C87.2478 12.9115 86.5989 12.4125 85.8947 11.9792C84.5385 11.1448 83.0593 10.5385 81.5843 9.94792C79.8301 9.24583 77.9832 8.78646 76.1145 8.51354C74.3468 8.25521 72.577 8.01667 70.7905 7.99583C69.4655 7.98125 68.1385 8.06667 66.8249 8.23333C64.0843 8.58021 61.4051 9.02708 58.7958 9.95938C57.0583 10.5792 55.3364 11.3031 53.7062 12.1688C51.9614 13.0958 50.403 14.2542 48.8499 15.4719C48.2416 15.95 47.6551 16.4542 47.0947 16.9875C46.4708 17.5646 46.0301 18.249 45.7718 19.0385C45.3718 19.7979 45.1874 20.6177 45.2207 21.4948C45.1874 22.3729 45.3718 23.1917 45.7718 23.9521C46.0301 24.7417 46.4708 25.426 47.0947 26.0031C48.3135 27.1188 49.9124 27.9469 51.6155 27.8708C52.1822 27.7948 52.7499 27.7188 53.3155 27.6427C54.3989 27.3396 55.3395 26.7927 56.1374 26.0031V26.0042Z" fill="white"/>
</g>
<path d="M51.6122 21.4854C58.8007 14.6354 68.2424 14.3719 70.3549 14.3604C70.4622 14.3594 70.5528 14.3594 70.682 14.3604C73.1257 14.3781 83.8278 14.8292 87.9903 23.2167C90.907 29.0927 89.2549 35.9813 86.0143 40.4042C83.5643 43.75 80.4434 45.3865 78.7736 46.1136C80.1528 46.225 85.783 46.8365 90.0486 51.5531C95.0684 57.1021 94.2861 64.0063 94.0226 65.7406C93.1684 71.349 89.808 74.8323 87.608 77.1136C83.4601 81.4146 78.8653 83.2875 76.5424 84.0615C69.8351 86.2938 59.9434 86.7261 53.9663 81.4031C51.8132 79.4854 51.1611 77.7063 50.9757 77.1438C49.7601 73.4511 50.8986 68.2521 54.0955 66.1302C58.8341 62.9844 64.5872 68.925 71.1049 65.2958C71.809 64.9042 74.2497 63.5448 74.4518 61.4042C74.6778 59.0094 72.0205 56.5063 69.408 55.5219C64.3007 53.5969 60.9195 58.0688 57.4424 56.2604C54.0893 54.5177 52.4184 47.8563 54.7934 44.1677C58.2049 38.8656 68.4924 41.9896 70.2393 37.3323C70.8715 35.6469 70.2518 33.2969 68.8747 32.3521C65.6195 30.1177 60.3413 37.249 54.2361 35.549C50.8247 34.599 47.8747 31.0938 47.8976 27.7615C47.9143 25.2177 49.6038 23.4 51.6132 21.4854H51.6122Z" fill="#A06CD5"/>
<path d="M52.4168 22.2875C53.5439 21.2177 54.4658 20.4927 55.7564 19.6656C56.897 18.9333 58.1012 18.2969 59.345 17.7563C59.4054 17.7302 59.4668 17.7031 59.5273 17.6771C59.2898 17.7792 59.5918 17.6521 59.621 17.6396C59.7418 17.5896 59.8627 17.5417 59.9835 17.4938C60.297 17.3708 60.6116 17.2542 60.9283 17.1427C61.4918 16.9448 62.0616 16.7646 62.6366 16.6021C63.67 16.3094 64.7189 16.0729 65.7773 15.8927C65.995 15.8552 66.2148 15.8198 66.4325 15.7875C66.5491 15.7698 66.6658 15.7531 66.7825 15.7365C66.9345 15.7156 66.7502 15.6979 66.6856 15.75C66.72 15.7219 66.8377 15.7302 66.8866 15.724C67.2991 15.6729 67.7116 15.6292 68.1262 15.5948C68.721 15.5448 69.3189 15.5125 69.9168 15.5C70.9773 15.4781 72.0377 15.5208 73.0939 15.624C73.2773 15.6417 73.4606 15.6615 73.6439 15.6833C73.721 15.6927 73.797 15.7021 73.8741 15.7115C73.9293 15.7188 73.9929 15.7354 74.0491 15.7344C73.9398 15.7365 73.7814 15.6969 73.9856 15.726C74.3835 15.7844 74.7814 15.8479 75.1773 15.9219C76.0793 16.0906 76.9731 16.3052 77.8512 16.5729C78.3231 16.7167 78.7908 16.875 79.2512 17.051C79.3606 17.0917 79.4689 17.1344 79.5762 17.1771C79.6366 17.2021 80.045 17.3771 79.7377 17.2427C79.9793 17.3479 80.22 17.4542 80.4585 17.5677C81.4127 18.024 82.3293 18.5615 83.1814 19.1885C83.2262 19.2219 83.271 19.2552 83.3148 19.2885C83.5356 19.451 83.1845 19.176 83.3168 19.2896C83.4127 19.3708 83.5137 19.4458 83.6106 19.526C83.8283 19.7063 84.0418 19.8917 84.2481 20.0844C84.67 20.4771 85.0689 20.8969 85.4387 21.3396C85.5148 21.4302 85.5877 21.5219 85.6616 21.6135C85.8502 21.8469 85.5252 21.4229 85.7023 21.6667C85.7366 21.7146 85.7741 21.7625 85.8085 21.8104C85.9877 22.0552 86.1575 22.3063 86.3189 22.5625C86.6658 23.1104 86.972 23.6844 87.2377 24.275C87.2533 24.3094 87.3533 24.5396 87.2877 24.3854C87.3189 24.4573 87.3481 24.5302 87.3762 24.6042C87.4491 24.7854 87.5168 24.9688 87.5814 25.1542C87.7085 25.5188 87.821 25.8896 87.9189 26.2646C88.0054 26.5979 88.0814 26.9344 88.145 27.2729C88.1793 27.4604 88.2106 27.6469 88.2387 27.8354C88.2741 28.0677 88.2502 27.9229 88.2439 27.8729C88.2606 28.0042 88.2752 28.1354 88.2887 28.2677C88.3606 28.9969 88.3814 29.7323 88.3523 30.4646C88.3398 30.8 88.3168 31.1365 88.2835 31.4708C88.2658 31.6552 88.246 31.8406 88.22 32.025C88.247 31.8323 88.22 32.0208 88.2137 32.0552C88.196 32.1646 88.1793 32.275 88.1606 32.3844C88.0377 33.1104 87.8689 33.8281 87.6595 34.5344C87.5658 34.849 87.4637 35.1604 87.3543 35.4688C87.2939 35.6396 87.2304 35.8094 87.1648 35.9771C87.1387 36.0448 87.1116 36.1115 87.0845 36.1792C87.0689 36.2188 86.9575 36.4854 87.0345 36.3063C86.5033 37.5511 85.8314 38.7406 85.0325 39.8333C84.8075 40.1406 84.6939 40.2802 84.4106 40.6115C84.1575 40.9063 83.8939 41.1927 83.62 41.4688C83.1262 41.9698 82.6002 42.4344 82.0512 42.875C81.8793 43.0115 82.0054 42.9115 82.0408 42.8844C81.9627 42.9448 81.8825 43.0042 81.8023 43.0636C81.6981 43.1406 81.5929 43.2167 81.4877 43.2917C81.2231 43.4771 80.9543 43.6563 80.6804 43.8281C80.2335 44.1083 79.7752 44.3698 79.3054 44.6115C78.9418 44.7979 78.5731 44.9719 78.1991 45.1365C77.7616 45.3271 77.5356 45.9813 77.6773 46.4167C77.8408 46.9198 78.2523 47.2063 78.7731 47.2479C78.9345 47.2615 79.095 47.2761 79.2554 47.2948C79.3564 47.3052 79.4575 47.3198 79.5585 47.3302C79.5918 47.3344 79.2408 47.2854 79.472 47.3188C79.5408 47.3292 79.6085 47.3386 79.6773 47.35C80.2918 47.4448 80.9012 47.5719 81.5023 47.7292C82.2575 47.9271 82.996 48.175 83.72 48.4646C83.7533 48.4781 83.9314 48.5531 83.7918 48.4948C83.6616 48.4396 83.8033 48.499 83.8241 48.5083C83.922 48.5521 84.021 48.5948 84.1189 48.6396C84.3356 48.7386 84.5491 48.8406 84.7606 48.9479C85.1898 49.1656 85.6106 49.4011 86.02 49.6552C86.4543 49.924 86.8762 50.2125 87.2825 50.5219C87.1325 50.4083 87.4033 50.6188 87.4418 50.65C87.5418 50.7313 87.6429 50.8146 87.7418 50.899C87.9595 51.0833 88.171 51.274 88.3783 51.4698C88.795 51.8646 89.1918 52.2823 89.5637 52.7198C89.6543 52.8261 89.7429 52.9333 89.8304 53.0417C89.8679 53.0875 89.9043 53.1333 89.9408 53.1792C89.9095 53.1406 89.8408 53.0458 89.9773 53.2281C90.1491 53.4573 90.3148 53.6906 90.4752 53.9292C90.771 54.3719 91.045 54.8302 91.295 55.3011C91.4033 55.5042 91.5064 55.7104 91.6054 55.9188C91.6575 56.0292 91.7095 56.1396 91.7585 56.2511C91.7866 56.3136 91.8148 56.3771 91.8418 56.4406C91.797 56.3365 91.8127 56.3688 91.847 56.4542C92.2002 57.3281 92.4835 58.2271 92.6898 59.1469C92.7845 59.5698 92.8575 59.9958 92.9272 60.424C92.9335 60.4667 92.9387 60.5094 92.945 60.5521C92.9023 60.2854 92.9314 60.4458 92.9387 60.5042C92.9512 60.6021 92.9637 60.699 92.9741 60.7969C92.997 61 93.0168 61.2031 93.0325 61.4073C93.0877 62.1063 93.1043 62.8083 93.0835 63.5094C93.0679 64.0302 93.0325 64.5511 92.9741 65.0688C92.9637 65.1646 92.9512 65.2615 92.9387 65.3573C92.9137 65.5729 92.9814 65.0688 92.9575 65.2198C92.9512 65.2636 92.945 65.3073 92.9387 65.3511C92.8689 65.8281 92.7793 66.3011 92.6689 66.7698C92.5439 67.2979 92.395 67.8188 92.22 68.3313C92.1387 68.5698 92.0522 68.8063 91.9606 69.0406C91.9418 69.0896 91.922 69.1396 91.9023 69.1886C91.8918 69.2156 91.8075 69.4198 91.8585 69.2969C91.9054 69.1865 91.8377 69.3448 91.8335 69.3552C91.7991 69.4344 91.7637 69.5136 91.7283 69.5927C91.3335 70.4646 90.8647 71.3031 90.3377 72.1042C90.0929 72.4761 89.8345 72.8417 89.5658 73.1979C89.5127 73.2688 89.4585 73.3406 89.4043 73.4115C89.5637 73.2021 89.3741 73.4469 89.3366 73.4948C89.2023 73.6636 89.0658 73.8302 88.9272 73.9958C88.4345 74.5833 87.9168 75.149 87.3887 75.7042C86.695 76.4333 85.9887 77.149 85.2335 77.8146C85.0189 78.0031 84.8012 78.1886 84.5814 78.3708C84.3835 78.5333 84.0835 78.774 83.9523 78.874C83.8585 78.9458 83.5481 79.1761 83.3731 79.3021C83.146 79.4646 82.9168 79.624 82.6856 79.7802C81.8773 80.324 81.0398 80.825 80.1783 81.2823C79.7898 81.4875 79.397 81.6833 79.0002 81.8708C78.822 81.9542 78.6429 82.0365 78.4627 82.1167C78.3762 82.1542 78.2898 82.1927 78.2033 82.2302C78.1668 82.2458 78.1304 82.2615 78.0939 82.2771C77.8523 82.3823 78.2554 82.2125 78.1148 82.2688C76.721 82.8323 75.3023 83.3031 73.8408 83.6563C72.9554 83.8698 72.0606 84.0448 71.1595 84.1823C71.047 84.2 70.9335 84.2167 70.821 84.2323C70.7856 84.2375 70.5783 84.2646 70.7283 84.2458C70.8668 84.2271 70.7033 84.2479 70.6835 84.2511C70.4377 84.2813 70.1918 84.3104 69.946 84.3354C69.4658 84.3854 68.9845 84.424 68.5033 84.451C67.5314 84.5052 66.5564 84.5146 65.5845 84.4688C65.0981 84.4469 64.6106 84.4115 64.1262 84.3615C64.0095 84.35 63.8929 84.3375 63.7762 84.324C63.7241 84.3177 63.4064 84.2771 63.5283 84.2938C63.6502 84.3104 63.322 84.2635 63.2814 84.2573C63.1491 84.2385 63.0168 84.2167 62.8845 84.1938C61.9512 84.0365 61.0273 83.8219 60.1231 83.5396C59.6679 83.3969 59.2179 83.2375 58.7752 83.0604C58.7137 83.0365 58.6533 83.0104 58.5929 82.9865C58.6075 82.9917 58.7575 83.0583 58.6377 83.0042C58.5325 82.9583 58.4273 82.9125 58.3231 82.8656C58.1002 82.7646 57.8783 82.6573 57.6606 82.5458C57.2387 82.3313 56.8262 82.0979 56.4262 81.8448C56.2325 81.7229 56.0418 81.5958 55.8543 81.4646C55.7595 81.399 55.6668 81.3323 55.5741 81.2646C55.5345 81.2354 55.496 81.2063 55.4564 81.1771C55.2043 80.9896 55.5533 81.2594 55.4137 81.1438C54.9887 80.7948 54.5731 80.4417 54.1845 80.0521C53.9845 79.85 53.7898 79.6417 53.6033 79.4261C53.5283 79.3406 53.4554 79.2531 53.3845 79.1656C53.3387 79.1094 53.2918 79.0521 53.2481 78.9948C53.3439 79.1188 53.2481 78.9917 53.2054 78.9333C52.9512 78.5854 52.7179 78.2219 52.5116 77.8438C52.4377 77.7083 52.3679 77.5719 52.3023 77.4323C52.271 77.3667 52.2418 77.3 52.2106 77.2344C52.1398 77.0865 52.3116 77.4938 52.2189 77.2531C51.971 76.6104 51.8064 75.9427 51.7043 75.2615C51.7398 75.4969 51.7033 75.2406 51.6939 75.149C51.6825 75.0406 51.6731 74.9323 51.6648 74.824C51.6481 74.5896 51.6387 74.3542 51.6356 74.1177C51.6314 73.6583 51.6543 73.1979 51.7043 72.7396C51.7095 72.6927 51.7168 72.6448 51.721 72.5979C51.7387 72.425 51.6898 72.7865 51.7189 72.6146C51.7366 72.5042 51.7523 72.3948 51.772 72.2844C51.8127 72.049 51.8616 71.8146 51.9179 71.5823C52.0252 71.1375 52.1585 70.6979 52.321 70.2688C52.3543 70.1813 52.3898 70.0938 52.4241 70.0063C52.3293 70.2521 52.4731 69.8979 52.496 69.85C52.5866 69.6542 52.6845 69.4615 52.7887 69.2729C52.8918 69.0865 53.0012 68.9031 53.1179 68.725C53.1752 68.6365 53.2345 68.549 53.296 68.4625C53.3304 68.4136 53.3689 68.3667 53.4012 68.3167C53.4898 68.1823 53.2825 68.4542 53.3877 68.3333C53.67 68.0083 53.946 67.6906 54.2731 67.4083C54.3158 67.3708 54.5335 67.1938 54.4293 67.2761C54.3137 67.3656 54.5585 67.1844 54.596 67.1583C54.7773 67.0354 54.9648 66.9208 55.1585 66.8188C55.246 66.7719 55.3366 66.7313 55.4252 66.6865C55.4773 66.6604 55.6252 66.6073 55.3835 66.7C55.4231 66.6854 55.4606 66.6688 55.4991 66.6552C55.6929 66.5865 55.8845 66.5198 56.0835 66.4677C56.2658 66.4208 56.4512 66.3865 56.6366 66.3531C56.8439 66.3156 56.3991 66.3719 56.6939 66.3469C56.8012 66.3375 56.9085 66.3281 57.0168 66.3219C57.4137 66.3 57.8116 66.3094 58.2075 66.3427C58.4033 66.3583 58.5991 66.3802 58.795 66.4052C58.595 66.3802 58.7095 66.3948 58.8314 66.4136C58.9595 66.4323 59.0877 66.4542 59.2148 66.4771C61.0189 66.7938 62.7783 67.299 64.5981 67.5313C66.6658 67.7948 68.7293 67.5906 70.6543 66.7729C72.0595 66.1761 73.4814 65.2896 74.4439 64.0917C75.121 63.25 75.5762 62.274 75.5991 61.1781C75.621 60.1198 75.2168 59.0594 74.6314 58.1906C73.3689 56.3208 71.347 54.9042 69.1898 54.2542C67.3012 53.6854 65.3356 53.8792 63.4731 54.4427C62.722 54.6708 61.9866 54.9469 61.2377 55.1813C60.8825 55.2927 60.5231 55.3948 60.1585 55.4719C60.0731 55.4896 59.9887 55.5063 59.9023 55.5208C59.8543 55.5292 59.8054 55.5354 59.7564 55.5448C59.6335 55.5688 59.8773 55.5292 59.8773 55.5292C59.7533 55.4886 59.472 55.5656 59.3356 55.5677C59.1679 55.5698 59.0002 55.5448 58.8325 55.5469C58.7148 55.549 58.9491 55.5615 58.9564 55.5656C58.9345 55.55 58.846 55.5469 58.8137 55.5406C58.7179 55.5229 58.622 55.5011 58.5283 55.4761C58.4439 55.4531 58.3606 55.4271 58.2783 55.399C58.1637 55.3594 58.0314 55.2896 58.2293 55.3865C58.0616 55.3052 57.897 55.224 57.7377 55.125C57.6668 55.0813 57.597 55.0354 57.5283 54.9875C57.4991 54.9667 57.47 54.9438 57.4398 54.925C57.3137 54.8458 57.6085 55.0677 57.496 54.9688C57.3554 54.8458 57.2116 54.7292 57.0783 54.599C56.9502 54.4729 56.8283 54.3417 56.7116 54.2063C56.6606 54.1469 56.6127 54.0844 56.5616 54.025C56.7637 54.2563 56.5179 53.9636 56.4752 53.9042C56.245 53.5781 56.0387 53.2344 55.8564 52.8792C55.772 52.7146 55.6929 52.5479 55.6168 52.3792C55.4981 52.1177 55.6533 52.4833 55.5793 52.2906C55.5377 52.1813 55.4939 52.074 55.4554 51.9636C55.3085 51.5604 55.1856 51.149 55.0866 50.7313C55.0377 50.5271 54.9939 50.3219 54.9575 50.1156C54.9387 50.0125 54.9231 49.9094 54.9043 49.8052C54.895 49.75 54.8762 49.5823 54.9075 49.8386C54.9002 49.7792 54.8918 49.7198 54.8856 49.6594C54.8366 49.2292 54.8116 48.7958 54.8148 48.3625C54.8158 48.1552 54.8231 47.9479 54.8377 47.7417C54.8439 47.6396 54.8523 47.5365 54.8627 47.4344C54.872 47.3365 54.9179 47.0438 54.8762 47.3021C54.9429 46.8917 55.0252 46.4854 55.1481 46.0875C55.2054 45.9 55.2804 45.7188 55.3429 45.5333C55.3835 45.4125 55.3116 45.6052 55.3085 45.6115C55.3325 45.5615 55.3543 45.5104 55.3773 45.4604C55.4241 45.3604 55.4731 45.2615 55.5241 45.1646C55.6137 44.9979 55.7095 44.8344 55.8148 44.6771C55.8564 44.6146 55.8991 44.5521 55.9429 44.4906C55.9502 44.4813 56.0095 44.3813 56.0314 44.3708C55.997 44.3854 55.8845 44.55 55.9908 44.4271C56.2231 44.1615 56.4616 43.9083 56.7314 43.6802C56.7679 43.649 56.8075 43.6208 56.8429 43.5886C56.9314 43.5083 56.7595 43.6563 56.7543 43.6552C56.7731 43.6615 56.9335 43.525 56.9585 43.5063C57.1075 43.4031 57.2595 43.3052 57.4148 43.2136C57.5616 43.1271 57.7116 43.0458 57.8627 42.9688C57.9398 42.9302 58.0168 42.8927 58.0939 42.8563C58.1273 42.8406 58.1616 42.8261 58.195 42.8104C58.2283 42.7958 58.2627 42.7802 58.296 42.7656C58.3523 42.7417 58.3408 42.7448 58.2627 42.7792C58.1825 42.8708 58.2168 42.7969 58.2981 42.7646C58.3335 42.7511 58.3679 42.7375 58.4023 42.7229C58.4835 42.6917 58.5658 42.6615 58.6481 42.6313C58.8252 42.5667 59.0054 42.5063 59.1856 42.4511C59.5418 42.3396 59.9012 42.2448 60.2637 42.1604C61.0043 41.9865 61.7554 41.8573 62.5075 41.7406C63.9356 41.5208 65.3825 41.3667 66.7908 41.0281C68.0762 40.7177 69.421 40.2177 70.3512 39.2396C71.6252 37.9011 71.8835 35.9031 71.3793 34.1719C70.8616 32.3948 69.5262 30.9094 67.6023 30.7875C66.1877 30.699 64.7825 31.3844 63.5543 31.9969C62.8491 32.349 62.1554 32.724 61.4512 33.0792C61.0814 33.2667 60.7106 33.449 60.3345 33.6208C60.2429 33.6625 60.1512 33.7042 60.0585 33.7438C60.0168 33.7625 59.7335 33.8833 59.8762 33.824C60.0189 33.7646 59.7241 33.8854 59.6908 33.8979C59.5835 33.9406 59.4762 33.9823 59.3679 34.0229C58.9887 34.1646 58.6033 34.2906 58.2127 34.3958C58.0179 34.4479 57.821 34.4948 57.6231 34.5354C57.5241 34.5563 57.4241 34.575 57.3252 34.5927C57.2679 34.6031 57.2106 34.6115 57.1543 34.6208C57.1231 34.6261 56.9293 34.6479 57.0908 34.6313C57.2512 34.6136 56.9418 34.6448 56.896 34.649C56.795 34.6583 56.6939 34.6656 56.5929 34.6698C56.3731 34.6813 56.1543 34.6844 55.9345 34.6761C55.7273 34.6698 55.521 34.6511 55.3137 34.6292C55.5512 34.6542 55.3116 34.6271 55.2137 34.6104C55.0929 34.5886 54.9731 34.5646 54.8533 34.5375C54.6335 34.4865 54.4158 34.425 54.2012 34.3542C54.0887 34.3167 53.9783 34.2781 53.8679 34.2365C53.821 34.2177 53.7741 34.199 53.7262 34.1802C53.6054 34.1344 53.8616 34.2479 53.671 34.1552C53.2231 33.9344 52.7887 33.7042 52.3762 33.4229C52.2762 33.3542 52.1783 33.2833 52.0793 33.2125C52.072 33.2073 51.9356 33.1031 52.0293 33.1761C52.1325 33.2563 51.9627 33.1208 51.9408 33.1031C51.7398 32.9386 51.545 32.7656 51.3575 32.5865C51.1825 32.4177 51.0137 32.2438 50.8523 32.0636C50.7825 31.9865 50.7148 31.9073 50.6481 31.8281C50.6033 31.775 50.5606 31.7208 50.5168 31.6688C50.3856 31.5094 50.547 31.7125 50.4741 31.6125C50.1835 31.2125 49.9168 30.8 49.6908 30.3604C49.645 30.2708 49.6012 30.1813 49.5585 30.0906C49.5304 30.0302 49.5033 29.9698 49.4762 29.9094C49.4835 29.925 49.5398 30.0729 49.495 29.951C49.4095 29.7198 49.322 29.4917 49.2533 29.2552C49.1898 29.0385 49.1377 28.8188 49.097 28.5958C49.0845 28.5333 49.0762 28.4698 49.0648 28.4073C49.0668 28.4208 49.0845 28.6052 49.0731 28.4719C49.0627 28.3458 49.0481 28.2198 49.0418 28.0938C49.0304 27.8583 49.0325 27.6219 49.0491 27.3865C49.0543 27.3177 49.1002 27 49.0627 27.2198C49.0856 27.0844 49.1116 26.95 49.1429 26.8156C49.197 26.5854 49.2668 26.3583 49.3502 26.1365C49.3731 26.074 49.3981 26.0104 49.4241 25.9479C49.4158 25.9677 49.3502 26.1 49.4106 25.9865C49.4658 25.8823 49.5127 25.7729 49.5668 25.6677C49.7929 25.2385 50.0606 24.8302 50.3575 24.4469C50.2502 24.5854 50.4137 24.3802 50.447 24.3396C50.5283 24.2406 50.6106 24.1448 50.6939 24.0479C50.8648 23.8521 51.0408 23.6604 51.22 23.4729C51.6075 23.0656 52.0095 22.675 52.4158 22.2875C52.846 21.8771 52.8606 21.0927 52.4158 20.6854C51.9533 20.2625 51.2668 20.2469 50.8075 20.6854C49.2095 22.2104 47.5387 23.9104 46.9731 26.1135C46.4325 28.2198 46.997 30.449 48.1585 32.25C49.3679 34.1229 51.1345 35.5938 53.2158 36.4042C55.0023 37.099 56.9825 37.0729 58.8168 36.5813C60.5116 36.125 62.0887 35.3073 63.6366 34.5011C64.3106 34.15 64.9866 33.7979 65.6835 33.4927C65.9241 33.3865 65.5252 33.5521 65.7064 33.4833C65.7825 33.4552 65.8564 33.424 65.9325 33.3958C66.0887 33.3375 66.246 33.2823 66.4054 33.2333C66.547 33.1896 66.6898 33.15 66.8345 33.1177C66.9033 33.1021 66.9731 33.0875 67.0439 33.075C67.0835 33.0677 67.1231 33.0636 67.1627 33.0542C67.2887 33.0271 66.8491 33.0813 67.0648 33.0688C67.1981 33.0604 67.3293 33.0479 67.4637 33.05C67.5283 33.0511 67.5939 33.0573 67.6585 33.0594C67.8981 33.0667 67.3929 32.9979 67.6283 33.0552C67.7523 33.0854 67.8741 33.1188 67.997 33.1531C68.2179 33.2156 67.7939 33.0438 67.9554 33.1333C68.021 33.1698 68.0898 33.201 68.1543 33.2396C68.2189 33.2771 68.2731 33.3219 68.3356 33.3573C68.4637 33.4323 68.2189 33.2198 68.3075 33.3386C68.3304 33.3698 68.3752 33.3969 68.4033 33.425C68.4783 33.4948 68.547 33.5698 68.6158 33.6458C68.6408 33.6719 68.7575 33.8208 68.6679 33.7042C68.571 33.5761 68.7366 33.8063 68.7377 33.8094C68.8575 33.9896 68.9585 34.1802 69.0523 34.3761C69.0606 34.3948 69.1158 34.5396 69.07 34.4146C69.0179 34.2781 69.0866 34.4688 69.0981 34.5011C69.1408 34.6219 69.1793 34.7448 69.2127 34.8677C69.2418 34.9771 69.2679 35.0865 69.2908 35.1979C69.3033 35.2615 69.3116 35.325 69.3252 35.3886C69.322 35.374 69.3054 35.1938 69.3168 35.3271C69.3377 35.5677 69.3543 35.8073 69.346 36.049C69.3408 36.1761 69.3304 36.3031 69.3168 36.4292C69.3387 36.225 69.3158 36.4052 69.296 36.5C69.27 36.6208 69.2387 36.7406 69.2012 36.8583C69.1866 36.9021 69.17 36.9448 69.1564 36.9886C69.0835 37.2281 69.1689 36.9198 69.1887 36.9271C69.1929 36.9281 69.021 37.2583 69.0043 37.2865C68.971 37.3427 68.9356 37.399 68.8981 37.4531C68.8825 37.4761 68.8658 37.499 68.8502 37.5229C68.7408 37.6917 68.9918 37.3667 68.9085 37.4479C68.8158 37.5386 68.7377 37.6448 68.6439 37.7365C68.597 37.7813 68.5491 37.8261 68.5002 37.8688C68.472 37.8938 68.4418 37.9167 68.4137 37.9417C68.3012 38.0417 68.4845 37.8792 68.5095 37.8688C68.2533 37.9698 68.0106 38.2 67.7575 38.324C67.6939 38.3563 67.6283 38.3854 67.5648 38.4156C67.3439 38.5198 67.7616 38.3427 67.5783 38.4104C67.4283 38.4667 67.2783 38.525 67.1262 38.5761C66.4773 38.7917 65.8064 38.9386 65.1345 39.0604C63.6345 39.3344 62.1158 39.4896 60.6168 39.7729C59.1033 40.0594 57.5679 40.4802 56.2356 41.2761C54.7293 42.175 53.6523 43.5219 53.0606 45.1656C52.4314 46.9177 52.4325 48.8604 52.7543 50.675C53.0773 52.4886 53.8054 54.2052 54.9523 55.6281C56.0179 56.95 57.5689 57.8479 59.2991 57.8354C60.922 57.824 62.4325 57.1375 63.9543 56.6667C64.3543 56.5427 64.7575 56.4313 65.1658 56.3417C65.3668 56.2979 65.57 56.2625 65.7731 56.2271C65.9845 56.1917 65.7741 56.2261 65.7366 56.2302C65.796 56.2229 65.8554 56.2156 65.9158 56.2094C66.0356 56.1969 66.1564 56.1865 66.2773 56.1792C66.4929 56.1656 66.7095 56.1615 66.9252 56.1667C67.0356 56.1698 67.146 56.175 67.2564 56.1823C67.3043 56.1854 67.3523 56.1886 67.4002 56.1927C67.4002 56.1927 67.6981 56.2219 67.5387 56.2052C67.4085 56.1906 67.7283 56.2354 67.7793 56.2458C67.896 56.2667 68.0127 56.2917 68.1283 56.3188C68.3877 56.3792 68.6429 56.4531 68.895 56.5406C69.0325 56.5875 69.1679 56.6396 69.3023 56.6938C69.1262 56.6229 69.4283 56.7521 69.4762 56.775C69.7262 56.8917 69.971 57.0198 70.2095 57.1583C70.4345 57.2896 70.6554 57.4292 70.87 57.5771C70.9783 57.6521 71.0835 57.7281 71.1877 57.8073C71.3377 57.9208 71.0773 57.7167 71.2231 57.8354C71.2804 57.8823 71.3377 57.9292 71.395 57.9771C71.5918 58.1438 71.7814 58.3177 71.9627 58.5011C72.0523 58.5906 72.1398 58.6823 72.2252 58.7761C72.2731 58.8292 72.32 58.8833 72.3668 58.9375C72.3835 58.9563 72.5595 59.1698 72.4793 59.0698C72.4064 58.9792 72.5127 59.1146 72.5179 59.1219C72.5585 59.1781 72.5991 59.2344 72.6387 59.2906C72.7064 59.3896 72.771 59.4906 72.8325 59.5917C72.8939 59.6938 72.9512 59.7938 73.0043 59.8979C73.0387 59.9625 73.1762 60.2875 73.0939 60.0719C73.1731 60.2781 73.2408 60.4875 73.2887 60.7042C73.3012 60.7646 73.3095 60.825 73.3231 60.8865C73.32 60.8698 73.3137 60.6854 73.3116 60.8125C73.3095 60.949 73.3304 61.0854 73.3252 61.2229C73.322 61.3292 73.296 61.4865 73.3314 61.2854C73.3106 61.4042 73.2866 61.5208 73.2554 61.6365C73.2273 61.7365 73.1845 61.8323 73.1575 61.9313C73.1252 62.0521 73.1804 61.8771 73.1877 61.8636C73.1533 61.9281 73.1241 61.9958 73.0898 62.0604C72.9939 62.2427 72.8637 62.4011 72.7637 62.5781C72.7033 62.6854 72.8002 62.5333 72.8095 62.5219C72.772 62.5667 72.7366 62.6115 72.6981 62.6563C72.6231 62.7438 72.546 62.8281 72.4658 62.9104C72.3293 63.0521 72.1856 63.1865 72.0366 63.3156C71.9648 63.3781 71.8918 63.4386 71.8179 63.4979C71.7856 63.524 71.6429 63.625 71.7762 63.5313C71.9231 63.4292 71.7179 63.5729 71.7054 63.5813C71.1773 63.9636 70.6043 64.3 70.0168 64.5844C69.8825 64.65 69.747 64.7125 69.6085 64.7708C69.7689 64.7031 69.522 64.8021 69.4741 64.8198C69.2095 64.9188 68.9408 65.0063 68.6689 65.0813C68.4377 65.1438 68.2054 65.199 67.97 65.2438C67.8554 65.2656 67.7387 65.2823 67.6231 65.3042C67.4918 65.3302 67.6627 65.3011 67.6793 65.299C67.5981 65.3094 67.5158 65.3188 67.4335 65.3271C66.4887 65.424 65.5387 65.3813 64.5981 65.2625C64.8325 65.2927 64.5658 65.2573 64.4783 65.2438C64.37 65.2271 64.2606 65.2094 64.1523 65.1917C63.921 65.1521 63.6898 65.1094 63.4595 65.0636C63.0054 64.974 62.5512 64.874 62.0991 64.7719C60.4054 64.3906 58.646 63.9333 56.895 64.0604C54.9856 64.2 53.2408 65.0406 51.9804 66.4896C50.7012 67.9594 49.8991 69.8156 49.572 71.7271C49.245 73.6292 49.2731 75.6448 49.8929 77.4896C50.4512 79.1521 51.5064 80.624 52.7627 81.8365C55.7856 84.7542 59.8585 86.1646 63.9762 86.6115C67.8502 87.0323 71.8637 86.5979 75.6054 85.5365C78.9908 84.576 82.221 83.0031 85.0293 80.8844C86.6929 79.6292 88.1845 78.2031 89.5908 76.6708C90.8116 75.3396 91.9481 73.9104 92.8575 72.3479C94.5273 69.4792 95.3689 66.2146 95.3647 62.9052C95.3595 59.0865 94.2773 55.2136 91.9741 52.1292C89.4929 48.8073 85.9179 46.4917 81.8929 45.4886C80.87 45.2333 79.8231 45.0656 78.772 44.9813C78.9627 45.6844 79.1543 46.3885 79.346 47.0927C81.5648 46.1229 83.6168 44.7261 85.3064 42.9906C87.4408 40.799 88.9804 38.0615 89.8502 35.1375C90.7397 32.149 90.9075 28.924 90.1668 25.8854C89.5054 23.1719 88.0793 20.6385 86.072 18.6885C83.0273 15.7333 78.8595 14.1635 74.7106 13.5583C72.0825 13.175 69.4554 13.1313 66.8189 13.4656C61.6512 14.1208 56.6856 15.9458 52.5627 19.1698C51.9533 19.6469 51.3679 20.1521 50.8075 20.6854C50.3752 21.0938 50.3616 21.8813 50.8075 22.2875C51.27 22.7115 51.9543 22.725 52.4148 22.2875H52.4168Z" fill="black"/>
</g>
<defs>
<clipPath id="clip0_5057_514">
<rect width="100" height="100" fill="white" transform="translate(0.5)"/>
</clipPath>
</defs>
</svg>
