<svg width="24" height="25" viewBox="0 0 24 25" fill="none" xmlns="http://www.w3.org/2000/svg">
<g clip-path="url(#clip0_4965_2243)">
<mask id="mask0_4965_2243" style="mask-type:luminance" maskUnits="userSpaceOnUse" x="0" y="2" width="24" height="21">
<path d="M0 2.42001H24V22.58H0V2.42001Z" fill="white"/>
</mask>
<g mask="url(#mask0_4965_2243)">
<path d="M23.8165 7.60276L19.0548 2.56476C18.9665 2.47151 18.844 2.41876 18.7158 2.41876H5.28425C5.156 2.41876 5.0335 2.47151 4.94525 2.56476L0.183503 7.60276C0.0230035 7.77251 0.0130035 8.03501 0.160003 8.21651L11.6373 22.4035C11.7258 22.513 11.8593 22.5765 12 22.5765C12.1408 22.5765 12.274 22.513 12.3628 22.4035L23.84 8.21651C23.987 8.03501 23.977 7.77251 23.8165 7.60276ZM5.13325 3.72451L6.71575 7.45651H1.60575L5.13325 3.72451ZM15.9358 8.38976L12 20.3913L8.06425 8.38976H15.9358ZM8.4855 7.45651L12 3.64676L15.5145 7.45651H8.4855ZM12.9975 3.35201H18.011L16.4325 7.07526L12.9975 3.35201ZM7.5675 7.07526L5.989 3.35201H11.0025L7.5675 7.07526ZM7.08225 8.38976L10.8873 19.993L1.50025 8.38976H7.08225ZM16.9178 8.38976H22.4998L13.1128 19.993L16.9178 8.38976ZM17.2843 7.45651L18.8668 3.72451L22.3943 7.45651H17.2843Z" fill="#69DDFF"/>
</g>
</g>
<defs>
<clipPath id="clip0_4965_2243">
<rect width="24" height="24" fill="white" transform="translate(0 0.5)"/>
</clipPath>
</defs>
</svg>
