<svg width="73" height="72" viewBox="0 0 73 72" fill="none" xmlns="http://www.w3.org/2000/svg">
<mask id="mask0_4959_1277" style="mask-type:luminance" maskUnits="userSpaceOnUse" x="5" y="1" width="63" height="70">
<path d="M5.98999 1.92H67.046V70.0222H5.98999V1.92Z" fill="white"/>
</mask>
<g mask="url(#mask0_4959_1277)">
<path d="M64.6603 34.659H41.915V24.4087H64.6603V34.659ZM60.4768 67.7302H41.915V37.0065H60.4768V67.7302ZM33.428 67.7302V37.0065H39.5675V67.7302H33.428ZM12.5188 37.0065H31.0805V67.7302H12.5188V37.0065ZM8.33529 24.4087H31.0805V34.659H8.33529V24.4087ZM15.572 10.8172C15.3275 9.28725 17.093 7.5045 18.3823 6.20325C19.5898 4.9845 20.6503 4.39575 21.7198 4.35075C23.054 4.29525 24.5855 5.11575 26.276 6.7905C28.1105 8.60775 30.8908 12.021 32.9653 15.5482C33.9643 17.247 34.664 18.7612 34.9888 19.9275C35.1245 20.4157 35.1845 20.808 35.1943 21.1102L18.7243 13.8645C17.3915 13.1767 15.7753 12.096 15.572 10.8172ZM37.8838 19.9275C38.2078 18.7612 38.9083 17.247 39.9073 15.5482C41.981 12.021 44.762 8.60775 46.5965 6.7905C48.287 5.11575 49.8208 4.296 51.1528 4.35075C52.223 4.39575 53.2835 4.9845 54.4895 6.20325C55.7788 7.5045 57.545 9.28725 57.3013 10.8172C57.0965 12.096 55.481 13.1767 54.1483 13.8645L37.6783 21.1102C37.6888 20.808 37.748 20.4157 37.8838 19.9275ZM39.5675 34.659H33.428V24.4087H39.5675V34.659ZM65.834 22.062H41.345L55.1263 15.9982C55.1473 15.9892 55.1683 15.9795 55.1893 15.969C57.8758 14.5912 59.3255 13.0275 59.6188 11.187C60.0508 8.481 57.8008 6.20925 56.1575 4.551C54.5308 2.9085 52.9258 2.076 51.251 2.0055C49.2125 1.92075 47.1493 2.93925 44.9443 5.1225C42.6095 7.4355 39.7723 11.1465 37.8838 14.3572C37.304 15.3435 36.821 16.2645 36.4363 17.1165C36.0515 16.2645 35.5685 15.3435 34.9888 14.3572C33.1003 11.1465 30.2623 7.4355 27.9283 5.1225C25.724 2.94 23.6608 1.92 21.6215 2.0055C19.9468 2.076 18.3418 2.9085 16.715 4.551C15.0718 6.20925 12.8218 8.481 13.2538 11.187C13.547 13.0275 14.996 14.5912 17.684 15.969C17.7043 15.9795 17.7253 15.9892 17.7463 15.9982L31.5275 22.062H7.16154C6.51354 22.062 5.98779 22.587 5.98779 23.2357V35.8327C5.98779 36.4815 6.51354 37.0065 7.16154 37.0065H10.1713V68.904C10.1713 69.552 10.697 70.0777 11.345 70.0777H61.6505C62.2985 70.0777 62.8243 69.552 62.8243 68.904V37.0065H65.834C66.4828 37.0065 67.0078 36.4815 67.0078 35.8327V23.2357C67.0078 22.587 66.4828 22.062 65.834 22.062Z" fill="#D8E1FF"/>
</g>
</svg>
