<svg width="60" height="60" viewBox="0 0 60 60" fill="none" xmlns="http://www.w3.org/2000/svg">
<mask id="mask0_4936_9480" style="mask-type:luminance" maskUnits="userSpaceOnUse" x="0" y="23" width="29" height="29">
<path d="M0.160156 23.84H28.1602V51.96H0.160156V23.84Z" fill="white"/>
</mask>
<g mask="url(#mask0_4936_9480)">
<path d="M14.1727 51.9019C13.9439 51.9019 13.7158 51.8963 13.487 51.885C13.2589 51.8738 13.0314 51.8569 12.8039 51.8344C12.5764 51.8125 12.3495 51.7844 12.1233 51.7506C11.897 51.7169 11.672 51.6781 11.4483 51.6338C11.2239 51.5888 11.0008 51.5388 10.7795 51.4831C10.5577 51.4275 10.337 51.3669 10.1183 51.3006C9.90016 51.2344 9.68266 51.1625 9.46766 51.0856C9.25266 51.0088 9.03953 50.9263 8.82828 50.8388C8.61703 50.7513 8.40828 50.6588 8.20141 50.5613C7.99516 50.4631 7.79078 50.3606 7.58953 50.2531C7.38766 50.145 7.18891 50.0325 6.99266 49.915C6.79703 49.7975 6.60391 49.675 6.41391 49.5481C6.22391 49.4213 6.03703 49.29 5.85328 49.1538C5.66953 49.0175 5.48953 48.8769 5.31266 48.7319C5.13641 48.5869 4.96328 48.4375 4.79391 48.2844C4.62453 48.1306 4.45891 47.9731 4.29766 47.8113C4.13578 47.65 3.97828 47.4844 3.82453 47.315C3.67141 47.1456 3.52203 46.9725 3.37703 46.7963C3.23203 46.6194 3.09141 46.4394 2.95516 46.2556C2.81891 46.0719 2.68766 45.885 2.56078 45.695C2.43391 45.505 2.31141 45.3119 2.19391 45.1163C2.07641 44.92 1.96391 44.7213 1.85578 44.5194C1.74828 44.3181 1.64578 44.1138 1.54766 43.9075C1.45016 43.7006 1.35766 43.4919 1.27016 43.2806C1.18266 43.0694 1.10016 42.8563 1.02328 42.6413C0.946406 42.4263 0.874531 42.2088 0.808281 41.9906C0.742031 41.7719 0.681406 41.5513 0.625781 41.3294C0.570156 41.1081 0.520156 40.885 0.475156 40.6606C0.430781 40.4369 0.392031 40.2119 0.358281 39.9856C0.324531 39.7594 0.296406 39.5325 0.274531 39.305C0.252031 39.0775 0.235156 38.85 0.223906 38.6219C0.212656 38.3931 0.207031 38.165 0.207031 37.9363C0.207031 37.7075 0.212656 37.4794 0.223906 37.2513C0.235156 37.0225 0.252031 36.795 0.274531 36.5675C0.296406 36.34 0.324531 36.1131 0.358281 35.8869C0.392031 35.6613 0.430781 35.4363 0.475156 35.2119C0.520156 34.9875 0.570156 34.765 0.625781 34.5431C0.681406 34.3213 0.742031 34.1013 0.808281 33.8825C0.874531 33.6638 0.946406 33.4469 1.02328 33.2313C1.10016 33.0163 1.18266 32.8031 1.27016 32.5919C1.35766 32.3806 1.45016 32.1719 1.54766 31.9656C1.64578 31.7588 1.74828 31.5544 1.85578 31.3531C1.96391 31.1513 2.07641 30.9525 2.19391 30.7569C2.31141 30.5606 2.43391 30.3675 2.56078 30.1775C2.68766 29.9875 2.81891 29.8006 2.95516 29.6169C3.09141 29.4338 3.23203 29.2531 3.37703 29.0769C3.52203 28.9 3.67141 28.7269 3.82453 28.5575C3.97828 28.3881 4.13578 28.2231 4.29766 28.0613C4.45891 27.8994 4.62453 27.7419 4.79391 27.5888C4.96328 27.435 5.13641 27.2856 5.31266 27.1406C5.48953 26.9956 5.66953 26.855 5.85328 26.7194C6.03703 26.5831 6.22391 26.4513 6.41391 26.3244C6.60391 26.1975 6.79703 26.075 6.99266 25.9575C7.18891 25.84 7.38766 25.7275 7.58953 25.62C7.79078 25.5119 7.99516 25.4094 8.20141 25.3119C8.40828 25.2138 8.61703 25.1213 8.82828 25.0338C9.03953 24.9463 9.25266 24.8644 9.46766 24.7875C9.68266 24.71 9.90016 24.6388 10.1189 24.5719C10.337 24.5056 10.5577 24.445 10.7795 24.3894C11.0008 24.3338 11.2239 24.2838 11.4483 24.2394C11.672 24.1944 11.897 24.1556 12.1233 24.1219C12.3495 24.0888 12.5764 24.0606 12.8039 24.0381C13.0314 24.0156 13.2589 23.9988 13.487 23.9875C13.7158 23.9763 13.9439 23.9706 14.1727 23.9706C14.4014 23.9706 14.6295 23.9763 14.8577 23.9875C15.0864 23.9988 15.3139 24.0156 15.5414 24.0381C15.7689 24.0606 15.9958 24.0888 16.222 24.1219C16.4477 24.1556 16.6727 24.1944 16.897 24.2394C17.1214 24.2838 17.3439 24.3338 17.5658 24.3894C17.7877 24.445 18.0077 24.5056 18.2264 24.5719C18.4452 24.6388 18.662 24.71 18.8777 24.7875C19.0927 24.8644 19.3058 24.9463 19.517 25.0338C19.7283 25.1213 19.937 25.2138 20.1439 25.3119C20.3502 25.4094 20.5545 25.5119 20.7558 25.62C20.9577 25.7275 21.1564 25.84 21.352 25.9575C21.5483 26.075 21.7414 26.1975 21.9314 26.3244C22.1214 26.4513 22.3083 26.5831 22.492 26.7194C22.6752 26.855 22.8558 26.9956 23.032 27.1406C23.2089 27.2856 23.382 27.435 23.5514 27.5888C23.7208 27.7419 23.8858 27.8994 24.0477 28.0613C24.2095 28.2231 24.367 28.3881 24.5202 28.5575C24.6739 28.7269 24.8233 28.9 24.9683 29.0769C25.1133 29.2531 25.2539 29.4338 25.3895 29.6169C25.5258 29.8006 25.6577 29.9875 25.7845 30.1775C25.9114 30.3675 26.0339 30.5606 26.1514 30.7569C26.2689 30.9525 26.3814 31.1513 26.4889 31.3531C26.597 31.5544 26.6995 31.7588 26.797 31.9656C26.8952 32.1719 26.9877 32.3806 27.0752 32.5919C27.1627 32.8031 27.2445 33.0163 27.3214 33.2313C27.3989 33.4469 27.4702 33.6638 27.537 33.8825C27.6033 34.1013 27.6639 34.3213 27.7195 34.5431C27.7752 34.765 27.8252 34.9875 27.8695 35.2119C27.9145 35.4363 27.9533 35.6613 27.987 35.8869C28.0202 36.1131 28.0483 36.34 28.0708 36.5675C28.0933 36.795 28.1102 37.0225 28.1214 37.2513C28.1327 37.4794 28.1383 37.7075 28.1383 37.9363C28.1377 38.165 28.132 38.3931 28.1208 38.6213C28.1089 38.8494 28.092 39.0775 28.0695 39.305C28.047 39.5319 28.0189 39.7588 27.9852 39.985C27.9514 40.2106 27.912 40.4356 27.867 40.66C27.8227 40.8838 27.772 41.1069 27.7164 41.3281C27.6608 41.55 27.5995 41.77 27.5333 41.9888C27.467 42.2075 27.3952 42.4238 27.3177 42.6394C27.2408 42.8544 27.1583 43.0675 27.0708 43.2781C26.9833 43.4894 26.8908 43.6981 26.7927 43.9044C26.6952 44.1113 26.5927 44.315 26.4845 44.5169C26.377 44.7181 26.2639 44.9169 26.1464 45.1125C26.0289 45.3088 25.907 45.5019 25.7795 45.6913C25.6527 45.8813 25.5214 46.0681 25.3852 46.2519C25.2489 46.435 25.1083 46.615 24.9633 46.7919C24.8183 46.9688 24.6689 47.1413 24.5158 47.3106C24.362 47.48 24.2045 47.6456 24.0433 47.8069C23.8814 47.9688 23.7164 48.1263 23.547 48.2794C23.3777 48.4331 23.2045 48.5819 23.0283 48.7269C22.8514 48.8719 22.6714 49.0125 22.4877 49.1488C22.3045 49.285 22.1177 49.4163 21.9277 49.5438C21.7377 49.6706 21.5452 49.7925 21.3489 49.9106C21.1533 50.0281 20.9545 50.1406 20.7527 50.2481C20.5514 50.3563 20.3477 50.4588 20.1408 50.5569C19.9345 50.6544 19.7258 50.7469 19.5145 50.835C19.3033 50.9225 19.0902 51.0044 18.8752 51.0819C18.6602 51.1588 18.4433 51.2306 18.2252 51.2969C18.0064 51.3638 17.7864 51.4244 17.5645 51.4806C17.3427 51.5363 17.1202 51.5863 16.8958 51.6313C16.672 51.6756 16.447 51.715 16.2208 51.7488C15.9952 51.7825 15.7683 51.8106 15.5408 51.8331C15.3133 51.8556 15.0858 51.8731 14.8577 51.8844C14.6295 51.8956 14.4008 51.9019 14.1727 51.9019ZM14.1727 25.8331C13.9745 25.8331 13.7764 25.8375 13.5789 25.8475C13.3808 25.8575 13.1833 25.8719 12.9864 25.8913C12.7889 25.9106 12.5927 25.935 12.3964 25.9638C12.2008 25.9931 12.0058 26.0269 11.8114 26.0656C11.617 26.1044 11.4239 26.1475 11.2314 26.1956C11.0395 26.2438 10.8489 26.2963 10.6589 26.3544C10.4695 26.4119 10.2814 26.4738 10.0952 26.5406C9.90828 26.6069 9.72391 26.6781 9.54078 26.7544C9.35766 26.83 9.17703 26.91 8.99766 26.995C8.81891 27.0794 8.64203 27.1688 8.46703 27.2619C8.29266 27.3556 8.12016 27.4531 7.95016 27.555C7.78016 27.6569 7.61266 27.7625 7.44828 27.8725C7.28328 27.9825 7.12141 28.0969 6.96266 28.215C6.80328 28.3325 6.64703 28.4544 6.49453 28.58C6.34141 28.7056 6.19141 28.835 6.04453 28.9681C5.89766 29.1013 5.75391 29.2381 5.61391 29.3781C5.47391 29.5181 5.33766 29.6613 5.20453 29.8081C5.07141 29.955 4.94203 30.105 4.81641 30.2581C4.69078 30.4113 4.56891 30.5675 4.45078 30.7263C4.33328 30.8856 4.21891 31.0475 4.10891 31.2119C3.99891 31.3769 3.89266 31.5438 3.79141 31.7138C3.68953 31.8838 3.59141 32.0563 3.49828 32.2306C3.40516 32.4056 3.31578 32.5825 3.23141 32.7613C3.14641 32.9406 3.06641 33.1213 2.99016 33.3044C2.91453 33.4875 2.84328 33.6725 2.77641 33.8588C2.71016 34.045 2.64766 34.2331 2.59016 34.4231C2.53266 34.6125 2.48016 34.8031 2.43203 34.9956C2.38391 35.1875 2.34016 35.3806 2.30141 35.575C2.26328 35.7694 2.22891 35.9644 2.20016 36.1606C2.17078 36.3563 2.14703 36.5531 2.12766 36.75C2.10828 36.9469 2.09328 37.1444 2.08391 37.3425C2.07391 37.54 2.06891 37.7381 2.06891 37.9363C2.06891 38.1344 2.07391 38.3325 2.08391 38.53C2.09328 38.7281 2.10828 38.9256 2.12766 39.1225C2.14703 39.32 2.17078 39.5163 2.20016 39.7125C2.22891 39.9081 2.26328 40.1031 2.30141 40.2975C2.34016 40.4919 2.38391 40.685 2.43203 40.8775C2.48016 41.0694 2.53266 41.26 2.59016 41.45C2.64766 41.6394 2.71016 41.8275 2.77641 42.0138C2.84328 42.2006 2.91453 42.385 2.99016 42.5681C3.06641 42.7513 3.14641 42.9319 3.23141 43.1113C3.31578 43.29 3.40516 43.4669 3.49828 43.6419C3.59141 43.8163 3.68953 43.9888 3.79141 44.1588C3.89266 44.3288 3.99891 44.4963 4.10891 44.6606C4.21891 44.8256 4.33328 44.9875 4.45078 45.1463C4.56891 45.3056 4.69078 45.4613 4.81641 45.6144C4.94203 45.7675 5.07141 45.9175 5.20453 46.0644C5.33766 46.2113 5.47391 46.355 5.61391 46.495C5.75391 46.635 5.89766 46.7713 6.04453 46.9044C6.19141 47.0375 6.34141 47.1669 6.49453 47.2925C6.64703 47.4181 6.80328 47.54 6.96266 47.6581C7.12141 47.7756 7.28328 47.89 7.44828 48C7.61266 48.11 7.78016 48.2163 7.95016 48.3175C8.12016 48.4194 8.29266 48.5175 8.46703 48.6106C8.64203 48.7038 8.81891 48.7931 8.99766 48.8775C9.17703 48.9625 9.35766 49.0425 9.54078 49.1188C9.72391 49.1944 9.90828 49.2656 10.0952 49.3325C10.2814 49.3988 10.4695 49.4613 10.6589 49.5188C10.8489 49.5763 11.0395 49.6288 11.2314 49.6769C11.4239 49.725 11.617 49.7688 11.8114 49.8075C12.0058 49.8456 12.2008 49.88 12.3964 49.9088C12.5927 49.9381 12.7889 49.9619 12.9864 49.9813C13.1833 50.0006 13.3808 50.0156 13.5789 50.025C13.7764 50.035 13.9745 50.04 14.1727 50.04C14.3708 50.04 14.5689 50.035 14.7664 50.025C14.9645 50.0156 15.162 50.0006 15.3589 49.9813C15.5558 49.9619 15.7527 49.9381 15.9483 49.9088C16.1445 49.88 16.3395 49.8456 16.5339 49.8075C16.7283 49.7688 16.9214 49.725 17.1133 49.6769C17.3058 49.6288 17.4964 49.5763 17.6858 49.5188C17.8758 49.4613 18.0633 49.3988 18.2502 49.3325C18.4364 49.2656 18.6214 49.1944 18.8045 49.1188C18.9877 49.0425 19.1683 48.9625 19.3477 48.8775C19.5264 48.7931 19.7033 48.7038 19.8783 48.6106C20.0527 48.5175 20.2252 48.4194 20.3952 48.3175C20.5652 48.2163 20.732 48.11 20.897 48C21.0614 47.89 21.2233 47.7756 21.3827 47.6581C21.5414 47.54 21.6977 47.4181 21.8508 47.2925C22.0039 47.1669 22.1539 47.0375 22.3008 46.9044C22.4477 46.7713 22.5908 46.635 22.7308 46.495C22.8708 46.355 23.0077 46.2113 23.1408 46.0644C23.2739 45.9175 23.4033 45.7675 23.5289 45.6144C23.6545 45.4619 23.7764 45.3056 23.8939 45.1463C24.012 44.9875 24.1264 44.8256 24.2364 44.6606C24.3464 44.4963 24.452 44.3288 24.5539 44.1588C24.6558 43.9888 24.7533 43.8163 24.847 43.6419C24.9402 43.4669 25.0295 43.29 25.1139 43.1113C25.1989 42.9319 25.2789 42.7513 25.3545 42.5681C25.4308 42.385 25.502 42.2006 25.5683 42.0138C25.6352 41.8275 25.6977 41.6394 25.7552 41.45C25.8127 41.26 25.8652 41.0694 25.9133 40.8775C25.9614 40.685 26.0045 40.4919 26.0433 40.2975C26.082 40.1031 26.1158 39.9081 26.1452 39.7125C26.1739 39.5163 26.1983 39.32 26.2177 39.1225C26.237 38.9256 26.2514 38.7281 26.2614 38.53C26.2714 38.3325 26.2758 38.1344 26.2758 37.9363C26.2758 37.7381 26.2708 37.5406 26.2608 37.3425C26.2508 37.145 26.2358 36.9475 26.2164 36.7506C26.197 36.5531 26.1727 36.3569 26.1433 36.1613C26.1139 35.965 26.0802 35.77 26.0414 35.5763C26.002 35.3819 25.9589 35.1888 25.9108 34.9969C25.862 34.8044 25.8095 34.6138 25.7514 34.4244C25.6939 34.235 25.632 34.0469 25.5652 33.8606C25.4983 33.6744 25.427 33.4894 25.3508 33.3069C25.2752 33.1238 25.1945 32.9431 25.1102 32.7638C25.0252 32.585 24.9364 32.4081 24.8427 32.2338C24.7495 32.0588 24.6514 31.8869 24.5495 31.7169C24.4477 31.5469 24.342 31.38 24.232 31.2156C24.122 31.0506 24.0077 30.8888 23.8895 30.73C23.772 30.5706 23.6502 30.415 23.5245 30.2619C23.3989 30.1088 23.2695 29.9588 23.1364 29.8119C23.0033 29.6656 22.867 29.5219 22.727 29.3819C22.587 29.2419 22.4433 29.1056 22.297 28.9725C22.1502 28.8394 22.0002 28.71 21.847 28.5844C21.6939 28.4588 21.5383 28.3369 21.3789 28.2194C21.2202 28.1013 21.0583 27.9869 20.8933 27.8769C20.7289 27.7669 20.562 27.6613 20.392 27.5594C20.222 27.4575 20.0502 27.3594 19.8752 27.2663C19.7008 27.1725 19.5239 27.0838 19.3452 26.9988C19.1658 26.9144 18.9852 26.8338 18.802 26.7581C18.6195 26.6819 18.4345 26.6106 18.2483 26.5438C18.062 26.4769 17.8739 26.415 17.6845 26.3575C17.4952 26.2994 17.3045 26.2469 17.112 26.1981C16.9202 26.15 16.727 26.1069 16.5327 26.0675C16.3389 26.0288 16.1439 25.995 15.9477 25.9656C15.752 25.9363 15.5558 25.9119 15.3583 25.8925C15.1614 25.8731 14.9639 25.8581 14.7664 25.8481C14.5683 25.8381 14.3708 25.8331 14.1727 25.8331Z" fill="#861FEF"/>
</g>
<path d="M14.1724 47.2469C13.8674 47.2469 13.5631 47.2319 13.2599 47.2019C12.9562 47.1719 12.6549 47.1275 12.3562 47.0675C12.0568 47.0081 11.7612 46.9344 11.4699 46.8456C11.1781 46.7575 10.8912 46.6544 10.6093 46.5381C10.3274 46.4213 10.0524 46.2913 9.78369 46.1475C9.51432 46.0038 9.25307 45.8469 8.99994 45.6775C8.74619 45.5081 8.50182 45.3269 8.26619 45.1331C8.02994 44.94 7.80432 44.7356 7.58869 44.52C7.37307 44.3044 7.16869 44.0788 6.97557 43.8425C6.78182 43.6069 6.60057 43.3625 6.43119 43.1088C6.26182 42.8556 6.10494 42.5944 5.96119 42.325C5.81744 42.0563 5.68744 41.7813 5.57057 41.4994C5.45432 41.2175 5.35119 40.9306 5.26307 40.6388C5.17432 40.3475 5.10057 40.0519 5.04119 39.7525C4.98119 39.4538 4.93682 39.1525 4.90682 38.8488C4.87682 38.5456 4.86182 38.2413 4.86182 37.9363C4.86182 37.6313 4.87682 37.3275 4.90682 37.0238C4.93682 36.72 4.98119 36.4188 5.04119 36.12C5.10057 35.8206 5.17432 35.5256 5.26307 35.2338C5.35119 34.9419 5.45432 34.655 5.57057 34.3731C5.68744 34.0919 5.81744 33.8163 5.96119 33.5475C6.10494 33.2788 6.26182 33.0175 6.43119 32.7638C6.60057 32.51 6.78182 32.2656 6.97557 32.03C7.16869 31.7944 7.37307 31.5688 7.58869 31.3531C7.80432 31.1375 8.02994 30.9325 8.26619 30.7394C8.50182 30.5456 8.74619 30.3644 8.99994 30.195C9.25307 30.0256 9.51432 29.8694 9.78369 29.7256C10.0524 29.5819 10.3274 29.4513 10.6093 29.335C10.8912 29.2181 11.1781 29.1156 11.4699 29.0269C11.7612 28.9381 12.0568 28.8644 12.3562 28.805C12.6549 28.7456 12.9562 28.7006 13.2599 28.6706C13.5631 28.6413 13.8674 28.6263 14.1724 28.6263C14.4774 28.6263 14.7812 28.6413 15.0849 28.6706C15.3887 28.7006 15.6899 28.7456 15.9887 28.805C16.2881 28.8644 16.5831 28.9381 16.8749 29.0269C17.1668 29.1156 17.4537 29.2181 17.7356 29.335C18.0168 29.4513 18.2924 29.5819 18.5612 29.7256C18.8299 29.8694 19.0912 30.0256 19.3449 30.195C19.5987 30.3644 19.8431 30.5456 20.0787 30.7394C20.3143 30.9325 20.5399 31.1375 20.7556 31.3531C20.9712 31.5688 21.1762 31.7944 21.3693 32.03C21.5631 32.2656 21.7443 32.51 21.9137 32.7638C22.0831 33.0175 22.2393 33.2788 22.3831 33.5475C22.5268 33.8163 22.6574 34.0919 22.7737 34.3731C22.8906 34.655 22.9931 34.9419 23.0818 35.2338C23.1706 35.5256 23.2443 35.8206 23.3037 36.12C23.3631 36.4188 23.4081 36.72 23.4381 37.0238C23.4674 37.3275 23.4824 37.6313 23.4824 37.9363C23.4824 38.2413 23.4668 38.545 23.4368 38.8488C23.4068 39.1519 23.3618 39.4531 23.3018 39.7519C23.2424 40.0506 23.1681 40.3463 23.0793 40.6375C22.9906 40.9294 22.8881 41.2163 22.7712 41.4975C22.6543 41.7794 22.5237 42.0544 22.3799 42.3231C22.2362 42.5919 22.0799 42.8531 21.9106 43.1063C21.7406 43.36 21.5593 43.6044 21.3662 43.84C21.1724 44.0756 20.9681 44.3013 20.7524 44.5163C20.5368 44.7319 20.3112 44.9363 20.0756 45.13C19.8399 45.3231 19.5956 45.505 19.3424 45.6744C19.0887 45.8438 18.8281 46 18.5593 46.1444C18.2906 46.2881 18.0149 46.4181 17.7337 46.535C17.4518 46.6519 17.1656 46.7544 16.8737 46.8431C16.5824 46.9319 16.2868 47.0063 15.9881 47.0663C15.6893 47.1256 15.3881 47.1706 15.0843 47.2006C14.7812 47.2313 14.4774 47.2463 14.1724 47.2469ZM14.1724 30.4881C13.9287 30.4881 13.6849 30.5 13.4424 30.5238C13.1993 30.5481 12.9587 30.5838 12.7193 30.6313C12.4799 30.6788 12.2437 30.7381 12.0099 30.8088C11.7768 30.8794 11.5474 30.9619 11.3218 31.055C11.0968 31.1481 10.8762 31.2525 10.6612 31.3675C10.4462 31.4825 10.2374 31.6075 10.0343 31.7431C9.83119 31.8788 9.63557 32.0238 9.44744 32.1788C9.25869 32.3338 9.07807 32.4969 8.90557 32.6694C8.73307 32.8419 8.56932 33.0225 8.41494 33.2113C8.25994 33.4 8.11494 33.5956 7.97932 33.7981C7.84369 34.0013 7.71869 34.21 7.60369 34.425C7.48869 34.6406 7.38432 34.8606 7.29119 35.0863C7.19744 35.3113 7.11557 35.5406 7.04494 35.7744C6.97369 36.0075 6.91494 36.2438 6.86744 36.4831C6.81932 36.7225 6.78369 36.9638 6.75994 37.2063C6.73619 37.4488 6.72432 37.6925 6.72432 37.9363C6.72432 38.18 6.73619 38.4238 6.75994 38.6663C6.78369 38.9094 6.81932 39.15 6.86744 39.3894C6.91494 39.6288 6.97369 39.865 7.04494 40.0988C7.11557 40.3319 7.19744 40.5613 7.29119 40.7869C7.38432 41.0119 7.48869 41.2325 7.60369 41.4475C7.71869 41.6625 7.84369 41.8713 7.97932 42.0744C8.11494 42.2775 8.25994 42.4731 8.41494 42.6613C8.56932 42.85 8.73307 43.0306 8.90557 43.2031C9.07807 43.3756 9.25869 43.5394 9.44744 43.6938C9.63557 43.8488 9.83119 43.9938 10.0343 44.1294C10.2374 44.265 10.4462 44.39 10.6612 44.505C10.8762 44.62 11.0968 44.7244 11.3218 44.8175C11.5474 44.9113 11.7768 44.9931 12.0099 45.0638C12.2437 45.135 12.4799 45.1938 12.7193 45.2413C12.9587 45.2894 13.1993 45.325 13.4424 45.3488C13.6849 45.3725 13.9287 45.3844 14.1724 45.3844C14.4162 45.3844 14.6599 45.3725 14.9024 45.3488C15.1449 45.325 15.3862 45.2894 15.6256 45.2413C15.8649 45.1938 16.1012 45.135 16.3343 45.0638C16.5681 44.9931 16.7974 44.9113 17.0224 44.8175C17.2481 44.7244 17.4681 44.62 17.6837 44.505C17.8987 44.39 18.1074 44.265 18.3106 44.1294C18.5131 43.9938 18.7087 43.8488 18.8974 43.6938C19.0862 43.5394 19.2668 43.3756 19.4393 43.2031C19.6118 43.0306 19.7749 42.85 19.9299 42.6613C20.0849 42.4731 20.2299 42.2775 20.3656 42.0744C20.5012 41.8713 20.6262 41.6625 20.7412 41.4475C20.8562 41.2325 20.9606 41.0119 21.0537 40.7869C21.1468 40.5613 21.2293 40.3319 21.2999 40.0988C21.3706 39.865 21.4299 39.6288 21.4774 39.3894C21.5249 39.15 21.5606 38.9094 21.5849 38.6663C21.6087 38.4238 21.6206 38.18 21.6206 37.9363C21.6206 37.6925 21.6081 37.4494 21.5837 37.2063C21.5599 36.9638 21.5237 36.7231 21.4762 36.4838C21.4281 36.245 21.3687 36.0088 21.2981 35.775C21.2268 35.5419 21.1449 35.3125 21.0512 35.0875C20.9581 34.8619 20.8537 34.6419 20.7387 34.4269C20.6237 34.2119 20.4981 34.0031 20.3624 33.8C20.2274 33.5975 20.0818 33.4019 19.9274 33.2138C19.7724 33.025 19.6093 32.8444 19.4368 32.6719C19.2643 32.4994 19.0837 32.3363 18.8949 32.1813C18.7068 32.0269 18.5112 31.8813 18.3087 31.7463C18.1056 31.6106 17.8968 31.485 17.6818 31.37C17.4668 31.255 17.2468 31.1506 17.0212 31.0575C16.7962 30.9638 16.5668 30.8819 16.3337 30.8106C16.0999 30.74 15.8637 30.6806 15.6249 30.6325C15.3856 30.585 15.1449 30.5488 14.9024 30.525C14.6593 30.5006 14.4162 30.4881 14.1724 30.4881Z" fill="#861FEF"/>
<path d="M27.2069 20.2431C27.1456 20.2431 27.085 20.2369 27.025 20.225C26.965 20.2131 26.9069 20.1956 26.8506 20.1725C26.7938 20.1487 26.7406 20.12 26.6894 20.0862C26.6388 20.0525 26.5919 20.0137 26.5481 19.9706C26.505 19.9275 26.4663 19.88 26.4325 19.8294C26.3988 19.7787 26.37 19.725 26.3469 19.6681C26.3231 19.6119 26.3056 19.5537 26.2938 19.4937C26.2819 19.4337 26.2756 19.3731 26.2756 19.3119C26.2756 19.1044 26.2669 18.8969 26.25 18.6894C26.2325 18.4825 26.2063 18.2762 26.1719 18.0712C26.1369 17.8662 26.0938 17.6631 26.0419 17.4619C25.9906 17.2606 25.9306 17.0619 25.8625 16.8656C25.7938 16.6694 25.7175 16.4762 25.6331 16.2862C25.5488 16.0962 25.4563 15.91 25.3563 15.7281C25.2563 15.5456 25.1488 15.3681 25.0338 15.195C24.9188 15.0219 24.7969 14.8537 24.6681 14.6906C24.5394 14.5275 24.4038 14.3706 24.2613 14.2187C24.1194 14.0669 23.9713 13.9219 23.8169 13.7825C23.6625 13.6431 23.5025 13.5106 23.3369 13.385C23.1719 13.2587 23.0013 13.14 22.8263 13.0287C22.6506 12.9169 22.4706 12.8131 22.2869 12.7162C22.1025 12.62 21.915 12.5312 21.7238 12.45C21.5319 12.3694 21.3375 12.2969 21.14 12.2319C20.9425 12.1675 20.7425 12.1112 20.54 12.0637C20.3381 12.0156 20.1338 11.9762 19.9281 11.9456C19.7231 11.915 19.5163 11.8931 19.3088 11.8794C19.1013 11.8656 18.8938 11.8612 18.6863 11.865C18.4781 11.8687 18.2713 11.8812 18.0644 11.9025C17.8575 11.9237 17.6519 11.9537 17.4475 11.9925C17.2431 12.0306 17.0413 12.0775 16.8406 12.1331C16.6406 12.1887 16.4425 12.2525 16.2475 12.3244C16.0525 12.3962 15.8613 12.4762 15.6725 12.5637C15.4844 12.6519 15.3 12.7475 15.12 12.8512C14.9394 12.9544 14.7638 13.065 14.5931 13.1831C14.4219 13.3012 14.2563 13.4262 14.0956 13.5587C13.935 13.6906 13.78 13.8287 13.6313 13.9737C13.4825 14.1187 13.3394 14.27 13.2031 14.4269C13.0669 14.5837 12.9375 14.7456 12.8144 14.9137C12.6919 15.0812 12.5763 15.2537 12.4681 15.4312C12.3594 15.6087 12.2588 15.79 12.1656 15.9762C12.1381 16.0306 12.1056 16.0819 12.0681 16.13C12.0306 16.1787 11.9888 16.2225 11.9425 16.2625C11.8963 16.3025 11.8469 16.3375 11.7938 16.3675C11.7406 16.3981 11.685 16.4225 11.6269 16.4419C11.5688 16.4612 11.51 16.4744 11.4494 16.4819C11.3888 16.4894 11.3275 16.4912 11.2669 16.4869C11.2056 16.4825 11.1456 16.4719 11.0869 16.4556C11.0281 16.4394 10.9713 16.4175 10.9169 16.3906C10.8619 16.3631 10.8106 16.3306 10.7625 16.2931C10.7144 16.2556 10.67 16.2137 10.63 16.1675C10.59 16.1212 10.555 16.0712 10.525 16.0181C10.4944 15.9656 10.47 15.91 10.4506 15.8519C10.4313 15.7937 10.4181 15.7344 10.4106 15.6737C10.4031 15.6131 10.4013 15.5525 10.4056 15.4912C10.41 15.4306 10.4206 15.3706 10.4363 15.3119C10.4525 15.2525 10.4744 15.1962 10.5019 15.1412C10.6181 14.9094 10.7444 14.6819 10.8794 14.4606C11.015 14.2387 11.1594 14.0231 11.3131 13.8131C11.4663 13.6037 11.6281 13.4006 11.7988 13.205C11.9694 13.0087 12.1475 12.82 12.3338 12.6387C12.52 12.4575 12.7131 12.285 12.9138 12.12C13.115 11.955 13.3219 11.7987 13.5356 11.6506C13.7494 11.5031 13.9694 11.365 14.1944 11.2356C14.42 11.1062 14.65 10.9869 14.8856 10.8769C15.1213 10.7669 15.3606 10.6669 15.6044 10.5769C15.8481 10.4869 16.095 10.4075 16.3456 10.3381C16.5956 10.2687 16.8488 10.2106 17.1044 10.1625C17.3594 10.1144 17.6163 10.0769 17.875 10.0506C18.1331 10.0237 18.3925 10.0081 18.6519 10.0031C18.9119 9.99812 19.1713 10.0044 19.4306 10.0212C19.69 10.0381 19.9481 10.0656 20.205 10.1044C20.4619 10.1425 20.7169 10.1919 20.9694 10.2519C21.2225 10.3112 21.4719 10.3819 21.7188 10.4625C21.9663 10.5431 22.2094 10.6337 22.4488 10.735C22.6881 10.8362 22.9225 10.9469 23.1525 11.0675C23.3825 11.1881 23.6075 11.3181 23.8263 11.4581C24.0456 11.5975 24.2588 11.7456 24.465 11.9031C24.6719 12.0606 24.8719 12.2262 25.065 12.4C25.2575 12.5744 25.4431 12.7562 25.6206 12.9456C25.7981 13.135 25.9675 13.3319 26.1288 13.5356C26.29 13.7394 26.4425 13.9494 26.5863 14.1656C26.7294 14.3825 26.8638 14.6044 26.9888 14.8325C27.1138 15.06 27.2294 15.2925 27.335 15.53C27.4406 15.7675 27.5356 16.0087 27.6213 16.2544C27.7063 16.4994 27.7813 16.7481 27.8463 16.9994C27.9106 17.2512 27.9644 17.505 28.0075 17.7612C28.0513 18.0175 28.0838 18.275 28.105 18.5337C28.1269 18.7931 28.1381 19.0519 28.1381 19.3119C28.1381 19.3731 28.1319 19.4337 28.12 19.4937C28.1081 19.5537 28.0906 19.6119 28.0675 19.6681C28.0438 19.725 28.015 19.7787 27.9813 19.8294C27.9475 19.88 27.9088 19.9275 27.8656 19.9706C27.8219 20.0137 27.775 20.0525 27.7244 20.0862C27.6731 20.12 27.62 20.1487 27.5631 20.1725C27.5069 20.1956 27.4488 20.2131 27.3888 20.225C27.3288 20.2369 27.2681 20.2431 27.2069 20.2431Z" fill="#861FEF"/>
<path d="M27.2066 38.8675C27.1454 38.8675 27.0848 38.8613 27.0248 38.8494C26.9648 38.8375 26.9066 38.82 26.8504 38.7969C26.7935 38.7731 26.7404 38.7444 26.6891 38.7106C26.6385 38.6769 26.5916 38.6381 26.5479 38.595C26.5048 38.5519 26.466 38.5044 26.4323 38.4538C26.3985 38.4031 26.3698 38.3494 26.3466 38.2925C26.3229 38.2363 26.3054 38.1781 26.2935 38.1181C26.2816 38.0581 26.2754 37.9975 26.2754 37.9363V11.8638C26.2754 11.8025 26.2816 11.7419 26.2935 11.6819C26.3054 11.6219 26.3229 11.5638 26.3466 11.5075C26.3698 11.4506 26.3985 11.3975 26.4323 11.3463C26.4666 11.2956 26.5054 11.2488 26.5485 11.2056C26.5916 11.1619 26.6385 11.1238 26.6891 11.0894C26.7404 11.0556 26.7941 11.0269 26.8504 11.0038C26.9066 10.98 26.9648 10.9625 27.0248 10.9506C27.0848 10.9388 27.1454 10.9325 27.2066 10.9325C27.2679 10.9325 27.3285 10.9388 27.3885 10.9506C27.4485 10.9625 27.5066 10.98 27.5629 11.0038C27.6191 11.0269 27.6729 11.0556 27.7241 11.0894C27.7748 11.1238 27.8216 11.1619 27.8648 11.2056C27.9085 11.2488 27.9466 11.2956 27.981 11.3463C28.0148 11.3975 28.0435 11.4506 28.0666 11.5075C28.0904 11.5638 28.1079 11.6219 28.1198 11.6819C28.1316 11.7419 28.1379 11.8025 28.1379 11.8638V37.9363C28.1379 37.9975 28.1316 38.0581 28.1198 38.1181C28.1079 38.1781 28.0904 38.2363 28.0673 38.2925C28.0435 38.3494 28.0148 38.4031 27.981 38.4538C27.9473 38.5044 27.9085 38.5519 27.8654 38.595C27.8216 38.6381 27.7748 38.6769 27.7241 38.7106C27.6729 38.7444 27.6198 38.7731 27.5629 38.7969C27.5066 38.82 27.4485 38.8375 27.3885 38.8494C27.3285 38.8613 27.2679 38.8675 27.2066 38.8675Z" fill="#861FEF"/>
<path d="M2.39272 33.2775C2.35272 33.2775 2.31335 33.275 2.27335 33.2694C2.23398 33.2644 2.1946 33.2569 2.15585 33.2469C2.1171 33.2362 2.0796 33.2237 2.0421 33.2087C2.00523 33.1937 1.9696 33.1762 1.9346 33.1562C1.8996 33.1369 1.86647 33.115 1.8346 33.0906C1.80272 33.0669 1.7721 33.0406 1.74335 33.0131C1.71523 32.985 1.68835 32.9556 1.66335 32.9237C1.63898 32.8925 1.61585 32.86 1.59523 32.8256C1.5746 32.7912 1.55647 32.7556 1.54085 32.7187C1.5246 32.6825 1.51085 32.645 1.4996 32.6062C1.48835 32.5681 1.48023 32.5294 1.47398 32.4894C1.46773 32.45 1.46398 32.4106 1.46335 32.3706C1.4621 32.3306 1.46335 32.2906 1.46773 32.2506C1.47147 32.2112 1.47835 32.1719 1.48773 32.1325C1.4971 32.0937 1.50835 32.0556 1.52273 32.0181C1.53647 31.9806 1.55335 31.9444 1.5721 31.9094L10.5121 15.1212C10.5408 15.0675 10.5746 15.0162 10.6133 14.9687C10.6515 14.9212 10.6946 14.8781 10.7421 14.8394C10.789 14.8 10.8396 14.7662 10.8933 14.7375C10.9471 14.7081 11.0034 14.685 11.0621 14.6669C11.1208 14.6487 11.1802 14.6369 11.2415 14.6306C11.3021 14.6244 11.3633 14.6244 11.424 14.63C11.4852 14.6362 11.5446 14.6475 11.6033 14.6656C11.6621 14.6831 11.7183 14.7062 11.7721 14.735C11.8265 14.7637 11.8771 14.7975 11.9246 14.8362C11.9721 14.875 12.0152 14.9181 12.054 14.965C12.0927 15.0125 12.1265 15.0631 12.1558 15.1169C12.1846 15.1712 12.2077 15.2275 12.2258 15.2856C12.2433 15.3444 12.2558 15.4044 12.2615 15.465C12.2677 15.5262 12.2677 15.5869 12.2615 15.6481C12.2558 15.7087 12.244 15.7687 12.2258 15.8275C12.2083 15.8856 12.1846 15.9419 12.1558 15.9962L3.21585 32.7837C3.17585 32.8581 3.1271 32.9262 3.06897 32.9875C3.01085 33.0487 2.94523 33.1012 2.87273 33.145C2.80023 33.1881 2.72335 33.2212 2.6421 33.2437C2.56022 33.2662 2.4771 33.2775 2.39272 33.2775Z" fill="#861FEF"/>
<path d="M27.2071 12.795C27.1458 12.795 27.0852 12.7888 27.0252 12.7769C26.9652 12.765 26.9071 12.7475 26.8508 12.7238C26.794 12.7006 26.7408 12.6719 26.6896 12.6381C26.639 12.6038 26.5921 12.5656 26.5483 12.5225C26.5052 12.4788 26.4671 12.4319 26.4327 12.3813C26.399 12.33 26.3702 12.2769 26.3471 12.22C26.3233 12.1638 26.3058 12.1056 26.294 12.0456C26.2821 11.9856 26.2758 11.925 26.2758 11.8638C26.2758 11.7494 26.2708 11.635 26.2602 11.5213C26.2496 11.4069 26.234 11.2938 26.2127 11.1813C26.1921 11.0688 26.1658 10.9575 26.1346 10.8469C26.1033 10.7369 26.0671 10.6288 26.0258 10.5219C25.9846 10.415 25.9383 10.31 25.8871 10.2075C25.8365 10.105 25.7808 10.005 25.7208 9.9075C25.6608 9.81063 25.5958 9.71563 25.5271 9.62438C25.4583 9.53313 25.3852 9.445 25.3083 9.36C25.2315 9.27563 25.1508 9.19438 25.0665 9.11688C24.9821 9.04 24.894 8.96625 24.8027 8.8975C24.7115 8.82813 24.6177 8.76313 24.5202 8.7025C24.4233 8.64188 24.3233 8.58625 24.2208 8.535C24.1183 8.48375 24.014 8.43688 23.9077 8.39563C23.8008 8.35375 23.6927 8.31688 23.5827 8.285C23.4727 8.25375 23.3615 8.22688 23.249 8.20563C23.1365 8.18438 23.0233 8.16813 22.909 8.15688C22.7952 8.14563 22.6808 8.14 22.5665 8.13938C22.4521 8.13938 22.3377 8.14375 22.224 8.15375C22.1096 8.16438 21.9965 8.17938 21.8833 8.2C21.7708 8.22063 21.6596 8.24625 21.549 8.27688C21.439 8.3075 21.3302 8.34313 21.2233 8.38438C21.1165 8.425 21.0115 8.47063 20.909 8.52125C20.8058 8.57188 20.7058 8.62688 20.6083 8.68625C20.5102 8.74625 20.4158 8.81 20.324 8.87875C20.2321 8.94688 20.144 9.02 20.059 9.09625C19.9733 9.17313 19.8921 9.25313 19.8146 9.3375C19.7371 9.42125 19.6633 9.50875 19.5933 9.6C19.524 9.69063 19.459 9.785 19.3977 9.88188C19.3371 9.97875 19.2802 10.0781 19.229 10.18C19.1771 10.2825 19.1302 10.3869 19.0877 10.4931C19.0458 10.5994 19.0083 10.7075 18.9765 10.8175C18.944 10.9275 18.9171 11.0388 18.8952 11.1506C18.8833 11.2106 18.8665 11.2694 18.8433 11.3256C18.8202 11.3825 18.7915 11.4363 18.7583 11.4869C18.7246 11.5381 18.6858 11.5856 18.6433 11.6288C18.6002 11.6725 18.5533 11.7113 18.5027 11.7456C18.4521 11.7794 18.3983 11.8088 18.3421 11.8325C18.2858 11.8563 18.2277 11.8738 18.1683 11.8863C18.1083 11.8988 18.0477 11.905 17.9865 11.905C17.9252 11.9056 17.8652 11.9 17.8052 11.8881C17.7452 11.8769 17.6865 11.8594 17.6302 11.8363C17.5733 11.8131 17.5196 11.785 17.469 11.7513C17.4177 11.7175 17.3702 11.6794 17.3271 11.6363C17.2833 11.5931 17.2446 11.5463 17.2102 11.4956C17.1765 11.445 17.1471 11.3919 17.1233 11.3356C17.0996 11.2794 17.0821 11.2213 17.0696 11.1613C17.0571 11.1013 17.0508 11.0406 17.0508 10.98C17.0502 10.9188 17.0558 10.8581 17.0677 10.7981C17.1002 10.6294 17.1408 10.4625 17.189 10.2981C17.2371 10.1331 17.2927 9.97063 17.3558 9.81125C17.419 9.65125 17.4896 9.495 17.5671 9.34125C17.6446 9.18813 17.729 9.03875 17.8202 8.89313C17.9115 8.74813 18.0096 8.60688 18.114 8.47063C18.2183 8.33375 18.3283 8.2025 18.4452 8.07625C18.5615 7.95 18.6833 7.82938 18.8108 7.71438C18.9383 7.59938 19.0715 7.49063 19.209 7.38813C19.3465 7.285 19.4883 7.18875 19.6352 7.09938C19.7815 7.00938 19.9321 6.92688 20.0858 6.85125C20.2402 6.775 20.3977 6.70688 20.5577 6.64563C20.7183 6.58375 20.8815 6.53 21.0465 6.48375C21.2121 6.4375 21.3796 6.39938 21.5483 6.36813C21.7171 6.3375 21.8871 6.31438 22.0583 6.29938C22.2296 6.28438 22.4008 6.27688 22.5727 6.2775C22.7446 6.27813 22.9158 6.28688 23.0871 6.30313C23.2577 6.31938 23.4277 6.34375 23.5965 6.37625C23.7652 6.40813 23.9321 6.44813 24.0971 6.49563C24.2621 6.54313 24.4246 6.59813 24.5846 6.66063C24.7446 6.72313 24.9015 6.79313 25.0552 6.87C25.2083 6.94688 25.3583 7.03063 25.504 7.12125C25.6496 7.2125 25.7908 7.30938 25.9277 7.41313C26.0646 7.51688 26.1965 7.62688 26.3233 7.74313C26.4502 7.85875 26.5708 7.98063 26.6865 8.1075C26.8021 8.235 26.9115 8.36688 27.0146 8.50438C27.1183 8.64125 27.2152 8.78313 27.3052 8.92938C27.3952 9.07563 27.479 9.22563 27.5552 9.37938C27.6315 9.53313 27.7008 9.69 27.7627 9.85063C27.8246 10.0106 27.879 10.1731 27.9258 10.3388C27.9727 10.5038 28.0121 10.6706 28.0433 10.8394C28.0746 11.0088 28.0983 11.1788 28.1146 11.3494C28.1302 11.5206 28.1383 11.6919 28.1383 11.8638C28.1383 11.925 28.1321 11.9856 28.1202 12.0456C28.1083 12.1056 28.0908 12.1638 28.0677 12.22C28.044 12.2769 28.0152 12.33 27.9815 12.3813C27.9477 12.4319 27.909 12.4788 27.8658 12.5225C27.8221 12.5656 27.7752 12.6038 27.7246 12.6381C27.6733 12.6719 27.6202 12.7006 27.5633 12.7238C27.5071 12.7475 27.449 12.765 27.389 12.7769C27.329 12.7888 27.2683 12.795 27.2071 12.795Z" fill="#861FEF"/>
<mask id="mask1_4936_9480" style="mask-type:luminance" maskUnits="userSpaceOnUse" x="31" y="23" width="29" height="29">
<path d="M31.8398 23.84H59.8398V51.96H31.8398V23.84Z" fill="white"/>
</mask>
<g mask="url(#mask1_4936_9480)">
<path d="M45.8274 51.9019C45.5987 51.9019 45.3706 51.8963 45.1424 51.885C44.9137 51.8738 44.6862 51.8569 44.4587 51.8344C44.2312 51.8125 44.0043 51.7844 43.7781 51.7506C43.5524 51.7169 43.3274 51.6781 43.1031 51.6338C42.8787 51.5888 42.6562 51.5388 42.4343 51.4831C42.2124 51.4275 41.9924 51.3669 41.7737 51.3006C41.5549 51.2344 41.3381 51.1625 41.1224 51.0856C40.9074 51.0088 40.6943 50.9263 40.4831 50.8388C40.2718 50.7513 40.0631 50.6588 39.8562 50.5613C39.6499 50.4631 39.4456 50.3606 39.2443 50.2531C39.0424 50.145 38.8437 50.0325 38.6481 49.915C38.4518 49.7975 38.2587 49.675 38.0687 49.5481C37.8787 49.4213 37.6918 49.29 37.5081 49.1538C37.3249 49.0175 37.1443 48.8769 36.9681 48.7319C36.7912 48.5869 36.6181 48.4375 36.4487 48.2844C36.2793 48.1306 36.1143 47.9731 35.9524 47.8113C35.7906 47.65 35.6331 47.4844 35.4799 47.315C35.3262 47.1456 35.1768 46.9725 35.0318 46.7963C34.8868 46.6194 34.7462 46.4394 34.6106 46.2556C34.4743 46.0719 34.3424 45.885 34.2156 45.695C34.0887 45.505 33.9662 45.3119 33.8487 45.1163C33.7312 44.92 33.6187 44.7213 33.5112 44.5194C33.4031 44.3181 33.3006 44.1138 33.2031 43.9075C33.1049 43.7006 33.0124 43.4919 32.9249 43.2806C32.8374 43.0694 32.7556 42.8563 32.6781 42.6413C32.6012 42.4263 32.5299 42.2088 32.4631 41.9906C32.3968 41.7719 32.3362 41.5513 32.2806 41.3294C32.2249 41.1081 32.1749 40.885 32.1306 40.6606C32.0856 40.4369 32.0468 40.2119 32.0131 39.9856C31.9793 39.7594 31.9518 39.5325 31.9293 39.305C31.9068 39.0775 31.8899 38.85 31.8787 38.6219C31.8674 38.3931 31.8618 38.165 31.8618 37.9363C31.8618 37.7075 31.8674 37.4794 31.8787 37.2513C31.8899 37.0225 31.9068 36.795 31.9293 36.5675C31.9518 36.34 31.9793 36.1131 32.0131 35.8869C32.0468 35.6613 32.0856 35.4363 32.1306 35.2119C32.1749 34.9875 32.2249 34.765 32.2806 34.5431C32.3362 34.3213 32.3968 34.1013 32.4631 33.8825C32.5299 33.6638 32.6012 33.4469 32.6781 33.2313C32.7556 33.0163 32.8374 32.8031 32.9249 32.5919C33.0124 32.3806 33.1049 32.1719 33.2031 31.9656C33.3006 31.7588 33.4031 31.5544 33.5112 31.3531C33.6187 31.1513 33.7312 30.9525 33.8487 30.7569C33.9662 30.5606 34.0887 30.3675 34.2156 30.1775C34.3424 29.9875 34.4743 29.8006 34.6106 29.6169C34.7462 29.4338 34.8868 29.2531 35.0318 29.0769C35.1768 28.9 35.3262 28.7269 35.4799 28.5575C35.6331 28.3881 35.7906 28.2231 35.9524 28.0613C36.1143 27.8994 36.2793 27.7419 36.4487 27.5888C36.6181 27.435 36.7912 27.2856 36.9681 27.1406C37.1443 26.9956 37.3249 26.855 37.5081 26.7194C37.6918 26.5831 37.8787 26.4513 38.0687 26.3244C38.2587 26.1975 38.4518 26.075 38.6481 25.9575C38.8437 25.84 39.0424 25.7275 39.2443 25.62C39.4456 25.5119 39.6499 25.4094 39.8562 25.3119C40.0631 25.2138 40.2718 25.1213 40.4831 25.0338C40.6943 24.9463 40.9074 24.8644 41.1224 24.7875C41.3381 24.71 41.5549 24.6388 41.7737 24.5719C41.9924 24.5056 42.2124 24.445 42.4343 24.3894C42.6562 24.3338 42.8787 24.2838 43.1031 24.2394C43.3274 24.1944 43.5524 24.1556 43.7781 24.1219C44.0043 24.0888 44.2312 24.0606 44.4587 24.0381C44.6862 24.0156 44.9137 23.9988 45.1424 23.9875C45.3706 23.9763 45.5987 23.9706 45.8274 23.9706C46.0562 23.9706 46.2843 23.9763 46.5131 23.9875C46.7412 23.9988 46.9687 24.0156 47.1962 24.0381C47.4237 24.0606 47.6506 24.0888 47.8768 24.1219C48.1031 24.1556 48.3281 24.1944 48.5518 24.2394C48.7762 24.2838 48.9993 24.3338 49.2206 24.3894C49.4424 24.445 49.6631 24.5056 49.8812 24.5719C50.0999 24.6388 50.3174 24.71 50.5324 24.7875C50.7474 24.8644 50.9606 24.9463 51.1718 25.0338C51.3831 25.1213 51.5918 25.2138 51.7987 25.3119C52.0049 25.4094 52.2093 25.5119 52.4106 25.62C52.6124 25.7275 52.8112 25.84 53.0074 25.9575C53.2031 26.075 53.3962 26.1975 53.5862 26.3244C53.7762 26.4513 53.9631 26.5831 54.1468 26.7194C54.3306 26.855 54.5106 26.9956 54.6874 27.1406C54.8637 27.2856 55.0368 27.435 55.2062 27.5888C55.3756 27.7419 55.5412 27.8994 55.7024 28.0613C55.8643 28.2231 56.0218 28.3881 56.1756 28.5575C56.3287 28.7269 56.4781 28.9 56.6231 29.0769C56.7681 29.2531 56.9087 29.4338 57.0449 29.6169C57.1812 29.8006 57.3124 29.9875 57.4393 30.1775C57.5662 30.3675 57.6887 30.5606 57.8062 30.7569C57.9237 30.9525 58.0362 31.1513 58.1443 31.3531C58.2518 31.5544 58.3543 31.7588 58.4524 31.9656C58.5499 32.1719 58.6424 32.3806 58.7299 32.5919C58.8174 32.8031 58.8999 33.0163 58.9768 33.2313C59.0537 33.4469 59.1256 33.6638 59.1918 33.8825C59.2581 34.1013 59.3187 34.3213 59.3743 34.5431C59.4299 34.765 59.4799 34.9875 59.5249 35.2119C59.5693 35.4363 59.6081 35.6613 59.6418 35.8869C59.6756 36.1131 59.7037 36.34 59.7256 36.5675C59.7481 36.795 59.7649 37.0225 59.7762 37.2513C59.7874 37.4794 59.7931 37.7075 59.7931 37.9363C59.7931 38.165 59.7868 38.3931 59.7756 38.6213C59.7643 38.8494 59.7468 39.0775 59.7243 39.305C59.7018 39.5319 59.6737 39.7588 59.6399 39.985C59.6062 40.2106 59.5668 40.4356 59.5224 40.66C59.4774 40.8838 59.4274 41.1069 59.3712 41.3281C59.3156 41.55 59.2549 41.77 59.1881 41.9888C59.1218 42.2075 59.0499 42.4238 58.9731 42.6394C58.8956 42.8544 58.8137 43.0675 58.7262 43.2781C58.6381 43.4894 58.5456 43.6981 58.4481 43.9044C58.3499 44.1113 58.2474 44.315 58.1393 44.5169C58.0318 44.7181 57.9193 44.9169 57.8018 45.1125C57.6837 45.3088 57.5618 45.5019 57.4349 45.6913C57.3074 45.8813 57.1762 46.0681 57.0399 46.2519C56.9037 46.435 56.7631 46.615 56.6181 46.7919C56.4731 46.9688 56.3243 47.1413 56.1706 47.3106C56.0174 47.48 55.8599 47.6456 55.6981 47.8069C55.5368 47.9688 55.3712 48.1263 55.2018 48.2794C55.0324 48.4331 54.8599 48.5819 54.6831 48.7269C54.5062 48.8719 54.3262 49.0125 54.1431 49.1488C53.9593 49.285 53.7724 49.4163 53.5824 49.5438C53.3931 49.6706 53.1999 49.7925 53.0037 49.9106C52.8081 50.0281 52.6093 50.1406 52.4081 50.2481C52.2062 50.3563 52.0024 50.4588 51.7956 50.5569C51.5893 50.6544 51.3806 50.7469 51.1693 50.835C50.9587 50.9225 50.7456 51.0044 50.5306 51.0819C50.3149 51.1588 50.0987 51.2306 49.8799 51.2969C49.6612 51.3638 49.4412 51.4244 49.2193 51.4806C48.9981 51.5363 48.7749 51.5863 48.5512 51.6313C48.3268 51.6756 48.1018 51.715 47.8762 51.7488C47.6499 51.7825 47.4231 51.8106 47.1962 51.8331C46.9687 51.8556 46.7406 51.8731 46.5124 51.8844C46.2843 51.8956 46.0562 51.9019 45.8274 51.9019ZM45.8274 25.8331C45.6293 25.8331 45.4312 25.8375 45.2337 25.8475C45.0356 25.8575 44.8381 25.8719 44.6412 25.8913C44.4443 25.9106 44.2474 25.935 44.0518 25.9638C43.8556 25.9931 43.6606 26.0269 43.4662 26.0656C43.2718 26.1044 43.0787 26.1475 42.8868 26.1956C42.6943 26.2438 42.5037 26.2963 42.3143 26.3544C42.1243 26.4119 41.9362 26.4738 41.7499 26.5406C41.5637 26.6069 41.3787 26.6781 41.1956 26.7544C41.0124 26.83 40.8318 26.91 40.6524 26.995C40.4737 27.0794 40.2968 27.1688 40.1218 27.2619C39.9474 27.3556 39.7749 27.4531 39.6049 27.555C39.4349 27.6569 39.2681 27.7625 39.1031 27.8725C38.9387 27.9825 38.7768 28.0969 38.6174 28.215C38.4587 28.3325 38.3024 28.4544 38.1493 28.58C37.9962 28.7056 37.8462 28.835 37.6993 28.9681C37.5524 29.1013 37.4093 29.2381 37.2693 29.3781C37.1293 29.5181 36.9924 29.6613 36.8593 29.8081C36.7262 29.955 36.5968 30.105 36.4712 30.2581C36.3456 30.4113 36.2237 30.5675 36.1062 30.7263C35.9881 30.8856 35.8737 31.0475 35.7637 31.2119C35.6537 31.3769 35.5481 31.5438 35.4462 31.7138C35.3443 31.8838 35.2468 32.0563 35.1531 32.2306C35.0599 32.4056 34.9706 32.5825 34.8862 32.7613C34.8012 32.9406 34.7212 33.1213 34.6456 33.3044C34.5693 33.4875 34.4981 33.6725 34.4318 33.8588C34.3649 34.045 34.3024 34.2331 34.2449 34.4231C34.1874 34.6125 34.1349 34.8031 34.0868 34.9956C34.0387 35.1875 33.9956 35.3806 33.9568 35.575C33.9181 35.7694 33.8843 35.9644 33.8549 36.1606C33.8262 36.3563 33.8018 36.5531 33.7824 36.75C33.7631 36.9469 33.7481 37.1444 33.7387 37.3425C33.7287 37.54 33.7243 37.7381 33.7243 37.9363C33.7243 38.1344 33.7287 38.3325 33.7387 38.53C33.7481 38.7281 33.7631 38.9256 33.7824 39.1225C33.8018 39.32 33.8262 39.5163 33.8549 39.7125C33.8843 39.9081 33.9181 40.1031 33.9568 40.2975C33.9956 40.4919 34.0387 40.685 34.0868 40.8775C34.1349 41.0694 34.1874 41.26 34.2449 41.45C34.3024 41.6394 34.3649 41.8275 34.4318 42.0138C34.4981 42.2006 34.5693 42.385 34.6456 42.5681C34.7212 42.7513 34.8012 42.9319 34.8862 43.1113C34.9706 43.29 35.0599 43.4669 35.1531 43.6419C35.2468 43.8163 35.3443 43.9888 35.4462 44.1588C35.5481 44.3288 35.6537 44.4963 35.7637 44.6606C35.8737 44.8256 35.9881 44.9875 36.1062 45.1463C36.2237 45.3056 36.3456 45.4613 36.4712 45.6144C36.5968 45.7675 36.7262 45.9175 36.8593 46.0644C36.9924 46.2113 37.1293 46.355 37.2693 46.495C37.4093 46.635 37.5524 46.7713 37.6993 46.9044C37.8462 47.0375 37.9962 47.1669 38.1493 47.2925C38.3024 47.4181 38.4587 47.54 38.6174 47.6581C38.7768 47.7756 38.9387 47.89 39.1031 48C39.2681 48.11 39.4349 48.2163 39.6049 48.3175C39.7749 48.4194 39.9474 48.5175 40.1218 48.6106C40.2968 48.7038 40.4737 48.7931 40.6524 48.8775C40.8318 48.9625 41.0124 49.0425 41.1956 49.1188C41.3787 49.1944 41.5637 49.2656 41.7499 49.3325C41.9362 49.3988 42.1243 49.4613 42.3143 49.5188C42.5037 49.5763 42.6943 49.6288 42.8868 49.6769C43.0787 49.725 43.2718 49.7688 43.4662 49.8075C43.6606 49.8456 43.8556 49.88 44.0518 49.9088C44.2474 49.9381 44.4443 49.9619 44.6412 49.9813C44.8381 50.0006 45.0356 50.0156 45.2337 50.025C45.4312 50.035 45.6293 50.04 45.8274 50.04C46.0256 50.04 46.2237 50.035 46.4212 50.025C46.6193 50.0156 46.8168 50.0006 47.0137 49.9813C47.2112 49.9619 47.4074 49.9381 47.6037 49.9088C47.7993 49.88 47.9943 49.8456 48.1887 49.8075C48.3831 49.7688 48.5762 49.725 48.7687 49.6769C48.9606 49.6288 49.1512 49.5763 49.3412 49.5188C49.5306 49.4613 49.7187 49.3988 49.9049 49.3325C50.0918 49.2656 50.2762 49.1944 50.4593 49.1188C50.6424 49.0425 50.8231 48.9625 51.0024 48.8775C51.1812 48.7931 51.3581 48.7038 51.5331 48.6106C51.7074 48.5175 51.8799 48.4194 52.0499 48.3175C52.2199 48.2163 52.3874 48.11 52.5518 48C52.7168 47.89 52.8787 47.7756 53.0374 47.6581C53.1968 47.54 53.3524 47.4181 53.5056 47.2925C53.6587 47.1669 53.8087 47.0375 53.9556 46.9044C54.1024 46.7713 54.2462 46.635 54.3862 46.495C54.5262 46.355 54.6624 46.2113 54.7956 46.0644C54.9287 45.9175 55.0581 45.7675 55.1837 45.6144C55.3093 45.4619 55.4312 45.3056 55.5493 45.1463C55.6668 44.9875 55.7812 44.8256 55.8912 44.6606C56.0012 44.4963 56.1074 44.3288 56.2087 44.1588C56.3106 43.9888 56.4087 43.8163 56.5018 43.6419C56.5949 43.4669 56.6843 43.29 56.7687 43.1113C56.8537 42.9319 56.9337 42.7513 57.0099 42.5681C57.0856 42.385 57.1568 42.2006 57.2237 42.0138C57.2899 41.8275 57.3524 41.6394 57.4099 41.45C57.4674 41.26 57.5199 41.0694 57.5681 40.8775C57.6162 40.685 57.6599 40.4919 57.6987 40.2975C57.7368 40.1031 57.7712 39.9081 57.7999 39.7125C57.8293 39.5163 57.8531 39.32 57.8724 39.1225C57.8918 38.9256 57.9068 38.7281 57.9162 38.53C57.9262 38.3325 57.9312 38.1344 57.9312 37.9363C57.9306 37.7381 57.9256 37.5406 57.9156 37.3425C57.9056 37.145 57.8912 36.9475 57.8712 36.7506C57.8518 36.5531 57.8274 36.3569 57.7981 36.1613C57.7687 35.965 57.7349 35.77 57.6962 35.5763C57.6574 35.3819 57.6137 35.1888 57.5656 34.9969C57.5174 34.8044 57.4643 34.6138 57.4068 34.4244C57.3493 34.235 57.2868 34.0469 57.2199 33.8606C57.1531 33.6744 57.0818 33.4894 57.0062 33.3069C56.9299 33.1238 56.8499 32.9431 56.7649 32.7638C56.6799 32.585 56.5912 32.4081 56.4974 32.2338C56.4043 32.0588 56.3068 31.8869 56.2049 31.7169C56.1031 31.5469 55.9968 31.38 55.8868 31.2156C55.7768 31.0506 55.6631 30.8888 55.5449 30.73C55.4268 30.5706 55.3049 30.415 55.1793 30.2619C55.0537 30.1088 54.9243 29.9588 54.7912 29.8119C54.6587 29.6656 54.5218 29.5219 54.3818 29.3819C54.2418 29.2419 54.0987 29.1056 53.9518 28.9725C53.8049 28.8394 53.6549 28.71 53.5018 28.5844C53.3493 28.4588 53.1931 28.3369 53.0337 28.2194C52.8749 28.1013 52.7131 27.9869 52.5487 27.8769C52.3837 27.7669 52.2168 27.6613 52.0468 27.5594C51.8768 27.4575 51.7049 27.3594 51.5306 27.2663C51.3556 27.1725 51.1787 27.0838 50.9999 26.9988C50.8212 26.9144 50.6399 26.8338 50.4574 26.7581C50.2743 26.6819 50.0893 26.6106 49.9031 26.5438C49.7168 26.4769 49.5287 26.415 49.3393 26.3575C49.1499 26.2994 48.9593 26.2469 48.7674 26.1981C48.5749 26.15 48.3818 26.1069 48.1881 26.0675C47.9937 26.0288 47.7987 25.995 47.6031 25.9656C47.4068 25.9363 47.2106 25.9119 47.0137 25.8925C46.8162 25.8731 46.6187 25.8581 46.4212 25.8481C46.2237 25.8381 46.0256 25.8331 45.8274 25.8331Z" fill="#861FEF"/>
</g>
<path d="M45.8276 47.2469C45.5226 47.2469 45.2188 47.2319 44.9151 47.2019C44.6113 47.1719 44.3101 47.1275 44.0113 47.0675C43.712 47.0081 43.417 46.9344 43.1251 46.8456C42.8332 46.7575 42.5463 46.6544 42.2645 46.5381C41.9832 46.4213 41.7076 46.2913 41.4388 46.1475C41.1701 46.0038 40.9088 45.8469 40.6551 45.6775C40.4013 45.5081 40.157 45.3269 39.9213 45.1331C39.6857 44.94 39.4601 44.7356 39.2445 44.52C39.0288 44.3044 38.8238 44.0788 38.6307 43.8425C38.437 43.6069 38.2557 43.3625 38.0863 43.1088C37.917 42.8556 37.7607 42.5944 37.617 42.325C37.4732 42.0563 37.3426 41.7813 37.2263 41.4994C37.1095 41.2175 37.007 40.9306 36.9182 40.6388C36.8295 40.3475 36.7557 40.0519 36.6963 39.7525C36.637 39.4538 36.592 39.1525 36.562 38.8488C36.532 38.5456 36.5176 38.2413 36.5176 37.9363C36.5176 37.6313 36.532 37.3275 36.562 37.0238C36.592 36.72 36.637 36.4188 36.6963 36.12C36.7557 35.8206 36.8295 35.5256 36.9182 35.2338C37.007 34.9419 37.1095 34.655 37.2263 34.3731C37.3426 34.0919 37.4732 33.8163 37.617 33.5475C37.7607 33.2788 37.917 33.0175 38.0863 32.7638C38.2557 32.51 38.437 32.2656 38.6307 32.03C38.8238 31.7944 39.0288 31.5688 39.2445 31.3531C39.4601 31.1375 39.6857 30.9325 39.9213 30.7394C40.157 30.5456 40.4013 30.3644 40.6551 30.195C40.9088 30.0256 41.1701 29.8694 41.4388 29.7256C41.7076 29.5819 41.9832 29.4513 42.2645 29.335C42.5463 29.2181 42.8332 29.1156 43.1251 29.0269C43.417 28.9381 43.712 28.8644 44.0113 28.805C44.3101 28.7456 44.6113 28.7006 44.9151 28.6706C45.2188 28.6413 45.5226 28.6263 45.8276 28.6263C46.1326 28.6263 46.437 28.6413 46.7401 28.6706C47.0438 28.7006 47.3451 28.7456 47.6438 28.805C47.9432 28.8644 48.2382 28.9381 48.5301 29.0269C48.822 29.1156 49.1088 29.2181 49.3907 29.335C49.6726 29.4513 49.9476 29.5819 50.2163 29.7256C50.4857 29.8694 50.747 30.0256 51.0001 30.195C51.2538 30.3644 51.4982 30.5456 51.7338 30.7394C51.9701 30.9325 52.1957 31.1375 52.4113 31.3531C52.627 31.5688 52.8313 31.7944 53.0245 32.03C53.2182 32.2656 53.3995 32.51 53.5688 32.7638C53.7382 33.0175 53.8951 33.2788 54.0388 33.5475C54.1826 33.8163 54.3126 34.0919 54.4295 34.3731C54.5457 34.655 54.6488 34.9419 54.737 35.2338C54.8257 35.5256 54.8995 35.8206 54.9588 36.12C55.0188 36.4188 55.0632 36.72 55.0932 37.0238C55.1232 37.3275 55.1382 37.6313 55.1382 37.9363C55.1376 38.2413 55.1226 38.545 55.092 38.8488C55.062 39.1519 55.017 39.4531 54.9576 39.7519C54.8976 40.0506 54.8232 40.3463 54.7345 40.6375C54.6457 40.9294 54.5432 41.2163 54.4263 41.4975C54.3095 41.7794 54.1795 42.0544 54.0357 42.3231C53.8913 42.5919 53.7351 42.8531 53.5657 43.1063C53.3963 43.36 53.2145 43.6044 53.0213 43.84C52.8276 44.0756 52.6232 44.3013 52.4076 44.5163C52.1926 44.7319 51.967 44.9369 51.7313 45.13C51.4957 45.3231 51.2513 45.505 50.9976 45.6744C50.7445 45.8438 50.4832 46 50.2145 46.1444C49.9457 46.2881 49.6707 46.4181 49.3888 46.535C49.1076 46.6519 48.8207 46.7544 48.5288 46.8431C48.2376 46.9319 47.942 47.0063 47.6432 47.0663C47.3445 47.1256 47.0432 47.1706 46.7401 47.2006C46.4363 47.2313 46.1326 47.2463 45.8276 47.2469ZM45.8276 30.4881C45.5838 30.4881 45.3401 30.5 45.0976 30.5238C44.8551 30.5481 44.6138 30.5838 44.3745 30.6313C44.1351 30.6788 43.8988 30.7381 43.6657 30.8088C43.432 30.8794 43.2026 30.9619 42.9776 31.055C42.752 31.1481 42.532 31.2525 42.3163 31.3675C42.1013 31.4825 41.8926 31.6075 41.6895 31.7431C41.487 31.8788 41.2913 32.0238 41.1026 32.1788C40.9138 32.3338 40.7332 32.4969 40.5607 32.6694C40.3882 32.8419 40.2251 33.0225 40.0701 33.2113C39.9151 33.4 39.7701 33.5956 39.6345 33.7981C39.4988 34.0013 39.3738 34.21 39.2588 34.425C39.1438 34.6406 39.0395 34.8606 38.9463 35.0863C38.8532 35.3113 38.7707 35.5406 38.7001 35.7744C38.6295 36.0075 38.5701 36.2438 38.5226 36.4831C38.4751 36.7225 38.4395 36.9638 38.4151 37.2063C38.3913 37.4488 38.3795 37.6925 38.3795 37.9363C38.3795 38.18 38.3913 38.4238 38.4151 38.6663C38.4395 38.9094 38.4751 39.15 38.5226 39.3894C38.5701 39.6288 38.6295 39.865 38.7001 40.0988C38.7707 40.3319 38.8532 40.5613 38.9463 40.7869C39.0395 41.0119 39.1438 41.2325 39.2588 41.4475C39.3738 41.6625 39.4988 41.8713 39.6345 42.0744C39.7701 42.2775 39.9151 42.4731 40.0701 42.6613C40.2251 42.85 40.3882 43.0306 40.5607 43.2031C40.7332 43.3756 40.9138 43.5394 41.1026 43.6938C41.2913 43.8488 41.487 43.9938 41.6895 44.1294C41.8926 44.265 42.1013 44.39 42.3163 44.505C42.532 44.62 42.752 44.7244 42.9776 44.8175C43.2026 44.9113 43.432 44.9931 43.6657 45.0638C43.8988 45.135 44.1351 45.1938 44.3745 45.2413C44.6138 45.2894 44.8551 45.325 45.0976 45.3488C45.3401 45.3725 45.5838 45.3844 45.8276 45.3844C46.0713 45.3844 46.3151 45.3725 46.5576 45.3488C46.8007 45.325 47.0413 45.2894 47.2807 45.2413C47.5201 45.1938 47.7563 45.135 47.9901 45.0638C48.2232 44.9931 48.4526 44.9113 48.6782 44.8175C48.9032 44.7244 49.1238 44.62 49.3388 44.505C49.5538 44.39 49.7626 44.265 49.9657 44.1294C50.1688 43.9938 50.3645 43.8488 50.5526 43.6938C50.7413 43.5394 50.922 43.3756 51.0945 43.2031C51.267 43.0306 51.4307 42.85 51.5851 42.6613C51.7401 42.4731 51.8851 42.2775 52.0207 42.0744C52.1563 41.8713 52.2813 41.6625 52.3963 41.4475C52.5113 41.2325 52.6157 41.0119 52.7088 40.7869C52.8026 40.5613 52.8845 40.3319 52.9551 40.0988C53.0263 39.865 53.0851 39.6288 53.1326 39.3894C53.1807 39.15 53.2163 38.9094 53.2401 38.6663C53.2638 38.4238 53.2757 38.18 53.2757 37.9363C53.2757 37.6925 53.2632 37.4494 53.2395 37.2063C53.2151 36.9638 53.1795 36.7231 53.1313 36.4838C53.0838 36.245 53.0245 36.0088 52.9532 35.775C52.8826 35.5419 52.8001 35.3125 52.707 35.0875C52.6132 34.8619 52.5088 34.6419 52.3938 34.4269C52.2788 34.2119 52.1538 34.0031 52.0182 33.8C51.8826 33.5975 51.7376 33.4019 51.5826 33.2138C51.4282 33.025 51.2645 32.8444 51.092 32.6719C50.9195 32.4994 50.7388 32.3363 50.5507 32.1813C50.362 32.0269 50.1663 31.8813 49.9638 31.7463C49.7607 31.6106 49.552 31.485 49.337 31.37C49.122 31.255 48.902 31.1506 48.677 31.0575C48.4513 30.9638 48.222 30.8819 47.9888 30.8106C47.7557 30.74 47.5195 30.6806 47.2801 30.6325C47.0413 30.585 46.8001 30.5488 46.5576 30.525C46.3151 30.5006 46.0713 30.4881 45.8276 30.4881Z" fill="#861FEF"/>
<path d="M32.7931 20.2431C32.7318 20.2431 32.6712 20.2369 32.6112 20.225C32.5512 20.2131 32.4931 20.1956 32.4368 20.1725C32.3799 20.1487 32.3262 20.12 32.2756 20.0862C32.2249 20.0525 32.1781 20.0137 32.1343 19.9706C32.0912 19.9275 32.0524 19.88 32.0187 19.8294C31.9849 19.7787 31.9562 19.725 31.9324 19.6681C31.9093 19.6119 31.8918 19.5537 31.8799 19.4937C31.8681 19.4337 31.8618 19.3731 31.8618 19.3119C31.8618 19.0519 31.8731 18.7931 31.8949 18.5337C31.9162 18.275 31.9487 18.0175 31.9924 17.7612C32.0356 17.505 32.0893 17.2512 32.1537 16.9994C32.2187 16.7481 32.2937 16.4994 32.3787 16.2544C32.4643 16.0087 32.5593 15.7675 32.6649 15.53C32.7706 15.2925 32.8862 15.06 33.0112 14.8325C33.1362 14.6044 33.2706 14.3825 33.4137 14.1656C33.5574 13.9494 33.7099 13.7394 33.8712 13.5356C34.0324 13.3319 34.2018 13.135 34.3793 12.9456C34.5568 12.7562 34.7424 12.5744 34.9349 12.4C35.1281 12.2262 35.3281 12.0606 35.5349 11.9031C35.7412 11.7456 35.9543 11.5975 36.1737 11.4581C36.3924 11.3181 36.6174 11.1881 36.8474 11.0675C37.0774 10.9469 37.3118 10.8362 37.5512 10.735C37.7906 10.6337 38.0337 10.5431 38.2806 10.4625C38.5281 10.3819 38.7774 10.3112 39.0306 10.2512C39.2831 10.1919 39.5381 10.1425 39.7949 10.1044C40.0518 10.0656 40.3099 10.0381 40.5693 10.0212C40.8287 10.0044 41.0881 9.99812 41.3481 10.0031C41.6074 10.0081 41.8668 10.0237 42.1249 10.0506C42.3837 10.0769 42.6406 10.1144 42.8956 10.1625C43.1512 10.2106 43.4043 10.2687 43.6543 10.3381C43.9049 10.4075 44.1518 10.4869 44.3956 10.5769C44.6393 10.6669 44.8787 10.7669 45.1143 10.8769C45.3499 10.9869 45.5799 11.1062 45.8056 11.2356C46.0306 11.365 46.2506 11.5031 46.4643 11.6506C46.6781 11.7987 46.8849 11.955 47.0862 12.12C47.2868 12.2844 47.4799 12.4575 47.6662 12.6387C47.8524 12.82 48.0306 13.0087 48.2012 13.205C48.3718 13.4006 48.5337 13.6037 48.6868 13.8131C48.8406 14.0231 48.9849 14.2387 49.1206 14.4606C49.2556 14.6819 49.3818 14.9094 49.4981 15.1412C49.5256 15.1962 49.5474 15.2531 49.5637 15.3119C49.5799 15.3706 49.5899 15.4306 49.5943 15.4919C49.5993 15.5525 49.5974 15.6131 49.5899 15.6737C49.5824 15.735 49.5687 15.7944 49.5499 15.8519C49.5306 15.91 49.5056 15.9656 49.4756 16.0187C49.4456 16.0719 49.4106 16.1219 49.3706 16.1681C49.3306 16.2144 49.2862 16.2562 49.2381 16.2937C49.1899 16.3312 49.1381 16.3637 49.0837 16.3912C49.0287 16.4187 48.9724 16.44 48.9131 16.4562C48.8543 16.4725 48.7943 16.4831 48.7331 16.4875C48.6724 16.4919 48.6118 16.49 48.5512 16.4825C48.4906 16.475 48.4312 16.4619 48.3731 16.4425C48.3149 16.4231 48.2593 16.3981 48.2062 16.3681C48.1531 16.3381 48.1031 16.3031 48.0574 16.2631C48.0112 16.2231 47.9693 16.1787 47.9318 16.1306C47.8937 16.0819 47.8618 16.0306 47.8343 15.9762C47.7412 15.79 47.6406 15.6087 47.5318 15.4312C47.4237 15.2537 47.3081 15.0812 47.1856 14.9137C47.0624 14.7456 46.9331 14.5837 46.7968 14.4269C46.6606 14.27 46.5174 14.1187 46.3687 13.9737C46.2199 13.8287 46.0649 13.6906 45.9043 13.5587C45.7437 13.4262 45.5781 13.3012 45.4068 13.1831C45.2362 13.065 45.0606 12.9544 44.8799 12.8512C44.6999 12.7475 44.5156 12.6519 44.3274 12.5637C44.1387 12.4762 43.9474 12.3962 43.7524 12.3244C43.5574 12.2519 43.3593 12.1887 43.1593 12.1331C42.9587 12.0775 42.7568 12.0306 42.5524 11.9925C42.3481 11.9537 42.1424 11.9237 41.9356 11.9025C41.7287 11.8812 41.5218 11.8687 41.3137 11.865C41.1062 11.8612 40.8987 11.8656 40.6912 11.8794C40.4837 11.8931 40.2768 11.915 40.0718 11.9456C39.8662 11.9762 39.6618 12.0156 39.4599 12.0637C39.2574 12.1112 39.0574 12.1675 38.8599 12.2319C38.6624 12.2969 38.4681 12.3694 38.2762 12.45C38.0849 12.5312 37.8974 12.62 37.7131 12.7162C37.5293 12.8131 37.3493 12.9169 37.1737 13.0287C36.9987 13.14 36.8281 13.2587 36.6631 13.385C36.4974 13.5106 36.3374 13.6431 36.1831 13.7825C36.0287 13.9219 35.8806 14.0669 35.7387 14.2187C35.5962 14.3706 35.4606 14.5275 35.3318 14.6906C35.2031 14.8537 35.0812 15.0219 34.9662 15.195C34.8512 15.3681 34.7437 15.5456 34.6437 15.7281C34.5437 15.91 34.4512 16.0962 34.3668 16.2862C34.2824 16.4762 34.2062 16.6694 34.1374 16.8656C34.0693 17.0619 34.0093 17.2606 33.9581 17.4619C33.9062 17.6631 33.8631 17.8662 33.8281 18.0712C33.7937 18.2762 33.7674 18.4825 33.7499 18.6894C33.7331 18.8969 33.7243 19.1044 33.7243 19.3119C33.7243 19.3731 33.7181 19.4337 33.7062 19.4937C33.6943 19.5537 33.6768 19.6119 33.6531 19.6681C33.6299 19.725 33.6012 19.7787 33.5674 19.8294C33.5337 19.88 33.4949 19.9275 33.4518 19.9706C33.4081 20.0137 33.3612 20.0525 33.3106 20.0862C33.2593 20.12 33.2062 20.1487 33.1493 20.1725C33.0931 20.1956 33.0349 20.2131 32.9749 20.225C32.9149 20.2369 32.8543 20.2431 32.7931 20.2431Z" fill="#861FEF"/>
<path d="M32.7931 38.8675C32.7318 38.8675 32.6712 38.8613 32.6112 38.8494C32.5512 38.8375 32.4931 38.82 32.4368 38.7969C32.3799 38.7731 32.3262 38.7444 32.2756 38.7106C32.2249 38.6769 32.1781 38.6381 32.1343 38.595C32.0912 38.5519 32.0524 38.5044 32.0187 38.4538C31.9849 38.4031 31.9562 38.3494 31.9324 38.2925C31.9093 38.2363 31.8918 38.1781 31.8799 38.1181C31.8681 38.0581 31.8618 37.9975 31.8618 37.9363V11.8638C31.8618 11.8025 31.8681 11.7419 31.8799 11.6819C31.8918 11.6219 31.9093 11.5638 31.9331 11.5075C31.9562 11.4506 31.9849 11.3975 32.0187 11.3463C32.0531 11.2956 32.0912 11.2488 32.1349 11.2056C32.1781 11.1619 32.2249 11.1238 32.2756 11.0894C32.3268 11.0556 32.3806 11.0269 32.4368 11.0038C32.4931 10.98 32.5512 10.9625 32.6112 10.9506C32.6712 10.9388 32.7318 10.9325 32.7931 10.9325C32.8543 10.9325 32.9149 10.9388 32.9749 10.9506C33.0349 10.9625 33.0931 10.98 33.1493 11.0038C33.2056 11.0269 33.2593 11.0556 33.3106 11.0894C33.3612 11.1238 33.4081 11.1619 33.4512 11.2056C33.4943 11.2488 33.5331 11.2956 33.5674 11.3463C33.6012 11.3975 33.6299 11.4506 33.6531 11.5075C33.6768 11.5638 33.6943 11.6219 33.7062 11.6819C33.7181 11.7419 33.7243 11.8025 33.7243 11.8638V37.9363C33.7243 37.9975 33.7181 38.0581 33.7062 38.1181C33.6943 38.1781 33.6768 38.2363 33.6531 38.2925C33.6299 38.3494 33.6012 38.4031 33.5674 38.4538C33.5331 38.5044 33.4949 38.5519 33.4518 38.595C33.4081 38.6381 33.3612 38.6769 33.3106 38.7106C33.2593 38.7444 33.2062 38.7731 33.1493 38.7969C33.0931 38.82 33.0349 38.8375 32.9749 38.8494C32.9149 38.8613 32.8543 38.8675 32.7931 38.8675Z" fill="#861FEF"/>
<path d="M57.6073 33.2775C57.5229 33.2775 57.4398 33.2662 57.3579 33.2437C57.2767 33.2212 57.1998 33.1881 57.1273 33.145C57.0548 33.1012 56.9892 33.0487 56.9311 32.9875C56.8729 32.9262 56.8242 32.8581 56.7842 32.7837L47.8442 15.9962C47.8154 15.9419 47.7917 15.8856 47.7742 15.8275C47.7561 15.7687 47.7442 15.7087 47.7386 15.6481C47.7323 15.5869 47.7323 15.5262 47.7386 15.465C47.7448 15.4044 47.7567 15.3444 47.7742 15.2862C47.7923 15.2275 47.8154 15.1712 47.8442 15.1175C47.8736 15.0631 47.9073 15.0125 47.9461 14.9656C47.9848 14.9181 48.0279 14.875 48.0754 14.8362C48.1229 14.7975 48.1736 14.7637 48.2279 14.735C48.2817 14.7062 48.3379 14.6831 48.3967 14.6656C48.4554 14.6481 48.5148 14.6362 48.5761 14.63C48.6367 14.6244 48.6979 14.6244 48.7586 14.6306C48.8198 14.6369 48.8792 14.6487 48.9379 14.6669C48.9967 14.685 49.0529 14.7081 49.1067 14.7375C49.1604 14.7662 49.2111 14.8006 49.2579 14.8394C49.3054 14.8781 49.3486 14.9219 49.3867 14.9694C49.4254 15.0162 49.4592 15.0675 49.4879 15.1212L58.4279 31.9094C58.4467 31.9444 58.4636 31.9806 58.4773 32.0181C58.4917 32.0556 58.5029 32.0937 58.5123 32.1325C58.5217 32.1719 58.5279 32.2112 58.5323 32.2506C58.5367 32.2906 58.5379 32.3306 58.5367 32.3706C58.5361 32.4106 58.5323 32.45 58.5261 32.4894C58.5198 32.5294 58.5117 32.5681 58.5004 32.6062C58.4892 32.645 58.4754 32.6825 58.4592 32.7187C58.4436 32.7556 58.4254 32.7912 58.4048 32.8256C58.3842 32.86 58.3611 32.8925 58.3367 32.9237C58.3117 32.9556 58.2848 32.985 58.2567 33.0131C58.2279 33.0406 58.1973 33.0669 58.1654 33.0906C58.1336 33.115 58.1004 33.1369 58.0654 33.1562C58.0304 33.1762 57.9948 33.1937 57.9573 33.2087C57.9204 33.2237 57.8829 33.2362 57.8442 33.2469C57.8054 33.2569 57.7661 33.2644 57.7267 33.2694C57.6867 33.275 57.6473 33.2775 57.6073 33.2775Z" fill="#861FEF"/>
<path d="M32.7931 12.795C32.7318 12.795 32.6712 12.7888 32.6112 12.7769C32.5512 12.765 32.4931 12.7475 32.4368 12.7238C32.3799 12.7006 32.3268 12.6719 32.2756 12.6381C32.2249 12.6038 32.1781 12.5656 32.1343 12.5225C32.0912 12.4788 32.0524 12.4319 32.0187 12.3813C31.9849 12.33 31.9562 12.2769 31.9324 12.22C31.9093 12.1638 31.8918 12.1056 31.8799 12.0456C31.8681 11.9856 31.8618 11.925 31.8618 11.8638C31.8618 11.6919 31.8699 11.5206 31.8856 11.3494C31.9018 11.1788 31.9249 11.0088 31.9568 10.8394C31.9881 10.6706 32.0274 10.5038 32.0743 10.3388C32.1212 10.1731 32.1756 10.0106 32.2374 9.85063C32.2993 9.69 32.3687 9.53313 32.4449 9.37938C32.5212 9.22563 32.6049 9.07563 32.6949 8.92938C32.7849 8.78313 32.8818 8.64125 32.9856 8.50438C33.0887 8.36688 33.1981 8.235 33.3137 8.1075C33.4293 7.98063 33.5499 7.85875 33.6768 7.74313C33.8037 7.62688 33.9356 7.51688 34.0724 7.41313C34.2087 7.30938 34.3506 7.2125 34.4962 7.12125C34.6418 7.03063 34.7918 6.94688 34.9449 6.87C35.0987 6.79313 35.2556 6.72313 35.4156 6.66063C35.5756 6.59813 35.7381 6.54313 35.9031 6.49563C36.0681 6.44813 36.2349 6.40813 36.4037 6.37625C36.5724 6.34375 36.7424 6.31938 36.9131 6.30313C37.0843 6.28688 37.2556 6.27813 37.4274 6.2775C37.5993 6.27688 37.7706 6.28438 37.9418 6.29938C38.1131 6.31438 38.2831 6.3375 38.4518 6.36813C38.6206 6.39938 38.7881 6.4375 38.9537 6.48375C39.1187 6.53 39.2818 6.58375 39.4424 6.64563C39.6024 6.70688 39.7599 6.775 39.9143 6.85125C40.0681 6.92688 40.2187 7.00938 40.3649 7.09938C40.5118 7.18875 40.6537 7.285 40.7912 7.38813C40.9287 7.49063 41.0618 7.59938 41.1893 7.71438C41.3168 7.82938 41.4387 7.95 41.5549 8.07625C41.6718 8.2025 41.7818 8.33375 41.8862 8.47063C41.9906 8.60688 42.0887 8.74813 42.1799 8.89313C42.2712 9.03875 42.3556 9.18813 42.4331 9.34125C42.5106 9.495 42.5812 9.65125 42.6443 9.81063C42.7074 9.97063 42.7631 10.1331 42.8112 10.2981C42.8593 10.4625 42.8999 10.6294 42.9324 10.7981C42.9443 10.8581 42.9493 10.9188 42.9493 10.9794C42.9487 11.0406 42.9424 11.1013 42.9299 11.1606C42.9174 11.2206 42.8993 11.2788 42.8756 11.335C42.8518 11.3906 42.8231 11.4444 42.7887 11.495C42.7543 11.5456 42.7156 11.5919 42.6724 11.635C42.6287 11.6775 42.5818 11.7163 42.5306 11.7494C42.4799 11.7831 42.4262 11.8113 42.3693 11.8344C42.3131 11.8575 42.2549 11.875 42.1949 11.8863C42.1349 11.8981 42.0743 11.9038 42.0137 11.9031C41.9524 11.9031 41.8918 11.8969 41.8324 11.8844C41.7724 11.8725 41.7143 11.8544 41.6581 11.8306C41.6018 11.8069 41.5487 11.7781 41.4981 11.7438C41.4474 11.71 41.4006 11.6713 41.3574 11.6275C41.3143 11.5844 41.2762 11.5375 41.2424 11.4863C41.2087 11.4356 41.1806 11.3819 41.1574 11.3256C41.1343 11.2688 41.1168 11.2106 41.1049 11.1506C41.0831 11.0388 41.0562 10.9275 41.0237 10.8175C40.9918 10.7075 40.9543 10.5994 40.9124 10.4931C40.8699 10.3869 40.8231 10.2825 40.7712 10.18C40.7199 10.0781 40.6631 9.97875 40.6024 9.88188C40.5412 9.785 40.4762 9.69063 40.4068 9.6C40.3368 9.50875 40.2631 9.42125 40.1856 9.3375C40.1081 9.25313 40.0268 9.17313 39.9412 9.09625C39.8562 9.02 39.7681 8.94688 39.6762 8.87875C39.5843 8.81 39.4899 8.74625 39.3918 8.68625C39.2943 8.62688 39.1943 8.57188 39.0912 8.52125C38.9887 8.47063 38.8837 8.425 38.7768 8.38438C38.6699 8.34313 38.5612 8.3075 38.4512 8.27688C38.3406 8.24625 38.2293 8.22063 38.1168 8.2C38.0037 8.17938 37.8906 8.16438 37.7762 8.15375C37.6624 8.14375 37.5481 8.13938 37.4337 8.13938C37.3193 8.14 37.2049 8.14563 37.0912 8.15688C36.9768 8.16813 36.8637 8.18438 36.7512 8.20563C36.6387 8.22688 36.5274 8.25375 36.4174 8.285C36.3074 8.31688 36.1993 8.35375 36.0924 8.39563C35.9862 8.43688 35.8818 8.48375 35.7793 8.535C35.6768 8.58625 35.5768 8.64188 35.4799 8.7025C35.3824 8.76313 35.2887 8.82813 35.1974 8.8975C35.1062 8.96625 35.0181 9.04 34.9337 9.11688C34.8493 9.19438 34.7687 9.27563 34.6918 9.36C34.6149 9.445 34.5418 9.53313 34.4731 9.62438C34.4043 9.71563 34.3393 9.81063 34.2793 9.9075C34.2193 10.005 34.1637 10.105 34.1131 10.2075C34.0618 10.31 34.0156 10.415 33.9743 10.5219C33.9331 10.6288 33.8968 10.7369 33.8656 10.8469C33.8343 10.9575 33.8081 11.0688 33.7874 11.1813C33.7662 11.2938 33.7506 11.4069 33.7399 11.5213C33.7293 11.635 33.7243 11.7494 33.7243 11.8638C33.7243 11.925 33.7181 11.9856 33.7062 12.0456C33.6943 12.1056 33.6768 12.1638 33.6531 12.22C33.6299 12.2769 33.6012 12.33 33.5674 12.3813C33.5331 12.4319 33.4949 12.4788 33.4518 12.5225C33.4081 12.5656 33.3612 12.6038 33.3106 12.6381C33.2593 12.6719 33.2062 12.7006 33.1493 12.7238C33.0931 12.7475 33.0349 12.765 32.9749 12.7769C32.9149 12.7888 32.8543 12.795 32.7931 12.795Z" fill="#861FEF"/>
<path d="M29.9998 37.9363C29.8779 37.9363 29.756 37.9306 29.6348 37.9181C29.5135 37.9063 29.3929 37.8888 29.2735 37.865C29.1535 37.8413 29.0354 37.8113 28.9185 37.7763C28.8023 37.7406 28.6873 37.6994 28.5748 37.6531C28.4616 37.6063 28.3516 37.5544 28.2441 37.4969C28.1366 37.4394 28.0323 37.3763 27.931 37.3088C27.8291 37.2413 27.7316 37.1681 27.6373 37.0913C27.5429 37.0138 27.4529 36.9319 27.3666 36.8456C27.2804 36.7594 27.1985 36.6688 27.121 36.575C27.0435 36.4806 26.971 36.3825 26.9035 36.2813C26.8354 36.18 26.7729 36.075 26.7154 35.9675C26.6579 35.86 26.606 35.75 26.5591 35.6375C26.5123 35.5244 26.4716 35.41 26.436 35.2931C26.4004 35.1763 26.371 35.0581 26.3473 34.9388C26.3235 34.8194 26.3054 34.6988 26.2935 34.5775C26.2816 34.4556 26.2754 34.3344 26.2754 34.2125C26.2754 34.09 26.2816 33.9688 26.2935 33.8469C26.3054 33.7256 26.3235 33.605 26.3473 33.4856C26.371 33.3663 26.4004 33.2481 26.436 33.1313C26.4716 33.0144 26.5123 32.9 26.5591 32.7869C26.606 32.6744 26.6579 32.5644 26.7154 32.4569C26.7729 32.3494 26.8354 32.2444 26.9035 32.1431C26.971 32.0419 27.0435 31.9438 27.121 31.8494C27.1985 31.7556 27.2804 31.665 27.3666 31.5788C27.4529 31.4925 27.5429 31.4106 27.6373 31.3331C27.7316 31.2563 27.8291 31.1838 27.931 31.1156C28.0323 31.0481 28.1366 30.985 28.2441 30.9275C28.3516 30.87 28.4616 30.8181 28.5748 30.7713C28.6873 30.725 28.8023 30.6838 28.9185 30.6481C29.0354 30.6131 29.1535 30.5831 29.2735 30.5594C29.3929 30.5356 29.5135 30.5181 29.6348 30.5063C29.756 30.4938 29.8779 30.4881 29.9998 30.4881C30.1216 30.4881 30.2435 30.4938 30.3648 30.5063C30.486 30.5181 30.6066 30.5356 30.726 30.5594C30.846 30.5831 30.9641 30.6131 31.081 30.6481C31.1973 30.6838 31.3123 30.725 31.4248 30.7713C31.5379 30.8181 31.6479 30.87 31.7554 30.9275C31.8629 30.985 31.9673 31.0481 32.0685 31.1156C32.1704 31.1838 32.2679 31.2563 32.3623 31.3331C32.4566 31.4106 32.5466 31.4925 32.6329 31.5788C32.7191 31.665 32.801 31.7556 32.8785 31.8494C32.956 31.9438 33.0285 32.0419 33.096 32.1431C33.1641 32.2444 33.2266 32.3494 33.2841 32.4569C33.3416 32.5644 33.3935 32.6744 33.4404 32.7869C33.4873 32.9 33.5279 33.0144 33.5635 33.1313C33.5991 33.2481 33.6285 33.3663 33.6523 33.4856C33.676 33.605 33.6941 33.7256 33.706 33.8469C33.7179 33.9688 33.7241 34.09 33.7241 34.2125C33.7235 34.3344 33.7179 34.4556 33.7054 34.5769C33.6935 34.6988 33.6754 34.8188 33.6516 34.9388C33.6279 35.0581 33.5979 35.1763 33.5629 35.2931C33.5273 35.4094 33.486 35.5244 33.4391 35.6369C33.3929 35.7494 33.3404 35.8594 33.2829 35.9669C33.2254 36.0744 33.1629 36.1788 33.0954 36.2806C33.0273 36.3819 32.9548 36.4794 32.8773 36.5738C32.7998 36.6681 32.7185 36.7581 32.6323 36.8444C32.546 36.9306 32.4554 37.0125 32.3616 37.09C32.2673 37.1675 32.1691 37.24 32.0679 37.3075C31.9666 37.3756 31.8623 37.4381 31.7548 37.4956C31.6473 37.5531 31.5373 37.605 31.4241 37.6519C31.3116 37.6988 31.1973 37.7394 31.0804 37.775C30.9635 37.8106 30.8454 37.84 30.726 37.8644C30.6066 37.8881 30.486 37.9063 30.3648 37.9181C30.2435 37.93 30.1216 37.9363 29.9998 37.9363ZM29.9998 32.35C29.8773 32.35 29.7566 32.3619 29.6366 32.3856C29.5166 32.41 29.4004 32.445 29.2873 32.4919C29.1741 32.5388 29.0666 32.5963 28.9654 32.6638C28.8635 32.7319 28.7698 32.8094 28.6829 32.8956C28.5966 32.9819 28.5191 33.0763 28.4516 33.1775C28.3835 33.2794 28.326 33.3869 28.2791 33.4994C28.2329 33.6125 28.1973 33.7288 28.1735 33.8488C28.1498 33.9688 28.1379 34.09 28.1379 34.2125C28.1379 34.3344 28.1498 34.4556 28.1735 34.5756C28.1973 34.6956 28.2329 34.8119 28.2791 34.925C28.326 35.0375 28.3835 35.145 28.4516 35.2469C28.5191 35.3481 28.5966 35.4425 28.6829 35.5288C28.7698 35.6156 28.8635 35.6925 28.9654 35.7606C29.0666 35.8281 29.1741 35.8856 29.2873 35.9325C29.4004 35.9794 29.5166 36.0144 29.6366 36.0388C29.7566 36.0625 29.8773 36.0744 29.9998 36.0744C30.1223 36.0744 30.2429 36.0625 30.3629 36.0388C30.4829 36.0144 30.5991 35.9794 30.7123 35.9325C30.8254 35.8856 30.9329 35.8281 31.0341 35.7606C31.136 35.6925 31.2298 35.6156 31.3166 35.5288C31.4029 35.4425 31.4804 35.3481 31.5479 35.2469C31.616 35.145 31.6735 35.0375 31.7204 34.925C31.7666 34.8119 31.8023 34.6956 31.826 34.5756C31.8498 34.4556 31.8616 34.3344 31.8616 34.2125C31.8616 34.09 31.8498 33.9688 31.8254 33.8494C31.8016 33.7294 31.766 33.6131 31.7191 33.5C31.6729 33.3869 31.6154 33.28 31.5473 33.1781C31.4791 33.0769 31.4023 32.9825 31.316 32.8963C31.2291 32.81 31.1354 32.7325 31.0335 32.665C30.9323 32.5969 30.8248 32.5394 30.7123 32.4925C30.5991 32.4456 30.4829 32.41 30.3629 32.3863C30.2429 32.3625 30.1223 32.35 29.9998 32.35Z" fill="#861FEF"/>
<path d="M32.7929 20.2431C32.7316 20.2431 32.671 20.2369 32.611 20.225C32.551 20.2131 32.4929 20.1956 32.4366 20.1725C32.3798 20.1488 32.326 20.12 32.2754 20.0863C32.2248 20.0525 32.1779 20.0138 32.1341 19.9706C32.091 19.9275 32.0523 19.88 32.0185 19.8294C31.9848 19.7788 31.956 19.725 31.9323 19.6681C31.9091 19.6119 31.8916 19.5538 31.8798 19.4938C31.8679 19.4338 31.8616 19.3731 31.8616 19.3119C31.8616 19.19 31.8498 19.0688 31.826 18.9488C31.8023 18.8288 31.7666 18.7125 31.7204 18.5994C31.6735 18.4863 31.616 18.3794 31.5479 18.2775C31.4804 18.1756 31.4029 18.0819 31.3166 17.995C31.2298 17.9088 31.136 17.8319 31.0341 17.7638C30.9329 17.6956 30.8254 17.6381 30.7123 17.5919C30.5991 17.545 30.4829 17.5094 30.3629 17.4856C30.2429 17.4619 30.1223 17.45 29.9998 17.45C29.8773 17.45 29.7566 17.4619 29.6366 17.4856C29.5166 17.5094 29.4004 17.545 29.2873 17.5919C29.1741 17.6381 29.0666 17.6956 28.9654 17.7638C28.8635 17.8319 28.7698 17.9088 28.6829 17.995C28.5966 18.0819 28.5191 18.1756 28.4516 18.2775C28.3835 18.3794 28.326 18.4863 28.2791 18.5994C28.2329 18.7125 28.1973 18.8288 28.1735 18.9488C28.1498 19.0688 28.1379 19.19 28.1379 19.3119C28.1379 19.3731 28.1316 19.4338 28.1198 19.4938C28.1079 19.5538 28.0904 19.6119 28.0666 19.6681C28.0435 19.725 28.0148 19.7781 27.981 19.8294C27.9466 19.88 27.9085 19.9269 27.8648 19.9706C27.8216 20.0138 27.7748 20.0519 27.7241 20.0863C27.6729 20.12 27.6191 20.1488 27.5629 20.1719C27.5066 20.1956 27.4485 20.2131 27.3885 20.225C27.3285 20.2369 27.2679 20.2431 27.2066 20.2431C27.1454 20.2431 27.0848 20.2369 27.0248 20.225C26.9648 20.2131 26.9066 20.1956 26.8504 20.1719C26.7941 20.1488 26.7404 20.12 26.6891 20.0863C26.6385 20.0519 26.5916 20.0138 26.5485 19.9706C26.5054 19.9269 26.4666 19.88 26.4323 19.8294C26.3985 19.7781 26.3698 19.725 26.3466 19.6681C26.3229 19.6119 26.3054 19.5538 26.2935 19.4938C26.2816 19.4338 26.2754 19.3731 26.2754 19.3119C26.2754 19.19 26.2816 19.0681 26.2935 18.9469C26.3054 18.8256 26.3235 18.705 26.3473 18.5856C26.371 18.4656 26.4004 18.3475 26.436 18.2306C26.4716 18.1144 26.5123 17.9994 26.5591 17.8869C26.606 17.7744 26.6579 17.6638 26.7154 17.5563C26.7729 17.4488 26.8354 17.3444 26.9035 17.2431C26.971 17.1413 27.0435 17.0438 27.121 16.9494C27.1985 16.855 27.2804 16.765 27.3666 16.6788C27.4529 16.5925 27.5429 16.5106 27.6373 16.4331C27.7316 16.3556 27.8291 16.2831 27.931 16.2156C28.0323 16.1475 28.1366 16.085 28.2441 16.0275C28.3516 15.97 28.4616 15.9181 28.5748 15.8713C28.6873 15.8244 28.8023 15.7838 28.9185 15.7481C29.0354 15.7125 29.1535 15.6831 29.2735 15.6594C29.3929 15.6356 29.5135 15.6175 29.6348 15.6056C29.756 15.5938 29.8779 15.5881 29.9998 15.5881C30.1216 15.5881 30.2435 15.5938 30.3648 15.6056C30.486 15.6175 30.6066 15.6356 30.726 15.6594C30.846 15.6831 30.9641 15.7125 31.081 15.7481C31.1973 15.7838 31.3123 15.8244 31.4248 15.8713C31.5379 15.9181 31.6479 15.97 31.7554 16.0275C31.8629 16.085 31.9673 16.1475 32.0685 16.2156C32.1704 16.2831 32.2679 16.3556 32.3623 16.4331C32.4566 16.5106 32.5466 16.5925 32.6329 16.6788C32.7191 16.765 32.801 16.855 32.8785 16.9494C32.956 17.0438 33.0285 17.1413 33.096 17.2431C33.1641 17.3444 33.2266 17.4488 33.2841 17.5563C33.3416 17.6638 33.3935 17.7744 33.4404 17.8869C33.4873 17.9994 33.5279 18.1144 33.5635 18.2306C33.5991 18.3475 33.6285 18.4656 33.6523 18.5856C33.676 18.705 33.6941 18.8256 33.706 18.9469C33.7179 19.0681 33.7241 19.19 33.7241 19.3119C33.7241 19.3731 33.7179 19.4338 33.706 19.4938C33.6941 19.5538 33.6766 19.6119 33.6529 19.6681C33.6298 19.725 33.601 19.7788 33.5673 19.8294C33.5335 19.88 33.4948 19.9275 33.4516 19.9706C33.4079 20.0138 33.361 20.0525 33.3104 20.0863C33.2591 20.12 33.206 20.1488 33.1491 20.1725C33.0929 20.1956 33.0348 20.2131 32.9748 20.225C32.9148 20.2369 32.8541 20.2431 32.7929 20.2431Z" fill="#861FEF"/>
</svg>
