<svg width="24" height="24" viewBox="0 0 24 24" fill="none" xmlns="http://www.w3.org/2000/svg">
<g clip-path="url(#clip0_4965_2546)">
<path d="M10.1668 15.697C10.152 15.6893 10.1348 15.6853 10.1233 15.6873C10.1378 15.6963 10.152 15.698 10.1668 15.697Z" fill="#69DDFF"/>
<path d="M9.66824 15.2625C9.66324 15.236 9.66174 15.2115 9.66199 15.189C9.65349 15.203 9.65374 15.2208 9.64649 15.2378C9.64599 15.2563 9.63899 15.2748 9.63999 15.2955C9.64749 15.2835 9.65799 15.2728 9.66824 15.2625Z" fill="#69DDFF"/>
<path d="M11.9895 17.2988C11.9918 17.3335 12.0263 17.3773 12.1443 17.402C12.125 17.3723 12.0633 17.34 11.9895 17.2988Z" fill="#69DDFF"/>
<path d="M10.0745 14.9492C10.069 14.9452 10.0637 14.9412 10.0575 14.9382C10.062 14.9437 10.0682 14.9467 10.0745 14.9492Z" fill="#69DDFF"/>
<path d="M10.9752 16.44C10.9752 16.44 10.9755 16.44 10.976 16.4405L10.9667 16.4147C10.969 16.4242 10.9725 16.4312 10.9752 16.44Z" fill="#69DDFF"/>
<path d="M11.1382 15.1115C11.1382 15.1115 11.1387 15.1118 11.1395 15.1115C11.161 15.09 11.183 15.0683 11.2047 15.0465C11.1855 15.061 11.1637 15.0818 11.1382 15.1115Z" fill="#69DDFF"/>
<path d="M10.7537 15.8318C10.7367 15.833 10.7202 15.8348 10.7197 15.8495C10.6842 15.743 10.6067 15.6365 10.5345 15.544C10.5987 15.7128 10.6757 15.8948 10.7925 16.0683C10.8015 15.992 10.8027 15.9158 10.754 15.8318H10.7537Z" fill="#69DDFF"/>
<path d="M10.589 15.8655L10.6067 15.8577C10.5942 15.8492 10.58 15.837 10.5642 15.8232C10.5715 15.8377 10.579 15.852 10.589 15.8655Z" fill="#69DDFF"/>
<path d="M10.6068 15.8578C10.6343 15.8763 10.6525 15.8778 10.652 15.8383L10.6068 15.8578Z" fill="#69DDFF"/>
<path d="M10.4262 15.5297L10.5027 15.6912C10.4402 15.719 10.408 15.731 10.3635 15.6307C10.3505 15.6647 10.4335 15.7357 10.4745 15.7832L10.46 15.7417C10.4905 15.7555 10.5282 15.7912 10.5642 15.8227C10.4872 15.6645 10.5872 15.4855 10.4262 15.5295V15.5297Z" fill="#69DDFF"/>
<path d="M10.2678 15.3602C10.2938 15.4067 10.3703 15.5402 10.4278 15.4582C10.373 15.422 10.3198 15.3892 10.2678 15.3602Z" fill="#69DDFF"/>
<path d="M10.1748 14.862L10.175 14.8538C10.1693 14.8498 10.1633 14.846 10.1583 14.8403C10.1643 14.847 10.1695 14.8545 10.1748 14.862Z" fill="#69DDFF"/>
<path d="M15.2725 16.23L15.3168 16.2142L15.2805 16.2355C15.2745 16.4997 15.241 16.7755 15.1698 17.057C14.8558 17.1927 14.4908 17.4295 14.001 17.5705C13.7553 17.6355 13.482 17.6675 13.2135 17.6455C13.1465 17.6377 13.0803 17.628 13.0148 17.6172C12.9465 17.607 12.8983 17.59 12.8405 17.5752C12.7308 17.543 12.626 17.504 12.5328 17.4547C12.3423 17.3187 12.2943 17.2935 12.1348 17.1812C12.1258 17.194 12.1178 17.2127 12.1195 17.2327C11.9243 17.1402 11.617 16.9777 11.4785 16.811C11.421 16.7912 11.3433 16.8245 11.4443 16.881C11.2978 16.8097 11.2105 16.6915 11.1468 16.5835C11.081 16.4762 11.037 16.3787 10.9563 16.337C11.0268 16.483 10.803 16.277 10.9013 16.4385C10.7598 16.2975 10.7825 16.18 10.7925 16.0682C10.8828 16.1992 10.987 16.32 11.1173 16.4167C11.1668 16.566 11.284 16.6 11.3788 16.5892C11.3625 16.566 11.3608 16.559 11.3958 16.5867L11.4133 16.5842C11.3563 16.5035 11.232 16.3187 11.128 16.2745L11.1028 16.2672C11.0765 16.2622 11.0515 16.2675 11.0288 16.2887L11.011 16.2317C10.963 16.211 10.912 16.187 10.8605 16.156C10.856 16.1005 10.9563 16.2102 11.0015 16.2005C10.9865 16.1532 10.9735 16.1057 10.9615 16.058C10.941 16.0387 10.9438 16.0125 10.955 15.985C10.9125 15.8967 10.8595 15.8062 10.8058 15.7185C10.7965 15.7157 10.7843 15.7105 10.7668 15.7002C10.679 15.5912 10.6258 15.4742 10.5763 15.366C10.4923 15.2417 10.4145 15.1317 10.3543 15.031C10.3318 15.0137 10.3065 15.0025 10.2798 14.992C10.3868 15.1392 10.455 15.3355 10.5345 15.5437C10.4223 15.3992 10.3238 15.2987 10.3933 15.2227C10.3913 15.221 10.389 15.219 10.3873 15.2172L10.3138 15.2092C10.3053 15.2105 10.2975 15.2107 10.29 15.2077H10.2888V15.2072C10.2738 15.201 10.2608 15.1767 10.2488 15.1237C10.261 15.1277 10.276 15.1402 10.2905 15.1572C10.2973 15.1025 10.3135 15.0725 10.2593 14.9902C10.1833 14.96 10.213 15.0402 10.1733 15.0417C10.19 15.0067 10.1505 14.9557 10.1203 14.9192C10.1048 14.8925 10.085 14.8657 10.0808 14.8097C10.0993 14.7582 10.1113 14.796 10.116 14.84C10.1298 14.849 10.1365 14.863 10.1303 14.88C10.1253 14.8812 10.1228 14.8805 10.1195 14.8805C10.1215 14.896 10.1233 14.9087 10.1305 14.9157C10.1443 14.927 10.1623 14.9332 10.1875 14.9295C10.1938 14.9237 10.1965 14.9185 10.1975 14.9132C10.1895 14.895 10.1785 14.8722 10.1765 14.8545L10.175 14.8537C10.1755 14.8445 10.1755 14.835 10.175 14.8257C10.1733 14.8077 10.1718 14.7862 10.1678 14.7652L10.1593 14.7297C10.1578 14.7287 10.156 14.7285 10.1543 14.7277C10.0998 14.7517 10.1288 14.77 10.1288 14.817C10.1153 14.7515 10.0518 14.7107 9.976 14.6982C9.968 14.725 9.9675 14.7567 9.9875 14.7447C9.9435 14.7877 9.87525 14.717 9.8175 14.6927C9.7985 14.6957 9.7775 14.6935 9.75825 14.6972C9.756 14.7 9.75375 14.7022 9.752 14.7057C9.81325 14.7342 9.72825 14.7897 9.79325 14.8065C9.76975 14.8182 9.748 14.8087 9.725 14.7917C9.70075 14.7735 9.67675 14.746 9.652 14.7192C9.6485 14.7255 9.64575 14.7325 9.6435 14.7402L9.649 14.716L9.6435 14.7107C9.62525 14.7115 9.6065 14.7127 9.58775 14.7155C9.5565 14.7362 9.5245 14.7572 9.4915 14.779C9.4895 14.7827 9.48675 14.786 9.4845 14.7895C9.4975 14.8132 9.547 14.8185 9.548 14.8685C9.4875 14.851 9.4485 14.8847 9.43225 14.9282C9.41425 14.972 9.4175 15.0205 9.407 15.053C9.3925 15.075 9.48325 15.1372 9.52875 15.121L9.52425 15.0765C9.52275 15.0645 9.52175 15.0537 9.521 15.0417C9.51975 15.0182 9.52075 14.9937 9.5245 14.969C9.56925 15.0002 9.65625 15.0295 9.669 15.0045C9.5715 14.948 9.6475 14.9367 9.70275 14.9447C9.7205 14.9227 9.73475 14.9085 9.75425 14.864C9.75375 14.8625 9.7535 14.8612 9.75325 14.8595L9.7545 14.8632L9.75725 14.8577C9.786 14.8655 9.79925 14.9227 9.83225 14.9235C9.81475 14.8785 9.843 14.8717 9.8485 14.827C9.89975 14.8285 9.906 14.8577 9.907 14.8942C9.92075 14.8902 9.9355 14.8847 9.94825 14.8827C9.948 14.8797 9.94675 14.8767 9.94575 14.8737C9.95075 14.8832 9.9765 14.8692 10.0133 14.87C10.0485 14.871 10.093 14.8897 10.097 14.9345C10.0818 14.9387 10.0625 14.9122 10.041 14.9062C10.0175 14.9015 10.0093 14.914 10.0063 14.9815C9.99075 14.9927 9.98225 14.9875 9.97 14.979C9.957 14.9725 9.95025 14.9535 9.90775 14.9467C9.9085 14.9627 9.9105 14.979 9.9145 14.9947C9.89375 14.9545 9.8645 14.9437 9.83525 14.9432C9.8145 14.947 9.7945 14.9527 9.77825 14.9637C9.794 14.984 9.80875 15.0045 9.822 15.025C9.81825 15.032 9.81325 15.0375 9.80975 15.042C9.80875 15.0467 9.8075 15.0502 9.80525 15.0522C9.8025 15.0585 9.79675 15.0592 9.79225 15.0625C9.78075 15.0655 9.76325 15.065 9.74225 15.0692C9.7225 15.0737 9.699 15.0827 9.68225 15.099C9.67425 15.1045 9.6655 15.1195 9.659 15.1417C9.6505 15.1745 9.653 15.1805 9.65025 15.1992C9.62325 15.1842 9.59275 15.1725 9.565 15.1452C9.553 15.1647 9.54075 15.1737 9.52575 15.1912C9.51225 15.2075 9.50275 15.2267 9.4935 15.2462C9.48675 15.2662 9.48575 15.2872 9.489 15.3065C9.49525 15.326 9.50825 15.3435 9.52925 15.3562C9.5135 15.2695 9.57225 15.3085 9.614 15.3132C9.6255 15.3327 9.63825 15.3557 9.645 15.381C9.67875 15.3857 9.71175 15.3882 9.743 15.3895C9.7375 15.4397 9.80925 15.4142 9.77875 15.4807C9.75925 15.444 9.7125 15.4385 9.6655 15.4377C9.6715 15.4525 9.67675 15.468 9.68175 15.484C9.68875 15.499 9.6955 15.515 9.702 15.5312C9.806 15.5127 9.87175 15.589 9.91575 15.626C9.9125 15.6647 9.876 15.6887 9.846 15.7067C9.86075 15.676 9.82725 15.6365 9.82575 15.6102C9.80675 15.6135 9.78475 15.6207 9.76275 15.6265C9.7815 15.644 9.7985 15.6645 9.8205 15.6755C9.8205 15.6755 9.80175 15.6852 9.79675 15.7C9.80925 15.705 9.82075 15.7127 9.83325 15.7152C9.837 15.7127 9.84125 15.71 9.84575 15.7067C9.84425 15.7105 9.84225 15.714 9.83925 15.7172C9.8565 15.7232 9.873 15.7292 9.88925 15.731C9.90525 15.7352 9.9205 15.7365 9.93425 15.7362C9.93675 15.739 9.93875 15.7422 9.94075 15.7452C9.94125 15.7072 9.9495 15.6705 10.0005 15.6222C9.966 15.6982 9.99025 15.703 10.0083 15.6902C10.027 15.6785 10.044 15.6535 10.046 15.7012C10.0318 15.7135 10.0168 15.727 10.0015 15.7365C10.0155 15.778 10.0425 15.7667 10.0668 15.7537C10.093 15.7407 10.1178 15.7285 10.1768 15.7602C10.2015 15.7297 10.187 15.7087 10.1663 15.6977C10.2325 15.693 10.2823 15.6207 10.3783 15.6762C10.271 15.7342 10.1828 15.798 10.1145 15.8237C10.1265 15.8232 10.1418 15.8187 10.1628 15.8017C10.145 15.828 10.1393 15.8487 10.1418 15.8667C10.1493 15.8707 10.158 15.874 10.1688 15.8802C10.1605 15.88 10.1523 15.8805 10.1448 15.8797C10.157 15.9215 10.217 15.9485 10.2215 16.0062C10.3048 15.969 10.292 15.9252 10.2643 15.8902C10.237 15.9035 10.2105 15.9157 10.1848 15.9257C10.2055 15.908 10.2265 15.8887 10.247 15.8687C10.227 15.8447 10.2085 15.8232 10.2113 15.8075C10.2463 15.8102 10.2748 15.8125 10.3013 15.8142L10.3533 15.76C10.402 15.757 10.4568 15.7457 10.5105 15.736C10.5493 15.7225 10.5883 15.71 10.6275 15.6985C10.634 15.6922 10.638 15.6855 10.6385 15.6805C10.6255 15.6835 10.612 15.6852 10.5985 15.687C10.5635 15.696 10.5325 15.7 10.504 15.7L10.4848 15.7027L10.4973 15.7C10.4895 15.6997 10.481 15.701 10.4738 15.7L10.4703 15.5747C10.523 15.5427 10.612 15.5217 10.6805 15.4932C10.75 15.4672 10.7938 15.4275 10.7515 15.3655C10.7843 15.4255 10.932 15.382 10.952 15.4577C11.009 15.438 11.0613 15.409 11.1173 15.3847C11.0823 15.4082 11.047 15.4335 11.012 15.4595C10.9758 15.4832 10.9393 15.507 10.903 15.5307C10.8323 15.58 10.7588 15.619 10.692 15.6505C10.7355 15.6347 10.7785 15.6177 10.8215 15.599C10.8635 15.578 10.904 15.5537 10.945 15.5287C11.0283 15.481 11.1025 15.412 11.1785 15.341L11.1438 15.332C11.1853 15.305 11.2225 15.2715 11.2625 15.2415C11.22 15.2565 11.1695 15.249 11.1143 15.2507C11.0578 15.2505 10.9978 15.2592 10.9358 15.3125C11.0015 15.246 11.0723 15.1845 11.1393 15.1122C11.3378 15.108 11.0868 15.241 11.3335 15.173C11.3205 15.2007 11.304 15.2182 11.286 15.23L11.2985 15.3432C11.3288 15.3022 11.3788 15.2825 11.4205 15.2607C11.4608 15.237 11.492 15.2112 11.4843 15.1635L11.4523 15.1827L11.5218 15.076L11.4953 15.2355C11.5698 15.198 11.6133 15.1035 11.653 14.9932C11.6968 14.8867 11.7345 14.764 11.8238 14.6737C11.945 14.7115 11.6835 14.9507 11.6538 15.1052C11.8123 14.9322 11.964 14.7417 12.1075 14.5412C12.1218 14.5005 12.1273 14.4605 12.1183 14.4202C12.0695 14.4567 12.023 14.4937 11.974 14.5277C12.0658 14.371 12.2678 14.3522 12.2553 14.259L12.2673 14.3007L12.2795 14.2812C12.2958 14.209 12.3243 14.1282 12.3865 14.0327C12.2935 14.0035 12.2065 14.1375 12.181 14.2577L12.106 14.1732C11.938 14.4302 11.7428 14.7065 11.6163 14.9272C11.623 14.8812 11.6313 14.838 11.6358 14.7912C11.5108 14.8185 11.5098 14.866 11.508 14.9155C11.5068 14.964 11.503 15.0125 11.374 15.0167C11.2948 15.1442 11.4888 14.986 11.4403 15.0945C11.344 15.1415 11.3318 14.9405 11.2045 15.047C11.4198 14.8235 11.6403 14.5695 11.835 14.2847L11.909 14.1785L11.9775 14.0675C12.025 13.995 12.0658 13.9175 12.1083 13.842C12.194 13.6905 12.268 13.5335 12.3373 13.378C12.3243 13.3582 12.3023 13.3875 12.2803 13.4162C12.2778 13.383 12.2908 13.329 12.315 13.2595C12.3275 13.2247 12.3433 13.1865 12.3618 13.145C12.378 13.1025 12.397 13.057 12.418 13.009C12.5005 12.8152 12.607 12.5687 12.6903 12.3165C12.861 11.8127 12.9343 11.2847 12.7955 11.2397C12.8405 11.2077 12.8745 11.33 12.8853 11.1755C12.8668 11.1595 12.844 11.1177 12.7993 11.15C12.896 10.9637 12.909 10.7315 12.9055 10.489C12.9043 10.246 12.8855 9.99249 12.9298 9.74824C12.8823 9.75974 12.8535 9.65299 12.8193 9.65224C12.9268 9.48299 12.7913 9.19924 12.8433 9.04174L12.7915 9.09399C12.786 9.01199 12.7805 8.94174 12.7735 8.87924L12.771 8.85749C12.771 8.85449 12.7713 8.85124 12.771 8.84799L12.77 8.82724C12.7693 8.81324 12.7675 8.79924 12.7653 8.78499C12.746 8.78874 12.7485 8.81124 12.7423 8.82574C12.716 8.80324 12.7695 8.76899 12.8113 8.74149C12.7688 8.72999 12.7263 8.72824 12.6865 8.73549C12.6993 8.68049 12.6835 8.62724 12.6485 8.59199C12.6468 8.59574 12.6448 8.59899 12.6435 8.60449C12.6273 8.58424 12.6075 8.56599 12.5853 8.54974C12.5573 8.53824 12.5258 8.53224 12.4938 8.53224L12.4915 8.56449C12.4943 8.56899 12.4973 8.57224 12.5013 8.57399C12.5103 8.56474 12.52 8.55524 12.5305 8.54699C12.5313 8.55374 12.5315 8.55874 12.5323 8.56449C12.552 8.60124 12.5288 8.63074 12.513 8.65099C12.4838 8.64299 12.453 8.63574 12.4188 8.63124L12.4185 8.63249L12.4183 8.63124C12.3938 8.62899 12.3713 8.62549 12.3398 8.62649C12.312 8.66749 12.3373 8.66374 12.2563 8.75899C12.227 8.74874 12.1965 8.73949 12.1648 8.73224C12.155 8.72674 12.205 8.71599 12.2463 8.70424C12.288 8.69199 12.3218 8.67749 12.297 8.63274H12.2958C12.266 8.63799 12.2348 8.64424 12.202 8.65249C12.1268 8.70399 12.049 8.77074 11.9668 8.84224L12.03 8.85349C11.948 8.85174 11.9963 9.02699 11.8923 9.13349C11.907 9.08674 11.9208 9.03674 11.937 8.99024C11.84 8.98349 11.7718 9.06499 11.7113 9.16024C11.7083 9.23299 11.6895 9.29574 11.6503 9.37524C11.7148 9.29699 11.7753 9.23474 11.8175 9.28924C11.7705 9.37124 11.6943 9.42849 11.619 9.48374C11.584 9.54024 11.5488 9.59749 11.5183 9.65749L11.5698 9.63474L11.4973 9.71974L11.5033 9.68799L11.5018 9.68849C11.4758 9.73799 11.4523 9.78899 11.429 9.84024C11.4253 9.85874 11.4198 9.87674 11.4085 9.89274L11.5225 9.87124C11.507 9.92049 11.4903 9.96949 11.4778 10.0197L11.4568 9.99299C11.3423 10.2237 11.3258 10.4587 11.3838 10.6847C11.3695 10.6402 11.3603 10.595 11.3478 10.549C11.3278 10.5587 11.3148 10.6332 11.3293 10.6962C11.266 10.6767 11.295 10.5042 11.2413 10.5127L11.232 10.4995C11.2263 10.527 11.2228 10.5547 11.2193 10.5825C11.2315 10.6277 11.2073 10.6502 11.1825 10.6607L11.1638 10.7022L11.1813 10.738C11.1678 10.7425 11.1548 10.747 11.1418 10.7515L11.1253 10.7885L11.1328 10.7547C11.0185 10.789 10.9053 10.7877 10.792 10.7212L10.7808 10.7492L10.7838 10.7557L10.7775 10.758C10.7708 10.7757 10.7638 10.7937 10.757 10.8112L10.766 10.7625C10.6335 10.8137 10.503 10.8167 10.3708 10.7237C10.2405 10.631 10.1045 10.4405 10.0195 10.104C10.0625 10.0212 10.0598 10.4152 10.154 10.213C10.2443 9.90549 10.2873 9.51474 10.407 9.10399C10.525 8.69324 10.7213 8.27699 11.0375 7.98299C11.2378 7.84874 11.2808 7.80624 11.469 7.69174C11.4608 7.67824 11.447 7.66349 11.4263 7.65799C11.4533 7.63699 11.4828 7.61399 11.5135 7.58974C11.4795 7.59149 11.446 7.59799 11.4165 7.61599C11.4313 7.58574 11.45 7.55149 11.4545 7.52424L11.424 7.53699C11.4515 7.50124 11.4958 7.42349 11.5303 7.43549C11.45 7.47699 11.4698 7.50674 11.5063 7.56374C11.5455 7.54024 11.5865 7.51774 11.6285 7.49624C11.6298 7.49974 11.6305 7.50224 11.6315 7.50549C11.6445 7.49649 11.658 7.48774 11.672 7.47924C11.6393 7.42574 11.7283 7.37199 11.7868 7.34649C11.7565 7.38449 11.7378 7.41624 11.7183 7.45124C11.7418 7.43674 11.7633 7.42574 11.792 7.41049C11.821 7.39499 11.849 7.38199 11.8775 7.36974C11.9345 7.34399 11.9933 7.32324 12.051 7.30499C12.167 7.27099 12.2813 7.25574 12.378 7.25949C12.4618 7.23249 12.5273 7.15149 12.3508 7.18649C12.4498 7.16024 12.5463 7.15574 12.6358 7.16299C12.7248 7.13999 12.8475 7.15974 12.979 7.20149C13.1108 7.24374 13.2495 7.30649 13.396 7.36274C13.3888 7.33274 13.381 7.30249 13.3723 7.27224C13.549 7.30549 13.7213 7.43399 13.8495 7.59974C13.982 7.76374 14.0703 7.95949 14.1545 8.13224C14.112 8.11099 14.0683 8.09274 14.0255 8.07599C14.0538 8.21299 14.0318 8.38799 14.1375 8.47874C14.0915 8.33074 14.1628 8.38849 14.2098 8.40449C14.2235 8.42899 14.2355 8.45624 14.2465 8.48524C14.2513 8.49999 14.2563 8.51499 14.2615 8.53024L14.272 8.56449C14.2843 8.61024 14.2928 8.65874 14.2993 8.70574C14.3133 8.80149 14.3205 8.88749 14.3508 8.96624C14.3508 8.96624 14.3295 8.96124 14.3168 8.97049L14.3993 9.13399C14.3948 9.21824 14.3438 9.25424 14.2885 9.31274C14.3055 9.34099 14.3135 9.41574 14.3645 9.38024C14.3675 9.36349 14.3705 9.34674 14.3638 9.33674C14.4775 9.41124 14.3425 9.40174 14.4173 9.50424C14.3218 9.42949 14.2978 9.54549 14.209 9.54599C14.2613 9.66899 14.3658 9.53949 14.4078 9.55049C14.393 9.62374 14.3703 9.66924 14.3495 9.71199C14.352 9.72374 14.3528 9.73549 14.3523 9.74749C14.3483 9.74049 14.345 9.73499 14.341 9.72899C14.3185 9.77524 14.3 9.82174 14.2988 9.89974C14.3208 9.85699 14.351 9.80449 14.3523 9.74749C14.3573 9.75674 14.3625 9.76649 14.3678 9.77574C14.3725 9.77124 14.378 9.76724 14.385 9.76499C14.3823 9.77649 14.3813 9.78824 14.381 9.79949C14.39 9.81474 14.3993 9.82874 14.4093 9.83774L14.4145 9.80299C14.4168 9.80899 14.4193 9.81549 14.4218 9.82249L14.4398 9.76874C14.4335 9.79024 14.4305 9.81124 14.4258 9.83224C14.4443 9.87824 14.4695 9.93574 14.448 9.95474C14.4498 9.90174 14.439 9.87924 14.4175 9.86949C14.3943 10.0032 14.3965 10.1345 14.4418 10.2795L14.4685 10.2632L14.4718 10.3782L14.3685 10.3432C14.3975 10.4032 14.3105 10.4737 14.393 10.5025L14.3993 10.4795L14.4353 10.5552L14.3313 10.4807C14.294 10.579 14.5038 10.7075 14.4898 10.8705C14.355 10.9072 14.4353 10.5932 14.2583 10.5805C14.2313 10.634 14.204 10.724 14.2518 10.7545C14.2995 10.747 14.2995 10.709 14.2993 10.671C14.3415 10.7317 14.3383 10.808 14.3318 10.8812C14.3355 10.9955 14.3298 11.15 14.4185 11.0002C14.4243 11.0175 14.4275 11.0367 14.43 11.0565L14.4593 11.0017C14.4648 11.0392 14.4513 11.0727 14.4328 11.1022C14.4343 11.1927 14.4138 11.3022 14.3983 11.4225L14.4323 11.4507C14.4095 11.5107 14.3948 11.5362 14.3828 11.5517C14.3773 11.6087 14.375 11.6665 14.3773 11.7257L14.4518 11.6772C14.5178 11.9952 14.329 12.3815 14.2753 12.719L14.2058 12.599C14.1445 12.7087 14.038 12.8375 14.085 12.9665C14.1173 12.8245 14.15 12.9102 14.1823 12.9462C14.1843 13.1537 14.0448 13.4155 13.984 13.6885C13.984 13.6885 13.9695 13.6687 13.9525 13.6747C13.9378 13.772 13.9178 13.8682 13.8998 13.966C13.833 14.087 13.7603 14.106 13.6703 14.1552C13.6625 14.2067 13.6055 14.3167 13.6755 14.2992C13.6928 14.2777 13.7093 14.2557 13.7113 14.2372C13.7393 14.415 13.6388 14.315 13.6118 14.5072C13.5998 14.341 13.483 14.488 13.4135 14.4302C13.345 14.6315 13.5408 14.5237 13.5643 14.5657C13.4775 14.6667 13.414 14.7137 13.3543 14.7627C13.292 14.8102 13.2338 14.8592 13.1578 14.9627C13.1948 15.0057 13.2863 14.829 13.35 14.8427C13.2983 14.8977 13.2563 14.974 13.266 14.9967L13.388 14.8842C13.1913 15.0832 13.0253 15.2805 12.8683 15.5455L12.9048 15.5447L12.7785 15.6872L12.7468 15.569C12.6998 15.663 12.5635 15.6832 12.5833 15.7767L12.6145 15.7547L12.5488 15.869L12.5673 15.7055C12.4958 15.748 12.461 15.8455 12.4143 15.9545C12.3638 16.06 12.3085 16.1847 12.197 16.2632C12.085 16.2067 12.4085 15.99 12.4185 15.8292C12.3395 15.9245 12.249 16.0127 12.159 16.1037C12.0625 16.1882 11.9698 16.2792 11.8623 16.3572C11.8478 16.3817 11.8373 16.4077 11.8333 16.4365L12.01 16.3777C11.8623 16.506 11.672 16.4505 11.6423 16.535L11.6458 16.5147C11.571 16.5625 11.4983 16.613 11.421 16.6572L11.186 16.7862C11.2408 16.8465 11.4233 16.6412 11.42 16.665L11.3738 16.7745C11.1675 16.842 11.196 16.808 11.1143 16.8195L10.925 16.9065L10.934 16.9315C10.914 16.9257 10.8905 16.9257 10.8678 16.9305C10.8303 16.9452 10.792 16.9602 10.752 16.9745C10.658 17.022 10.5593 17.0775 10.5498 17.0372C10.3933 17.0785 10.218 17.1065 10.034 17.103C10.0075 17.122 10.0763 17.1335 10.1433 17.138C10.0885 17.1582 9.97875 17.1702 9.82875 17.1517C9.67925 17.1347 9.489 17.0775 9.3125 16.9772C8.952 16.7785 8.65725 16.418 8.506 16.023C8.3845 15.718 8.3465 15.3867 8.37925 15.101C8.36325 15.0707 8.336 15.0685 8.32075 15.0512C8.313 15.043 8.30825 15.0287 8.30975 15.0092C8.31125 14.992 8.319 14.9632 8.3385 14.9202C8.348 14.9455 8.34475 14.9975 8.34825 15.0327C8.35175 15.072 8.35875 15.0905 8.384 15.0367L8.38575 15.042C8.4065 14.8742 8.45675 14.6915 8.5015 14.5652C8.54625 14.436 8.58375 14.3442 8.5815 14.2897C8.5385 14.3595 8.49975 14.4305 8.4585 14.491C8.4595 14.4467 8.52475 14.3242 8.5735 14.2435C8.62175 14.1642 8.64 14.1092 8.50825 14.193C8.547 14.0845 8.65875 13.9677 8.80425 13.8645C8.84175 13.84 8.88025 13.8147 8.9195 13.789C8.9605 13.766 9.00225 13.7422 9.045 13.7182C9.13175 13.6725 9.22275 13.6285 9.30575 13.5877C9.275 13.5747 9.2435 13.562 9.211 13.55C9.38625 13.426 9.62775 13.377 9.87175 13.3852C9.90225 13.3852 9.933 13.389 9.96475 13.3915C9.999 13.3945 10.0343 13.3965 10.067 13.4022C10.133 13.413 10.1988 13.4227 10.2625 13.4392C10.391 13.4672 10.5113 13.5107 10.6268 13.5515C10.5693 13.5622 10.5138 13.5747 10.4605 13.5895C10.5325 13.6322 10.6058 13.693 10.677 13.7467C10.7473 13.8032 10.8175 13.8492 10.9005 13.864C10.7425 13.7522 10.8503 13.7665 10.9043 13.7552C10.9358 13.7705 10.968 13.7892 11.0005 13.8102C11.033 13.8332 11.0648 13.8582 11.089 13.878C11.14 13.9215 11.1915 13.9722 11.2375 14.025C11.3325 14.131 11.417 14.2452 11.508 14.3382C11.508 14.3382 11.484 14.34 11.4793 14.3572C11.5465 14.4175 11.6118 14.4782 11.6725 14.536C11.7235 14.6412 11.6958 14.702 11.6785 14.791C11.7113 14.8182 11.7593 14.897 11.787 14.8375C11.7805 14.8175 11.774 14.7977 11.7625 14.7895C11.9078 14.826 11.7788 14.8722 11.9015 14.9452C11.7755 14.9112 11.8148 15.0382 11.735 15.0775C11.8485 15.1785 11.8725 15.0017 11.917 14.9955C11.9698 15.1625 11.9193 15.222 12.0123 15.3645C12.0593 15.338 11.9663 15.2495 12.0073 15.2007C12.0243 15.2462 12.062 15.2865 12.0835 15.2792C12.073 15.2452 12.065 15.2092 12.056 15.175C12.1058 15.3462 12.206 15.4842 12.3688 15.5755L12.3773 15.5455C12.403 15.5722 12.4308 15.5962 12.458 15.6207L12.361 15.6712C12.4235 15.692 12.4188 15.804 12.495 15.7597L12.482 15.7402C12.5085 15.747 12.5343 15.7552 12.5608 15.7605C12.5203 15.773 12.48 15.782 12.438 15.7922C12.4633 15.841 12.5368 15.8422 12.6138 15.8425C12.6923 15.8407 12.774 15.8357 12.8323 15.8777C12.8135 15.9452 12.7518 15.9257 12.6808 15.902C12.61 15.8785 12.5313 15.8487 12.4703 15.9137C12.4968 15.9692 12.5608 16.0455 12.6133 16.023C12.633 15.9787 12.6015 15.9572 12.5698 15.9362C12.6538 15.9362 12.718 15.992 12.785 16.0337C12.8513 16.0757 12.9193 16.1022 12.9855 16.047L12.9215 15.9572C13.0173 15.9822 13.027 16.1535 13.0848 16.1122C13.043 16.1542 12.9998 16.193 12.9538 16.2325C13.0268 16.2152 13.0968 16.2187 13.164 16.2225C13.1978 16.2225 13.2315 16.2242 13.2623 16.222C13.2898 16.2162 13.3155 16.2082 13.339 16.1952C13.3458 16.145 13.3175 16.141 13.2863 16.1487C13.2533 16.1547 13.2095 16.164 13.2163 16.156L13.2798 16.0955C13.3373 16.1322 13.3438 16.1495 13.3548 16.1672C13.366 16.187 13.3793 16.2012 13.464 16.234L13.4648 16.166C13.4925 16.218 13.5458 16.187 13.5803 16.1717C13.616 16.15 13.6398 16.1415 13.625 16.2367C13.6063 16.2252 13.5878 16.217 13.5708 16.203L13.581 16.264C13.5908 16.2585 13.603 16.2492 13.6155 16.2432L13.6725 16.2445C13.7113 16.2292 13.75 16.202 13.7875 16.183C13.785 16.2262 13.828 16.221 13.8575 16.2335L13.9168 16.226C13.9253 16.2117 13.9333 16.1987 13.9413 16.183C13.952 16.1952 13.9583 16.2077 13.9608 16.2205C14.0098 16.21 14.06 16.2057 14.11 16.1927C14.1243 16.178 14.1438 16.1627 14.1658 16.1477C14.1733 16.158 14.1795 16.1677 14.1845 16.1765C14.3995 16.126 14.6193 16.0572 14.8383 15.9887C14.8508 15.98 14.8633 15.977 14.875 15.9775C14.9035 15.969 14.9315 15.9607 14.9595 15.9522L14.97 15.931L14.9903 15.9427C15.008 15.937 15.026 15.931 15.0435 15.9255L15.0013 15.949C15.1068 16.0122 15.1815 16.1025 15.203 16.2357L15.2205 16.2025C15.2385 16.2115 15.2553 16.221 15.2715 16.2315L15.2725 16.23ZM14.406 9.86899L14.4073 9.86449L14.3995 9.86299C14.4018 9.86499 14.4033 9.86799 14.406 9.86899ZM10.7588 10.699L10.772 10.7287L10.7753 10.7107L10.7588 10.699ZM11.1508 10.6677C11.15 10.6677 11.1485 10.6677 11.1478 10.6677L11.15 10.6722L11.151 10.6677H11.1508ZM14.0328 10.722C14.0335 10.7307 14.034 10.7392 14.0348 10.7472C14.0365 10.7402 14.0385 10.7327 14.0403 10.725L14.0328 10.722ZM13.8943 9.77224C13.8598 9.78024 13.838 9.79824 13.8268 9.82049C13.868 9.88549 13.8775 9.85599 13.896 9.80674C13.8948 9.79574 13.8938 9.78424 13.8943 9.77199V9.77224ZM13.1013 9.51299C13.073 9.55299 13.0833 9.61524 13.083 9.66549C13.1148 9.65124 13.1303 9.63024 13.136 9.60424L13.092 9.55049C13.096 9.53824 13.098 9.52549 13.1013 9.51274V9.51299ZM13.0243 8.72149L13.0215 8.72199C13.0223 8.73524 13.0273 8.74549 13.0375 8.75174L13.0243 8.72174V8.72149ZM12.6718 8.18699C12.6858 8.18799 12.699 8.18799 12.7115 8.18974C12.7073 8.18799 12.7033 8.18599 12.6988 8.18474L12.6715 8.18699H12.6718ZM11.7908 8.55474L11.704 8.59474L11.683 8.62424C11.6563 8.66324 11.6305 8.70349 11.606 8.74474C11.6663 8.67549 11.7288 8.61124 11.7908 8.55474ZM11.804 8.70249C11.8188 8.68949 11.834 8.67624 11.8498 8.66274C11.853 8.65774 11.855 8.65274 11.8573 8.64749C11.8468 8.65949 11.8288 8.67849 11.804 8.70249ZM11.4825 9.14124C11.4998 9.10974 11.516 9.08049 11.5295 9.05599L11.5188 9.02249C11.497 9.05149 11.475 9.08099 11.4533 9.11024C11.4578 9.12899 11.468 9.13924 11.4825 9.14124ZM11.5493 9.02024C11.5443 9.01799 11.5408 9.01299 11.5395 9.00499L11.5363 9.04399C11.541 9.03524 11.545 9.02774 11.5493 9.02024ZM13.0165 7.27924C13.1663 7.35724 13.2738 7.44424 13.3908 7.48624C13.326 7.42324 13.3458 7.42024 13.3863 7.42674C13.4253 7.43524 13.481 7.45824 13.4803 7.44174C13.4193 7.39649 13.3578 7.38299 13.3185 7.44349L13.3703 7.35524C13.2545 7.31574 13.1353 7.29074 13.0165 7.27924ZM12.649 7.38574C12.6913 7.39699 12.7513 7.41524 12.816 7.43574C12.9433 7.45899 13.084 7.49449 13.2078 7.56674C13.253 7.57424 13.2925 7.56974 13.3168 7.54074C13.384 7.62274 13.4373 7.70674 13.476 7.79549C13.5545 7.82999 13.501 7.72149 13.5915 7.73799C13.5968 7.81049 13.6378 7.86174 13.6838 7.91299C13.682 7.88249 13.68 7.85299 13.68 7.82374C13.7238 7.88599 13.7583 7.95399 13.788 8.02299C13.8053 8.04374 13.8218 8.06374 13.8323 8.08399C13.8418 8.11724 13.9593 8.12349 13.9785 8.07099C13.9118 7.98624 13.838 7.91049 13.7583 7.84474C13.808 7.82149 13.8485 7.72124 13.756 7.64399C13.729 7.71149 13.695 7.68674 13.6538 7.63299C13.6763 7.70324 13.68 7.76249 13.68 7.82374C13.554 7.63849 13.363 7.49099 13.1338 7.41824C12.977 7.27599 12.7873 7.30149 12.6858 7.36199C12.7235 7.37249 12.7308 7.37674 12.6675 7.37349L12.649 7.38574ZM11.078 8.71574C11.1593 8.57974 11.2548 8.45749 11.3628 8.35449C11.3678 8.29849 11.376 8.24349 11.3973 8.19174L11.482 8.23174C11.446 8.25224 11.4295 8.27474 11.4213 8.30174L11.4273 8.29624C11.5008 8.25349 11.5495 8.22524 11.593 8.19974C11.5325 8.16449 11.5103 8.23674 11.577 8.09774C11.6095 8.09999 11.6268 8.13899 11.6463 8.16674C11.684 8.14349 11.7235 8.11849 11.7818 8.08899C11.7735 8.07549 11.7603 8.06024 11.7423 8.05249C11.7673 8.03249 11.7955 8.00949 11.826 7.98624C11.8305 7.94549 11.8428 7.90374 11.896 7.86849C11.8565 7.87349 11.8183 7.88149 11.7788 7.88924C11.8265 7.85074 11.9148 7.77199 12.002 7.80149C11.9528 7.81849 11.8875 7.88199 11.8695 7.95474C11.9103 7.92524 11.9545 7.89624 12.0035 7.86974C12.0545 7.84174 12.1075 7.81824 12.161 7.79949C12.1585 7.79774 12.1568 7.79649 12.1543 7.79474L12.1885 7.79024C12.23 7.77799 12.271 7.76774 12.3103 7.76324C12.3278 7.69174 12.2645 7.70549 12.2023 7.72949C12.1403 7.75149 12.0798 7.78174 12.0805 7.71174C12.1098 7.60824 12.1908 7.62574 12.258 7.64724C12.328 7.66799 12.3848 7.68974 12.436 7.57749C12.3165 7.58574 12.1945 7.61199 12.077 7.65674C12.0193 7.67849 11.959 7.70599 11.9053 7.73524C11.8538 7.76324 11.8045 7.79424 11.757 7.82749C11.5678 7.96124 11.4183 8.12999 11.3 8.30699C11.2113 8.43974 11.1395 8.57574 11.0783 8.71574H11.078ZM11.199 10.451C11.181 10.425 11.163 10.3987 11.1468 10.3717C11.1478 10.4367 11.133 10.4952 11.0765 10.5472C11.113 10.61 11.147 10.4985 11.1848 10.5182C11.1895 10.4965 11.1943 10.4737 11.199 10.451ZM13.077 9.32074C13.0645 9.33349 13.0508 9.39574 13.0458 9.46549C13.0545 9.45074 13.0735 9.44474 13.1155 9.45499L13.1183 9.44399C13.112 9.40749 13.1095 9.36999 13.116 9.33299C13.08 9.30799 13.0308 9.31174 13.0245 9.16849L13.1198 9.09374C13.1105 9.18424 13.1153 9.24799 13.124 9.30374C13.127 9.29474 13.1293 9.28599 13.1335 9.27724C13.1325 9.11874 13.1033 8.94349 13.058 8.80399C13.0445 8.79424 13.0305 8.78874 13.0178 8.78499C13.0283 8.86599 13.017 9.02199 13.025 9.09149L12.9403 9.03849C12.871 9.14449 12.9898 9.19949 12.9278 9.33274C12.9795 9.45424 13.0413 9.25324 13.0775 9.32074H13.077ZM13.91 10.4662C13.9023 10.4827 13.8975 10.5012 13.892 10.5192C13.8963 10.5317 13.9 10.5445 13.9025 10.558L13.871 10.6175L13.8708 10.6187C13.9245 10.6335 13.9158 10.5452 13.91 10.4662ZM14.0075 10.783C14.0013 10.7117 14.0003 10.638 14.0163 10.5752C14.0288 10.5975 14.0295 10.6612 14.0328 10.7182L14.0418 10.7195C14.046 10.697 14.0508 10.6725 14.0555 10.6477C14.055 10.552 14.0548 10.454 14.049 10.3602L14.0788 10.3752L14.0633 10.2605L14.0545 10.2687C14.0583 10.2582 14.056 10.2305 14.051 10.191C14.032 10.1742 14.0118 10.1597 13.9928 10.1482C14.0193 10.1322 13.9985 10.1257 14.0398 10.1382C14.041 10.1362 14.042 10.1345 14.0433 10.1327C14.0383 10.0947 14.0325 10.0512 14.0265 10.005C13.9835 9.96074 13.919 9.91424 13.9 9.82899C13.8893 9.88424 13.8818 9.94274 13.8793 10.0065C13.8863 10.0257 13.8903 10.0482 13.8928 10.075L13.929 9.92924C13.936 9.98024 13.9508 10.06 13.9435 10.1312C13.9808 10.1727 14.052 10.1287 14.0063 10.2657C13.9788 10.2327 13.9843 10.095 13.944 10.179C13.9413 10.1755 13.9398 10.1717 13.9378 10.1682C13.9323 10.1925 13.9235 10.2147 13.9095 10.2327C13.9118 10.195 13.8993 10.1332 13.8765 10.0752C13.8755 10.1762 13.8745 10.2845 13.8738 10.3967C13.8853 10.4007 13.897 10.4045 13.909 10.4065C13.9115 10.3657 13.9243 10.3402 13.9648 10.3585C14.139 10.4997 13.815 10.6487 14.0075 10.7837V10.783ZM14.336 11.552C14.3468 11.5527 14.3545 11.5505 14.3613 11.5477C14.3545 11.4685 14.3473 11.3895 14.3373 11.3112L14.328 11.3177C14.334 11.306 14.3303 11.2637 14.3245 11.2077L14.2173 11.1467C14.2998 11.2717 14.279 11.4315 14.336 11.5522V11.552ZM14.3745 11.7L14.3635 11.5727C14.3488 11.588 14.3335 11.6095 14.3055 11.6892L14.3745 11.7ZM14.3318 11.7225C14.3253 11.7115 14.3158 11.7025 14.3033 11.6957C14.3003 11.7032 14.2978 11.7105 14.2945 11.719L14.3318 11.7225ZM14.3315 11.8622C14.3433 11.8187 14.349 11.7777 14.341 11.7457C14.3175 11.7775 14.3238 11.8227 14.3315 11.8622ZM14.1213 12.172L14.1715 12.2565C14.2235 12.2765 14.3118 12.2475 14.3168 12.1412C14.2088 12.1625 14.264 12.0555 14.307 11.9375C14.295 11.9345 14.2795 11.9282 14.259 11.9177L14.3063 11.8607L14.2243 11.8595C14.2363 11.946 14.245 12.033 14.2528 12.1207C14.195 12.0892 14.1975 12.2145 14.1213 12.1722V12.172ZM14.1725 12.5637L14.1663 12.2747C14.1193 12.277 14.0933 12.24 14.071 12.1952C14.0638 12.2427 14.0615 12.2935 14.061 12.3425C14.0723 12.3675 14.0793 12.3835 14.0793 12.3835L14.0605 12.3722C14.0803 12.3902 14.0843 12.4342 14.0828 12.4867C14.0718 12.4867 14.0613 12.486 14.052 12.4847C14.0538 12.493 14.0588 12.5022 14.0655 12.512C14.07 12.506 14.076 12.4995 14.0825 12.493C14.082 12.5047 14.081 12.5172 14.0805 12.5295C14.107 12.5562 14.1453 12.578 14.1725 12.564V12.5637ZM12.7325 15.085C12.7378 15.0825 12.742 15.0802 12.7468 15.0777C12.7518 15.0707 12.7565 15.0635 12.7608 15.0562C12.7508 15.0655 12.7403 15.074 12.7315 15.0827C12.732 15.084 12.732 15.084 12.7325 15.085ZM12.519 15.3597L12.5245 15.3592L12.535 15.3382C12.5295 15.3455 12.5245 15.3522 12.519 15.3597ZM12.5555 15.4205C12.6295 15.3635 12.6653 15.2795 12.6795 15.1997L12.602 15.2777C12.63 15.2415 12.6578 15.204 12.685 15.1657C12.6858 15.1562 12.6868 15.147 12.6878 15.1375L12.6865 15.12C12.66 15.156 12.6343 15.195 12.6085 15.2332C12.5933 15.2907 12.5775 15.3542 12.5558 15.4205H12.5555ZM12.1413 15.7367C12.2285 15.6532 12.3148 15.5645 12.4013 15.4765L12.396 15.4462C12.3225 15.5325 12.224 15.603 12.171 15.6845L12.168 15.689C12.157 15.7042 12.1485 15.7202 12.1415 15.7365L12.1413 15.7367ZM11.9645 15.917L11.9688 15.913L11.966 15.8552C11.9353 15.908 11.9008 15.962 11.8608 16.0145C11.8655 16.0147 11.87 16.0145 11.8745 16.0155C11.9238 16.0117 11.8933 16.0625 11.8863 16.0892C11.934 16.0382 11.9773 15.9885 12.0163 15.9402C12.011 15.9257 11.9965 15.9172 11.9718 15.9177C11.9705 15.921 11.9698 15.9247 11.9693 15.9287L11.969 15.9175C11.9673 15.9175 11.9663 15.9175 11.9645 15.9172V15.917ZM11.5948 16.1967C11.6015 16.207 11.6098 16.2122 11.6185 16.2142C11.6375 16.1882 11.657 16.162 11.6768 16.1375C11.6783 16.0687 11.8748 15.9212 11.961 15.7837L11.96 15.7712C11.9355 15.7997 11.9113 15.8267 11.885 15.8525C11.8398 15.9137 11.7863 15.9715 11.7358 16.0292C11.6823 16.0835 11.632 16.1377 11.5948 16.1967ZM11.3163 16.391C11.37 16.3907 11.4958 16.337 11.4848 16.364C11.5193 16.3415 11.5628 16.294 11.6033 16.2352C11.5698 16.2385 11.5443 16.2385 11.3748 16.3087L11.3808 16.3192L11.4713 16.2907C11.4455 16.3102 11.4188 16.3257 11.392 16.3385L11.4093 16.3675C11.377 16.3617 11.3458 16.3727 11.316 16.391H11.3163ZM10.8095 16.1302C10.8148 16.1337 10.8175 16.1382 10.8185 16.1435C10.8333 16.139 10.8475 16.1365 10.8633 16.1302L10.866 16.1225L10.8638 16.13C10.8823 16.1225 10.8998 16.1152 10.9208 16.1067C10.9188 16.0952 10.9083 16.0922 10.8945 16.0922C10.882 16.0992 10.872 16.109 10.8658 16.1225L10.874 16.0942C10.865 16.096 10.8553 16.098 10.8448 16.101C10.8345 16.1115 10.8213 16.1205 10.8095 16.1302ZM10.7798 16.1542L10.7813 16.1537C10.8028 16.1412 10.8125 16.1335 10.8088 16.1307C10.799 16.1387 10.7908 16.1467 10.7798 16.1542ZM10.7945 16.5955C10.9218 16.6227 11.017 16.5502 11.1178 16.4597C11.1178 16.4537 11.1173 16.4485 11.1173 16.441L11.1413 16.4395C11.1568 16.4262 11.1733 16.4132 11.19 16.4005L11.183 16.3905C11.1625 16.393 11.1438 16.3957 11.1265 16.3987C11.0438 16.467 10.954 16.526 10.864 16.5867C10.865 16.5782 10.8633 16.5722 10.86 16.568C10.8395 16.5775 10.8175 16.5865 10.7945 16.5952V16.5955ZM9.97475 15.8412C9.97925 15.859 9.984 15.881 9.993 15.9012C10.0128 15.8965 10.0595 15.8982 10.0608 15.8667C10.0275 15.859 10.001 15.8495 9.97475 15.8415V15.8412ZM8.6855 14.1287C8.6565 14.1705 8.627 14.2147 8.59875 14.261C8.61125 14.273 8.608 14.3075 8.6175 14.315C8.62725 14.323 8.6465 14.3022 8.7175 14.2165C8.71825 14.186 8.744 14.1215 8.6855 14.1287ZM10.4153 13.6165C10.2793 13.5965 10.1435 13.6005 10.012 13.6145C10.0368 13.5622 9.972 13.4657 9.8345 13.485C9.8855 13.5822 9.75425 13.5542 9.604 13.5545C9.454 13.5525 9.282 13.5902 9.31075 13.7005L9.28 13.603C9.1305 13.684 8.976 13.7932 8.85825 13.919L8.879 13.9205C8.8695 13.9057 8.7835 13.9932 8.694 14.1167C8.84825 14.0142 9.01275 13.9157 9.1965 13.84C9.3795 13.765 9.55925 13.7172 9.75425 13.697C9.75875 13.6892 9.7665 13.6805 9.77975 13.6722C9.79325 13.6807 9.8075 13.6862 9.8215 13.692C9.9275 13.6835 10.0523 13.692 10.1685 13.7115C10.2153 13.713 10.26 13.7152 10.2968 13.7242C10.335 13.7412 10.4453 13.6677 10.4155 13.6162L10.4153 13.6165ZM10.394 15.2182L10.395 15.2202L10.3963 15.2185L10.3938 15.2182H10.394ZM11.5613 15.5377C11.5658 15.5297 11.566 15.5187 11.5613 15.504C11.5593 15.515 11.559 15.5262 11.5613 15.5377ZM11.841 15.9752C11.7465 15.8545 11.7235 15.7822 11.6455 15.675L11.5823 15.7087L11.5788 15.7135C11.653 15.809 11.7455 15.899 11.841 15.9752ZM11.453 16.3945C11.4328 16.3637 11.415 16.3325 11.3983 16.3027C11.3823 16.3047 11.3655 16.3057 11.3488 16.3062C11.3828 16.3432 11.42 16.3765 11.4533 16.3945H11.453ZM12.2275 15.8872C12.1978 15.82 12.1398 15.7887 12.0745 15.7752C12.113 15.8165 12.1518 15.859 12.195 15.8967L12.2275 15.8872ZM12.1928 16.3117L12.2213 16.2512C12.1408 16.2152 12.069 16.183 12.0003 16.1522C12.017 16.247 12.0625 16.2385 12.1018 16.2312C12.1425 16.2237 12.1773 16.2177 12.1928 16.312V16.3117ZM12.2145 16.3312C12.206 16.3265 12.1995 16.3237 12.1948 16.3225C12.195 16.324 12.1953 16.325 12.1955 16.3267C12.203 16.329 12.2093 16.3302 12.2148 16.3312H12.2145ZM12.3448 16.4157C12.2975 16.3847 12.2598 16.36 12.2333 16.3425C12.2258 16.3537 12.2188 16.365 12.2133 16.3765C12.251 16.3917 12.2898 16.4035 12.3228 16.4207C12.3298 16.4175 12.3378 16.4167 12.3448 16.4157ZM12.8783 16.342C12.959 16.3815 13.039 16.4205 13.119 16.4592C13.1595 16.4265 13.0115 16.3512 13.039 16.3352C13.0068 16.3262 12.9448 16.3365 12.8783 16.342ZM12.6358 16.592C12.6303 16.614 12.6235 16.6352 12.616 16.656L12.6608 16.6787C12.6593 16.6515 12.6463 16.6215 12.6368 16.5925L12.6358 16.592ZM12.5778 16.5597C12.5748 16.5675 12.5715 16.5742 12.569 16.578C12.586 16.5802 12.6035 16.5822 12.621 16.5845C12.6065 16.5762 12.592 16.5677 12.578 16.5597H12.5778ZM12.4663 16.568L12.436 16.556L12.4368 16.5582L12.4628 16.574C12.4648 16.5725 12.465 16.57 12.4663 16.568ZM12.4718 16.5467C12.4713 16.53 12.4665 16.5105 12.4678 16.4947C12.456 16.4875 12.4453 16.4807 12.4343 16.4737C12.442 16.499 12.4533 16.524 12.4718 16.5467ZM12.697 16.2457C12.6903 16.192 12.815 16.2287 12.7303 16.1615C12.6735 16.145 12.6178 16.1532 12.608 16.1947C12.6375 16.2125 12.667 16.2302 12.697 16.2457ZM12.5838 17.052C12.5068 16.9905 12.4555 16.9612 12.3893 16.913C12.3628 16.9252 12.3333 16.9355 12.301 16.944C12.392 16.9852 12.4873 17.0202 12.5838 17.052ZM12.9525 16.7657C12.8505 16.7525 12.7298 16.6025 12.6708 16.6837L12.7223 16.7097C12.7733 16.7232 12.8223 16.7387 12.8735 16.7502L12.9525 16.766V16.7657ZM13.1018 16.7887C13.099 16.786 13.0955 16.7837 13.0928 16.7802C13.0533 16.7675 13.0133 16.758 12.975 16.7425L12.957 16.7667C13.0045 16.7777 13.0538 16.7817 13.1018 16.789V16.7887ZM13.2848 16.5375C13.3063 16.5252 13.326 16.515 13.3453 16.5065C13.3648 16.4952 13.3835 16.4857 13.4023 16.4782C13.3438 16.4657 13.2798 16.4875 13.199 16.4982C13.2275 16.5107 13.2563 16.5227 13.285 16.5372L13.2848 16.5375ZM13.2978 16.7217C13.314 16.7165 13.33 16.7115 13.3458 16.7035C13.2835 16.701 13.2478 16.6982 13.254 16.7107L13.2975 16.722L13.2978 16.7217ZM13.4633 16.7227C13.4463 16.7142 13.4333 16.7087 13.4215 16.7042C13.3993 16.704 13.378 16.7035 13.3595 16.7032L13.3328 16.73L13.36 16.734C13.397 16.7277 13.432 16.723 13.4633 16.7227ZM13.5645 16.402L13.5683 16.4002V16.399C13.5668 16.3995 13.5658 16.401 13.5645 16.402ZM13.5205 16.4485C13.5365 16.446 13.5533 16.4437 13.5713 16.4425L13.5695 16.4145L13.5565 16.4087C13.5435 16.419 13.5315 16.4325 13.5205 16.4485ZM13.608 16.7025C13.6073 16.7017 13.6053 16.7005 13.6048 16.6995C13.5908 16.7002 13.5773 16.701 13.5638 16.7017L13.608 16.7025ZM13.6268 16.4392L13.6143 16.435L13.6108 16.4415C13.6163 16.4405 13.621 16.44 13.6268 16.4392ZM13.6613 16.425C13.6528 16.4227 13.644 16.4217 13.6353 16.4217C13.6395 16.4255 13.6475 16.427 13.6613 16.425ZM13.7895 16.713C13.7788 16.708 13.7645 16.7057 13.749 16.7052C13.7418 16.714 13.7375 16.722 13.7365 16.7292L13.7895 16.713ZM14.7875 16.0642C14.6618 16.1327 14.531 16.2117 14.3698 16.3207C14.3953 16.373 14.3678 16.3935 14.3373 16.4165C14.306 16.438 14.272 16.4602 14.282 16.522C14.3668 16.485 14.323 16.506 14.2173 16.5512C14.233 16.5552 14.248 16.556 14.2628 16.556C14.2923 16.5485 14.321 16.5412 14.35 16.534C14.349 16.5102 14.346 16.4912 14.3455 16.4845L14.374 16.528L14.3848 16.5252C14.479 16.4722 14.552 16.371 14.6223 16.2862C14.6943 16.2022 14.7655 16.1345 14.8808 16.144C14.9125 16.0652 14.7663 16.1365 14.7875 16.0642ZM14.9473 15.9777L14.9205 15.9922C14.9265 15.9967 14.9313 16.001 14.9338 16.0042L14.9473 15.9777Z" fill="#69DDFF"/>
<path d="M11.432 7.50297C11.3975 7.49247 11.3305 7.51322 11.2468 7.62222C11.2843 7.61247 11.3488 7.56422 11.432 7.50297Z" fill="#69DDFF"/>
<path d="M13.3112 7.37349C13.3112 7.37349 13.311 7.37349 13.31 7.37299L13.3367 7.40099C13.3287 7.39074 13.32 7.38299 13.3112 7.37349Z" fill="#69DDFF"/>
<path d="M9.79576 14.7513L9.78476 14.742C9.78876 14.746 9.79176 14.748 9.79551 14.7515H9.79576V14.7513Z" fill="#69DDFF"/>
<path d="M13.9078 10.548L13.9023 10.5582C13.9048 10.5717 13.9063 10.5857 13.906 10.601L13.9078 10.548Z" fill="#69DDFF"/>
<path d="M14.0825 12.4868V12.4933C14.0845 12.4913 14.086 12.4893 14.0882 12.487C14.0862 12.487 14.0847 12.487 14.0825 12.4868Z" fill="#69DDFF"/>
<path d="M11.6485 7.96876C11.6728 7.95401 11.6998 7.93376 11.7305 7.91151C11.6998 7.89751 11.6475 7.90876 11.5863 7.99751C11.589 7.99701 11.5923 7.99526 11.5953 7.99476C11.577 8.02176 11.5588 8.05251 11.5245 8.06176C11.5685 8.04001 11.6733 8.04501 11.6485 7.96876Z" fill="#69DDFF"/>
<path d="M11.4018 7.65173C11.4045 7.64098 11.4098 7.62848 11.4165 7.61523C11.407 7.62098 11.3978 7.62748 11.3905 7.63598L11.4018 7.65173Z" fill="#69DDFF"/>
<path d="M11.4305 7.69123L11.4017 7.65173C11.3962 7.67448 11.4012 7.69023 11.4305 7.69123Z" fill="#69DDFF"/>
<path d="M14.1635 16.1415C14.165 16.1432 14.1658 16.1445 14.1668 16.1462L14.172 16.1427C14.1693 16.1422 14.1668 16.142 14.1635 16.1415Z" fill="#69DDFF"/>
<path d="M14.3215 16.0355C14.2772 16.0733 14.219 16.1073 14.172 16.1428C14.2515 16.151 14.274 16.1055 14.3215 16.0355Z" fill="#69DDFF"/>
<path d="M8.35749 15.8315L8.37624 15.8265C8.36599 15.817 8.35474 15.8035 8.34299 15.788C8.34649 15.803 8.35099 15.8175 8.35749 15.8315Z" fill="#69DDFF"/>
<path d="M8.3765 15.8265C8.399 15.8455 8.4165 15.848 8.42325 15.813L8.3765 15.8265Z" fill="#69DDFF"/>
<path d="M8.28776 15.4642C8.29126 15.528 8.30426 15.5882 8.31426 15.6505C8.24751 15.663 8.21276 15.669 8.19626 15.5482C8.17576 15.5815 8.23451 15.6827 8.26526 15.735L8.26001 15.6912C8.28651 15.711 8.31601 15.7537 8.34301 15.788C8.32201 15.7075 8.34826 15.6257 8.36151 15.567C8.37251 15.5087 8.36976 15.4712 8.28751 15.4642H8.28776Z" fill="#69DDFF"/>
<path d="M8.21051 15.1955C8.21076 15.2337 8.21376 15.2992 8.22826 15.3467C8.24476 15.3937 8.27251 15.421 8.31351 15.3902C8.27376 15.3302 8.24376 15.2637 8.21051 15.1955Z" fill="#69DDFF"/>
<path d="M16.5405 22.7608C16.612 22.7348 16.7095 22.6903 16.7865 22.6483C16.6995 22.6825 16.6187 22.7213 16.5405 22.7608Z" fill="#69DDFF"/>
<path d="M20.89 18.727C21.003 18.5505 21.1045 18.367 21.2115 18.1873C21.0593 18.4205 20.9173 18.6595 20.746 18.8795L20.89 18.727Z" fill="#69DDFF"/>
<path d="M19.473 3.9715C19.4635 3.92075 19.4015 3.8215 19.1988 3.65875C19.2358 3.7175 19.339 3.8335 19.473 3.9715Z" fill="#69DDFF"/>
<path d="M22.6873 11.9665C22.6915 12.0527 22.6958 12.135 22.7003 12.222C22.699 12.1395 22.6933 12.0495 22.6873 11.9665Z" fill="#69DDFF"/>
<path d="M21.3205 6.52324C21.3205 6.52324 21.32 6.52299 21.319 6.52124L21.3398 6.58174C21.3338 6.56099 21.327 6.54324 21.3205 6.52324Z" fill="#69DDFF"/>
<path d="M12.2167 23.9652C12.2152 23.9647 12.2152 23.9647 12.2127 23.9645C12.1562 23.9687 12.0992 23.9727 12.0425 23.977C11.9852 23.981 11.9282 23.9772 11.8712 23.9777C11.916 23.9792 11.9662 23.9817 12.0235 23.981C12.0805 23.9762 12.1445 23.971 12.2167 23.965V23.9652Z" fill="#69DDFF"/>
<path d="M21.8098 8.00651C21.8323 8.02201 21.8538 8.03526 21.8498 8.00301C21.924 8.27851 22.0598 8.61826 22.1723 8.95301C22.14 8.82251 22.1078 8.69326 22.076 8.56501C22.0373 8.43851 21.9993 8.31301 21.9613 8.18801C21.9243 8.06251 21.8795 7.94051 21.833 7.81976C21.7863 7.69926 21.7428 7.57751 21.69 7.46051C21.7033 7.61051 21.716 7.76901 21.8098 8.00651Z" fill="#69DDFF"/>
<path d="M22.015 8.106L21.9937 8.104C22.0125 8.1375 22.0347 8.18225 22.0587 8.2315C22.0455 8.18975 22.0317 8.14825 22.015 8.106Z" fill="#69DDFF"/>
<path d="M21.9937 8.10402C21.9547 8.03377 21.9307 8.01052 21.941 8.10002L21.9937 8.10402Z" fill="#69DDFF"/>
<path d="M22.3145 9.13476C22.273 8.96151 22.2222 8.79051 22.1762 8.61801C22.2497 8.62551 22.2867 8.63026 22.3715 8.95026C22.3765 8.87426 22.2567 8.58576 22.1882 8.42626C22.1985 8.46551 22.211 8.50426 22.2192 8.54401C22.1772 8.47476 22.1132 8.34301 22.059 8.23151C22.095 8.34526 22.119 8.45226 22.1357 8.55026C22.1475 8.64951 22.1582 8.73901 22.1677 8.81776C22.1875 8.97476 22.2207 9.08376 22.3147 9.13476H22.3145Z" fill="#69DDFF"/>
<path d="M22.544 9.87322C22.4995 9.67147 22.3818 9.18397 22.324 9.33022L22.544 9.87322Z" fill="#69DDFF"/>
<path d="M22.5445 11.7388L22.54 11.7773C22.5438 11.8295 22.5473 11.884 22.5485 11.9425L22.5445 11.7388Z" fill="#69DDFF"/>
<mask id="mask0_4965_2546" style="mask-type:luminance" maskUnits="userSpaceOnUse" x="1" y="0" width="22" height="24">
<path d="M1.22501 0H22.777V24H1.22501V0Z" fill="white"/>
</mask>
<g mask="url(#mask0_4965_2546)">
<path d="M11.8977 0.0589956C11.8615 0.0422456 11.8237 0.0247456 11.7882 0.00799561L11.895 0.0484956C12.4337 0.00874562 12.9842 0.000745607 13.5425 0.0257456C13.7212 0.116246 13.9112 0.211996 14.1102 0.312496C14.3095 0.410996 14.518 0.513996 14.733 0.620246C15.1625 0.836246 15.6175 1.07025 16.068 1.33225C16.9692 1.855 17.8577 2.48925 18.5187 3.15475C18.8507 3.54375 18.9447 3.632 19.2365 3.9745C19.2507 3.96675 19.2622 3.9495 19.2567 3.91925C19.4325 4.09675 19.6602 4.32975 19.8767 4.57625C20.0935 4.8225 20.2952 5.08425 20.4337 5.30075C20.5312 5.4 20.6435 5.42725 20.4682 5.2195C20.5927 5.36125 20.6997 5.50575 20.791 5.64875C20.8787 5.79425 20.9535 5.93625 21.022 6.06925C21.1492 6.34175 21.2542 6.57475 21.3787 6.74525C21.2327 6.385 21.6152 7.02325 21.4257 6.605C21.6725 7.02325 21.6672 7.24 21.6902 7.4605C21.5285 7.0955 21.3445 6.74325 21.1185 6.4165C20.999 6.0755 20.8055 5.894 20.6627 5.8035C20.6952 5.86475 20.7005 5.87975 20.637 5.7885C20.6282 5.7835 20.6187 5.77775 20.6102 5.773C20.6647 5.87925 20.762 6.05375 20.8632 6.22875C20.9595 6.4065 21.069 6.5795 21.152 6.68225C21.1645 6.69625 21.177 6.71025 21.1902 6.725C21.23 6.764 21.2645 6.7805 21.2905 6.763L21.3352 6.89575C21.3727 6.94275 21.4117 6.99125 21.4525 7.042C21.4902 7.095 21.5292 7.1505 21.5702 7.2085C21.5922 7.32775 21.424 6.9955 21.3595 6.9685C21.3985 7.07825 21.428 7.19225 21.461 7.304C21.4955 7.366 21.5005 7.41825 21.494 7.46425C21.5815 7.69675 21.6757 7.94575 21.774 8.20675C21.787 8.22325 21.8047 8.24975 21.8305 8.293C21.9037 8.46875 21.9687 8.646 22.018 8.82675C22.0435 8.91675 22.0687 9.00625 22.0937 9.09575C22.1187 9.185 22.1337 9.27675 22.1537 9.36675L22.2422 9.70375C22.2707 9.81625 22.303 9.9275 22.32 10.0415C22.3607 10.2677 22.3987 10.4917 22.4295 10.7097C22.4485 10.8097 22.4712 10.9095 22.4965 11.0092C22.4885 10.9175 22.4805 10.827 22.4725 10.7367C22.464 10.6467 22.448 10.5587 22.4365 10.4705C22.413 10.2937 22.39 10.1197 22.367 9.94825C22.3387 9.7775 22.3037 9.6105 22.2737 9.444C22.2415 9.27825 22.2157 9.11225 22.1725 8.9525C22.221 9.08025 22.2585 9.20875 22.2922 9.32925C22.3265 9.44975 22.357 9.5625 22.3802 9.662C22.403 9.7615 22.4202 9.8475 22.4235 9.91525C22.4245 9.98375 22.416 10.033 22.3947 10.058C22.397 10.067 22.3995 10.0767 22.4015 10.085L22.4882 10.2497C22.4982 10.2622 22.508 10.2785 22.5167 10.3042L22.5182 10.3072V10.3087C22.536 10.363 22.5517 10.4607 22.564 10.6652C22.549 10.6242 22.5312 10.543 22.514 10.4617C22.509 10.5422 22.501 10.5937 22.5017 10.6747C22.4997 10.7562 22.5005 10.8682 22.5175 11.0677C22.5885 11.3825 22.582 11.035 22.6247 11.1455C22.597 11.2252 22.6275 11.4792 22.6257 11.769C22.6282 11.9137 22.63 12.0665 22.6265 12.209C22.6187 12.3515 22.5975 12.4837 22.5722 12.587C22.5165 12.6062 22.5525 12.4415 22.5867 12.221C22.5812 12.0857 22.5817 11.977 22.597 11.9287C22.6022 11.9572 22.6045 11.9787 22.6075 12.0025C22.6215 11.8127 22.6217 11.614 22.5735 11.4765C22.5647 11.474 22.5597 11.4827 22.556 11.496C22.5535 11.584 22.5475 11.674 22.5395 11.7652C22.54 11.7692 22.5402 11.773 22.5407 11.777L22.526 11.9087C22.5157 11.998 22.5055 12.0897 22.4947 12.1842C22.4897 12.2367 22.4807 12.2887 22.471 12.341C22.471 12.3522 22.471 12.3627 22.471 12.3742C22.51 12.6095 22.5222 12.416 22.5612 12.2302C22.5085 12.5712 22.4987 13.0142 22.4365 13.4962C22.4605 13.5385 22.4925 13.5322 22.4902 13.395C22.5157 13.7745 22.382 14.0812 22.3112 14.333C22.2955 14.429 22.2765 14.524 22.2502 14.6182C22.249 14.6322 22.2477 14.6462 22.2475 14.66C22.351 14.3977 22.264 14.9307 22.3685 14.6147C22.3112 14.9212 22.2137 15.0435 22.117 15.1545C22.1142 15.1877 22.112 15.221 22.1082 15.2535C22.1107 15.223 22.1117 15.1922 22.1112 15.161L22.1012 15.1725C22.0732 15.2637 22.0372 15.3507 22.0045 15.4385C21.977 15.5345 21.949 15.6315 21.9207 15.73C21.8922 15.8282 21.8617 15.9272 21.821 16.024C21.816 16.0445 21.8082 16.0655 21.8017 16.0862C21.8082 16.144 21.9115 15.9712 21.868 16.1987C21.7512 16.354 21.6625 16.599 21.5542 16.8422C21.505 16.966 21.4552 17.091 21.4087 17.2082C21.3625 17.326 21.3067 17.4305 21.2607 17.5207C21.199 17.6225 21.177 17.8807 21.2642 17.804L21.48 17.327L21.6655 16.8385C21.678 16.8765 21.7187 16.874 21.7742 16.8185C21.802 16.7907 21.8335 16.7495 21.867 16.6937C21.8985 16.6372 21.9285 16.5645 21.9592 16.476C21.888 16.5117 21.901 16.4325 21.9547 16.2945C22.0077 16.1562 22.1067 15.96 22.1797 15.752C22.2142 15.6185 22.2505 15.4807 22.2815 15.3475C22.3155 15.215 22.3257 15.0825 22.3352 14.9672C22.334 14.9655 22.3335 14.9625 22.332 14.961L22.3357 14.9635C22.3365 14.9532 22.3375 14.9417 22.3382 14.9315C22.3922 14.7727 22.437 14.8257 22.5012 14.5837C22.473 14.599 22.472 14.5565 22.4695 14.498C22.4667 14.4392 22.467 14.3657 22.4527 14.3215C22.5077 14.0125 22.5412 13.9825 22.5752 14.0022C22.5862 13.8967 22.6035 13.7922 22.606 13.686L22.595 13.7077C22.6087 13.6455 22.6237 13.351 22.6422 12.9897C22.641 12.627 22.654 12.1977 22.6567 11.86C22.7182 12.0782 22.6135 13.2985 22.7572 12.6042C22.7665 12.781 22.7725 12.9972 22.739 13.2397C22.7077 13.482 22.6847 13.7532 22.623 14.0367C22.6382 14.0437 22.655 14.043 22.6745 14.0185C22.6075 14.1762 22.566 14.38 22.5182 14.6005C22.48 14.7655 22.443 14.9327 22.4097 15.104L22.519 14.9445C22.4982 15.0775 22.4792 15.2162 22.4445 15.3547C22.4087 15.4927 22.3687 15.6337 22.3257 15.7765C22.3037 15.8477 22.2817 15.9195 22.2595 15.9917C22.236 16.0637 22.2057 16.1342 22.1785 16.2057C22.121 16.3477 22.063 16.4915 22.0045 16.636C21.9467 16.7805 21.871 16.9182 21.8047 17.0592C21.7337 17.1985 21.6735 17.3417 21.5955 17.4757C21.4417 17.7442 21.3082 18.0172 21.1537 18.2655C21.188 18.1455 21.2297 18.0305 21.2552 17.908C21.0255 18.2395 20.695 18.626 20.5262 18.9882C20.8065 18.5825 20.7 18.8262 20.678 18.928C20.6017 19.0512 20.52 19.1902 20.4157 19.323L20.3072 19.6042C20.2072 19.7107 20.1577 19.7937 20.1047 19.874C20.0487 19.9515 19.987 20.0247 19.8682 20.113C19.964 20.0062 20.0375 19.9142 20.0867 19.83C20.1347 19.745 20.1652 19.673 20.185 19.614C20.1245 19.6872 20.0647 19.7637 19.9995 19.838C19.932 19.9102 19.8635 19.9835 19.7942 20.0575C19.7547 20.1727 19.611 20.3817 19.4372 20.5742C19.2582 20.7745 19.0387 20.988 18.8532 21.1505C18.7065 21.2387 18.7847 21.1122 18.824 21.034C18.8845 21.027 19.1445 20.7917 19.2445 20.712C19.2852 20.6482 19.313 20.591 19.343 20.5332C19.234 20.6435 19.1247 20.754 19.0165 20.8632C19.0165 20.8632 19.0365 20.8167 19.0002 20.8315L18.8377 21.0025C18.8345 21.0115 18.83 21.0217 18.8237 21.034C18.8172 21.0347 18.8117 21.0345 18.8105 21.0295L18.5675 21.2705L18.3157 21.5042C18.2912 21.5222 18.2705 21.5375 18.2482 21.5537C18.3505 21.5125 18.5205 21.4182 18.2765 21.7082C18.2302 21.6365 18.0437 21.788 17.852 21.9545C17.6557 22.1147 17.4495 22.2855 17.3932 22.2672L17.7867 21.945C17.666 22.006 17.5625 22.0705 17.4667 22.137C17.4187 22.1702 17.373 22.204 17.3277 22.2382L17.1885 22.3347C17.0955 22.3995 17.0007 22.4645 16.896 22.5272C16.7925 22.592 16.6702 22.6415 16.5342 22.6922C16.393 22.796 16.4405 22.797 16.541 22.7605C16.455 22.804 16.3735 22.8492 16.2952 22.8935C16.2147 22.934 16.1367 22.9722 16.062 23.0075C15.911 23.0765 15.7717 23.134 15.6332 23.1437C15.847 23.0435 16.0677 22.9275 16.283 22.8097C16.4915 22.6797 16.7025 22.5602 16.887 22.4347C16.8232 22.4745 16.743 22.5235 16.6287 22.5982C16.7332 22.516 16.7647 22.4765 16.7587 22.459C16.722 22.4737 16.6835 22.4885 16.6372 22.5045C16.6747 22.4862 16.7112 22.4682 16.748 22.45C16.692 22.432 16.457 22.5157 16.4662 22.445C16.148 22.6362 16.1662 22.6745 16.2462 22.6797L16.583 22.48L16.2992 22.68C16.363 22.6775 16.4297 22.6707 16.4065 22.6995C16.337 22.7307 16.275 22.7595 16.2157 22.7832C16.1552 22.8047 16.0995 22.8247 16.0457 22.8437L15.8052 22.9915C15.6305 23.063 15.4455 23.1107 15.2652 23.1667C15.1282 23.2132 14.9955 23.2655 14.8567 23.2967C14.8285 23.3082 14.8072 23.3185 14.7987 23.3255L14.9332 23.297C15.0555 23.266 15.1557 23.2315 15.247 23.2115L15.3115 23.1927L15.2687 23.206C15.293 23.2005 15.3225 23.192 15.3442 23.188L15.2115 23.362C15.1575 23.3847 15.0972 23.409 15.0322 23.431C14.9657 23.449 14.8955 23.468 14.824 23.4872C14.681 23.5237 14.5332 23.5615 14.4002 23.5952C14.1327 23.6547 13.9252 23.702 13.9507 23.775C13.9485 23.7405 13.812 23.7422 13.6872 23.74C13.5632 23.741 13.4472 23.7182 13.4892 23.6777L12.8692 23.725C13.015 23.706 13.1645 23.6867 13.315 23.667L13.5407 23.6355C13.616 23.6257 13.6892 23.6047 13.763 23.59C13.91 23.5577 14.055 23.5255 14.195 23.4947C14.3365 23.469 14.466 23.4205 14.592 23.3882C14.2827 23.4775 13.9607 23.5225 13.6362 23.5962C13.4725 23.6272 13.304 23.645 13.1337 23.6732C13.0482 23.6867 12.9622 23.7005 12.875 23.7142C12.788 23.7305 12.6985 23.7317 12.6087 23.7417L12.6877 23.7655L12.1672 23.7875C12.314 23.7957 12.4362 23.8285 12.5985 23.8535C12.6792 23.8645 12.7705 23.8802 12.8782 23.8777C12.986 23.874 13.1112 23.8627 13.2607 23.8397C13.1765 23.8542 13.0917 23.869 13.0065 23.884C12.921 23.898 12.835 23.916 12.7472 23.9205C12.5717 23.9347 12.3937 23.9492 12.2135 23.9637C11.9312 23.9155 12.0415 23.8937 12.1162 23.876C12.154 23.8672 12.1832 23.859 12.1517 23.8492C12.1202 23.8387 12.0277 23.8332 11.8242 23.796C11.9227 23.7847 12.0047 23.7897 12.0792 23.7857L12.2917 23.68C12.209 23.6902 12.1245 23.6932 12.042 23.6935C11.9595 23.6915 11.8787 23.6785 11.803 23.672C11.6512 23.6567 11.5195 23.649 11.4272 23.6857L11.5485 23.6982C11.4095 23.702 11.2695 23.7112 11.13 23.7097C11.276 23.689 11.4217 23.657 11.5655 23.6307C11.4352 23.6127 11.2915 23.6167 11.1355 23.617C10.98 23.6112 10.812 23.6122 10.632 23.6127C10.542 23.6125 10.4492 23.6122 10.354 23.6117C10.2595 23.6057 10.163 23.5945 10.0642 23.5827C9.96525 23.5707 9.8645 23.5567 9.762 23.5392C9.66 23.52 9.55425 23.5065 9.45225 23.4707C9.42225 23.4312 9.4695 23.4265 9.56375 23.4382C9.65975 23.4445 9.8035 23.4665 9.96475 23.4925C10.0452 23.5057 10.1302 23.5195 10.2157 23.5332C10.2585 23.54 10.3015 23.5467 10.344 23.5535C10.387 23.5565 10.43 23.5595 10.4717 23.5625C10.6392 23.5727 10.7932 23.5772 10.9017 23.5675C10.713 23.5462 10.5217 23.528 10.3307 23.5017C10.1412 23.464 9.951 23.426 9.75925 23.3877C9.566 23.3552 9.37975 23.2922 9.18975 23.24L8.90525 23.1577C8.8095 23.1327 8.719 23.092 8.6255 23.0595C8.4975 23.0237 8.38175 23.0002 8.2845 22.996L8.79375 23.2465C8.505 23.147 8.277 23.027 8.09725 22.9225C7.92075 22.8095 7.78775 22.7215 7.67075 22.7L7.77 22.71L7.703 22.6795C7.4855 22.6165 7.241 22.4942 6.9225 22.316C6.92425 22.3715 7.04175 22.465 7.2035 22.5617C7.2845 22.6097 7.3755 22.6605 7.4705 22.704C7.56725 22.744 7.66575 22.7805 7.75675 22.8095L7.61425 22.8635C7.85 22.9727 8.0915 23.0895 8.34775 23.176C8.4745 23.222 8.60125 23.268 8.72775 23.314C8.855 23.357 8.986 23.3877 9.11325 23.4237C9.24125 23.4572 9.36775 23.4905 9.492 23.5232C9.617 23.5517 9.7425 23.569 9.86325 23.5902C10.1057 23.6285 10.333 23.6722 10.5457 23.675L10.346 23.6897C10.2792 23.6927 10.2135 23.6902 10.147 23.6905C10.3175 23.7682 10.441 23.788 10.5355 23.797C10.6302 23.8052 10.697 23.7967 10.762 23.7885C10.8267 23.7802 10.89 23.7722 10.9777 23.782C11.0217 23.7867 11.072 23.796 11.132 23.8117C11.192 23.8272 11.2625 23.8402 11.3465 23.8655C11.8595 23.8457 10.9837 23.796 11.3715 23.7642C11.7287 23.8085 11.2617 23.949 11.8725 23.9772C10.7215 24.0015 9.488 23.7805 8.328 23.343C7.74425 23.132 7.1885 22.8502 6.6545 22.548C6.12575 22.2357 5.629 21.886 5.16475 21.517C5.11525 21.503 5.20775 21.5867 5.301 21.6677C5.25475 21.6422 5.19025 21.6032 5.11425 21.5472C5.03925 21.4902 4.95025 21.419 4.84975 21.336C4.748 21.2545 4.63925 21.1555 4.5225 21.0452C4.46425 20.99 4.4035 20.9325 4.34025 20.8727C4.27975 20.8107 4.217 20.7465 4.15225 20.6802C3.895 20.4122 3.62375 20.1055 3.356 19.7457C3.23075 19.566 3.10325 19.3855 2.981 19.198C2.923 19.1022 2.8645 19.0062 2.80625 18.9102C2.747 18.815 2.69 18.7182 2.639 18.6182C2.20525 17.8325 1.89825 17.0105 1.70875 16.375C1.61775 16.056 1.5405 15.7865 1.484 15.588C1.423 15.3905 1.3775 15.2655 1.33825 15.2385C1.362 15.1215 1.469 15.5005 1.385 15.004C1.35725 14.9585 1.30975 14.8292 1.28625 14.9457C1.27325 14.315 1.2285 13.578 1.2535 12.8087C1.25575 12.6162 1.2725 12.423 1.28325 12.2287C1.30225 12.0355 1.3175 11.8407 1.34675 11.649C1.398 11.2647 1.4755 10.8875 1.5805 10.5327C1.527 10.545 1.578 10.21 1.54975 10.1892C1.66125 9.96325 1.75175 9.6275 1.849 9.29475C1.94575 8.96225 2.0515 8.633 2.1685 8.42525L2.0645 8.5395C2.156 8.30325 2.25525 8.0575 2.371 7.82975C2.48275 7.59875 2.591 7.3665 2.72275 7.14575C2.73 7.09175 2.6265 7.27325 2.56025 7.376C2.7065 7.0635 2.7895 7.04325 2.84075 7.0495C2.91825 6.82025 3.02 6.60275 3.11725 6.3795C3.2215 6.24525 3.33825 6.114 3.45325 5.9775C3.5675 5.8405 3.68025 5.698 3.80625 5.56175C3.80275 5.5595 3.80125 5.5555 3.7915 5.5595L3.9855 5.344L4.08275 5.237L4.18525 5.13475C4.34125 4.97225 4.4905 4.7985 4.659 4.63925L4.64725 4.60625C4.62875 4.61825 4.60875 4.634 4.585 4.65525C4.5415 4.71275 4.49525 4.7675 4.455 4.82825C4.4425 4.8325 4.4345 4.834 4.4245 4.83675C4.26625 4.9615 4.33425 4.83975 4.4255 4.70825C4.65275 4.492 4.87175 4.27775 5.10775 4.09175L5.11125 4.087L5.11225 4.088C5.193 4.022 5.27275 3.95575 5.35325 3.8925C5.4365 3.8325 5.519 3.77275 5.60075 3.71375C5.7705 3.5505 5.66525 3.60075 6.1545 3.2015C6.2395 3.169 6.3265 3.141 6.41375 3.114C6.4525 3.1015 5.7155 3.50075 5.7785 3.58725L5.7835 3.584C5.9045 3.50125 6.03 3.4265 6.15075 3.35125C6.4855 3.10475 6.837 2.88225 7.1935 2.682L7.0525 2.70525C7.1545 2.678 7.26975 2.57825 7.4275 2.46075C7.5055 2.401 7.593 2.33475 7.69225 2.2675C7.79275 2.203 7.90625 2.14025 8.03275 2.08175C7.88425 2.178 7.73375 2.2685 7.58975 2.3715C7.69725 2.35525 7.83275 2.3085 7.98575 2.244C8.062 2.2115 8.14225 2.17375 8.2255 2.13325C8.3095 2.094 8.397 2.053 8.4865 2.0115C8.67 1.88275 8.87375 1.7775 9.16225 1.65175C8.997 1.7115 8.84175 1.76775 8.735 1.7975C8.6285 1.82725 8.5715 1.83375 8.59975 1.784C8.922 1.6355 9.2345 1.5505 9.5215 1.48725C9.7435 1.40925 9.9675 1.33825 10.192 1.2695C10.143 1.27175 10.094 1.27325 10.0455 1.27725C10.1665 1.2475 10.2882 1.222 10.4092 1.1945L10.305 1.23525H10.3085C10.4945 1.17875 10.682 1.1285 10.8695 1.07925C10.9312 1.05875 10.994 1.04 11.057 1.02975C10.9885 1.01225 10.9205 0.996746 10.852 0.981746C11.0305 0.928746 11.2112 0.882996 11.391 0.834496L11.325 0.879996C12.202 0.705246 12.9572 0.547246 13.776 0.392746C13.6142 0.424496 13.4545 0.458246 13.296 0.494996C13.3357 0.508996 13.5937 0.480746 13.8182 0.443246C13.7465 0.508496 13.155 0.568246 13.1995 0.619246L13.1587 0.635746L13.4382 0.602996C13.587 0.568996 13.6657 0.582996 13.702 0.603496C13.7487 0.604996 13.794 0.606246 13.84 0.607496C13.88 0.597746 13.9195 0.587996 13.96 0.577996C13.9762 0.589996 13.9897 0.601996 14.0027 0.614246C14.0435 0.616496 14.086 0.618746 14.1262 0.620996L14.0125 0.622496C14.1182 0.728496 14.0892 0.843746 13.9037 0.975246C13.93 0.976246 13.9565 0.977496 13.9825 0.978496L14.0005 0.973996L14.007 0.979746C14.0555 0.982996 14.1057 0.985996 14.1535 0.989246L14.0185 0.990496C14.1577 1.1125 14.1382 1.24325 13.923 1.39675C13.7072 1.55225 13.2875 1.732 12.6287 2.00075C12.5297 2.0045 12.6895 1.94975 12.817 1.90175C12.944 1.85375 13.0382 1.80725 12.801 1.81575C12.085 1.898 11.2015 2.1645 10.325 2.535C10.1042 2.6245 9.88675 2.727 9.66775 2.82525C9.4525 2.93125 9.2345 3.03125 9.0245 3.14225C8.811 3.2465 8.60675 3.36175 8.4015 3.46675C8.3005 3.52175 8.2005 3.5765 8.10175 3.63075C8.00225 3.68375 7.90325 3.735 7.80875 3.79C7.59275 3.892 7.457 3.95675 7.3365 4.03075C7.2155 4.10425 7.0965 4.16875 6.922 4.2835C6.92875 4.298 6.94425 4.3115 6.97375 4.31025C6.92475 4.34875 6.871 4.39075 6.8145 4.43475C6.86625 4.4175 6.921 4.39575 6.97125 4.3615C6.938 4.406 6.89725 4.45675 6.8835 4.49225L6.9325 4.46475C6.87975 4.52075 6.798 4.63125 6.752 4.63125C6.87625 4.5485 6.857 4.5205 6.818 4.4645C6.75125 4.51125 6.68325 4.5565 6.61775 4.60475C6.6165 4.60125 6.6155 4.59825 6.61425 4.595C6.5935 4.613 6.57275 4.63125 6.55175 4.64975C6.59625 4.694 6.457 4.8145 6.39325 4.86625L6.48225 4.7105C6.3445 4.83 6.2005 4.95125 6.071 5.0735C5.93875 5.19325 5.808 5.30075 5.70025 5.39575C5.6235 5.5025 5.6125 5.62 5.77525 5.42775C5.685 5.5395 5.5925 5.63625 5.49975 5.72375C5.4385 5.834 5.32075 5.955 5.184 6.0935C5.05125 6.23475 4.91025 6.4025 4.7915 6.587C4.82725 6.5765 4.865 6.56775 4.90125 6.55825C4.847 6.66175 4.7905 6.77425 4.716 6.881C4.644 6.9895 4.55725 7.0945 4.48175 7.20975C4.40225 7.32275 4.322 7.437 4.243 7.54925C4.171 7.666 4.106 7.78425 4.0505 7.9L4.0375 7.72375C3.97875 7.7965 3.90425 7.877 3.843 7.96275C3.78175 8.0485 3.74475 8.14525 3.74525 8.2385C3.83225 8.03325 3.834 8.1595 3.85525 8.21125C3.82 8.35675 3.737 8.524 3.66075 8.7005C3.58625 8.87875 3.50875 9.07825 3.4625 9.27875C3.4625 9.27875 3.44925 9.254 3.4305 9.267C3.40375 9.40925 3.38 9.55225 3.3585 9.69525C3.28675 9.888 3.2165 9.9445 3.1225 10.0547C3.11575 10.1315 3.07125 10.3152 3.14175 10.2557C3.1565 10.2172 3.171 10.179 3.17175 10.152C3.22275 10.3857 3.10375 10.2957 3.10825 10.5762C3.06775 10.3532 2.9725 10.6202 2.89025 10.5817C2.86375 10.9075 3.0385 10.6352 3.07 10.6825C3.0155 10.8512 2.96475 10.9515 2.92475 11.0477C2.92125 11.0775 2.916 11.1065 2.90975 11.1352C2.90925 11.1162 2.90875 11.1025 2.90825 11.0857C2.8635 11.1902 2.82225 11.2972 2.7885 11.4895C2.82825 11.3905 2.879 11.273 2.90975 11.135C2.90975 11.159 2.91 11.1842 2.91025 11.2095C2.91725 11.2002 2.92425 11.1927 2.932 11.1897C2.924 11.2162 2.91675 11.2445 2.911 11.2717C2.91175 11.3115 2.91575 11.3485 2.92125 11.3742L2.9415 11.2915C2.94025 11.3067 2.94 11.3237 2.93975 11.3415C2.95275 11.3 2.968 11.259 2.98225 11.2177C2.96575 11.2672 2.95225 11.3167 2.93925 11.3665C2.938 11.4837 2.93625 11.63 2.9095 11.6697C2.932 11.542 2.9325 11.4847 2.9155 11.4535C2.83325 11.7705 2.79625 12.0952 2.8115 12.4555L2.84075 12.4205L2.82475 12.6985L2.72825 12.5992C2.745 12.7495 2.65775 12.915 2.736 12.9927L2.74425 12.9367C2.75475 12.9992 2.762 13.0617 2.77525 13.1237C2.7395 13.0612 2.70925 12.9977 2.67625 12.9342C2.62825 13.18 2.8455 13.4962 2.8555 13.8787C2.78975 13.9295 2.766 13.7645 2.73925 13.5815C2.70925 13.399 2.68975 13.1977 2.59875 13.1777C2.5725 13.3095 2.54825 13.5375 2.6025 13.6117C2.65025 13.5907 2.64225 13.4977 2.64225 13.4035C2.68875 13.5532 2.69275 13.7395 2.70075 13.919C2.72775 14.1975 2.77225 14.5675 2.815 14.195C2.8235 14.2355 2.833 14.2805 2.843 14.3267C2.84625 14.282 2.8495 14.2375 2.85575 14.1925C2.869 14.2805 2.87025 14.3607 2.86075 14.4342C2.877 14.5405 2.888 14.6592 2.90825 14.7855C2.92725 14.9117 2.9405 15.0487 2.97025 15.189L3.019 15.2417C3.033 15.3852 3.03225 15.4505 3.03275 15.4905C3.06775 15.62 3.1045 15.752 3.1495 15.8825L3.1825 15.74C3.216 15.8232 3.251 15.9087 3.287 15.997C3.322 16.0852 3.35225 16.1777 3.38625 16.271C3.45975 16.455 3.52 16.6527 3.60075 16.845C3.672 17.0415 3.7605 17.233 3.8475 17.4225C3.88975 17.5177 3.944 17.606 3.99225 17.6957C4.0435 17.7835 4.08875 17.8735 4.1475 17.9527C4.0755 17.904 4.0115 17.8497 3.944 17.7965C3.994 17.9272 4.05925 18.0737 4.134 18.2135C4.17225 18.2827 4.20975 18.3527 4.25775 18.4117C4.30575 18.4707 4.35725 18.5235 4.41325 18.5657C4.2065 18.2932 4.3565 18.4067 4.4265 18.4332C4.50525 18.5172 4.585 18.6192 4.668 18.724C4.75075 18.8247 4.84275 18.9367 4.942 19.0505C5.0385 19.166 5.1485 19.2805 5.2575 19.396C5.373 19.5065 5.48475 19.6225 5.61 19.7212C5.61 19.7212 5.5725 19.7142 5.5825 19.7422L5.8475 19.9465L6.1205 20.1395C6.35025 20.351 6.40475 20.4517 6.518 20.6217C6.62075 20.6807 6.85725 20.845 6.8005 20.7387C6.75275 20.6995 6.70525 20.66 6.6685 20.6412C6.83825 20.6962 6.88075 20.7352 6.93 20.785C6.97875 20.835 7.0335 20.8965 7.23075 20.9785C6.90525 20.879 7.246 21.1327 7.1645 21.1862C7.609 21.417 7.28975 21.0797 7.36625 21.0792C7.4255 21.1245 7.478 21.165 7.526 21.2017C7.57475 21.237 7.61875 21.2685 7.65925 21.2977C7.73925 21.3592 7.8065 21.411 7.874 21.4627C8.00675 21.572 8.153 21.6562 8.4225 21.7915C8.478 21.757 8.051 21.5807 8.03525 21.5057C8.1825 21.5895 8.36675 21.6677 8.40375 21.6625L8.09225 21.4722C8.35725 21.6275 8.6215 21.783 8.91425 21.8905C9.20025 22.0182 9.51425 22.0902 9.84775 22.1695L9.80425 22.1277C9.939 22.1695 10.0785 22.1902 10.2155 22.223L10.0407 22.2897C10.1567 22.3007 10.2695 22.3412 10.3715 22.3725C10.4732 22.4045 10.5642 22.4257 10.6332 22.3902L10.5507 22.373L10.8417 22.3765L10.529 22.4382C10.7077 22.4827 10.9345 22.4687 11.1845 22.4562C11.2467 22.4552 11.3112 22.447 11.377 22.4377C11.443 22.4295 11.5102 22.4222 11.5785 22.4165C11.7152 22.4052 11.857 22.4015 12.004 22.4117C12.058 22.4742 11.871 22.4827 11.634 22.488C11.5155 22.4907 11.3847 22.4927 11.2655 22.4997C11.147 22.496 11.0395 22.4982 10.967 22.5147C11.251 22.5532 11.5415 22.5437 11.834 22.5522C11.9805 22.561 12.1267 22.5477 12.274 22.5382C12.4212 22.529 12.5692 22.5197 12.7177 22.5107C12.7757 22.4915 12.8275 22.4695 12.8695 22.4427C12.8042 22.441 12.7395 22.4432 12.6742 22.4385L12.4787 22.419C12.6882 22.4082 12.8627 22.4127 13.0082 22.4247C13.1532 22.436 13.2675 22.4465 13.3432 22.4075L13.3142 22.4267C13.5095 22.392 13.702 22.3422 13.8965 22.302C13.9945 22.2842 14.0887 22.251 14.1842 22.223L14.4707 22.137C14.4035 22.0735 13.8855 22.332 13.9047 22.294C13.9675 22.2577 14.0277 22.214 14.0872 22.1695C14.5425 22.0725 14.467 22.1172 14.6377 22.083C14.7825 22.028 14.9272 21.973 15.0715 21.9182L15.0647 21.8925C15.104 21.8927 15.1492 21.8847 15.1955 21.8667C15.2732 21.831 15.35 21.7957 15.4275 21.7602C15.5207 21.7095 15.6105 21.6602 15.6762 21.6222C15.7415 21.5832 15.786 21.5625 15.7947 21.5815C15.927 21.5085 16.062 21.4417 16.191 21.3647C16.3192 21.286 16.4465 21.2077 16.5727 21.13C16.5975 21.0915 16.5 21.1415 16.4037 21.1907C16.438 21.1595 16.49 21.12 16.5575 21.073C16.6225 21.0225 16.7027 20.9637 16.796 20.8987C16.8427 20.8665 16.8925 20.832 16.945 20.796C16.9962 20.758 17.0502 20.718 17.1065 20.6762C17.2197 20.5932 17.3437 20.505 17.4697 20.4027C17.7282 20.2067 18.0027 19.9702 18.2862 19.7125C18.4257 19.5847 18.5777 19.4417 18.7085 19.3042C18.7765 19.2347 18.845 19.1647 18.9135 19.095L19.0165 18.9902L19.112 18.879C19.2107 18.7635 19.3087 18.6487 19.4057 18.5355C19.5005 18.42 19.5842 18.2985 19.6715 18.183C19.8512 17.9552 19.9882 17.713 20.128 17.4972C20.149 17.3892 20.037 17.4492 20.2275 17.1822C20.2215 17.2235 20.1792 17.3165 20.1542 17.3795C20.128 17.4417 20.1185 17.474 20.1855 17.397L20.1832 17.4062C20.5195 16.8065 20.6972 16.3202 20.6927 16.167C20.6487 16.2922 20.5905 16.4122 20.5352 16.515C20.5405 16.482 20.5655 16.415 20.5955 16.3385C20.626 16.2625 20.6612 16.177 20.6802 16.1042C20.7227 15.9605 20.7312 15.8825 20.6047 16.0697C20.6187 15.9865 20.647 15.8915 20.6842 15.7865C20.7195 15.681 20.773 15.5685 20.8102 15.4412C20.8917 15.1897 20.9947 14.906 21.0292 14.6037L20.937 14.7032C20.945 14.5432 20.9767 14.3765 21.0055 14.2017C21.0295 14.0262 21.0632 13.845 21.1 13.6612C21.154 13.2922 21.2177 12.9112 21.2035 12.561L21.2935 12.772C21.3137 12.6487 21.3445 12.5067 21.361 12.3657C21.371 12.2955 21.372 12.2252 21.364 12.1582C21.3572 12.0915 21.3437 12.0275 21.321 11.97C21.3405 12.2725 21.2795 12.1175 21.2365 12.0655C21.1972 11.8645 21.201 11.615 21.1652 11.349C21.151 11.2155 21.1365 11.0777 21.1217 10.9387C21.1007 10.8007 21.068 10.6632 21.035 10.529C21.035 10.529 21.0595 10.5517 21.069 10.526L20.9885 10.2465C20.9597 10.1542 20.923 10.0637 20.8907 9.9725C20.8357 9.70475 20.8727 9.59675 20.8812 9.416C20.8375 9.32225 20.763 9.0815 20.7395 9.19025C20.751 9.24375 20.7625 9.29675 20.7782 9.329C20.59 9.0825 20.7502 9.12125 20.562 8.79825C20.742 9.03475 20.6467 8.672 20.7405 8.67125C20.551 8.2765 20.582 8.691 20.5242 8.654C20.4525 8.40225 20.4192 8.25525 20.3875 8.1065C20.3465 7.962 20.3082 7.81425 20.194 7.57425C20.1362 7.57025 20.3277 7.928 20.2907 7.99475C20.2387 7.85375 20.1595 7.6965 20.1277 7.68225C20.1635 7.78475 20.1952 7.88875 20.229 7.99125C20.0555 7.47175 19.8105 6.99525 19.4335 6.5155C19.4355 6.53375 19.436 6.5525 19.4372 6.571C19.368 6.46625 19.2947 6.36425 19.2235 6.2605L19.384 6.3125C19.2485 6.15875 19.184 5.9295 19.0535 5.892L19.0935 5.9565C19.0325 5.8955 18.974 5.833 18.9115 5.77375C18.9932 5.8205 19.071 5.87125 19.1515 5.9205C18.9875 5.6285 18.5397 5.41525 18.191 5.02175C18.199 4.934 18.3715 5.087 18.549 5.26775C18.7325 5.443 18.9192 5.646 19.011 5.61575C18.9657 5.53825 18.9 5.43575 18.8322 5.34575C18.7625 5.25775 18.6897 5.18325 18.6367 5.1585C18.6155 5.207 18.7002 5.30275 18.7835 5.4005C18.6895 5.3265 18.5952 5.234 18.5042 5.1325C18.4125 5.03125 18.3175 4.9265 18.2262 4.826C18.0407 4.62725 17.86 4.45225 17.698 4.41C17.7717 4.50325 17.8435 4.59775 17.9125 4.6945C17.633 4.44175 17.547 4.15425 17.399 4.10225C17.5057 4.1275 17.6157 4.1505 17.722 4.1795C17.355 3.95775 16.9495 3.60075 16.5957 3.4175C16.5295 3.4905 17.044 3.762 17.0092 3.76325C16.9465 3.742 16.8817 3.724 16.8182 3.705C16.598 3.49275 16.5697 3.4565 16.5317 3.4075C16.4927 3.35975 16.4442 3.29875 16.1572 3.0605L16.1135 3.11275C15.9687 2.88175 15.304 2.69275 15.6095 2.6735L15.7567 2.81875L15.7787 2.75975C15.74 2.7415 15.6942 2.71775 15.6467 2.692C15.5857 2.64775 15.5252 2.60525 15.4635 2.56325C15.3187 2.48475 15.1715 2.41075 15.0247 2.33625C15.0932 2.3285 14.9537 2.242 14.8912 2.18C14.8322 2.14225 14.7727 2.10425 14.7142 2.06675L14.5785 2.02875C14.5685 2.0055 14.5722 1.992 14.5855 1.9845C14.4407 1.8945 14.297 1.80625 14.154 1.72025C14.0927 1.69775 14.0187 1.666 13.9367 1.63075C13.9367 1.6165 13.9387 1.605 13.943 1.59575C13.3332 1.23825 12.7525 0.920496 12.1915 0.641496C12.15 0.625996 12.1195 0.610246 12.0977 0.594746C12.0267 0.559246 11.958 0.524996 11.8882 0.490246C11.867 0.486746 11.846 0.483496 11.8245 0.479996C11.8192 0.470746 11.8162 0.461996 11.812 0.452996C11.7682 0.432496 11.723 0.410746 11.68 0.390246L11.8052 0.438746C11.7435 0.297496 11.7992 0.191496 12.0267 0.141996C11.9942 0.136746 11.9625 0.131496 11.9297 0.126246C11.916 0.102746 11.906 0.0802456 11.8982 0.0584956L11.8977 0.0589956ZM2.903 11.452L2.90625 11.4417C2.90425 11.4395 2.90175 11.4375 2.89925 11.4355C2.90075 11.441 2.901 11.4492 2.903 11.452ZM13.8427 1.01525L13.9255 0.993746L13.8755 0.995496C13.8652 1.0015 13.8535 1.00875 13.8427 1.01525ZM13.728 0.633496C13.728 0.634496 13.729 0.635746 13.7287 0.636746L13.7432 0.632746L13.728 0.633496ZM2.3785 13.538C2.38025 13.5607 2.382 13.5825 2.38375 13.6037C2.3845 13.585 2.3855 13.5657 2.3865 13.5455L2.37875 13.538H2.3785ZM2.46225 11.023C2.4255 11.0305 2.3955 11.069 2.373 11.1237C2.378 11.3105 2.40225 11.2355 2.4455 11.1145C2.45 11.0852 2.45525 11.055 2.462 11.023H2.46225ZM1.9105 9.93725C1.851 10.035 1.81375 10.221 1.7765 10.367C1.816 10.341 1.8455 10.2885 1.87 10.217C1.87025 10.158 1.86925 10.0985 1.87125 10.0397C1.884 10.006 1.8975 9.97125 1.9105 9.93725ZM2.81975 7.52325L2.8185 7.5195C2.7905 7.57425 2.76875 7.625 2.75825 7.6685C2.77875 7.62 2.79925 7.57175 2.82 7.523L2.81975 7.52325ZM4.47 5.3565C4.4375 5.3955 4.4075 5.4315 4.379 5.466L4.41275 5.43125C4.43175 5.40675 4.451 5.3815 4.47 5.3565ZM7.1005 3.12075C7.186 3.08225 7.2715 3.04375 7.355 3.006C7.38575 2.9855 7.41625 2.9655 7.447 2.94475C7.57025 2.86825 7.6945 2.79175 7.81825 2.71525C7.6945 2.78225 7.57175 2.8485 7.45025 2.914C7.3315 2.984 7.21475 3.05325 7.10025 3.12075H7.1005ZM7.31675 2.8575C7.25975 2.89025 7.20125 2.9235 7.14125 2.958C7.126 2.96925 7.112 2.98 7.0975 2.99075C7.143 2.9615 7.218 2.91625 7.31675 2.8575ZM8.87925 2.057C8.77425 2.102 8.679 2.15175 8.599 2.19L8.54525 2.24525C8.6495 2.2005 8.75425 2.1535 8.86025 2.11C8.8945 2.0805 8.90075 2.0625 8.87925 2.057ZM8.48325 2.248C8.4875 2.25175 8.48325 2.25975 8.468 2.2735L8.56 2.20925C8.53125 2.22375 8.5075 2.23575 8.48325 2.248ZM5.0765 6.11525C4.90225 6.28525 4.737 6.42625 4.651 6.59325C4.83775 6.39975 4.63925 6.7125 4.67675 6.705C4.74225 6.61925 4.77675 6.53925 4.7265 6.491L4.8065 6.55475L5.0765 6.11525ZM5.30175 5.61C5.24775 5.657 5.1705 5.726 5.0865 5.8055C4.93425 5.9645 4.79625 6.16275 4.6365 6.346C4.60075 6.412 4.5885 6.46825 4.61375 6.49875C4.49225 6.60875 4.3725 6.713 4.2525 6.817C4.1955 6.94625 4.33875 6.815 4.3085 6.949C4.22425 6.99575 4.16025 7.08725 4.106 7.18675C4.14175 7.16125 4.1765 7.1385 4.21075 7.11925C4.141 7.21725 4.06875 7.31275 3.99625 7.4085C3.97775 7.448 3.96275 7.48725 3.945 7.51925C3.912 7.56575 3.956 7.69975 4.01775 7.671C4.0455 7.59775 4.06975 7.52225 4.1005 7.45025L4.19525 7.23425C4.231 7.28 4.3445 7.26525 4.4205 7.11775C4.34425 7.11725 4.36675 7.06 4.42875 6.982C4.3495 7.0425 4.2815 7.0795 4.21075 7.11925C4.26325 7.048 4.3095 6.97275 4.365 6.90275C4.4195 6.8325 4.4735 6.76075 4.52675 6.688C4.57925 6.61475 4.632 6.54075 4.68525 6.466C4.74175 6.39375 4.79775 6.3195 4.85325 6.2435C5.0975 6.04625 5.23175 5.83625 5.284 5.6695C5.237 5.711 5.22525 5.7185 5.2925 5.6405C5.2955 5.63025 5.29875 5.6195 5.3015 5.61H5.30175ZM8.71925 2.757C8.5355 2.84275 8.36125 2.94125 8.185 3.02725C8.01125 3.118 7.84325 3.21125 7.676 3.29575C7.5955 3.384 7.51525 3.4695 7.42075 3.5525L7.3095 3.51675C7.40025 3.47475 7.45575 3.43525 7.504 3.392L7.48675 3.4015C7.2995 3.48725 7.1735 3.54725 7.065 3.6115C7.147 3.637 7.25325 3.51825 6.99875 3.761C6.94025 3.773 6.9415 3.72275 6.9295 3.68975C6.83375 3.747 6.7305 3.805 6.595 3.896C6.6015 3.91075 6.617 3.92425 6.6465 3.92325C6.58425 3.972 6.51425 4.02675 6.4415 4.08375C6.41075 4.14725 6.36575 4.21175 6.2575 4.30875C6.3305 4.26525 6.40575 4.22475 6.48275 4.1865C6.373 4.26975 6.198 4.45675 6.05325 4.4925C6.13575 4.43225 6.27325 4.28175 6.3405 4.16375C6.248 4.24075 6.154 4.3255 6.05725 4.4085C5.95975 4.491 5.8625 4.57525 5.77225 4.66125L5.785 4.65875L5.725 4.70425C5.65425 4.76875 5.5845 4.831 5.51775 4.8875C5.52125 5.06725 5.90925 4.50925 5.9225 4.6725C5.8915 4.8185 5.7705 4.87375 5.6525 4.93325C5.53275 4.99025 5.42575 5.06125 5.42375 5.21475C6.0735 4.5655 6.8675 3.928 7.72825 3.3565C7.892 3.255 8.053 3.1475 8.2185 3.048C8.38575 2.952 8.54875 2.84675 8.71975 2.75675L8.71925 2.757ZM13.012 0.697996C12.9345 0.731496 12.8567 0.763496 12.78 0.798496C12.984 0.752996 13.1795 0.732996 13.3542 0.761746C13.5455 0.694246 13.184 0.717246 13.2352 0.671496C13.1625 0.678496 13.0872 0.687746 13.012 0.697996ZM2.0585 9.3785C2.035 9.40625 1.966 9.57325 1.90075 9.76975C1.9215 9.73325 1.94325 9.727 1.971 9.78075L1.983 9.75075C2.01 9.6445 2.039 9.53625 2.08025 9.43675C2.074 9.3445 2.0235 9.3225 2.16725 8.918L2.324 8.7785C2.2195 9.01925 2.1595 9.199 2.11425 9.3595C2.125 9.33675 2.1355 9.3135 2.1475 9.292C2.30475 8.8515 2.4515 8.373 2.65975 7.90125C2.665 7.8635 2.67725 7.806 2.67925 7.77425C2.60275 7.934 2.50375 8.1095 2.428 8.28075C2.351 8.4495 2.28575 8.603 2.25075 8.704C2.248 8.63425 2.24575 8.56425 2.24475 8.49375C2.06525 8.74425 2.10275 8.978 1.92 9.31725C1.84875 9.6965 2.0915 9.16275 2.0585 9.378V9.3785ZM2.256 12.8605C2.24675 12.9037 2.24025 12.9525 2.23325 13.0005C2.23575 13.0337 2.2385 13.0677 2.24125 13.1042L2.2115 13.2612V13.2652C2.266 13.306 2.25075 13.072 2.256 12.8605ZM2.36075 13.6972C2.3425 13.5122 2.341 13.319 2.3555 13.1562C2.3695 13.2142 2.369 13.38 2.37775 13.5282L2.387 13.5307C2.388 13.473 2.3935 13.4095 2.397 13.3452C2.39 13.0982 2.39925 12.843 2.40675 12.599L2.43375 12.6422L2.43875 12.3427L2.4285 12.363C2.43325 12.3362 2.4385 12.2637 2.445 12.1607C2.43075 12.1135 2.41475 12.0712 2.39925 12.036C2.42975 12.0005 2.4115 11.979 2.44825 12.0217C2.45 12.0167 2.45175 12.0127 2.45325 12.0077C2.4575 11.9082 2.47 11.795 2.4805 11.673C2.4545 11.546 2.4155 11.4032 2.43775 11.173C2.40075 11.3132 2.36575 11.4645 2.3375 11.6322C2.3365 11.6855 2.33275 11.7465 2.32525 11.818C2.3555 11.693 2.3835 11.5685 2.4185 11.4452C2.3995 11.581 2.38675 11.7942 2.356 11.9792C2.38125 12.098 2.462 11.9982 2.3815 12.3452C2.36075 12.2542 2.40675 11.8937 2.34325 12.1045C2.34125 12.095 2.341 12.085 2.34 12.075C2.32775 12.1372 2.31275 12.1942 2.29375 12.2395C2.30825 12.14 2.3085 11.9735 2.3095 11.8135C2.27025 12.0805 2.2455 12.3695 2.226 12.6695C2.2365 12.6812 2.248 12.6935 2.26 12.7002C2.26875 12.592 2.2865 12.5265 2.32325 12.5807C2.3975 12.7757 2.3555 12.9615 2.3185 13.1485C2.284 13.3345 2.2525 13.5225 2.36075 13.6972ZM2.989 15.513C2.99975 15.5105 3.005 15.5022 3.00925 15.493C2.9805 15.4042 2.95575 15.314 2.9285 15.2245C2.90125 15.1347 2.87425 15.0447 2.85325 14.953L2.8475 14.9712C2.84775 14.9415 2.8245 14.8427 2.793 14.7117C2.74775 14.6717 2.7065 14.6305 2.664 14.589C2.7255 14.7325 2.77975 14.8982 2.82275 15.0632C2.87525 15.2257 2.92275 15.3865 2.989 15.513ZM3.1275 15.8305L3.02875 15.5485C3.02625 15.589 3.027 15.644 3.0575 15.839L3.1275 15.8305ZM3.106 15.9012C3.0905 15.8802 3.07675 15.8642 3.06 15.8547C3.06325 15.873 3.065 15.891 3.07 15.9115L3.106 15.9012ZM3.2215 16.2082C3.196 16.1062 3.16725 16.0137 3.13325 15.9472C3.139 16.0292 3.1825 16.1265 3.2215 16.2082ZM3.35875 17.0117L3.4895 17.1542C3.5495 17.156 3.585 17.0292 3.476 16.8097C3.446 16.8687 3.41225 16.8332 3.37425 16.7485C3.33825 16.6627 3.30625 16.5252 3.2675 16.386C3.25475 16.3867 3.236 16.3825 3.2085 16.3715C3.20275 16.3215 3.2005 16.2702 3.19875 16.2192L3.12675 16.2625C3.16625 16.3572 3.2175 16.447 3.26175 16.539C3.3085 16.6302 3.351 16.7227 3.404 16.8105C3.3245 16.7832 3.46375 17.0462 3.359 17.0117H3.35875ZM3.87675 17.7625C3.74275 17.581 3.628 17.3875 3.50775 17.195C3.476 17.236 3.4115 17.1802 3.3465 17.0985C3.3905 17.2087 3.4575 17.314 3.51725 17.416C3.5555 17.4577 3.58125 17.4857 3.58125 17.4857L3.5545 17.478C3.59175 17.4987 3.64425 17.5877 3.7165 17.6907C3.709 17.7 3.70175 17.7077 3.69425 17.7132C3.7065 17.7282 3.7225 17.7425 3.73975 17.7555C3.73425 17.7392 3.7295 17.7217 3.725 17.7032C3.74025 17.727 3.7565 17.7517 3.77275 17.7767C3.82575 17.8062 3.8785 17.813 3.8765 17.7622L3.87675 17.7625ZM9.09775 22.3567C9.0865 22.35 9.07675 22.344 9.066 22.3375L9.005 22.316C9.0355 22.331 9.06525 22.3452 9.094 22.3575C9.09575 22.357 9.096 22.357 9.09775 22.3567ZM9.941 22.5857L9.9325 22.58C9.91275 22.578 9.89375 22.576 9.8745 22.574C9.89725 22.578 9.91825 22.5817 9.941 22.5857ZM10.0115 22.5315C9.7955 22.4767 9.58625 22.4302 9.403 22.4165L9.66125 22.5065C9.55125 22.475 9.43875 22.4432 9.32575 22.411C9.304 22.4102 9.2835 22.4095 9.263 22.4087L9.22725 22.4102C9.33625 22.4397 9.44975 22.47 9.562 22.5002C9.631 22.508 9.70275 22.516 9.77725 22.5245C9.8525 22.5267 9.93075 22.529 10.0115 22.5315ZM11.2577 22.8125C11.1072 22.7975 10.9552 22.7755 10.8022 22.7562C10.6497 22.734 10.4945 22.7227 10.3442 22.6832L10.2927 22.6967C10.363 22.71 10.4335 22.7285 10.5047 22.7407C10.5762 22.751 10.6477 22.7612 10.7175 22.771C10.8575 22.7907 10.9922 22.8077 11.1127 22.8137L11.1262 22.8142C11.1727 22.8155 11.2162 22.8177 11.258 22.8122L11.2577 22.8125ZM11.8877 22.8225H11.8735L11.782 22.8647C11.8552 22.8577 11.93 22.8507 12.0065 22.8437C12.0827 22.8305 12.1605 22.8177 12.2395 22.8065C12.2312 22.8037 12.222 22.8015 12.2145 22.7985C12.1152 22.775 12.2522 22.7482 12.304 22.7295C12.1377 22.7467 11.9802 22.7692 11.83 22.7697C11.8157 22.7837 11.8282 22.8 11.8747 22.8172C11.8827 22.8157 11.8905 22.8137 11.8977 22.8115L11.8802 22.8195C11.8832 22.8207 11.8845 22.8212 11.8877 22.8227V22.8225ZM13.0357 22.7575C13.035 22.745 13.025 22.7372 13.0092 22.7325C12.936 22.7517 12.861 22.7712 12.787 22.7905C12.7387 22.832 12.5582 22.846 12.3412 22.87C12.2325 22.8807 12.1145 22.8922 11.999 22.9037C11.883 22.9055 11.769 22.909 11.6682 22.9162L11.6482 22.9255C11.7445 22.9252 11.8377 22.9252 11.9317 22.925C12.0272 22.9237 12.124 22.9027 12.221 22.8942C12.3177 22.8832 12.4147 22.8725 12.5097 22.8617C12.6045 22.849 12.6982 22.8447 12.786 22.8227C12.874 22.8025 12.9577 22.781 13.0355 22.7577L13.0357 22.7575ZM13.859 22.5995C13.7397 22.596 13.417 22.644 13.4707 22.6152C13.3745 22.639 13.228 22.6702 13.0682 22.7165C13.1055 22.7202 13.1365 22.7245 13.2147 22.724C13.293 22.7235 13.419 22.7237 13.6412 22.6857L13.6397 22.6737L13.414 22.6977C13.4915 22.6785 13.5657 22.6632 13.637 22.6515L13.633 22.6177C13.6947 22.627 13.7747 22.617 13.859 22.5992V22.5995ZM14.809 22.8217C14.798 22.8192 14.7957 22.8145 14.7975 22.8087C14.7545 22.819 14.7152 22.8285 14.6677 22.84L14.6527 22.8505L14.6657 22.8405C14.6102 22.855 14.5577 22.8687 14.494 22.8852C14.487 22.8987 14.511 22.8997 14.547 22.8957C14.5872 22.8832 14.6227 22.8687 14.6527 22.8505L14.6022 22.8875C14.6282 22.8822 14.6555 22.8767 14.687 22.8702C14.725 22.8552 14.768 22.8377 14.8087 22.8217H14.809ZM14.9077 22.7755L14.9037 22.777C14.838 22.8055 14.8045 22.8192 14.8115 22.8207C14.8445 22.8077 14.8725 22.791 14.9077 22.7755ZM15.1937 22.2312C14.916 22.25 14.673 22.3887 14.3622 22.5027C14.3572 22.51 14.3535 22.516 14.3465 22.5247L14.2912 22.5307C14.2442 22.5485 14.1957 22.5667 14.1467 22.5857L14.1527 22.5965C14.2005 22.5892 14.2452 22.5827 14.287 22.5767L14.6632 22.4362C14.7867 22.385 14.9072 22.3257 15.029 22.2712C15.0217 22.2817 15.022 22.2882 15.0267 22.2922C15.0797 22.273 15.1357 22.2525 15.194 22.2312H15.1937ZM17.7547 21.8327C17.6882 21.8612 17.6185 21.8845 17.541 21.915C17.432 22.0027 17.1812 22.1737 17.1857 22.203C17.3775 22.0907 17.562 21.9652 17.7547 21.8327ZM20.7805 15.874C20.758 15.9522 20.7335 16.0347 20.707 16.119C20.7375 16.1382 20.699 16.3322 20.8305 15.9737C20.8275 15.9277 20.8417 15.8192 20.7805 15.874ZM21.3325 12.8285C21.3445 12.9352 21.3442 13.0417 21.3457 13.1482L21.3507 13.4697C21.325 13.4515 21.288 13.4635 21.2565 13.508C21.2255 13.5527 21.2007 13.6297 21.1872 13.742C21.2977 13.6772 21.2335 13.8955 21.1697 14.1372C21.1415 14.2587 21.0995 14.3832 21.0815 14.4842C21.0642 14.5852 21.07 14.6627 21.1222 14.6865L21.0245 14.6547C20.9977 14.9252 20.9357 15.1885 20.8852 15.4567L20.905 15.4377C20.8967 15.4342 20.8845 15.479 20.8677 15.5547C20.8495 15.6297 20.8195 15.7335 20.787 15.851C20.935 15.5975 21.0337 15.2935 21.1432 14.973C21.2272 14.6462 21.3172 14.3002 21.3645 13.9392C21.359 13.9285 21.3545 13.911 21.351 13.8847C21.364 13.8635 21.3742 13.839 21.3845 13.8147C21.424 13.6122 21.4315 13.4042 21.4565 13.1982C21.457 13.1165 21.4582 13.0402 21.4642 12.9747C21.4752 12.8985 21.3747 12.7575 21.3327 12.8282L21.3325 12.8285ZM22.3932 10.071L22.392 10.0625C22.392 10.0625 22.391 10.0647 22.3902 10.0652L22.3932 10.071ZM20.7992 7.7595C20.796 7.77225 20.8007 7.7985 20.814 7.839C20.8117 7.815 20.8075 7.78875 20.7992 7.7595ZM20.157 6.42875C20.3737 6.8055 20.4427 6.995 20.6132 7.33675L20.6947 7.3405C20.6957 7.3385 20.6967 7.3365 20.6982 7.3345C20.5412 7.02875 20.357 6.7125 20.157 6.42875ZM20.6122 6.08125C20.6555 6.16425 20.699 6.242 20.7342 6.321C20.7577 6.33575 20.7827 6.35325 20.8082 6.372C20.7457 6.2585 20.6712 6.15375 20.6122 6.08125ZM19.5135 6.05875C19.5595 6.153 19.6152 6.2385 19.6755 6.31575C19.7352 6.393 19.7945 6.4655 19.8562 6.5275C19.8105 6.454 19.7662 6.3795 19.7182 6.3065C19.6687 6.2345 19.619 6.162 19.569 6.089L19.5132 6.05875H19.5135ZM19.3695 5.28625L19.3417 5.356C19.4285 5.44475 19.5032 5.53425 19.5797 5.616C19.6552 5.69875 19.7297 5.776 19.797 5.85575C19.7252 5.64875 19.6447 5.607 19.5755 5.56375C19.5032 5.522 19.4417 5.47875 19.3692 5.28625H19.3695ZM19.319 5.21975C19.3377 5.2405 19.3512 5.25475 19.361 5.264C19.36 5.261 19.359 5.25875 19.358 5.2555C19.3422 5.241 19.3295 5.2295 19.319 5.21975ZM19.031 4.885C19.138 5.00525 19.2207 5.10425 19.2785 5.17325C19.2882 5.164 19.297 5.15375 19.303 5.141C19.2245 5.06125 19.1467 4.983 19.073 4.908C19.06 4.90325 19.0447 4.89325 19.031 4.885ZM17.8832 4.1525C17.7825 4.051 17.6785 3.95325 17.5755 3.855C17.4742 3.7555 17.3695 3.66025 17.2667 3.5635C17.1597 3.53025 17.55 3.89725 17.4815 3.87225C17.5647 3.9475 17.7265 4.04125 17.8832 4.15275V4.1525ZM18.3752 4.1715C18.3825 4.14725 18.3922 4.12575 18.404 4.10625C18.371 4.07325 18.3397 4.03875 18.3062 4.0065C18.3147 4.04725 18.3467 4.11125 18.373 4.16925L18.3752 4.17125V4.1715ZM18.5065 4.307C18.5107 4.29925 18.516 4.294 18.5205 4.29175C18.4837 4.2635 18.4457 4.2345 18.408 4.20525C18.4412 4.23975 18.4742 4.27375 18.5065 4.307ZM18.7342 4.4585L18.7997 4.52075L18.7975 4.516L18.74 4.45425C18.7362 4.4535 18.7365 4.45725 18.7342 4.4585ZM18.7297 4.4845C18.7357 4.51125 18.7512 4.54925 18.754 4.57275C18.7802 4.6015 18.805 4.62825 18.8302 4.656C18.8057 4.6035 18.7742 4.54675 18.7295 4.4845H18.7297ZM18.3447 4.61675C18.3845 4.7205 18.072 4.4405 18.3015 4.70225C18.4402 4.83475 18.5642 4.9105 18.567 4.85525L18.3447 4.617V4.61675ZM18.4195 3.602C18.5767 3.77975 18.6745 3.8905 18.8105 4.0445C18.86 4.06075 18.9142 4.08325 18.9715 4.1125C18.793 3.93925 18.611 3.7665 18.4195 3.602ZM17.6642 3.452C17.7735 3.53675 17.9017 3.67625 18.015 3.791C18.1267 3.90825 18.226 3.999 18.284 3.98475L18.1687 3.873C18.0607 3.7765 17.9515 3.68375 17.838 3.5925C17.7802 3.54575 17.7232 3.4975 17.6642 3.452ZM17.33 3.1955C17.3362 3.20325 17.3437 3.21075 17.3495 3.219C17.4377 3.29525 17.5255 3.37125 17.613 3.447L17.654 3.444C17.546 3.36125 17.4395 3.2765 17.33 3.19575V3.1955ZM16.8352 3.16275C16.7105 3.1085 16.6005 3.051 16.4845 2.9895C16.6445 3.12425 16.8472 3.22675 17.063 3.37375C16.9867 3.30325 16.9105 3.2325 16.8352 3.1625V3.16275ZM16.854 2.9515L16.7287 2.88675C16.8812 2.99775 16.971 3.05775 16.958 3.0355C16.9237 3.0075 16.889 2.97975 16.854 2.9515ZM16.4492 2.6675C16.4862 2.7035 16.516 2.73075 16.5422 2.7545C16.5975 2.7935 16.6497 2.83025 16.6957 2.863L16.7712 2.885C16.7502 2.86775 16.7287 2.8505 16.7077 2.8335C16.615 2.7765 16.5265 2.72075 16.4495 2.66775L16.4492 2.6675ZM15.9567 2.712L15.9442 2.70525L15.9432 2.7065L15.9567 2.712ZM16.1225 2.77225C16.0745 2.74075 16.0242 2.7075 15.9707 2.672L15.9532 2.694L15.9865 2.725C16.0332 2.7455 16.079 2.76125 16.1225 2.7725V2.77225ZM16.0822 2.4315C16.0837 2.4335 16.0872 2.43725 16.0882 2.43925C16.1232 2.463 16.1562 2.48575 16.1902 2.509C16.1547 2.4835 16.1187 2.45775 16.0822 2.4315ZM15.8062 2.5625L15.8375 2.59025L15.853 2.5935C15.837 2.583 15.8227 2.5735 15.8062 2.5625ZM15.6955 2.5C15.7172 2.51875 15.741 2.537 15.7657 2.555C15.7572 2.54425 15.7362 2.527 15.6955 2.5ZM15.6575 2.1165C15.678 2.13675 15.7092 2.1615 15.7457 2.18825C15.7715 2.19525 15.789 2.19775 15.7985 2.1955C15.7515 2.169 15.7042 2.14275 15.6575 2.1165ZM12.4462 0.702246C12.8272 0.863496 13.2412 1.0435 13.7812 1.28025C13.854 1.18475 14.154 1.43725 14.3017 1.37925C14.064 1.25675 14.1897 1.31775 14.485 1.47425C14.4565 1.44875 14.4257 1.425 14.3947 1.40175C14.3215 1.358 14.2495 1.315 14.1775 1.272C14.1422 1.2785 14.1177 1.2875 14.1075 1.28925L14.118 1.2375L14.0912 1.222C13.8145 1.0905 13.494 0.998246 13.1972 0.906496C12.9 0.813996 12.6252 0.721496 12.428 0.568246C12.2105 0.536246 12.6297 0.721246 12.4462 0.702246ZM11.9675 0.503746L12.0472 0.535996C12.0452 0.527996 12.0452 0.521246 12.0472 0.517246C12.021 0.512996 11.994 0.508246 11.9675 0.503746Z" fill="#69DDFF"/>
</g>
<path d="M6.90851 4.51028C6.96001 4.51128 7.05026 4.45753 7.22826 4.30103C7.19776 4.31203 7.15151 4.33578 7.09651 4.37203C7.04251 4.40903 6.97851 4.45678 6.90851 4.51028Z" fill="#69DDFF"/>
<path d="M4.81026 6.48051C4.81026 6.48051 4.81051 6.48026 4.81151 6.47876L4.76801 6.51351C4.78326 6.50301 4.79576 6.49176 4.81026 6.48051Z" fill="#69DDFF"/>
<path d="M22.3357 14.514L22.3152 14.556C22.3232 14.5422 22.3285 14.5295 22.3355 14.5157V14.514H22.3357Z" fill="#69DDFF"/>
<path d="M2.24649 13.0778L2.24124 13.1043C2.24374 13.1405 2.24599 13.1778 2.24599 13.2183L2.24649 13.0778Z" fill="#69DDFF"/>
<path d="M3.71649 17.6908C3.71924 17.6953 3.72199 17.699 3.72524 17.7035C3.72374 17.6978 3.72224 17.6925 3.72074 17.6865C3.71899 17.6883 3.71799 17.6893 3.71649 17.6908Z" fill="#69DDFF"/>
<path d="M6.76524 3.98825C6.71224 4.0245 6.65049 4.0705 6.58249 4.1225C6.63374 4.123 6.72449 4.07225 6.89949 3.91325C6.89424 3.915 6.88674 3.91925 6.88074 3.92175C6.93349 3.87425 6.99399 3.82025 7.06349 3.7915C6.96824 3.84175 6.76924 3.88725 6.76524 3.98825Z" fill="#69DDFF"/>
<path d="M7.00675 4.30927C6.998 4.32452 6.98475 4.34277 6.97 4.36227C6.9865 4.35127 7.0025 4.33927 7.0175 4.32552L7.007 4.30902L7.00675 4.30927Z" fill="#69DDFF"/>
<path d="M6.98001 4.26848L7.00676 4.30923C7.02501 4.27723 7.02551 4.25773 6.98001 4.26848Z" fill="#69DDFF"/>
<path d="M13.9357 1.63749C13.9357 1.63499 13.9365 1.63349 13.9365 1.63124C13.9297 1.62849 13.9235 1.62574 13.9167 1.62299C13.9232 1.62799 13.929 1.63224 13.9357 1.63749Z" fill="#69DDFF"/>
<path d="M13.3603 1.38428C13.535 1.45478 13.7415 1.54603 13.9168 1.62278C13.7425 1.48653 13.6073 1.45953 13.3603 1.38428Z" fill="#69DDFF"/>
<path d="M19.321 18.5088L19.335 18.522C19.343 18.501 19.3558 18.4743 19.37 18.4453C19.3525 18.4655 19.336 18.4863 19.321 18.5088Z" fill="#69DDFF"/>
<path d="M19.335 18.522C19.3185 18.5665 19.3207 18.5882 19.371 18.5552L19.335 18.522Z" fill="#69DDFF"/>
<path d="M19.7082 17.9845L19.5165 18.2482C19.4645 18.2037 19.4385 18.1815 19.5575 18.0225C19.5077 18.046 19.44 18.215 19.3932 18.3065L19.4407 18.2497C19.4325 18.2975 19.3977 18.3767 19.37 18.4452C19.5402 18.214 19.808 18.1255 19.7082 17.9845Z" fill="#69DDFF"/>
<path d="M19.8955 17.563C19.8315 17.6697 19.682 17.9312 19.8037 17.9007L19.8955 17.563Z" fill="#69DDFF"/>
</g>
<defs>
<clipPath id="clip0_4965_2546">
<rect width="24" height="24" fill="white"/>
</clipPath>
</defs>
</svg>
