<svg width="24" height="24" viewBox="0 0 24 24" fill="none" xmlns="http://www.w3.org/2000/svg">
<path d="M8.59796 17.048C7.73696 14.9232 7.54746 13.0905 9.08696 11.4497C10.2417 9.94324 13.2582 8.442 13.5195 6.53925C14.061 2.63124 9.00671 3.64999 9.41121 6.483C9.61821 7.927 9.02096 8.51924 7.94621 9.02149C6.48746 9.70549 5.47196 9.6895 5.33271 6.04124C5.23846 3.53724 7.13571 1.26899 9.57271 0.828245C12.5115 0.0257446 17.057 1.39799 18.0672 4.43849C18.8135 6.63599 17.7917 9.32349 15.7287 10.795C12.5077 13.0952 11.087 13.6762 11.0812 16.4662C11.077 17.8025 9.11946 18.3322 8.59796 17.048Z" fill="#D8E1FF"/>
<path d="M12.9021 20.665C13.0871 21.3305 13.0508 22.0835 12.6703 22.6765C11.8471 23.966 10.3481 23.8053 9.16556 23.3123C8.16106 22.896 7.75906 21.6478 8.20131 20.6865C8.73106 19.5373 9.62406 18.9578 10.6321 19.0003C11.9801 19.0565 12.5738 19.4808 12.9021 20.665Z" fill="#D8E1FF"/>
</svg>
