<svg width="16" height="16" viewBox="0 0 16 16" fill="none" xmlns="http://www.w3.org/2000/svg">
<path d="M5.73181 11.3653C5.15781 9.94878 5.03148 8.72694 6.05781 7.63311C6.82764 6.62878 8.83864 5.62795 9.01281 4.35945C9.37381 1.75411 6.00431 2.43328 6.27398 4.32195C6.41198 5.28461 6.01381 5.67945 5.29731 6.01428C4.32481 6.47028 3.64781 6.45961 3.55498 4.02745C3.49214 2.35811 4.75698 0.845946 6.38164 0.552112C8.34081 0.0171122 11.3711 0.931945 12.0446 2.95895C12.5421 4.42395 11.861 6.21561 10.4856 7.19661C8.33831 8.73011 7.39114 9.11744 7.38731 10.9774C7.38448 11.8683 6.07948 12.2214 5.73181 11.3653Z" fill="#666"/>
<path d="M8.60137 13.7767C8.72471 14.2204 8.70054 14.7224 8.44687 15.1177C7.89804 15.9774 6.89871 15.8702 6.11037 15.5415C5.44071 15.264 5.17271 14.4319 5.46754 13.791C5.82071 13.0249 6.41604 12.6385 7.08804 12.6669C7.98671 12.7044 8.38254 12.9872 8.60137 13.7767Z" fill="#666"/>
</svg>
